<svg xmlns="http://www.w3.org/2000/svg" id="Layer_1" data-name="Layer 1" viewBox="0 0 154.22 154.22"><defs><style>.cls-1{fill:#1a4966;}.cls-2{fill:#a8cd39;}</style></defs><circle class="cls-1" cx="77.11" cy="77.11" r="77.11"></circle><path class="cls-2" d="M122.64,44H31.58a4.2,4.2,0,0,0-4.19,4.19v57.92a4.2,4.2,0,0,0,4.19,4.19h91.06a4.2,4.2,0,0,0,4.19-4.19V48.15A4.2,4.2,0,0,0,122.64,44Zm1.69,62.11a1.69,1.69,0,0,1-1.69,1.69H105.35l-1.06-29.35a2.19,2.19,0,0,1-1.43,0l-1.06,29.35H31.58a1.69,1.69,0,0,1-1.69-1.69V48.15a1.69,1.69,0,0,1,1.69-1.69h91.06a1.69,1.69,0,0,1,1.69,1.69Zm-1.27-23.63c-.57,0-13.61-1.26-15.5-1.87a6.2,6.2,0,0,1-2.7-2.43l.23-.17a2.27,2.27,0,0,0,.73-1.58L123.21,82C123.61,82.11,123.63,82.5,123.06,82.44Zm-18.41-5a1.59,1.59,0,0,1-2.26-.11,1.6,1.6,0,0,1,.11-2.27,1.58,1.58,0,0,1,1.08-.42,1.61,1.61,0,0,1,1.07,2.8Zm-2.74.32a2.27,2.27,0,0,0,.48.4L88.84,90.46c-.31.29-.66.11-.33-.36S96.41,79,97.88,77.61a6.29,6.29,0,0,1,3.46-1.12A2.23,2.23,0,0,0,101.91,77.79ZM98.68,56.46c-.09-.41.24-.62.48-.1s5.71,12.41,6.13,14.36a6.22,6.22,0,0,1-.75,3.53,2.29,2.29,0,0,0-1-.22,2.24,2.24,0,0,0-1,.26C101.52,69.61,98.75,56.8,98.68,56.46ZM36.3,75H85.76v2.5H36.3Zm0,6.9H85.76v2.5H36.3Zm0,6.9H85.76v2.5H36.3Zm0,6.9H85.76v2.5H36.3ZM36.41,62a.48.48,0,0,1,.15-.5H38.5c.23.11.19.34.2.51.07,1,.12,2,.17,3,0,.48,0,1,.05,1.43s0,.63.08,1a2.4,2.4,0,0,0,.11-.23c.67-1.7,1.34-3.41,2-5.12a2.67,2.67,0,0,1,.35-.5h2.37a1.12,1.12,0,0,1,.16.28c.06.51.12,1,.15,1.53,0,1.08.07,2.16.11,3.25,0,.23,0,.46,0,.69a1.14,1.14,0,0,0,.17-.3c.61-1.48,1.21-3,1.83-4.45.15-.35.2-.77.57-1h2c.12.1.09.22,0,.34-.43,1-.87,2-1.29,2.94C47.07,66,46.51,67.33,46,68.62c-.05.1-.11.2-.15.3s-.17.21-.34.21H42.73a.26.26,0,0,1-.29-.28c0-.37,0-.75,0-1.12,0-.93-.07-1.87-.11-2.8,0-.26-.05-.51-.08-.81-.42,1.05-.83,2.07-1.23,3.09l-.65,1.64a.4.4,0,0,1-.41.28c-.87,0-1.73,0-2.6,0-.24,0-.31-.11-.33-.33-.06-.94-.14-1.89-.21-2.83-.05-.63-.1-1.26-.16-1.88S36.47,62.68,36.41,62Zm24.92,7.18c.55,0,1.1,0,1.65,0,.17,0,.26,0,.3-.24.12-.68.25-1.36.38-2.06H64c1.23,0,2.46,0,3.69,0a3.12,3.12,0,0,0,.75-.06,2.5,2.5,0,0,0,.7-.28,1.67,1.67,0,0,0,.63-1.23c.15-.76.3-1.52.41-2.29a1.12,1.12,0,0,0-.91-1.41c-.15,0-.29-.07-.44-.1H62.59a.4.4,0,0,0-.27.36c0,.34-.12.67-.18,1-.15.83-.3,1.67-.44,2.5l-.39,2.22c-.08.43-.17.86-.24,1.29C61,69,61.08,69.15,61.33,69.14Zm3-5.91H67l.49.05a.26.26,0,0,1,.25.3,12.1,12.1,0,0,1-.23,1.2c-.06.24-.3.27-.48.27-1,0-2.06,0-3.11,0C64.07,64.45,64.18,63.85,64.29,63.23Zm23.42-.54c0,.41-.13.82-.2,1.24,0,.18-.13.24-.3.24h-1.6c-.21,0-.27-.12-.24-.31l0,0c0-.43.09-.6-.45-.59-.71,0-1.42,0-2.13,0a3.8,3.8,0,0,0-.59.06.59.59,0,0,0-.42.51c-.15.8-.29,1.61-.43,2.42,0,.26-.07.53-.1.79a.29.29,0,0,0,.25.34,2,2,0,0,0,.49.06h2.25c.41,0,.5-.1.58-.5s0-.45.51-.44.94,0,1.42,0c.22,0,.3.1.26.31-.08.4-.16.81-.25,1.22a1.27,1.27,0,0,1-1.44,1.12c-1.72,0-3.43,0-5.14,0-1.18,0-1.4-.72-1.27-1.58s.3-1.7.45-2.55.24-1.55.43-2.31.64-1.07,1.5-1.17l.27,0h4.83a3.58,3.58,0,0,0,.45.09A1,1,0,0,1,87.71,62.69ZM68.86,69.13c.75,0,1.45,0,2.14,0a.38.38,0,0,0,.26-.18c.18-.29.35-.58.51-.89a.35.35,0,0,1,.36-.19c1,0,2,0,3,0h.54c.08.36.17.68.23,1a.28.28,0,0,0,.33.28c.58,0,1.17,0,1.75,0,.28,0,.33-.07.26-.35q-.86-3.48-1.7-7a.46.46,0,0,0-.27-.36H73.5a3.24,3.24,0,0,0-.4.43L71,65.38c-.68,1.15-1.37,2.29-2.05,3.45A1.5,1.5,0,0,0,68.86,69.13Zm5.7-6c.24,1,.47,2,.7,3H72.89C73.45,65.11,74,64.13,74.56,63.13ZM53,62.93a8.51,8.51,0,0,0,.17-1,.57.57,0,0,1,.27-.46h7.66a.29.29,0,0,1,.12.36A11.18,11.18,0,0,0,61,63c0,.19-.14.24-.31.23-.8,0-1.61,0-2.41,0-.19,0-.25.07-.28.24-.21,1.16-.42,2.32-.62,3.48-.12.63-.22,1.27-.33,1.9a.28.28,0,0,1-.33.28H55c-.22,0-.26-.08-.22-.29.21-1.13.4-2.27.6-3.41l.36-1.91a2.53,2.53,0,0,0,0-.29H53.21C53,63.23,52.91,63.17,53,62.93Zm-4.28,5.91c.22-1.22.45-2.45.67-3.67s.38-2.26.59-3.39c0-.12.17-.21.25-.32H52a.34.34,0,0,1,.12.36c-.25,1.33-.47,2.66-.7,4-.17,1-.35,2-.52,3a.36.36,0,0,1-.42.35c-.52,0-1,0-1.57,0C48.71,69.14,48.65,69.05,48.69,68.84Z"></path></svg>