<svg xmlns="http://www.w3.org/2000/svg" id="Layer_1" data-name="Layer 1" viewBox="0 0 153.65 153.65"><defs><style>.cls-1{fill:#1a4966;}.cls-2{fill:#a8cd39;}.cls-3{fill:none;}</style></defs><circle class="cls-1" cx="76.82" cy="76.82" r="76.82"></circle><path class="cls-2" d="M91.44,50.17l12.09,12.09h0a1.39,1.39,0,0,1,0,2h0L63.89,103.88h0a1.39,1.39,0,0,1-.67.37l-18.11,6h0a1.39,1.39,0,0,1-1.77-.88,1.38,1.38,0,0,1,0-1l6.21-18.17,1.32.45-1.32-.45a1.42,1.42,0,0,1,.36-.56L89.46,50.16h0a1.4,1.4,0,0,1,2,0Zm9.13,13.08L90.45,53.13,52.13,91.44,46.9,106.73l15.24-5,38.43-38.43Z"></path><path class="cls-2" d="M87,54.63a1.4,1.4,0,1,0-2,2l12.1,12.1a1.4,1.4,0,1,0,2-2Z"></path><path class="cls-2" d="M92.42,51.15l10.12,10.12,3.57-3.57a5.07,5.07,0,0,0,0-7.14l-3-3a5.07,5.07,0,0,0-7.14,0Zm9.14,13.09L89.46,52.15h0a1.39,1.39,0,0,1,0-2h0L94,45.6a7.87,7.87,0,0,1,11.1,0l3,3a7.86,7.86,0,0,1,0,11.09l-4.55,4.55h0a1.4,1.4,0,0,1-2,0Z"></path><path class="cls-2" d="M48.28,100.28a1.4,1.4,0,0,0-2,2l5.11,5.11a1.39,1.39,0,0,0,2,0,1.41,1.41,0,0,0,0-2Z"></path><path class="cls-2" d="M61.92,103.88a1.4,1.4,0,0,0,2-2L51.79,89.8a1.4,1.4,0,1,0-2,2Z"></path><rect class="cls-3" x="32.08" y="32.08" width="89.48" height="89.48"></rect></svg>