<svg xmlns="http://www.w3.org/2000/svg" id="Layer_1" data-name="Layer 1" viewBox="0 0 153.65 153.65"><defs><style>.cls-1{fill:#1a4966;}.cls-2{fill:#a8cd39;}</style></defs><circle class="cls-1" cx="76.82" cy="76.82" r="76.82"></circle><path class="cls-2" d="M109.25,38.12h-8V45a2.85,2.85,0,1,1-5.69,0V38.12H58.12V45a2.85,2.85,0,1,1-5.69,0V38.12h-8a7.2,7.2,0,0,0-7.19,7.19v64.85a7.19,7.19,0,0,0,7.19,7.19h64.85a7.19,7.19,0,0,0,7.19-7.19V45.31A7.2,7.2,0,0,0,109.25,38.12ZM44.4,41.27h4.88V45a6,6,0,1,0,12,0V41.27h31.1V45a6,6,0,1,0,12,0V41.27h4.88a4,4,0,0,1,4,4v14H40.36v-14A4,4,0,0,1,44.4,41.27Zm64.85,72.93H44.4a4,4,0,0,1-4-4V62.47h72.93v47.69A4,4,0,0,1,109.25,114.2Z"></path><path class="cls-2" d="M55.35,46.32a1.57,1.57,0,0,0,1.57-1.57V37.87a1.58,1.58,0,1,0-3.15,0v6.88A1.57,1.57,0,0,0,55.35,46.32Z"></path><path class="cls-2" d="M98.44,46.32A1.57,1.57,0,0,0,100,44.75V37.87a1.58,1.58,0,1,0-3.15,0v6.88A1.57,1.57,0,0,0,98.44,46.32Z"></path><path class="cls-2" d="M46.6,79.91H58.22V68.3H46.6Zm3.15-8.46h5.31v5.31H49.75Z"></path><path class="cls-2" d="M62.86,79.91H74.48V68.3H62.86ZM66,71.45h5.31v5.31H66Z"></path><path class="cls-2" d="M79.12,79.91H90.73V68.3H79.12Zm3.15-8.46h5.31v5.31H82.27Z"></path><path class="cls-2" d="M95.38,79.91H107V68.3H95.38Zm3.15-8.46h5.31v5.31H98.53Z"></path><path class="cls-2" d="M46.6,94H58.22V82.39H46.6Zm3.15-8.46h5.31v5.31H49.75Z"></path><path class="cls-2" d="M62.86,94H74.48V82.39H62.86ZM66,85.54h5.31v5.31H66Z"></path><path class="cls-2" d="M79.12,94H90.73V82.39H79.12Zm3.15-8.46h5.31v5.31H82.27Z"></path><path class="cls-2" d="M95.38,94H107V82.39H95.38Zm3.15-8.46h5.31v5.31H98.53Z"></path><path class="cls-2" d="M46.6,108.23H58.22V96.62H46.6Zm3.15-8.46h5.31v5.31H49.75Z"></path><path class="cls-2" d="M62.86,108.23H74.48V96.62H62.86ZM66,99.77h5.31v5.31H66Z"></path><path class="cls-2" d="M79.12,108.23H90.73V96.62H79.12Zm3.15-8.46h5.31v5.31H82.27Z"></path></svg>