<svg xmlns="http://www.w3.org/2000/svg" id="Layer_1" data-name="Layer 1" viewBox="0 0 154.22 154.22"><defs><style>.cls-1{fill:#1a4966;}.cls-2{fill:#a8cd39;}</style></defs><circle class="cls-1" cx="77.11" cy="77.11" r="77.11"></circle><path class="cls-2" d="M99.83,40.44H50a3.31,3.31,0,0,0-3.31,3.31V47a1.31,1.31,0,0,0,2.62,0V43.75a.69.69,0,0,1,.69-.69H99.83a.69.69,0,0,1,.69.69V74a.69.69,0,0,1-.69.68H69.92a1.31,1.31,0,0,0,0,2.62H99.83A3.31,3.31,0,0,0,103.14,74V43.75A3.31,3.31,0,0,0,99.83,40.44Z"></path><path class="cls-2" d="M36.83,94.78H56.17a1.31,1.31,0,0,0,1.31-1.31v-16l3.83,1.26a3.38,3.38,0,0,0,4.1-1.15l6.06-8.82A3.15,3.15,0,0,0,71.4,65l-.1-.13.09-.13,5.13-7.92a1.32,1.32,0,0,0,.19-1,1.31,1.31,0,0,0-1.56-1,1.26,1.26,0,0,0-.82.57l-5.2,8-.16,0a3,3,0,0,0-3.38,1.1l-4.31,6.34-.17-.07A99.83,99.83,0,0,0,50.33,67l-.19,0a16.15,16.15,0,0,0-3.39-.47l0-.47a8.32,8.32,0,1,0-1.19,0v.46a10.81,10.81,0,0,0-10,10.52V93.47A1.31,1.31,0,0,0,36.83,94.78ZM40.16,57.7A5.81,5.81,0,1,1,46,63.51,5.81,5.81,0,0,1,40.16,57.7Zm-2,19.36a8.17,8.17,0,0,1,8.36-8,12.92,12.92,0,0,1,3,.42l.2,0a111.35,111.35,0,0,1,11.54,4.06,1.29,1.29,0,0,0,1.57-.48l5-7.29H68a2.09,2.09,0,0,1,.78.21c.66.45.82.82.54,1.24l-6.06,8.8a.75.75,0,0,1-.88.25l-5.79-1.93a1.34,1.34,0,0,0-1.18.18,1.31,1.31,0,0,0-.55,1.06V92.16H38.14Z"></path><path class="cls-2" d="M58.15,113.78h59.24a1.31,1.31,0,0,0,1-.46,1.29,1.29,0,0,0,.3-1l-.16-1a11.66,11.66,0,0,0-9.47-9.64l-1.1-.19,1.09-.26a8.81,8.81,0,1,0-4,0l1.09.26-1.1.19a11.61,11.61,0,0,0-5.56,2.65,11.13,11.13,0,0,0-1.85,2l-.19.26-.19-.26a11.6,11.6,0,0,0-7.42-4.68l-1.1-.19,1.09-.26a8.81,8.81,0,1,0-4,0l1.09.26-1.1.19a11.76,11.76,0,0,0-7.42,4.67l-.19.27L78,106.3a11.87,11.87,0,0,0-1.86-2,11.61,11.61,0,0,0-5.56-2.65l-1.11-.19,1.09-.26a8.8,8.8,0,1,0-4,0l1.09.26-1.1.19A11.66,11.66,0,0,0,57,111.27l-.15,1a1.3,1.3,0,0,0,1.29,1.51Zm42.69-21.15A6.19,6.19,0,1,1,107,98.82,6.19,6.19,0,0,1,100.84,92.63Zm-19.26,0a6.19,6.19,0,1,1,6.18,6.19A6.18,6.18,0,0,1,81.58,92.63Zm-19.27,0a6.19,6.19,0,1,1,6.19,6.19A6.19,6.19,0,0,1,62.31,92.63Zm-2.55,18.25a9,9,0,0,1,2.86-4.62,9.17,9.17,0,0,1,11.76,0,8.94,8.94,0,0,1,2.53,3.59,1.31,1.31,0,0,0,2.44,0,9.07,9.07,0,0,1,2.54-3.59,9,9,0,0,1,14.29,3.59,1.31,1.31,0,0,0,2.44,0,8.94,8.94,0,0,1,2.53-3.59,9.27,9.27,0,0,1,11.76,0,9,9,0,0,1,2.86,4.61l.07.29H59.69Z"></path></svg>