<svg xmlns="http://www.w3.org/2000/svg" id="Layer_1" data-name="Layer 1" viewBox="0 0 154.22 154.22"><defs><style>.cls-1{fill:#1a4966;}.cls-2{fill:#a8cd39;}</style></defs><circle class="cls-1" cx="77.11" cy="77.11" r="77.11"></circle><path class="cls-2" d="M85.76,77.05l4.55-3.32a2.63,2.63,0,0,0,.93-2.11,2.41,2.41,0,0,0-1.31-2L67.69,56.78a2.63,2.63,0,0,0-2.68-.1,2.6,2.6,0,0,0-1,2.67l5.55,25a2.62,2.62,0,0,0,4.09,1.55l4.61-3.37,5.09,7A3.52,3.52,0,0,0,86.18,91a3.71,3.71,0,0,0,2.19-.72L90,89.05a3.66,3.66,0,0,0,1.48-2.4A3.5,3.5,0,0,0,90.85,84Zm2.63,9.81-1.62,1.19a.81.81,0,0,1-1.27-.13l-5.88-8.07a1.36,1.36,0,0,0-.88-.53l-.21,0a1.34,1.34,0,0,0-.8.26l-5.55,4.23L66.7,59.34,88.33,71.83l-5.26,3.84a1.36,1.36,0,0,0-.29,1.89l5.88,8.06a.86.86,0,0,1,.14.61A1,1,0,0,1,88.39,86.86Z"></path><path class="cls-2" d="M125.12,99.16h-3.23V49.43a8.18,8.18,0,0,0-8.17-8.17H40.49a8.18,8.18,0,0,0-8.17,8.17V99.16H29.09a5.27,5.27,0,0,0-5.26,5.27v3.26A5.27,5.27,0,0,0,29.09,113h96a5.28,5.28,0,0,0,5.27-5.27v-3.26A5.27,5.27,0,0,0,125.12,99.16ZM35,49.43A5.48,5.48,0,0,1,40.49,44h73.24a5.47,5.47,0,0,1,5.46,5.47V99.16H35Zm92.66,58.26a2.58,2.58,0,0,1-2.57,2.57h-96a2.57,2.57,0,0,1-2.56-2.57v-3.26a2.57,2.57,0,0,1,2.56-2.57h96a2.57,2.57,0,0,1,2.57,2.57Z"></path><path class="cls-2" d="M86.19,104.71H68a1.35,1.35,0,1,0,0,2.7H86.19a1.35,1.35,0,0,0,0-2.7Z"></path></svg>