<svg xmlns="http://www.w3.org/2000/svg" id="Layer_2" viewBox="0 0 243.42 76.34"><defs><style>.cls-1,.cls-2{fill:#020000;}.cls-2{opacity:.8;}</style></defs><g id="Layer_1-2"><path class="cls-2" d="m57.78,3.73c.13,1.19.25,2.39.39,3.58.06.51.27.97.41,1.46.19.64.03.97-.61,1.25-.12.05-.19.12-.23.24-.07.2-.13.39-.23.58-.16.33-.13.58.14.86.55.57.5.39.1,1.16-.24.45-.54.78-1.06.87-.31.06-.61.23-.92.29-.87.17-1.47.7-2.04,1.33-.23.26-.22.44-.08.72.51.98.96,2,1.51,2.96.44.77.31,1.62.46,2.42.02.09-.07.21-.12.31-.07.12-.17.22-.23.34-.37.74-.94,1.23-1.77,1.4-.41.08-.57.37-.77.7-.53.87-.56,1.69-.06,2.58.24.42.32.92.56,1.34.53.94.4,1.91.26,2.89-.03.22-.15.38-.27.55-.63.88-1.25,1.77-1.89,2.65-.48.66-1.11,1.18-1.75,1.66-.76.57-.8,1.41-1.07,2.17-.03.09,0,.18.06.26.06.07.11.16.18.21.9.65,1.05,1.54.89,2.56-.04.26-.06.5-.28.67-.05.04-.1.1-.15.15-.97,1.02-.97,1.01-2.38.89-.79-.06-1.55-.19-2.27-.54-.72-.36-1.52-.35-2.29-.5-.63-.12-1.27-.23-1.92-.28-.69-.06-1.28-.28-1.85-.68-.82-.56-1.67-1.07-2.51-1.6.41-.47.79-.96,1.12-1.49.69-1.14.8-2.31.16-3.48-.68-1.25-.78-2.57-.66-3.95.1-1.15.05-2.33-.59-3.35-.27-.43-.26-.72.02-1.1.19-.26.35-.55.49-.84.4-.84.4-1.69,0-2.53-.13-.27-.28-.53-.46-.77-.5-.66-.75-1.42-.92-2.22-.17-.81-.35-1.62-.55-2.42-.24-.95-.66-1.83-1.32-2.56-.55-.6-1.16-1.12-1.99-1.31-.22-.05-.51.12-.65-.09-.13-.2.04-.44.07-.67.02-.16.06-.32.09-.48.04-.3.16-.4.51-.35,1.58.2,2.74-1.06,2.42-2.61-.15-.74-.48-1.38-1.02-1.92-.84-.83-1.7-1.63-2.43-2.56-.09-.11-.26-.21-.14-.41.73.13,1.46.14,2.2,0,.24-.04.53-.1.74.06.45.33.95.32,1.46.29.44-.02.87-.08,1.31-.08,3.16-.05,6.32-.16,9.48-.27,2.33-.08,4.66-.12,6.99-.18.65-.02,1.29,0,1.94-.05,1.18-.09,2.35-.09,3.53-.08Z"></path><path class="cls-1" d="m57.78,3.73c-1.18-.01-2.35-.02-3.53.08-.64.05-1.29.03-1.94.05-2.33.06-4.66.1-6.99.18-3.16.12-6.32.22-9.48.27-.44,0-.87.06-1.31.08-.51.02-1.01.04-1.46-.29-.22-.16-.5-.1-.74-.06-.73.13-1.46.12-2.2,0-.12.21.06.3.14.41.72.93,1.59,1.73,2.43,2.56.55.54.87,1.18,1.02,1.92.32,1.56-.84,2.82-2.42,2.61-.35-.04-.46.05-.51.35-.02.16-.06.32-.09.48-.03.23-.21.47-.07.67.15.21.43.04.65.09.82.2,1.44.71,1.99,1.31.66.73,1.08,1.61,1.32,2.56.21.8.38,1.61.55,2.42.17.8.43,1.55.92,2.22.18.24.33.5.46.77.4.84.41,1.69,0,2.53-.14.29-.3.58-.49.84-.28.37-.29.67-.02,1.1.64,1.02.69,2.2.59,3.35-.13,1.39-.03,2.7.66,3.95.64,1.17.53,2.35-.16,3.48-.33.53-.71,1.02-1.12,1.49-.43.31-.85.64-1.29.92-.59.37-1.24.61-1.95.62-.97.01-1.76-.49-2.13-1.38-.24-.58-.37-1.19-.2-1.82.06-.13.1-.26.18-.37.33-.5.31-.97,0-1.47-.21-.33-.35-.71-.18-1.12.08-.2-.07-.26-.22-.36-.56-.39-.69-.78-.52-1.43.05-.18.12-.35.17-.53.2-.77.43-1.54.47-2.37-1.78.68-2.04.64-2.62-.37-.17-1.37.11-2.66.63-3.92.22-.53.42-1.07.55-1.64.09-.41.12-.81.03-1.22-.35-.06-.62.12-.89.22-1.27.47-2.41.3-3.37-.69-.24-.25-.44-.3-.76-.11-.63.37-1.29.26-1.91-.08-.45-.24-.92-.45-1.32-.75-.89-.69-1.94-.81-2.99-.95-1.56-.2-3.13-.27-4.68-.54-1.61-.28-3.12-.83-4.5-1.71-.95-.61-1.89-1.24-2.85-1.85-.72-.46-1.49-.82-2.3-1.1-.29-.1-.4-.02-.49.27-.64,1.97-.77,3.92-.03,5.9.52,1.36,1.16,2.66,1.82,3.96.58,1.13,1.19,2.25,1.37,3.53.08.62.18,1.24.19,1.86.04,1.71.4,3.33,1.28,4.83.59,1,1.02,2.07,1.27,3.2.07.3.2.55.48.72.45.28.87.61,1.31.9.82.54,1.4,1.27,1.76,2.17.47,1.2.12,2.25-.98,2.93-.29.18-.62.31-.93.47-.16.08-.37.14-.24.39.09.2.11.47.45.41.11-.02.23-.02.35-.02,1.51,0,2.54,1.42,2.09,2.87-.14.45-.35.86-.66,1.21-.43.49-.66,1.05-.73,1.69-.13,1.14-.57,2.13-1.42,2.93-.12.11-.22.24-.3.38-.3.5-.15.97.39,1.17.68.26,1.39.29,2.11.31.83.01,1.66-.02,2.49.08,1.32.16,2.25.77,2.67,2.07.09.3.25.38.55.36,1.14-.05,2.25.15,3.33.53,1.77.62,3.15,1.7,4.09,3.34.7,1.23,1.18,2.55,1.58,3.9.27.91.54,1.81.79,2.72.27.97.9,1.58,1.8,1.96,1.08.45,2.23.56,3.38.66.51.04,1.02.03,1.52.04,1.13.01,2.19-.26,3.19-.8,1.47-.79,2.97-1.5,4.59-1.9,1.53-.38,3.06-.67,4.65-.54.95.08,1.78.41,2.55.97,1.3.94,2.75,1.26,4.33.86.48-.12.89-.38,1.3-.63.34-.21.69-.42,1.14-.69,0,.89,0,1.67,0,2.44,0,.27-.22.33-.39.43-1.44.86-2.99,1.05-4.61.75-1.17-.22-2.26-.64-3.21-1.4-.45-.36-.98-.5-1.55-.51-1.97-.03-3.85.42-5.65,1.18-.66.28-1.31.58-1.93.93-1.3.72-2.68,1.12-4.16,1.15-1.64.03-3.28-.08-4.88-.47-.49-.12-.97-.29-1.43-.51-1.42-.66-2.38-1.72-2.82-3.23-.33-1.13-.65-2.26-.99-3.39-.26-.86-.6-1.69-1.01-2.5-.93-1.84-2.51-2.69-4.47-2.98-.71-.1-1.42-.08-2.13.09-.88.2-1.41-.21-1.53-1.13-.17-1.35-.27-1.46-1.62-1.52-.88-.04-1.75-.04-2.63-.08-.7-.03-1.38-.18-2.02-.45-1.82-.77-2.43-2.87-1.33-4.51.19-.29.42-.55.67-.79.36-.36.59-.78.64-1.27.12-1.13.48-2.15,1.19-3.04.07-.05.15-.12.05-.2-.02-.02-.11.05-.16.07-.94.31-1.36.15-1.8-.71-.43-.84-.7-1.75-1.12-2.6-.26-.54-.04-1.12.5-1.42.4-.23.84-.39,1.25-.58.31-.15.65-.23.92-.49-.15-.54-.49-.92-.94-1.23-.54-.36-1.05-.75-1.58-1.12-.51-.36-.87-.83-1-1.45-.27-1.28-.82-2.44-1.44-3.58-.79-1.44-1.17-3-1.24-4.64-.02-.6-.08-1.2-.14-1.79-.1-1.01-.5-1.91-.96-2.79-.71-1.37-1.43-2.74-1.98-4.19-.41-1.06-.7-2.14-.83-3.27-.1-.82-.05-1.62.09-2.41.14-.75.34-1.48.54-2.22.06-.24.16-.48.28-.71.45-.9,1.2-1.3,2.21-1.2.51.05.99.21,1.46.4,1.24.48,2.35,1.18,3.45,1.9.42.28.85.56,1.27.85,1.5,1.04,3.18,1.55,4.97,1.76,1.58.19,3.17.29,4.75.54.88.14,1.71.38,2.44.91.17.12.36.21.53.32.51.32.99.57,1.57.05.33-.3.8-.13,1.19.03.53.21.95.57,1.33.97.32.34.65.44,1.11.25.42-.18.85-.34,1.24-.59,1.06-.68,1.64-.49,2.19.66.61,1.27.66,2.57.32,3.91-.03.13-.08.26-.12.42.22.1.41-.03.6-.03.57.01.96.29,1.11.85.05.18.07.36.08.55.1,1.88-.01,3.74-.45,5.57-.07.29-.13.49.2.69.5.32.49.87.37,1.38-.1.44-.08.79.28,1.12.24.22.29.56.25.9-.06.46-.23.89-.42,1.31-.08.19-.17.38-.22.58-.05.24.06.36.31.27.17-.06.35-.12.51-.21.57-.32,1.04-.75,1.44-1.27.51-.65.62-1.27.19-2.03-.63-1.11-.86-2.32-.79-3.6.04-.74.03-1.48.02-2.22,0-.52-.14-.99-.57-1.35-.42-.35-.44-.85-.37-1.34.06-.48.23-.94.49-1.36.16-.25.31-.52.48-.76.25-.37.28-.73,0-1.08-1.05-1.31-1.36-2.9-1.67-4.49-.11-.54-.23-1.08-.43-1.6-.19-.5-.44-.97-.85-1.31-.16-.02-.2.1-.27.18-.55.58-1.18.61-1.76.09-.82-.73-1.12-1.67-1.06-2.74.03-.6.15-1.19.27-1.78.02-.11.05-.23.07-.34.08-.56.11-1.08-.41-1.51-.37-.31-.38-.78-.19-1.21.18-.42.53-.63.99-.64.14,0,.28.03.41.02.24-.01.55.24.69-.02.14-.26-.22-.41-.38-.58-.66-.71-1.33-1.41-1.83-2.25-.33-.54-.56-1.11-.54-1.76.02-1,.8-1.93,1.78-2.11.39-.07.76,0,1.01.31.35.44.81.48,1.31.44.39-.03.78-.07,1.17-.09.51-.02,1.02-.01,1.48.24.22.12.45.07.68.07,4.66-.13,9.32-.27,13.99-.4,5.75-.16,11.49-.31,17.24-.48,7.11-.21,14.22-.42,21.32-.63,4.11-.12,8.22-.22,12.32-.34,2.35-.07,4.71-.14,7.06-.23.54-.02,1,.08,1.37.5.24.27.38.57.38.93.05,2.77.1,5.54.15,8.31,0,.56,0,.56-.56.57-.39,0-.79,0-1.18,0-.49,0-.49-.01-.5-.5-.04-2.08-.08-4.15-.13-6.23,0-.39.14-.88-.09-1.14-.27-.3-.78-.11-1.19-.1-5.98.17-11.95.35-17.93.52-4.55.13-9.09.26-13.64.39-4.38.12-8.77.24-13.15.37-.83.02-1.66.08-2.49.12Zm-27.48,4.24s-.03-.06-.05-.09c-.02.02-.05.03-.04.05,0,.03.03.06.04.09.02-.02.03-.03.05-.05Z"></path><path class="cls-1" d="m86.18,48.17c1.96,0,3.93,0,5.89,0,.26,0,.62-.14.74.19.12.34.1.73,0,1.09-.06.18-.27.14-.43.14-.76,0-1.52,0-2.29,0-.53,0-.57.03-.58.54-.05,2.86-.13,5.72.01,8.58.04.71.03.7-.63,1-2.51,1.14-5.1,2.04-7.81,2.53-3.5.64-6.98.56-10.41-.47-1.58-.47-3.03-1.24-4.33-2.27-1.96-1.56-3.31-3.52-3.88-5.98-.73-3.1-.89-6.23-.04-9.32,1.44-5.23,4.77-8.73,9.89-10.56,3.08-1.1,6.26-1.31,9.48-1.2,2.42.08,4.77.47,7.04,1.34,1.16.45,1.07.32.84,1.46-.28,1.4-.55,2.81-.82,4.21-.02.11-.04.23-.06.34-.04.18-.15.29-.34.27-.17-.01-.31-.06-.35-.27-.07-.36-.18-.72-.24-1.08-.18-.99-.7-1.73-1.51-2.31-1.3-.92-2.73-1.53-4.29-1.86-2.05-.44-4.14-.66-6.18-.12-4.34,1.13-7.27,3.82-8.38,8.24-.79,3.18-.81,6.4-.04,9.6,1.13,4.66,4.19,7.34,8.78,8.37,1.7.38,3.43.48,5.16.15,1.19-.22,2.21-.77,3-1.72.21-.26.37-.53.37-.87,0-2.61.09-5.22-.23-7.81-.01-.09-.02-.18-.03-.27-.1-.48-.14-.52-.64-.52-1.22,0-2.45,0-3.67,0-.65,0-.65-.02-.66-.66,0-.05,0-.09,0-.14,0-.6.02-.63.63-.62,1.73,0,3.46.02,5.2.03.28,0,.55,0,.83,0,0-.01,0-.02,0-.03Z"></path><path class="cls-1" d="m160.77,43.28c0,4.18,0,8.36,0,12.53,0,.95.03,1.89.22,2.82.03.14.05.27.1.4.31.91.7.93,1.34.68.66-.26,1.37-.41,2.03-.68.57-.23.7-.12.72.48.02.62-.02.67-.63.89-1.93.7-3.87,1.37-5.76,2.16-.47.2-.95.36-1.45.45-.62.1-.74,0-.75-.62,0-.76,0-1.52,0-2.29,0-.14.02-.28,0-.41-.04-.25-.19-.3-.4-.16-.11.08-.21.18-.32.27-.78.66-1.6,1.26-2.49,1.75-2.62,1.45-6.42,1.65-9.26-.8-1.1-.95-1.79-2.15-2.25-3.51-1.02-3.03-1.1-6.08-.1-9.11,1.1-3.33,3.48-5.21,6.94-5.77,2.42-.4,4.68.04,6.83,1.16.77.4.78.39.77-.46-.04-3.11.02-6.23-.13-9.34-.02-.51-.12-1.01-.3-1.48-.17-.43-.46-.65-.95-.64-.76.02-1.52.01-2.29,0-.49,0-.49-.02-.5-.52,0-.09,0-.18,0-.28.02-.48.03-.51.51-.52.76-.01,1.52-.02,2.28-.07,1.3-.08,2.56-.33,3.79-.75.5-.17,1.01-.34,1.52-.48.55-.15.67-.06.67.51,0,.97-.01,1.94-.04,2.91-.06,1.82-.1,3.64-.09,5.47,0,1.8,0,3.6,0,5.4Zm-4.33,8.6s0,0-.01,0c0-.42.01-.83,0-1.25-.04-1.45-.1-2.9-.14-4.36-.02-.74-.33-1.24-1.02-1.57-.9-.43-1.83-.74-2.82-.9-2.88-.45-5.86.96-6.67,4.31-.4,1.65-.52,3.33-.38,5.01.13,1.56.53,3.04,1.35,4.39.63,1.03,1.52,1.76,2.69,2.02,2.17.48,4.26.23,6.23-.86.66-.36.95-.85.92-1.62-.08-1.73-.11-3.46-.16-5.19Z"></path><path class="cls-1" d="m190.19,57.26c.28-.06.32-.29.4-.46,1.44-2.97,2.82-5.96,4.04-9.03.3-.75.57-1.51.68-2.32.03-.23.04-.46,0-.69-.12-.75-.29-.89-1.03-.9-.42,0-.83,0-1.25,0-.51-.02-.55-.06-.57-.55,0-.12.01-.23,0-.35-.04-.38.15-.46.49-.46,2.33,0,4.67,0,7,0,.32,0,.48.1.44.44,0,.02,0,.05,0,.07.03.85.03.89-.8.85-.74-.03-1.09.38-1.37.95-1.02,2.07-2.04,4.14-3.06,6.21-1.79,3.64-3.45,7.35-5.16,11.03-.11.23-.21.47-.35.67-.37.51-.85.53-1.28.06-.22-.24-.34-.55-.48-.84-1.38-2.99-2.62-6.05-3.87-9.1-.4-.98-.86-1.94-1.3-2.9-.07-.16-.12-.39-.34-.38-.21,0-.26.23-.34.4-1,2.18-2,4.36-3,6.54-.89,1.95-1.79,3.9-2.6,5.88-.05.13-.1.26-.18.37-.27.42-.66.49-1.06.19-.27-.2-.43-.48-.57-.77-1.56-3.42-3.19-6.8-4.65-10.27-1-2.38-2.17-4.69-3.31-7.01-.1-.21-.24-.39-.38-.58-.22-.29-.51-.46-.89-.43-.16.01-.32,0-.48,0-.64,0-.65-.02-.66-.66,0-.69,0-.7.68-.7,2.59,0,5.17,0,7.76,0,.66,0,.69-.11.69.67,0,.09,0,.19,0,.28.02.29-.1.43-.4.42-.37-.01-.74,0-1.11,0-.49.01-.54.08-.51.58.01.24.09.45.18.66,1.56,3.7,3.12,7.39,4.68,11.09.11.26.15.68.5.67.28,0,.35-.39.47-.64,1.04-2.16,2.19-4.27,3.11-6.49.27-.64.49-1.29.72-1.94.13-.36.14-.72-.02-1.08-.33-.76-.72-1.5-1.21-2.17-.35-.48-.79-.77-1.41-.69-.09.01-.18,0-.28,0-.95,0-1.01-.08-.9-1.03.03-.23.12-.33.34-.33.14,0,.28,0,.42,0,2.7,0,5.4,0,8.11,0,.16,0,.32,0,.48,0,.09,0,.2.02.22.13.07.36.08.74,0,1.1-.03.16-.22.13-.36.13-.39,0-.79-.01-1.18,0-.42.02-.5.11-.41.51.07.31.17.62.28.92,1.47,3.96,3.24,7.79,4.88,11.68.04.1.11.19.17.28Z"></path><path class="cls-1" d="m138.22,52.01c.02,2.12-.38,4.12-1.51,5.95-1.62,2.62-3.97,4.12-7.01,4.53-1.73.23-3.48.25-5.14-.28-2.58-.83-4.65-2.33-5.74-4.92-1.29-3.08-1.57-6.22-.31-9.36,1.39-3.45,4.05-5.33,7.71-5.81,1.49-.2,2.99-.27,4.48-.05,3.67.54,5.98,2.64,7.02,6.18.36,1.23.48,2.49.5,3.76Zm-4.33,1.63c0-.9-.03-1.8-.17-2.69-.35-2.15-1.15-4.08-2.7-5.65-1.52-1.54-3.35-2.04-5.45-1.63-1.16.23-2.03.84-2.52,1.95-.23.51-.44,1.02-.56,1.56-.57,2.41-.46,4.81.08,7.2.37,1.63.88,3.21,1.86,4.58,1.32,1.84,2.98,2.64,5.64,2.14.68-.13,1.25-.46,1.74-.93.93-.89,1.46-2,1.77-3.23.27-1.08.32-2.19.32-3.3Z"></path><path class="cls-1" d="m105.38,41.98c1.09-.06,2.17.02,3.22.32,2.61.74,4.47,2.36,5.44,4.9,1.03,2.71,1.17,5.5.42,8.29-1.04,3.85-4.18,6.51-8.15,7-1.66.21-3.34.24-4.94-.25-2.71-.83-4.86-2.4-5.96-5.15-1.1-2.74-1.41-5.55-.5-8.38,1.25-3.91,4.01-6.06,8.06-6.6.39-.05.78-.1,1.17-.12.41-.02.83,0,1.25,0Zm5.2,11.5c.02-.67-.04-1.5-.16-2.32-.3-2.1-1.04-4.01-2.48-5.6-1.52-1.68-3.39-2.32-5.61-1.91-1.21.22-2.12.84-2.63,2-.27.61-.5,1.24-.63,1.9-.47,2.37-.34,4.72.22,7.06.37,1.53.86,3.02,1.78,4.32,1.33,1.87,2.98,2.67,5.61,2.2.73-.13,1.34-.48,1.86-1,.81-.8,1.31-1.77,1.62-2.85.34-1.18.42-2.4.42-3.79Z"></path><path class="cls-1" d="m234.55,44.55c0,2.65,0,5.31,0,7.96,0,1.45-.04,2.91-.04,4.36,0,1.01.05,2.03.23,3.03.04.2.09.4.15.6.11.38.35.56.77.54.71-.02,1.43-.01,2.15,0,.48,0,.49.03.51.52,0,.14,0,.28,0,.42,0,.26-.13.37-.39.36-.14,0-.28,0-.42,0-3.37,0-6.74,0-10.11,0-.14,0-.28,0-.42,0-.32.02-.47-.13-.44-.46,0-.02,0-.05,0-.07-.03-.77-.02-.77.74-.78.78,0,1.57,0,2.35,0,.54,0,.64-.11.66-.65,0-.12,0-.23,0-.35,0-7.91,0-15.83,0-23.74,0-1.18-.05-2.35-.25-3.52-.02-.11-.04-.23-.07-.34-.2-.74-.33-.84-1.11-.84-.51,0-1.02,0-1.52,0-.48-.01-.49-.03-.5-.52,0-.14,0-.28,0-.42-.01-.26.11-.38.37-.38.28,0,.55,0,.83,0,1.93.07,3.82-.21,5.67-.74.98-.28,1.08-.2,1.07.82-.04,4.73-.1,9.46-.15,14.19-.03,0-.07,0-.1,0Z"></path><path class="cls-1" d="m222.03,44.61c-.05,4.06-.1,8.12-.13,12.18,0,1.04.05,2.08.23,3.1.03.18.07.36.13.54.18.54.27.61.84.62.67,0,1.34,0,2.01,0,.58,0,.59.02.6.57,0,.14,0,.28,0,.42-.01.18-.1.3-.3.31-.16,0-.32,0-.48,0-3.39,0-6.79,0-10.18,0-.77,0-1-.32-.79-1.06.07-.24.25-.24.43-.24.83,0,1.66,0,2.49,0,.73,0,.82-.08.82-.78,0-8.31,0-16.61-.02-24.92,0-.87-.07-1.75-.24-2.61-.04-.2-.1-.4-.16-.6-.12-.37-.36-.55-.78-.53-.58.03-1.15.01-1.73,0-.49,0-.5-.03-.52-.51,0-.02,0-.05,0-.07-.01-.73-.01-.74.7-.74,1.32,0,2.63.02,3.93-.22.73-.13,1.44-.31,2.16-.49,1.11-.29,1.16-.26,1.15.92,0,1.68-.02,3.37-.04,5.05-.04,3.02-.08,6.04-.12,9.06,0,0,0,0,0,0Z"></path><path class="cls-1" d="m112,25.43c-2.17-1.48-1.56-3.77.89-4.72-.07-.2-.28-.23-.43-.32-1.96-1.09-1.86-3.79-.48-4.98.97-.83,2.13-1.17,3.36-1.3,1.41-.15,2.8-.02,4.18.42.07-.28.13-.52.2-.76.27-.94.8-1.37,1.78-1.47.42-.04.83-.01,1.24,0,.34,0,.5.11.48.48-.03.44,0,.88,0,1.31,0,.46-.01.46-.45.43-.28-.02-.55-.05-.83,0-.26.04-.48.14-.67.33-.34.33-.37.56-.06.94.52.65.7,1.39.66,2.2-.06,1.19-.65,2.05-1.67,2.61-1.23.68-2.56.88-3.94.81-.44-.02-.87-.08-1.31-.1-.49-.02-.81.23-.9.66-.08.44.12.83.55,1,.26.1.53.15.81.16,1.38.08,2.76.17,4.14.26.51.03,1,.15,1.49.29,2.58.75,2.55,3.55,1.31,4.88-.72.77-1.62,1.24-2.62,1.45-2.35.48-4.72.47-7.08,0-.52-.1-1.01-.32-1.47-.6-1.41-.86-1.43-2.93.19-3.7.2-.1.41-.19.63-.29Zm4.47.69s-1.5,0-2.22,0c-.5,0-.91.31-1.01.77-.09.42.15.83.63,1.03.15.06.3.11.46.14,1.44.23,2.89.28,4.33.04.36-.06.72-.18.98-.48.34-.39.27-.85-.18-1.1-.24-.13-.51-.2-.8-.21-.76-.04-1.45-.14-2.2-.18Zm-.1-6.6c.4,0,.78-.08,1.13-.26,1.14-.59,1.26-2.23.2-2.91-.72-.47-1.51-.51-2.3-.15-.39.18-.66.5-.8.9-.45,1.29.38,2.42,1.77,2.42Z"></path><path class="cls-1" d="m77.08,26.17h-.69c-3.35,0-6.69,0-10.04,0-.14,0-.28,0-.42,0-.2,0-.3-.08-.29-.28,0-.16,0-.32,0-.48,0-4.85,0-9.69,0-14.54,0-.86-.05-.75.73-.75,3.32,0,6.65,0,9.97,0,.16,0,.32,0,.48,0,.18,0,.25.1.25.26,0,.88,0,1.75,0,2.63,0,.21-.13.26-.31.26-.58,0-1.15,0-1.73,0-1.71,0-3.42,0-5.12,0-.49,0-.5,0-.5.48,0,.76.02,1.52,0,2.28-.01.38.13.46.48.46,1.59-.01,3.19,0,4.78,0,.16,0,.32,0,.48,0,.23,0,.34.08.34.32,0,.78,0,1.57,0,2.35,0,.27-.11.37-.37.36-.42-.01-.83,0-1.25,0-1.32,0-2.63,0-3.95,0-.49,0-.5,0-.51.48,0,.83,0,1.66,0,2.49,0,.52,0,.53.52.53,2.12,0,4.25,0,6.37,0,.84,0,.78-.14.78.77,0,.78,0,1.56,0,2.38Z"></path><path class="cls-1" d="m207.25,62.34c-1.66,0-3.32,0-4.99,0-.63,0-.63,0-.63-.66,0-.09,0-.19,0-.28-.02-.28.13-.36.38-.36.72,0,1.43,0,2.15,0,.74,0,.79-.04.8-.78.05-4.48.09-8.95.12-13.43,0-.76-.04-1.52-.24-2.26-.2-.75-.32-.84-1.1-.84-.53,0-1.06,0-1.59,0-.56,0-.61-.04-.61-.58-.01-1.11-.04-.93.91-.94,1.94,0,3.88.04,5.81-.23.21-.03.41-.03.62-.04.55-.02.63.04.64.62,0,.44-.01.88-.03,1.31-.23,4.79-.32,9.59-.24,14.39.01.72.07,1.43.27,2.12.17.58.27.65.88.65.6,0,1.2,0,1.8,0,.67,0,.67,0,.66.7,0,.02,0,.05,0,.07-.01.52-.01.53-.55.53-1.69,0-3.37,0-5.06,0Z"></path><path class="cls-1" d="m161.27,16.01c.05-.08.1-.15.15-.23.72-1.3,1.88-1.78,3.3-1.72.34.01.69.04,1.03.13,1.39.39,2.17,1.33,2.33,2.84.05.5.08,1.01.08,1.52,0,2.33,0,4.66,0,6.99,0,.74-.05.63-.65.63-.72,0-1.43,0-2.15,0-.67,0-.65.11-.65-.68,0-2.03,0-4.06,0-6.09,0-.39-.03-.78-.08-1.17-.11-.84-.49-1.27-1.21-1.39-.71-.12-1.37.22-1.72.88-.31.59-.39,1.22-.39,1.88,0,1.94,0,3.88,0,5.81,0,.16,0,.32,0,.48,0,.2-.1.28-.29.28-.95,0-1.89,0-2.84,0-.23,0-.34-.09-.33-.33,0-.14,0-.28,0-.42,0-3.46,0-6.92,0-10.38,0-.14,0-.28,0-.42-.02-.27.11-.36.37-.36.85,0,1.71,0,2.56,0,.27,0,.37.1.36.37-.01.45,0,.9,0,1.36.04,0,.09.01.13.02Z"></path><path class="cls-1" d="m100.75,22.3c.02.39-.12.66-.25.93-1,2.08-2.99,3.33-5.53,3.17-2.04-.13-3.68-.99-4.7-2.83-1.24-2.22-.96-5.55.64-7.52,1.18-1.46,2.76-2.05,4.59-1.97,2.83.13,4.77,1.91,5.22,4.72.08.5.16,1,.15,1.51,0,.49,0,.5-.48.51-.92,0-1.85,0-2.77,0-1.27,0-2.54,0-3.81,0-.56,0-.56,0-.57.58,0,1.3.66,2.2,1.77,2.48.88.22,2.33-.31,2.54-1.48.05-.25.13-.35.41-.33.92.08,1.84.14,2.8.22Zm-5.42-3.51h0c.34,0,.69,0,1.03,0,1.16,0,1.24-.11.82-1.24-.3-.81-.86-1.21-1.72-1.22-1.23-.01-2.18.93-2.2,2.18,0,.22.09.28.29.28.6,0,1.19,0,1.79,0Z"></path><path class="cls-1" d="m143.38,20.81c-1.23,0-2.38,0-3.53,0-1.2,0-2.4.01-3.6,0-.36,0-.5.11-.48.47.02.32,0,.64.1.96.3,1.05,1.06,1.67,2.09,1.7,1.02.03,1.81-.55,2.13-1.61.08-.25.19-.26.39-.25.8.07,1.61.15,2.41.18.4.01.48.13.32.52-.77,1.92-2.14,3.13-4.19,3.53-.87.17-1.75.13-2.61-.07-2.51-.58-4.14-2.53-4.35-5.17-.1-1.26.05-2.49.55-3.66.95-2.25,3.07-3.52,5.52-3.35,2.54.18,4.34,1.65,4.97,4.08.22.85.34,1.71.27,2.66Zm-5.51-2.03c.34,0,.69,0,1.03,0,1.18,0,1.24-.09.81-1.24-.3-.8-.84-1.19-1.65-1.22-1.41-.05-2.06.87-2.26,2.11-.05.28.08.36.34.36.57-.01,1.15,0,1.72,0Z"></path><path class="cls-1" d="m156,20.74c-.27.13-.53.07-.78.07-2.1,0-4.2,0-6.3,0-.53,0-.53.01-.54.53-.03,1.36.67,2.32,1.85,2.55.87.17,2.23-.32,2.46-1.51.05-.26.14-.34.4-.31.8.08,1.61.16,2.41.18.41.01.46.14.32.52-.3.82-.76,1.53-1.4,2.12-1.73,1.59-3.77,1.86-5.93,1.19-2.11-.65-3.3-2.19-3.71-4.33-.29-1.51-.14-2.99.47-4.4.94-2.19,3.03-3.44,5.43-3.29,2.54.16,4.31,1.56,5,3.95.25.89.38,1.8.32,2.72Zm-7.55-2.01c.19.11.4.06.61.06.87,0,1.75,0,2.62,0,.95,0,.98.19.75-.93-.03-.13-.08-.26-.13-.39-.3-.74-.84-1.12-1.64-1.14-1.35-.03-2.25.94-2.2,2.4Z"></path><path class="cls-1" d="m77.9,14.27c1.14,0,2.15.02,3.16-.01.41-.01.56.14.67.5.59,2.01,1.21,4.01,1.82,6.02.08.26.12.54.34.84.4-1.31.79-2.55,1.17-3.79.33-1.06.66-2.11.97-3.17.09-.29.22-.41.53-.4.71.02,1.42,0,2.12,0,.04.23-.03.37-.08.53-1.23,3.62-2.47,7.24-3.68,10.86-.13.38-.3.55-.73.52-.53-.04-1.06,0-1.59,0-.62,0-.63,0-.82-.57-.98-2.88-1.97-5.75-2.95-8.63-.3-.87-.59-1.74-.92-2.7Z"></path><path class="cls-1" d="m127.84,16.01c.18-.34.34-.69.56-1.01.51-.77,1.24-1.06,2.15-.93.27.04.34.15.34.4,0,.9,0,1.8,0,2.7,0,.29-.1.38-.4.4-1.38.11-2.01.66-2.35,2.01-.15.61-.19,1.23-.2,1.85,0,1.34,0,2.68,0,4.01,0,.23.04.46-.07.72-1.03,0-2.06,0-3.1,0-.2,0-.3-.08-.3-.29,0-.14,0-.28,0-.42,0-3.51,0-7.01,0-10.52,0-.12,0-.23,0-.35-.01-.23.08-.34.32-.33.85,0,1.71,0,2.56,0,.26,0,.38.09.37.36-.01.46,0,.92,0,1.37.04,0,.08,0,.12,0Z"></path><path class="cls-1" d="m106.15,16.08c1.05-1.87,1.59-2.21,3.17-1.92,0,1.02,0,2.06,0,3.09,0,.24-.11.3-.33.32-1.57.17-2.17.74-2.47,2.29-.11.57-.12,1.14-.13,1.72,0,1.34,0,2.67,0,4.01,0,.58,0,.58-.62.59-.76,0-1.52,0-2.28,0-.55,0-.56,0-.56-.57,0-2.9,0-5.81,0-8.71,0-.74,0-1.48,0-2.21,0-.29.08-.41.39-.41.81.02,1.61.02,2.42,0,.37-.01.42.16.41.46-.01.45,0,.9,0,1.35Z"></path><path class="cls-2" d="m27.69,29.48c.59,1.01.84,1.05,2.62.37-.04.83-.26,1.6-.47,2.37-.05.18-.12.35-.17.53-.17.65-.04,1.04.52,1.43.14.1.3.16.22.36-.17.41-.03.79.18,1.12.32.51.34.98,0,1.47-.08.11-.12.25-.18.37-.99.21-1.99.4-2.97.65-.39.1-.67,0-.94-.25-1.22-1.13-2.33-2.36-3.41-3.62-.18-.22-.19-.37,0-.59.82-.97,1.61-1.96,2.52-2.85.6-.58,1.34-.97,2.07-1.36Z"></path><path class="cls-1" d="m171.03,68.82c-.35,1.43-.69,2.81-1.04,4.2-.23.92-.47,1.83-.69,2.75-.08.32-.22.47-.57.43-.41-.04-.9.15-1.22-.08-.32-.23-.27-.75-.37-1.15-.26-.98-.49-1.97-.73-2.95-.03-.13-.04-.28-.22-.41-.07.22-.14.41-.19.61-.29,1.19-.57,2.38-.84,3.57-.07.3-.19.41-.51.42-1.29.04-1.29.05-1.62-1.21-.51-1.96-1.01-3.93-1.52-5.89-.02-.09-.08-.17.02-.36.44,0,.94,0,1.44,0,.34,0,.32.29.37.5.25,1.08.49,2.16.73,3.24.07.31.15.61.34.93.06-.22.14-.43.19-.65.28-1.16.57-2.33.83-3.5.08-.37.21-.54.63-.53,1.1.01,1.1-.01,1.38,1.07.31,1.23.62,2.46.96,3.8.32-.89.43-1.7.63-2.48.16-.63.29-1.26.44-1.89.12-.49.12-.5.64-.49.27,0,.55-.05.9.08Z"></path><path class="cls-1" d="m122.65,68.83c.09-.04.11-.06.13-.06.51,0,1.08-.16,1.5.03.46.21.34.89.47,1.37.24.91.43,1.84.64,2.76.05.2.06.41.24.59.34-1.4.67-2.79,1.01-4.18q.14-.6.77-.6.98,0,1.23.98c.31,1.25.63,2.5.95,3.81.26-.37.26-.77.35-1.13.26-1.05.49-2.11.73-3.17.11-.49.12-.5.65-.5.27,0,.55-.05.82.05.1.17.03.32-.01.47-.54,2.15-1.08,4.29-1.61,6.44-.09.38-.24.56-.65.5-.39-.05-.85.14-1.15-.08-.31-.22-.26-.71-.35-1.08-.26-1-.5-2.01-.75-3.02-.04-.15-.03-.33-.25-.42-.33,1.35-.65,2.69-.97,4.03-.14.56-.14.56-.72.56q-1.12,0-1.41-1.12c-.54-2.07-1.07-4.14-1.62-6.25Z"></path><path class="cls-1" d="m204.12,30.86c-.2.33-.16.67-.24.97-.1.36-.26.6-.6.78-.69.36-1.37.75-2.09,1.28.42.13.77.12,1.12.14.37.02.73.11,1.06.27.08.04.16.09.17.19.01.12-.09.17-.17.18-1.24.21-2.49.22-3.7-.1-.55-.14-.59-.84-.1-1.18.75-.5,1.56-.9,2.38-1.26.39-.17.55-.41.58-.82.04-.64.13-1.29.34-1.9.08-.24.17-.48.29-.7.2-.37.31-.39.62-.09.23.23.43.48.62.74.4.56.8,1.13,1.18,1.71.18.27.35.36.69.25.74-.24,1.51-.44,2.26-.65.11-.03.22-.06.33-.1.22-.07.45-.15.65.06.22.23.1.48,0,.71-.21.49-.5.94-.77,1.39-.13.21-.33.39-.37.7.41.26.86.5,1.24.83.32.27.6.57.76.97.21.54-.03.93-.61.9-1.13-.05-2.26-.12-3.39-.22-.67-.06-.67-.07-1.01.53-.47.85-.94,1.69-1.49,2.49-.1.15-.21.3-.33.44-.18.22-.43.27-.69.19-.24-.07-.38-.28-.4-.52-.02-.3-.02-.6,0-.9.1-.92.24-1.83.46-2.73.04-.16.03-.42.3-.39.22.02.38.18.44.39.07.25,0,.5-.03.75-.06.41-.18.83-.11,1.3.28-.09.34-.3.46-.46.35-.46.69-.93,1.04-1.38.23-.29.52-.42.9-.4.97.03,1.94.03,2.91.04.1,0,.22.05.37-.11-.28-.19-.55-.39-.83-.57-.32-.22-.66-.43-.97-.67-.42-.32-.48-.59-.28-1.08.08-.19.19-.37.27-.56.07-.16.24-.29.15-.55-.3.09-.6.17-.9.27-.58.21-1.08.1-1.54-.31-.32-.29-.66-.56-1.01-.86Zm-.65,6.72s.03.06.05.08c.01-.01.04-.03.04-.04,0-.03-.03-.06-.04-.09-.01.01-.03.03-.04.05Z"></path><path class="cls-1" d="m105.32,76.13c-.1.03-.12.05-.15.05-.58.03-1.24.21-1.7-.06-.43-.25-.47-.96-.68-1.46-.14-.34-.28-.68-.4-1.03-.09-.25-.22-.39-.5-.35-.07,0-.14,0-.21,0-.74,0-.68-.06-.68.66,0,.62-.01,1.25,0,1.87,0,.3-.11.41-.4.39-.35-.02-.69,0-1.04,0-.23,0-.34-.09-.33-.33,0-.07,0-.14,0-.21,0-2.12,0-4.25,0-6.37,0-.54.01-.56.52-.55,1.13.01,2.26-.05,3.39.04,1,.08,1.7.55,2,1.53.3,1,.02,1.8-.9,2.46-.23.17-.23.29-.13.51.4.93.78,1.86,1.19,2.84Zm-3.41-6.02v-.02c-.16,0-.32.01-.48,0-.34-.04-.44.12-.42.44.02.37,0,.74,0,1.11,0,.22.06.36.3.35.46-.02.92.06,1.38-.06.48-.12.75-.47.74-.94-.01-.47-.32-.8-.82-.87-.23-.03-.46,0-.69,0Z"></path><path class="cls-1" d="m86.73,72.92c0-1.3,0-2.48,0-3.65,0-.52.01-.52.54-.53.02,0,.05,0,.07,0,.85,0,.75-.04.75.74,0,2.05,0,4.11,0,6.16,0,.55,0,.55-.57.56q-.94.01-1.42-.83c-.75-1.32-1.51-2.64-2.26-3.96-.24.11-.14.3-.14.43,0,1.27,0,2.54,0,3.81,0,.54,0,.55-.51.55-.99,0-.85.09-.85-.84,0-1.98,0-3.97,0-5.95,0-.65.01-.59.62-.68.96-.13,1.52.2,1.91,1.1.39.9.96,1.73,1.45,2.59.09.15.15.32.41.5Z"></path><path class="cls-1" d="m214.61,75.53c-.17-.02-.22.06-.29.12-1.49,1.22-3.61.77-4.41-.98-.66-1.46-.63-2.97.08-4.41.61-1.24,1.84-1.78,3.32-1.56,1.21.18,2.05,1.07,2.29,2.46-.44.22-.94.15-1.4.26-.13.03-.21-.03-.25-.16-.04-.16-.08-.31-.15-.46-.22-.45-.57-.7-1.09-.71-.5-.01-.83.23-1.06.64-.17.3-.27.64-.31.98-.09.78-.12,1.57.2,2.31.32.74.98,1.04,1.69.78.2-.07.37-.19.49-.36.15-.21.32-.45.21-.69-.1-.22-.37-.11-.57-.11-.89-.02-.77.09-.78-.85,0-.57,0-.57.56-.58.69,0,1.38.01,2.08,0,.34,0,.44.12.43.44-.01,1.04,0,2.07,0,3.11,0,.16.08.42-.2.43-.25,0-.58.16-.69-.25-.04-.13-.09-.26-.13-.4Z"></path><path class="cls-1" d="m234.99,71.54c0,1.31,0,2.63,0,3.94,0,.16,0,.32,0,.48,0,.09-.03.2-.14.21-.37.01-.74.02-1.1,0-.04,0-.1-.09-.11-.15-.02-.09-.02-.18-.02-.27,0-2.17,0-4.33,0-6.5,0-.49.01-.49.49-.51q1.36-.04,2.05,1.18c.55.97,1.11,1.94,1.78,2.9.01-.17.03-.34.03-.5,0-1.01,0-2.03,0-3.04,0-.52.01-.52.55-.53.05,0,.09,0,.14,0,.67,0,.68,0,.68.67,0,2.08,0,4.15,0,6.23,0,.55,0,.55-.57.56-.02,0-.05,0-.07,0-.62.1-.99-.13-1.29-.71-.6-1.17-1.29-2.29-1.94-3.43-.11-.19-.23-.38-.34-.56-.04.02-.09.03-.13.05Z"></path><path class="cls-1" d="m202.7,71.51c0,.22,0,.44,0,.66,0,1.2,0,2.4,0,3.6,0,.33-.1.45-.43.44-1.15-.03-.92.11-.93-.89-.01-2.01,0-4.01,0-6.02,0-.54,0-.54.52-.55q1.34-.04,2,1.14c.56.98,1.11,1.95,1.68,2.94.23-.1.14-.29.14-.42,0-1.06.02-2.12,0-3.18,0-.36.11-.49.47-.48,1.07.03.9-.1.91.86,0,2.01,0,4.01,0,6.02,0,.58,0,.58-.54.59q-.95.02-1.43-.81c-.74-1.3-1.48-2.6-2.23-3.9-.06,0-.11.02-.17.02Z"></path><path class="cls-1" d="m188.32,72.49c0-1.06,0-2.12,0-3.19,0-.55,0-.55.51-.56q1.25-.04,1.25,1.21c0,.44,0,.88,0,1.32,0,.24.04.39.34.39.53-.01,1.06-.01,1.59,0,.29,0,.34-.14.34-.38,0-.69,0-1.39,0-2.08,0-.31.07-.48.42-.46.32.02.65.02.97,0,.31-.02.39.13.39.41,0,2.22,0,4.43,0,6.65,0,.3-.1.39-.4.41-1.38.07-1.38.08-1.38-1.29,0-.48,0-.97,0-1.45,0-.23-.08-.33-.32-.33-.53.01-1.06.02-1.59,0-.29,0-.35.13-.35.38,0,.74-.01,1.48,0,2.22.01.36-.1.47-.47.48-1.3.03-1.3.05-1.3-1.23,0-.83,0-1.66,0-2.49Z"></path><path class="cls-1" d="m118.84,76.15c0-.7,0-1.41,0-2.12,0-.18,0-.37,0-.55,0-.23-.09-.33-.33-.33-.53,0-1.06.01-1.59,0-.32-.01-.39.14-.38.42.01.74,0,1.48,0,2.21,0,.32-.09.43-.43.44-1.33.04-1.33.05-1.33-1.27,0-1.84,0-3.69,0-5.53,0-.66,0-.66.62-.66q1.13-.01,1.13,1.12c0,.48,0,.97,0,1.45,0,.23.09.34.32.33.53,0,1.06-.01,1.59,0,.31,0,.39-.13.39-.41-.01-.69.01-1.38,0-2.07,0-.34.12-.45.44-.43.32.02.65.01.97,0,.24,0,.33.1.33.33,0,.32,0,.65,0,.97,0,1.89,0,3.78,0,5.67,0,.48-.01.49-.5.49-.39,0-.78.04-1.24-.05Z"></path><path class="cls-1" d="m65.19,68.66c1.16-.03,2.06.57,2.6,1.73.62,1.35.62,2.73.06,4.09-.48,1.18-1.39,1.8-2.68,1.84-1.31.05-2.27-.51-2.83-1.7-.62-1.34-.65-2.73-.1-4.09.5-1.23,1.45-1.86,2.94-1.87Zm1.2,3.82c-.01-.59-.03-1.14-.26-1.66-.19-.44-.5-.71-1-.73-.52-.02-.91.21-1.1.68-.43,1.11-.46,2.25-.03,3.37.2.52.64.77,1.14.74.52-.04.84-.33,1.02-.8.2-.53.22-1.08.23-1.6Z"></path><path class="cls-1" d="m224.85,72.38c.02-.64.11-1.36.45-2.04.58-1.14,1.5-1.69,2.78-1.69,1.27,0,2.16.58,2.67,1.72.63,1.4.63,2.82.02,4.21-.49,1.12-1.39,1.68-2.61,1.73-1.25.05-2.18-.46-2.78-1.57-.38-.71-.52-1.47-.53-2.37Zm4.51.08c0-.58-.04-1.12-.26-1.64-.19-.44-.5-.7-1-.72-.52-.02-.91.21-1.1.68-.44,1.11-.46,2.25-.03,3.37.2.53.64.77,1.14.74.52-.04.84-.33,1.02-.81.19-.53.24-1.07.23-1.61Z"></path><path class="cls-1" d="m90.47,72.46c0-.7.12-1.38.41-2.01.55-1.18,1.47-1.78,2.78-1.79,1.3-.01,2.2.58,2.73,1.74.64,1.4.62,2.82,0,4.22-.49,1.08-1.37,1.64-2.56,1.7-1.24.06-2.2-.41-2.8-1.53-.39-.72-.56-1.5-.56-2.32Zm4.55.06c-.02-.59-.06-1.16-.29-1.71-.18-.44-.5-.71-1-.73-.52-.02-.91.2-1.1.68-.44,1.11-.46,2.25-.04,3.37.2.52.65.77,1.14.73.52-.04.84-.33,1.02-.8.18-.5.23-1.03.26-1.55Z"></path><path class="cls-1" d="m139.61,74.82q.17,1.38-1.14,1.38c-1.22,0-2.45-.01-3.67,0-.37,0-.47-.13-.47-.48.01-2.17.01-4.34,0-6.51,0-.34.08-.49.46-.49,1.48.02,2.95.01,4.43,0,.32,0,.45.09.45.43-.03,1.29.13,1.02-.99,1.05-.74.01-1.48,0-2.22,0-.25,0-.36.06-.38.35-.08,1.15-.09,1.15,1.05,1.15.48,0,.97,0,1.45,0,.23,0,.32.08.34.32.11,1.11.12,1.11-1.01,1.11-.48,0-.97,0-1.45,0-.25,0-.36.07-.38.35-.09,1.28-.1,1.28,1.19,1.28.74,0,1.48,0,2.21.01.04,0,.08.03.13.05Z"></path><path class="cls-1" d="m179.92,74.31c.31-.23.65-.2.95-.3.37-.13.64-.11.88.32.37.66,1.58.8,2.17.34.37-.29.36-.78-.03-1.05-.29-.2-.64-.25-.98-.32-.45-.09-.9-.19-1.33-.38-1.35-.59-1.72-2.16-.83-3.34.99-1.32,3.9-1.23,4.75.21.32.54.32.61-.26.81-.15.05-.3.11-.46.15-.26.08-.47.14-.67-.2-.32-.53-1.19-.69-1.73-.41-.45.23-.48.78-.05,1.05.26.16.56.21.85.27.47.09.95.2,1.4.38.76.31,1.27.84,1.38,1.67.12.92-.2,1.68-.96,2.23-1.08.79-3.12.75-4.19-.05-.46-.35-.76-.8-.9-1.4Z"></path><path class="cls-1" d="m144.63,76.32c-.88,0-1.57-.15-2.18-.56-.44-.29-.71-.71-.91-1.19-.09-.23-.02-.35.2-.4.2-.05.41-.08.61-.14.41-.12.72-.18,1,.34.33.61,1.45.74,2.06.35.47-.3.48-.82,0-1.12-.3-.19-.65-.23-.99-.3-.43-.09-.86-.19-1.26-.36-1.42-.6-1.78-2.37-.72-3.49.19-.2.41-.38.66-.49,1.08-.46,2.16-.43,3.2.12.2.11.38.27.53.44.64.7.6.87-.29,1.16-.11.04-.22.07-.33.11-.22.09-.37.1-.5-.17-.31-.65-1.11-.66-1.64-.53-.3.07-.49.26-.51.58-.01.29.17.48.42.58.23.09.48.15.73.21.45.12.91.19,1.33.35.87.32,1.44.94,1.49,1.89.06.95-.37,1.7-1.2,2.19-.57.34-1.21.44-1.72.43Z"></path><path class="cls-1" d="m178.53,76.2c-.53,0-1.04,0-1.54,0-.23,0-.33-.1-.39-.3-.08-.29-.17-.57-.25-.86-.07-.25-.19-.38-.48-.37-.53.02-1.06.02-1.59,0-.29,0-.48.06-.54.38-.05.27-.17.52-.24.79-.06.23-.16.36-.42.36-.39-.01-.78,0-1.2,0,.14-.71.39-1.33.59-1.96.52-1.64,1.04-3.29,1.58-4.93.2-.63.12-.57.74-.57.35,0,.69.02,1.04,0,.3-.02.46.08.56.37.71,2.31,1.43,4.61,2.14,6.92,0,.02,0,.05,0,.17Zm-3.42-5.27s-.07,0-.11,0c-.23.76-.46,1.52-.7,2.32.54.04,1.01.05,1.49,0-.04-.19-.06-.3-.1-.41-.19-.64-.39-1.27-.58-1.91Z"></path><path class="cls-1" d="m70.64,72.43c0-1.08,0-2.17,0-3.25,0-.32.09-.45.43-.44,1.48.02,2.95.01,4.43,0,.32,0,.45.09.45.43-.03,1.3.14,1.03-.99,1.05-.69.02-1.38,0-2.07,0-.47,0-.47.01-.49.51q-.03,1.16,1.15,1.16c.44,0,.88,0,1.31,0,.27,0,.35.1.37.36.07,1.05.08,1.05-.98,1.05-.48,0-.97.01-1.45,0-.31-.01-.4.12-.4.41.01.65,0,1.29,0,1.94,0,.54-.01.55-.52.55-.31,0-.75.05-1,.06-.09,0-.17-.06-.19-.14-.08-.32-.04-.79-.04-1.12-.01-.85,0-1.71,0-2.56Z"></path><path class="cls-1" d="m110.84,73.22c0,.83-.01,1.66,0,2.49,0,.33-.06.49-.45.5-1.33.03-1.33.05-1.33-1.27,0-1.41,0-2.82,0-4.22,0-.34-.07-.53-.46-.48-.25.03-.51,0-.76,0-.69,0-.65.09-.65-.69,0-.05,0-.09,0-.14,0-.79.02-.67.67-.68,1.43,0,2.86,0,4.29,0,.52,0,.53,0,.53.54,0,1.18.13.94-.93.96-1.07.02-.91-.15-.93.9,0,.69,0,1.38,0,2.08Z"></path><path class="cls-1" d="m151.27,73.21c0-.83-.01-1.66,0-2.49,0-.35-.09-.51-.47-.49-.37.03-.74,0-1.11,0-.23,0-.31-.08-.33-.32-.1-1.18-.11-1.18,1.07-1.18,1.31,0,2.63,0,3.94,0,.5,0,.52.01.51.49,0,1.21.15.99-.95,1.01-1.1.02-.93-.15-.94.96,0,1.5,0,3,0,4.49,0,.49-.01.5-.48.5-.39,0-.88.16-1.14-.07-.28-.24-.09-.74-.1-1.12-.02-.6,0-1.2,0-1.8Z"></path><path class="cls-1" d="m221.24,73.26c0,.81,0,1.61,0,2.42,0,.5-.01.52-.48.51-.41,0-.92.18-1.19-.1-.24-.26-.07-.75-.08-1.13,0-1.41,0-2.81,0-4.22,0-.48-.01-.48-.5-.5-.16,0-.32.01-.48,0-.29-.03-.7.15-.84-.1-.2-.35-.07-.8-.06-1.21,0-.11.09-.16.19-.17.09,0,.18-.01.28-.01,1.52,0,3.04,0,4.56,0,.34,0,.5.07.49.46-.04,1.29.15,1.02-.99,1.05-.97.02-.88-.14-.89.88,0,.71,0,1.43,0,2.14Z"></path><path class="cls-1" d="m196.84,72.44c0-1.06,0-2.12,0-3.19,0-.5.01-.5.49-.52q1.26-.04,1.26,1.2c0,1.92,0,3.83,0,5.75,0,.49-.01.49-.48.51q-1.27.04-1.27-1.19c0-.85,0-1.71,0-2.56Z"></path><path class="cls-1" d="m240.7,34.79c-1.53,0-2.71-1.2-2.69-2.73.02-1.48,1.21-2.67,2.69-2.68,1.5-.01,2.72,1.2,2.73,2.71,0,1.53-1.19,2.71-2.72,2.7Zm.46-2.61c.37.45.66.87,1.08,1.16.32.21.41.17.58-.15.56-1.08.16-2.51-.87-3.17-1.01-.65-2.32-.41-3.1.56-.78.98-.66,2.46.26,3.33.9.84,2.29.84,3.2-.02.09-.09.22-.18.13-.4-.67.3-1-.19-1.35-.63-.07-.09-.14-.19-.21-.27-.15-.16-.19-.51-.47-.41-.27.09-.12.4-.13.62-.01.27-.11.61.48.69-.54.05-.9.08-1.35-.02.26-.07.33-.16.34-.36.09-1.47.02-2.24-.29-2.61.5,0,.99-.02,1.46,0,.38.03.74.17.86.58.11.38-.08.67-.37.9-.07.06-.14.11-.26.2Zm-.83-1.52c-.1.38-.04.74-.05,1.1,0,.12.03.21.17.24.3.06.65-.08.77-.32.13-.25.04-.59-.19-.8-.18-.15-.38-.24-.7-.22Z"></path></g></svg>