<svg xmlns="http://www.w3.org/2000/svg" id="uuid-523a0b64-9967-4ddc-a6ce-98199b67423b" viewBox="0 0 277.9 277.9"><defs><style>.uuid-25e8b9e7-0099-4f8d-84a6-d743cb6e29fd{fill:#f26522;fill-rule:evenodd;}</style></defs><path d="m35.9,122.4c-4.3,4.6-6.5,10.1-6.5,16.5s2.3,12.2,7,16.9l27.9,27.9h-.1c0,.1,57.7,57.8,57.7,57.8,0,0,.1,0,.2.1l.4.4c.5.5,1,.8,1.6,1.2.6.5,1.2,1,1.9,1.5.7.4,1.4.8,2.1,1.1.6.3,1.3.7,1.9,1,.8.4,1.7.5,2.6.8.6.2,1.1.4,1.8.5,1.4.3,2.9.4,4.4.4.1,0,.2,0,.3,0h0c.1,0,.2,0,.3,0,1.5,0,3-.1,4.4-.4.6-.1,1.2-.4,1.8-.5.9-.2,1.8-.4,2.6-.8.7-.3,1.3-.7,1.9-1,.7-.4,1.4-.7,2.1-1.1.7-.4,1.3-1,1.9-1.5.5-.4,1.1-.8,1.6-1.2l.4-.4s.1,0,.2-.1l57.7-57.7h-.1c0-.1,27.9-28.1,27.9-28.1,4.6-4.7,7-10.3,7-16.9s-2.2-11.9-6.5-16.5l-.4-.5h0l-32.2-32.2h0s-53.7-53.8-53.7-53.8c-4.6-4.4-10.1-6.5-16.5-6.5s0,0-.1,0,0,0-.1,0c-6.4,0-11.9,2.2-16.5,6.5l-53.7,53.8h0s-32.2,32.2-32.2,32.2h0l-.4.5h0Zm-11,16.5c0-7.6,2.6-14.1,7.7-19.5h0c0,0,86.1-86,86.1-86,5.6-5.6,12.3-8.4,20.2-8.4s14.6,2.8,20.2,8.3h0l57,57.1h0s28.5,28.6,28.5,28.6c5.5,5.5,8.3,12.2,8.3,20s-2.6,14.1-7.7,19.5h0c0,0-86.1,86-86.1,86-5.6,5.6-12.3,8.3-20.2,8.3s-14.6-2.8-20.2-8.3h0s-57-57.1-57-57.1h0s-28.5-28.6-28.5-28.6c-5.5-5.5-8.3-12.2-8.3-20h0Z"></path><path d="m29.4,138.9c0-6.4,2.2-11.9,6.5-16.5l.4-.5h0l32.2-32.2h0s53.7-53.8,53.7-53.8c4.6-4.4,10.1-6.5,16.5-6.5s0,0,.1,0,0,0,.1,0c6.4,0,11.9,2.2,16.5,6.5l53.7,53.8h0s32.2,32.2,32.2,32.2h0l.4.5c4.4,4.6,6.5,10.1,6.5,16.5s-2.3,12.2-7,16.9l-27.9,27.9h.1c0,.1-57.7,57.8-57.7,57.8,0,0-.1,0-.2.1l-.4.4c-.5.5-1,.8-1.6,1.2-.6.5-1.2,1-1.9,1.5-.6.4-1.4.8-2.1,1.1-.6.3-1.3.7-1.9,1-.8.3-1.7.5-2.6.8-.6.2-1.1.4-1.8.5-1.4.3-2.9.4-4.4.4-.1,0-.2,0-.3,0h0c-.1,0-.2,0-.3,0-1.5,0-3-.1-4.4-.4-.6-.1-1.2-.3-1.8-.5-.9-.2-1.8-.4-2.6-.8-.7-.3-1.3-.7-1.9-1-.7-.4-1.4-.7-2.1-1.1-.6-.4-1.3-1-1.9-1.5-.5-.4-1.1-.8-1.6-1.2l-.4-.4s-.1,0-.2-.1l-57.7-57.7h.1c0-.1-27.9-28.1-27.9-28.1-4.6-4.7-7-10.3-7-16.9h0Z"></path><path class="uuid-25e8b9e7-0099-4f8d-84a6-d743cb6e29fd" d="m202.2,89.1h0l-49.6-49.5c-3.8-3.8-8.4-5.7-13.8-5.7-5.4,0-10,1.9-13.8,5.7l-49.6,49.5h0l-8.2,8.2h0s-27.7,27.7-27.7,27.7l-.5.5c-3.5,3.8-5.3,8.3-5.3,13.5s1.9,9.9,5.7,13.8l36.2,36.2h0s49.5,49.6,49.5,49.6c.5.5,1,.9,1.6,1.3.5.4,1,.9,1.6,1.2.5.3,1,.6,1.5.8.6.3,1.1.6,1.7.9.6.2,1.3.4,1.9.6.5.2,1.1.4,1.6.5,1.1.2,2.3.3,3.5.3.1,0,.2,0,.3,0s.2,0,.3,0c1.2,0,2.4-.1,3.5-.3.5,0,1.1-.3,1.6-.5.7-.2,1.3-.3,1.9-.6.6-.2,1.1-.6,1.7-.9.5-.3,1.1-.5,1.6-.9.5-.3,1-.8,1.5-1.2.5-.4,1.1-.8,1.6-1.3l49.5-49.6h0s36.2-36.2,36.2-36.2c3.8-3.8,5.7-8.4,5.7-13.8s-1.8-9.7-5.3-13.5l-.5-.5-27.7-27.7h0s-8.2-8.1-8.2-8.1h0Zm-33.7,7l-8.8-2.9c-4.9-1.6-10-2.1-15.1-2.1-10.1,0-17,2.3-20.8,7.1-2.6,3.2-4,6.8-4,10.7s.6,4.7,1.7,6.8c1.1,2,3.9,4.4,8.4,7.1,6.6,4,13.8,7,20.3,11.3,6.5,4.2,10.9,8.5,13.3,12.8,2.7,4.8,4,10,4,15.6,0,8.2-2.7,15.6-8.1,22.3-7.5,9.2-19.3,13.8-35.2,13.8h0c-7.1,0-14.1-.8-20.8-3l-8.8-2.9,5.7-17.4,8.8,2.9c4.9,1.6,10,2.1,15.1,2.1,10.1,0,17-2.4,20.8-7.1,2.7-3.2,4-6.8,4-10.7s-.6-4.7-1.7-6.8c-1.3-2.4-5.1-5.4-11.2-8.8-6.7-3.8-19-10.6-20.1-11.4-5.1-3.7-8.7-7.3-10.7-11-2.7-4.8-4-10.1-4-15.7,0-8.2,2.7-15.6,8.1-22.2,8.9-10.9,23.3-14.1,37-13.8h0c7,.1,13.4,1.1,19,3l8.8,2.9-5.7,17.4h0Z"></path><path class="uuid-25e8b9e7-0099-4f8d-84a6-d743cb6e29fd" d="m244.7,119l-28.5-28.6h0s-57-57.1-57-57.1h0c-5.6-5.6-12.3-8.3-20.2-8.3s-14.6,2.8-20.2,8.4L32.7,119.3h0c-5.2,5.5-7.7,12-7.7,19.6s2.8,14.5,8.3,20l28.5,28.6h0s57,57.1,57,57.1h0c5.6,5.6,12.3,8.3,20.2,8.3s14.6-2.8,20.2-8.3l86.1-86h0c5.1-5.5,7.7-12,7.7-19.6s-2.8-14.5-8.3-20h0Zm-3.3,36.7l-27.9,27.9h.1c0,.1-57.7,57.8-57.7,57.8,0,0-.1,0-.2.1l-.4.4c-.5.5-1,.8-1.6,1.2-.6.5-1.2,1-1.9,1.5-.7.4-1.4.8-2.1,1.1-.6.3-1.3.7-1.9,1-.8.3-1.7.5-2.6.8-.6.2-1.1.4-1.8.5-1.4.3-2.9.4-4.4.4-.1,0-.2,0-.3,0h0c-.1,0-.2,0-.3,0-1.5,0-3-.1-4.4-.4-.6-.1-1.2-.3-1.7-.5-.9-.2-1.8-.4-2.6-.8-.7-.3-1.3-.7-1.9-1-.7-.4-1.4-.7-2.1-1.1-.7-.4-1.3-1-1.9-1.5-.5-.4-1.1-.8-1.6-1.2l-.4-.4c0,0-.1,0-.2-.1l-57.7-57.6h.1c0-.1-27.9-28.1-27.9-28.1-4.6-4.7-7-10.3-7-16.9s2.2-11.9,6.5-16.5l.4-.5h0l32.2-32.2h0s53.7-53.8,53.7-53.8c4.6-4.4,10.1-6.5,16.5-6.5s0,0,.1,0,0,0,.1,0c6.4,0,11.9,2.2,16.5,6.5l53.7,53.8h0s32.2,32.2,32.2,32.2h0l.4.5c4.4,4.6,6.5,10.1,6.5,16.5s-2.3,12.2-7,16.9h0Z"></path><path class="uuid-25e8b9e7-0099-4f8d-84a6-d743cb6e29fd" d="m111.5,110.9h-1.6c.3,3.4,1.3,6.6,2.9,9.6.9,1.7,2.4,3.4,4.4,5.2l1.3-.8c-2-1.7-3.4-3.5-4.4-5.2-1.5-2.7-2.4-5.7-2.7-8.8h0Z"></path><path class="uuid-25e8b9e7-0099-4f8d-84a6-d743cb6e29fd" d="m146.8,81.2v1.5c5.8.2,11,1,15.6,2.5l.7.2.5-1.5-.7-.2c-4.7-1.5-10.1-2.4-16.1-2.6Z"></path><path class="uuid-25e8b9e7-0099-4f8d-84a6-d743cb6e29fd" d="m120.9,128.6c1.1.7,5,2.9,11.7,6.6l.5-1.2c-3.4-1.8-5.9-3.2-7.6-4.2-1.7-1-3.2-2.1-4.6-3.1l-1.3.8,1.3,1Z"></path><path class="uuid-25e8b9e7-0099-4f8d-84a6-d743cb6e29fd" d="m115.2,95.6l-1.4-.7c-2.5,4-3.9,8.4-4,13h1.6c.1-4.4,1.4-8.5,3.8-12.3Z"></path><path class="uuid-25e8b9e7-0099-4f8d-84a6-d743cb6e29fd" d="m116,91.9l-.5.6,1.4.7c0,0,0-.1.1-.2h.1c2.8-3.5,6.5-6.1,11.1-7.8l-.8-1.3c-4.8,1.8-8.6,4.5-11.5,8Z"></path><path class="uuid-25e8b9e7-0099-4f8d-84a6-d743cb6e29fd" d="m131.2,84.3c3.7-1,7.9-1.5,12.6-1.6v-1.5c-5,0-9.5.6-13.4,1.8l.8,1.3h0Z"></path><path class="uuid-25e8b9e7-0099-4f8d-84a6-d743cb6e29fd" d="m157.5,160.4h1.6c-.3-3.4-1.2-6.6-2.9-9.5-.9-1.7-2.4-3.4-4.5-5.2l-1.3.8c2,1.7,3.4,3.5,4.4,5.2,1.5,2.7,2.4,5.7,2.7,8.8h0Z"></path><path class="uuid-25e8b9e7-0099-4f8d-84a6-d743cb6e29fd" d="m105.8,185.8l-.5,1.5.7.2c4.7,1.5,10.1,2.4,16.1,2.6v-1.5c-5.8-.2-11-1-15.6-2.5l-.7-.3h0Z"></path><path class="uuid-25e8b9e7-0099-4f8d-84a6-d743cb6e29fd" d="m148,144.4l1.3-.8-1.3-1c-1.1-.7-5-2.9-11.6-6.6l-.5,1.2c3.4,1.8,5.9,3.2,7.6,4.2,1.7,1,3.2,2.1,4.6,3.1h0Z"></path><path class="uuid-25e8b9e7-0099-4f8d-84a6-d743cb6e29fd" d="m153.7,175.7l1.4.7c2.5-4,3.9-8.3,4-13h-1.6c-.1,4.4-1.4,8.5-3.8,12.3h0Z"></path><path class="uuid-25e8b9e7-0099-4f8d-84a6-d743cb6e29fd" d="m141.4,187.4c4.8-1.8,8.6-4.5,11.5-8l.5-.6-1.4-.7c0,0,0,.1-.2.2h-.1c-2.8,3.6-6.5,6.1-11.1,7.8l.8,1.3h0Z"></path><path class="uuid-25e8b9e7-0099-4f8d-84a6-d743cb6e29fd" d="m125.1,188.6v1.5c5,0,9.5-.6,13.4-1.8l-.8-1.3c-3.7,1-7.9,1.5-12.6,1.6h0Z"></path></svg>