<svg xmlns="http://www.w3.org/2000/svg" id="Layer_2" viewBox="0 0 142.3 71.17"><g id="Layer_1-2"><g id="FfjPzU"><path d="m120.78,9.32c-4.98.12-7.85-1.16-7.36,5.3,2.44.32,5.2.12,7.71-.06,4.57-.39,4.01-5.4,3.96-8.85h8.75v9.08h8.45v9.08h-8.29c-.08,4.79-.13,9.56.02,14.34.38,3.75,4.45,2.87,7.2,2.94v9.25c-20.02,1.82-17.08-9.79-17.21-24.84h2.39l.11-.22c-2.63-2.12-5.27-4.24-7.94-6.4-2.68,2.16-5.31,4.27-7.94,6.39l.06.16h2.47v25.04h-9.76v-26.5h-6.71v-9.11h6.73c-.74-6.73,2.95-14.34,10.34-14.82,2.29-.21,4.62-.04,7.01-.04v9.26Z"></path><path d="m.08.04h10.09c0,11.42,0,22.82,0,34.24,0,3.54,1.93,6.31,5.01,7.23,5.65,1.8,9.97-2.78,9.52-8.32.02-11.05.03-22.1.03-33.15h10.05c.11,11.34-.01,22.69,0,34.04.18,6.68-3.18,13.78-9.89,15.86-9.67,3.63-23.11-.39-24.47-11.83C-.43,25.46.32,12.71.08.04Z"></path><path d="m47.5,70.94h-9.74V14.79h9.41v3.31c9.35-9.54,21.06-1.09,21.47,10.96.6,7.19-.23,16.2-6.97,20.35-4.61,2.78-10.14,2.33-14.17-1.35v22.87Zm11.46-38.87c0-2.94-.51-7.8-3.85-9.28-9.03-3.78-10.03,17.4-3.63,19.66,6.01,2,7.79-5.51,7.48-10.38Z"></path><path d="m81.36,50.6h-9.54V.1h9.54v50.5Z"></path><path d="m85.16,14.99h9.56v35.51h-9.56V14.99Z"></path><path d="m61.61,65.06v-8.46h2.57v14.15h-2.81c-1.27-2.77-2.55-5.58-3.84-8.39-.08.01-.16.03-.24.04v8.35h-2.59v-14.17h2.75c1.28,2.8,2.58,5.66,3.89,8.52.09-.02.18-.03.27-.05Z"></path><path d="m94.72.07v9.56h-9.55V.07h9.55Z"></path><path d="m101.58,60.69h2.45c.41,2.24.83,4.46,1.24,6.69l.27.02c.44-2.12.89-4.24,1.34-6.41h2.8c.44,2.15.88,4.29,1.32,6.42.1,0,.19,0,.29,0,.4-2.24.8-4.48,1.2-6.73h2.44c-.72,3.39-1.43,6.73-2.14,10.1h-2.98c-.47-1.95-.94-3.89-1.41-5.84-.09,0-.18-.01-.27-.02-.48,1.93-.96,3.87-1.45,5.85h-2.98c-.7-3.32-1.4-6.64-2.13-10.09Z"></path><path d="m100.45,70.78h-2.58c-.12-2.11,0-4.17-.06-6.27-.01-1.03-.63-1.73-1.46-1.75-1.12-.08-1.76,1.21-1.63,2.33,0,1.91,0,3.75,0,5.67h-2.68v-14.35h2.65v5.34c1.41-.95,2.16-1.73,3.91-1.08,1.24.43,1.81,1.43,1.84,2.69.05,2.44.01,4.88.01,7.42Z"></path><path d="m75.21,65.95c-.13.67-.21,1.52-.48,2.3-1.03,3.56-6.72,3.85-8.12.39-3.49-8.31,8.01-12.16,8.6-2.7Zm-6.63-.19c.8,6.05,5.5,1.77,3.41-2.03-2.04-2.31-3.07-.1-3.41,2.03Z"></path><path d="m124.31,66.41h-5.83c-.58,2.32,2.06,3.82,3.32,1.37h2.42c-.56,4.55-8.04,4.74-8.51-.87-.15-1.42-.08-2.84.6-4.16.87-1.67,2.55-2.54,4.39-2.26,2.95.36,3.63,3.28,3.61,5.92Zm-5.93-1.78h3.17c.29-2.71-3.16-2.87-3.17,0Z"></path><path d="m133.1,63.47h-2.36c.04-.07.07-.15.11-.22-.77-.5-1.78-1.3-2.36-.12-.16,1.15,1.35,1.43,2.16,1.79,1.81.7,2.62,1.66,2.66,3.14.26,4.32-8.22,3.96-7.56-.25h2.27c.15.27.24.66.47.79.75.43,1.86.86,2.21-.27.17-1.39-1.86-1.48-2.75-2.03-1.6-.68-2.28-1.68-2.14-3.12.26-3.76,7.44-3.52,7.28.29Z"></path><path d="m140.68,71.09c-6.11.68-4.51-4-4.82-8.11-.62-.05-1.18-.09-1.81-.14v-1.88q1.78-.58,2.13-2.78h2.46v2.58h2.48v2.14h-2.37c-.13,1.36-.11,2.58-.15,3.92-.13,1.51.78,1.66,2.09,1.79v2.5Z"></path><path d="m85.62,62.85c-.61-.04-1.16-.08-1.78-.12v-1.97c1.98.15,2.27-1.12,2.1-2.74h2.43v2.63c.87.05,1.63.1,2.49.15v1.91c-.75.05-1.51.09-2.44.15,0,1.07,0,2.01,0,3.03q-.05,2.2,2.13,2.58v2.56c-6.49.25-4.35-3.64-4.91-8.18Z"></path><path d="m76.83,60.7h2.47c.05.36.09.66.15,1.08.87-.98,1.86-1.49,3.2-1.23v2.41c-4.5-.13-2.96,4.86-3.33,7.81h-2.49v-10.06Z"></path></g></g></svg>