<svg xmlns="http://www.w3.org/2000/svg" xmlns:xlink="http://www.w3.org/1999/xlink" id="Layer_1" x="0px" y="0px" viewBox="0 0 464.6 88" style="enable-background:new 0 0 464.6 88;" xml:space="preserve"><path d="M308.3,28.1c0.6-2.5,1.2-4.8,1.8-7.1c0.2-1,0.6-2,0.7-3c0-0.5,0.4-0.9,0.9-0.9c0.1,0,0.2,0,0.3,0c0.1,0,0.2,0,0.3,0h53.2  c2.6-0.1,5.2,0.3,7.6,1.1c3.9,1.4,5.9,4.3,6.4,8.3s-0.6,7.9-1.5,11.8c-4,16.1-8,32.3-12.1,48.4c-0.2,1-0.7,1.3-1.7,1.3  c-18.1,0-36.2,0-54.4,0c-3,0.1-6.1-0.3-9-1.2c-4-1.1-6.7-4.8-6.6-9c-0.1-3,0.8-5.7,1.5-8.6c1-4.2,2.1-8.4,3.1-12.5  c2.4-9,8.6-14.3,17.9-15c1.5-0.1,3-0.2,4.5-0.2c9.3,0,18.6,0,28,0c0.9,0,1.3-0.3,1.5-1.2c0.5-2.5,1.2-4.9,1.8-7.3  c0.7-2.8-0.7-4.7-3.6-4.8c-1,0-1.9,0-2.9,0h-37.6V28.1z M347.5,52.5c-0.1,0-0.2-0.1-0.4-0.1c-5.3,0-10.7,0-16,0  c-2.8,0-5.3,2-5.9,4.8c-1.3,4.9-2.5,9.9-3.7,14.8c-0.7,2.8,0.6,4.7,3.5,4.8c5.2,0.2,10.5,0.1,15.7,0.1c0.7,0,0.7-0.5,0.8-0.9  c1.5-5.9,2.9-11.7,4.4-17.6C346.5,56.5,347,54.5,347.5,52.5z"></path><path d="M149.4,77c-0.4,1.9-0.9,3.5-1.3,5.2s-0.9,3.2-1.2,4.9c-0.1,0.7-0.5,0.9-1.2,0.9c-3.5,0-7,0-10.5,0H90.7  c-2.7,0.1-5.3-0.2-7.9-1c-4-1.2-6.8-4.8-6.8-8.9c-0.2-4,0.7-7.7,1.7-11.5c2.7-10.5,5.3-21,7.9-31.6c0.9-3.7,2.5-7.1,4.7-10.2  c3.2-4.3,8.2-7,13.6-7.4c1.6-0.2,3.2-0.2,4.9-0.2c13,0,25.9,0,38.9,0c2.1,0,4.2,0.3,6.2,0.9c4.4,1.3,6.7,4.6,6.9,9.1  c0.2,4-0.8,7.8-1.7,11.6c-1.9,7.5-3.8,15.1-5.6,22.7c-0.2,0.8-0.5,1.1-1.3,1c-15.2,0-30.4,0-45.6,0c-0.8,0-1.2,0.2-1.4,1  c-0.7,2.9-1.4,5.8-2.1,8.7c-0.6,2.7,0.6,4.4,3.3,4.7c0.7,0.1,1.4,0.1,2.1,0.1c13.2,0,26.4,0,39.7,0L149.4,77z M108.1,51.4  c0.1,0,0.2,0.1,0.3,0.1c6.7,0,13.4,0,20.1,0c0.3-0.1,0.6-0.3,0.7-0.6c1.6-6.1,3.1-12.3,4.6-18.4c0.5-1.7-0.4-3.5-2.1-4.1  c-0.2-0.1-0.4-0.1-0.6-0.1c-0.4-0.1-0.9-0.2-1.4-0.2c-4,0-8,0-12,0c-2.1-0.1-4,1.2-4.6,3.2c-0.2,0.5-0.4,1.1-0.5,1.7  c-0.9,3.5-1.7,6.9-2.6,10.4L108.1,51.4z"></path><path d="M0,2.2h1.1c9.4,0,18.8,0,28.1,0c0.9,0,1.2,0.2,1.3,1.1C31.2,9.6,32,15.8,32.8,22s1.6,12.2,2.3,18.3s1.5,12.1,2.3,18.2  c0.5,3.9,1,7.8,1.5,11.8c0.8,5.9,0.1,0.1,0.2,0.3c0.2-0.3,0.5-0.6,0.7-1l22.8-37.4C68.5,22.4,74.4,12.7,80.3,3  c0.2-0.4,0.6-0.6,1-0.7c4.4,0,8.9,0,13.3,0c0.2,0,0.4,0,0.6,0.1l-2.5,4c-17,26.9-34,53.7-51,80.6c-0.3,0.6-1,1-1.7,1c-9,0-18,0-27,0  c-0.9,0-1.2-0.2-1.3-1.1c-1-7.3-2-14.5-3-21.8c-1-6.8-1.9-13.6-2.9-20.4c-1-7.3-2-14.5-3-21.8C1.9,16.1,1,9.3,0,2.5  C0,2.4,0,2.3,0,2.2z"></path><path d="M464.6,17.1c-0.9,3.7-1.8,7.3-2.7,11h-39.1c-0.7,0-1.3,0-2,0.1c-1.9,0.2-3.5,1.6-4,3.5c-0.6,1.9-1,3.9-1.5,5.9  c-0.4,2.2,0.4,3.3,2.6,3.6c0.5,0.1,1.1,0.1,1.6,0.1c7.6,0,15.3,0,22.9,0c2.8,0,5.5,0.6,8,1.8c2.9,1.4,4.8,4.4,4.9,7.7  c0.1,2.7-0.3,5.3-1.1,7.9c-1.2,4.7-2.3,9.4-3.5,14c-2.3,8.8-8.4,14-17.5,14.9c-1.7,0.2-3.4,0.3-5.1,0.3c-16.5,0-33.1,0-49.7,0h-1.4  c0.2-1,0.5-1.9,0.7-2.8c0.6-2.4,1.2-4.8,1.8-7.2c0.2-0.7,0.5-1,1.2-1c3,0,6.1,0,9.1,0c9.1,0,18.3,0,27.4,0c1,0,2-0.1,3-0.3  c2.3-0.4,4.1-2.1,4.6-4.3c0.4-1.4,0.8-2.9,1.1-4.4c0.6-2.6-0.6-4.3-3.3-4.7c-0.6-0.1-1.3-0.1-1.9-0.1c-7.2,0-14.5,0-21.7,0  c-2,0-4-0.3-6-0.8c-3.9-1.1-5.9-3.9-6.4-7.8c-0.4-3.2-0.1-6.4,0.7-9.5c1.2-4.8,2.4-9.5,3.9-14.2c0.8-2.2,1.9-4.3,3.2-6.1  c3.2-4.8,8.6-7.6,14.3-7.6c7.6-0.1,15.2,0,22.8,0L464.6,17.1L464.6,17.1z"></path><path d="M158.5,88c0.9-3.6,1.8-7,2.6-10.4c0.1-0.2,0.4-0.4,0.7-0.5c0.3,0,0.5,0,0.8,0c12,0,24,0,36.1,0c1.2,0,2.4-0.2,3.6-0.5  c2-0.6,3.5-2.2,3.9-4.2c0.4-1.5,0.8-3.1,1.1-4.6c0.6-1.8-0.3-3.7-2.1-4.3c-0.3-0.1-0.6-0.2-1-0.2c-0.7-0.1-1.5-0.2-2.2-0.2  c-7.8,0-15.6,0-23.5-0.1c-1.5,0-3-0.3-4.4-0.8c-3.8-1.2-6.1-4.4-6.3-8.6c-0.2-3,0.1-6,0.9-8.9c1.2-4.5,2.3-9.1,3.8-13.6  c0.7-2.1,1.7-4,2.9-5.8c3.2-5.1,8.8-8.2,14.8-8.1c6.7-0.1,13.4,0,20.1,0H246c-0.3,1.1-0.5,2.1-0.8,3.1c-0.6,2.4-1.2,4.7-1.8,7.1  c-0.1,0.6-0.4,0.8-1,0.8s-1.3,0-1.9,0h-36.4c-0.7,0-1.4,0-2.1,0.1c-1.9,0.2-3.4,1.6-3.8,3.4c-0.6,2.1-1.1,4.2-1.6,6.3  c-0.3,1.4,0.5,2.7,1.9,3.1c0.1,0,0.3,0.1,0.4,0.1c0.6,0.1,1.3,0.2,1.9,0.2c7.7,0,15.3,0,23,0.1c2,0,3.9,0.3,5.8,0.9  c5.6,1.6,7.8,5.8,7,11.1c-0.7,4.3-1.9,8.6-2.9,12.9c-0.7,2.8-1.3,5.7-2.3,8.5c-2.5,7.3-7.8,11.4-15.4,12.7c-2.1,0.3-4.3,0.5-6.4,0.5  c-16.7,0-33.3,0-49.9,0L158.5,88z"></path><path d="M287,77c-0.9,3.6-1.7,7-2.6,10.4c0,0.2-0.4,0.4-0.6,0.5c0,0-0.1,0-0.2,0c-9.5,0-19.1,0-28.6-0.1c-2.2,0-4.3-0.7-6.2-1.8  c-2.9-1.8-4.2-4.5-4.6-7.8c-0.6-4.1,0.4-8,1.4-12c4.2-16.8,8.4-33.7,12.6-50.5c0.1-0.5,0.4-1,0.9-1.3c9.7-4.7,19.4-9.4,29-14.2  c0.2-0.1,0.3-0.1,0.7-0.3c-1.4,5.8-2.8,11.4-4.3,17.1h14.9l-2.7,11h-1c-4.3,0-8.6,0-13,0c-0.5-0.1-1.1,0.3-1.2,0.8c0,0,0,0.1,0,0.1  c-3.4,13.7-6.8,27.4-10.2,41.1c-0.2,0.8-0.4,1.7-0.5,2.5c-0.3,2.6,0.9,4.2,3.6,4.2c3.3,0.1,6.6,0.1,9.9,0.1C285.2,77,286,77,287,77z  "></path></svg>