<svg xmlns="http://www.w3.org/2000/svg" xmlns:xlink="http://www.w3.org/1999/xlink" id="Layer_1" x="0px" y="0px" viewBox="0 0 400 167" style="enable-background:new 0 0 400 167;" xml:space="preserve"><style type="text/css">	.st0{fill:#141006;}</style><path class="st0" d="M7.3,130l2.2,5.6H5.1L7.3,130z M6.6,128.5l-4.8,11.2h1.7l1.1-2.8h5.5l1.1,2.8H13l-4.7-11.2H6.6z"></path><path class="st0" d="M16.6,131.5H18v1.2h0c0.4-0.6,1.3-1.3,2.8-1.3c2.4,0,3.5,1.9,3.5,4.1c0,2.2-1,4.4-3.5,4.4  c-1.4,0-2.3-0.6-2.7-1.3h0v4.5h-1.5V131.5z M20.5,132.5c-1.6,0-2.4,1.6-2.4,3.1c0,1.4,0.7,3,2.4,3c1.6,0,2.3-1.8,2.3-3.1  C22.8,134.1,22.2,132.5,20.5,132.5"></path><path class="st0" d="M26.4,131.5h1.4v1.3h0c0.4-0.9,1.3-1.5,2.1-1.5c0.4,0,0.7,0,1,0.1v1.3c-0.3-0.1-0.6-0.1-0.8-0.1  c-1.3,0-2.2,1.3-2.2,3.3v3.7h-1.5V131.5z"></path><path class="st0" d="M35.3,131.3c2.5,0,4.2,1.8,4.2,4.3c0,2.3-1.7,4.3-4.2,4.3c-2.5,0-4.2-1.9-4.2-4.3  C31.1,133.1,32.8,131.3,35.3,131.3 M35.3,138.7c1.8,0,2.6-1.6,2.6-3.1c0-1.6-0.9-3.1-2.6-3.1c-1.6,0-2.6,1.5-2.6,3.1  C32.7,137.1,33.5,138.7,35.3,138.7"></path><path class="st0" d="M47.7,139.7h-1.5v-1.3h0c-0.4,0.9-1.5,1.5-2.7,1.5c-2.1,0-3.1-1.3-3.1-3.5v-4.9h1.5v4.2c0,1.9,0.4,2.8,1.7,2.9  c1.7,0,2.5-1.4,2.5-3.4v-3.8h1.5V139.7z"></path><path class="st0" d="M56,138.5L56,138.5c-0.4,0.6-1.4,1.3-2.8,1.3c-2.5,0-3.5-2.2-3.5-4.4c0-2.2,1.2-4.1,3.5-4.1  c1.4,0,2.2,0.6,2.7,1.3h0v-5h1.5v12H56V138.5z M53.6,138.7c1.7,0,2.4-1.7,2.4-3c0-1.5-0.8-3.1-2.4-3.1c-1.6,0-2.3,1.5-2.2,3  C51.3,136.8,51.9,138.7,53.6,138.7"></path><path class="st0" d="M64.5,131.5H66v1.2h0c0.4-0.6,1.3-1.3,2.8-1.3c2.4,0,3.5,1.9,3.5,4.1c0,2.2-1,4.4-3.5,4.4  c-1.4,0-2.3-0.6-2.7-1.3h0v4.5h-1.5V131.5z M68.5,132.5c-1.6,0-2.4,1.6-2.4,3.1c0,1.4,0.7,3,2.4,3c1.6,0,2.3-1.8,2.3-3.1  C70.7,134.1,70.1,132.5,68.5,132.5"></path><path class="st0" d="M74.2,132.1c0.8-0.5,1.7-0.8,2.7-0.8c2.3,0,3.3,1.2,3.3,3.4v3.4c0,0.9,0,1.4,0.1,1.6h-1.4v-1.1h0  c-0.4,0.5-1.2,1.3-2.5,1.3c-1.8,0-3-0.8-3-2.6c0-2.1,2.2-2.7,3.8-2.7c0.6,0,1,0,1.6,0c0-1.4-0.5-2.1-2-2.1c-0.8,0-1.8,0.3-2.4,0.8  L74.2,132.1z M78.7,135.8c-0.3,0-0.6,0-1,0c-0.8,0-2.8,0.1-2.8,1.6c0,0.9,0.8,1.3,1.5,1.3c1.5,0,2.3-0.9,2.3-2.2V135.8z"></path><path class="st0" d="M82.2,131.5h1.4v1.3h0c0.4-0.9,1.3-1.5,2.1-1.5c0.4,0,0.7,0,1,0.1v1.3c-0.3-0.1-0.6-0.1-0.8-0.1  c-1.4,0-2.2,1.3-2.2,3.3v3.7h-1.5V131.5z"></path><path class="st0" d="M93.9,132.7h-2.2v4.5c0,0.9,0.6,1.5,1.3,1.5c0.5,0,0.8-0.1,1-0.3v1.3c-0.3,0.1-0.8,0.2-1.3,0.2  c-1.6,0-2.5-0.7-2.5-2.4v-4.8h-1.8v-1.2h1.8v-1.9l1.5-0.5v2.4h2.2V132.7z"></path><path class="st0" d="M95.8,131.5h1.5v1.3h0c0.5-0.9,1.5-1.5,2.7-1.5c2.1,0,3.1,1.3,3.1,3.5v4.9h-1.5v-4.2c0-1.9-0.4-2.8-1.7-2.9  c-1.7,0-2.5,1.4-2.5,3.4v3.8h-1.5V131.5z"></path><path class="st0" d="M111.9,139.3c-0.6,0.2-1.2,0.5-2.6,0.5c-2.9,0-4.2-1.8-4.2-4.4c0-2.4,1.5-4.1,3.8-4.1c2.7,0,3.6,2,3.6,4.6h-5.8  c0,1.6,1.3,2.7,2.7,2.7c1,0,2.1-0.5,2.5-0.8V139.3z M110.9,134.8c0-1.3-0.7-2.3-2-2.3c-1.5,0-2.1,1.2-2.2,2.3H110.9z"></path><path class="st0" d="M114.5,131.5h1.4v1.3h0c0.4-0.9,1.3-1.5,2.1-1.5c0.4,0,0.7,0,1,0.1v1.3c-0.3-0.1-0.6-0.1-0.8-0.1  c-1.4,0-2.2,1.3-2.2,3.3v3.7h-1.5V131.5z"></path><path class="st0" d="M127.8,131.3c2.5,0,4.2,1.8,4.2,4.3c0,2.3-1.7,4.3-4.2,4.3c-2.5,0-4.2-1.9-4.2-4.3  C123.7,133.1,125.3,131.3,127.8,131.3 M127.8,138.7c1.8,0,2.6-1.6,2.6-3.1c0-1.6-1-3.1-2.6-3.1c-1.6,0-2.6,1.5-2.6,3.1  C125.3,137.1,126.1,138.7,127.8,138.7"></path><path class="st0" d="M134.5,132.7h-1.9v-1.2h1.9v-0.8c0-2,0.5-3.3,2.7-3.3c0.4,0,0.7,0,1,0.1l-0.1,1.2c-0.2-0.1-0.5-0.1-0.7-0.1  c-1.3,0-1.5,0.8-1.5,1.9v0.9h2.2v1.2H136v7h-1.5V132.7z"></path><path class="st0" d="M148.9,132.7h-2.2v4.5c0,0.9,0.6,1.5,1.3,1.5c0.5,0,0.8-0.1,1-0.3v1.3c-0.3,0.1-0.8,0.2-1.3,0.2  c-1.6,0-2.5-0.7-2.5-2.4v-4.8h-1.8v-1.2h1.8v-1.9l1.5-0.5v2.4h2.2V132.7z"></path><path class="st0" d="M150.9,127.6h1.5v5h0c0.5-0.9,1.5-1.4,2.6-1.4c2.1,0,3.1,1.3,3.1,3.5v4.9h-1.5v-4.2c0-1.9-0.4-2.8-1.7-2.9  c-1.7,0-2.5,1.4-2.5,3.4v3.8h-1.5V127.6z"></path><path class="st0" d="M166.2,139.3c-0.6,0.2-1.2,0.5-2.6,0.5c-2.9,0-4.2-1.8-4.2-4.4c0-2.4,1.5-4.1,3.8-4.1c2.7,0,3.6,2,3.6,4.6H161  c0,1.6,1.3,2.7,2.7,2.7c1,0,2.2-0.5,2.5-0.8V139.3z M165.3,134.8c0-1.3-0.7-2.3-2-2.3c-1.5,0-2.1,1.2-2.2,2.3H165.3z"></path><path class="st0" d="M336.4,131.9h1.5v1.3h0c0.4-0.9,1.5-1.5,2.7-1.5c2.1,0,3.1,1.3,3.1,3.5v4.9h-1.5v-4.2c0-1.9-0.4-2.8-1.7-2.9  c-1.7,0-2.5,1.4-2.5,3.4v3.8h-1.5V131.9z"></path><path class="st0" d="M352.5,139.8c-0.6,0.2-1.2,0.5-2.6,0.5c-2.9,0-4.2-1.8-4.2-4.4c0-2.4,1.5-4.1,3.8-4.1c2.7,0,3.6,2,3.6,4.6h-5.8  c0,1.6,1.3,2.7,2.7,2.7c1,0,2.2-0.5,2.5-0.8V139.8z M351.6,135.2c0-1.2-0.7-2.3-2-2.3c-1.5,0-2.1,1.2-2.2,2.3H351.6z"></path><path class="st0" d="M359.5,133.1h-2.2v4.5c0,1,0.6,1.5,1.3,1.5c0.5,0,0.8-0.1,1-0.3v1.3c-0.3,0.1-0.8,0.2-1.3,0.2  c-1.6,0-2.5-0.7-2.5-2.4v-4.8H354v-1.2h1.8V130l1.5-0.5v2.4h2.2V133.1z"></path><polygon class="st0" points="371.7,140.1 370,140.1 367.9,133.2 367.8,133.2 365.8,140.1 364,140.1 361.4,131.9 363,131.9   364.9,138.7 364.9,138.7 367,131.9 368.8,131.9 370.9,138.7 370.9,138.7 372.9,131.9 374.4,131.9 "></polygon><path class="st0" d="M378.4,131.7c2.5,0,4.2,1.8,4.2,4.3c0,2.3-1.7,4.3-4.2,4.3c-2.5,0-4.2-1.9-4.2-4.3  C374.3,133.5,375.9,131.7,378.4,131.7 M378.4,139.1c1.8,0,2.5-1.6,2.5-3.1c0-1.6-0.9-3.1-2.5-3.1c-1.6,0-2.6,1.5-2.6,3.1  C375.9,137.5,376.7,139.1,378.4,139.1"></path><path class="st0" d="M384.6,131.9h1.4v1.3h0c0.4-0.8,1.3-1.5,2.1-1.5c0.5,0,0.7,0,1,0.1v1.3c-0.3-0.1-0.6-0.1-0.8-0.1  c-1.3,0-2.2,1.3-2.2,3.3v3.7h-1.5V131.9z"></path><polygon class="st0" points="390.9,128.1 392.4,128.1 392.4,135.2 395.7,131.9 397.7,131.9 393.9,135.5 398.2,140.1 396,140.1   392.4,135.9 392.4,140.1 390.9,140.1 "></polygon><path class="st0" d="M177.4,128.4h1.8l5,11.8h-1.8l-1.2-3h-5.8l-1.2,3h-1.8L177.4,128.4z M178.2,130l-2.3,5.8h4.7L178.2,130z"></path><path class="st0" d="M185.3,131.6h1.5v1.3h0c0.6-1,1.5-1.5,2.7-1.5c1,0,2,0.5,2.5,1.7c0.6-1.2,1.9-1.7,2.7-1.7c2.2,0,3,1.4,3,3.3  v5.5h-1.6v-5.1c0-1.1-0.3-2.4-1.5-2.4c-1.6,0-2.3,1.6-2.3,3.2v4.3h-1.6v-5.1c0-1.1-0.3-2.4-1.5-2.4c-1.6,0-2.3,1.6-2.3,3.2v4.3h-1.6  V131.6z"></path><path class="st0" d="M207.2,139.8c-0.6,0.2-1.3,0.6-2.7,0.6c-3.1,0-4.5-1.9-4.5-4.7c0-2.6,1.6-4.4,4-4.4c2.9,0,3.8,2.1,3.8,4.9h-6.2  c0,1.7,1.3,2.9,2.8,2.9c1,0,2.3-0.5,2.7-0.9V139.8z M206.1,135.1c0-1.3-0.8-2.4-2.1-2.4c-1.6,0-2.2,1.3-2.3,2.4H206.1z"></path><path class="st0" d="M210.1,131.6h1.5v1.3h0c0.4-0.9,1.3-1.5,2.2-1.5c0.5,0,0.7,0.1,1,0.1v1.4c-0.3-0.1-0.6-0.2-0.9-0.2  c-1.4,0-2.3,1.4-2.3,3.5v3.9h-1.6V131.6z"></path><rect x="217.1" y="131.6" class="st0" width="1.6" height="8.6"></rect><path class="st0" d="M227.2,133c-0.6-0.3-1.2-0.4-1.7-0.4c-1.8,0-2.8,1.6-2.8,3.2c0,1.5,0.8,3.2,2.9,3.2c0.5,0,1.2-0.2,1.7-0.5  l0.1,1.4c-0.7,0.3-1.4,0.4-2,0.4c-2.6,0-4.4-2-4.4-4.5c0-2.6,1.8-4.5,4.4-4.5c0.6,0,1.5,0.2,1.9,0.3L227.2,133z"></path><path class="st0" d="M229.8,132.2c0.8-0.5,1.7-0.8,2.8-0.8c2.5,0,3.5,1.2,3.5,3.6v3.6c0,1,0,1.4,0.1,1.7h-1.5v-1.1h0  c-0.4,0.5-1.2,1.3-2.7,1.3c-1.9,0-3.2-0.8-3.2-2.7c0-2.2,2.4-2.8,4-2.8c0.6,0,1.1,0,1.7,0c0-1.5-0.5-2.2-2.1-2.2  c-0.9,0-1.9,0.3-2.5,0.9L229.8,132.2z M234.5,136.1c-0.3,0-0.7,0-1,0c-0.9,0-3,0.1-3,1.7c0,0.9,0.9,1.4,1.6,1.4c1.6,0,2.4-1,2.4-2.3  V136.1z"></path><path class="st0" d="M239,131.6h1.5v1.4h0c0.5-1,1.6-1.6,2.8-1.6c2.2,0,3.2,1.4,3.2,3.7v5.1H245v-4.5c0-2-0.4-3-1.8-3.1  c-1.8,0-2.6,1.5-2.6,3.5v4H239V131.6z"></path><path class="st0" d="M248.4,137.5c0.4,0.2,0.9,0.3,1.4,0.3c0.9,0,1.6-0.7,1.6-2.6v-6.8h3.1v7.7c0,2.5-1,4.3-4.2,4.3  c-0.7,0-1.4-0.2-1.9-0.3V137.5z"></path><path class="st0" d="M256.3,135.8c0-2.9,2.2-4.6,5.1-4.6c2.9,0,5.1,1.7,5.1,4.6c0,2.9-2.2,4.6-5.1,4.6  C258.5,140.4,256.3,138.7,256.3,135.8 M263.4,135.8c0-1.3-0.6-2.5-2-2.5c-1.4,0-2,1.2-2,2.5c0,1.3,0.6,2.5,2,2.5  C262.9,138.3,263.4,137.1,263.4,135.8"></path><path class="st0" d="M268.1,127.5h3.1v5h0c0.8-1,1.8-1.3,3-1.3c2.4,0,3.8,2.3,3.8,4.4c0,2.6-1.4,4.8-4,4.8c-1.4,0-2.6-0.8-3-1.8h0  v1.6h-2.8V127.5z M273,133.5c-1.1,0-1.9,1-1.9,2.3c0,1.3,0.8,2.2,1.9,2.2c1.1,0,1.8-1,1.8-2.4C274.9,134.5,274.2,133.5,273,133.5"></path><path class="st0" d="M288.4,130.3c-0.7-0.4-1.6-0.7-2.4-0.7c-2.7,0-4.5,2-4.5,4.6c0,2.8,2,4.6,4.4,4.6c0.8,0,2-0.2,2.6-0.6l0.1,1.6  c-0.9,0.4-2,0.4-2.7,0.4c-3.7,0-6.2-2.4-6.2-6.2c0-3.6,2.6-6.1,6.2-6.1c0.9,0,1.8,0.1,2.7,0.5L288.4,130.3z"></path><path class="st0" d="M297.2,139.8c-0.6,0.2-1.3,0.6-2.7,0.6c-3.1,0-4.5-1.9-4.5-4.7c0-2.6,1.6-4.4,4-4.4c2.9,0,3.8,2.1,3.8,4.9h-6.2  c0,1.7,1.3,2.9,2.8,2.9c1,0,2.3-0.5,2.7-0.9V139.8z M296.2,135.1c0-1.3-0.8-2.4-2.1-2.4c-1.6,0-2.2,1.3-2.3,2.4H296.2z"></path><path class="st0" d="M299.1,131.6h1.5v1.4h0c0.5-1,1.6-1.6,2.8-1.6c2.2,0,3.2,1.4,3.2,3.7v5.1h-1.6v-4.5c0-2-0.4-3-1.8-3.1  c-1.8,0-2.6,1.5-2.6,3.5v4h-1.6V131.6z"></path><path class="st0" d="M314.2,132.9h-2.3v4.7c0,1,0.6,1.5,1.3,1.5c0.5,0,0.8-0.2,1.1-0.3v1.4c-0.4,0.1-0.8,0.2-1.4,0.2  c-1.6,0-2.7-0.8-2.7-2.5v-5h-1.9v-1.3h1.9v-2l1.6-0.5v2.5h2.3V132.9z"></path><path class="st0" d="M323,139.8c-0.6,0.2-1.3,0.6-2.7,0.6c-3.1,0-4.5-1.9-4.5-4.7c0-2.6,1.6-4.4,4-4.4c2.9,0,3.8,2.1,3.8,4.9h-6.2  c0,1.7,1.3,2.9,2.8,2.9c1,0,2.3-0.5,2.7-0.9V139.8z M321.9,135.1c0-1.3-0.8-2.4-2.1-2.4c-1.6,0-2.2,1.3-2.3,2.4H321.9z"></path><path class="st0" d="M325.9,131.6h1.5v1.3h0c0.4-0.9,1.3-1.5,2.2-1.5c0.5,0,0.7,0.1,1,0.1v1.4c-0.3-0.1-0.6-0.2-0.9-0.2  c-1.4,0-2.3,1.4-2.3,3.5v3.9h-1.6V131.6z"></path><path class="st0" d="M250.5,121.7c-0.1,0-0.5-0.3-1.2-0.7c-0.7-0.4-1.9-0.8-3.4-1c-1.5-0.3-3.5-0.3-5.7-0.1c-2.2,0.2-4.6,0.8-7,1.6  c-2.4,0.8-4.8,1.8-6.9,2.8c-2.1,1.1-4,2.2-5.3,3.3c-0.7,0.5-1.3,1-1.7,1.4c-0.4,0.4-0.7,0.7-0.8,0.8c0,0.1,0,0,0,0.1c0,0,0,0,0,0  c0,0,0,0,0,0c-0.2-0.1-0.4-0.2-0.5-0.3c-0.2-0.1-0.3-0.3-0.4-0.5c-0.2-0.4-0.2-1-0.1-1.6c1.1-0.9,2.4-1.8,3.8-2.6  c1.4-0.8,2.9-1.5,4.4-2.2c3-1.3,6.1-2.3,9.3-3c3.1-0.6,6.2-0.9,9-0.6c1.4,0.2,2.7,0.5,3.8,0.9C248.7,120.5,249.7,121.1,250.5,121.7"></path><polygon class="st0" points="248.6,118.5 250.4,121.7 247.9,123.5 251.5,123.9 253.3,127.2 253.8,124 257.5,124.6 254,122.3   254.5,119.2 251.9,120.9 "></polygon><g>	<g>		<path class="st0" d="M186,89.4l19.1,28.8V91.1c-4.1-0.1-9-0.8-12.9-2l-0.2,0.4L186,89.4z"></path>		<path class="st0" d="M205.1,36.6V16L181.6,51H193l0.4,3.7c-3,0.4-14.8,11.8-14.8,11.8l10.7,15.8c0.3,0.5,0.7,0.8,1,1    c-0.4-3.7-0.4-4.8-0.4-5.6c0-0.9,2.1-1.5,2.9-1.5c1.1,0,2.5,0.9,2.9,2c1.3,3.7,5.4,5.6,9.4,5.7V64.3c-4.7-2.6-9.6-8.7-9.6-14.1    C195.5,46.1,198.7,39.5,205.1,36.6z"></path>	</g>	<path class="st0" d="M206.3,89.2c-4.6,0-9.4-0.4-13.8-1.9c-0.5-4.2-0.9-7.2-0.9-8.1c0-0.9,0.7-1.3,1.5-1.3c1.1,0,1.4,0.9,1.8,2   c1.3,3.9,6.5,5.8,10.5,5.8c5.5,0,11.8-3.1,11.8-9.4c0-10.5-19.7-13.2-19.7-26.2c0-6.4,5.8-14.3,20.5-14.3c4,0,8.3,0.6,12.4,2v6.1   c0,0.9-0.3,1.6-1.4,1.6c-0.9,0-1.2-0.6-1.5-1.3c-1.3-3.5-5.8-4.9-9.2-4.9c-4.2,0-9.4,2-9.4,7.3c0,8.9,20.1,10.8,20.1,26.3   C229,77.7,225.8,89.2,206.3,89.2L206.3,89.2z"></path>	<path class="st0" d="M230.6,76.7c0-13,8.5-24.2,22.6-24.2c8.6,0,13.8,3.9,13.8,12.3c0,13-8.5,24.2-22.6,24.2   C235.7,89,230.6,85.1,230.6,76.7L230.6,76.7z M255.5,66.9c0-3.4-0.2-11.4-5.2-11.4c-7.3,0-8.3,14.1-8.3,19.2   c0,3.3,0.2,11.3,5.2,11.3C254.5,86,255.5,71.9,255.5,66.9L255.5,66.9z"></path>	<path class="st0" d="M265.5,55.9c5.8-2.1,12.7-3.4,16.8-3.4c0.9,0,1,0.2,1,1.2c0,7.9-2.6,20-2.6,24.4c0,1.1,0.2,2.4,1.6,2.4   c3.1,0,7.7-8.7,9.4-18.2l1.5-8.3h10.1c-1.5,16.7-2.4,21.5-2.4,27.6c0,1,0,2.4,1,2.4c0.6,0,2.4-0.6,4.8-1.5l0.7,2.2   c-5,2.4-11,4.3-15.2,4.3c-2.1,0-2-3.4-2-4.8c0-3.5,0.2-6.9,0.3-10.4l-0.2-0.2c-1.8,6-7.9,15.3-14.9,15.3c-3.9,0-5.6-3.5-5.6-7   c0-4.1,2.1-21,2.1-23c0-0.8,0-1.9-1-1.9c-0.7,0-1.9,0.4-4.6,1.2L265.5,55.9L265.5,55.9z"></path>	<path class="st0" d="M305.5,55.9c5.8-2.1,12.7-3.4,16.8-3.4c0.9,0,1,0.2,1,1.2c0,1.2-0.6,5-2,14l0.2,0.2   c1.9-5.5,7.1-15.3,13.6-15.3c2,0,3.8,1.3,3.8,3.5c0,2.4-2.2,3.7-4.4,3.7c-1.4,0-2.5-0.4-4.2-1.3c-4.4,3.8-9.2,14.1-11,29.1h-10.5   c0.9-6.6,3.1-26.8,3.1-28.5c0-0.8,0-1.9-1-1.9c-0.7,0-1.9,0.4-4.6,1.2L305.5,55.9L305.5,55.9z"></path>	<path class="st0" d="M362.8,82.3c-4.4,4.4-11.5,6.7-17.8,6.7c-8.7,0-13.1-4.2-13.1-12.9c0-14,10.4-23.6,24.2-23.6   c2.4,0,8,0.7,8,4.2c0,2.3-2.2,3.5-4.2,3.5c-2.9,0-5.7-2-6.4-4.9c-6.6,2.1-9.8,13.2-9.8,19.3c0,4.1,1.5,10.1,6.6,10.1   c3.9,0,8.2-2.3,10.9-4.6L362.8,82.3L362.8,82.3z"></path>	<path class="st0" d="M394.8,81.3c-4.5,5-11.2,7.7-18,7.7c-8.7,0-13.1-4.2-13.1-12.9c0-14,10.4-23.6,24.2-23.6c7.2,0,7.2,3.3,7.2,5   v0.7c2-1.4,2.4-1.8,2.7-1.8c0.4,0,0.4,0.3,0.4,0.6c0,0.6,0,0.9-0.2,1.7c-6.9,6.4-15,11-22.3,16.7c0.2,4.3,1.7,9.3,7,9.3   c3.9,0,7.9-3.1,10.8-5.5L394.8,81.3L394.8,81.3z M386.1,64.2c0.5-1.6,0.7-3.2,0.7-5c0-1.8-0.5-3.8-2.8-3.8   c-5.9,0-8.7,11.6-8.7,16.5L386.1,64.2L386.1,64.2z"></path>	<path class="st0" d="M13.4,87.6v-0.9c0.9-0.2,1.6-0.3,1.6-1.3c0-0.6-11.9-35.9-12.3-37.3c-0.2-0.6-0.6-0.9-0.8-0.9v-0.9h14.4v0.9   c-0.9,0.2-1.7,0.3-1.7,1.2c0,0.9,5.7,17.9,7.7,24.3h0.2c1.9-5.9,7.3-23.5,7.3-24.3c0-0.9-1-1-1.7-1.2v-0.9h18.7v0.9   c-0.7,0.2-1.3,0.4-1.3,1.2c0,0.5,5.5,19.1,6.6,24.3h0.2c0.9-3.8,7.7-23.1,7.7-24.1c0-0.9-0.9-1.1-1.7-1.3v-0.9h13.2v0.9   c-0.8,0.1-1.2,0.7-1.3,1.5C70,50,57.9,84.6,57.9,85.6c0,0.9,0.9,1,1.6,1.1v0.9H43.1v-0.9c1.1-0.2,1.6-0.5,1.6-1.1   c0-2.5-4.6-17-7.5-27.5H37c-2.6,9.1-8.3,26.1-8.3,27.5c0,0.6,0.7,1.1,1.7,1.1v0.9H13.4L13.4,87.6z"></path>	<path class="st0" d="M108,70.3c0,12.4-11.2,17.8-21,17.8c-9.8,0-21-5.3-21-17.8s11.2-17.8,21-17.8C96.9,52.5,108,57.9,108,70.3   L108,70.3z M76.3,70.3c0,5.8,4.8,9.4,10.8,9.4c6,0,10.8-3.6,10.8-9.4c0-5.8-4.8-9.4-10.8-9.4C81.1,60.9,76.3,64.5,76.3,70.3   L76.3,70.3z"></path>	<path class="st0" d="M110.5,55.4c0-1.1-0.9-1.3-1.7-1.4V53h25.2c7.7,0,12.9,3.8,12.9,10.9c0,5.7-3.9,8.7-8.7,10.6l7,10.5   c0.6,0.9,1.7,1.6,2.8,1.6v0.9h-15.9v-0.9c0.7,0,1.9-0.2,1.9-1c0-1-5.3-9.6-6-10.9h-7.5v10.5c0,1.1,0.9,1.3,2,1.4v0.9H109v-0.9   c0.6-0.1,1.6-0.3,1.6-1.4V55.4L110.5,55.4z M120.5,68.1h11.2c3.3,0,5.4-1.4,5.4-4.2c0-2.4-1.3-4.2-6-4.2h-10.6V68.1L120.5,68.1z"></path>	<path class="st0" d="M174.9,87.6v-0.9c0.7,0,2.2-0.2,2.2-1.3c0-0.9-7.3-11-8.5-13.1l-6.8,6.6v6.4c0,1.2,1.2,1.3,2.2,1.4v0.9h-14.7   v-0.9c0.9,0.1,2-0.3,2-1.4V55.4c0-1.1-1-1.5-2-1.4V53h14.7V54c-1,0.1-2.2,0.2-2.2,1.4v14.5c4.7-4.1,15.8-13.5,15.8-14.5   c0-1.2-1.2-1.3-2-1.4V53h15.3V54c-3,0.4-10.9,9-14.9,12.2l13.1,19.3c0.5,0.9,1.1,1.1,1.8,1.2v0.9H174.9L174.9,87.6z"></path></g></svg>