<?xml version="1.0" encoding="UTF-8"?>
<svg id="Layer_2" data-name="Layer 2" xmlns="http://www.w3.org/2000/svg" viewBox="0 0 563.09 297.9">
  <defs>
    <style>
      .cls-1 {
        fill: #fff;
      }

      .cls-2 {
        fill: #f36d35;
      }
    </style>
  </defs>
  <g id="Layer_1-2" data-name="Layer 1">
    <g>
      <circle class="cls-2" cx="508.55" cy="118.68" r="54.54"/>
      <path class="cls-1" d="M505.1,140.61v-18.21c-6.43-1.62-11.14-4.08-14.14-7.37-3-3.29-4.5-7.28-4.5-11.98s1.7-8.74,5.09-11.97c3.39-3.23,7.91-5.09,13.55-5.59v-4.3h7.13v4.3c5.21.55,9.36,2.12,12.44,4.72,3.08,2.59,5.05,6.06,5.9,10.41l-12.44,1.43c-.75-3.42-2.72-5.74-5.9-6.95v16.99c7.87,1.88,13.23,4.32,16.08,7.32,2.85,3,4.28,6.85,4.28,11.54,0,5.24-1.79,9.66-5.39,13.26-3.59,3.59-8.58,5.8-14.97,6.61v5.35h-7.13v-5.13c-5.67-.61-10.28-2.48-13.82-5.61s-5.8-7.55-6.79-13.26l12.84-1.22c.52,2.32,1.51,4.32,2.95,6,1.44,1.68,3.05,2.9,4.82,3.65ZM505.1,94.97c-1.94.58-3.48,1.56-4.62,2.96-1.15,1.39-1.72,2.93-1.72,4.61,0,1.54.52,2.96,1.57,4.28,1.05,1.32,2.64,2.38,4.77,3.19v-15.04ZM512.23,141.21c2.46-.41,4.46-1.41,6-3.02,1.54-1.61,2.31-3.5,2.31-5.67,0-1.94-.65-3.61-1.94-5.02-1.3-1.41-3.42-2.48-6.37-3.24v16.95Z"/>
    </g>
    <g>
      <path class="cls-2" d="M360.63,117.34c-6.19-15.2-19.35-26.45-35.32-30.2l-87.06-20.46c-26.94-6.33-55.28.71-76.14,18.91l-110.27,96.29c-2.4,2.1-5.23,3.64-8.29,4.53l-34.37,10c-6.87,2-10.75,9.27-8.59,16.09l24.24,76.49c2.24,7.08,10.04,10.75,16.93,7.97l38.95-15.74c2.04-.82,4.18-1.37,6.36-1.63l69.65-8.16c25.08-2.93,48.56-13.79,67.04-30.99l63.46-59.1c6.65-5.34,14.56-8.87,22.98-10.24l22.21-3.59c18.47-2.98,30.94-18.93,30.94-36.31,0-4.59-.87-9.29-2.74-13.87ZM119.21,155.24c-1.96,0-3.75-1.28-4.32-3.25-.68-2.38.69-4.87,3.08-5.56l33.44-9.61v9.33l-13.98,4.02-16.98,4.89c-.41.13-.84.18-1.24.18ZM211.36,196.55c-.26.53-6.51,13.12-18.61,26.23-16.22,17.59-35.29,27.64-55.14,29.05-.11,0-.22,0-.32,0-2.34,0-4.31-1.81-4.47-4.17-.18-2.48,1.68-4.63,4.16-4.81,17.77-1.27,34.32-10.08,49.17-26.18,5.81-6.3,10.18-12.5,13.06-17.04l8.11-5.08h4.5c0,.67-.14,1.34-.46,1.98Z"/>
      <g>
        <path class="cls-2" d="M170.72,197.57c-12.3,0-22.31-10.01-22.31-22.31v-21.97l5.52-1.58c.79-.23,1.24-1.05,1.01-1.84-.18-.64-.77-1.08-1.42-1.08-.14,0-.28.02-.42.06l-4.7,1.37V25.3c0-12.3,10.01-22.3,22.31-22.3h234.54c12.3,0,22.31,10,22.31,22.3v149.96c0,12.3-10.01,22.31-22.31,22.31h-234.54Z"/>
        <path class="cls-1" d="M405.26,6c10.67,0,19.31,8.64,19.31,19.3v149.96c0,10.66-8.64,19.31-19.31,19.31h-234.54c-10.66,0-19.31-8.65-19.31-19.31v-19.71l3.35-.96c2.38-.68,3.75-3.17,3.07-5.55-.56-1.97-2.35-3.25-4.3-3.25-.41,0-.84.06-1.25.18l-.86.25V25.3c0-10.66,8.65-19.3,19.31-19.3h234.54M405.26,0h-234.54c-13.96,0-25.31,11.35-25.31,25.3v149.96c0,13.96,11.35,25.31,25.31,25.31h234.54c13.96,0,25.31-11.35,25.31-25.31V25.3c0-13.95-11.35-25.3-25.31-25.3h0Z"/>
      </g>
      <rect x="151.41" y="41" width="273.16" height="46.27"/>
      <path d="M280.43,171.49c-3.73,0-6.74-3.02-6.74-6.74s3.02-6.74,6.74-6.74h119.16c3.73,0,6.74,3.02,6.74,6.74s-3.02,6.74-6.74,6.74h-119.16Z"/>
      <path d="M305.65,148.45c-3.73,0-6.74-3.02-6.74-6.74s3.02-6.74,6.74-6.74h93.93c3.73,0,6.74,3.02,6.74,6.74s-3.02,6.74-6.74,6.74h-93.93Z"/>
      <path d="M305.65,125.42c-3.73,0-6.74-3.02-6.74-6.74s3.02-6.74,6.74-6.74h93.93c3.73,0,6.74,3.02,6.74,6.74s-3.02,6.74-6.74,6.74h-93.93Z"/>
      <g>
        <path class="cls-2" d="M270.42,143.94c0,6.75-3.41,13.25-9.45,17.03l-49.84,31.22-3.82,2.39-8.11,5.08-45.59,28.56-16.18-78.04,13.98-4.02v-.04l93.45-22.16c10.02-2.38,20.33,2.97,24.12,12.5.97,2.44,1.44,4.98,1.44,7.47Z"/>
        <path class="cls-1" d="M276.42,133.51c-4.31-10.84-15.06-18.11-26.76-18.11h0c-2.23,0-4.47.26-6.65.78l-93.45,22.16-6.15,1.46v.34l-8.19,2.36-7.13,2.05,1.41,6.82c.21-.05.43-.08.65-.1.53-.65,1.33-1.15,2.45-1.35,4.18-.75,9.99-2.92,14.72-2.59l4.08-1.17v-.04l93.45-22.16c1.6-.38,3.21-.56,4.8-.56,8.35,0,16.14,5.06,19.33,13.07.97,2.44,1.44,4.98,1.44,7.47,0,6.75-3.41,13.25-9.45,17.03l-49.84,31.22-3.82,2.39-8.03,5.03c-.09.26-.19.51-.34.77-2.66,4.91-5.61,9.77-8.86,14.43l13.36-8.37,8.11-5.08,3.81-2.39,49.84-31.22c8.27-5.18,13.2-14.08,13.2-23.81,0-3.57-.67-7.08-2-10.42Z"/>
      </g>
    </g>
  </g>
</svg>