<?xml version="1.0" encoding="UTF-8"?>
<svg id="Layer_2" data-name="Layer 2" xmlns="http://www.w3.org/2000/svg" viewBox="0 0 382.86 353.49">
  <defs>
    <style>
      .cls-1 {
        fill: #fff;
      }

      .cls-2 {
        fill: #f36d35;
      }
    </style>
  </defs>
  <g id="Layer_1-2" data-name="Layer 1">
    <g>
      <path class="cls-2" d="M33.97,250.24l32.03-35.57c15.07-16.74,36.84-25.86,59.34-24.86l98.15,4.33c7.87.73,13.89,7.33,13.89,15.23h0c0,8.45-6.85,15.3-15.3,15.3h-66.14c-5.24,0-9.55,4.13-9.78,9.36h0c-.21,4.8,3.1,9.05,7.81,10.01l92.27,18.96c7.64,1.57,15.59.02,22.09-4.31l83.24-55.51c7.25-4.83,16.98-3.34,22.45,3.44h0c5.7,7.06,4.78,17.37-2.08,23.31l-89.29,77.36c-9.56,8.28-21.66,13.07-34.3,13.56l-154.84,6.02c-2.43.09-4.79.83-6.85,2.13l-36.25,22.93c-4.99,3.15-11.6,1.35-14.3-3.9L1.11,279.84c-2.55-4.96-.56-11.04,4.42-13.55l21.8-10.98c2.51-1.26,4.76-2.98,6.64-5.07Z"/>
      <g>
        <g>
          <rect class="cls-2" x="63.17" y="6" width="283.87" height="118.21"/>
          <path class="cls-2" d="M341.03,12v106.21H69.17V12h271.86M353.03,0H57.17v130.21h295.86V0h0Z"/>
        </g>
        <g>
          <circle class="cls-1" cx="205.1" cy="65.1" r="39.38"/>
          <path d="M202.62,80.94v-13.15c-4.64-1.17-8.04-2.94-10.21-5.32-2.17-2.37-3.25-5.26-3.25-8.65s1.23-6.31,3.68-8.65c2.45-2.33,5.71-3.68,9.78-4.03v-3.11h5.15v3.11c3.76.4,6.76,1.53,8.98,3.4,2.22,1.87,3.65,4.38,4.26,7.52l-8.98,1.04c-.54-2.47-1.97-4.14-4.26-5.02v12.27c5.68,1.36,9.55,3.12,11.61,5.29s3.09,4.94,3.09,8.33c0,3.79-1.3,6.98-3.89,9.57-2.59,2.59-6.2,4.18-10.81,4.77v3.86h-5.15v-3.7c-4.1-.44-7.42-1.79-9.98-4.05s-4.19-5.45-4.9-9.57l9.27-.88c.38,1.67,1.09,3.12,2.13,4.33,1.04,1.21,2.2,2.09,3.48,2.64ZM202.62,47.99c-1.4.42-2.51,1.13-3.34,2.13-.83,1-1.24,2.11-1.24,3.33,0,1.11.38,2.14,1.14,3.09.76.95,1.91,1.72,3.44,2.31v-10.86ZM207.76,81.38c1.78-.29,3.22-1.02,4.33-2.18,1.11-1.16,1.67-2.53,1.67-4.1,0-1.4-.47-2.61-1.4-3.63-.94-1.01-2.47-1.79-4.6-2.34v12.24Z"/>
        </g>
        <g>
          <path class="cls-1" d="M83.3,50.68h-3.59v-29.34h29.34v3.59c-14.22,0-25.75,11.53-25.75,25.75Z"/>
          <path class="cls-1" d="M301.15,24.93v-3.59h29.34v29.34h-3.59c0-14.22-11.53-25.75-25.75-25.75Z"/>
          <path class="cls-1" d="M326.9,79.52h3.59v29.34h-29.34v-3.59c14.22,0,25.75-11.53,25.75-25.75Z"/>
          <path class="cls-1" d="M109.05,105.28v3.59h-29.34v-29.34h3.59c0,14.22,11.53,25.75,25.75,25.75Z"/>
        </g>
      </g>
      <g>
        <g>
          <rect class="cls-2" x="90" y="38.18" width="289.87" height="124.21"/>
          <path class="cls-1" d="M376.86,41.18v118.21H93V41.18h283.86M382.86,35.18H87v130.21h295.86V35.18h0Z"/>
        </g>
        <g>
          <circle class="cls-1" cx="234.93" cy="100.28" r="39.38"/>
          <path class="cls-2" d="M232.44,116.12v-13.15c-4.64-1.17-8.04-2.94-10.21-5.32-2.17-2.37-3.25-5.26-3.25-8.65s1.23-6.31,3.68-8.65c2.45-2.33,5.71-3.68,9.78-4.03v-3.11h5.15v3.11c3.76.4,6.76,1.53,8.98,3.4,2.22,1.87,3.65,4.38,4.26,7.52l-8.98,1.04c-.54-2.47-1.97-4.14-4.26-5.02v12.27c5.68,1.36,9.55,3.12,11.61,5.29,2.06,2.17,3.09,4.94,3.09,8.33,0,3.79-1.3,6.98-3.89,9.57-2.59,2.59-6.2,4.18-10.81,4.77v3.86h-5.15v-3.7c-4.1-.44-7.42-1.79-9.98-4.05-2.56-2.26-4.19-5.45-4.9-9.57l9.27-.88c.38,1.67,1.09,3.12,2.13,4.33,1.04,1.21,2.2,2.09,3.48,2.64ZM232.44,83.16c-1.4.42-2.51,1.13-3.34,2.13-.83,1-1.24,2.11-1.24,3.33,0,1.11.38,2.14,1.14,3.09.76.95,1.91,1.72,3.44,2.31v-10.86ZM237.59,116.55c1.78-.29,3.22-1.02,4.33-2.18,1.11-1.16,1.67-2.53,1.67-4.1,0-1.4-.47-2.61-1.4-3.63-.94-1.01-2.47-1.79-4.6-2.34v12.24Z"/>
        </g>
        <g>
          <path class="cls-1" d="M113.13,85.86h-3.59v-29.34h29.34v3.59c-14.22,0-25.75,11.53-25.75,25.75Z"/>
          <path class="cls-1" d="M330.98,60.11v-3.59h29.34v29.34h-3.59c0-14.22-11.53-25.75-25.75-25.75Z"/>
          <path class="cls-1" d="M356.73,114.7h3.59v29.34h-29.34v-3.59c14.22,0,25.75-11.53,25.75-25.75Z"/>
          <path class="cls-1" d="M138.88,140.46v3.59h-29.34v-29.34h3.59c0,14.22,11.53,25.75,25.75,25.75Z"/>
        </g>
      </g>
    </g>
  </g>
</svg>