<?xml version="1.0" encoding="UTF-8"?>
<svg xmlns="http://www.w3.org/2000/svg" id="Layer_2" data-name="Layer 2" viewBox="0 0 401.57 437">
  <defs>
    <style>
      .cls-1 {
        fill: #252a2e;
      }

      .cls-1, .cls-2, .cls-3, .cls-4, .cls-5, .cls-6 {
        stroke-width: 0px;
      }

      .cls-2 {
        fill: #bdd356;
      }

      .cls-3 {
        fill: #3c9e69;
      }

      .cls-4 {
        fill: #f8f18b;
      }

      .cls-5 {
        fill: #fff;
      }

      .cls-6 {
        fill: #f58027;
      }
    </style>
  </defs>
  <g id="Layer_1-2" data-name="Layer 1">
    <g>
      <g>
        <g>
          <path class="cls-2" d="M401.57,330.91v48.11h-31.14v57.98h-109.52v-57.98h-31.14v-48.11c0-20.17,12.88-37.33,30.87-43.71,4.84-1.73,10.06-2.66,15.5-2.66h79.05c5.24,0,10.28.87,14.97,2.47,18.26,6.23,31.41,23.54,31.41,43.9Z"></path>
          <g>
            <rect class="cls-5" x="260.91" y="410.16" width="109.52" height="19.33"></rect>
            <path class="cls-5" d="M370.43,379.02v19.33h-109.52v-19.33h-.27v-91.82c4.84-1.73,10.06-2.66,15.5-2.66h3.82v94.49h70.86v-94.49h4.36c5.24,0,10.28.87,14.97,2.47v92.02h.27Z"></path>
          </g>
          <path class="cls-1" d="M364.93,204c-1.44,0-2.81.33-4.05.91-.53-24.8-20.96-44.93-45.88-44.93h0c-24.92,0-45.35,20.13-45.88,44.93-1.23-.57-2.6-.91-4.05-.91-5.31,0-9.66,4.35-9.66,9.66v7.52c0,5.31,4.35,9.66,9.66,9.66,1.46,0,2.83-.34,4.07-.92.8,18.1,12.22,33.56,28.14,40.28v23.99h35.43v-23.99c15.92-6.72,27.34-22.18,28.14-40.28,1.24.58,2.62.92,4.07.92,5.31,0,9.66-4.35,9.66-9.66v-7.52c0-5.31-4.35-9.66-9.66-9.66Z"></path>
          <path class="cls-3" d="M312.58,365.06v71.94h4.29v-112.35l30.41-40.11h-14.43c-5.73,2.08-11.72,3.12-17.74,3.12s-12-1.04-17.73-3.12h-15.2l30.4,40.11v40.41Z"></path>
          <rect class="cls-1" x="229.77" y="379.02" width="31.14" height="57.98"></rect>
          <rect class="cls-1" x="370.43" y="379.02" width="31.14" height="57.98"></rect>
          <path class="cls-6" d="M373.77,196.52h-6.93c-.3-24.32-17.24-44.6-39.95-50.05v-10.7h-23.77v10.54c-23.04,5.21-40.3,25.65-40.61,50.21h-6.27c-1.99,0-3.82.82-5.14,2.13-1.31,1.32-2.13,3.13-2.13,5.14,0,4,3.26,7.26,7.26,7.26h117.54c1.99,0,3.82-.82,5.14-2.13,1.31-1.32,2.13-3.13,2.13-5.14,0-4-3.26-7.26-7.26-7.26Z"></path>
        </g>
        <g>
          <path class="cls-2" d="M171.79,330.91v48.11h-31.14v57.98H31.14v-57.98H0v-48.11c0-20.17,12.88-37.33,30.87-43.71,4.84-1.73,10.06-2.66,15.5-2.66h79.05c5.24,0,10.28.87,14.97,2.47,18.26,6.23,31.41,23.54,31.41,43.9Z"></path>
          <g>
            <rect class="cls-5" x="31.14" y="410.16" width="109.52" height="19.33"></rect>
            <path class="cls-5" d="M140.66,379.02v19.33H31.14v-19.33h-.27v-91.82c4.84-1.73,10.06-2.66,15.5-2.66h3.82v94.49h70.86v-94.49h4.36c5.24,0,10.28.87,14.97,2.47v92.02h.27Z"></path>
          </g>
          <path class="cls-1" d="M135.15,204c-1.44,0-2.81.33-4.05.91-.53-24.8-20.96-44.93-45.88-44.93h0c-24.92,0-45.35,20.13-45.88,44.93-1.23-.57-2.6-.91-4.05-.91-5.31,0-9.66,4.35-9.66,9.66v7.52c0,5.31,4.35,9.66,9.66,9.66,1.46,0,2.83-.34,4.07-.92.8,18.1,12.22,33.56,28.14,40.28v23.99h35.43v-23.99c15.92-6.72,27.34-22.18,28.14-40.28,1.24.58,2.62.92,4.07.92,5.31,0,9.66-4.35,9.66-9.66v-7.52c0-5.31-4.35-9.66-9.66-9.66Z"></path>
          <path class="cls-3" d="M82.8,365.06v71.94h4.29v-112.35l30.41-40.11h-14.43c-5.73,2.08-11.72,3.12-17.74,3.12s-12-1.04-17.73-3.12h-15.2l30.4,40.11v40.41Z"></path>
          <rect class="cls-1" y="379.02" width="31.14" height="57.98"></rect>
          <rect class="cls-1" x="140.66" y="379.02" width="31.14" height="57.98"></rect>
          <path class="cls-6" d="M144,196.52h-6.93c-.3-24.32-17.24-44.6-39.95-50.05v-10.7h-23.77v10.54c-23.04,5.21-40.3,25.65-40.61,50.21h-6.27c-1.99,0-3.82.82-5.14,2.13-1.31,1.32-2.13,3.13-2.13,5.14,0,4,3.26,7.26,7.26,7.26h117.54c1.99,0,3.82-.82,5.14-2.13,1.31-1.32,2.13-3.13,2.13-5.14,0-4-3.26-7.26-7.26-7.26Z"></path>
        </g>
      </g>
      <g>
        <circle class="cls-3" cx="200.78" cy="68.72" r="68.72"></circle>
        <path class="cls-4" d="M194.45,109.56c-2.95,0-5.74-1.35-7.58-3.67l-26.84-33.98c-3.31-4.19-2.59-10.26,1.59-13.57,4.19-3.31,10.26-2.59,13.57,1.59l18.37,23.25,28.53-45.33c2.84-4.52,8.81-5.87,13.33-3.03,4.52,2.84,5.87,8.81,3.03,13.33l-35.81,56.91c-1.67,2.66-4.53,4.34-7.66,4.5-.17,0-.35.01-.52.01Z"></path>
      </g>
    </g>
  </g>
</svg>
