<?xml version="1.0" encoding="UTF-8"?>
<svg id="Layer_2" data-name="Layer 2" xmlns="http://www.w3.org/2000/svg" viewBox="0 0 437.12 343.88">
  <defs>
    <style>
      .cls-1 {
        fill: #fff;
      }

      .cls-2 {
        fill: #f36d35;
      }
    </style>
  </defs>
  <g id="Layer_1-2" data-name="Layer 1">
    <g>
      <rect class="cls-1" x="46.21" y="11.15" width="342.26" height="319.2"/>
      <g>
        <path class="cls-1" d="M218.56,18.15c3.22,0,3.22-5,0-5s-3.22,5,0,5h0Z"/>
        <g>
          <path d="M435.81,323.04l-33-77.81c-.5-1.18-1.13-2.25-1.86-3.2,2.89-4.76,4.59-10.32,4.59-16.28V31.48c0-17.36-14.12-31.48-31.48-31.48H63.06c-17.35,0-31.48,14.12-31.48,31.48v194.27c0,5.96,1.7,11.53,4.59,16.28-.73.95-1.36,2.02-1.86,3.2L1.31,323.04c-4.06,9.56,1.79,20.85,10.8,20.85h412.9c9.01,0,14.85-11.29,10.8-20.85ZM55.33,31.48c0-4.26,3.46-7.72,7.72-7.72h311.01c4.26,0,7.73,3.47,7.73,7.72v194.27c0,4.26-3.47,7.73-7.73,7.73H63.06c-4.26,0-7.72-3.47-7.72-7.73V31.48ZM258.26,320.82c-1.39,1.62-3.26,2.51-5.21,2.48h-68.97c-1.95.04-3.82-.86-5.21-2.48-1.39-1.62-2.17-3.84-2.17-6.15s.78-4.53,2.17-6.15c1.39-1.62,3.26-2.51,5.21-2.47h0s68.97,0,68.97,0h0c1.94-.04,3.82.86,5.21,2.48,1.39,1.62,2.17,3.84,2.17,6.15s-.78,4.53-2.17,6.15Z"/>
          <g>
            <g>
              <rect class="cls-2" x="98.44" y="135.79" width="75.36" height="75.36" rx="8.35" ry="8.35"/>
              <g>
                <path class="cls-2" d="M324.28,158.65h-129.19c-2.6,0-4.71-2.11-4.71-4.71s2.11-4.71,4.71-4.71h129.19c2.6,0,4.71,2.11,4.71,4.71s-2.11,4.71-4.71,4.71Z"/>
                <path class="cls-2" d="M324.28,178.18h-129.19c-2.6,0-4.71-2.11-4.71-4.71s2.11-4.71,4.71-4.71h129.19c2.6,0,4.71,2.11,4.71,4.71s-2.11,4.71-4.71,4.71Z"/>
                <path class="cls-2" d="M324.28,197.71h-129.19c-2.6,0-4.71-2.11-4.71-4.71s2.11-4.71,4.71-4.71h129.19c2.6,0,4.71,2.11,4.71,4.71s-2.11,4.71-4.71,4.71Z"/>
              </g>
            </g>
            <g>
              <rect class="cls-2" x="98.44" y="43.95" width="75.36" height="75.36" rx="8.35" ry="8.35"/>
              <g>
                <path class="cls-2" d="M324.28,66.82h-129.19c-2.6,0-4.71-2.11-4.71-4.71s2.11-4.71,4.71-4.71h129.19c2.6,0,4.71,2.11,4.71,4.71s-2.11,4.71-4.71,4.71Z"/>
                <path class="cls-2" d="M324.28,86.34h-129.19c-2.6,0-4.71-2.11-4.71-4.71s2.11-4.71,4.71-4.71h129.19c2.6,0,4.71,2.11,4.71,4.71s-2.11,4.71-4.71,4.71Z"/>
                <path class="cls-2" d="M324.28,105.87h-129.19c-2.6,0-4.71-2.11-4.71-4.71s2.11-4.71,4.71-4.71h129.19c2.6,0,4.71,2.11,4.71,4.71s-2.11,4.71-4.71,4.71Z"/>
              </g>
            </g>
          </g>
        </g>
        <circle class="cls-1" cx="218.56" cy="11.15" r="6.54"/>
      </g>
    </g>
  </g>
</svg>