<svg xmlns="http://www.w3.org/2000/svg" xmlns:xlink="http://www.w3.org/1999/xlink" id="Layer_1" data-name="Layer 1" viewBox="0 0 1920 1080"><defs><style>.cls-1{fill:none;}.cls-2{fill:#efefef;}.cls-3{clip-path:url(#clip-path);}.cls-4{fill:#1a4966;}.cls-5{fill:#a8cd39;}</style><clipPath id="clip-path"><rect class="cls-1" x="1374.02" y="-1128.73" width="1947.96" height="1129.54" rx="12"></rect></clipPath></defs><rect class="cls-2" x="-34.13" y="-55.49" width="2091.31" height="1412.91"></rect><g class="cls-3"><image width="1279" height="724" transform="translate(1314.01 -1074.1) scale(2.08)" xlink:href="../Witpac%20Student%20Help%20Images/Screen%20Shot%202021-08-15%20at%206.13.02%20PM.png"></image></g><circle class="cls-4" cx="785.02" cy="595.39" r="180.23"></circle><path class="cls-5" d="M1293.29,304.38H816.23a21.94,21.94,0,0,0-21.92,21.92V629.74a21.94,21.94,0,0,0,21.92,21.92h477.06a22,22,0,0,0,21.92-21.92V326.3A22,22,0,0,0,1293.29,304.38Zm8.84,325.36a8.86,8.86,0,0,1-8.84,8.84h-90.61l-5.55-153.75a11.93,11.93,0,0,1-3.72.61,11.71,11.71,0,0,1-3.73-.61l-5.56,153.75H816.23a8.86,8.86,0,0,1-8.84-8.84V326.3a8.85,8.85,0,0,1,8.84-8.84h477.06a8.85,8.85,0,0,1,8.84,8.84ZM1295.47,506c-3-.29-71.27-6.6-81.21-9.8-6.45-2.07-10.54-8.19-14.14-12.72a13.27,13.27,0,0,0,1.19-.94,11.7,11.7,0,0,0,3.85-8.26l91.09,29.29C1298.36,504.21,1298.46,506.24,1295.47,506Zm-96.42-26.06a8.41,8.41,0,1,1,.59-11.88A8.37,8.37,0,0,1,1199.05,479.9Zm-14.37,1.67a11.83,11.83,0,0,0,2.51,2.08l-71,64.32c-1.65,1.49-3.47.56-1.72-1.9s41.35-58.42,49.09-65.43c5-4.55,12.38-5,18.1-5.88A11.67,11.67,0,0,0,1184.68,481.57Zm-16.94-111.73c-.46-2.17,1.25-3.27,2.51-.54s29.92,65,32.12,75.23c1.42,6.58-1.79,13.15-3.91,18.51a11.86,11.86,0,0,0-5.06-1.15,11.61,11.61,0,0,0-5.49,1.38C1182.62,438.74,1168.13,371.61,1167.74,369.84ZM841,467.13h259.09v13.08H841Zm0,36.15h259.09v13.08H841Zm0,36.15h259.09v13.09H841Zm0,36.16h259.09v13.08H841Zm.55-176.91c-.09-1-.18-2,.8-2.66h10.17c1.18.57,1,1.8,1,2.69.38,5.15.61,10.31.87,15.47.13,2.49.17,5,.29,7.47.09,1.66.26,3.31.4,5,.21-.42.42-.79.58-1.19,3.53-8.94,7-17.9,10.61-26.82a13.49,13.49,0,0,1,1.88-2.65h12.37c.29.5.78,1,.84,1.5.33,2.66.66,5.33.78,8,.26,5.67.38,11.33.58,17,0,1.21.19,2.42.29,3.63a5.34,5.34,0,0,0,.87-1.57c3.19-7.78,6.34-15.57,9.61-23.32.78-1.83,1.05-4,3-5.24h10.45c.62.54.45,1.17.18,1.78-2.25,5.13-4.53,10.25-6.77,15.39-3,6.78-5.89,13.57-8.84,20.36-.23.53-.59,1-.78,1.57a1.6,1.6,0,0,1-1.78,1.11c-4.76,0-9.52,0-14.29,0-1.1,0-1.46-.55-1.52-1.45q-.18-2.93-.28-5.85c-.19-4.9-.36-9.8-.57-14.7-.06-1.33-.25-2.66-.4-4.24-2.21,5.54-4.34,10.87-6.46,16.21-1.14,2.86-2.26,5.72-3.4,8.58a2.07,2.07,0,0,1-2.17,1.46c-4.53-.07-9.07-.06-13.6,0-1.28,0-1.65-.55-1.73-1.68q-.51-7.44-1.1-14.87c-.25-3.28-.52-6.57-.82-9.85C842.27,406.12,841.88,402.4,841.54,398.68Zm130.54,37.57c2.88-.09,5.76-.05,8.65,0a1.32,1.32,0,0,0,1.56-1.27c.62-3.56,1.32-7.11,2-10.77h1.49c6.45,0,12.91,0,19.36,0a17.74,17.74,0,0,0,3.93-.32,11.84,11.84,0,0,0,3.68-1.5c2.28-1.47,2.82-4,3.29-6.4.76-4,1.59-8,2.13-12,.43-3.14-.46-6.68-4.74-7.38-.78-.13-1.55-.36-2.33-.54H978.68a2.16,2.16,0,0,0-1.41,1.92c-.2,1.77-.64,3.51-1,5.27q-1.15,6.56-2.3,13.1c-.67,3.88-1.33,7.76-2,11.64-.4,2.24-.87,4.48-1.26,6.73C970.56,435.67,970.78,436.29,972.08,436.25Zm15.53-30.93h1.47c4.31,0,8.61,0,12.91,0,.86,0,1.71.17,2.56.26s1.46.66,1.32,1.53c-.32,2.12-.69,4.24-1.19,6.32-.29,1.22-1.56,1.4-2.53,1.42-5.4.08-10.8,0-16.26,0C986.47,411.69,987,408.58,987.61,405.32Zm122.7-2.86c-.21,2.17-.73,4.32-1,6.49a1.37,1.37,0,0,1-1.59,1.29h-8.38c-1.09,0-1.44-.62-1.26-1.62,0-.08.1-.16.11-.24.28-2.25.48-3.13-2.38-3.08-3.71.07-7.42,0-11.13,0a15.3,15.3,0,0,0-3.1.3,3,3,0,0,0-2.19,2.65c-.81,4.22-1.53,8.47-2.25,12.71-.23,1.36-.36,2.75-.56,4.12a1.5,1.5,0,0,0,1.32,1.76,10,10,0,0,0,2.56.32c3.94,0,7.87,0,11.82,0,2.12,0,2.61-.54,3-2.62.38-1.88,0-2.34,2.66-2.3,2.48,0,4.95,0,7.42,0,1.2,0,1.62.5,1.4,1.59-.44,2.14-.87,4.29-1.34,6.43-1,4.5-3.5,5.82-7.54,5.87-9,.12-18,.15-26.93,0-6.17-.1-7.32-3.77-6.66-8.29s1.57-8.9,2.38-13.35c.73-4.05,1.27-8.15,2.27-12.14,1-4.22,3.33-5.58,7.85-6.1.47-.06.94-.18,1.42-.28h25.29a20.55,20.55,0,0,0,2.33.5C1109.13,396.83,1110.59,399.53,1110.31,402.46Zm-98.75,33.76c3.89,0,7.55,0,11.2,0a2.06,2.06,0,0,0,1.34-.95c1-1.51,1.86-3.07,2.69-4.66a1.76,1.76,0,0,1,1.86-1c5.17,0,10.34,0,15.52,0H1047c.42,1.84.87,3.53,1.18,5.24a1.45,1.45,0,0,0,1.72,1.42c3.07-.06,6.14,0,9.21,0,1.46,0,1.72-.38,1.36-1.84q-4.48-18.21-8.93-36.44a2.4,2.4,0,0,0-1.41-1.92h-14.29a15.58,15.58,0,0,0-2.1,2.29c-3.68,6.06-7.3,12.15-10.94,18.24s-7.18,12-10.75,18.07A8.17,8.17,0,0,0,1011.56,436.22Zm29.85-31.45c1.24,5.28,2.44,10.35,3.66,15.54h-12.44Zm-113.11-1a52.35,52.35,0,0,0,.9-5.3,3.08,3.08,0,0,1,1.37-2.43h40.14a1.5,1.5,0,0,1,.66,1.89,58.75,58.75,0,0,0-1.18,6.19c-.15,1-.7,1.23-1.6,1.23-4.22,0-8.43,0-12.64,0-1,0-1.32.4-1.47,1.28-1.07,6.08-2.19,12.16-3.26,18.24-.59,3.31-1.13,6.62-1.69,9.94a1.53,1.53,0,0,1-1.73,1.49c-2.93-.05-5.86,0-8.79,0-1.13,0-1.33-.44-1.13-1.53,1.1-5.94,2.09-11.91,3.16-17.86.59-3.35,1.25-6.68,1.87-10a12.93,12.93,0,0,0,.08-1.5H929.55C928.5,405.31,928,405,928.3,403.75Zm-22.44,31c1.17-6.43,2.38-12.85,3.53-19.28,1.05-5.9,2-11.82,3.1-17.72.11-.62.86-1.13,1.32-1.7h9.62a1.76,1.76,0,0,1,.61,1.91c-1.29,7-2.44,13.94-3.65,20.91-.9,5.2-1.83,10.39-2.75,15.59-.22,1.18-.7,1.9-2.16,1.83-2.74-.13-5.49-.1-8.24,0C906,436.29,905.66,435.77,905.86,434.72Z"></path></svg>