<svg xmlns="http://www.w3.org/2000/svg" id="Layer_2" data-name="Layer 2" viewBox="0 0 385.96 317.19"><defs><style>      .cls-1 {        fill: #252a2e;      }      .cls-1, .cls-2, .cls-3, .cls-4 {        stroke-width: 0px;      }      .cls-2 {        fill: #bdd356;      }      .cls-3 {        fill: #3c9e69;      }      .cls-4 {        fill: #fff;      }    </style></defs><g id="Layer_1-2" data-name="Layer 1"><g><path class="cls-2" d="M66.43,54.51c.48,0,.94-.02,1.41-.04.42-.02.84-.05,1.26-.09.44-.04.86-.11,1.28-.16.29-.04.59-.09.88-.15.13-.02.24-.04.37-.06.29-.07.59-.13.88-.2.66-.15,1.3-.31,1.94-.51,1.38-.42,2.71-.95,3.98-1.6.33-.15.66-.31.97-.5.31-.17.64-.35.95-.55.38-.22.77-.46,1.14-.72.18-.13.38-.24.57-.39.04-.02.07-.05.11-.07.18-.13.37-.26.55-.4.48-.35.93-.71,1.38-1.12.11-.07.2-.15.29-.24.11-.11.24-.2.35-.31.22-.2.44-.4.64-.61.11-.09.2-.2.29-.29.31-.29.62-.61.92-.95.06-.05.11-.11.13-.16.22-.22.4-.44.59-.66.33-.38.64-.79.95-1.19.26-.35.51-.7.75-1.06.02-.02.04-.05.06-.07v-.02c.05-.07.09-.13.13-.2.33-.48.62-.95.9-1.45.29-.51.57-1.03.82-1.56.15-.28.26-.55.39-.84.13-.27.24-.57.35-.84.02-.02.04-.04.04-.06.07-.13.13-.28.17-.42.22-.55.4-1.1.59-1.67.15-.42.28-.86.37-1.3.09-.35.18-.72.26-1.08.13-.55.22-1.08.29-1.63.07-.46.13-.94.17-1.39.06-.42.09-.86.11-1.3.02-.46.04-.92.04-1.39s-.02-.94-.04-1.39-.06-.94-.11-1.39c-.02-.24-.06-.49-.09-.73-.06-.5-.13-1.01-.22-1.49-.11-.61-.26-1.21-.4-1.8-.11-.4-.22-.81-.35-1.21,0-.06-.02-.09-.04-.15-.26-.83-.55-1.65-.9-2.44-.02-.02-.02-.05-.04-.07-.27-.64-.57-1.27-.88-1.87-.15-.29-.29-.57-.46-.84-.04-.07-.07-.15-.11-.22-.04-.06-.07-.13-.11-.18-.11-.18-.22-.35-.33-.53-.31-.51-.66-1.03-1.01-1.52-.07-.09-.13-.18-.2-.27-.07-.11-.16-.22-.24-.33l-.61-.77c-.11-.15-.24-.27-.35-.4-.44-.53-.9-1.03-1.38-1.5-.04-.04-.07-.07-.11-.11-.02-.04-.07-.07-.11-.11l-.22-.22c-.2-.22-.42-.4-.64-.61s-.44-.4-.68-.59c-.29-.27-.61-.51-.94-.77-.24-.18-.48-.37-.71-.53-.38-.27-.77-.55-1.17-.81-.02-.02-.04-.02-.06-.04-.04-.02-.07-.06-.11-.07-.02-.02-.06-.04-.07-.04-.24-.17-.48-.31-.71-.44-.24-.15-.48-.28-.73-.42-.04-.04-.09-.05-.15-.09-.48-.26-.97-.5-1.47-.73l-.02-.02c-.29-.13-.59-.26-.9-.39-.18-.09-.38-.17-.59-.24-.11-.05-.22-.09-.31-.13-.02-.02-.06-.02-.07-.04-.51-.18-1.01-.35-1.52-.51-.04-.02-.07-.02-.11-.04-.22-.07-.44-.13-.68-.18-.4-.13-.82-.24-1.25-.31-.07-.04-.17-.06-.26-.07-.02,0-.05-.02-.07-.02-.09-.02-.16-.04-.26-.05-.5-.09-1.01-.18-1.52-.26-.53-.09-1.08-.15-1.63-.18-.18-.04-.38-.04-.59-.06-.57-.04-1.15-.05-1.74-.05-15.05,0-27.25,12.19-27.25,27.25s12.19,27.26,27.25,27.26Z"></path><g><rect class="cls-1" x="133.67" y="8.97" width="246.3" height="159.65" rx="2.44" ry="2.44"></rect><path class="cls-3" d="M373.96,14.97v147.65h-234.3V14.97h234.3M377.52,2.97h-241.42c-4.66,0-8.44,3.78-8.44,8.44v154.77c0,4.66,3.78,8.44,8.44,8.44h241.42c4.66,0,8.44-3.78,8.44-8.44V11.41c0-4.66-3.78-8.44-8.44-8.44h0Z"></path></g><g><g><path class="cls-3" d="M150.02,239.63c.48,0,.94-.02,1.41-.04.42-.02.84-.05,1.26-.09.44-.04.86-.11,1.28-.16.29-.04.59-.09.88-.15.13-.02.24-.04.37-.06.29-.07.59-.13.88-.2.66-.15,1.3-.31,1.94-.51,1.38-.42,2.71-.95,3.98-1.6.33-.15.66-.31.97-.5.31-.17.64-.35.95-.55.38-.22.77-.46,1.14-.72.18-.13.38-.24.57-.39.04-.02.07-.05.11-.07.18-.13.37-.26.55-.4.48-.35.93-.71,1.38-1.12.11-.07.2-.15.29-.24.11-.11.24-.2.35-.31.22-.2.44-.4.64-.61.11-.09.2-.2.29-.29.31-.29.62-.61.92-.95.06-.05.11-.11.13-.16.22-.22.4-.44.59-.66.33-.38.64-.79.95-1.19.26-.35.51-.7.75-1.06.02-.02.04-.05.06-.07v-.02c.05-.07.09-.13.13-.2.33-.48.62-.95.9-1.45.29-.51.57-1.03.82-1.56.15-.28.26-.55.39-.84.13-.27.24-.57.35-.84.02-.02.04-.04.04-.06.07-.13.13-.28.17-.42.22-.55.4-1.1.59-1.67.15-.42.28-.86.37-1.3.09-.35.18-.72.26-1.08.13-.55.22-1.08.29-1.63.07-.46.13-.94.17-1.39.06-.42.09-.86.11-1.3.02-.46.04-.92.04-1.39s-.02-.94-.04-1.39-.06-.94-.11-1.39c-.02-.24-.06-.49-.09-.73-.06-.5-.13-1.01-.22-1.49-.11-.61-.26-1.21-.4-1.8-.11-.4-.22-.81-.35-1.21,0-.06-.02-.09-.04-.15-.26-.83-.55-1.65-.9-2.44-.02-.02-.02-.05-.04-.07-.27-.64-.57-1.27-.88-1.87-.15-.29-.29-.57-.46-.84-.04-.07-.07-.15-.11-.22-.04-.06-.07-.13-.11-.18-.11-.18-.22-.35-.33-.53-.31-.51-.66-1.03-1.01-1.52-.07-.09-.13-.18-.2-.27-.07-.11-.16-.22-.24-.33l-.61-.77c-.11-.15-.24-.27-.35-.4-.44-.53-.9-1.03-1.38-1.5-.04-.04-.07-.07-.11-.11-.02-.04-.07-.07-.11-.11l-.22-.22c-.2-.22-.42-.4-.64-.61s-.44-.4-.68-.59c-.29-.27-.61-.51-.94-.77-.24-.18-.48-.37-.71-.53-.38-.27-.77-.55-1.17-.81-.02-.02-.04-.02-.06-.04-.04-.02-.07-.06-.11-.07-.02-.02-.06-.04-.07-.04-.24-.17-.48-.31-.71-.44-.24-.15-.48-.28-.73-.42-.04-.04-.09-.05-.15-.09-.48-.26-.97-.5-1.47-.73l-.02-.02c-.29-.13-.59-.26-.9-.39-.18-.09-.38-.17-.59-.24-.11-.05-.22-.09-.31-.13-.02-.02-.06-.02-.07-.04-.51-.18-1.01-.35-1.52-.51-.04-.02-.07-.02-.11-.04-.22-.07-.44-.13-.68-.18-.4-.13-.82-.24-1.25-.31-.07-.04-.17-.06-.26-.07-.02,0-.05-.02-.07-.02-.09-.02-.16-.04-.26-.05-.5-.09-1.01-.18-1.52-.26-.53-.09-1.08-.15-1.63-.18-.18-.04-.38-.04-.59-.06-.57-.04-1.15-.05-1.74-.05-15.05,0-27.25,12.19-27.25,27.25s12.19,27.26,27.25,27.26Z"></path><path class="cls-3" d="M126,247.52h48.05c9,0,16.31,7.31,16.31,16.31v53.36h-80.67v-53.36c0-9,7.31-16.31,16.31-16.31Z"></path></g><g><path class="cls-3" d="M57.52,239.63c.48,0,.94-.02,1.41-.04.42-.02.84-.05,1.26-.09.44-.04.86-.11,1.28-.16.29-.04.59-.09.88-.15.13-.02.24-.04.37-.06.29-.07.59-.13.88-.2.66-.15,1.3-.31,1.94-.51,1.38-.42,2.71-.95,3.98-1.6.33-.15.66-.31.97-.5.31-.17.64-.35.95-.55.38-.22.77-.46,1.14-.72.18-.13.38-.24.57-.39.04-.02.07-.05.11-.07.18-.13.37-.26.55-.4.48-.35.93-.71,1.38-1.12.11-.07.2-.15.29-.24.11-.11.24-.2.35-.31.22-.2.44-.4.64-.61.11-.09.2-.2.29-.29.31-.29.62-.61.92-.95.06-.05.11-.11.13-.16.22-.22.4-.44.59-.66.33-.38.64-.79.95-1.19.26-.35.51-.7.75-1.06.02-.02.04-.05.06-.07v-.02c.05-.07.09-.13.13-.2.33-.48.62-.95.9-1.45.29-.51.57-1.03.82-1.56.15-.28.26-.55.39-.84.13-.27.24-.57.35-.84.02-.02.04-.04.04-.06.07-.13.13-.28.17-.42.22-.55.4-1.1.59-1.67.15-.42.28-.86.37-1.3.09-.35.18-.72.26-1.08.13-.55.22-1.08.29-1.63.07-.46.13-.94.17-1.39.06-.42.09-.86.11-1.3.02-.46.04-.92.04-1.39s-.02-.94-.04-1.39-.06-.94-.11-1.39c-.02-.24-.06-.49-.09-.73-.06-.5-.13-1.01-.22-1.49-.11-.61-.26-1.21-.4-1.8-.11-.4-.22-.81-.35-1.21,0-.06-.02-.09-.04-.15-.26-.83-.55-1.65-.9-2.44-.02-.02-.02-.05-.04-.07-.27-.64-.57-1.27-.88-1.87-.15-.29-.29-.57-.46-.84-.04-.07-.07-.15-.11-.22-.04-.06-.07-.13-.11-.18-.11-.18-.22-.35-.33-.53-.31-.51-.66-1.03-1.01-1.52-.07-.09-.13-.18-.2-.27-.07-.11-.16-.22-.24-.33l-.61-.77c-.11-.15-.24-.27-.35-.4-.44-.53-.9-1.03-1.38-1.5-.04-.04-.07-.07-.11-.11-.02-.04-.07-.07-.11-.11l-.22-.22c-.2-.22-.42-.4-.64-.61s-.44-.4-.68-.59c-.29-.27-.61-.51-.94-.77-.24-.18-.48-.37-.71-.53-.38-.27-.77-.55-1.17-.81-.02-.02-.04-.02-.06-.04-.04-.02-.07-.06-.11-.07-.02-.02-.06-.04-.07-.04-.24-.17-.48-.31-.71-.44-.24-.15-.48-.28-.73-.42-.04-.04-.09-.05-.15-.09-.48-.26-.97-.5-1.47-.73l-.02-.02c-.29-.13-.59-.26-.9-.39-.18-.09-.38-.17-.59-.24-.11-.05-.22-.09-.31-.13-.02-.02-.06-.02-.07-.04-.51-.18-1.01-.35-1.52-.51-.04-.02-.07-.02-.11-.04-.22-.07-.44-.13-.68-.18-.4-.13-.82-.24-1.25-.31-.07-.04-.17-.06-.26-.07-.02,0-.05-.02-.07-.02-.09-.02-.16-.04-.26-.05-.5-.09-1.01-.18-1.52-.26-.53-.09-1.08-.15-1.63-.18-.18-.04-.38-.04-.59-.06-.57-.04-1.15-.05-1.74-.05-15.05,0-27.25,12.19-27.25,27.25s12.19,27.26,27.25,27.26Z"></path><path class="cls-3" d="M33.5,247.52h48.05c9,0,16.31,7.31,16.31,16.31v53.36H17.18v-53.36c0-9,7.31-16.31,16.31-16.31Z"></path></g><g><path class="cls-3" d="M242.53,239.63c.48,0,.94-.02,1.41-.04.42-.02.84-.05,1.26-.09.44-.04.86-.11,1.28-.16.29-.04.59-.09.88-.15.13-.02.24-.04.37-.06.29-.07.59-.13.88-.2.66-.15,1.3-.31,1.94-.51,1.38-.42,2.71-.95,3.98-1.6.33-.15.66-.31.97-.5.31-.17.64-.35.95-.55.38-.22.77-.46,1.14-.72.18-.13.38-.24.57-.39.04-.02.07-.05.11-.07.18-.13.37-.26.55-.4.48-.35.93-.71,1.38-1.12.11-.07.2-.15.29-.24.11-.11.24-.2.35-.31.22-.2.44-.4.64-.61.11-.09.2-.2.29-.29.31-.29.62-.61.92-.95.06-.05.11-.11.13-.16.22-.22.4-.44.59-.66.33-.38.64-.79.95-1.19.26-.35.51-.7.75-1.06.02-.02.04-.05.06-.07v-.02c.05-.07.09-.13.13-.2.33-.48.62-.95.9-1.45.29-.51.57-1.03.82-1.56.15-.28.26-.55.39-.84.13-.27.24-.57.35-.84.02-.02.04-.04.04-.06.07-.13.13-.28.17-.42.22-.55.4-1.1.59-1.67.15-.42.28-.86.37-1.3.09-.35.18-.72.26-1.08.13-.55.22-1.08.29-1.63.07-.46.13-.94.17-1.39.06-.42.09-.86.11-1.3.02-.46.04-.92.04-1.39s-.02-.94-.04-1.39-.06-.94-.11-1.39c-.02-.24-.06-.49-.09-.73-.06-.5-.13-1.01-.22-1.49-.11-.61-.26-1.21-.4-1.8-.11-.4-.22-.81-.35-1.21,0-.06-.02-.09-.04-.15-.26-.83-.55-1.65-.9-2.44-.02-.02-.02-.05-.04-.07-.27-.64-.57-1.27-.88-1.87-.15-.29-.29-.57-.46-.84-.04-.07-.07-.15-.11-.22-.04-.06-.07-.13-.11-.18-.11-.18-.22-.35-.33-.53-.31-.51-.66-1.03-1.01-1.52-.07-.09-.13-.18-.2-.27-.07-.11-.16-.22-.24-.33l-.61-.77c-.11-.15-.24-.27-.35-.4-.44-.53-.9-1.03-1.38-1.5-.04-.04-.07-.07-.11-.11-.02-.04-.07-.07-.11-.11l-.22-.22c-.2-.22-.42-.4-.64-.61s-.44-.4-.68-.59c-.29-.27-.61-.51-.94-.77-.24-.18-.48-.37-.71-.53-.38-.27-.77-.55-1.17-.81-.02-.02-.04-.02-.06-.04-.04-.02-.07-.06-.11-.07-.02-.02-.06-.04-.07-.04-.24-.17-.48-.31-.71-.44-.24-.15-.48-.28-.73-.42-.04-.04-.09-.05-.15-.09-.48-.26-.97-.5-1.47-.73l-.02-.02c-.29-.13-.59-.26-.9-.39-.18-.09-.38-.17-.59-.24-.11-.05-.22-.09-.31-.13-.02-.02-.06-.02-.07-.04-.51-.18-1.01-.35-1.52-.51-.04-.02-.07-.02-.11-.04-.22-.07-.44-.13-.68-.18-.4-.13-.82-.24-1.25-.31-.07-.04-.17-.06-.26-.07-.02,0-.05-.02-.07-.02-.09-.02-.16-.04-.26-.05-.5-.09-1.01-.18-1.52-.26-.53-.09-1.08-.15-1.63-.18-.18-.04-.38-.04-.59-.06-.57-.04-1.15-.05-1.74-.05-15.05,0-27.25,12.19-27.25,27.25s12.19,27.26,27.25,27.26Z"></path><path class="cls-3" d="M218.5,247.52h48.05c9,0,16.31,7.31,16.31,16.31v53.36h-80.67v-53.36c0-9,7.31-16.31,16.31-16.31Z"></path></g><g><path class="cls-3" d="M335.03,239.63c.48,0,.94-.02,1.41-.04.42-.02.84-.05,1.26-.09.44-.04.86-.11,1.28-.16.29-.04.59-.09.88-.15.13-.02.24-.04.37-.06.29-.07.59-.13.88-.2.66-.15,1.3-.31,1.94-.51,1.38-.42,2.71-.95,3.98-1.6.33-.15.66-.31.97-.5.31-.17.64-.35.95-.55.38-.22.77-.46,1.14-.72.18-.13.38-.24.57-.39.04-.02.07-.05.11-.07.18-.13.37-.26.55-.4.48-.35.93-.71,1.38-1.12.11-.07.2-.15.29-.24.11-.11.24-.2.35-.31.22-.2.44-.4.64-.61.11-.09.2-.2.29-.29.31-.29.62-.61.92-.95.06-.05.11-.11.13-.16.22-.22.4-.44.59-.66.33-.38.64-.79.95-1.19.26-.35.51-.7.75-1.06.02-.02.04-.05.06-.07v-.02c.05-.07.09-.13.13-.2.33-.48.62-.95.9-1.45.29-.51.57-1.03.82-1.56.15-.28.26-.55.39-.84.13-.27.24-.57.35-.84.02-.02.04-.04.04-.06.07-.13.13-.28.17-.42.22-.55.4-1.1.59-1.67.15-.42.28-.86.37-1.3.09-.35.18-.72.26-1.08.13-.55.22-1.08.29-1.63.07-.46.13-.94.17-1.39.06-.42.09-.86.11-1.3.02-.46.04-.92.04-1.39s-.02-.94-.04-1.39-.06-.94-.11-1.39c-.02-.24-.06-.49-.09-.73-.06-.5-.13-1.01-.22-1.49-.11-.61-.26-1.21-.4-1.8-.11-.4-.22-.81-.35-1.21,0-.06-.02-.09-.04-.15-.26-.83-.55-1.65-.9-2.44-.02-.02-.02-.05-.04-.07-.27-.64-.57-1.27-.88-1.87-.15-.29-.29-.57-.46-.84-.04-.07-.07-.15-.11-.22-.04-.06-.07-.13-.11-.18-.11-.18-.22-.35-.33-.53-.31-.51-.66-1.03-1.01-1.52-.07-.09-.13-.18-.2-.27-.07-.11-.16-.22-.24-.33l-.61-.77c-.11-.15-.24-.27-.35-.4-.44-.53-.9-1.03-1.38-1.5-.04-.04-.07-.07-.11-.11-.02-.04-.07-.07-.11-.11l-.22-.22c-.2-.22-.42-.4-.64-.61s-.44-.4-.68-.59c-.29-.27-.61-.51-.94-.77-.24-.18-.48-.37-.71-.53-.38-.27-.77-.55-1.17-.81-.02-.02-.04-.02-.06-.04-.04-.02-.07-.06-.11-.07-.02-.02-.06-.04-.07-.04-.24-.17-.48-.31-.71-.44-.24-.15-.48-.28-.73-.42-.04-.04-.09-.05-.15-.09-.48-.26-.97-.5-1.47-.73l-.02-.02c-.29-.13-.59-.26-.9-.39-.18-.09-.38-.17-.59-.24-.11-.05-.22-.09-.31-.13-.02-.02-.06-.02-.07-.04-.51-.18-1.01-.35-1.52-.51-.04-.02-.07-.02-.11-.04-.22-.07-.44-.13-.68-.18-.4-.13-.82-.24-1.25-.31-.07-.04-.17-.06-.26-.07-.02,0-.05-.02-.07-.02-.09-.02-.16-.04-.26-.05-.5-.09-1.01-.18-1.52-.26-.53-.09-1.08-.15-1.63-.18-.18-.04-.38-.04-.59-.06-.57-.04-1.15-.05-1.74-.05-15.05,0-27.25,12.19-27.25,27.25s12.19,27.26,27.25,27.26Z"></path><path class="cls-3" d="M311.01,247.52h48.05c9,0,16.31,7.31,16.31,16.31v53.36h-80.67v-53.36c0-9,7.31-16.31,16.31-16.31Z"></path></g></g><path class="cls-2" d="M111.02,130.3c.42,0,.84-.04,1.28-.15l19.95-4.8,27.94-6.71c6.55-1.58,10.56-8.14,9-14.69-.09-.35-.18-.7-.29-1.03-.22-.66-.51-1.3-.83-1.91-.82-1.52-1.92-2.81-3.25-3.83-.53-.4-1.08-.77-1.67-1.08-1.76-.95-3.74-1.49-5.81-1.49-.94,0-1.89.11-2.84.33l-33.24,7.99-18.48-37.33c-1.65-3.32-5.02-5.41-8.73-5.41h-56.49c-4.36,0-8.42,2.82-9.75,7.22L.53,156.43c-1.96,6.42,1.65,13.24,8.09,15.22,1.19.35,2.38.53,3.58.53,2.93,0,5.74-1.06,7.92-2.93.24-.22.48-.44.7-.66.24-.24.46-.46.66-.7.42-.5.81-1.03,1.14-1.58.51-.84.92-1.76,1.23-2.75l12.56-41.01v49.8h63.42v-57.83l6.31,12.76c.94,1.89,2.86,3.03,4.9,3.03Z"></path><g><path class="cls-4" d="M331.84,41.5h-157.91c-1.14,0-2.07-.92-2.07-2.07s.92-2.07,2.07-2.07h157.91c1.14,0,2.07.92,2.07,2.07s-.92,2.07-2.07,2.07Z"></path><path class="cls-4" d="M308.88,60.27h-135.25c-.98,0-1.77-.92-1.77-2.07s.79-2.07,1.77-2.07h135.25c.98,0,1.77.92,1.77,2.07s-.79,2.07-1.77,2.07Z"></path><path class="cls-4" d="M290.9,79.03h-117.26c-.98,0-1.77-.92-1.77-2.07s.79-2.07,1.77-2.07h117.26c.98,0,1.77.92,1.77,2.07s-.79,2.07-1.77,2.07Z"></path></g><rect class="cls-3" x="285.55" y="151.9" width="53.95" height="18.75" rx="8.55" ry="8.55"></rect></g></g></svg>