<?xml version="1.0" encoding="UTF-8"?>
<svg id="Layer_2" data-name="Layer 2" xmlns="http://www.w3.org/2000/svg" viewBox="0 0 562.29 356.85">
  <defs>
    <style>
      .cls-1, .cls-2, .cls-3, .cls-4 {
        stroke-width: 0px;
      }

      .cls-1, .cls-5 {
        fill: #252a2e;
      }

      .cls-6 {
        letter-spacing: -.08em;
      }

      .cls-2 {
        fill: #3c9e69;
      }

      .cls-3 {
        fill: #f8f18b;
      }

      .cls-5 {
        font-family: OpenSansRoman-CondensedBold, 'OpenSansRoman CondensedBold';
        font-size: 14.85px;
        font-variation-settings: ';
        font-weight: 700;
      }

      .cls-4 {
        fill: #fff;
      }

      .cls-7 {
        letter-spacing: -.01em;
      }
    </style>
  </defs>
  <g id="Layer_1-2" data-name="Layer 1">
    <g>
      <rect class="cls-2" width="562.29" height="356.85" rx="12.73" ry="12.73"/>
      <g>
        <path class="cls-1" d="M458.78,116.51h-153.7c-1.11,0-2.01-.9-2.01-2.01s.9-2.01,2.01-2.01h153.7c1.11,0,2.01.9,2.01,2.01s-.9,2.01-2.01,2.01Z"/>
        <path class="cls-1" d="M458.78,134.78h-153.7c-1.11,0-2.01-.9-2.01-2.01s.9-2.01,2.01-2.01h153.7c1.11,0,2.01.9,2.01,2.01s-.9,2.01-2.01,2.01Z"/>
        <path class="cls-1" d="M458.78,153.04h-153.7c-1.11,0-2.01-.9-2.01-2.01s.9-2.01,2.01-2.01h153.7c1.11,0,2.01.9,2.01,2.01s-.9,2.01-2.01,2.01Z"/>
        <path class="cls-1" d="M458.78,171.3h-153.7c-1.11,0-2.01-.9-2.01-2.01s.9-2.01,2.01-2.01h153.7c1.11,0,2.01.9,2.01,2.01s-.9,2.01-2.01,2.01Z"/>
        <path class="cls-1" d="M458.78,189.57h-153.7c-1.11,0-2.01-.9-2.01-2.01s.9-2.01,2.01-2.01h153.7c1.11,0,2.01.9,2.01,2.01s-.9,2.01-2.01,2.01Z"/>
        <path class="cls-1" d="M458.78,207.83h-153.7c-1.11,0-2.01-.9-2.01-2.01s.9-2.01,2.01-2.01h153.7c1.11,0,2.01.9,2.01,2.01s-.9,2.01-2.01,2.01Z"/>
        <path class="cls-1" d="M458.78,226.09h-153.7c-1.11,0-2.01-.9-2.01-2.01s.9-2.01,2.01-2.01h153.7c1.11,0,2.01.9,2.01,2.01s-.9,2.01-2.01,2.01Z"/>
        <path class="cls-1" d="M458.78,244.36h-153.7c-1.11,0-2.01-.9-2.01-2.01s.9-2.01,2.01-2.01h153.7c1.11,0,2.01.9,2.01,2.01s-.9,2.01-2.01,2.01Z"/>
      </g>
      <path class="cls-1" d="M371.89,194.3c6.28-5.75,12.95-11.05,20.01-15.81,3.51-2.36,7.11-4.59,10.79-6.67,1.81-1.02,3.64-2.01,5.48-2.96.98-.51,1.97-1,2.97-1.49.36-.18.72-.37,1.09-.52.17-.07.34-.13.52-.19.62-.14.31-.23-.93-.27l-.85-.85.06.11-.32-1.19c-.02-.33.13-.25-.07-.15-.22.11-.47.68-.62.89-.37.53-.75,1.07-1.13,1.6-.76,1.07-1.54,2.13-2.31,3.18-1.51,2.07-3.02,4.13-4.47,6.24s-2.75,4.08-3.99,6.18c-.97,1.64-2.06,3.81-.91,5.63,1.42,2.27,4.54,2.02,6.82,1.68,2.89-.43,5.71-1.33,8.46-2.29s5.21-1.94,7.77-3.02c.84-.35,1.67-.79,2.54-1.06.15-.05.39-.07.51-.14-.19.1-.28-.13,0,0-.6-.3-.97-.41-1.32-1.12.19.39.03-.38-.01-.09-.02.12.01.25-.02.37-.09.39.13-.6-.03.11-.04.2-.09.4-.13.59-.37,1.53-.85,3-.4,4.58.41,1.47,1.6,2.52,3.02,3,2.49.83,5.44.08,7.86-.62,1.33-.39,2.64-.85,3.93-1.34.44-.17.87-.34,1.31-.51.16-.06.43-.12.58-.22.31-.05.4-.08.27-.09-.38-.02-.71-.18-1.02-.48-.05.25.74,1.15.85,1.27,1.88,2.27,5.22,2,7.87,1.86,3.1-.16,6.19-.6,9.25-1.12,1.26-.21,1.96-1.76,1.65-2.9-.37-1.33-1.64-1.86-2.9-1.65-3.53.6-7.13,1.1-10.72,1.02-.39,0-1.14.02-1.46-.14-.24-.12-.35-.6-.6-.99-.99-1.53-2.79-1.83-4.44-1.32-3.06.94-5.9,2.39-9.12,2.81.55-.07-.13,0-.2,0-.2,0-.4.03-.6.03-.23,0-1.28-.15-.63,0-.16-.04-.31-.08-.47-.11-.43-.1.14.02.14.08l-.13-.07c-.21-.13-.17-.09.13.13-.07-.06-.14-.12-.2-.19.22.3.26.35.13.14l-.07-.13c.14.34.17.39.09.14l-.03-.16c.04.35.06.39.04.11-.02.02.11-.79,0-.18.04-.22.11-.43.16-.64.28-1.07.61-2.16.63-3.28.05-2.77-2.4-4.02-4.88-3.37-.9.24-1.74.66-2.59,1.03-.25.11-.5.22-.75.32-.12.05-.24.1-.36.16-.16.07-.1.04.17-.07-.11.05-.22.09-.33.14-3.56,1.47-7.18,2.86-10.89,3.91-.85.24-1.71.46-2.57.65-.43.09-.86.17-1.3.25-.09.02-.77.1-.18.03-.22.03-.44.05-.66.06-.32.02-.63.03-.95.03-.15,0-.31-.03-.46-.03.66,0,.27.08.08,0-.72-.3.27.23-.2-.06.54.33.36.31.24.18-.16-.17-.1-.09.18.25-.22-.41-.17-.07.15,1,.25-.3.42-1.09.63-1.46.39-.69.82-1.36,1.25-2.02.93-1.44,1.84-2.89,2.81-4.31,1.98-2.9,4.08-5.71,6.14-8.55.91-1.26,2.03-2.54,2.76-3.91.85-1.6.49-3.77-1.44-4.33-1.36-.39-2.83.37-4.03.93-1.5.7-2.98,1.46-4.45,2.23-13.26,6.9-25.49,15.72-36.51,25.8-2.25,2.06,1.1,5.39,3.34,3.34h0Z"/>
      <polygon class="cls-1" points="219.32 217.81 269.44 178.42 219.32 139.04 219.32 165.26 189.15 165.26 189.15 192.9 219.32 192.9 219.32 217.81"/>
      <text class="cls-5" transform="translate(303.06 182.77)"><tspan class="cls-6" x="0" y="0">A</tspan><tspan x="7.94" y="0">TP LICENSING </tspan><tspan class="cls-7" x="96" y="0">A</tspan><tspan x="104.87" y="0">GREEMENT</tspan></text>
      <g>
        <rect class="cls-4" x="289.18" y="44.63" width="201.55" height="267.59"/>
        <path class="cls-1" d="M385.89,276.59c6.28-5.75,12.95-11.05,20.01-15.81,3.51-2.36,7.11-4.59,10.79-6.67,1.81-1.02,3.64-2.01,5.48-2.96.98-.51,1.97-1,2.97-1.49.36-.18.72-.37,1.09-.52.17-.07.34-.13.52-.19.62-.14.31-.23-.93-.27l-.85-.85.06.11-.32-1.19c-.02-.33.13-.25-.07-.15-.22.11-.47.68-.62.89-.37.53-.75,1.07-1.13,1.6-.76,1.07-1.54,2.13-2.31,3.18-1.51,2.07-3.02,4.13-4.47,6.24s-2.75,4.08-3.99,6.18c-.97,1.64-2.06,3.81-.91,5.63,1.42,2.27,4.54,2.02,6.82,1.68,2.89-.43,5.71-1.33,8.46-2.29s5.21-1.94,7.77-3.02c.84-.35,1.67-.79,2.54-1.06.15-.05.39-.07.51-.14-.19.1-.28-.13,0,0-.6-.3-.97-.41-1.32-1.12.19.39.03-.38-.01-.09-.02.12.01.25-.02.37-.09.39.13-.6-.03.11-.04.2-.09.4-.13.59-.37,1.53-.85,3-.4,4.58.41,1.47,1.6,2.52,3.02,3,2.49.83,5.44.08,7.86-.62,1.33-.39,2.64-.85,3.93-1.34.44-.17.87-.34,1.31-.51.16-.06.43-.12.58-.22.31-.05.4-.08.27-.09-.38-.02-.71-.18-1.02-.48-.05.25.74,1.15.85,1.27,1.88,2.27,5.22,2,7.87,1.86,3.1-.16,6.19-.6,9.25-1.12,1.26-.21,1.96-1.76,1.65-2.9-.37-1.33-1.64-1.86-2.9-1.65-3.53.6-7.13,1.1-10.72,1.02-.39,0-1.14.02-1.46-.14-.24-.12-.35-.6-.6-.99-.99-1.53-2.79-1.83-4.44-1.32-3.06.94-5.9,2.39-9.12,2.81.55-.07-.13,0-.2,0-.2,0-.4.03-.6.03-.23,0-1.28-.15-.63,0-.16-.04-.31-.08-.47-.11-.43-.1.14.02.14.08l-.13-.07c-.21-.13-.17-.09.13.13-.07-.06-.14-.12-.2-.19.22.3.26.35.13.14l-.07-.13c.14.34.17.39.09.14l-.03-.16c.04.35.06.39.04.11-.02.02.11-.79,0-.18.04-.22.11-.43.16-.64.28-1.07.61-2.16.63-3.28.05-2.77-2.4-4.02-4.88-3.37-.9.24-1.74.66-2.59,1.03-.25.11-.5.22-.75.32-.12.05-.24.1-.36.16-.16.07-.1.04.17-.07-.11.05-.22.09-.33.14-3.56,1.47-7.18,2.86-10.89,3.91-.85.24-1.71.46-2.57.65-.43.09-.86.17-1.3.25-.09.02-.77.1-.18.03-.22.03-.44.05-.66.06-.32.02-.63.03-.95.03-.15,0-.31-.03-.46-.03.66,0,.27.08.08,0-.72-.3.27.23-.2-.06.54.33.36.31.24.18-.16-.17-.1-.09.18.25-.22-.41-.17-.07.15,1,.25-.3.42-1.09.63-1.46.39-.69.82-1.36,1.25-2.02.93-1.44,1.84-2.89,2.81-4.31,1.98-2.9,4.08-5.71,6.14-8.55.91-1.26,2.03-2.54,2.76-3.91.85-1.6.49-3.77-1.44-4.33-1.36-.39-2.83.37-4.03.93-1.5.7-2.98,1.46-4.45,2.23-13.26,6.9-25.49,15.72-36.51,25.8-2.25,2.06,1.1,5.39,3.34,3.34h0Z"/>
        <g>
          <path class="cls-1" d="M489.29,252.4l61.65-114.36c1.01-1.86,1.16-3.96.6-5.85-.57-1.9-1.87-3.58-3.76-4.58-3.76-2-8.44-.41-10.46,3.34l-61.54,114.16,13.52,7.29Z"/>
          <path class="cls-1" d="M474.31,247.83l-.24.45c-.44.81-.71,1.71-.79,2.63l-1.4,15.91c-.07.77.82,1.25,1.42.77l12.52-9.91c.73-.57,1.33-1.29,1.76-2.1l.24-.45-13.52-7.29Z"/>
        </g>
        <g>
          <g>
            <path class="cls-1" d="M467.75,102.61h-79.9c-1.03,0-2-.7-2.14-1.72-.17-1.24.78-2.3,1.99-2.3h79.94c1,0,1.93.68,2.09,1.67.21,1.26-.76,2.35-1.98,2.35Z"/>
            <path class="cls-1" d="M467.75,120.87h-79.9c-1.03,0-2-.7-2.14-1.72-.17-1.24.78-2.3,1.99-2.3h79.94c1,0,1.93.68,2.09,1.67.21,1.26-.76,2.35-1.98,2.35Z"/>
            <path class="cls-1" d="M467.75,139.13h-79.9c-1.03,0-2-.7-2.14-1.72-.17-1.24.78-2.3,1.99-2.3h79.94c1,0,1.93.68,2.09,1.67.21,1.26-.76,2.35-1.98,2.35Z"/>
            <path class="cls-1" d="M467.75,157.39h-79.9c-1.03,0-2-.7-2.14-1.72-.17-1.24.78-2.3,1.99-2.3h79.94c1,0,1.93.68,2.09,1.67.21,1.26-.76,2.35-1.98,2.35Z"/>
            <path class="cls-1" d="M467.75,175.66h-153.7c-1.11,0-2.01-.9-2.01-2.01s.9-2.01,2.01-2.01h153.7c1.11,0,2.01.9,2.01,2.01s-.9,2.01-2.01,2.01Z"/>
            <path class="cls-1" d="M467.75,193.92h-153.7c-1.11,0-2.01-.9-2.01-2.01s.9-2.01,2.01-2.01h153.7c1.11,0,2.01.9,2.01,2.01s-.9,2.01-2.01,2.01Z"/>
            <path class="cls-1" d="M467.75,212.18h-153.7c-1.11,0-2.01-.9-2.01-2.01s.9-2.01,2.01-2.01h153.7c1.11,0,2.01.9,2.01,2.01s-.9,2.01-2.01,2.01Z"/>
            <g>
              <path class="cls-1" d="M313.07,82.68v-11.56h2.22v11.56h-2.22Z"/>
              <path class="cls-1" d="M325.36,82.68h-2.61l-3.38-8.06h-.06c.03.37.06.73.08,1.06.02.33.03.63.04.91,0,.27.01.52.01.74v5.36h-2.07v-11.56h2.59l3.37,7.88h.06c-.02-.36-.04-.7-.06-1.02s-.03-.6-.04-.87c-.01-.27-.02-.51-.02-.73v-5.26h2.09v11.56Z"/>
              <path class="cls-1" d="M333.01,79.3c0,.7-.14,1.31-.42,1.84-.28.53-.67.95-1.18,1.25s-1.11.45-1.8.45c-.32,0-.63-.02-.93-.06-.3-.04-.6-.1-.89-.2s-.58-.21-.87-.37v-2.27c.42.27.86.48,1.31.62.45.14.87.21,1.26.21.28,0,.52-.06.71-.17.19-.11.33-.26.42-.45.09-.19.14-.4.14-.64,0-.25-.04-.48-.12-.67s-.23-.38-.46-.58-.55-.42-.98-.67c-.34-.2-.64-.41-.91-.62-.27-.21-.5-.44-.7-.7-.19-.26-.34-.55-.44-.89-.1-.34-.15-.74-.15-1.19,0-.65.12-1.23.38-1.72s.64-.87,1.13-1.14c.49-.27,1.08-.4,1.77-.4.47,0,.93.06,1.38.19.45.13.88.31,1.3.54l-.61,1.96c-.38-.23-.73-.39-1.06-.5s-.64-.16-.93-.16c-.25,0-.46.05-.64.15-.17.1-.3.23-.39.4-.09.17-.13.36-.13.58,0,.27.04.51.13.7.08.19.24.38.48.56.23.18.57.4,1.02.65.48.28.88.58,1.2.89.32.31.56.66.73,1.05.16.39.25.84.25,1.35Z"/>
              <path class="cls-1" d="M338.06,82.68h-2.19v-9.64h-2.15v-1.92h6.48v1.92h-2.13v9.64Z"/>
              <path class="cls-1" d="M344.16,71.12c.85,0,1.56.12,2.13.37.56.25.98.62,1.26,1.11.28.5.42,1.12.42,1.87,0,.47-.06.91-.17,1.29-.12.39-.3.73-.54,1.04s-.56.57-.94.79l2.38,5.08h-2.44l-1.89-4.53h-.66v4.53h-2.22v-11.56h2.69ZM344.15,73h-.45v3.4h.5c.5,0,.87-.15,1.13-.45.26-.3.38-.75.38-1.36,0-.54-.13-.94-.38-1.2-.25-.26-.65-.39-1.17-.39Z"/>
              <path class="cls-1" d="M356.86,71.12v7.76c0,.89-.14,1.62-.41,2.21s-.68,1.02-1.21,1.32-1.19.44-1.98.44c-1.14,0-2.02-.32-2.64-.97-.61-.65-.92-1.63-.92-2.94v-7.8h2.21v7.72c0,.73.12,1.26.35,1.57.23.31.57.47,1.01.47.31,0,.57-.07.77-.2.2-.13.36-.35.46-.65.1-.3.15-.7.15-1.2v-7.71h2.2Z"/>
              <path class="cls-1" d="M362.84,72.87c-.34,0-.63.1-.89.3-.25.2-.46.48-.63.85-.17.37-.29.8-.37,1.29-.08.5-.12,1.04-.12,1.62,0,.86.08,1.59.25,2.18.16.59.4,1.04.72,1.35s.7.46,1.15.46c.36,0,.7-.06,1.02-.18.32-.12.64-.27.96-.44v1.98c-.33.18-.69.32-1.07.42-.38.1-.79.14-1.23.14-.87,0-1.61-.23-2.22-.69-.61-.46-1.07-1.13-1.4-2.02-.32-.88-.48-1.95-.48-3.21,0-.86.09-1.66.27-2.38s.45-1.35.8-1.89c.35-.54.79-.95,1.3-1.25.51-.29,1.1-.44,1.77-.44.46,0,.91.06,1.34.17.43.12.85.29,1.25.54l-.63,1.83c-.29-.2-.57-.35-.86-.46-.29-.11-.6-.17-.93-.17Z"/>
              <path class="cls-1" d="M370.22,82.68h-2.19v-9.64h-2.15v-1.92h6.48v1.92h-2.13v9.64Z"/>
              <path class="cls-1" d="M381.5,76.89c0,.92-.08,1.74-.25,2.48s-.42,1.36-.76,1.88-.76.91-1.28,1.19c-.51.27-1.12.41-1.81.41s-1.3-.14-1.82-.42c-.52-.28-.94-.68-1.28-1.2-.34-.52-.59-1.15-.76-1.88-.17-.73-.25-1.56-.25-2.47,0-1.3.16-2.39.47-3.27.31-.88.77-1.54,1.38-1.99.61-.45,1.37-.67,2.26-.67s1.7.24,2.3.72c.6.48,1.05,1.16,1.35,2.05s.44,1.95.44,3.17ZM375.6,76.89c0,.89.07,1.62.21,2.22.14.59.34,1.04.61,1.34.27.3.6.45,1,.45s.73-.14,1-.43c.27-.29.47-.73.6-1.32s.2-1.34.2-2.25c0-1.35-.15-2.36-.45-3.02-.3-.66-.75-.99-1.35-.99-.4,0-.73.15-1,.45-.27.3-.47.75-.61,1.34s-.21,1.34-.21,2.22Z"/>
              <path class="cls-1" d="M385.92,71.12c.85,0,1.56.12,2.13.37.56.25.98.62,1.26,1.11.28.5.42,1.12.42,1.87,0,.47-.06.91-.17,1.29-.12.39-.3.73-.54,1.04s-.56.57-.94.79l2.38,5.08h-2.44l-1.89-4.53h-.66v4.53h-2.22v-11.56h2.69ZM385.91,73h-.45v3.4h.5c.5,0,.87-.15,1.13-.45.26-.3.38-.75.38-1.36,0-.54-.13-.94-.38-1.2-.25-.26-.65-.39-1.17-.39Z"/>
              <path class="cls-1" d="M399.55,82.68l-.6-2.78h-2.57l-.6,2.78h-2.38l2.8-11.56h2.87l2.85,11.56h-2.36ZM398.61,77.97l-.62-3.06c-.04-.25-.08-.5-.12-.74-.04-.24-.08-.48-.11-.7s-.06-.43-.09-.63c-.02.18-.04.39-.07.61-.03.22-.07.45-.11.7-.04.24-.09.49-.14.74l-.62,3.09h1.89Z"/>
              <path class="cls-1" d="M406.77,76.18h3.61v6.02c-.55.22-1.11.38-1.69.48s-1.16.16-1.76.16c-.95,0-1.75-.24-2.39-.73-.64-.49-1.12-1.18-1.45-2.07s-.49-1.95-.49-3.17.18-2.25.55-3.14.9-1.57,1.61-2.05c.71-.48,1.57-.73,2.58-.73.56,0,1.08.07,1.57.2.49.13.92.31,1.3.53l-.65,1.83c-.33-.21-.68-.37-1.03-.48-.36-.11-.73-.17-1.11-.17-.55,0-1.02.16-1.39.47-.37.31-.66.77-.85,1.38s-.29,1.34-.29,2.22c0,.81.08,1.51.23,2.11.16.6.39,1.06.71,1.39.32.33.73.49,1.22.49.21,0,.4-.02.6-.05s.37-.08.54-.13v-2.69h-1.45v-1.87Z"/>
              <path class="cls-1" d="M414.93,71.12c.85,0,1.56.12,2.13.37.56.25.98.62,1.26,1.11.28.5.42,1.12.42,1.87,0,.47-.06.91-.17,1.29-.12.39-.3.73-.54,1.04s-.56.57-.94.79l2.38,5.08h-2.44l-1.89-4.53h-.66v4.53h-2.22v-11.56h2.69ZM414.92,73h-.45v3.4h.5c.5,0,.87-.15,1.13-.45.26-.3.38-.75.38-1.36,0-.54-.13-.94-.38-1.2-.25-.26-.65-.39-1.17-.39Z"/>
              <path class="cls-1" d="M425.73,82.68h-5.19v-11.56h5.19v1.89h-2.97v2.72h2.77v1.9h-2.77v3.12h2.97v1.93Z"/>
              <path class="cls-1" d="M432.64,82.68h-5.19v-11.56h5.19v1.89h-2.97v2.72h2.77v1.9h-2.77v3.12h2.97v1.93Z"/>
              <path class="cls-1" d="M438.67,82.68l-2.29-8.53h-.06c.03.35.05.69.06,1s.03.6.04.86c0,.26.01.5.01.71v5.96h-2.07v-11.56h3.06l2.13,7.91h.06l2.13-7.91h3.04v11.56h-2.12v-5.98c0-.24,0-.49.01-.75,0-.26.02-.54.03-.84.01-.3.03-.62.05-.95h-.06l-2.3,8.52h-1.73Z"/>
              <path class="cls-1" d="M452.06,82.68h-5.19v-11.56h5.19v1.89h-2.97v2.72h2.77v1.9h-2.77v3.12h2.97v1.93Z"/>
              <path class="cls-1" d="M461.77,82.68h-2.61l-3.38-8.06h-.06c.03.37.06.73.08,1.06.02.33.03.63.04.91,0,.27.01.52.01.74v5.36h-2.07v-11.56h2.59l3.37,7.88h.06c-.02-.36-.04-.7-.06-1.02s-.03-.6-.04-.87c-.01-.27-.02-.51-.02-.73v-5.26h2.09v11.56Z"/>
              <path class="cls-1" d="M467.38,82.68h-2.19v-9.64h-2.15v-1.92h6.48v1.92h-2.13v9.64Z"/>
            </g>
          </g>
          <g>
            <circle class="cls-2" cx="341.21" cy="124.54" r="31.06"/>
            <path class="cls-3" d="M338.35,142.99c-1.33,0-2.6-.61-3.43-1.66l-12.13-15.36c-1.5-1.89-1.17-4.64.72-6.14,1.89-1.5,4.64-1.17,6.14.72l8.3,10.51,12.89-20.49c1.28-2.04,3.98-2.66,6.02-1.37,2.04,1.28,2.66,3.98,1.37,6.02l-16.19,25.72c-.76,1.2-2.05,1.96-3.46,2.04-.08,0-.16,0-.23,0Z"/>
          </g>
        </g>
      </g>
      <g>
        <circle class="cls-4" cx="93.8" cy="178.42" r="75.61"/>
        <g>
          <path class="cls-2" d="M44.61,148.56c-.65,1.27-1.02,2.7-1.02,4.22v38.78l30.8-21.87-29.78-21.14Z"/>
          <path class="cls-2" d="M137.46,143.95l-43.65,30.99-43.66-30.99s.03,0,.05-.01h87.21s.03.01.06.01Z"/>
          <path class="cls-2" d="M143,148.56l-29.77,21.14,30.79,21.87v-38.78c0-1.52-.37-2.96-1.02-4.22Z"/>
          <path class="cls-2" d="M93.81,183.48l-13.41-9.52-36.82,26.14v5.52c0,5.1,4.13,9.23,9.23,9.23h81.98c5.11,0,9.23-4.13,9.23-9.23v-5.52l-36.8-26.14-13.41,9.52Z"/>
        </g>
      </g>
    </g>
  </g>
</svg>