<svg xmlns="http://www.w3.org/2000/svg" id="Layer_2" data-name="Layer 2" viewBox="0 0 562.29 356.85"><defs><style>      .cls-1 {        fill: #252a2e;      }      .cls-1, .cls-2, .cls-3, .cls-4 {        stroke-width: 0px;      }      .cls-2 {        fill: #bdd356;      }      .cls-3 {        fill: #3c9e69;      }      .cls-4 {        fill: #fff;      }    </style></defs><g id="Layer_1-2" data-name="Layer 1"><g><rect class="cls-2" width="562.29" height="356.85" rx="12.73" ry="12.73"></rect><polygon class="cls-1" points="216.17 217.81 266.29 178.42 216.17 139.04 216.17 165.26 185.99 165.26 185.99 192.9 216.17 192.9 216.17 217.81"></polygon><g><g><rect class="cls-4" x="285.65" y="44.63" width="201.55" height="267.59"></rect><g><path class="cls-1" d="M463.28,117.33h-153.7c-1.11,0-2.01-.9-2.01-2.01s.9-2.01,2.01-2.01h153.7c1.11,0,2.01.9,2.01,2.01s-.9,2.01-2.01,2.01Z"></path><path class="cls-1" d="M463.28,135.6h-153.7c-1.11,0-2.01-.9-2.01-2.01s.9-2.01,2.01-2.01h153.7c1.11,0,2.01.9,2.01,2.01s-.9,2.01-2.01,2.01Z"></path><path class="cls-1" d="M463.28,153.86h-153.7c-1.11,0-2.01-.9-2.01-2.01s.9-2.01,2.01-2.01h153.7c1.11,0,2.01.9,2.01,2.01s-.9,2.01-2.01,2.01Z"></path><path class="cls-1" d="M463.28,172.12h-153.7c-1.11,0-2.01-.9-2.01-2.01s.9-2.01,2.01-2.01h153.7c1.11,0,2.01.9,2.01,2.01s-.9,2.01-2.01,2.01Z"></path><path class="cls-1" d="M463.28,190.39h-153.7c-1.11,0-2.01-.9-2.01-2.01s.9-2.01,2.01-2.01h153.7c1.11,0,2.01.9,2.01,2.01s-.9,2.01-2.01,2.01Z"></path><path class="cls-1" d="M463.28,208.65h-153.7c-1.11,0-2.01-.9-2.01-2.01s.9-2.01,2.01-2.01h153.7c1.11,0,2.01.9,2.01,2.01s-.9,2.01-2.01,2.01Z"></path><path class="cls-1" d="M463.28,226.91h-153.7c-1.11,0-2.01-.9-2.01-2.01s.9-2.01,2.01-2.01h153.7c1.11,0,2.01.9,2.01,2.01s-.9,2.01-2.01,2.01Z"></path></g><path class="cls-1" d="M376.39,276.59c6.28-5.75,12.95-11.05,20.01-15.81,3.51-2.36,7.11-4.59,10.79-6.67,1.81-1.02,3.64-2.01,5.48-2.96.98-.51,1.97-1,2.97-1.49.36-.18.72-.37,1.09-.52.17-.07.34-.13.52-.19.62-.14.31-.23-.93-.27l-.85-.85.06.11-.32-1.19c-.02-.33.13-.25-.07-.15-.22.11-.47.68-.62.89-.37.53-.75,1.07-1.13,1.6-.76,1.07-1.54,2.13-2.31,3.18-1.51,2.07-3.02,4.13-4.47,6.24s-2.75,4.08-3.99,6.18c-.97,1.64-2.06,3.81-.91,5.63,1.42,2.27,4.54,2.02,6.82,1.68,2.89-.43,5.71-1.33,8.46-2.29s5.21-1.94,7.77-3.02c.84-.35,1.67-.79,2.54-1.06.15-.05.39-.07.51-.14-.19.1-.28-.13,0,0-.6-.3-.97-.41-1.32-1.12.19.39.03-.38-.01-.09-.02.12.01.25-.02.37-.09.39.13-.6-.03.11-.04.2-.09.4-.13.59-.37,1.53-.85,3-.4,4.58.41,1.47,1.6,2.52,3.02,3,2.49.83,5.44.08,7.86-.62,1.33-.39,2.64-.85,3.93-1.34.44-.17.87-.34,1.31-.51.16-.06.43-.12.58-.22.31-.05.4-.08.27-.09-.38-.02-.71-.18-1.02-.48-.05.25.74,1.15.85,1.27,1.88,2.27,5.22,2,7.87,1.86,3.1-.16,6.19-.6,9.25-1.12,1.26-.21,1.96-1.76,1.65-2.9-.37-1.33-1.64-1.86-2.9-1.65-3.53.6-7.13,1.1-10.72,1.02-.39,0-1.14.02-1.46-.14-.24-.12-.35-.6-.6-.99-.99-1.53-2.79-1.83-4.44-1.32-3.06.94-5.9,2.39-9.12,2.81.55-.07-.13,0-.2,0-.2,0-.4.03-.6.03-.23,0-1.28-.15-.63,0-.16-.04-.31-.08-.47-.11-.43-.1.14.02.14.08l-.13-.07c-.21-.13-.17-.09.13.13-.07-.06-.14-.12-.2-.19.22.3.26.35.13.14l-.07-.13c.14.34.17.39.09.14l-.03-.16c.04.35.06.39.04.11-.02.02.11-.79,0-.18.04-.22.11-.43.16-.64.28-1.07.61-2.16.63-3.28.05-2.77-2.4-4.02-4.88-3.37-.9.24-1.74.66-2.59,1.03-.25.11-.5.22-.75.32-.12.05-.24.1-.36.16-.16.07-.1.04.17-.07-.11.05-.22.09-.33.14-3.56,1.47-7.18,2.86-10.89,3.91-.85.24-1.71.46-2.57.65-.43.09-.86.17-1.3.25-.09.02-.77.1-.18.03-.22.03-.44.05-.66.06-.32.02-.63.03-.95.03-.15,0-.31-.03-.46-.03.66,0,.27.08.08,0-.72-.3.27.23-.2-.06.54.33.36.31.24.18-.16-.17-.1-.09.18.25-.22-.41-.17-.07.15,1,.25-.3.42-1.09.63-1.46.39-.69.82-1.36,1.25-2.02.93-1.44,1.84-2.89,2.81-4.31,1.98-2.9,4.08-5.71,6.14-8.55.91-1.26,2.03-2.54,2.76-3.91.85-1.6.49-3.77-1.44-4.33-1.36-.39-2.83.37-4.03.93-1.5.7-2.98,1.46-4.45,2.23-13.26,6.9-25.49,15.72-36.51,25.8-2.25,2.06,1.1,5.39,3.34,3.34h0Z"></path><g><path class="cls-1" d="M479.79,252.4l61.65-114.36c1.01-1.86,1.16-3.96.6-5.85-.57-1.9-1.87-3.58-3.76-4.58-3.76-2-8.44-.41-10.46,3.34l-61.54,114.16,13.52,7.29Z"></path><path class="cls-1" d="M464.81,247.83l-.24.45c-.44.81-.71,1.71-.79,2.63l-1.4,15.91c-.07.77.82,1.25,1.42.77l12.52-9.91c.73-.57,1.33-1.29,1.76-2.1l.24-.45-13.52-7.29Z"></path></g></g><g><path class="cls-1" d="M340.72,78.29l-.68-2.79h-2.93l-.68,2.79h-2.71l3.19-11.6h3.27l3.24,11.6h-2.69ZM339.65,73.56l-.71-3.07c-.05-.25-.09-.5-.14-.75-.04-.24-.09-.48-.13-.7-.04-.23-.07-.44-.1-.63-.02.19-.05.39-.08.61s-.08.46-.13.7c-.05.24-.1.49-.16.74l-.7,3.1h2.15Z"></path><path class="cls-1" d="M348.62,78.29h-2.5v-9.67h-2.45v-1.93h7.38v1.93h-2.43v9.67Z"></path><path class="cls-1" d="M355.86,66.69c1.34,0,2.34.31,2.99.92.65.61.98,1.5.98,2.67,0,.59-.08,1.12-.25,1.6-.17.48-.42.89-.75,1.23s-.76.61-1.27.79c-.51.19-1.11.28-1.81.28h-.69v4.11h-2.53v-11.6h3.34ZM355.67,68.59h-.62v3.69h.44c.4,0,.74-.07,1.01-.2.27-.13.47-.34.61-.63s.21-.67.21-1.15c0-.59-.14-1.02-.41-1.3-.27-.27-.69-.41-1.24-.41Z"></path><path class="cls-1" d="M364.87,78.29v-11.6h2.53v9.67h3.51v1.94h-6.04Z"></path><path class="cls-1" d="M372.36,78.29v-11.6h2.53v11.6h-2.53Z"></path><path class="cls-1" d="M381.78,68.44c-.38,0-.72.1-1.01.3-.29.2-.53.49-.72.85-.19.37-.33.8-.42,1.3-.09.5-.14,1.04-.14,1.63,0,.86.09,1.59.28,2.19.19.6.46,1.05.82,1.35.36.31.8.46,1.32.46.41,0,.8-.06,1.16-.18s.73-.27,1.09-.44v1.98c-.38.19-.79.33-1.22.42-.44.1-.9.14-1.4.14-.99,0-1.83-.23-2.53-.69-.69-.46-1.22-1.14-1.59-2.02s-.55-1.96-.55-3.23c0-.87.1-1.67.31-2.39s.51-1.36.91-1.9c.4-.54.9-.95,1.48-1.25.59-.3,1.26-.44,2.01-.44.53,0,1.04.06,1.53.17.49.12.97.3,1.42.54l-.72,1.84c-.32-.2-.65-.35-.98-.46s-.68-.17-1.06-.17Z"></path><path class="cls-1" d="M392.09,78.29h-5.92v-11.6h5.92v1.9h-3.39v2.73h3.15v1.9h-3.15v3.13h3.39v1.94Z"></path><path class="cls-1" d="M403.17,78.29h-2.97l-3.86-8.09h-.07c.04.38.07.73.09,1.06s.04.63.04.91.01.52.01.75v5.38h-2.36v-11.6h2.96l3.84,7.91h.07c-.02-.37-.04-.71-.06-1.02-.02-.31-.03-.61-.04-.88-.01-.27-.02-.52-.02-.74v-5.28h2.38v11.6Z"></path><path class="cls-1" d="M411.89,74.9c0,.7-.16,1.31-.48,1.85-.32.53-.77.95-1.35,1.25-.58.3-1.26.45-2.05.45-.37,0-.72-.02-1.06-.06s-.68-.11-1.01-.2-.66-.22-.99-.37v-2.28c.48.27.98.48,1.5.63.52.14.99.21,1.43.21.32,0,.59-.06.81-.17.21-.11.37-.26.48-.45s.16-.4.16-.64c0-.25-.04-.48-.14-.67-.09-.19-.26-.39-.52-.58-.26-.19-.63-.42-1.12-.67-.38-.2-.73-.41-1.04-.62-.31-.21-.57-.45-.79-.7-.22-.26-.39-.55-.5-.89-.11-.34-.17-.74-.17-1.2,0-.66.14-1.23.44-1.72s.73-.87,1.29-1.15c.56-.27,1.24-.41,2.02-.4.53,0,1.06.06,1.57.19s1.01.31,1.48.54l-.69,1.97c-.43-.23-.83-.4-1.21-.5s-.73-.16-1.06-.16c-.29,0-.53.05-.73.15-.2.1-.34.23-.44.4-.1.17-.15.36-.15.58,0,.28.05.51.14.7.1.19.28.38.54.56s.65.4,1.16.65c.55.28,1,.58,1.37.89.37.31.64.67.83,1.06.19.39.28.84.28,1.35Z"></path><path class="cls-1" d="M413.62,78.29v-11.6h2.53v11.6h-2.53Z"></path><path class="cls-1" d="M427.63,78.29h-2.97l-3.86-8.09h-.07c.04.38.07.73.09,1.06s.04.63.04.91.01.52.01.75v5.38h-2.36v-11.6h2.96l3.84,7.91h.07c-.02-.37-.04-.71-.06-1.02-.02-.31-.03-.61-.04-.88-.01-.27-.02-.52-.02-.74v-5.28h2.38v11.6Z"></path><path class="cls-1" d="M434.35,71.76h4.12v6.05c-.63.22-1.27.38-1.92.48s-1.33.16-2.01.16c-1.09,0-2-.24-2.73-.73s-1.28-1.18-1.65-2.08-.55-1.95-.55-3.18.21-2.26.63-3.15c.42-.89,1.03-1.57,1.83-2.06s1.79-.73,2.95-.73c.64,0,1.23.07,1.78.2.55.14,1.05.31,1.49.53l-.74,1.84c-.38-.21-.77-.37-1.18-.48-.4-.11-.83-.17-1.27-.17-.63,0-1.16.16-1.59.47-.43.31-.75.77-.97,1.38-.22.61-.32,1.35-.32,2.23,0,.81.09,1.51.27,2.11.18.6.45,1.06.81,1.39.36.33.83.49,1.39.49.23,0,.46-.02.68-.05.22-.03.42-.08.62-.13v-2.7h-1.65v-1.88Z"></path><path class="cls-1" d="M350.05,96.29l-.68-2.79h-2.93l-.68,2.79h-2.71l3.19-11.6h3.27l3.24,11.6h-2.69ZM348.98,91.56l-.71-3.07c-.05-.25-.09-.5-.14-.75-.04-.24-.09-.48-.13-.7-.04-.23-.07-.44-.1-.63-.02.19-.05.39-.08.61s-.08.46-.13.7c-.05.24-.1.49-.16.74l-.7,3.1h2.15Z"></path><path class="cls-1" d="M358.28,89.76h4.12v6.05c-.63.22-1.27.38-1.92.48-.66.11-1.33.16-2.01.16-1.09,0-2-.24-2.73-.73-.73-.49-1.28-1.18-1.65-2.08-.37-.89-.55-1.95-.55-3.18s.21-2.26.63-3.15c.42-.89,1.03-1.57,1.83-2.06s1.79-.73,2.95-.73c.64,0,1.23.07,1.78.2.55.14,1.05.31,1.49.53l-.74,1.84c-.38-.21-.77-.37-1.18-.48-.41-.11-.83-.17-1.27-.17-.63,0-1.16.16-1.59.47s-.75.77-.96,1.38c-.22.61-.32,1.35-.32,2.23,0,.81.09,1.51.27,2.11.18.6.45,1.06.81,1.39.36.33.83.49,1.39.49.23,0,.46-.02.68-.05.22-.03.43-.08.62-.13v-2.7h-1.65v-1.88Z"></path><path class="cls-1" d="M367.59,84.69c.97,0,1.78.12,2.42.37.64.25,1.12.62,1.44,1.12.32.5.47,1.12.47,1.87,0,.48-.07.91-.2,1.3-.13.39-.34.74-.62,1.04-.28.3-.64.57-1.07.8l2.71,5.1h-2.79l-2.15-4.55h-.76v4.55h-2.53v-11.6h3.06ZM367.57,86.57h-.51v3.41h.57c.57,0,.99-.15,1.28-.45.29-.3.44-.76.44-1.37,0-.54-.15-.95-.44-1.21-.29-.26-.74-.39-1.34-.39Z"></path><path class="cls-1" d="M379.9,96.29h-5.92v-11.6h5.92v1.9h-3.39v2.73h3.15v1.9h-3.15v3.13h3.39v1.94Z"></path><path class="cls-1" d="M387.78,96.29h-5.92v-11.6h5.92v1.9h-3.39v2.73h3.15v1.9h-3.15v3.13h3.39v1.94Z"></path><path class="cls-1" d="M394.65,96.29l-2.6-8.56h-.07c.03.35.05.69.07,1,.02.31.03.6.04.87s.01.5.01.71v5.98h-2.36v-11.6h3.49l2.43,7.94h.06l2.43-7.94h3.47v11.6h-2.41v-6c0-.24,0-.49.01-.75s.02-.54.04-.84c.02-.3.03-.62.06-.96h-.07l-2.62,8.55h-1.97Z"></path><path class="cls-1" d="M409.9,96.29h-5.92v-11.6h5.92v1.9h-3.39v2.73h3.15v1.9h-3.15v3.13h3.39v1.94Z"></path><path class="cls-1" d="M420.98,96.29h-2.97l-3.86-8.09h-.07c.04.38.07.73.09,1.06s.04.63.04.91.01.52.01.75v5.38h-2.36v-11.6h2.96l3.84,7.91h.07c-.02-.37-.04-.71-.06-1.02-.02-.31-.03-.61-.04-.88-.01-.27-.02-.52-.02-.74v-5.28h2.38v11.6Z"></path><path class="cls-1" d="M427.37,96.29h-2.5v-9.67h-2.45v-1.93h7.38v1.93h-2.43v9.67Z"></path></g></g><g><circle class="cls-4" cx="91.03" cy="178.42" r="75.61"></circle><g><path class="cls-3" d="M41.83,148.56c-.65,1.27-1.02,2.7-1.02,4.22v38.78l30.8-21.87-29.78-21.14Z"></path><path class="cls-3" d="M134.69,143.95l-43.65,30.99-43.66-30.99s.03,0,.05-.01h87.21s.03.01.06.01Z"></path><path class="cls-3" d="M140.22,148.56l-29.77,21.14,30.79,21.87v-38.78c0-1.52-.37-2.96-1.02-4.22Z"></path><path class="cls-3" d="M91.03,183.48l-13.41-9.52-36.82,26.14v5.52c0,5.1,4.13,9.23,9.23,9.23h81.98c5.11,0,9.23-4.13,9.23-9.23v-5.52l-36.8-26.14-13.41,9.52Z"></path></g></g></g></g></svg>