<svg xmlns="http://www.w3.org/2000/svg" id="eb0f45ee-3af5-4ac9-96dc-8d8caa4d5317" data-name="Layer 1" viewBox="0 0 720 402"><defs><style>.acaab6f6-0eee-4d6e-9eb2-5eea0ba75bfd{fill:#070808;}.a1498ba2-cb48-4ced-a31d-862d8b8fbe4e{fill:#26844f;}.bb0949e6-7b3e-4713-bc0f-9866c3a1458f{fill:#fff;}</style></defs><rect class="acaab6f6-0eee-4d6e-9eb2-5eea0ba75bfd" x="-43.4" y="-160.7" width="811.9" height="591.71"></rect><circle class="a1498ba2-cb48-4ced-a31d-862d8b8fbe4e" cx="360" cy="201" r="132.4"></circle><path class="bb0949e6-7b3e-4713-bc0f-9866c3a1458f" d="M427.5,220.1c-1.3,3.7-9.9-6.9-22.9-8.9s-30.2,2.1-48.7,8.9-34.7,3.1-46-8.3-17.5-28.3-16.2-29.9c1.3-3.7,9.9,6.8,22.9,8.8s30.2-2.1,48.7-8.8,34.7-3.1,46,8.2,17.5,28.3,16.2,30"></path><path class="bb0949e6-7b3e-4713-bc0f-9866c3a1458f" d="M437.1,261.7c-1.3,3.7-10-6.8-22.9-8.8s-30.2,2.1-48.7,8.8-34.7,3.1-46-8.2-17.6-28.3-16.3-30c1.3-3.7,10,6.9,23,8.9s30.2-2.1,48.7-8.9,34.7-3.1,45.9,8.3,17.6,28.3,16.3,29.9"></path><path class="bb0949e6-7b3e-4713-bc0f-9866c3a1458f" d="M416.8,178.4c-1.3,3.7-10-6.8-23-8.8s-30.2,2.1-48.7,8.8-34.7,3.1-45.9-8.2-17.6-28.3-16.3-30c1.3-3.7,10,6.9,22.9,8.9s30.2-2.1,48.7-8.9,34.7-3,46,8.3,17.6,28.3,16.3,29.9"></path></svg>