<svg width="212" height="1044" viewBox="0 0 212 1044" fill="none" xmlns="http://www.w3.org/2000/svg">
<g clip-path="url(#clip0_1222_1190)">
<g style="mix-blend-mode:multiply">
<path d="M292.372 1117.24C235.474 1087.18 226.675 1083.81 170.838 1070.64C131.998 1061.48 85.8689 1035.53 61.9361 1009.38C44.9171 990.779 6.76199 936.398 8.5046 933.223C10.4616 929.662 13.41 931.006 23.2131 939.923C36.8684 952.344 57.9979 962.728 90.6138 973.047C148.507 991.364 162.932 999.645 200.711 1036.25C213.106 1048.27 224.544 1058.63 226.131 1059.29C230.002 1060.9 200.826 1018.91 188.553 1005.22C183.183 999.226 165.445 983.121 149.133 969.428C74.7147 906.958 40.6451 861.868 18.5003 796.538C6.92646 762.394 8.51488 757.164 24.0172 778.373C32.519 790.004 57.3832 813.836 97.5156 848.82C108.847 858.697 124.247 875.325 132.114 886.175L146.291 905.729L137.134 877.134C130.232 855.581 125.862 846.503 119.39 840.272C79.5278 801.894 75.4586 733.941 105.801 613.343C110.232 595.732 114.604 574.774 115.516 566.772C117.183 552.144 119.498 548.054 124.817 550.34C128.282 551.83 135.66 585.299 141.162 624.497C145.699 656.817 145.054 690.697 138.649 756.388C133.344 810.803 134.348 834.585 143.269 865.794C150.319 890.457 161.184 920.594 163.364 921.531C164.057 921.829 163.49 912.818 162.103 901.507C157.083 860.556 161.248 826.033 179.08 760.795C184.281 741.765 190.038 716.618 191.872 704.913C194.041 691.069 196.449 682.864 198.761 681.435C201.505 679.74 202.555 681.228 203.36 687.948C203.934 692.738 208.336 717.071 213.143 742.022C225.3 805.133 225.492 818.191 215.153 878.689C210.606 905.3 207.636 917.097 199.733 939.936C197.208 947.232 194.553 959.346 193.831 966.856C192.633 979.32 193.718 982.433 206.258 1002.52C238.099 1053.52 258.015 1078.01 289.026 1104.28C312.466 1124.14 313.576 1128.44 292.372 1117.24L292.372 1117.24Z" fill="#A6C9B9"/>
</g>
<g style="mix-blend-mode:multiply">
<path d="M292.372 -138.004C235.474 -107.948 226.675 -104.574 170.838 -91.4056C131.998 -82.2453 85.8689 -56.2947 61.9361 -30.1416C44.9171 -11.5437 6.76199 42.8376 8.5046 46.0127C10.4616 49.5731 13.41 48.2299 23.2131 39.3125C36.8684 26.8916 57.9979 16.5075 90.6138 6.18839C148.507 -12.1282 162.932 -20.4094 200.711 -57.0192C213.106 -69.0304 224.544 -79.3966 226.131 -80.0555C230.002 -81.6675 200.826 -39.6779 188.553 -25.9821C183.183 -19.9905 165.445 -3.88513 149.133 9.80769C74.7147 72.2776 40.6451 117.368 18.5003 182.697C6.92646 216.842 8.51488 222.072 24.0172 200.863C32.519 189.231 57.3832 165.399 97.5156 130.416C108.847 120.539 124.247 103.911 132.114 93.0605L146.291 73.5061L137.134 102.102C130.232 123.654 125.862 132.733 119.39 138.963C79.5278 177.342 75.4586 245.294 105.801 365.892C110.232 383.504 114.604 404.461 115.516 412.464C117.183 427.092 119.498 431.182 124.817 428.895C128.282 427.405 135.66 393.937 141.162 354.739C145.699 322.418 145.054 288.538 138.649 222.848C133.344 168.433 134.348 144.65 143.269 113.441C150.319 88.7785 161.184 58.6415 163.364 57.7044C164.057 57.4065 163.49 66.4171 162.103 77.7282C157.083 118.68 161.248 153.202 179.08 218.441C184.281 237.47 190.038 262.617 191.872 274.322C194.041 288.166 196.449 296.372 198.761 297.801C201.505 299.495 202.555 298.008 203.36 291.288C203.934 286.497 208.336 262.164 213.143 237.214C225.3 174.102 225.492 161.045 215.153 100.546C210.606 73.9355 207.636 62.1387 199.733 39.2992C197.208 32.0038 194.553 19.8897 193.831 12.3791C192.633 -0.0846607 193.718 -3.19704 206.258 -23.2829C238.099 -74.2862 258.015 -98.7717 289.026 -125.046C312.466 -144.905 313.576 -149.205 292.372 -138.004L292.372 -138.004Z" fill="#A6C9B9"/>
</g>
</g>
<defs>
<clipPath id="clip0_1222_1190">
<rect width="212" height="1044" fill="white"/>
</clipPath>
</defs>
</svg>
