<svg xmlns="http://www.w3.org/2000/svg" xmlns:xlink="http://www.w3.org/1999/xlink" id="Layer_1" data-name="Layer 1" viewBox="0 0 2077 707"><defs><style>      .cls-1 {        fill: url(#New_Pattern_5);      }      .cls-1, .cls-2, .cls-3 {        stroke-width: 0px;      }      .cls-2, .cls-4 {        fill: none;      }      .cls-3 {        fill: #307f75;      }      .cls-4 {        stroke: #707f5d;        stroke-dasharray: 0 0 0 0 10 10 0 0;        stroke-miterlimit: 10;        stroke-width: 3px;      }    </style><pattern id="New_Pattern_5" data-name="New Pattern 5" x="0" y="0" width="522.95" height="700" patternTransform="translate(-61 -342)" patternUnits="userSpaceOnUse" viewBox="0 0 522.95 700"><g><rect class="cls-2" width="522.95" height="700"></rect><g><g><g><path class="cls-3" d="M345.32,396.92c20.3-1.78,31.3-14.94,33.01-17.15,1.7,2.21,12.71,15.37,33.01,17.15,0,0,3.88,45.63-33.01,60.99-36.89-15.36-33.01-60.99-33.01-60.99ZM368.98,435.46c3.11.51,6.2,1.32,9.19,2.41h.01c.06.02.13.04.2.05.06.01.14.02.21.02s.14-.01.2-.02c.07-.01.14-.03.2-.05h.01c2.99-1.09,6.07-1.9,9.19-2.41,3.21-.53,6.47-.73,9.71-.6.33,0,.65-.12.88-.34.24-.23.37-.55.37-.87v-25.3c0-.63-.47-1.16-1.1-1.21-.06,0-1.35-.11-3.28-.16v-5.37c0-.33-.13-.64-.37-.87-.24-.23-.57-.35-.89-.34-8.53.41-13.01,4.74-14.78,7.01-1.78-2.27-6.25-6.6-14.78-7.01-.34-.01-.65.11-.89.34-.24.23-.38.55-.38.87v5.35c-2.07.06-3.46.18-3.54.18-.63.05-1.1.58-1.1,1.21v25.3c0,.33.13.64.37.87.23.22.55.34.88.34,3.24-.13,6.5.07,9.71.6Z"></path><path class="cls-3" d="M374.79,434.25c-4.63-3.43-11.13-5.1-11.22-5.12-.54-.14-.92-.62-.92-1.17v-18.56c-.89.02-1.65.06-2.22.09v22.92c2.99-.04,5.99.18,8.93.66,1.82.29,3.63.68,5.42,1.18Z"></path><path class="cls-3" d="M387.8,433.07c2.95-.48,5.95-.71,8.94-.66v-22.92c-.53-.03-1.19-.06-1.98-.08v18.55c0,.55-.37,1.03-.92,1.17-.07.02-6.45,1.65-11.07,5.02,1.65-.44,3.34-.8,5.02-1.07Z"></path><path class="cls-3" d="M365.08,427.03c2.26.66,8.17,2.64,12.3,6.19v-22.4c0-.07.01-.15.02-.21h-.02v-.9c-.73-1.16-4.21-5.95-12.3-6.78v5.24c0,.07-.01.14-.02.2h.02v18.67Z"></path><path class="cls-3" d="M392.34,408.38h.02c-.01-.06-.02-.14-.02-.21v-5.24c-8.04.83-11.56,5.65-12.29,6.78v23.52c4.12-3.55,10.03-5.52,12.29-6.19v-18.66Z"></path></g><g><path class="cls-3" d="M373.87,547.97h.41c0,2.7,2.19,4.89,4.89,4.89s4.89-2.19,4.89-4.89h.45c.2,0,.38-.08.52-.22.13-.13.22-.32.22-.52,0-.4-.33-.73-.74-.73h-.21c0-.11.01-.23.01-.34,0-1.1-.35-2.12-.94-2.96-.06-.08-.14-.12-.22-.12-.11,0-.22.07-.26.19l-.05.17c-.07.26-.31.43-.57.43-.07,0-.14-.01-.21-.04-.29-.11-.43-.45-.34-.75l.28-.99c.03-.11-.01-.24-.11-.3-.54-.34-1.14-.58-1.78-.7v-.07c0-.33-.27-.61-.61-.61h-.7c-.33,0-.61.27-.61.61v.07c-.64.12-1.24.36-1.78.7-.1.06-.14.19-.11.3l.28.99c.07.26-.02.55-.25.69-.1.06-.2.08-.3.08-.25,0-.49-.17-.57-.43l-.05-.17c-.04-.13-.15-.19-.26-.19-.08,0-.17.04-.22.12-.59.84-.94,1.86-.94,2.96,0,.12,0,.23.01.34h-.21c-.2,0-.39.08-.52.22-.17.17-.26.42-.2.68.08.34.4.57.76.57Z"></path><path class="cls-3" d="M395.06,554.24c-.34-.21-.7-.31-1.05-.31-.7,0-1.39.4-1.86,1.14-.81,1.28-1.62,2.56-2.4,3.85-.23.39-.49.54-.95.54h0c-4.66-.01-9.32-.01-13.97-.01-2.75,0-5.49,0-8.24,0-2.47,0-4.94,0-7.42,0,0,0,0,0,0,0h-7.65c-.34,0-.61.27-.61.61v10.1c0,.34.27.61.61.61h7.65c.34,0,.61-.27.61-.61v-8.97h2.09c.21,1.87.76,2.34,2.65,2.34.95,0,1.89,0,2.84,0,1.89,0,3.79,0,5.68,0h.74v.74c0,3.88,0,7.75,0,11.63,0,4.82,0,9.63,0,14.45,0,1.4,1.03,2.38,2.33,2.38.19,0,.39-.02.59-.07,1.26-.28,1.9-1.13,1.9-2.56,0-4.76,0-9.52,0-14.28v-.66h1.15c0,.28,0,.51,0,.74,0,4.84,0,9.67,0,14.51,0,1.24.78,2.09,2.05,2.3.12.02.25.03.37.03.98,0,1.94-.63,2.22-1.57.12-.41.16-.87.16-1.3,0-8.52,0-17.04,0-25.56v-.77c.3,0,.5,0,.71,0,1.02,0,2.03,0,3.05,0,.69,0,1.38,0,2.08,0,0,0,.02,0,.03,0,.87,0,1.52-.36,1.98-1.11,1.07-1.73,2.15-3.44,3.22-5.17.71-1.14.47-2.37-.56-3.01Z"></path><path class="cls-3" d="M416.77,561.7c2.74,2.74,2.74,7.17,0,9.91l-33.48,33.48c-2.74,2.74-7.17,2.74-9.91,0l-33.48-33.48c-2.74-2.74-2.74-7.17,0-9.91l33.48-33.48c2.74-2.74,7.17-2.74,9.91,0l33.48,33.48ZM371.06,547.87c.17.77.67,1.41,1.32,1.8.76,3.05,3.52,5.31,6.8,5.31s6.03-2.25,6.79-5.29c.2-.12.38-.26.55-.42.56-.57.85-1.28.85-2.03,0-.87-.4-1.65-1.02-2.18-.17-1.11-.59-2.15-1.24-3.08-.29-.41-.7-.71-1.16-.87-.18-.44-.5-.82-.92-1.09-.45-.28-.92-.51-1.41-.69-.5-.61-1.26-1.01-2.11-1.01h-.7c-.85,0-1.61.39-2.11,1.01-.49.18-.95.4-1.4.68-.42.27-.74.65-.92,1.09-.46.16-.87.47-1.16.87-.65.93-1.07,1.97-1.24,3.08-.06.05-.12.11-.18.16-.7.7-.98,1.68-.76,2.64ZM396.17,552.44c-.66-.41-1.41-.63-2.17-.63-1.44,0-2.8.79-3.64,2.12l-.17.28c-.64,1.02-1.31,2.07-1.95,3.13-4.47,0-8.94-.01-13.41-.01h-4.12s-4.12,0-4.12,0h-4.15s-3.26,0-3.26,0h-7.65c-1.5,0-2.72,1.22-2.72,2.72v10.1c0,1.5,1.22,2.72,2.72,2.72h7.65c1.5,0,2.72-1.22,2.72-2.72v-5.03c.69.35,1.56.52,2.62.52h2.84s2.84,0,2.84,0h1.46v2.36s0,7.9,0,7.9v3.92c0,3.51,0,7.02,0,10.53,0,2.52,1.96,4.49,4.44,4.49.35,0,.7-.04,1.05-.12.78-.18,1.45-.5,1.99-.96.62.52,1.4.88,2.31,1.03.24.04.48.06.72.06,1.95,0,3.7-1.26,4.24-3.08.17-.55.25-1.18.25-1.91,0-7.07,0-14.15,0-21.22v-3s.11,0,.11,0h1.54c.69,0,1.37,0,2.06,0,1.64,0,2.98-.75,3.82-2.11.56-.9,1.12-1.8,1.68-2.7.51-.82,1.03-1.64,1.54-2.46,1.31-2.12.78-4.67-1.25-5.92Z"></path></g><g><path class="cls-3" d="M376.73,718.61h3.2l1.15-6.99c1.15-7.04,2.13-11.82,2.13-13.68,0-2.17-1.86-3.07-4.89-3.07s-4.89.9-4.89,3.07c0,1.86.98,6.64,2.14,13.68l1.15,6.99Z"></path><path class="cls-3" d="M415.66,735.29c1.83,3.17-.46,7.13-4.12,7.13h-66.43c-3.66,0-5.95-3.96-4.12-7.13l33.21-57.53c1.83-3.17,6.4-3.17,8.23,0l33.21,57.53ZM386.85,727.45c0-3.15-1.78-5.96-4.35-7.46.15-.28.26-.58.32-.91l1.15-6.99c.36-2.2.7-4.18,1.01-5.92.73-4.18,1.17-6.71,1.17-8.24,0-1.4-.56-5.99-7.81-5.99s-7.81,4.58-7.81,5.99c0,1.52.44,4.03,1.16,8.19.3,1.75.65,3.74,1.01,5.96l1.16,6.99c.05.33.17.63.32.91-2.57,1.5-4.35,4.31-4.35,7.46,0,4.7,3.82,8.52,8.52,8.52s8.52-3.82,8.52-8.52Z"></path></g></g><line class="cls-4" x1="445.08" y1="382.23" x2="445.08" y2="1020.23"></line></g><g><g><g><path class="cls-3" d="M83.85,396.92c20.3-1.78,31.3-14.94,33.01-17.15,1.7,2.21,12.71,15.37,33.01,17.15,0,0,3.88,45.63-33.01,60.99-36.89-15.36-33.01-60.99-33.01-60.99ZM107.51,435.46c3.11.51,6.2,1.32,9.19,2.41h.01c.06.02.13.04.2.05.06.01.14.02.21.02s.14-.01.2-.02c.07-.01.14-.03.2-.05h.01c2.99-1.09,6.07-1.9,9.19-2.41,3.21-.53,6.47-.73,9.71-.6.33,0,.65-.12.88-.34.24-.23.37-.55.37-.87v-25.3c0-.63-.47-1.16-1.1-1.21-.06,0-1.35-.11-3.28-.16v-5.37c0-.33-.13-.64-.37-.87-.24-.23-.57-.35-.89-.34-8.53.41-13.01,4.74-14.78,7.01-1.78-2.27-6.25-6.6-14.78-7.01-.34-.01-.65.11-.89.34-.24.23-.38.55-.38.87v5.35c-2.07.06-3.46.18-3.54.18-.63.05-1.1.58-1.1,1.21v25.3c0,.33.13.64.37.87.23.22.55.34.88.34,3.24-.13,6.5.07,9.71.6Z"></path><path class="cls-3" d="M113.32,434.25c-4.63-3.43-11.13-5.1-11.22-5.12-.54-.14-.92-.62-.92-1.17v-18.56c-.89.02-1.65.06-2.22.09v22.92c2.99-.04,5.99.18,8.93.66,1.82.29,3.63.68,5.42,1.18Z"></path><path class="cls-3" d="M126.33,433.07c2.95-.48,5.95-.71,8.94-.66v-22.92c-.53-.03-1.19-.06-1.98-.08v18.55c0,.55-.37,1.03-.92,1.17-.07.02-6.45,1.65-11.07,5.02,1.65-.44,3.34-.8,5.02-1.07Z"></path><path class="cls-3" d="M103.61,427.03c2.26.66,8.17,2.64,12.3,6.19v-22.4c0-.07.01-.15.02-.21h-.02v-.9c-.73-1.16-4.21-5.95-12.3-6.78v5.24c0,.07-.01.14-.02.2h.02v18.67Z"></path><path class="cls-3" d="M130.87,408.38h.02c-.01-.06-.02-.14-.02-.21v-5.24c-8.04.83-11.56,5.65-12.29,6.78v23.52c4.12-3.55,10.03-5.52,12.29-6.19v-18.66Z"></path></g><g><path class="cls-3" d="M112.4,547.97h.41c0,2.7,2.19,4.89,4.89,4.89s4.89-2.19,4.89-4.89h.45c.2,0,.38-.08.52-.22.13-.13.22-.32.22-.52,0-.4-.33-.73-.74-.73h-.21c0-.11.01-.23.01-.34,0-1.1-.35-2.12-.94-2.96-.06-.08-.14-.12-.22-.12-.11,0-.22.07-.26.19l-.05.17c-.07.26-.31.43-.57.43-.07,0-.14-.01-.21-.04-.29-.11-.43-.45-.34-.75l.28-.99c.03-.11-.01-.24-.11-.3-.54-.34-1.14-.58-1.78-.7v-.07c0-.33-.27-.61-.61-.61h-.7c-.33,0-.61.27-.61.61v.07c-.64.12-1.24.36-1.78.7-.1.06-.14.19-.11.3l.28.99c.07.26-.02.55-.25.69-.1.06-.2.08-.3.08-.25,0-.49-.17-.57-.43l-.05-.17c-.04-.13-.15-.19-.26-.19-.08,0-.17.04-.22.12-.59.84-.94,1.86-.94,2.96,0,.12,0,.23.01.34h-.21c-.2,0-.39.08-.52.22-.17.17-.26.42-.2.68.08.34.4.57.76.57Z"></path><path class="cls-3" d="M133.59,554.24c-.34-.21-.7-.31-1.05-.31-.7,0-1.39.4-1.86,1.14-.81,1.28-1.62,2.56-2.4,3.85-.23.39-.49.54-.95.54h0c-4.66-.01-9.32-.01-13.97-.01-2.75,0-5.49,0-8.24,0-2.47,0-4.94,0-7.42,0,0,0,0,0,0,0h-7.65c-.34,0-.61.27-.61.61v10.1c0,.34.27.61.61.61h7.65c.34,0,.61-.27.61-.61v-8.97h2.09c.21,1.87.76,2.34,2.65,2.34.95,0,1.89,0,2.84,0,1.89,0,3.79,0,5.68,0h.74v.74c0,3.88,0,7.75,0,11.63,0,4.82,0,9.63,0,14.45,0,1.4,1.03,2.38,2.33,2.38.19,0,.39-.02.59-.07,1.26-.28,1.9-1.13,1.9-2.56,0-4.76,0-9.52,0-14.28v-.66h1.15c0,.28,0,.51,0,.74,0,4.84,0,9.67,0,14.51,0,1.24.78,2.09,2.05,2.3.12.02.25.03.37.03.98,0,1.94-.63,2.22-1.57.12-.41.16-.87.16-1.3,0-8.52,0-17.04,0-25.56v-.77c.3,0,.5,0,.71,0,1.02,0,2.03,0,3.05,0,.69,0,1.38,0,2.08,0,0,0,.02,0,.03,0,.87,0,1.52-.36,1.98-1.11,1.07-1.73,2.15-3.44,3.22-5.17.71-1.14.47-2.37-.56-3.01Z"></path><path class="cls-3" d="M155.29,561.7c2.74,2.74,2.74,7.17,0,9.91l-33.48,33.48c-2.74,2.74-7.17,2.74-9.91,0l-33.48-33.48c-2.74-2.74-2.74-7.17,0-9.91l33.48-33.48c2.74-2.74,7.17-2.74,9.91,0l33.48,33.48ZM109.58,547.87c.17.77.67,1.41,1.32,1.8.76,3.05,3.52,5.31,6.8,5.31s6.03-2.25,6.79-5.29c.2-.12.38-.26.55-.42.56-.57.85-1.28.85-2.03,0-.87-.4-1.65-1.02-2.18-.17-1.11-.59-2.15-1.24-3.08-.29-.41-.7-.71-1.16-.87-.18-.44-.5-.82-.92-1.09-.45-.28-.92-.51-1.41-.69-.5-.61-1.26-1.01-2.11-1.01h-.7c-.85,0-1.61.39-2.11,1.01-.49.18-.95.4-1.4.68-.42.27-.74.65-.92,1.09-.46.16-.87.47-1.16.87-.65.93-1.07,1.97-1.24,3.08-.06.05-.12.11-.18.16-.7.7-.98,1.68-.76,2.64ZM134.7,552.44c-.66-.41-1.41-.63-2.17-.63-1.44,0-2.8.79-3.64,2.12l-.17.28c-.64,1.02-1.31,2.07-1.95,3.13-4.47,0-8.94-.01-13.41-.01h-4.12s-4.12,0-4.12,0h-4.15s-3.26,0-3.26,0h-7.65c-1.5,0-2.72,1.22-2.72,2.72v10.1c0,1.5,1.22,2.72,2.72,2.72h7.65c1.5,0,2.72-1.22,2.72-2.72v-5.03c.69.35,1.56.52,2.62.52h2.84s2.84,0,2.84,0h1.46v2.36s0,7.9,0,7.9v3.92c0,3.51,0,7.02,0,10.53,0,2.52,1.96,4.49,4.44,4.49.35,0,.7-.04,1.05-.12.78-.18,1.45-.5,1.99-.96.62.52,1.4.88,2.31,1.03.24.04.48.06.72.06,1.95,0,3.7-1.26,4.24-3.08.17-.55.25-1.18.25-1.91,0-7.07,0-14.15,0-21.22v-3s.11,0,.11,0h1.54c.69,0,1.37,0,2.06,0,1.64,0,2.98-.75,3.82-2.11.56-.9,1.12-1.8,1.68-2.7.51-.82,1.03-1.64,1.54-2.46,1.31-2.12.78-4.67-1.25-5.92Z"></path></g><g><path class="cls-3" d="M115.25,718.61h3.2l1.15-6.99c1.15-7.04,2.13-11.82,2.13-13.68,0-2.17-1.86-3.07-4.89-3.07s-4.89.9-4.89,3.07c0,1.86.98,6.64,2.14,13.68l1.15,6.99Z"></path><path class="cls-3" d="M154.19,735.29c1.83,3.17-.46,7.13-4.12,7.13h-66.43c-3.66,0-5.95-3.96-4.12-7.13l33.21-57.53c1.83-3.17,6.4-3.17,8.23,0l33.21,57.53ZM125.37,727.45c0-3.15-1.78-5.96-4.35-7.46.15-.28.26-.58.32-.91l1.15-6.99c.36-2.2.7-4.18,1.01-5.92.73-4.18,1.17-6.71,1.17-8.24,0-1.4-.56-5.99-7.81-5.99s-7.81,4.58-7.81,5.99c0,1.52.44,4.03,1.16,8.19.3,1.75.65,3.74,1.01,5.96l1.16,6.99c.05.33.17.63.32.91-2.57,1.5-4.35,4.31-4.35,7.46,0,4.7,3.82,8.52,8.52,8.52s8.52-3.82,8.52-8.52Z"></path></g></g><line class="cls-4" x1="183.6" y1="382.23" x2="183.6" y2="1020.23"></line></g><g><g><polygon class="cls-3" points="513.9 625.3 504.23 625.3 504.23 625.3 504.23 636.59 492.94 636.59 492.94 636.59 492.94 646.26 492.94 646.26 504.23 646.26 504.23 657.56 504.23 657.56 513.9 657.56 513.9 646.26 525.2 646.26 525.2 636.59 513.9 636.59 513.9 625.3"></polygon><path class="cls-3" d="M545.38,620.58v42.27c0,3.86-3.13,6.99-6.99,6.99h-58.63c-3.87,0-7-3.13-7-6.99v-42.27c0-3.86,3.13-7,7-7h5.78v-3.28c0-5.78,4.7-10.48,10.48-10.48h26.1c5.78,0,10.48,4.7,10.48,10.48v3.28h5.79c3.86,0,6.99,3.14,6.99,7ZM494.52,613.58h29.09v-3.28c0-.83-.67-1.5-1.5-1.5h-26.1c-.82,0-1.5.67-1.5,1.5v3.28ZM528.04,636.59c0-1.57-1.27-2.84-2.84-2.84h-8.45v-8.45c0-1.57-1.27-2.84-2.84-2.84h-9.67c-1.57,0-2.84,1.27-2.84,2.84v8.45h-8.45c-1.57,0-2.84,1.27-2.84,2.84v9.67c0,1.57,1.27,2.84,2.84,2.84h8.45v8.45c0,1.57,1.27,2.84,2.84,2.84h9.67c1.57,0,2.84-1.27,2.84-2.84v-8.45h8.45c1.57,0,2.84-1.27,2.84-2.84v-9.67Z"></path></g><g><path class="cls-3" d="M476.06,46.92c20.3-1.78,31.3-14.94,33.01-17.15,1.7,2.21,12.71,15.37,33.01,17.15,0,0,3.88,45.63-33.01,60.99-36.89-15.36-33.01-60.99-33.01-60.99ZM499.72,85.46c3.11.51,6.2,1.32,9.19,2.41h.01c.06.02.13.04.2.05.06.01.14.02.21.02s.14-.01.2-.02c.07-.01.14-.03.2-.05h.01c2.99-1.09,6.07-1.9,9.19-2.41,3.21-.53,6.47-.73,9.71-.6.33,0,.65-.12.88-.34.24-.23.37-.55.37-.87v-25.3c0-.63-.47-1.16-1.1-1.21-.06,0-1.35-.11-3.28-.16v-5.37c0-.33-.13-.64-.37-.87-.24-.23-.57-.35-.89-.34-8.53.41-13.01,4.74-14.78,7.01-1.78-2.27-6.25-6.6-14.78-7.01-.34-.01-.65.11-.89.34-.24.23-.38.55-.38.87v5.35c-2.07.06-3.46.18-3.54.18-.63.05-1.1.58-1.1,1.21v25.3c0,.33.13.64.37.87.23.22.55.34.88.34,3.24-.13,6.5.07,9.71.6Z"></path><path class="cls-3" d="M505.53,84.25c-4.63-3.43-11.13-5.1-11.22-5.12-.54-.14-.92-.62-.92-1.17v-18.56c-.89.02-1.65.06-2.22.09v22.92c2.99-.04,5.99.18,8.93.66,1.82.29,3.63.68,5.42,1.18Z"></path><path class="cls-3" d="M518.54,83.07c2.95-.48,5.95-.71,8.94-.66v-22.92c-.53-.03-1.19-.06-1.98-.08v18.55c0,.55-.37,1.03-.92,1.17-.07.02-6.45,1.65-11.07,5.02,1.65-.44,3.34-.8,5.02-1.07Z"></path><path class="cls-3" d="M495.82,77.03c2.26.66,8.17,2.64,12.3,6.19v-22.4c0-.07.01-.15.02-.21h-.02v-.9c-.73-1.16-4.21-5.95-12.3-6.78v5.24c0,.07-.01.14-.02.2h.02v18.67Z"></path><path class="cls-3" d="M523.08,58.38h.02c-.01-.06-.02-.14-.02-.21v-5.24c-8.04.83-11.56,5.65-12.29,6.78v23.52c4.12-3.55,10.03-5.52,12.29-6.19v-18.66Z"></path></g><g><path class="cls-3" d="M519.7,485.46c-1.08,0-1.97.88-1.97,1.96,0,.09,0,.17-.04.33v5.21c0,.67-.54,1.21-1.21,1.21s-1.21-.54-1.21-1.21v-8.71c0-.09.01-.18.04-.33v-2.04c0-1.08-.88-1.96-1.97-1.96s-1.97.88-1.97,1.96c0,.05,0,.11-.02.21v13.25c0,.67-.54,1.21-1.21,1.21s-1.21-.54-1.21-1.21v-15.83c0-.06,0-.11.02-.22v-2.16c0-1.08-.88-1.96-1.97-1.96s-1.97.88-1.97,1.96v2.26s0,.07,0,.11v15.83c0,.67-.54,1.21-1.21,1.21s-1.21-.54-1.21-1.21v-13.46c0-1.08-.89-1.96-1.97-1.96s-1.97.88-1.97,1.96v18.09c0,.45-.25.86-.65,1.07-.4.21-.88.18-1.25-.08l-2.64-1.84c-.06-.04-.11-.08-.16-.13-1.08-1.08-2.83-1.07-3.91,0-1.06,1.06-1.09,2.74-.02,3.86l6.76,5.57c.11.09.2.19.26.3l2.92,4.77c1.35,2.21,3.81,3.59,6.4,3.59h7.21c4.1,0,7.39-3.21,7.5-7.31l.57-22.38c-.01-1.07-.9-1.94-1.97-1.94Z"></path><path class="cls-3" d="M523.75,460.68l20.76,20.76v29.36l-20.76,20.76h-29.36l-20.76-20.76v-29.36l20.76-20.76h29.36ZM524.46,487.42c0-2.63-2.14-4.75-4.76-4.75-.56,0-1.1.1-1.6.27v-1.06c0-2.63-2.14-4.75-4.76-4.75-.56,0-1.09.1-1.59.27v-.27c0-2.63-2.14-4.75-4.76-4.75s-4.76,2.12-4.76,4.75v.27c-.5-.18-1.03-.27-1.59-.27-2.62,0-4.76,2.12-4.76,4.75v15.06l-.04-.03c-2.18-2.06-5.61-2.02-7.74.1-2.17,2.16-2.17,5.68,0,7.84.04.04.07.07.11.1l6.62,5.45,2.78,4.55c1.87,3.06,5.19,4.92,8.78,4.92h7.21c5.58,0,10.14-4.45,10.29-10.03l.57-22.39v-.04Z"></path></g><g><path class="cls-3" d="M504.61,197.97h.41c0,2.7,2.19,4.89,4.89,4.89s4.89-2.19,4.89-4.89h.45c.2,0,.38-.08.52-.22.13-.13.22-.32.22-.52,0-.4-.33-.73-.74-.73h-.21c0-.11.01-.23.01-.34,0-1.1-.35-2.12-.94-2.96-.06-.08-.14-.12-.22-.12-.11,0-.22.07-.26.19l-.05.17c-.07.26-.31.43-.57.43-.07,0-.14-.01-.21-.04-.29-.11-.43-.45-.34-.75l.28-.99c.03-.11-.01-.24-.11-.3-.54-.34-1.14-.58-1.78-.7v-.07c0-.33-.27-.61-.61-.61h-.7c-.33,0-.61.27-.61.61v.07c-.64.12-1.24.36-1.78.7-.1.06-.14.19-.11.3l.28.99c.07.26-.02.55-.25.69-.1.06-.2.08-.3.08-.25,0-.49-.17-.57-.43l-.05-.17c-.04-.13-.15-.19-.26-.19-.08,0-.17.04-.22.12-.59.84-.94,1.86-.94,2.96,0,.12,0,.23.01.34h-.21c-.2,0-.39.08-.52.22-.17.17-.26.42-.2.68.08.34.4.57.76.57Z"></path><path class="cls-3" d="M525.8,204.24c-.34-.21-.7-.31-1.05-.31-.7,0-1.39.4-1.86,1.14-.81,1.28-1.62,2.56-2.4,3.85-.23.39-.49.54-.95.54h0c-4.66-.01-9.32-.01-13.97-.01-2.75,0-5.49,0-8.24,0-2.47,0-4.94,0-7.42,0,0,0,0,0,0,0h-7.65c-.34,0-.61.27-.61.61v10.1c0,.34.27.61.61.61h7.65c.34,0,.61-.27.61-.61v-8.97h2.09c.21,1.87.76,2.34,2.65,2.34.95,0,1.89,0,2.84,0,1.89,0,3.79,0,5.68,0h.74v.74c0,3.88,0,7.75,0,11.63,0,4.82,0,9.63,0,14.45,0,1.4,1.03,2.38,2.33,2.38.19,0,.39-.02.59-.07,1.26-.28,1.9-1.13,1.9-2.56,0-4.76,0-9.52,0-14.28v-.66h1.15c0,.28,0,.51,0,.74,0,4.84,0,9.67,0,14.51,0,1.24.78,2.09,2.05,2.3.12.02.25.03.37.03.98,0,1.94-.63,2.22-1.57.12-.41.16-.87.16-1.3,0-8.52,0-17.04,0-25.56v-.77c.3,0,.5,0,.71,0,1.02,0,2.03,0,3.05,0,.69,0,1.38,0,2.08,0,0,0,.02,0,.03,0,.87,0,1.52-.36,1.98-1.11,1.07-1.73,2.15-3.44,3.22-5.17.71-1.14.47-2.37-.56-3.01Z"></path><path class="cls-3" d="M547.5,211.7c2.74,2.74,2.74,7.17,0,9.91l-33.48,33.48c-2.74,2.74-7.17,2.74-9.91,0l-33.48-33.48c-2.74-2.74-2.74-7.17,0-9.91l33.48-33.48c2.74-2.74,7.17-2.74,9.91,0l33.48,33.48ZM501.79,197.87c.17.77.67,1.41,1.32,1.8.76,3.05,3.52,5.31,6.8,5.31s6.03-2.25,6.79-5.29c.2-.12.38-.26.55-.42.56-.57.85-1.28.85-2.03,0-.87-.4-1.65-1.02-2.18-.17-1.11-.59-2.15-1.24-3.08-.29-.41-.7-.71-1.16-.87-.18-.44-.5-.82-.92-1.09-.45-.28-.92-.51-1.41-.69-.5-.61-1.26-1.01-2.11-1.01h-.7c-.85,0-1.61.39-2.11,1.01-.49.18-.95.4-1.4.68-.42.27-.74.65-.92,1.09-.46.16-.87.47-1.16.87-.65.93-1.07,1.97-1.24,3.08-.06.05-.12.11-.18.16-.7.7-.98,1.68-.76,2.64ZM526.91,202.44c-.66-.41-1.41-.63-2.17-.63-1.44,0-2.8.79-3.64,2.12l-.17.28c-.64,1.02-1.31,2.07-1.95,3.13-4.47,0-8.94-.01-13.41-.01h-4.12s-4.12,0-4.12,0h-4.15s-3.26,0-3.26,0h-7.65c-1.5,0-2.72,1.22-2.72,2.72v10.1c0,1.5,1.22,2.72,2.72,2.72h7.65c1.5,0,2.72-1.22,2.72-2.72v-5.03c.69.35,1.56.52,2.62.52h2.84s2.84,0,2.84,0h1.46v2.36s0,7.9,0,7.9v3.92c0,3.51,0,7.02,0,10.53,0,2.52,1.96,4.49,4.44,4.49.35,0,.7-.04,1.05-.12.78-.18,1.45-.5,1.99-.96.62.52,1.4.88,2.31,1.03.24.04.48.06.72.06,1.95,0,3.7-1.26,4.24-3.08.17-.55.25-1.18.25-1.91,0-7.07,0-14.15,0-21.22v-3s.11,0,.11,0h1.54c.69,0,1.37,0,2.06,0,1.64,0,2.98-.75,3.82-2.11.56-.9,1.12-1.8,1.68-2.7.51-.82,1.03-1.64,1.54-2.46,1.31-2.12.78-4.67-1.25-5.92Z"></path></g><g><path class="cls-3" d="M507.46,368.61h3.2l1.15-6.99c1.15-7.04,2.13-11.82,2.13-13.68,0-2.17-1.86-3.07-4.89-3.07s-4.89.9-4.89,3.07c0,1.86.98,6.64,2.14,13.68l1.15,6.99Z"></path><path class="cls-3" d="M509.06,371.76c-3.11,0-5.6,2.66-5.6,5.69s2.49,5.6,5.6,5.6,5.6-2.58,5.6-5.6-2.49-5.69-5.6-5.69Z"></path><path class="cls-3" d="M546.4,385.29c1.83,3.17-.46,7.13-4.12,7.13h-66.43c-3.66,0-5.95-3.96-4.12-7.13l33.21-57.53c1.83-3.17,6.4-3.17,8.23,0l33.21,57.53ZM517.58,377.45c0-3.15-1.78-5.96-4.35-7.46.15-.28.26-.58.32-.91l1.15-6.99c.36-2.2.7-4.18,1.01-5.92.73-4.18,1.17-6.71,1.17-8.24,0-1.4-.56-5.99-7.81-5.99s-7.81,4.58-7.81,5.99c0,1.52.44,4.03,1.16,8.19.3,1.75.65,3.74,1.01,5.96l1.16,6.99c.05.33.17.63.32.91-2.57,1.5-4.35,4.31-4.35,7.46,0,4.7,3.82,8.52,8.52,8.52s8.52-3.82,8.52-8.52Z"></path></g></g><g><g><g><polygon class="cls-3" points="383.17 275.3 373.5 275.3 373.5 275.3 373.5 286.59 362.21 286.59 362.21 286.59 362.21 296.26 362.21 296.26 373.5 296.26 373.5 307.56 373.5 307.56 383.17 307.56 383.17 296.26 394.46 296.26 394.46 286.59 383.17 286.59 383.17 275.3"></polygon><path class="cls-3" d="M414.64,270.58v42.27c0,3.86-3.13,6.99-6.99,6.99h-58.63c-3.87,0-7-3.13-7-6.99v-42.27c0-3.86,3.13-7,7-7h5.78v-3.28c0-5.78,4.7-10.48,10.48-10.48h26.1c5.78,0,10.48,4.7,10.48,10.48v3.28h5.79c3.86,0,6.99,3.14,6.99,7ZM363.78,263.58h29.09v-3.28c0-.83-.67-1.5-1.5-1.5h-26.1c-.82,0-1.5.67-1.5,1.5v3.28ZM397.3,286.59c0-1.57-1.27-2.84-2.84-2.84h-8.45v-8.45c0-1.57-1.27-2.84-2.84-2.84h-9.67c-1.57,0-2.84,1.27-2.84,2.84v8.45h-8.45c-1.57,0-2.84,1.27-2.84,2.84v9.67c0,1.57,1.27,2.84,2.84,2.84h8.45v8.45c0,1.57,1.27,2.84,2.84,2.84h9.67c1.57,0,2.84-1.27,2.84-2.84v-8.45h8.45c1.57,0,2.84-1.27,2.84-2.84v-9.67Z"></path></g><g><path class="cls-3" d="M388.96,135.46c-1.08,0-1.97.88-1.97,1.96,0,.09,0,.17-.04.33v5.21c0,.67-.54,1.21-1.21,1.21s-1.21-.54-1.21-1.21v-8.71c0-.09.01-.18.04-.33v-2.04c0-1.08-.88-1.96-1.97-1.96s-1.97.88-1.97,1.96c0,.05,0,.11-.02.21v13.25c0,.67-.54,1.21-1.21,1.21s-1.21-.54-1.21-1.21v-15.83c0-.06,0-.11.02-.22v-2.16c0-1.08-.88-1.96-1.97-1.96s-1.97.88-1.97,1.96v2.26s0,.07,0,.11v15.83c0,.67-.54,1.21-1.21,1.21s-1.21-.54-1.21-1.21v-13.46c0-1.08-.89-1.96-1.97-1.96s-1.97.88-1.97,1.96v18.09c0,.45-.25.86-.65,1.07-.4.21-.88.18-1.25-.08l-2.64-1.84c-.06-.04-.11-.08-.16-.13-1.08-1.08-2.83-1.07-3.91,0-1.06,1.06-1.09,2.74-.02,3.86l6.76,5.57c.11.09.2.19.26.3l2.92,4.77c1.35,2.21,3.81,3.59,6.4,3.59h7.21c4.1,0,7.39-3.21,7.5-7.31l.57-22.38c-.01-1.07-.9-1.94-1.97-1.94Z"></path><path class="cls-3" d="M393.01,110.68l20.76,20.76v29.36l-20.76,20.76h-29.36l-20.76-20.76v-29.36l20.76-20.76h29.36ZM393.72,137.42c0-2.63-2.14-4.75-4.76-4.75-.56,0-1.1.1-1.6.27v-1.06c0-2.63-2.14-4.75-4.76-4.75-.56,0-1.09.1-1.59.27v-.27c0-2.63-2.14-4.75-4.76-4.75s-4.76,2.12-4.76,4.75v.27c-.5-.18-1.03-.27-1.59-.27-2.62,0-4.76,2.12-4.76,4.75v15.06l-.04-.03c-2.18-2.06-5.61-2.02-7.74.1-2.17,2.16-2.17,5.68,0,7.84.04.04.07.07.11.1l6.62,5.45,2.78,4.55c1.87,3.06,5.19,4.92,8.78,4.92h7.21c5.58,0,10.14-4.45,10.29-10.03l.57-22.39v-.04Z"></path></g><g><path class="cls-3" d="M376.73,18.61h3.2l1.15-6.99c1.15-7.04,2.13-11.82,2.13-13.68,0-2.17-1.86-3.07-4.89-3.07s-4.89.9-4.89,3.07c0,1.86.98,6.64,2.14,13.68l1.15,6.99Z"></path><path class="cls-3" d="M378.33,21.76c-3.11,0-5.6,2.66-5.6,5.69s2.49,5.6,5.6,5.6,5.6-2.58,5.6-5.6-2.49-5.69-5.6-5.69Z"></path><path class="cls-3" d="M415.66,35.29c1.83,3.17-.46,7.13-4.12,7.13h-66.43c-3.66,0-5.95-3.96-4.12-7.13l33.21-57.53c1.83-3.17,6.4-3.17,8.23,0l33.21,57.53ZM386.85,27.45c0-3.15-1.78-5.96-4.35-7.46.15-.28.26-.58.32-.91l1.15-6.99c.36-2.2.7-4.18,1.01-5.92.73-4.18,1.17-6.71,1.17-8.24,0-1.4-.56-5.99-7.81-5.99s-7.81,4.58-7.81,5.99c0,1.52.44,4.03,1.16,8.19.3,1.75.65,3.74,1.01,5.96l1.16,6.99c.05.33.17.63.32.91-2.57,1.5-4.35,4.31-4.35,7.46,0,4.7,3.82,8.52,8.52,8.52s8.52-3.82,8.52-8.52Z"></path></g></g><line class="cls-4" x1="445.08" y1="-317.77" x2="445.08" y2="320.23"></line></g><g><g><g><polygon class="cls-3" points="252.43 625.3 242.76 625.3 242.76 625.3 242.76 636.59 231.47 636.59 231.47 636.59 231.47 646.26 231.47 646.26 242.76 646.26 242.76 657.56 242.76 657.56 252.43 657.56 252.43 646.26 263.72 646.26 263.72 636.59 252.43 636.59 252.43 625.3"></polygon><path class="cls-3" d="M283.9,620.58v42.27c0,3.86-3.13,6.99-6.99,6.99h-58.63c-3.87,0-7-3.13-7-6.99v-42.27c0-3.86,3.13-7,7-7h5.78v-3.28c0-5.78,4.7-10.48,10.48-10.48h26.1c5.78,0,10.48,4.7,10.48,10.48v3.28h5.79c3.86,0,6.99,3.14,6.99,7ZM233.05,613.58h29.09v-3.28c0-.83-.67-1.5-1.5-1.5h-26.1c-.82,0-1.5.67-1.5,1.5v3.28ZM266.56,636.59c0-1.57-1.27-2.84-2.84-2.84h-8.45v-8.45c0-1.57-1.27-2.84-2.84-2.84h-9.67c-1.57,0-2.84,1.27-2.84,2.84v8.45h-8.45c-1.57,0-2.84,1.27-2.84,2.84v9.67c0,1.57,1.27,2.84,2.84,2.84h8.45v8.45c0,1.57,1.27,2.84,2.84,2.84h9.67c1.57,0,2.84-1.27,2.84-2.84v-8.45h8.45c1.57,0,2.84-1.27,2.84-2.84v-9.67Z"></path></g><g><path class="cls-3" d="M214.58,46.92c20.3-1.78,31.3-14.94,33.01-17.15,1.7,2.21,12.71,15.37,33.01,17.15,0,0,3.88,45.63-33.01,60.99-36.89-15.36-33.01-60.99-33.01-60.99ZM238.25,85.46c3.11.51,6.2,1.32,9.19,2.41h.01c.06.02.13.04.2.05.06.01.14.02.21.02s.14-.01.2-.02c.07-.01.14-.03.2-.05h.01c2.99-1.09,6.07-1.9,9.19-2.41,3.21-.53,6.47-.73,9.71-.6.33,0,.65-.12.88-.34.24-.23.37-.55.37-.87v-25.3c0-.63-.47-1.16-1.1-1.21-.06,0-1.35-.11-3.28-.16v-5.37c0-.33-.13-.64-.37-.87-.24-.23-.57-.35-.89-.34-8.53.41-13.01,4.74-14.78,7.01-1.78-2.27-6.25-6.6-14.78-7.01-.34-.01-.65.11-.89.34-.24.23-.38.55-.38.87v5.35c-2.07.06-3.46.18-3.54.18-.63.05-1.1.58-1.1,1.21v25.3c0,.33.13.64.37.87.23.22.55.34.88.34,3.24-.13,6.5.07,9.71.6Z"></path><path class="cls-3" d="M244.06,84.25c-4.63-3.43-11.13-5.1-11.22-5.12-.54-.14-.92-.62-.92-1.17v-18.56c-.89.02-1.65.06-2.22.09v22.92c2.99-.04,5.99.18,8.93.66,1.82.29,3.63.68,5.42,1.18Z"></path><path class="cls-3" d="M257.06,83.07c2.95-.48,5.95-.71,8.94-.66v-22.92c-.53-.03-1.19-.06-1.98-.08v18.55c0,.55-.37,1.03-.92,1.17-.07.02-6.45,1.65-11.07,5.02,1.65-.44,3.34-.8,5.02-1.07Z"></path><path class="cls-3" d="M234.34,77.03c2.26.66,8.17,2.64,12.3,6.19v-22.4c0-.07.01-.15.02-.21h-.02v-.9c-.73-1.16-4.21-5.95-12.3-6.78v5.24c0,.07-.01.14-.02.2h.02v18.67Z"></path><path class="cls-3" d="M261.61,58.38h.02c-.01-.06-.02-.14-.02-.21v-5.24c-8.04.83-11.56,5.65-12.29,6.78v23.52c4.12-3.55,10.03-5.52,12.29-6.19v-18.66Z"></path></g><g><path class="cls-3" d="M258.23,485.46c-1.08,0-1.97.88-1.97,1.96,0,.09,0,.17-.04.33v5.21c0,.67-.54,1.21-1.21,1.21s-1.21-.54-1.21-1.21v-8.71c0-.09.01-.18.04-.33v-2.04c0-1.08-.88-1.96-1.97-1.96s-1.97.88-1.97,1.96c0,.05,0,.11-.02.21v13.25c0,.67-.54,1.21-1.21,1.21s-1.21-.54-1.21-1.21v-15.83c0-.06,0-.11.02-.22v-2.16c0-1.08-.88-1.96-1.97-1.96s-1.97.88-1.97,1.96v2.26s0,.07,0,.11v15.83c0,.67-.54,1.21-1.21,1.21s-1.21-.54-1.21-1.21v-13.46c0-1.08-.89-1.96-1.97-1.96s-1.97.88-1.97,1.96v18.09c0,.45-.25.86-.65,1.07-.4.21-.88.18-1.25-.08l-2.64-1.84c-.06-.04-.11-.08-.16-.13-1.08-1.08-2.83-1.07-3.91,0-1.06,1.06-1.09,2.74-.02,3.86l6.76,5.57c.11.09.2.19.26.3l2.92,4.77c1.35,2.21,3.81,3.59,6.4,3.59h7.21c4.1,0,7.39-3.21,7.5-7.31l.57-22.38c-.01-1.07-.9-1.94-1.97-1.94Z"></path><path class="cls-3" d="M262.27,460.68l20.76,20.76v29.36l-20.76,20.76h-29.36l-20.76-20.76v-29.36l20.76-20.76h29.36ZM262.98,487.42c0-2.63-2.14-4.75-4.76-4.75-.56,0-1.1.1-1.6.27v-1.06c0-2.63-2.14-4.75-4.76-4.75-.56,0-1.09.1-1.59.27v-.27c0-2.63-2.14-4.75-4.76-4.75s-4.76,2.12-4.76,4.75v.27c-.5-.18-1.03-.27-1.59-.27-2.62,0-4.76,2.12-4.76,4.75v15.06l-.04-.03c-2.18-2.06-5.61-2.02-7.74.1-2.17,2.16-2.17,5.68,0,7.84.04.04.07.07.11.1l6.62,5.45,2.78,4.55c1.87,3.06,5.19,4.92,8.78,4.92h7.21c5.58,0,10.14-4.45,10.29-10.03l.57-22.39v-.04Z"></path></g><g><path class="cls-3" d="M243.14,197.97h.41c0,2.7,2.19,4.89,4.89,4.89s4.89-2.19,4.89-4.89h.45c.2,0,.38-.08.52-.22.13-.13.22-.32.22-.52,0-.4-.33-.73-.74-.73h-.21c0-.11.01-.23.01-.34,0-1.1-.35-2.12-.94-2.96-.06-.08-.14-.12-.22-.12-.11,0-.22.07-.26.19l-.05.17c-.07.26-.31.43-.57.43-.07,0-.14-.01-.21-.04-.29-.11-.43-.45-.34-.75l.28-.99c.03-.11-.01-.24-.11-.3-.54-.34-1.14-.58-1.78-.7v-.07c0-.33-.27-.61-.61-.61h-.7c-.33,0-.61.27-.61.61v.07c-.64.12-1.24.36-1.78.7-.1.06-.14.19-.11.3l.28.99c.07.26-.02.55-.25.69-.1.06-.2.08-.3.08-.25,0-.49-.17-.57-.43l-.05-.17c-.04-.13-.15-.19-.26-.19-.08,0-.17.04-.22.12-.59.84-.94,1.86-.94,2.96,0,.12,0,.23.01.34h-.21c-.2,0-.39.08-.52.22-.17.17-.26.42-.2.68.08.34.4.57.76.57Z"></path><path class="cls-3" d="M264.32,204.24c-.34-.21-.7-.31-1.05-.31-.7,0-1.39.4-1.86,1.14-.81,1.28-1.62,2.56-2.4,3.85-.23.39-.49.54-.95.54h0c-4.66-.01-9.32-.01-13.97-.01-2.75,0-5.49,0-8.24,0-2.47,0-4.94,0-7.42,0,0,0,0,0,0,0h-7.65c-.34,0-.61.27-.61.61v10.1c0,.34.27.61.61.61h7.65c.34,0,.61-.27.61-.61v-8.97h2.09c.21,1.87.76,2.34,2.65,2.34.95,0,1.89,0,2.84,0,1.89,0,3.79,0,5.68,0h.74v.74c0,3.88,0,7.75,0,11.63,0,4.82,0,9.63,0,14.45,0,1.4,1.03,2.38,2.33,2.38.19,0,.39-.02.59-.07,1.26-.28,1.9-1.13,1.9-2.56,0-4.76,0-9.52,0-14.28v-.66h1.15c0,.28,0,.51,0,.74,0,4.84,0,9.67,0,14.51,0,1.24.78,2.09,2.05,2.3.12.02.25.03.37.03.98,0,1.94-.63,2.22-1.57.12-.41.16-.87.16-1.3,0-8.52,0-17.04,0-25.56v-.77c.3,0,.5,0,.71,0,1.02,0,2.03,0,3.05,0,.69,0,1.38,0,2.08,0,0,0,.02,0,.03,0,.87,0,1.52-.36,1.98-1.11,1.07-1.73,2.15-3.44,3.22-5.17.71-1.14.47-2.37-.56-3.01Z"></path><path class="cls-3" d="M286.03,211.7c2.74,2.74,2.74,7.17,0,9.91l-33.48,33.48c-2.74,2.74-7.17,2.74-9.91,0l-33.48-33.48c-2.74-2.74-2.74-7.17,0-9.91l33.48-33.48c2.74-2.74,7.17-2.74,9.91,0l33.48,33.48ZM240.32,197.87c.17.77.67,1.41,1.32,1.8.76,3.05,3.52,5.31,6.8,5.31s6.03-2.25,6.79-5.29c.2-.12.38-.26.55-.42.56-.57.85-1.28.85-2.03,0-.87-.4-1.65-1.02-2.18-.17-1.11-.59-2.15-1.24-3.08-.29-.41-.7-.71-1.16-.87-.18-.44-.5-.82-.92-1.09-.45-.28-.92-.51-1.41-.69-.5-.61-1.26-1.01-2.11-1.01h-.7c-.85,0-1.61.39-2.11,1.01-.49.18-.95.4-1.4.68-.42.27-.74.65-.92,1.09-.46.16-.87.47-1.16.87-.65.93-1.07,1.97-1.24,3.08-.06.05-.12.11-.18.16-.7.7-.98,1.68-.76,2.64ZM265.44,202.44c-.66-.41-1.41-.63-2.17-.63-1.44,0-2.8.79-3.64,2.12l-.17.28c-.64,1.02-1.31,2.07-1.95,3.13-4.47,0-8.94-.01-13.41-.01h-4.12s-4.12,0-4.12,0h-4.15s-3.26,0-3.26,0h-7.65c-1.5,0-2.72,1.22-2.72,2.72v10.1c0,1.5,1.22,2.72,2.72,2.72h7.65c1.5,0,2.72-1.22,2.72-2.72v-5.03c.69.35,1.56.52,2.62.52h2.84s2.84,0,2.84,0h1.46v2.36s0,7.9,0,7.9v3.92c0,3.51,0,7.02,0,10.53,0,2.52,1.96,4.49,4.44,4.49.35,0,.7-.04,1.05-.12.78-.18,1.45-.5,1.99-.96.62.52,1.4.88,2.31,1.03.24.04.48.06.72.06,1.95,0,3.7-1.26,4.24-3.08.17-.55.25-1.18.25-1.91,0-7.07,0-14.15,0-21.22v-3s.11,0,.11,0h1.54c.69,0,1.37,0,2.06,0,1.64,0,2.98-.75,3.82-2.11.56-.9,1.12-1.8,1.68-2.7.51-.82,1.03-1.64,1.54-2.46,1.31-2.12.78-4.67-1.25-5.92Z"></path></g><g><path class="cls-3" d="M245.99,368.61h3.2l1.15-6.99c1.15-7.04,2.13-11.82,2.13-13.68,0-2.17-1.86-3.07-4.89-3.07s-4.89.9-4.89,3.07c0,1.86.98,6.64,2.14,13.68l1.15,6.99Z"></path><path class="cls-3" d="M247.59,371.76c-3.11,0-5.6,2.66-5.6,5.69s2.49,5.6,5.6,5.6,5.6-2.58,5.6-5.6-2.49-5.69-5.6-5.69Z"></path><path class="cls-3" d="M284.92,385.29c1.83,3.17-.46,7.13-4.12,7.13h-66.43c-3.66,0-5.95-3.96-4.12-7.13l33.21-57.53c1.83-3.17,6.4-3.17,8.23,0l33.21,57.53ZM256.11,377.45c0-3.15-1.78-5.96-4.35-7.46.15-.28.26-.58.32-.91l1.15-6.99c.36-2.2.7-4.18,1.01-5.92.73-4.18,1.17-6.71,1.17-8.24,0-1.4-.56-5.99-7.81-5.99s-7.81,4.58-7.81,5.99c0,1.52.44,4.03,1.16,8.19.3,1.75.65,3.74,1.01,5.96l1.16,6.99c.05.33.17.63.32.91-2.57,1.5-4.35,4.31-4.35,7.46,0,4.7,3.82,8.52,8.52,8.52s8.52-3.82,8.52-8.52Z"></path></g></g><line class="cls-4" x1="314.34" y1="32.23" x2="314.34" y2="670.23"></line></g><g><g><g><polygon class="cls-3" points="121.7 275.3 112.02 275.3 112.02 275.3 112.02 286.59 100.73 286.59 100.73 286.59 100.73 296.26 100.73 296.26 112.02 296.26 112.02 307.56 112.02 307.56 121.7 307.56 121.7 296.26 132.99 296.26 132.99 286.59 121.7 286.59 121.7 275.3"></polygon><path class="cls-3" d="M153.17,270.58v42.27c0,3.86-3.13,6.99-6.99,6.99h-58.63c-3.87,0-7-3.13-7-6.99v-42.27c0-3.86,3.13-7,7-7h5.78v-3.28c0-5.78,4.7-10.48,10.48-10.48h26.1c5.78,0,10.48,4.7,10.48,10.48v3.28h5.79c3.86,0,6.99,3.14,6.99,7ZM102.31,263.58h29.09v-3.28c0-.83-.67-1.5-1.5-1.5h-26.1c-.82,0-1.5.67-1.5,1.5v3.28ZM135.83,286.59c0-1.57-1.27-2.84-2.84-2.84h-8.45v-8.45c0-1.57-1.27-2.84-2.84-2.84h-9.67c-1.57,0-2.84,1.27-2.84,2.84v8.45h-8.45c-1.57,0-2.84,1.27-2.84,2.84v9.67c0,1.57,1.27,2.84,2.84,2.84h8.45v8.45c0,1.57,1.27,2.84,2.84,2.84h9.67c1.57,0,2.84-1.27,2.84-2.84v-8.45h8.45c1.57,0,2.84-1.27,2.84-2.84v-9.67Z"></path></g><g><path class="cls-3" d="M127.49,135.46c-1.08,0-1.97.88-1.97,1.96,0,.09,0,.17-.04.33v5.21c0,.67-.54,1.21-1.21,1.21s-1.21-.54-1.21-1.21v-8.71c0-.09.01-.18.04-.33v-2.04c0-1.08-.88-1.96-1.97-1.96s-1.97.88-1.97,1.96c0,.05,0,.11-.02.21v13.25c0,.67-.54,1.21-1.21,1.21s-1.21-.54-1.21-1.21v-15.83c0-.06,0-.11.02-.22v-2.16c0-1.08-.88-1.96-1.97-1.96s-1.97.88-1.97,1.96v2.26s0,.07,0,.11v15.83c0,.67-.54,1.21-1.21,1.21s-1.21-.54-1.21-1.21v-13.46c0-1.08-.89-1.96-1.97-1.96s-1.97.88-1.97,1.96v18.09c0,.45-.25.86-.65,1.07-.4.21-.88.18-1.25-.08l-2.64-1.84c-.06-.04-.11-.08-.16-.13-1.08-1.08-2.83-1.07-3.91,0-1.06,1.06-1.09,2.74-.02,3.86l6.76,5.57c.11.09.2.19.26.3l2.92,4.77c1.35,2.21,3.81,3.59,6.4,3.59h7.21c4.1,0,7.39-3.21,7.5-7.31l.57-22.38c-.01-1.07-.9-1.94-1.97-1.94Z"></path><path class="cls-3" d="M131.54,110.68l20.76,20.76v29.36l-20.76,20.76h-29.36l-20.76-20.76v-29.36l20.76-20.76h29.36ZM132.25,137.42c0-2.63-2.14-4.75-4.76-4.75-.56,0-1.1.1-1.6.27v-1.06c0-2.63-2.14-4.75-4.76-4.75-.56,0-1.09.1-1.59.27v-.27c0-2.63-2.14-4.75-4.76-4.75s-4.76,2.12-4.76,4.75v.27c-.5-.18-1.03-.27-1.59-.27-2.62,0-4.76,2.12-4.76,4.75v15.06l-.04-.03c-2.18-2.06-5.61-2.02-7.74.1-2.17,2.16-2.17,5.68,0,7.84.04.04.07.07.11.1l6.62,5.45,2.78,4.55c1.87,3.06,5.19,4.92,8.78,4.92h7.21c5.58,0,10.14-4.45,10.29-10.03l.57-22.39v-.04Z"></path></g><g><path class="cls-3" d="M115.25,18.61h3.2l1.15-6.99c1.15-7.04,2.13-11.82,2.13-13.68,0-2.17-1.86-3.07-4.89-3.07s-4.89.9-4.89,3.07c0,1.86.98,6.64,2.14,13.68l1.15,6.99Z"></path><path class="cls-3" d="M116.85,21.76c-3.11,0-5.6,2.66-5.6,5.69s2.49,5.6,5.6,5.6,5.6-2.58,5.6-5.6-2.49-5.69-5.6-5.69Z"></path><path class="cls-3" d="M154.19,35.29c1.83,3.17-.46,7.13-4.12,7.13h-66.43c-3.66,0-5.95-3.96-4.12-7.13l33.21-57.53c1.83-3.17,6.4-3.17,8.23,0l33.21,57.53ZM125.37,27.45c0-3.15-1.78-5.96-4.35-7.46.15-.28.26-.58.32-.91l1.15-6.99c.36-2.2.7-4.18,1.01-5.92.73-4.18,1.17-6.71,1.17-8.24,0-1.4-.56-5.99-7.81-5.99s-7.81,4.58-7.81,5.99c0,1.52.44,4.03,1.16,8.19.3,1.75.65,3.74,1.01,5.96l1.16,6.99c.05.33.17.63.32.91-2.57,1.5-4.35,4.31-4.35,7.46,0,4.7,3.82,8.52,8.52,8.52s8.52-3.82,8.52-8.52Z"></path></g></g><line class="cls-4" x1="183.6" y1="-317.77" x2="183.6" y2="320.23"></line></g><g><g><g><polygon class="cls-3" points="-9.04 625.3 -18.71 625.3 -18.71 625.3 -18.71 636.59 -30 636.59 -30 636.59 -30 646.26 -30 646.26 -18.71 646.26 -18.71 657.56 -18.71 657.56 -9.04 657.56 -9.04 646.26 2.25 646.26 2.25 636.59 -9.04 636.59 -9.04 625.3"></polygon><path class="cls-3" d="M22.43,620.58v42.27c0,3.86-3.13,6.99-6.99,6.99h-58.63c-3.87,0-7-3.13-7-6.99v-42.27c0-3.86,3.13-7,7-7h5.78v-3.28c0-5.78,4.7-10.48,10.48-10.48H-.83c5.78,0,10.48,4.7,10.48,10.48v3.28h5.79c3.86,0,6.99,3.14,6.99,7ZM-28.43,613.58H.67v-3.28c0-.83-.67-1.5-1.5-1.5h-26.1c-.82,0-1.5.67-1.5,1.5v3.28ZM5.09,636.59c0-1.57-1.27-2.84-2.84-2.84H-6.2v-8.45c0-1.57-1.27-2.84-2.84-2.84h-9.67c-1.57,0-2.84,1.27-2.84,2.84v8.45h-8.45c-1.57,0-2.84,1.27-2.84,2.84v9.67c0,1.57,1.27,2.84,2.84,2.84h8.45v8.45c0,1.57,1.27,2.84,2.84,2.84h9.67c1.57,0,2.84-1.27,2.84-2.84v-8.45H2.25c1.57,0,2.84-1.27,2.84-2.84v-9.67Z"></path></g><g><path class="cls-3" d="M-46.89,46.92c20.3-1.78,31.3-14.94,33.01-17.15,1.7,2.21,12.71,15.37,33.01,17.15,0,0,3.88,45.63-33.01,60.99-36.89-15.36-33.01-60.99-33.01-60.99ZM-23.22,85.46c3.11.51,6.2,1.32,9.19,2.41h.01c.06.02.13.04.2.05.06.01.14.02.21.02s.14-.01.2-.02c.07-.01.14-.03.2-.05h.01c2.99-1.09,6.07-1.9,9.19-2.41,3.21-.53,6.47-.73,9.71-.6.33,0,.65-.12.88-.34.24-.23.37-.55.37-.87v-25.3c0-.63-.47-1.16-1.1-1.21-.06,0-1.35-.11-3.28-.16v-5.37c0-.33-.13-.64-.37-.87-.24-.23-.57-.35-.89-.34-8.53.41-13.01,4.74-14.78,7.01-1.78-2.27-6.25-6.6-14.78-7.01-.34-.01-.65.11-.89.34-.24.23-.38.55-.38.87v5.35c-2.07.06-3.46.18-3.54.18-.63.05-1.1.58-1.1,1.21v25.3c0,.33.13.64.37.87.23.22.55.34.88.34,3.24-.13,6.5.07,9.71.6Z"></path><path class="cls-3" d="M-4.41,83.07c2.95-.48,5.95-.71,8.94-.66v-22.92c-.53-.03-1.19-.06-1.98-.08v18.55c0,.55-.37,1.03-.92,1.17-.07.02-6.45,1.65-11.07,5.02,1.65-.44,3.34-.8,5.02-1.07Z"></path><path class="cls-3" d="M.14,58.38h.02c-.01-.06-.02-.14-.02-.21v-5.24c-8.04.83-11.56,5.65-12.29,6.78v23.52c4.12-3.55,10.03-5.52,12.29-6.19v-18.66Z"></path></g><path class="cls-3" d="M.8,460.68l20.76,20.76v29.36l-20.76,20.76h-29.36l-20.76-20.76v-29.36l20.76-20.76H.8ZM1.51,487.42c0-2.63-2.14-4.75-4.76-4.75-.56,0-1.1.1-1.6.27v-1.06c0-2.63-2.14-4.75-4.76-4.75-.56,0-1.09.1-1.59.27v-.27c0-2.63-2.14-4.75-4.76-4.75s-4.76,2.12-4.76,4.75v.27c-.5-.18-1.03-.27-1.59-.27-2.62,0-4.76,2.12-4.76,4.75v15.06l-.04-.03c-2.18-2.06-5.61-2.02-7.74.1-2.17,2.16-2.17,5.68,0,7.84.04.04.07.07.11.1l6.62,5.45,2.78,4.55c1.87,3.06,5.19,4.92,8.78,4.92h7.21c5.58,0,10.14-4.45,10.29-10.03l.57-22.39v-.04Z"></path><g><path class="cls-3" d="M2.85,204.24c-.34-.21-.7-.31-1.05-.31-.7,0-1.39.4-1.86,1.14-.81,1.28-1.62,2.56-2.4,3.85-.23.39-.49.54-.95.54h0c-4.66-.01-9.32-.01-13.97-.01-2.75,0-5.49,0-8.24,0-2.47,0-4.94,0-7.42,0,0,0,0,0,0,0h-7.65c-.34,0-.61.27-.61.61v10.1c0,.34.27.61.61.61h7.65c.34,0,.61-.27.61-.61v-8.97h2.09c.21,1.87.76,2.34,2.65,2.34.95,0,1.89,0,2.84,0,1.89,0,3.79,0,5.68,0h.74v.74c0,3.88,0,7.75,0,11.63,0,4.82,0,9.63,0,14.45,0,1.4,1.03,2.38,2.33,2.38.19,0,.39-.02.59-.07,1.26-.28,1.9-1.13,1.9-2.56,0-4.76,0-9.52,0-14.28v-.66h1.15c0,.28,0,.51,0,.74,0,4.84,0,9.67,0,14.51,0,1.24.78,2.09,2.05,2.3.12.02.25.03.37.03.98,0,1.94-.63,2.22-1.57.12-.41.16-.87.16-1.3,0-8.52,0-17.04,0-25.56v-.77c.3,0,.5,0,.71,0,1.02,0,2.03,0,3.05,0,.69,0,1.38,0,2.08,0,0,0,.02,0,.03,0,.87,0,1.52-.36,1.98-1.11,1.07-1.73,2.15-3.44,3.22-5.17.71-1.14.47-2.37-.56-3.01Z"></path><path class="cls-3" d="M24.56,211.7c2.74,2.74,2.74,7.17,0,9.91l-33.48,33.48c-2.74,2.74-7.17,2.74-9.91,0l-33.48-33.48c-2.74-2.74-2.74-7.17,0-9.91l33.48-33.48c2.74-2.74,7.17-2.74,9.91,0l33.48,33.48ZM-21.15,197.87c.17.77.67,1.41,1.32,1.8.76,3.05,3.52,5.31,6.8,5.31s6.03-2.25,6.79-5.29c.2-.12.38-.26.55-.42.56-.57.85-1.28.85-2.03,0-.87-.4-1.65-1.02-2.18-.17-1.11-.59-2.15-1.24-3.08-.29-.41-.7-.71-1.16-.87-.18-.44-.5-.82-.92-1.09-.45-.28-.92-.51-1.41-.69-.5-.61-1.26-1.01-2.11-1.01h-.7c-.85,0-1.61.39-2.11,1.01-.49.18-.95.4-1.4.68-.42.27-.74.65-.92,1.09-.46.16-.87.47-1.16.87-.65.93-1.07,1.97-1.24,3.08-.06.05-.12.11-.18.16-.7.7-.98,1.68-.76,2.64ZM3.96,202.44c-.66-.41-1.41-.63-2.17-.63-1.44,0-2.8.79-3.64,2.12l-.17.28c-.64,1.02-1.31,2.07-1.95,3.13-4.47,0-8.94-.01-13.41-.01h-4.12s-4.12,0-4.12,0h-4.15s-3.26,0-3.26,0h-7.65c-1.5,0-2.72,1.22-2.72,2.72v10.1c0,1.5,1.22,2.72,2.72,2.72h7.65c1.5,0,2.72-1.22,2.72-2.72v-5.03c.69.35,1.56.52,2.62.52h2.84s2.84,0,2.84,0h1.46v2.36s0,7.9,0,7.9v3.92c0,3.51,0,7.02,0,10.53,0,2.52,1.96,4.49,4.44,4.49.35,0,.7-.04,1.05-.12.78-.18,1.45-.5,1.99-.96.62.52,1.4.88,2.31,1.03.24.04.48.06.72.06,1.95,0,3.7-1.26,4.24-3.08.17-.55.25-1.18.25-1.91,0-7.07,0-14.15,0-21.22v-3s.11,0,.11,0h1.54c.69,0,1.37,0,2.06,0,1.64,0,2.98-.75,3.82-2.11.56-.9,1.12-1.8,1.68-2.7.51-.82,1.03-1.64,1.54-2.46,1.31-2.12.78-4.67-1.25-5.92Z"></path></g><path class="cls-3" d="M23.45,385.29c1.83,3.17-.46,7.13-4.12,7.13H-47.09c-3.66,0-5.95-3.96-4.12-7.13l33.21-57.53c1.83-3.17,6.4-3.17,8.23,0l33.21,57.53ZM-5.36,377.45c0-3.15-1.78-5.96-4.35-7.46.15-.28.26-.58.32-.91l1.15-6.99c.36-2.2.7-4.18,1.01-5.92.73-4.18,1.17-6.71,1.17-8.24,0-1.4-.56-5.99-7.81-5.99s-7.81,4.58-7.81,5.99c0,1.52.44,4.03,1.16,8.19.3,1.75.65,3.74,1.01,5.96l1.16,6.99c.05.33.17.63.32.91-2.57,1.5-4.35,4.31-4.35,7.46,0,4.7,3.82,8.52,8.52,8.52s8.52-3.82,8.52-8.52Z"></path></g><line class="cls-4" x1="52.87" y1="32.23" x2="52.87" y2="670.23"></line></g></g></pattern></defs><rect class="cls-1" width="2077" height="707"></rect></svg>