<?xml version="1.0" encoding="UTF-8"?>
<svg id="Layer_2" data-name="Layer 2" xmlns="http://www.w3.org/2000/svg" xmlns:xlink="http://www.w3.org/1999/xlink" viewBox="0 0 1161.32 923.74">
  <defs>
    <style>
      .cls-1, .cls-2, .cls-3, .cls-4 {
        fill: none;
      }

      .cls-5 {
        fill: #231f20;
      }

      .cls-5, .cls-6, .cls-7, .cls-8, .cls-9, .cls-10, .cls-11, .cls-12, .cls-13 {
        font-family: ProximaNova-Bold, 'Proxima Nova';
        font-weight: 700;
      }

      .cls-5, .cls-12 {
        font-size: 13.61px;
      }

      .cls-6 {
        font-size: 50.84px;
      }

      .cls-6, .cls-13 {
        fill: #242a2e;
      }

      .cls-2 {
        stroke: #f3f6fb;
      }

      .cls-2, .cls-3, .cls-4 {
        stroke-miterlimit: 10;
      }

      .cls-7 {
        font-size: 20.38px;
      }

      .cls-7, .cls-14, .cls-8, .cls-9, .cls-10, .cls-11, .cls-15 {
        fill: #fff;
      }

      .cls-16 {
        clip-path: url(#clippath-10);
      }

      .cls-17 {
        clip-path: url(#clippath-1);
      }

      .cls-18 {
        clip-path: url(#clippath-3);
      }

      .cls-19 {
        clip-path: url(#clippath-4);
      }

      .cls-20 {
        clip-path: url(#clippath-2);
      }

      .cls-21 {
        clip-path: url(#clippath-7);
      }

      .cls-22 {
        clip-path: url(#clippath-9);
      }

      .cls-23 {
        clip-path: url(#clippath-8);
      }

      .cls-24 {
        clip-path: url(#clippath-5);
      }

      .cls-25 {
        letter-spacing: 0em;
      }

      .cls-26 {
        fill: #3c9e69;
      }

      .cls-27 {
        fill: #41a88d;
      }

      .cls-28 {
        fill: #f3f6fb;
      }

      .cls-29 {
        fill: #f8f189;
      }

      .cls-8 {
        font-size: 15.14px;
      }

      .cls-9 {
        font-size: 15.14px;
      }

      .cls-10 {
        font-size: 15.14px;
      }

      .cls-11 {
        font-size: 15.14px;
      }

      .cls-30 {
        letter-spacing: 0em;
      }

      .cls-31 {
        letter-spacing: 0em;
      }

      .cls-15 {
        font-size: 11.73px;
      }

      .cls-15, .cls-32 {
        font-family: ProximaNova-Semibold, 'Proxima Nova';
        font-weight: 600;
      }

      .cls-33 {
        fill: #bdd357;
      }

      .cls-34, .cls-32, .cls-12 {
        fill: #a3bdcc;
      }

      .cls-3 {
        stroke: #242a2e;
      }

      .cls-35 {
        letter-spacing: -.07em;
      }

      .cls-32 {
        font-size: 27.79px;
      }

      .cls-36 {
        letter-spacing: -.05em;
      }

      .cls-37 {
        letter-spacing: -.04em;
      }

      .cls-38 {
        letter-spacing: 0em;
      }

      .cls-4 {
        stroke: #cec32b;
        stroke-width: 2px;
      }

      .cls-39 {
        letter-spacing: -.01em;
      }

      .cls-13 {
        font-size: 15.43px;
      }

      .cls-40 {
        letter-spacing: 0em;
      }

      .cls-41 {
        letter-spacing: .1em;
      }

      .cls-42 {
        letter-spacing: .1em;
      }

      .cls-43 {
        letter-spacing: .1em;
      }

      .cls-44 {
        letter-spacing: .1em;
      }

      .cls-45 {
        letter-spacing: .1em;
      }

      .cls-46 {
        letter-spacing: .1em;
      }

      .cls-47 {
        letter-spacing: .1em;
      }

      .cls-48 {
        letter-spacing: .1em;
      }

      .cls-49 {
        letter-spacing: .1em;
      }

      .cls-50 {
        letter-spacing: .1em;
      }

      .cls-51 {
        letter-spacing: .1em;
      }

      .cls-52 {
        letter-spacing: .1em;
      }

      .cls-53 {
        letter-spacing: .1em;
      }

      .cls-54 {
        letter-spacing: .1em;
      }

      .cls-55 {
        letter-spacing: .1em;
      }

      .cls-56 {
        letter-spacing: .1em;
      }

      .cls-57 {
        letter-spacing: .1em;
      }

      .cls-58 {
        letter-spacing: .1em;
      }

      .cls-59 {
        letter-spacing: .09em;
      }

      .cls-60 {
        letter-spacing: .09em;
      }

      .cls-61 {
        letter-spacing: .07em;
      }

      .cls-62 {
        letter-spacing: .02em;
      }

      .cls-63 {
        clip-path: url(#clippath);
      }

      .cls-64 {
        letter-spacing: .04em;
      }
    </style>
    <clipPath id="clippath">
      <rect class="cls-1" x="9.32" y="99.73" width="1152" height="797.53"/>
    </clipPath>
    <clipPath id="clippath-1">
      <rect class="cls-1" x="9.32" y="99.73" width="1152" height="797.53"/>
    </clipPath>
    <clipPath id="clippath-2">
      <rect class="cls-1" x="9.32" y="99.73" width="1152" height="797.53"/>
    </clipPath>
    <clipPath id="clippath-3">
      <rect class="cls-1" x="9.32" y="99.73" width="1152" height="797.53"/>
    </clipPath>
    <clipPath id="clippath-4">
      <rect class="cls-1" x="9.32" y="99.73" width="1152" height="797.53"/>
    </clipPath>
    <clipPath id="clippath-5">
      <rect class="cls-1" x="9.32" y="99.73" width="1152" height="797.53"/>
    </clipPath>
    <clipPath id="clippath-7">
      <rect class="cls-1" x="9.32" y="99.73" width="1152" height="797.53"/>
    </clipPath>
    <clipPath id="clippath-8">
      <rect class="cls-1" x="9.32" y="99.73" width="1152" height="797.53"/>
    </clipPath>
    <clipPath id="clippath-9">
      <path class="cls-1" d="M381.95,595.28c-2.86,1.23-5.58,3.03-8.62,4.61-.72.57-1.16,1.64-.68,2.53.48.88,1.65,1.12,2.46,1.52,1.99.96,1.85,3.43,1.99,5.34.29,3.79,4.3,4.89,7.51,5.15,3.44.27,9-.28,8.75-4.95-.09-1.65-1.89-3.83-3.04-4.93-1.12-1.07-2.08-1.66-2.41-3.17-.35-1.56-.26-2.93-.24-4.52.01-.82.1-1.37-.64-1.72-.66-.32-1.42-.45-2.2-.45-1.01,0-2.03.23-2.88.59M326.95,589.75c1.7,4.31,1.82,6.7.34,7.71-.34.23-.79.34-1.36.34-1.93,0-4.65-1.82-6.81-3.63-2.61,12.59-3.74,16.9-4.42,18.38.68,5.45,1.93,9.87,2.49,10.32,0,0,2.72,1.47,2.84,3.97.11,1.59-.79,3.18-2.72,4.54l-.23.11c-.11,0-4.08,1.48-5.33,5.11.11,1.36.45,6.58-3.52,9.42v5.22h.79c1.7,0,2.38.68,2.61,1.25.68,1.36-.11,3.06-5.33,7.26l-1.93,3.4,55.82,33.58,29.72,4.54,10.51-79.32c-1.62.45-3.16,1.02-4.88,1.44-4.65,1.14-8.39.65-13.47.06-6.29-.73-7.59-1.41-8.38-7.67-.93-7.42-9.33-7.87-10.42-15.7-.93-6.7,2.38-12.37,7.66-15.52-16.39-2.88-33.41-6-38.66-6.95l-1.93-.34h-.23l-.45-.11-2.72,12.59Z"/>
    </clipPath>
    <clipPath id="clippath-10">
      <rect class="cls-1" x="76.83" y="812.48" width="27.53" height="27.53"/>
    </clipPath>
  </defs>
  <g id="Layer_1-2" data-name="Layer 1">
    <g class="cls-63">
      <path class="cls-29" d="M395.55,623.39c1.73-.42,3.26-.99,4.88-1.44l-10.51,79.32-29.73-4.54-55.82-33.58,1.93-3.4c5.22-4.2,6.01-5.9,5.33-7.26-.23-.57-.91-1.25-2.61-1.25h-.79v-5.22c3.97-2.84,3.63-8.05,3.52-9.42,1.25-3.63,5.22-5.1,5.33-5.1l.23-.11c1.93-1.36,2.84-2.95,2.72-4.54-.11-2.5-2.84-3.97-2.84-3.97-.57-.46-1.82-4.88-2.5-10.33.68-1.47,1.82-5.79,4.42-18.38,2.16,1.81,4.88,3.63,6.81,3.63.57,0,1.02-.11,1.36-.34,1.48-1.02,1.36-3.4-.34-7.71l2.72-12.59.45.11h.23l1.93.34c5.25.96,22.27,4.07,38.66,6.95-5.28,3.15-8.59,8.83-7.66,15.52,1.09,7.83,9.49,8.28,10.42,15.7.79,6.26,2.08,6.94,8.38,7.67,5.08.59,8.82,1.08,13.47-.06M387.92,601.38c-.35-1.56-.26-2.93-.24-4.52.01-.82.1-1.37-.64-1.72-1.52-.72-3.58-.5-5.08.14-2.86,1.22-5.58,3.03-8.62,4.61-.72.57-1.16,1.65-.68,2.53.48.88,1.65,1.12,2.47,1.52,1.99.96,1.85,3.43,1.99,5.34.29,3.79,4.31,4.89,7.51,5.15,3.44.27,9-.28,8.75-4.95-.09-1.65-1.89-3.83-3.04-4.93-1.12-1.07-2.08-1.66-2.41-3.17"/>
      <path class="cls-27" d="M891.28,800.78c-1.59-2.04-.57-13.95-.57-13.95,1.02-6.13-13.39-26.44-13.39-26.44-4.42-8.39-1.48-9.87-1.48-9.87-1.7-2.5-5.67-6.13-5.67-6.13-5.45-2.95-13.61-24.17-13.61-24.17-1.93-4.99-2.84-9.08-3.18-12.25l-8.96.11c-.57-.11-.91-.11-1.25-.11-.57,0-.79.11-.91.11.11.45.68,1.47,1.59,2.38l.45.45-.68,6.47h-5.45v-3.52l-43.34,2.15-3.63-3.97-.48.04c-.74,1.81-1.08,3.49-1.42,5.53-.19,1.14-.28,2.81-.67,3.93-.32.93-1.12,1.55-1.49,2.47-.7,1.79-1.57,5.49-3.69,6.57.91.44,1.5.75,1.5.75,10.32,3.97,7.15,7.94,7.15,7.94,9.64-.45,13.05-6.7,13.05-6.7,1.7-5.22,7.38-4.65,7.38-4.65,0,1.25,5.22,1.93,5.22,1.93,2.95,3.97,5.9,4.43,5.9,4.43,1.02,3.4,3.4,4.2,3.4,4.2,1.7.23,1.7,4.2,1.7,4.2,1.02-1.7,6.13.45,6.13.45,1.25,3.74,2.72,3.4,2.72,3.4,3.4,2.95.23,13.05.23,13.05-1.25,7.15,3.74,11.57,3.74,11.57,1.7-2.5-1.02-4.42-1.02-5.67s6.47,1.7,6.47,1.7c1.47,1.25-5.45,7.37-5.45,7.37v1.02c0,1.02,9.64,11.35,9.64,11.35,5.9-10.1,3.74,4.65,3.74,4.65,5.22,1.93,4.65,6.47,4.65,6.47,4.65,7.38,5.67,3.97,5.67,3.97,3.97-1.47,8.62,7.94,8.62,7.94-.45,6.47,2.95,6.13,2.95,6.13.45-2.95,4.2-1.47,4.2-1.47,4.65-1.02,7.72-5.45,7.72-5.45-1.47-5.9,2.5-8.4,2.5-8.4"/>
      <path class="cls-33" d="M787.16,724.03c.36-.92,1.17-1.54,1.49-2.47.39-1.12.48-2.79.67-3.93.33-2.04.67-3.72,1.42-5.53l-41.16,3.7v1.47l3.52,2.5.34,10.78c1.25-.23,2.16-.46,2.16-.46,8.4-3.4,19.06-2.5,19.06-2.5,2.27,0,6.55,1.91,8.82,3,2.12-1.08,2.99-4.78,3.69-6.57"/>
      <path class="cls-33" d="M644.17,710.47l-1.02-1.02.91-.68c0-.45-.45-1.82-1.13-3.4-4.43-1.59-4.09-8.28-3.86-9.87-.68-3.18-.11-21.21,0-24.85,0-.34-.11-.45-.34-.68-.34-.23-1.02-.45-2.38-.45-1.48,0-3.06.34-3.97.45-.23.23-.57.45-1.02.57-.23.11-.57.11-.79.11-2.72,0-5.79-4.09-6.69-5.33-1.59-1.59-2.38-2.04-2.72-2.16,0,.23-.11.68,0,1.25l.23,1.36h-5.33l-.34-.34c-.91-.91-1.36-1.02-1.59-1.02-.34.11-.57.45-.68.57l-.23.68-6.24.91c-1.14,1.02-2.61,1.59-4.08,1.59-2.16,0-4.08-1.02-4.88-1.48l-4.65-.11c-.34,1.02-1.02,1.82-1.82,2.16-.34.11-.68.23-1.13.23-2.72,0-6.24-3.29-7.37-4.43l-1.25-.34c-.57,1.36-1.93,1.93-3.18,1.93-1.93,0-3.29-.57-3.86-1.59-.23-.45-.34-1.02-.23-1.48-.79-.23-1.36-.68-1.82-1.25-.23-.34-.45-.68-.45-1.13l-1.59.11c-.23.68-.57,1.25-1.25,1.36h-.23c-.79,0-1.47-.68-2.04-1.93v-.34c-.57-.45-4.42-1.59-10.21-1.82h-1.14v-1.13c0-1.59-.11-2.61-.23-3.29-.23.68-.57,1.13-1.13,1.36-.34.11-.57.23-.91.23-.79,0-1.47-.45-1.59-.57l-.23-.23c-.45.45-.91.57-1.25.57h-.34c-2.72,0-6.13-4.31-7.15-5.67l-.57-.79.57-.57c.45-1.82,1.13-19.63,1.59-36.31l-44.59-1.36-6.24,86.91h-1.13c-4.54-.12-18.66-.5-31.51-1.24-.02,1.65-.11,3.05-.65,4.79-.55,1.73-1.73,3.35-2.33,5.18-1.09,3.26-1.52,8.44-1.68,12.72,6.64,5.74,7.92,11.46,7.92,11.46-2.27,15.32,6.69,17.02,6.69,17.02,7.71,2.95,11.57,8.4,11.57,8.4,5.22,5.9,8.4-1.02,8.4-1.02,4.99-8.85,6.47-10.1,6.47-10.1,1.93,0,5.67-3.74,5.67-3.74,6.69,4.2,16.34,1.93,16.34,1.93l-.46,1.02c-.45,1.02,12.59,13.61,12.59,13.61-1.47,2.95,3.18,10.67,3.18,10.67,1.47,8.85,3.97,6.69,3.97,6.69-.45,2.27,7.71,11.91,7.71,11.91,5.9,1.25,3.4,6.92,3.4,6.92,2.49,1.47.45,6.47.45,6.47,5.22.79,4.42,5.67,4.42,5.67.23,7.94,12.14,8.85,12.14,8.85,3.97,4.42,7.15,3.4,7.15,3.4,8.4-.45,8.17,3.4,8.17,3.4,4.2,3.4,6.47-1.47,6.47-1.47-11.12-24.96,6.92-39.82,6.92-39.82,1.48.23,10.33-7.15,10.33-7.15,1.7-2.27,16.34-7.94,16.34-7.94,3.4-5.22,10.32-8.85,10.32-8.85l-.79-2.27c4.54-2.5,8.74-4.2,12.37-5.45l.34-7.71.11-.23c2.5-4.08.45-6.58-.23-7.26-.79-.23-1.25-.68-1.36-1.36-.23-1.25,1.02-2.16,2.38-2.84,1.93-1.02,2.61-6.35,2.61-8.74v-.23c1.13-4.76-3.86-9.42-3.86-9.42"/>
      <path class="cls-29" d="M460.43,700.74c.55-1.74.64-3.14.65-4.78-11.24-.65-21.5-1.57-23.51-2.84-.57-.23-1.93-.68-2.95-.68-.45,0-.79.11-.91.23,0,0-.68.79,1.25,4.54l1.25.11c5.45,1.7,5.67,7.37,5.67,7.37,6.69,2.5,11.12,11.35,11.12,11.35,1.28.86,2.41,1.73,3.42,2.61.15-4.28.59-9.46,1.68-12.72.61-1.83,1.79-3.44,2.33-5.18"/>
      <path class="cls-29" d="M293.22,459.46c.84,1.66,2.95,1.89,4.81,2.07,4.01.41,6.32.72,9.72,2.06l8.88-32.9c-2.72-.91-3.97-1.82-3.97-3.06,0-.57.34-1.14.91-1.59-.05-.18-.06-.36-.08-.55-2.83,1.7-9.99,1.18-12.96,1.65-2.53,10.72-4.77,21.6-7.3,32.32"/>
      <path class="cls-26" d="M319.35,417.3l.23-.11h.34c.57,0,.68-.23.8-.34.45-.57.45-1.82.34-2.38l-.11-.57.45-.45c.68-.68,3.86-4.88,5.9-7.6l.23-.23c1.7-1.25,1.02-3.06.68-3.86-1.93-1.13-2.95-3.52-3.52-5.56l-18.49-3.63-.23-.57c-.23-.57-2.95-1.36-7.94-1.36h-2.38l-.34-.23c-.11-.11-.91-.57-6.35-.57-1.48,0-3.06,0-4.54.11-1.48.45-2.84.68-4.09.68-1.82,0-2.84-.57-3.29-.79-.68-.23-1.59-.45-2.61-.45-2.04,0-4.08.57-4.2.57l-.68.23-.45-.57c-1.48-1.7-5.67-2.84-7.15-3.18l-.34-.11c-1.02-.68-1.59-.79-2.04-.79-.11,0-.23,0-.34.11-.45.23-.68.79-.68.79l-.23.91h-2.38c-8.39,0-10.78-5.22-10.89-5.45l-.23-.57.23-.45c1.36-2.5,1.7-4.54,1.13-6.24-.57-1.59-1.82-2.38-2.16-2.61-1.93-.34-3.29-1.13-3.97-2.27-.23-.45-.45-.91-.45-1.25-.45-.11-1.02-.11-1.7-.11s-1.36.11-1.93.11l-1.36,7.49c.79,17.58-24.73,53.32-24.73,53.32l-1.7,12.37.34,3.18c8.74,3.97,61.83,16.56,97.68,24.51l1.56-5.79c-3.4-1.34-5.71-1.65-9.72-2.06-1.86-.19-3.96-.41-4.81-2.07,2.53-10.72,4.77-21.6,7.3-32.32,2.98-.47,10.13.04,12.96-1.65-.5-4.21,5.54-7.97,5.87-8.19"/>
      <path class="cls-27" d="M743.79,570.74c-2.77-.93-5.27-2.24-8.18-2.73.04-.38.07-.76.1-1.13-.79,2.95-1.9,6.24-3.61,7.1l-.45,4.09,7.03-1.36,3.18,1.93,1.47.57c.91-1.7,2.38-4.08,4.42-4.08,1.47,0,2.61,1.13,3.52,3.29h.11c.23,0,.34,0,.45-.11.3-.2.51-1.01.25-2.59l-1.81-2.28c-2.07-.98-4.26-1.93-6.5-2.69"/>
      <path class="cls-27" d="M751.84,574.32l5.22-4.54v3.63l3.06.23v-2.95l6.81-6.81.79-5.67h1.02c1.7,0,5.56-.57,6.47-2.04.11-.23.34-.79-.11-1.7l-.11-.34-.79-8.06-1.48-10.66-.68-11.69-1.47-9.64-1.93-7.15.45-5.11-5.56-.68-4.99.79h-6.01c-1.32.24-2.59.41-3.77.54l-3.9,19.49-11.09,3.7.61,3.05v11.8l1.48,11.69-.11.23s-1.02,3.4.79,5.11l.23.23.11.34c.23,1.02,1.36,6.47-1.02,8.28-.04.17-.09.33-.13.5-.03.37-.06.75-.1,1.13,2.9.49,5.41,1.8,8.17,2.73,2.23.75,4.43,1.7,6.5,2.69l1.81,2.28c-.04-.22-.08-.45-.14-.7l-.11-.68Z"/>
      <path class="cls-33" d="M748.75,502.47c-1.67.18-3.16.26-4.29.26h-.45c-5.79,7.83-9.42,5.79-11.35,2.72l-.45,12.48,1.54,7.73,11.1-3.7,3.9-19.49Z"/>
      <path class="cls-27" d="M789.74,598.49l.57-.11c5.22-.68,8.85-1.14,11.57-1.48l7.37-5.45v-4.54l9.76-9.64c-2.84-1.7-5.79-5.67-6.13-6.24l-.23-.34v-2.27l-3.4-1.7v-5.67c-1.59-.45-2.84-1.14-3.06-1.25l-.68-.34.11-.8c.34-2.95-.34-3.4-.34-3.4-.34,0-.79.23-1.14.46-1.7,2.72-2.95,3.86-4.08,3.86-.23,0-.34,0-.57-.11-.34-.11-1.02-.45-1.25-1.59l-1.93.11c-1.25,1.36-2.38,2.04-3.4,2.04-.23,0-.57,0-.79-.11-.91-.34-1.48-1.25-1.7-2.61h-6.01l-.11-1.02c-.11-1.48-.68-2.5-1.7-3.18-.79-.57-2.04-.91-3.4-.91-.91,0-1.7.11-2.27.23l.11,1.36c.57,1.36.57,2.72-.11,3.74-1.14,2.27-5.11,2.95-7.15,3.06l-.68,4.54-6.58,6.69v4.54l-7.83-.57v-.68l-.23.23c.19,1.27.16,2.36-.08,3.24l17.35,21.86c2.56-.4,12.08-1.95,16.77-1.95h1.25Z"/>
      <path class="cls-33" d="M753.43,580.22c-.57.45-1.25.68-2.04.68-.68,0-1.25-.23-1.36-.23l-.57-.23-.23-.57c-.68-1.93-1.36-2.38-1.59-2.38-.68,0-2.04,2.04-2.72,3.74l-.45,1.13-3.86-1.47-2.5-1.59-6.81,1.25-.23,2.04-.45.34c-.11.11-2.04,1.48-1.25,2.72.11.23.34.45.57.68.45.34,1.82,1.48,1.25,2.84-.34.91-1.48,1.36-3.29,1.36-.45,0-.91,0-1.14-.11-.79.11-1.7.34-2.04.91-.45.68,0,1.82.45,2.61l.11.34-.34,5.56-1.82-1.25c-.91-.68-3.63-2.27-5.79-2.27-.45,0-.79.11-1.14.11-.68.23-1.25.79-1.59,1.59.11.11.23.23.34.34.68.79.91,2.04.68,3.74l-.68,5.22h-2.61v.11c7.6-.11,15.54-.34,17.81-.79v-4.2h1.14c.23,0,21.56-.79,25.53-1.93h14.3c.09-.01.3-.04.59-.09l-17.35-21.86c-.19.68-.49,1.24-.94,1.64"/>
      <path class="cls-27" d="M828.43,594.18c-.11,0-1.02.68-1.7,1.48l-.34.34-17.47,2.04c-.34,0-2.27.34-5.79.68l-.23.23-.11-.11c-2.95.34-6.92.91-11.91,1.48l-.68.11h-.11c-.34,0-.79-.11-1.25-.11-4.02,0-12.54,1.33-15.76,1.84l6.24,7.86s-3.44,17.06-3.26,21.36l16.51-1.79.34-4.2.57-.34c3.06-1.48,3.63-2.61,3.63-2.84v-.23l-.11-.11c-.8-.68-.57-1.02,4.88-4.65l.45-.23h.11c3.74-.68,4.77-3.06,4.77-3.18l.23-.57,4.65-1.48v-3.4l6.01-4.88.23,2.16c.11.79.23,1.13.34,1.25.68-2.27,1.82-3.63,3.29-4.08.34-.11.68-.11,1.02-.11.57,0,1.13.11,1.7.34,1.14-3.18,2.38-4.99,3.97-5.67.11,0,.23-.11.34-.11,0-2.72-.57-3.06-.57-3.06"/>
      <path class="cls-33" d="M779.32,610.01l-6.24-7.86c-.77.12-1.24.2-1.26.2h-14.07c-4.08,1.14-20.2,1.82-24.73,1.93v3.18l-.34.34c-.34.34-1.48,1.48-21.9,1.59.23,5.33-2.84,9.42-3.63,10.44l-1.02,3.63-.23,5.67-3.29,1.36c.57,1.47,1.25,3.97,1.02,6.13h27.8l5.11-1.48,20.88-1.7,16.34-1.82,2.32-.25c-.18-4.3,3.26-21.36,3.26-21.36"/>
      <path class="cls-29" d="M390.37,486.05l8.06-45.5-.11-.34c-1.13-4.54-2.38-5.1-2.84-5.22h-.11c-1.13,0-2.84,1.93-3.63,3.29l-.79,1.25-1.13-1.02c-1.82-1.7-4.65-1.7-5.22-1.7h-.11c-.91.23-1.93.23-2.95.23-2.04,0-3.74-.34-4.65-.45-1.36,1.59-2.38,2.27-3.29,2.27-.23,0-.45,0-.68-.11-.91-.34-1.25-1.36-1.02-2.72.23-5.56-.91-6.47-1.02-6.58l-.23.11-.23.11-.45-.23c-3.97-1.82-5.9-11.46-6.35-13.39v-.45c1.02-4.42.34-5.1.34-5.1-.79,0-2.84,1.59-4.54,3.4l-.57.57-.8-.34c-1.13-.45-2.04-1.36-2.5-2.61-.01-.04-.02-.08-.03-.12-.32.15-.7.27-1.2.37-2.31.48-4.78-.65-7.11-.5-5.09.31-10.17.65-15.26.95-3.45.2-6.62-.41-8.6,2.57.05.93-.11,2.3-.82,3.32-.57.68-1.25,1.13-2.27,1.25-.79.57-5.67,3.97-4.2,6.47l.68,1.25-1.36.45c.45.23,1.36.68,2.95,1.14l1.14.34-11.01,40.84c9.19,2.16,69.32,15.88,81.91,16.22"/>
      <path class="cls-27" d="M870.52,530.07h0l-5.45-.68-2.27,3.74h-2.95l-3.4,4.88-3.97.34-.57-9.08-14.64,1.93-2.5-10.89-.23.79-.11,11.01-.11.23c-3.29,5.45-6.01,8.39-6.13,8.51l-.91.91-.91-.91c-.45-.45-.79-.79-1.02-.91v.57l-.45.45c-2.95,2.72-2.16,3.97-2.16,3.97l.23.34v.11c.91,2.61.91,4.2-.11,4.99-.34.34-.91.57-1.48.57s-1.14-.23-1.36-.34h-.12l-.34-.23c-1.02-1.25-1.47-1.25-1.47-1.25-.34.34-.79,3.52-.34,7.49l.11,1.02-2.15.57c-.23,1.36-.79,2.38-1.82,2.95-.57.34-1.36.45-2.16.45h-.11v3.86l3.41,1.7v2.95c1.7,2.16,4.65,5.45,6.24,5.79l.57.11.23.45s2.27,4.2,6.13,4.88c1.13-1.02,3.4-3.06,5.33-3.06.23,0,.57,0,.79.11.45.11,1.25.57,1.7,1.82.11,0,.34.11.45.11s.34,0,.45-.11c.57-.23,1.59-1.13,2.27-4.54l.23-1.02,1.02.11h.45c1.13,0,4.08-.23,5.45-1.93l.23-.23.34-.11s1.02-.45.11-2.84c-.45-1.36-1.02-2.84.11-3.52.23-.11.34-.11.57-.11h.11l1.7-6.01,2.72-5.11c-.11-3.74.46-5.79,1.93-6.24.11,0,.34-.11.45-.11,1.14,0,2.16,1.02,3.52,3.52h1.7l1.14-8.28h3.06v-1.82l2.38-1.59c.34-2.16,1.02-4.65,2.38-5.22.11,0,.23-.11.34-.11l1.02-4.76.34-.23Z"/>
      <path class="cls-27" d="M871.2,528.26c-.68.23-2.04.91-2.27,1.59-.11.11-.11.23,0,.45l.34.79.57.11.68.23.45.11,7.15,2.16.23-1.59-.34-2.04c-2.61-.91-5.67-1.93-6.81-1.82"/>
      <path class="cls-33" d="M654.04,449.63c1.81.68,6.35,2.5,7.94,5.33,1.13.45,4.08,1.81,4.88,4.54l8.62,5.9,1.13,7.94c2.16,2.61,2.84,4.54,2.27,6.01-.34.8-.91,1.14-1.36,1.36l-.79,3.86,3.06,2.95c2.61.45,4.31,1.36,5.1,2.72v.11l10.55-.34,9.42-.45,9.98-.57,12.03-.45v-1.25c-3.97-5.56,0-17.59,0-17.59-3.52-5.56,7.03-32.11,7.03-32.11-9.98,16.68-12.48,15.09-12.48,15.09-1.59-.91.45-6.24,3.06-11.8l-4.65-3.97-1.02-9.42c-2.95-.34-4.65-1.13-5.33-2.5-.23-.34-.23-.79-.34-1.13l-9.64-1.36-3.18-1.7-3.06-.57-8.28-1.93c-2.61-.11-4.2-2.04-4.77-3.29-3.18.34-6.01,0-6.01,0,3.97-6.47,1.48-6.13,1.48-6.13-7.37,4.2-12.14,5.67-15.2,6.01l-5.11,10.55-.79-.11h-.11c-.57,0-2.5.11-4.08,1.59-1.48,1.36-2.5,3.4-2.72,6.24,1.02.23,2.27.91,3.06,2.16.79,1.36.68,3.06-.34,4.99-.34,2.5-1.02,7.03-.34,9.3"/>
      <path class="cls-29" d="M488.97,518.27c.68-8.17,5.44-66.94,6.24-75.9l-93.37-11.35-1.25,9.87h.23l-11.57,65.46c43.23,5.67,92.47,11.8,99.73,11.91"/>
      <path class="cls-33" d="M713.61,601.66c.23-1.02.11-1.59-.11-1.81-.68.23-1.25.34-1.82.34-.8,0-1.48-.23-2.16-.68-2.5-1.7-2.5-5.9-2.5-6.35v-.57l.45-.34c.79-.68-.23-3.97-2.27-7.37l-4.65-.57-8.4-8.62.34-.79c2.61-5.11,2.61-9.42,2.38-11.23h-8.28l.34-1.48c.79-3.74,0-4.88-.23-5.22-.23-.23-.45-.23-.45-.23h-.45l-.34-.34-7.49-7.26c-3.52-1.82-3.97-6.69-3.97-7.26v-.23c.23-2.95.23-5.56,0-7.26-1.13-.91-2.38-2.16-3.29-3.4l-57.86,1.93c.45,1.48.91,2.5,1.14,2.95l.79-.11.11,1.13,1.81,6.24c.11.23,1.14,2.04,3.63,2.04.45,0,.91,0,1.36-.11.11,0,.8-.23,1.48-.23.91,0,1.59.34,2.04.79,1.02,1.14.79,3.06-.79,6.01-.11.57-.45,2.72.68,4.43.68,1.02,1.93,1.7,3.52,2.04l.91.11,1.47,44.25h.11l-.11.57v1.13h-.11l-.79,6.81,69.09-1.82.23.11c.11,0,2.04.91,2.27,2.84.23,1.36-.45,2.72-1.82,4.2l-1.13,2.27,6.58-.34c.91-1.13,3.52-5.11,2.84-9.76l-.23-1.36h2.38l-.11-2.5h3.06l.34-2.95Z"/>
      <path class="cls-33" d="M679,547.32l.23.11,7.37,7.15c.45.11,1.13.34,1.82,1.02,1.02,1.14,1.36,3.06,1.02,5.79h7.37l.23.91c0,.23,1.36,5.79-2.04,13.05l6.69,6.81,4.88.57.34.45c.79,1.25,4.65,7.6,2.5,10.44.11,1.48.57,3.4,1.48,3.97.23.11.45.23.79.23.23,0,.45,0,.79-.11.68-1.82,1.7-3.06,3.29-3.52.57-.23,1.25-.34,1.82-.34,2.04,0,4.08.91,5.45,1.7v-.79c-.79-1.82-.91-3.4-.23-4.54,1.14-1.93,3.97-2.04,4.08-2.16h1.48c-.45-.34-.79-.79-1.02-1.13-1.25-2.04,0-4.2,1.47-5.56l1.02-9.64,1.14.23c.45-.45,1.7-2.95,2.61-6.47l.11-.57.57-.23c.79-.34.79-3.18.34-5.56-2.15-2.5-1.47-6.01-1.25-7.03l-1.48-11.35v-11.69l-2.16-10.78.68-17.36c-2.61.91-3.18-5.67-3.29-9.98l-11.91.45-9.98.57-9.42.45-8.96.34c1.59,1.25,2.38,3.18,2.61,4.08,2.27,1.02,3.63,2.27,4.2,3.86.45,1.47,0,2.72-.23,3.18-.91,4.31-2.61,7.26-4.99,8.74-1.36.79-2.5,1.02-3.4,1.02h-.79c-2.16.45-3.4,1.13-3.74,2.04-.23.68.23,1.48.23,1.48,1.82,2.04,2.61,4.08,2.38,6.01-.23,1.82-1.48,2.95-2.16,3.52v4.88h-2.95c.23,1.7.23,3.63-1.13,4.2-.23.11-.45.11-.68.11.23,2.72-.11,5.9-.11,6.47.23.57.79,3.97,2.95,4.99"/>
      <path class="cls-27" d="M912.04,541.87v-1.25c0-1.48-2.61-10.67-4.88-18.49h-.11v-.34c-.34-1.13-.68-2.27-1.02-3.29l-5.9,1.02-13.05,2.95-12.47,2.15-.35-.11-19.97,4.42.45,6.81h.45l3.4-4.99h2.84l1.23-1.9c5.4-1.03,12.39-1.75,16-2.09,1.38.75,2.47,1.44,2.74,1.61l.57.34v.23c.57.11,1.13.23,1.82.68,1.25.79,2.15,2.27,2.61,4.31,1.59,0,4.31.34,6.01,2.27,1.36,1.47,1.82,3.52,1.25,6.01l-.11.45-.34.23c-.57.45-1.93,1.7-1.82,2.84.11.79,1.13,1.7,2.84,2.38l11.23,1.36c0-1.48.11-2.5.11-2.5-3.06-.57-3.18-6.47-3.18-6.47,1.7,1.25.23-7.94.23-7.94-1.25-4.42,2.5-5.45,2.5-5.45,5.45-5.44.45,4.99.45,4.99,2.27.45,2.27,5.9,2.27,5.9l-1.93.23.79,1.48c4.99,1.93,0,3.4,0,3.4,1.25,5.67,4.2,4.99,4.2,4.99,7.38-.79,6.13,4.2,6.13,4.2,4.2.79,1.48,4.65,1.48,4.65-2.5,0-1.25,12.37-1.25,12.37,4.2,3.18,3.4-8.62,3.4-8.62-.45-7.15,4.99-10.1,4.99-10.1l.23-9.08-13.84.34Z"/>
      <path class="cls-27" d="M921.23,418.21h.79l.11,1.02c.11.45.68,4.42,0,6.92.68,2.72,1.7,4.65,2.16,4.88l1.36.45-.57,1.25c-.23.45-.57,1.59-.23,2.38.34.57,1.02.91,2.04,1.13l.79.11,3.52,12.93,6.35-1.36v-3.52l1.14-3.74-1.25-1.93,1.36-11.91v-10.33l.45-.34c1.48-1.25,4.31-4.31,4.2-6.47,0-.68-.23-1.14-.79-1.59l-.34-.23-.23-1.25-22.01,4.43h-.34c.45,3.97,1.14,6.58,1.48,7.15"/>
      <path class="cls-26" d="M306.76,471.87h0c-4.2-.91-21.1-4.65-40.05-9.19l-14.18,56.5,60.58,90.42c.68-2.38,1.82-7.37,4.08-18.04l.45-2.04,1.59,1.36c2.95,2.72,5.79,4.43,6.7,4.43,0,0,.45-.91-1.25-5.22l-.11-.34,23.26-108.8c-20.08-4.2-39.6-8.62-41.07-9.08"/>
      <path class="cls-33" d="M703.51,623.45l.68-2.5-9.64.57,3.4-6.35.11-.11c.91-.79,1.36-1.59,1.25-2.15-.11-.45-.45-.79-.79-1.02l-68.19,1.82,3.29,16.56v34.49c0,1.02-.11,1.93-.23,2.72.79-.11,1.82-.23,2.72-.23,1.7,0,3.06.34,3.97,1.02.79.57,1.25,1.47,1.25,2.61-.11,2.95-.23,5.9-.23,8.74,2.84-.11,12.71-.57,22.69-.79,4.42-.11,8.17-.11,11.35-.11,5.56,0,9.08.11,11.01.45v-4.08c-.34-1.14-2.16-8.28-1.25-13.62l.11-.79.68-.23c1.81-.45,3.29-1.25,3.74-1.59-.11,0-.11-.11-.34-.23l-.68-.34v-.79c0-.45.34-4.76,2.84-6.13.45-.23,1.02-.45,1.59-.45.34,0,.68,0,1.02.11.34-.79.57-2.04-.34-2.95l-.34-.34v-.45c0-1.14.11-4.65,2.04-5.45.23-.11.57-.11.79-.11.57,0,1.02.23,1.59.57l-.68-5.1h3.4c.45-1.93-.68-5.11-1.25-6.35l-.57-1.13,4.2-1.7.8-4.54Z"/>
      <path class="cls-27" d="M889.24,641.6c0-.11.11-.11.11-.23-3.74-3.52-15.54-11.34-23.03-16-.11,0-.57-.11-1.25-.11-3.74,0-12.03,1.48-14.86,2.15l-1.02.23-.34-1.02c-.79-2.5-2.95-3.74-6.24-3.74-1.82,0-3.29.34-3.4.45h-.23l-13.84.11-.23-.11c-1.47,0-6.81,2.72-12.03,6.01-.34.34-2.72,2.5-2.27,4.31.45,1.47,2.95,2.72,7.26,3.4l.57.11,3.4,6.13c.11.11,3.52,5.11,6.81,5.22h.79l.34.68s1.82,4.09,5.9,5.33l.68.23.23.68c0,.23,1.36,4.65,6.69,6.35l.34.11.23.23c.11.11,3.4,3.97,4.08,8.05v.34l2.72.91h.11c.23.11,4.08,2.72,3.52,8.51h8.4c4.31-4.54,1.93-6.92,1.93-6.92h2.72c-.45-1.93,4.42-3.97,4.42-3.97,0-2.27,4.2-4.2,4.2-4.2.45-5.45,4.99-4.43,4.99-4.43-.45-5.22,1.25-5.22,1.25-5.22-1.59-6.01,7.03-13.62,7.03-13.62"/>
      <path class="cls-27" d="M944.6,406.18l.11.45c.91.79,1.36,1.93,1.36,3.06,0,3.29-3.29,6.69-4.65,7.94v9.42l-1.25,11.12,1.36,2.15-1.36,4.54v2.61l16.34-2.27v-1.48c1.7-4.2,6.81-4.88,9.98-4.88.23-.45.45-1.13.68-1.82h-6.92v-2.61c-.45,0-1.02-.11-1.47-.45-2.61-1.48-3.18-6.81-3.29-8.51l-4.08-14.07-4.09-13.27c-3.06.68-2.04,7.83-2.04,7.83l-.68.23Z"/>
      <path class="cls-29" d="M431.67,691.07c.57-.68,1.47-1.02,2.72-1.02,1.7,0,3.63.79,3.97.91l.23.23c1.7,1.48,28.48,2.95,52.53,3.63l6.81-93.6c-30.07-2.04-82.03-9.76-90.88-11.12l-14.86,111.53,14.64,2.27,1.93-9.64,23.03,2.72c-1.13-2.84-1.25-4.65-.11-5.9"/>
      <path class="cls-33" d="M731.31,699.12l.23-20.99,1.25-22.35v-15.32l-1.7-1.14h-.11v-.11h-30.86l.34,2.61c1.47,2.95,1.25,3.86.45,4.43-.23.11-.45.23-.79.23-.79,0-1.48-.68-2.61-1.82-.57-.68-1.02-.79-1.02-.79-.11.11-.45,1.25-.45,2.72,1.93,2.27.68,5.22-.23,6.47l-.57.79-.91-.45c-.34-.23-.68-.34-.91-.34-.11,0-.34,0-.45.11-.79.45-1.36,2.04-1.59,3.52.91.68,1.02,1.48.91,2.04-.23,1.7-2.72,2.84-4.88,3.52-.68,5.11,1.36,11.91,1.36,12.03v6.92l-1.25.11c.57,4.42,1.59,7.71,2.16,7.94l.57.23,2.04,6.13h-2.16l.45,2.16-.45.45c-.11.11-7.38,8.28-7.15,19.97l30.07-1.48-.23,1.48c-.45,2.72-.79,8.4,1.7,9.19l.45.11,3.74,7.94c.23-.11.34-.23.34-.23,4.43-7.71,7.94-3.97,7.94-3.97,5.22-3.18,5.9.46,5.9.46l1.82-.23c.23-5.44-1.82-22.01-3.4-32.33"/>
      <path class="cls-33" d="M719.51,749.84c-3.74-1.02-1.02-5.44-1.02-5.44,1.25,0,4.2-1.7,4.2-1.7,1.25-4.2-2.5-4.43-2.5-4.43-1.47,6.47-4.99,3.74-4.99,3.74-2.95-1.59-.79-3.74,1.36-5.22l-3.4-7.26c-3.52-1.59-3.4-7.15-3.06-10.21l-29.5,1.48-.11-1.14c-.68-11.68,5.56-20.31,7.26-22.35l-.91-3.86h1.82l-.68-2.04c-1.82-1.47-2.72-6.58-3.18-10.1-1.47-.11-4.31-.34-9.53-.34-10.21,0-24.73.57-34.38,1.02-.11,6.81-.11,12.37.23,13.27l.11.23v.23c0,.11-.79,6.92,2.61,7.71l.57.11.23.45c1.25,2.5,1.82,4.31,1.59,5.45,1.48,1.59,5.11,6.01,4.08,10.89,0,1.59-.34,8.74-3.86,10.66-.23.11-.34.23-.57.34,1.02,1.02,3.97,4.54.91,9.98l-.23,6.24c8.62-2.27,13.5-.79,13.5-.79,3.74,3.74,17.02,3.4,17.02,3.4-2.5-9.19,3.74-3.4,3.74-3.4,5.67-3.18,6.47,2.72,6.47,2.72,7.38-.23,5.67,6.47,5.67,6.47,4.65,3.97,8.17,1.93,8.17,1.93,0-3.4,3.97-3.18,3.97-3.18,1.7-2.72,3.4.45,3.4.45,4.42,3.74,2.95-4.43,2.95-4.43l3.18-1.7c1.47.79,2.5,2.95,2.5,2.95,4.65-.45,7.72,4.2,7.72,4.2,6.69.79,2.95-2.95,2.95-2.95-.68-2.5-8.28-3.4-8.28-3.4"/>
      <path class="cls-33" d="M622.5,476.64l-20.65-.23h-1.36c-.23,3.18,1.59,3.86,1.59,3.86l.57.23.23.57c.79,2.15-.79,7.83-1.48,10.55,1.59,2.27,2.04,3.63,1.13,4.42l-.11.11,2.5,7.15c.91,1.13,3.18,4.54,2.84,7.38.79,1.02,2.72,3.97,2.72,8.73l1.7,11.46v.11l59.56-2.04.34.45c1.59,2.04,3.18,3.4,3.86,3.86,0-.45,0-1.25-.34-2.84l-.34-1.48h3.52v-3.86l.57-.34s1.36-.79,1.59-2.27c.23-1.25-.45-2.61-1.82-4.08-.11-.11-1.36-1.82-.57-3.74.68-1.7,2.61-2.95,5.79-3.52h.23l.23.11h.45c.45,0,1.25-.11,2.16-.68,1.82-1.13,3.18-3.63,3.86-7.26l.11-.34c.11-.11.45-.68.11-1.47-.34-1.02-1.59-1.93-3.4-2.61l-.68-.23-.11-.68c0-.11-.57-3.52-3.29-3.97l-1.47-.23.68-1.36s.11-.45-.11-.79c-.23-.45-1.02-1.25-3.74-1.59h-.34l-4.65-4.42,1.36-6.69.79-.11s.23-.11.23-.23c0,0,.34-.91-1.82-3.52h-19.06l-33.35,1.59Z"/>
      <path class="cls-27" d="M975.46,461.89c-3.97-7.94-6.47-6.92-6.47-6.92-6.13,1.7-1.93-7.94-1.93-7.94-1.7-2.16-1.82-4.31-1.47-5.9-2.5.11-5.67.79-6.81,3.18v2.84l-19.74,2.72-7.37,1.59-.11,12.03,28.59-6.69.45.57c.68.91,6.35,8.17,9.3,11.35h.11c2.5-8.4,5.45-1.7,5.45-1.7.79-2.95,8.62-3.74,8.62-3.74l-.79-3.18c-7.03,5.79-7.83,1.81-7.83,1.81"/>
      <path class="cls-27" d="M1002.81,385.42c-4.54,3.52-4.54.45-4.54.45-1.02-11.01-8.06-7.49-8.06-7.49l-7.03-25.53-9.08-4.54c2.04,2.5-4.99,5.56-4.99,5.56-7.49-1.02-3.06-4.99-5.56-3.97-2.5,1.02-6.47,17.02-6.47,17.02,2.5,4.54.45,7.03.45,7.03-3.06,0-3.06,6.01-3.06,6.01,9.53,3.06,4.54,3.97,4.54,3.97-6.01,2.5-6.01,15.09-6.01,15.09h-3.06c-.11,0-.11-.11-.23-.11l3.74,11.8,4.2,14.41v.11c.11,2.27.91,6.01,2.04,6.81.11,0,.23.11.34.11s.34,0,.57-.11l1.7-.91v3.63h5.11c1.25-5.22,1.93-12.59,1.93-12.59,4.54,1.02,7.49-2.5,7.49-2.5-.46-3.06,4.54-4.31,4.54-4.31,1.02-16.34,4.99-8.28,4.99-8.28,6.47-6.47,8.51-3.97,8.51-3.97l7.49-6.01c6.47-7.6.45-11.69.45-11.69"/>
      <path class="cls-27" d="M916.13,527.35c-1.36-1.02-2.16-2.72-2.5-3.97l-3.29-2.95c-.34.57-.68,1.02-.79,1.25,1.7,5.67,4.08,14.3,4.77,17.7l10.66-.23-.57-1.7c-3.29-.11-8.28-10.1-8.28-10.1"/>
      <path class="cls-27" d="M931.33,497.74l2.61-7.83-3.06-1.7c-5.22-.79-13.16-4.31-13.5-4.54l-.79-.34-1.93,6.13-1.25,1.82c.45.68.91,1.59.68,2.61-.11.57-.45,1.36-1.47,2.04-.11.23-.23.68.11,1.7h3.97l-.91,1.7s-.34.68,0,1.48c.34.91,1.59,1.82,3.29,2.5.68,0,2.38.23,2.95,1.7.57,1.59-1.02,3.29-2.27,4.42-2.84,3.97-3.86,4.88-4.54,4.99-.57.45-2.95,3.29-4.54,5.33l2.61,2.27c6.81,5.56,11.68,5.33,11.68,5.33l.79,5.22c1.93-.45,2.72-6.69,2.72-6.69,4.2-2.72,5.22-14.3,5.22-14.3l-1.02-10.66c-6.58-.68-2.04-2.84-1.36-3.18"/>
      <path class="cls-27" d="M932.92,486.05h0v.11l2.5,1.47c6.58-7.26,15.54-9.3,15.54-9.3.45.23,2.04-.23,3.86-.91v-.11c1.02-3.4-.91-12.93-1.59-16.22l-21.56,5.11c.57,3.18,2.38,14.75,1.25,19.85"/>
      <path class="cls-27" d="M959.24,459.62l-3.63.91c.68,3.18,2.27,11.35,1.82,15.88,2.38-.91,4.42-1.82,4.42-1.82.8-1.7,2.5-3.18,2.5-3.18.79.57,2.38-.23,3.63-1.02-2.72-3.18-7.26-8.96-8.74-10.78"/>
      <path class="cls-33" d="M750.93,730.78l-.34-10.1-3.63-2.49v-4.88l42.66-3.74c-1.02-2.38-1.59-5.11-1.59-5.22l-.11-4.76c-1.7-2.61-.91-9.42-.68-10.66v-.11l.11-.34c.91-1.48,1.25-2.38,1.48-2.95-.11,0-.23.11-.46.23l-1.81,1.02v-5.44l-3.52-6.81-11.34-39.94-14.64,1.59-20.65,1.7-2.5.68,1.14.68v16.68l-1.25,22.35-.23,20.76c0,.23,3.63,23.71,3.29,32.33h.23v-1.47l4.65-.23c1.93-12.59,6.47-2.5,6.47-2.5.79,1.7-.34,4.31-.68,4.99.57-.45,1.93-.91,3.4-1.36"/>
      <path class="cls-27" d="M795.86,503.75l-3.97-3.97c0-.57,0-1.02.11-1.48l-15.77,3.06-4.65.68-.45,4.88,1.82,6.81,1.47,9.87.68,11.69,1.47,10.55.34,3.97c.68-.11,1.47-.23,2.5-.23,1.93,0,3.52.45,4.76,1.25,1.25.91,2.16,2.15,2.5,3.86h6.13v1.14c0,.68.23,1.36.34,1.59,0,0,.57-.11,1.93-1.59l.34-.34,5.45-.23-.11,1.13c.34-.45.91-1.13,1.59-2.27l.23-.23c.34-.23,1.47-1.13,2.84-1.13.45,0,.91.11,1.25.34,1.25.68,1.82,2.27,1.7,4.99,1.14.57,2.5,1.02,3.63,1.02.45,0,.79-.11,1.02-.23.23-.11.68-.34.68-1.82v-.91l1.93-.57c-.23-3.18-.23-7.94,1.93-8.85.23-.11.57-.23.91-.23.91,0,1.93.57,3.06,1.82,0-.23,0-.91-.45-2.16-.23-.34-.57-.91-.57-1.82,0-1.48.91-3.06,2.61-4.76,0-1.02.45-1.82,1.13-2.16.23-.11.45-.11.79-.11.68,0,1.36.34,2.27,1.02,1.02-1.13,2.84-3.52,4.88-6.92l.11-10.78,1.59-4.88-.11-.34h.23l.23-.68-1.93-15.09-1.36-8.51c-7.38.57-12.37,10.55-12.37,10.55-3.97-1.02-14.75,3.97-14.75,3.97l-2.38-3.06-5.56,1.13Z"/>
      <path class="cls-27" d="M802.33,474.14c-2.5-2.5-4.54-13.5-4.54-13.5.45-9.53-8.06-4.54-8.06-4.54-5.56,9.53-8.05,9.08-8.05,9.08-6.47-8.06,1.48-9.08,1.48-9.08l1.47-4.99c3.52-3.52,0-9.53,0-9.53-2.5-1.48-2.04-4.54-2.04-4.54,4.54-2.04,0-7.03,0-7.03-1.47.45-6.01,0-6.01,0-7.49-6.47-8.06-2.5-8.06-2.5-8.05-7.04-7.03,2.04-7.03,2.04,5.56,2.04-3.97,5.56-3.97,5.56,1.47,8.06-3.52,9.53-3.52,9.53v-9.08l-2.04,3.97c-6.47,2.04-3.06,6.01-3.06,6.01-4.54-1.47-2.5,3.97-2.5,3.97-3.52,9.53-2.04,18.49-2.04,18.49,12.14,26.09,2.5,30.52,2.5,30.52-.46.68-.79,1.25-1.14,1.82,1.82,0,4.08-.23,6.35-.68h6.13l5.11-.79,6.92.79,5.33-.79,9.3-1.82,7.83-1.47c1.02-1.59,2.38-1.93,2.38-1.93-2.49-4.99,3.06-9.08,3.06-9.08,2.5-8.51,3.97-2.04,3.97-2.04,3.29-.79.23-8.4.23-8.4"/>
      <path class="cls-29" d="M346.81,359.66c1.47,1.25,3.74,4.31,1.7,11.35.57,1.59,1.82,3.52,3.18,3.97l.68.11.23.57c.79,2.61,3.52,9.87,5.9,11.46,1.13.45,4.65,1.93,5.11,4.54.23,1.47-.57,2.95-2.38,4.2-1.82,3.97-4.54,11.35-3.29,14.64.11.34.34.68.57.91,1.47-1.48,3.74-3.4,5.67-3.4.45,0,.79.11,1.14.23,1.59.79,1.82,3.18.91,7.49.68,3.74,2.61,9.76,4.65,11.23h.23c.45,0,.91.11,1.36.34,1.59,1.02,2.27,3.74,2.04,8.51.34-.34.79-.79,1.25-1.36l.45-.57.79.23s2.27.57,4.88.57c.91,0,1.82-.11,2.72-.23h.45c.79,0,3.4.11,5.67,1.59,1.02-1.47,2.84-3.4,4.99-3.4h.46c1.25.23,2.27.91,3.06,2.38l.91-6.69,95.76,11.69c.57-3.29,1.93-11.57,2.38-16.22v-.11c.23-3.74,1.13-16.22,1.25-20.08v-.91c0-.79.34-3.97.91-8.85.91-8.4,2.61-23.15,2.61-28.02-39.14-3.74-72.73-7.49-72.73-7.49-26.89-4.2-54.8-9.87-79.76-15.43-1.14,4.08-2.84,13.61-3.74,16.79"/>
      <path class="cls-26" d="M302.9,659.19c4.54-3.4,5.9-4.99,6.24-5.67h-.23c-.57,0-1.13.11-1.7.23l-1.48.34v-9.53l.57-.34c3.86-2.27,2.95-7.6,2.95-7.71v-.34l.11-.23c1.36-4.42,5.56-6.35,6.58-6.81.79-.57,1.7-1.48,1.7-2.38-.11-.91-1.14-1.7-1.7-2.04-2.15-1.36-3.29-8.62-3.74-12.03l-62.4-93.15,14.41-57.41c-22.46-5.33-46.97-11.46-55.59-14.75l.34,3.06c1.02,11.12-8.17,20.99-8.17,20.99-4.2.79-3.4,6.69-3.4,6.69,9.87,24.73,1.25,19.51,1.25,19.51v8.85l6.92,14.3s-1.25,5.45,0,5.45,3.97,4.65,3.97,4.65l1.02-2.95c6.69-3.97,3.74,2.72,3.74,2.72l-2.27-.45,1.93,3.18c2.95,11.12-2.72,4.65-2.72,4.65.23-12.37-2.95.45-2.95.45-1.7,3.97,2.72,11.91,2.72,11.91,8.62.23,2.72,7.94,2.72,7.94-4.2,1.02-2.27,5.67-2.27,5.67,1.25,0,4.42,6.24,4.42,6.24-1.93.79,1.7,7.6,1.7,7.6-.45,1.47,6.92,13.84,6.92,13.84l-2.95,9.64,1.25,3.18c14.29,1.7,18.04,8.17,18.04,8.17,1.02,5.22,4.65,6.13,4.65,6.13,8.62-1.02,7.71,7.94,7.71,7.94,12.82,2.27,13.61,16.79,13.61,16.79v11.35l36.08,4.31Z"/>
      <path class="cls-27" d="M953.23,482.2c-.45,2.72-10.67,6.13-10.67,6.13-5.45-.45-6.13,2.27-6.13,2.27-.91.91-1.59,1.47-2.04,1.82l-1.82,5.33c13.27-1.02,24.05-14.98,24.05-14.98l-3.4-.57Z"/>
      <path class="cls-27" d="M830.58,593.61c8.85-1.25,74.99-10.32,89.29-15.66l-1.48-2.95c-3.4-1.48-5.67,3.74-5.67,3.74-2.5-.23-8.4-8.4-8.4-8.4-.79-4.88,5.45,3.4,5.45,3.4,3.97,2.72,3.97,0,3.97,0-8.17-8.85-1.7-7.38-1.7-7.38-1.93-3.97-1.25-8.85-1.25-8.85-3.18-.68-4.54-3.29-4.99-5.79l-12.14-1.48h-.11c-2.72-1.02-4.2-2.5-4.54-4.31-.34-2.16,1.59-4.08,2.38-4.77.23-1.59,0-2.72-.8-3.52-1.25-1.36-3.52-1.47-4.42-1.47h-.68l-1.13.11-.11-1.14c-.23-1.82-.91-3.18-1.7-3.74-.23-.11-.34-.23-.57-.23v1.25l-1.59,4.2-7.83-3.74-1.13,5.45-1.25-1.02c-.23.57-.68,1.93-.91,3.63l-.11.57-2.27,1.48v2.95h-3.4l-1.13,8.28h-5.22l-.34-.68c-.68-1.36-1.25-2.16-1.47-2.5-.11.68-.34,2.04-.23,3.74v.34l-2.95,5.56-2.38,8.28c.45,1.59.45,2.84-.11,3.86-.34.79-1.02,1.25-1.36,1.47-1.93,2.16-5.1,2.5-6.69,2.61-.79,2.84-1.93,4.65-3.52,5.22-.45.11-.91.23-1.36.23-1.14,0-2.04-.57-2.16-.68l-.45-.34-.11-.45c-.11-.45-.23-.57-.23-.57-.79,0-2.72,1.25-4.08,2.72l-.45.45-.57-.11c-3.86-.45-6.47-3.18-7.72-4.88l-9.3,9.19v4.65l-4.99,3.63c1.02-.11,1.47-.23,1.59-.23l16.57-1.93c.68-.79,1.93-2.04,3.29-2.04.23,0,.57,0,.79.11.91.45,1.36,1.02,1.7,1.7"/>
      <path class="cls-27" d="M924.52,592.36c-3.97,2.95-3.4,0-3.4,0-.45-1.02-3.74,1.7-3.74,1.7-13.84,4.2-1.02-3.97-1.02-3.97,4.42-2.95,5.44-1.7,5.44-1.7,5.22,3.18,3.97,1.02,3.97,1.02l-4.77-9.3c-14.52,5.45-79.87,14.52-89.86,15.88.11.8.11,1.7,0,2.72l-.11,1.93-1.59-.91h-.23c-.34.11-1.59,1.02-2.95,5.56l-.57,1.82-1.36-1.25s-.79-.68-1.59-.68h-.34c-.79.23-1.47,1.36-1.93,3.06l-.11.45-.45.23c-.11.11-.68.34-1.36.34-.45,0-.79-.11-1.14-.34-.45-.23-.91-.68-1.13-1.25l-1.93,1.59v3.97l-5.33,1.7c-.57,1.02-2.27,3.29-6.13,3.97-1.59,1.14-3.18,2.16-3.86,2.72v1.02c-.34,1.48-1.82,2.84-4.31,4.2l-.11,1.25,17.02-1.25c3.18-2.04,10.21-6.24,13.28-6.24.23,0,.45,0,.68.11l13.16-.11c.57-.11,2.04-.45,3.86-.45,3.97,0,6.81,1.48,8.17,4.31,2.84-.57,10.21-1.93,14.18-1.93,1.02,0,1.82.11,2.38.34.23.11,18.72,11.57,23.94,16.79,2.95-1.02,7.72-1.13,7.72-1.13-1.02-6.13,4.65-10.89,4.65-10.89,4.99-8.17,14.86-8.85,14.86-8.85,6.13-3.97-2.27-5.67-2.27-5.67,2.27-3.18-.79-7.71-.79-7.71,1.02,1.25,6.92,0,6.92,0,1.7-5.9,3.74-6.13,3.74-6.13,3.63-2.16-1.59-6.92-1.59-6.92"/>
      <path class="cls-27" d="M794.39,630.82l-.11,1.14-20.08,2.27,11.12,39.37,3.63,7.03v2.27h.34c.57,0,1.02.23,1.36.57,1.25,1.25.11,3.63-1.25,5.9-.34,3.06-.57,7.83.45,8.96l.23.34.11,5.33c.57,2.38,1.36,4.54,2.15,5.79l3.18,3.52,44.7-2.27v3.63h.91l.34-3.18c-1.02-1.14-2.5-3.06-1.7-4.65.45-.91,1.47-1.36,3.06-1.36.45,0,.91,0,1.36.11l8.73-.11c-.11-4.42.91-6.58.91-6.58,1.7-10.32,5.45-16.56,5.45-16.56l.11-.11h-8.74l.34-1.48c1.02-4.65-1.59-6.92-2.15-7.38l-3.86-1.25v-.79c0-.34,0-.57-.11-.91-.45-2.84-2.72-5.79-3.29-6.69-5.22-1.7-7.15-5.67-7.71-7.26-3.86-1.36-5.79-4.54-6.47-5.79-4.31-.68-7.94-6.01-8.05-6.24l-2.84-5.22c-4.99-.91-7.94-2.5-8.62-4.99-.45-1.59.23-3.18,1.02-4.43l-14.52,1.02Z"/>
      <path class="cls-27" d="M842.27,483.67l9.64-2.61,25.19-4.99,11.35-1.93,8.62-1.7c.57-.23,3.4-1.25,6.01-1.25,1.13,0,2.16.23,2.84.68.57.34,1.02.79,1.25,1.36l2.27-.11.11,1.13c0,.23.57,5.45,5.22,5.79h.23l3.29,1.36c.11,0,7.37,3.29,12.25,4.2.91-3.29-.23-13.5-1.36-20.42l.11-14.52-3.4-12.37c-1.47-.34-2.5-1.14-3.06-2.16-.68-1.25-.45-2.72-.23-3.63-1.59-1.48-2.5-5.11-2.84-6.13l-.11-.34.11-.34c.45-1.59.23-4.42,0-5.67-1.25-1.02-2.04-3.86-2.61-8.74-6.24,1.25-6.24,3.86-6.24,3.86-12.03-.79-13.5,4.31-13.5,4.31-2.5,4.54-13.5,17.02-13.5,17.02,4.54,1.47,3.97,6.01,3.97,6.01,2.04,1.48,5.56,8.06,0,6.47-5.56-1.48-6.47,7.03-6.47,7.03-6.47-1.48-9.53,2.5-9.53,2.5-5.56-4.99-12.48,0-12.48,0-18.49-2.04-6.01,9.98-6.01,9.98,4.99,1.47-11.01,13.05-11.01,14.07,0,.11-.11.23-.23.34v.79h.11Z"/>
      <path class="cls-27" d="M914.42,482.42h0c-4.88-.45-6.58-4.76-7.03-6.81l-2.04.11-.11-1.14c0-.34-.23-.57-.45-.79-.34-.23-.91-.34-1.59-.34-1.82,0-4.31.79-5.33,1.13l-8.85,1.82-11.35,1.93-25.07,4.88-12.59,3.4v-1.59c-2.16,1.82-5.22,3.97-6.81,5.11l1.47,8.96,2.04,15.66-.23.91,2.95,12.71,19.85-2.61,14.18-3.63,13.61-2.27,13.05-2.95,8.06-1.36.34,1.02c.11.34.34,1.02.57,2.04,1.82-2.61,4.77-6.13,5.9-6.58.34-.23,1.93-2.16,3.4-4.31l.11-.11c1.25-1.14,1.59-1.7,1.7-1.93-.23-.11-.57-.11-.91-.11h-.34c-2.72-1.02-4.31-2.38-4.99-3.97-.23-.57-.34-1.14-.23-1.7h-2.04l-.34-.68c-1.7-3.74.23-5.11.45-5.33.34-.23.45-.34.57-.45,0-.34-.34-1.02-.68-1.25l-.68-.68,2.04-3.18,1.36-5.9Z"/>
      <path class="cls-26" d="M237.1,363.98l-.34,2.16c.45,0,.91-.11,1.48-.11,1.36,0,2.5.23,3.4.57l1.02.45-.34,1.02s0,.23.11.57c.34.57,1.25.91,2.5,1.13h.23c.23.11,2.72,1.14,3.63,4.09.79,2.15.45,4.77-1.02,7.6.68,1.13,2.95,3.52,8.4,3.52h.45c.34-.57.79-1.25,1.7-1.59.45-.23.79-.23,1.36-.23.91,0,1.93.34,2.95.91,1.13.23,5.56,1.25,7.83,3.4.79-.23,2.38-.45,4.08-.45,1.48,0,2.72.23,3.74.68l.23.11s.57.45,2.04.45c1.02,0,2.15-.23,3.52-.57h.23c.79,0,2.72-.11,4.99-.11,3.74,0,6.13.23,7.26.79h1.93c5.11,0,8.28.68,9.53,2.15l16.57,3.29c-.11-.57-.11-.91-.11-1.25-1.25-4.99,8.62-42.77,11.23-52.87-39.37-9.19-68.19-17.24-68.19-17.24,3.74,6.69,1.7,11.57,1.7,11.57.45,1.7-.79,3.4-.79,3.4,2.95,12.82-3.18,1.02-3.18,1.02-1.02-2.72,1.93-3.4,1.93-3.4-3.97-3.18-3.4,3.74-3.4,3.74-11.57-.23-20.99-9.87-20.99-9.87-6.69-7.37-3.18,7.94-3.18,7.94v13.96c.23,3.74,3.4,5.22,3.4,5.22-7.71-.45-4.42,2.72-4.42,2.72,5.9,2.95-1.48,5.22-1.48,5.22"/>
      <path class="cls-33" d="M594.59,377.36c-.11,6.24.45,12.25,1.36,12.93.57.23,2.61,2.04,2.04,12.14,0,3.29.45,9.64,1.93,12.71.68,1.47,1.02,2.15,1.02,2.72,1.02,2.04,2.27,6.13,0,10.44v3.52l-.91.23c-1.7.34-2.38.91-2.5,1.25-.11,1.02,2.16,3.29,4.99,4.99l.57.34v35.28l19.51.23,33.47-1.7h18.27l-.79-5.9-8.51-5.67-.11-.45c-.45-2.27-3.86-3.4-3.97-3.4l-.57-.11-.23-.57c-.79-1.93-4.88-3.97-7.26-4.65l-.45-.11-.23-.45c-1.7-3.29-.11-10.55.11-11.35l.11-.23c.45-.91.91-2.15.45-2.95-.45-.79-1.81-1.13-2.27-1.13l-1.14-.11.11-1.14c.23-3.97,1.48-7.03,3.74-8.96,1.93-1.59,3.97-2.04,5.11-2.04l3.97-8.05c-2.16-.34-2.38-1.48-1.7-1.02,1.47,1.02,13.5-11.57,13.5-11.57-1.48-6.01,19.51-14.98,19.51-14.98-7.49-4.54-11.01,0-11.01,0-3.97-.45-4.54-3.52-4.54-3.52-3.52,3.97-9.98,3.52-9.98,3.52-3.06-4.99-9.98-4.99-9.98-4.99-5.56-5.56-12.03-4.99-12.03-4.99-4.54,6.58-7.49,0-7.49,0-12.03.45-12.03-4.54-12.03-4.54.45-10.55-4.99-9.98-4.99-9.98v9.08c-3.97,1.02-13.5,1.25-26.21.79,0,1.02-.11,2.72-.91,4.42"/>
      <path class="cls-29" d="M387.88,508.4l-1.25-.11,3.52-19.86c-6.58-.34-23.15-3.52-39.82-7.03l-19.97,93.26,1.93.34c26.32,4.88,65.8,11.91,72.95,12.37l9.99-75.45c-10.55-1.25-20.2-2.61-27.34-3.52"/>
      <path class="cls-29" d="M509.73,599.28h2.61c.57-5.22,3.4-32.67,2.27-39.14-.34-3.18.57-12.03,1.36-20.42.68-6.92,1.36-14.07,1.36-16.9l-27.34-2.27h-.79c-6.81,0-42.32-4.43-71.82-8.17l-9.98,75.33c9.87,1.48,77.38,11.57,102.34,11.57"/>
      <path class="cls-33" d="M631.58,664.52v-34.26l-3.74-18.83.79-7.26-114.82-2.61c-1.02.11-2.27.11-3.63.11-2.72,0-6.01-.11-9.53-.34l-.45,6.58,46.86,1.48v1.14c-.34,15.09-.91,33.69-1.7,37.89,1.82,2.38,3.97,4.31,4.88,4.31.23,0,.34-.34.45-.57l.11-.23c.23-.34.79-1.02,1.59-1.02.11,0,.34,0,.45.11.45.11.68.45.91.79v-.68l.45-.34c.11-.11.68-.57,1.48-.57.34,0,.57.11.79.23,1.25.57,1.93,2.27,2.04,5.45,5.45.34,8.85,1.13,10.44,2.38v-.11l.23-.34c.23-.34.79-1.13,1.7-1.13h.34c.79.23,1.13,1.02,1.25,1.7l2.95-.23-.45,1.7s-.11.45.11.68c.23.23.68.45,1.48.45h1.13v1.82l-.23.34c-.11.11-.11.34-.11.45.11.11.57.34,1.7.34.45,0,1.13-.23,1.13-1.13v-1.59l4.65,1.36.23.23c1.82,1.93,4.54,3.97,5.79,3.97h.34c.34-.11.8-1.02.8-2.84v-.34l.23-.34c.23-.45,1.02-1.36,2.04-1.36.11,0,.34,0,.45.11,1.02.34,1.36,1.47,1.48,2.5h3.29l.34.23c.11,0,1.82,1.25,3.74,1.25,1.02,0,2.04-.46,2.84-1.14l.23-.23,5.67-.91c.34-.45.91-1.13,1.93-1.36.23,0,.34-.11.57-.11.91,0,1.93.45,2.84,1.36h1.59c0-1.13.45-2.04,1.25-2.38.34-.11.57-.23,1.02-.23,1.25,0,2.72.91,4.77,2.95,1.82,2.5,3.97,4.54,4.88,4.54.11,0,.23-.11.23-.23v-.11h.11c-.11-.91.11-1.82.11-3.63"/>
    </g>
    <text class="cls-5" transform="translate(854.47 771.71)"><tspan x="0" y="0">FL</tspan></text>
    <text class="cls-5" transform="translate(367.13 545.46)"><tspan x="0" y="0">UT</tspan></text>
    <text class="cls-5" transform="translate(346.81 454.91)"><tspan x="0" y="0">ID</tspan></text>
    <text class="cls-5" transform="translate(261.78 427.97)"><tspan x="0" y="0">OR</tspan></text>
    <text class="cls-5" transform="translate(236.76 563.61)"><tspan class="cls-40" x="0" y="0">C</tspan><tspan class="cls-31" x="9.26" y="0">A</tspan></text>
    <text class="cls-5" transform="translate(419.56 398.14)"><tspan x="0" y="0">MT</tspan></text>
    <text class="cls-5" transform="translate(292.66 526.56)"><tspan x="0" y="0">NV</tspan></text>
    <text class="cls-5" transform="translate(454.81 562.29)"><tspan x="0" y="0">CO</tspan></text>
    <text class="cls-5" transform="translate(438.73 651.42)"><tspan x="0" y="0">NM</tspan></text>
    <text class="cls-5" transform="translate(433.49 481.42)"><tspan x="0" y="0">WY</tspan></text>
    <text class="cls-5" transform="translate(579.36 639.99)"><tspan x="0" y="0">OK</tspan></text>
    <text class="cls-5" transform="translate(282.42 366.26)"><tspan class="cls-37" x="0" y="0">W</tspan><tspan class="cls-31" x="11.9" y="0">A</tspan></text>
    <text class="cls-5" transform="translate(618.66 431.76)"><tspan x="0" y="0">MN</tspan></text>
    <text class="cls-5" transform="translate(631.6 507.98)"><tspan x="0" y="0">IA</tspan></text>
    <text class="cls-5" transform="translate(651.68 578.65)"><tspan x="0" y="0">MO</tspan></text>
    <text class="cls-5" transform="translate(656.62 647.01)"><tspan x="0" y="0">AR</tspan></text>
    <text class="cls-5" transform="translate(656.62 719.71)"><tspan x="0" y="0">LA</tspan></text>
    <text class="cls-5" transform="translate(704.2 683.37)"><tspan x="0" y="0">MS</tspan></text>
    <text class="cls-5" transform="translate(749.59 683.37)"><tspan x="0" y="0">AL</tspan></text>
    <text class="cls-5" transform="translate(740.54 622.9)"><tspan x="0" y="0">TN</tspan></text>
    <text class="cls-5" transform="translate(775.39 581.37)"><tspan class="cls-39" x="0" y="0">K</tspan><tspan x="8.52" y="0">Y</tspan></text>
    <text class="cls-5" transform="translate(701.4 544.21)"><tspan x="0" y="0">IL</tspan></text>
    <text class="cls-5" transform="translate(686.08 458.45)"><tspan x="0" y="0">WI</tspan></text>
    <text class="cls-5" transform="translate(762.28 481.42)"><tspan x="0" y="0">MI</tspan></text>
    <text class="cls-5" transform="translate(749.59 545.47)"><tspan x="0" y="0">IN</tspan></text>
    <text class="cls-5" transform="translate(794.63 531.5)"><tspan x="0" y="0">OH</tspan></text>
    <text class="cls-5" transform="translate(822.68 563.61)"><tspan x="0" y="0">WV</tspan></text>
    <text class="cls-5" transform="translate(865.67 504.42)"><tspan class="cls-35" x="0" y="0">P</tspan><tspan class="cls-25" x="7.49" y="0">A</tspan></text>
    <text class="cls-5" transform="translate(898.97 460.57)"><tspan x="0" y="0">NY</tspan></text>
    <g class="cls-17">
      <path class="cls-29" d="M525.54,449.27l8.38-22.81-33.73-1.44c-.8,5.9-2.5,15.66-2.61,16.45l-.11,1.25c-.68,9.08-1.82,23.03-2.95,36.53l46.25,2.72v-.3l-15.23-32.39Z"/>
      <path class="cls-33" d="M573.15,483.1l5.79,5.11-.11.57h.34c.57,0,1.81-.23,4.2-1.36l.34-.11h.34c.68.11,1.47.23,2.16.23,1.36,0,1.93-.23,2.04-.34l.68-1.36,1.13,1.02s3.86,3.52,6.58,3.63h.45l.34.23c.45.34.91.79,1.25,1.13l.11-.57c.79-2.61,1.93-7.38,1.82-9.19-1.02-.68-3.18-2.61-2.38-7.15l.23-1.02h2.16v-33.92c-2.04-1.36-6.01-4.31-5.56-7.03.23-1.36,1.36-2.38,3.4-2.95v-.79l-64.53-2.76-8.38,22.81,15.23,32.39v.3l19.44,1.14h12.93Z"/>
      <path class="cls-33" d="M598.22,418.55c-.11-.23-.34-.57-.68-1.02l-.34-.45.34-.23c0-.11-.11-.23-.11-.23-2.16-4.54-2.16-13.5-2.16-13.84.45-8.62-1.02-10.21-1.02-10.21-2.5-1.7-2.5-11.23-2.38-15.09v-.11l.11-.34v-.11c.68-1.47.79-2.84.57-4.08-23.35-.9-56.49-3.69-86.76-6.49l-3.41,28.59c-.14,1.35-.29,2.61-.41,3.71h19.49l13.3,25.53-.06.16,64.08,2.73c1.7-3.63.45-6.92-.57-8.51"/>
      <path class="cls-29" d="M521.47,398.64h-19.49c-.24,2.15-.42,3.72-.42,4.14v1.02c-.11,3.52-.91,14.41-1.25,19.06l34.39,1.47.06-.16-13.3-25.53Z"/>
      <path class="cls-33" d="M504.85,366.24c.23,4.08-.79,13.73-2.38,27.91-.03.26-.05.52-.08.77l3.41-28.59c-.31-.03-.63-.06-.94-.09"/>
      <path class="cls-29" d="M540.77,497.54v-13.07l-46.48-2.72c-1.36,16.68-2.61,32.22-3.06,36.76l28.14,2.38.11.91c.34,2.16-.34,9.76-1.25,18.49v.23l13.52.35v-31.75l9.01-11.58Z"/>
      <path class="cls-33" d="M612.41,538.7c-.8-.57-1.82-1.93-2.95-7.03l-1.7-11.68c0-5.11-2.5-7.72-2.5-7.72l-.45-.57.23-.68c.57-1.82-1.02-4.77-2.27-6.35l-.11-.23-3.06-8.74c-.8-.45-1.93-1.36-3.52-2.72-2.61-.34-5.45-2.38-6.81-3.52-.68.34-1.7.57-3.06.57-.91,0-1.7-.11-2.27-.11-2.04.91-3.63,1.36-4.88,1.36-.79,0-1.48-.23-1.93-.57-.57-.45-.79-1.02-.79-1.48l-4.08-3.63h-12.14l-19.33-1.13v13.07l-9.01,11.58v31.74l81.89,2.14-1.25-4.31Z"/>
      <path class="cls-33" d="M627.04,560.48c-1.82-.45-3.29-1.47-4.2-2.84-1.82-2.84-1.02-6.24-1.02-6.35l.11-.23c1.36-2.5,1.25-3.4,1.25-3.63h-.23c-.23,0-.57.11-.79.11-.79.23-1.36.23-2.04.23-3.06,0-4.77-1.82-5.45-2.84l-82.91-2.14v1.51h-13.81c-.08.83-.15,1.65-.22,2.45l-.34,9.99h18.02l-5.15,35.61h-14.75c-.2,2.09-.38,3.89-.52,5.26l-.07,1.44,113.6,2.95-1.47-41.52Z"/>
      <path class="cls-33" d="M514.83,599.05h.08s.07-1.44.07-1.44c-.06.56-.11,1.04-.15,1.44"/>
      <path class="cls-33" d="M531.76,542.79l-13.64-.35c-.06.62-.11,1.25-.17,1.86h13.81v-1.51Z"/>
      <path class="cls-29" d="M535.41,556.75h-18.02l.34-9.99c-.52,5.82-.93,10.92-.74,12.93.88,5.12-.5,22.35-1.48,32.67h14.75l5.15-35.61Z"/>
    </g>
    <text class="cls-5" transform="translate(967.97 393.81)"><tspan x="0" y="0">ME</tspan></text>
    <text class="cls-12" transform="translate(919.75 398.13)"><tspan x="0" y="0">VT</tspan></text>
    <text class="cls-12" transform="translate(977.52 441.13)"><tspan x="0" y="0">NH</tspan></text>
    <text class="cls-12" transform="translate(989.51 459.61)"><tspan x="0" y="0">MA</tspan></text>
    <text class="cls-12" transform="translate(967.16 486.05)"><tspan x="0" y="0">RI</tspan></text>
    <text class="cls-12" transform="translate(943.36 512.37)"><tspan x="0" y="0">NJ</tspan></text>
    <text class="cls-12" transform="translate(940.15 533.71)"><tspan x="0" y="0">DE</tspan></text>
    <text class="cls-12" transform="translate(937.37 550.83)"><tspan x="0" y="0">MD</tspan></text>
    <text class="cls-12" transform="translate(933.91 568.2)"><tspan x="0" y="0">DC</tspan></text>
    <text class="cls-5" transform="translate(933.91 476.4)"><tspan x="0" y="0">CT</tspan></text>
    <text class="cls-5" transform="translate(806.29 677.2)"><tspan class="cls-38" x="0" y="0">G</tspan><tspan x="9.72" y="0">A</tspan></text>
    <text class="cls-5" transform="translate(865.13 611)"><tspan x="0" y="0">NC</tspan></text>
    <text class="cls-5" transform="translate(842.13 651.4)"><tspan x="0" y="0">SC</tspan></text>
    <text class="cls-5" transform="translate(867.53 570.41)"><tspan class="cls-36" x="0" y="0">V</tspan><tspan x="8.69" y="0">A</tspan></text>
    <text class="cls-5" transform="translate(563.02 578.62)"><tspan x="0" y="0">KS</tspan></text>
    <text class="cls-5" transform="translate(545.32 518.5)"><tspan x="0" y="0">NE</tspan></text>
    <text class="cls-5" transform="translate(540.88 458.42)"><tspan x="0" y="0">SD</tspan></text>
    <text class="cls-5" transform="translate(542.67 400.87)"><tspan x="0" y="0">ND</tspan></text>
    <text class="cls-5" transform="translate(552.42 719.68)"><tspan x="0" y="0">TX</tspan></text>
    <g class="cls-20">
      <line class="cls-2" x1="928.92" y1="400.87" x2="928.92" y2="411.29"/>
      <line class="cls-2" x1="976.58" y1="437.55" x2="964.58" y2="438.01"/>
      <line class="cls-2" x1="964.58" y1="474.65" x2="961.79" y2="469.38"/>
      <line class="cls-2" x1="984.09" y1="454.91" x2="963.19" y2="454.91"/>
      <line class="cls-2" x1="941.6" y1="507.95" x2="930.86" y2="507.95"/>
      <line class="cls-2" x1="932.77" y1="545.46" x2="922.02" y2="545.46"/>
      <line class="cls-2" x1="935.06" y1="531.21" x2="919.6" y2="536.14"/>
      <polyline class="cls-3" points="888.56 535.53 891.26 532.57 894.51 534.85 892.14 538.49"/>
      <line class="cls-2" x1="892.19" y1="535.16" x2="929.38" y2="560.91"/>
      <path class="cls-26" d="M331.95,412.21c5.09-.3,10.17-.63,15.26-.95,2.33-.14,4.79.98,7.11.5.49-.1.88-.23,1.2-.37-1.82-5.26,2.99-15.54,3.55-16.67l.11-.23.23-.23c1.14-.79,1.7-1.59,1.7-2.16-.11-1.02-2.27-2.27-3.63-2.72l-.23-.11c-3.29-2.04-6.01-9.64-6.92-12.37-2.95-1.25-4.31-5.45-4.31-5.67l-.11-.34.11-.34c2.27-7.6-1.13-9.42-1.25-9.42l-1.02-.45.45-1.02c.45-1.02,2.15-10.21,3.4-17.24-3.52-.79-6.92-1.59-10.21-2.38-6.24,23.71-12.14,49.35-11.35,51.73l.11.23c0,.11,0,.91.23,2.04v.11c.34,1.93,1.13,4.65,2.84,5.45l.34.11.23.34c1.02,1.48,2.04,4.99-.91,7.15-.68.79-4.2,5.56-5.56,7.26.01.1.02.2.03.31,1.98-2.98,5.16-2.37,8.6-2.57"/>
      <path class="cls-33" d="M721.09,417.96c-6.18-.76-12.8-1.42-19.21-1.42-2.61-2.16-5.68-4.47-8.43-6.6-.78,2.89-3.52,4.21-6.5,4.87.45.57,1.13,1.36,2.5,1.36h.11l8.4,1.93,3.52.57,3.06,1.7,12.25,1.7-.91,1.48s-.11.23,0,.45c.11.23.68,1.02,4.42,1.25l1.02.11,1.13,10.44,3.4,2.95c2.11-4.15,4.33-8.13,5.51-10.2-3.18-3.26-7.78-7.23-10.27-10.58"/>
      <path class="cls-27" d="M769.77,415.26v-5.67c-8.51,3.52-12.03,1.02-12.03,1.02v-4.99l-5.56,3.06c-8.06-3.97-16.56,6.69-16.56,6.69-4.99-6.81-9.53,0-9.53,0-2.04-9.3-8.51-8.74-8.51-8.74-10.55,4.99-7.03,2.04-7.03,2.04-.45-6.01,9.08-13.05,9.08-13.05-2.5-.45-8.51,2.5-8.51,2.5-8.06,12.03-17.59,11.57-17.59,11.57-.02.08-.06.15-.08.24,2.76,2.12,5.83,4.44,8.43,6.6,6.41,0,13.03.67,19.21,1.42,2.49,3.36,7.09,7.32,10.27,10.58.53-.93.85-1.48.85-1.48,8.51-3.52,9.53-.45,9.53-.45,3.86,2.38,2.5-5.67,2.5-5.67,2.5,1.36,6.01,0,6.01,0,3.52-6.13,7.03-1.36,7.03-1.36,4.99,3.06,9.53,0,9.53,0,1.02-2.5,7.49,0,7.49,0l-4.54-4.31Z"/>
      <path class="cls-28" d="M677.85,816.1c0-28.16,22.83-50.99,50.99-50.99s50.99,22.83,50.99,50.99-22.83,50.99-50.99,50.99-50.99-22.83-50.99-50.99"/>
    </g>
    <text class="cls-6" transform="translate(713.61 828.2)"><tspan x="0" y="0">9</tspan></text>
    <text class="cls-13" transform="translate(716.98 846.32)"><tspan x="0" y="0">AM</tspan></text>
    <g class="cls-18">
      <path class="cls-28" d="M303.54,771.71c0-28.16,22.83-50.99,50.99-50.99s50.99,22.83,50.99,50.99-22.83,50.99-50.99,50.99-50.99-22.83-50.99-50.99"/>
    </g>
    <text class="cls-6" transform="translate(339.07 783.81)"><tspan x="0" y="0">8</tspan></text>
    <text class="cls-13" transform="translate(342.66 801.93)"><tspan x="0" y="0">AM</tspan></text>
    <g class="cls-19">
      <path class="cls-28" d="M117.68,649.64c0-28.16,22.83-50.99,50.99-50.99s50.99,22.83,50.99,50.99-22.83,50.99-50.99,50.99-50.99-22.83-50.99-50.99"/>
    </g>
    <text class="cls-6" transform="translate(154.27 661.75)"><tspan x="0" y="0">7</tspan></text>
    <text class="cls-13" transform="translate(156.81 679.87)"><tspan x="0" y="0">AM</tspan></text>
    <g class="cls-24">
      <path class="cls-28" d="M933.1,649.64c0-28.16,22.83-50.99,50.99-50.99s50.99,22.83,50.99,50.99-22.83,50.99-50.99,50.99-50.99-22.83-50.99-50.99"/>
    </g>
    <text class="cls-6" transform="translate(957.18 661.75)"><tspan x="0" y="0">10</tspan></text>
    <text class="cls-13" transform="translate(972.23 679.87)"><tspan x="0" y="0">AM</tspan></text>
    <text class="cls-8" transform="translate(262.18 293.03) rotate(11.1)"><tspan class="cls-62" x="0" y="0">P</tspan><tspan class="cls-61" x="9.82" y="0">A</tspan><tspan class="cls-46" x="21.18" y="0">CI</tspan><tspan class="cls-50" x="38.75" y="0">F</tspan><tspan class="cls-44" x="48.89" y="0">I</tspan><tspan x="54.56" y="0">C</tspan></text>
    <text class="cls-8" transform="translate(272.34 311.14) rotate(11.1)"><tspan x="0" y="0">(</tspan></text>
    <path class="cls-14" d="M280.75,304.31l4.13.81c1.84.36,2.63,1.78,2.35,3.22-.29,1.46-1.49,2.5-3.4,2.13l-2.17-.43-.55,2.82-1.96-.38,1.6-8.17ZM284.3,306.72l-1.92-.38-.4,2.04,1.92.38c.74.15,1.2-.23,1.32-.81.11-.55-.19-1.09-.92-1.23Z"/>
    <path class="cls-14" d="M289.58,311.9c.45.68,1.41,1.39,2.5,1.6,1.01.2,1.54-.12,1.63-.61.11-.55-.6-.87-1.45-1.24-1.32-.57-3.02-1.27-2.65-3.16.27-1.38,1.78-2.29,3.77-1.9,1.4.27,2.44.94,3.11,1.83l-1.19,1.19c-.51-.69-1.46-1.21-2.26-1.37-.77-.15-1.33.09-1.42.57s.59.76,1.42,1.13c1.33.55,3.09,1.32,2.71,3.25-.31,1.58-1.75,2.39-4.04,1.94-1.56-.31-2.72-1.09-3.3-1.93l1.18-1.3Z"/>
    <polygon class="cls-14" points="300.97 310.05 298.65 309.59 298.99 307.89 305.6 309.18 305.27 310.89 302.94 310.43 301.67 316.9 299.71 316.51 300.97 310.05"/>
    <text class="cls-8" transform="translate(305.81 317.7) rotate(11.1)"><tspan x="0" y="0">)</tspan></text>
    <text class="cls-10" transform="translate(399.01 319.5) rotate(7.75)"><tspan class="cls-41" x="0" y="0">M</tspan><tspan class="cls-51" x="14.46" y="0">O</tspan><tspan class="cls-43" x="27.53" y="0">UN</tspan><tspan class="cls-64" x="52.62" y="0">T</tspan><tspan class="cls-41" x="61.96" y="0">AI</tspan><tspan x="79.49" y="0">N</tspan></text>
    <text class="cls-10" transform="translate(438.13 305.19) rotate(7.75)"><tspan class="cls-51" x="0" y="0">+</tspan><tspan x="9.13" y="0">1</tspan></text>
    <text class="cls-10" transform="translate(419.74 339.48) rotate(7.75)"><tspan x="0" y="0">(</tspan></text>
    <polygon class="cls-14" points="434.89 336.02 431.85 341.17 430.94 341.04 429.39 335.27 428.64 340.73 426.66 340.46 427.79 332.21 430.43 332.57 431.83 337.86 434.6 333.14 437.25 333.5 436.13 341.75 434.15 341.48 434.89 336.02"/>
    <path class="cls-14" d="M440.07,339.69c.49.65,1.49,1.3,2.58,1.45,1.02.14,1.53-.2,1.59-.7.08-.55-.65-.84-1.52-1.15-1.35-.49-3.09-1.09-2.83-3,.19-1.39,1.64-2.39,3.65-2.12,1.41.19,2.49.8,3.21,1.64l-1.12,1.25c-.55-.66-1.53-1.12-2.34-1.24-.78-.11-1.32.17-1.39.65s.63.73,1.48,1.04c1.36.48,3.16,1.13,2.89,3.08-.22,1.59-1.61,2.49-3.92,2.17-1.57-.21-2.78-.93-3.4-1.73l1.1-1.36Z"/>
    <polygon class="cls-14" points="451.34 337.17 449 336.85 449.24 335.13 455.91 336.04 455.67 337.76 453.32 337.44 452.43 343.97 450.45 343.7 451.34 337.17"/>
    <text class="cls-10" transform="translate(456.57 344.48) rotate(7.75)"><tspan x="0" y="0">)</tspan></text>
    <text class="cls-9" transform="translate(592.14 336.1) rotate(.32)"><tspan class="cls-52" x="0" y="0">C</tspan><tspan class="cls-49" x="11.9" y="0">ENTRA</tspan><tspan x="68.22" y="0">L</tspan></text>
    <text class="cls-9" transform="translate(610.69 354.45) rotate(.32)"><tspan x="0" y="0">(</tspan></text>
    <path class="cls-14" d="M621.8,346.03c1.8.01,2.98.99,3.59,2.14l-1.67.79c-.36-.67-1.07-1.17-1.93-1.18-1.44,0-2.5,1.09-2.51,2.57,0,1.48,1.04,2.59,2.48,2.6.86,0,1.61-.47,1.94-1.14l1.66.78c-.63,1.16-1.81,2.12-3.62,2.11-2.59-.02-4.52-1.81-4.5-4.37.02-2.57,1.96-4.33,4.55-4.32Z"/>
    <path class="cls-14" d="M628.31,352c.57.58,1.64,1.1,2.75,1.11,1.03,0,1.49-.4,1.49-.9,0-.56-.75-.75-1.66-.95-1.41-.31-3.2-.69-3.19-2.61,0-1.41,1.32-2.58,3.35-2.57,1.42,0,2.57.47,3.4,1.22l-.95,1.39c-.63-.58-1.66-.92-2.48-.92-.79,0-1.29.34-1.29.82s.72.64,1.6.84c1.41.3,3.28.72,3.27,2.68,0,1.6-1.27,2.67-3.6,2.66-1.59,0-2.87-.56-3.59-1.28l.92-1.49Z"/>
    <polygon class="cls-14" points="639.16 348.05 636.79 348.04 636.8 346.3 643.54 346.34 643.53 348.08 641.15 348.06 641.11 354.65 639.12 354.64 639.16 348.05"/>
    <text class="cls-9" transform="translate(645.26 354.64) rotate(.32)"><tspan x="0" y="0">)</tspan></text>
    <text class="cls-9" transform="translate(622.36 316.87) rotate(.32)"><tspan class="cls-52" x="0" y="0">+</tspan><tspan x="9.13" y="0">2</tspan></text>
    <text class="cls-11" transform="translate(822.26 355.73) rotate(-3.58)"><tspan x="0" y="0">(</tspan></text>
    <polygon class="cls-14" points="828.74 347 835.01 346.61 835.11 348.29 830.84 348.56 830.93 350.11 835.12 349.85 835.22 351.54 831.04 351.8 831.15 353.49 835.42 353.23 835.53 354.92 829.26 355.31 828.74 347"/>
    <path class="cls-14" d="M838.69,352.14c.61.54,1.71.98,2.82.92,1.03-.06,1.45-.5,1.42-1-.03-.56-.8-.69-1.72-.83-1.42-.21-3.24-.46-3.36-2.38-.09-1.4,1.14-2.66,3.16-2.79,1.42-.09,2.6.29,3.47.98l-.85,1.45c-.67-.53-1.72-.8-2.53-.75s-1.26.43-1.23.91.76.59,1.65.73c1.42.2,3.32.49,3.44,2.45.1,1.6-1.09,2.75-3.41,2.9-1.59.1-2.9-.36-3.67-1.03l.81-1.55Z"/>
    <polygon class="cls-14" points="849.24 347.47 846.89 347.61 846.78 345.88 853.5 345.46 853.61 347.19 851.24 347.34 851.65 353.91 849.65 354.04 849.24 347.47"/>
    <text class="cls-11" transform="translate(855.79 353.64) rotate(-3.58)"><tspan x="0" y="0">)</tspan></text>
    <text class="cls-11" transform="translate(828.34 315.28) rotate(-3.58)"><tspan class="cls-53" x="0" y="0">+</tspan><tspan x="9.13" y="0">3</tspan></text>
    <text class="cls-11" transform="translate(799.59 338.67) rotate(-3.58)"><tspan class="cls-42" x="0" y="0">E</tspan><tspan class="cls-60" x="10.34" y="0">A</tspan><tspan class="cls-59" x="22.1" y="0">S</tspan><tspan class="cls-48" x="32.58" y="0">T</tspan><tspan class="cls-55" x="42.9" y="0">E</tspan><tspan class="cls-42" x="53.22" y="0">R</tspan><tspan x="64.47" y="0">N</tspan></text>
    <g class="cls-21">
      <path class="cls-14" d="M972.42,13.81c-.13,0-.24-.05-.34-.14-.1-.1-.15-.21-.15-.34V1.66c0-.13.05-.24.15-.34.1-.1.21-.15.34-.15h9.39c.13,0,.24.05.34.15.1.1.15.21.15.34v2.35c0,.14-.05.26-.15.35-.1.1-.21.15-.34.15h-5.41v1.29h4.62c.13,0,.24.05.34.15.1.1.15.21.15.34v2.32c0,.14-.05.26-.15.35-.1.1-.21.15-.34.15l-4.62.02v1.35h5.85c.14,0,.26.05.35.15.09.1.14.21.14.35v2.35c0,.13-.05.24-.14.34-.09.1-.21.14-.35.14h-9.83Z"/>
      <path class="cls-14" d="M1000.97,1.16c.2,0,.35.07.44.22.09.15.1.31,0,.49l-5.86,11.85c-.04.08-.11.14-.2.19-.09.05-.17.08-.25.08h-2.11c-.07,0-.16-.03-.26-.09-.1-.06-.16-.13-.19-.2l-5.81-11.85c-.09-.18-.08-.34.01-.48.1-.14.24-.21.44-.21h3.66c.09,0,.17.03.26.08.09.05.15.12.19.21l2.91,6.25,2.8-6.25c.03-.08.09-.14.19-.2.09-.06.18-.09.27-.09h3.51Z"/>
      <path class="cls-14" d="M1005.44,13.81c-.13,0-.24-.05-.34-.14-.1-.1-.15-.21-.15-.34V1.66c0-.13.05-.24.15-.34.1-.1.21-.15.34-.15h9.39c.13,0,.24.05.34.15.1.1.15.21.15.34v2.35c0,.14-.05.26-.15.35-.1.1-.21.15-.34.15h-5.41v1.29h4.62c.13,0,.24.05.34.15.1.1.15.21.15.34v2.32c0,.14-.05.26-.15.35-.1.1-.21.15-.34.15l-4.62.02v1.35h5.85c.14,0,.26.05.35.15.09.1.14.21.14.35v2.35c0,.13-.04.24-.14.34-.09.1-.21.14-.35.14h-9.83Z"/>
      <path class="cls-14" d="M1024.24,9.34v3.98c0,.13-.05.24-.15.34-.1.1-.22.15-.35.15h-3.58c-.13,0-.24-.05-.34-.15s-.15-.21-.15-.34V1.66c0-.13.05-.24.15-.34.1-.1.21-.15.34-.15h8.09c1.38,0,2.5.31,3.33.92.9.65,1.35,1.53,1.35,2.63,0,1.22-.37,2.11-1.11,2.66-.18.14-.4.27-.64.39-.24.12-.51.23-.8.33.34.18.64.38.88.6.24.21.44.43.6.65l2.21,3.72c.11.18.11.35.02.51-.09.16-.24.23-.44.23h-4.09c-.09,0-.17-.03-.25-.08-.08-.05-.14-.12-.18-.19l-2.06-3.83.02.03c-.04-.05-.09-.11-.14-.16-.05-.05-.1-.1-.15-.13-.07-.06-.41-.1-1-.1h-1.56ZM1024.14,4.06v2.4h1.93c.78,0,1.38-.09,1.79-.27.41-.18.61-.51.61-.98,0-.4-.16-.69-.47-.87-.31-.18-.76-.27-1.35-.27h-2.51Z"/>
      <path class="cls-14" d="M1041.4,7.57c0,.99.34,1.77,1.02,2.35.69.58,1.64.87,2.85.87.98,0,1.71-.1,2.21-.29v-.81h-1.69c-.14,0-.26-.05-.35-.15-.1-.1-.15-.21-.15-.35v-2.14c0-.14.05-.26.15-.35.1-.09.21-.14.35-.14h5.15c.14,0,.26.05.36.14.1.09.14.21.14.35v5.65c0,.1-.03.19-.1.28-.07.09-.15.15-.25.18-.78.25-1.68.45-2.68.6-1,.15-2.09.23-3.26.23-2.65,0-4.68-.51-6.09-1.54-1.41-1.03-2.11-2.61-2.11-4.74s.72-3.75,2.17-4.98c1.45-1.2,3.35-1.8,5.69-1.8,1.14,0,2.16.07,3.08.22.91.14,1.65.3,2.21.47.09.02.16.07.23.15.07.08.11.16.12.25l.28,2.24c.02.18-.03.33-.16.44-.13.11-.28.14-.47.09-.58-.17-1.28-.34-2.09-.5-.4-.08-.8-.13-1.2-.18-.4-.04-.81-.07-1.22-.07-1.27,0-2.29.32-3.06.97-.74.64-1.11,1.49-1.11,2.54"/>
      <path class="cls-14" d="M1060.21,9.34v3.98c0,.13-.05.24-.15.34-.1.1-.21.15-.35.15h-3.58c-.13,0-.24-.05-.34-.15-.1-.1-.15-.21-.15-.34V1.66c0-.13.05-.24.15-.34.1-.1.21-.15.34-.15h8.09c1.39,0,2.5.31,3.33.92.9.65,1.35,1.53,1.35,2.63,0,1.22-.37,2.11-1.11,2.66-.18.14-.39.27-.64.39-.24.12-.51.23-.8.33.34.18.64.38.88.6.24.21.44.43.6.65l2.21,3.72c.11.18.12.35.02.51-.09.16-.24.23-.44.23h-4.09c-.09,0-.17-.03-.25-.08-.08-.05-.14-.12-.19-.19l-2.06-3.83.02.03c-.04-.05-.09-.11-.14-.16-.05-.05-.1-.1-.15-.13-.08-.06-.41-.1-1-.1h-1.56ZM1060.11,4.06v2.4h1.93c.78,0,1.38-.09,1.79-.27.41-.18.61-.51.61-.98,0-.4-.16-.69-.47-.87-.31-.18-.76-.27-1.35-.27h-2.51Z"/>
      <path class="cls-14" d="M1074.55,13.81c-.13,0-.24-.05-.34-.14-.1-.1-.14-.21-.14-.34V1.66c0-.13.05-.24.14-.34.1-.1.21-.15.34-.15h9.39c.13,0,.24.05.34.15.1.1.15.21.15.34v2.35c0,.14-.05.26-.15.35-.1.1-.21.15-.34.15h-5.41v1.29h4.62c.13,0,.24.05.34.15s.15.21.15.34v2.32c0,.14-.05.26-.15.35-.1.1-.21.15-.34.15l-4.62.02v1.35h5.85c.14,0,.26.05.35.15.09.1.14.21.14.35v2.35c0,.13-.05.24-.14.34-.09.1-.21.14-.35.14h-9.83Z"/>
      <path class="cls-14" d="M1089.27,13.81c-.13,0-.24-.05-.34-.14-.1-.1-.14-.21-.14-.34V1.66c0-.13.05-.24.14-.34.1-.1.21-.15.34-.15h9.39c.13,0,.24.05.34.15.1.1.15.21.15.34v2.35c0,.14-.05.26-.15.35-.1.1-.21.15-.34.15h-5.41v1.29h4.62c.13,0,.24.05.34.15.1.1.15.21.15.34v2.32c0,.14-.05.26-.15.35-.1.1-.21.15-.34.15l-4.62.02v1.35h5.85c.14,0,.26.05.35.15.09.1.14.21.14.35v2.35c0,.13-.05.24-.14.34-.09.1-.21.14-.35.14h-9.82Z"/>
      <path class="cls-14" d="M1110.71,5.09c.31.41.62.82.92,1.23.3.41.61.83.92,1.26V1.66c0-.13.05-.24.14-.34.1-.1.21-.15.35-.15h3.14c.14,0,.26.05.35.15.1.1.15.21.15.34v11.66c0,.13-.05.24-.15.34-.1.1-.21.15-.35.15h-3.61c-.05,0-.12-.02-.21-.06-.09-.04-.15-.08-.19-.14l-4.54-6.12v5.83c0,.13-.05.24-.15.34-.1.1-.22.15-.35.15h-3.14c-.13,0-.24-.05-.34-.15-.1-.1-.15-.21-.15-.34V1.66c0-.13.05-.24.15-.34.1-.1.21-.15.34-.15h3.58c.07,0,.14.02.23.07.09.04.15.09.17.15.47.64.93,1.27,1.38,1.88.45.61.9,1.22,1.36,1.83"/>
      <path class="cls-14" d="M965.16,17.73c-.28.78-2.12-1.46-4.87-1.88-2.76-.69-6.42.45-10.35,1.88-3.93,1.52-7.38.66-9.77-1.75-2.4-2.24-3.74-6.02-3.46-6.37.28-.78,2.12,1.46,4.87,1.88,2.76.69,6.42-.45,10.35-1.88,3.93-1.52,7.38-.66,9.77,1.75,2.39,2.24,3.74,6.02,3.46,6.37"/>
      <path class="cls-14" d="M967.19,26.58c-.28.78-2.12-1.46-4.88-1.88-2.76-.69-6.43.45-10.35,1.88-3.93,1.52-7.38.66-9.77-1.75-2.39-2.24-3.74-6.02-3.46-6.37.28-.78,2.12,1.46,4.87,1.88,2.76.69,6.43-.45,10.36-1.88,3.93-1.52,7.38-.66,9.77,1.75,2.39,2.24,3.74,6.02,3.46,6.37"/>
      <path class="cls-14" d="M962.87,8.88c-.28.78-2.12-1.46-4.87-1.88-2.76-.69-6.42.45-10.35,1.88-3.93,1.52-7.38.66-9.77-1.75-2.4-2.24-3.74-6.02-3.46-6.37.28-.78,2.12,1.46,4.87,1.88,2.76.69,6.42-.45,10.35-1.88,3.93-1.52,7.38-.66,9.77,1.75,2.4,2.24,3.74,6.02,3.46,6.37"/>
      <path class="cls-14" d="M977.38,23.63c.42.22,1.09.44,1.76.44.73,0,1.12-.3,1.12-.76s-.34-.69-1.18-.98c-1.17-.42-1.94-1.07-1.94-2.09,0-1.2,1.01-2.11,2.66-2.11.8,0,1.38.16,1.8.35l-.36,1.27c-.27-.14-.78-.33-1.46-.33s-1.02.32-1.02.68c0,.45.39.65,1.31.99,1.24.46,1.82,1.11,1.82,2.1,0,1.18-.9,2.18-2.83,2.18-.8,0-1.6-.22-1.99-.44l.32-1.31Z"/>
      <path class="cls-14" d="M988.79,23.46l-.5,1.81h-1.64l2.14-7.04h2.09l2.19,7.04h-1.72l-.54-1.81h-2.01ZM990.57,22.27l-.44-1.49c-.13-.42-.25-.94-.36-1.36h-.02c-.1.42-.21.95-.33,1.36l-.42,1.49h1.56Z"/>
      <polygon class="cls-14" points="998.19 18.23 1002.48 18.23 1002.48 19.53 999.77 19.53 999.77 21.14 1002.3 21.14 1002.3 22.44 999.77 22.44 999.77 25.27 998.19 25.27 998.19 18.23"/>
      <polygon class="cls-14" points="1012.05 22.29 1009.46 22.29 1009.46 23.96 1012.35 23.96 1012.35 25.27 1007.87 25.27 1007.87 18.23 1012.2 18.23 1012.2 19.53 1009.46 19.53 1009.46 20.99 1012.05 20.99 1012.05 22.29"/>
      <polygon class="cls-14" points="1019.03 19.56 1017.13 19.56 1017.13 18.23 1022.54 18.23 1022.54 19.56 1020.62 19.56 1020.62 25.27 1019.03 25.27 1019.03 19.56"/>
      <path class="cls-14" d="M1029.27,25.27v-2.88l-2.23-4.16h1.83l.71,1.69c.22.51.38.89.54,1.35h.02c.16-.44.32-.85.53-1.35l.71-1.69h1.79l-2.32,4.1v2.93h-1.59Z"/>
      <path class="cls-14" d="M1049.56,25.08c-.28.14-.95.3-1.8.3-2.43,0-3.69-1.53-3.69-3.53,0-2.4,1.71-3.73,3.84-3.73.83,0,1.45.16,1.73.31l-.33,1.25c-.31-.14-.76-.26-1.34-.26-1.25,0-2.23.76-2.23,2.33,0,1.41.83,2.3,2.25,2.3.49,0,1.01-.09,1.34-.23l.23,1.25Z"/>
      <path class="cls-14" d="M1060.93,21.67c0,2.32-1.39,3.71-3.46,3.71s-3.31-1.58-3.31-3.59,1.36-3.69,3.43-3.69,3.34,1.62,3.34,3.57M1055.84,21.76c0,1.39.65,2.36,1.71,2.36s1.69-1.02,1.69-2.39c0-1.28-.59-2.36-1.69-2.36s-1.71,1.02-1.71,2.39"/>
      <path class="cls-14" d="M1067.74,18.23v4.04c0,1.22.47,1.84,1.27,1.84s1.3-.58,1.3-1.84v-4.04h1.59v3.95c0,2.17-1.1,3.21-2.93,3.21s-2.81-.99-2.81-3.23v-3.93h1.59Z"/>
      <path class="cls-14" d="M1077.45,25.27v-7.04h1.86l1.46,2.58c.42.74.82,1.62,1.15,2.41h.02c-.09-.93-.12-1.88-.12-2.94v-2.05h1.46v7.04h-1.67l-1.5-2.71c-.42-.75-.89-1.66-1.22-2.49h-.04c.05.94.07,1.93.07,3.08v2.12h-1.46Z"/>
      <path class="cls-14" d="M1093.99,25.08c-.28.14-.95.3-1.8.3-2.43,0-3.68-1.53-3.68-3.53,0-2.4,1.71-3.73,3.84-3.73.83,0,1.45.16,1.73.31l-.34,1.25c-.31-.14-.76-.26-1.34-.26-1.25,0-2.24.76-2.24,2.33,0,1.41.84,2.3,2.25,2.3.49,0,1.01-.09,1.34-.23l.23,1.25Z"/>
      <rect class="cls-14" x="1099.24" y="18.23" width="1.59" height="7.04"/>
      <polygon class="cls-14" points="1106.39 18.23 1107.98 18.23 1107.98 23.93 1110.78 23.93 1110.78 25.27 1106.39 25.27 1106.39 18.23"/>
      <path class="cls-14" d="M278.63,350.91l5.06-4.17c.71-.59.34-1.75-.59-1.8l-6.52-.39c-.39-.03-.74-.27-.89-.64l-2.39-6.12c-.35-.86-1.55-.86-1.9,0l-2.39,6.1c-.15.37-.49.62-.89.64l-6.54.4c-.94.05-1.31,1.21-.59,1.8l5.06,4.15c.3.25.44.67.35,1.04l-1.65,6.34c-.22.89.74,1.6,1.53,1.11l5.5-3.53c.35-.22.77-.22,1.09,0l5.53,3.53c.79.49,1.75-.22,1.53-1.11l-1.65-6.32c-.07-.37.05-.76.37-1.01"/>
    </g>
    <g>
      <path class="cls-28" d="M350.27,199.75c0-12.3,9.31-20.6,21.26-20.6,9.91,0,15.05,5.43,17.67,10.69l-8.84,4.18c-1.31-3.16-4.72-5.79-8.84-5.79-6.21,0-10.81,5.02-10.81,11.52s4.6,11.52,10.81,11.52c4.12,0,7.52-2.63,8.84-5.79l8.84,4.18c-2.57,5.13-7.76,10.69-17.67,10.69-11.94,0-21.26-8.36-21.26-20.6Z"/>
      <path class="cls-28" d="M393.38,219.63v-39.83h9.19v39.83h-9.19Z"/>
      <path class="cls-28" d="M426.28,219.63v-2.87c-1.79,2.15-5.25,3.58-8.96,3.58-4.42,0-9.91-2.99-9.91-9.49,0-6.99,5.49-9.08,9.91-9.08,3.82,0,7.22,1.19,8.96,3.34v-3.64c0-2.51-2.15-4.18-5.85-4.18-2.87,0-5.85,1.07-8.18,3.04l-3.28-5.79c3.7-3.16,8.66-4.48,13.08-4.48,6.93,0,13.43,2.57,13.43,11.52v18.03h-9.19ZM426.28,209.66c-.96-1.31-3.11-2.03-5.13-2.03-2.45,0-4.6,1.08-4.6,3.34s2.15,3.34,4.6,3.34c2.03,0,4.18-.72,5.13-2.09v-2.57Z"/>
      <path class="cls-28" d="M443.53,209.6c2.15,1.91,6.75,3.82,10.15,3.82,2.75,0,3.88-.9,3.88-2.15,0-1.49-1.97-2.03-4.96-2.51-4.9-.84-11.82-1.85-11.82-9.19,0-5.08,4.36-9.49,12.36-9.49,4.84,0,8.96,1.55,12.06,3.82l-3.52,6.09c-1.73-1.67-5.02-3.16-8.48-3.16-2.15,0-3.64.72-3.64,1.97s1.55,1.79,4.6,2.33c4.9.84,12.18,2.03,12.18,9.67,0,5.49-4.84,9.55-13.14,9.55-5.13,0-10.45-1.73-13.49-4.42l3.82-6.33Z"/>
      <path class="cls-28" d="M472.43,209.6c2.15,1.91,6.75,3.82,10.15,3.82,2.75,0,3.88-.9,3.88-2.15,0-1.49-1.97-2.03-4.96-2.51-4.9-.84-11.82-1.85-11.82-9.19,0-5.08,4.36-9.49,12.36-9.49,4.84,0,8.96,1.55,12.06,3.82l-3.52,6.09c-1.73-1.67-5.02-3.16-8.48-3.16-2.15,0-3.64.72-3.64,1.97s1.55,1.79,4.6,2.33c4.9.84,12.18,2.03,12.18,9.67,0,5.49-4.84,9.55-13.14,9.55-5.13,0-10.45-1.73-13.49-4.42l3.82-6.33Z"/>
      <path class="cls-28" d="M518.04,206.32c2.87,2.87,7.28,5.25,12.72,5.25,3.52,0,5.67-1.49,5.67-3.4,0-2.27-2.57-3.16-6.81-4.06-6.57-1.31-15.76-2.99-15.76-12.42,0-6.69,5.67-12.48,15.88-12.48,6.39,0,11.94,1.91,16.18,5.55l-5.61,7.34c-3.34-2.75-7.7-4.12-11.23-4.12s-4.72,1.37-4.72,3.1c0,2.09,2.45,2.81,6.87,3.64,6.57,1.37,15.64,3.28,15.64,12.3,0,8-5.91,13.31-16.6,13.31-8.06,0-13.67-2.51-17.67-6.33l5.43-7.7Z"/>
      <path class="cls-28" d="M553.09,211.87v-13.08h-4.78v-8h4.78v-7.88h9.13v7.88h5.85v8h-5.85v10.51c0,1.67.96,2.93,2.57,2.93,1.02,0,2.03-.36,2.33-.72l1.79,6.93c-1.13,1.07-3.4,1.91-6.81,1.91-5.85,0-9.02-2.93-9.02-8.48Z"/>
      <path class="cls-28" d="M589.68,219.63v-2.87c-1.79,2.15-5.25,3.58-8.96,3.58-4.42,0-9.91-2.99-9.91-9.49,0-6.99,5.49-9.08,9.91-9.08,3.82,0,7.22,1.19,8.96,3.34v-3.64c0-2.51-2.15-4.18-5.85-4.18-2.87,0-5.85,1.07-8.18,3.04l-3.28-5.79c3.7-3.16,8.66-4.48,13.08-4.48,6.93,0,13.43,2.57,13.43,11.52v18.03h-9.19ZM589.68,209.66c-.96-1.31-3.11-2.03-5.13-2.03-2.45,0-4.6,1.08-4.6,3.34s2.15,3.34,4.6,3.34c2.03,0,4.18-.72,5.13-2.09v-2.57Z"/>
      <path class="cls-28" d="M605.56,219.63v-28.84h9.2v3.64c1.91-2.33,5.55-4.36,9.02-4.36v8.9c-.54-.18-1.31-.3-2.27-.3-2.39,0-5.55,1.02-6.75,2.69v18.27h-9.2Z"/>
      <path class="cls-28" d="M629.86,211.87v-13.08h-4.78v-8h4.78v-7.88h9.14v7.88h5.85v8h-5.85v10.51c0,1.67.96,2.93,2.57,2.93,1.01,0,2.03-.36,2.33-.72l1.79,6.93c-1.13,1.07-3.4,1.91-6.81,1.91-5.85,0-9.02-2.93-9.02-8.48Z"/>
      <path class="cls-28" d="M673.87,219.63v-30.87h-11.17v-8.96h32.54v8.96h-11.11v30.87h-10.27Z"/>
      <path class="cls-28" d="M699.24,181.9c0-2.93,2.33-5.25,5.25-5.25s5.25,2.33,5.25,5.25-2.33,5.25-5.25,5.25-5.25-2.33-5.25-5.25ZM699.9,219.63v-28.84h9.2v28.84h-9.2Z"/>
      <path class="cls-28" d="M752.14,219.63v-17.55c0-2.21-1.08-3.88-3.82-3.88-2.51,0-4.3,1.61-5.19,2.81v18.63h-9.2v-17.55c0-2.21-1.02-3.88-3.82-3.88-2.45,0-4.18,1.61-5.13,2.81v18.63h-9.2v-28.84h9.2v3.52c1.25-1.67,4.96-4.24,9.49-4.24,4.12,0,6.99,1.73,8.18,5.13,1.67-2.51,5.43-5.13,9.97-5.13,5.31,0,8.66,2.75,8.66,8.66v20.9h-9.13Z"/>
      <path class="cls-28" d="M781.45,190.08c8.54,0,14.75,6.27,14.75,16.06v1.97h-20.54c.54,2.69,3.04,5.13,7.34,5.13,2.57,0,5.43-1.02,7.05-2.45l3.88,5.73c-2.87,2.57-7.64,3.82-12.06,3.82-8.9,0-15.76-5.79-15.76-15.17,0-8.36,6.33-15.11,15.34-15.11ZM775.54,202.14h11.88c-.24-2.03-1.73-4.96-5.97-4.96-4,0-5.55,2.87-5.91,4.96Z"/>
    </g>
    <polygon class="cls-34" points="419.82 243.28 415.32 243.28 415.32 240.64 427.38 240.64 427.38 243.28 422.85 243.28 422.85 255.92 419.82 255.92 419.82 243.28"/>
    <rect class="cls-34" x="431.3" y="240.64" width="3.03" height="15.28"/>
    <polygon class="cls-34" points="453.25 245.28 448.58 255.92 447.22 255.92 442.52 245.28 442.52 255.92 439.5 255.92 439.5 240.64 443.55 240.64 447.89 250.5 452.19 240.64 456.28 240.64 456.28 255.92 453.25 255.92 453.25 245.28"/>
    <polygon class="cls-34" points="461.45 240.64 472.59 240.64 472.59 243.28 464.48 243.28 464.48 246.81 472.43 246.81 472.43 249.45 464.48 249.45 464.48 253.28 472.59 253.28 472.59 255.92 461.45 255.92 461.45 240.64"/>
    <polygon class="cls-34" points="476.29 253.7 484.35 243.31 476.29 243.31 476.29 240.64 488.49 240.64 488.49 242.86 480.46 253.25 488.68 253.25 488.68 255.92 476.29 255.92 476.29 253.7"/>
    <path class="cls-34" d="M500.25,240.31c4.78,0,8.06,3.42,8.06,7.97s-3.28,7.97-8.06,7.97-8.09-3.42-8.09-7.97,3.25-7.97,8.09-7.97ZM500.25,242.97c-3.06,0-5,2.28-5,5.31s1.95,5.31,5,5.31,4.97-2.31,4.97-5.31-1.97-5.31-4.97-5.31Z"/>
    <polygon class="cls-34" points="515.7 245.09 515.7 255.92 512.67 255.92 512.67 240.64 515.9 240.64 523.68 251.2 523.68 240.64 526.7 240.64 526.7 255.92 523.62 255.92 515.7 245.09"/>
    <polygon class="cls-34" points="531.88 240.64 543.02 240.64 543.02 243.28 534.9 243.28 534.9 246.81 542.85 246.81 542.85 249.45 534.9 249.45 534.9 253.28 543.02 253.28 543.02 255.92 531.88 255.92 531.88 240.64"/>
    <text class="cls-32" transform="translate(545.69 255.92)"><tspan x="0" y="0"> </tspan></text>
    <path class="cls-34" d="M556.11,240.64h7.95c3,0,4.64,1.75,4.64,3.92,0,1.83-1.19,3.08-2.61,3.47,1.67.39,2.95,1.95,2.95,3.75,0,2.36-1.69,4.14-4.75,4.14h-8.17v-15.28ZM563.61,243.28h-4.47v3.53h4.47c1.28,0,2-.75,2-1.75,0-1.06-.75-1.78-2-1.78ZM563.75,249.45h-4.61v3.83h4.61c1.33,0,2.17-.72,2.17-1.89,0-1.03-.78-1.95-2.17-1.95Z"/>
    <path class="cls-34" d="M579.07,250.39h-2.64v5.53h-3.03v-15.28h7.22c3.31,0,5.22,2.17,5.22,4.86s-1.75,4.33-3.78,4.61l3.95,5.81h-3.5l-3.45-5.53ZM580.29,243.28h-3.86v4.47h3.86c1.61,0,2.47-.94,2.47-2.25s-.92-2.22-2.47-2.22Z"/>
    <polygon class="cls-34" points="590.38 240.64 601.52 240.64 601.52 243.28 593.41 243.28 593.41 246.81 601.35 246.81 601.35 249.45 593.41 249.45 593.41 253.28 601.52 253.28 601.52 255.92 590.38 255.92 590.38 240.64"/>
    <path class="cls-34" d="M620.47,255.92h-3.39l-1.17-2.86h-7.17l-1.14,2.86h-3.42l6.31-15.28h3.67l6.31,15.28ZM609.64,250.42h5.39l-2.7-6.95-2.7,6.95Z"/>
    <polygon class="cls-34" points="628.06 249.61 626.79 251.03 626.79 255.92 623.76 255.92 623.76 240.64 626.79 240.64 626.79 247.61 632.84 240.64 636.54 240.64 630.01 247.86 637.04 255.92 633.34 255.92 628.06 249.61"/>
    <path class="cls-34" d="M640.49,240.64h6.03c5.06,0,8.28,3.17,8.28,7.67s-3.22,7.61-8.25,7.61h-6.06v-15.28ZM646.55,243.28h-3.03v10h3c3.39,0,5.17-2.25,5.17-4.97s-1.67-5.03-5.14-5.03Z"/>
    <path class="cls-34" d="M666.39,240.31c4.78,0,8.06,3.42,8.06,7.97s-3.28,7.97-8.06,7.97-8.09-3.42-8.09-7.97,3.25-7.97,8.09-7.97ZM666.39,242.97c-3.06,0-5,2.28-5,5.31s1.95,5.31,5,5.31,4.97-2.31,4.97-5.31-1.97-5.31-4.97-5.31Z"/>
    <polygon class="cls-34" points="687.09 245.11 684.09 255.92 680.92 255.92 676.34 240.64 679.7 240.64 682.68 251.89 685.9 240.64 688.32 240.64 691.51 251.92 694.51 240.64 697.87 240.64 693.26 255.92 690.09 255.92 687.09 245.11"/>
    <polygon class="cls-34" points="704.3 245.09 704.3 255.92 701.27 255.92 701.27 240.64 704.49 240.64 712.27 251.2 712.27 240.64 715.3 240.64 715.3 255.92 712.22 255.92 704.3 245.09"/>
    <text class="cls-7" transform="translate(65.52 336.33)"><tspan x="0" y="0">Evergreen</tspan></text>
    <text class="cls-7" transform="translate(65.52 360.79)"><tspan x="0" y="0">Safety Council</tspan></text>
    <g class="cls-23">
      <path class="cls-29" d="M370.94,584.56c-5.28,3.15-8.59,8.83-7.66,15.52,1.09,7.83,9.48,8.28,10.42,15.7.79,6.26,2.08,6.94,8.38,7.67,5.08.59,8.81,1.08,13.47-.06,1.73-.42,3.26-.99,4.88-1.44l4.24-31.98c-4.68-.43-18.95-2.83-33.73-5.42M384.61,614.43c-3.2-.25-7.22-1.36-7.51-5.15-.15-1.92,0-4.38-1.99-5.35-.82-.4-1.98-.64-2.47-1.52-.48-.88-.04-1.96.68-2.53,3.04-1.58,5.76-3.39,8.62-4.61,1.5-.64,3.56-.86,5.08-.14.74.35.65.9.65,1.72-.02,1.59-.1,2.96.24,4.52.34,1.52,1.29,2.1,2.41,3.17,1.15,1.1,2.95,3.28,3.04,4.93.25,4.68-5.31,5.23-8.75,4.95"/>
    </g>
    <g class="cls-22">
      <line class="cls-4" x1="260.34" y1="557.93" x2="349.27" y2="746.73"/>
      <line class="cls-4" x1="266.98" y1="557.93" x2="355.91" y2="746.73"/>
      <line class="cls-4" x1="273.63" y1="557.93" x2="362.56" y2="746.73"/>
      <line class="cls-4" x1="280.27" y1="557.93" x2="369.2" y2="746.73"/>
      <line class="cls-4" x1="286.92" y1="557.93" x2="375.85" y2="746.73"/>
      <line class="cls-4" x1="293.56" y1="557.93" x2="382.49" y2="746.73"/>
      <line class="cls-4" x1="300.2" y1="557.93" x2="389.13" y2="746.73"/>
      <line class="cls-4" x1="306.85" y1="557.93" x2="395.78" y2="746.73"/>
      <line class="cls-4" x1="313.49" y1="557.93" x2="402.42" y2="746.73"/>
      <line class="cls-4" x1="320.14" y1="557.93" x2="409.07" y2="746.73"/>
      <line class="cls-4" x1="326.78" y1="557.93" x2="415.71" y2="746.73"/>
      <line class="cls-4" x1="333.43" y1="557.93" x2="422.36" y2="746.73"/>
      <line class="cls-4" x1="340.07" y1="557.93" x2="429" y2="746.73"/>
      <line class="cls-4" x1="346.71" y1="557.93" x2="435.64" y2="746.73"/>
      <line class="cls-4" x1="353.36" y1="557.93" x2="442.29" y2="746.73"/>
      <line class="cls-4" x1="360" y1="557.93" x2="448.93" y2="746.73"/>
      <line class="cls-4" x1="366.65" y1="557.93" x2="455.58" y2="746.73"/>
      <line class="cls-4" x1="373.29" y1="557.93" x2="462.22" y2="746.73"/>
      <line class="cls-4" x1="379.93" y1="557.93" x2="468.87" y2="746.73"/>
      <line class="cls-4" x1="386.58" y1="557.93" x2="475.51" y2="746.73"/>
      <line class="cls-4" x1="393.22" y1="557.93" x2="482.15" y2="746.73"/>
      <line class="cls-4" x1="399.87" y1="557.93" x2="488.8" y2="746.73"/>
    </g>
    <text class="cls-5" transform="translate(348.56 636.09)"><tspan x="0" y="0">AZ</tspan></text>
    <g class="cls-16">
      <line class="cls-4" x1=".9" y1="734.51" x2="89.84" y2="923.31"/>
      <line class="cls-4" x1="7.55" y1="734.51" x2="96.48" y2="923.31"/>
      <line class="cls-4" x1="14.19" y1="734.51" x2="103.12" y2="923.31"/>
      <line class="cls-4" x1="20.84" y1="734.51" x2="109.77" y2="923.31"/>
      <line class="cls-4" x1="27.48" y1="734.51" x2="116.41" y2="923.31"/>
      <line class="cls-4" x1="34.13" y1="734.51" x2="123.06" y2="923.31"/>
      <line class="cls-4" x1="40.77" y1="734.51" x2="129.7" y2="923.31"/>
      <line class="cls-4" x1="47.41" y1="734.51" x2="136.35" y2="923.31"/>
      <line class="cls-4" x1="54.06" y1="734.51" x2="142.99" y2="923.31"/>
      <line class="cls-4" x1="60.7" y1="734.51" x2="149.63" y2="923.31"/>
      <line class="cls-4" x1="67.35" y1="734.51" x2="156.28" y2="923.31"/>
      <line class="cls-4" x1="73.99" y1="734.51" x2="162.92" y2="923.31"/>
      <line class="cls-4" x1="80.64" y1="734.51" x2="169.57" y2="923.31"/>
      <line class="cls-4" x1="87.28" y1="734.51" x2="176.21" y2="923.31"/>
      <line class="cls-4" x1="93.92" y1="734.51" x2="182.86" y2="923.31"/>
      <line class="cls-4" x1="100.57" y1="734.51" x2="189.5" y2="923.31"/>
      <line class="cls-4" x1="107.21" y1="734.51" x2="196.14" y2="923.31"/>
      <line class="cls-4" x1="113.86" y1="734.51" x2="202.79" y2="923.31"/>
      <line class="cls-4" x1="120.5" y1="734.51" x2="209.43" y2="923.31"/>
      <line class="cls-4" x1="127.15" y1="734.51" x2="216.08" y2="923.31"/>
      <line class="cls-4" x1="133.79" y1="734.51" x2="222.72" y2="923.31"/>
      <line class="cls-4" x1="140.43" y1="734.51" x2="229.36" y2="923.31"/>
    </g>
    <text class="cls-15" transform="translate(119.2 816.7)"><tspan class="cls-45" x="0" y="0">Does n</tspan><tspan class="cls-54" x="43.81" y="0">o</tspan><tspan class="cls-45" x="51.69" y="0">t </tspan><tspan class="cls-54" x="60.79" y="0">o</tspan><tspan class="cls-45" x="68.68" y="0">bserv</tspan><tspan x="103.39" y="0">e</tspan></text>
    <text class="cls-15" transform="translate(119.2 830.77)"><tspan class="cls-45" x="0" y="0">D</tspan><tspan class="cls-56" x="9.5" y="0">a</tspan><tspan class="cls-47" x="16.95" y="0">y</tspan><tspan class="cls-54" x="24.02" y="0">l</tspan><tspan class="cls-45" x="28" y="0">ight </tspan><tspan class="cls-54" x="56.91" y="0">Sa</tspan><tspan class="cls-47" x="72.49" y="0">vings</tspan><tspan class="cls-30" x="106.06" y="0">.</tspan></text>
    <text class="cls-15" transform="translate(119.2 844.85)"><tspan class="cls-47" x="0" y="0">P</tspan><tspan class="cls-54" x="8.3" y="0">l</tspan><tspan class="cls-45" x="12.29" y="0">ease che</tspan><tspan class="cls-57" x="68.59" y="0">c</tspan><tspan class="cls-45" x="75.58" y="0">k at t</tspan><tspan class="cls-54" x="108.58" y="0">im</tspan><tspan class="cls-58" x="123.5" y="0">e.</tspan><tspan class="cls-47" x="135.13" y="0">g</tspan><tspan class="cls-54" x="143.11" y="0">o</tspan><tspan x="150.99" y="0">v</tspan></text>
  </g>
</svg>