<svg xmlns="http://www.w3.org/2000/svg" id="Layer_1" data-name="Layer 1" viewBox="0 0 1920 1080"><defs><style>.cls-1{fill:#2ad2a9;}.cls-2{fill-rule:evenodd;}</style></defs><circle class="cls-1" cx="785" cy="595.4" r="180.2"></circle><path d="M1293.3,304.4H816.2a21.89,21.89,0,0,0-21.9,21.9V629.7a21.89,21.89,0,0,0,21.9,21.9h477.1a21.89,21.89,0,0,0,21.9-21.9V326.3A21.89,21.89,0,0,0,1293.3,304.4ZM1184.1,638.6H816.2a8.81,8.81,0,0,1-8.8-8.8V326.3a8.81,8.81,0,0,1,8.8-8.8h477.1a8.81,8.81,0,0,1,8.8,8.8V629.7a8.81,8.81,0,0,1-8.8,8.8h-90.6M841,510.3h259.1v13.1H841Zm0,36.1h259.1v13.1H841Zm0,36.2h259.1v13.1H841Z"></path><path class="cls-2" d="M1219.64,488.38c-6,0-10.85,4.89-10.85,11.34s4.83,11.34,10.85,11.34,10.85-4.89,10.85-11.34S1225.65,488.38,1219.64,488.38Z"></path><path d="M1213.26,512.25,1203.2,517a4.48,4.48,0,0,0-2.81,3.5l-.83,3.94,2.44,0c13.35,0,27.49-1,37.34-1.77l-.47-2.2a4.45,4.45,0,0,0-2.8-3.5l-10.06-4.7a13.35,13.35,0,0,1-12.75,0Z"></path><path class="cls-2" d="M1183.23,566.12h37.53c3.31,0,7.56,3.64,7.56,8.16h-52.63C1175.69,569.76,1179.93,566.12,1183.23,566.12Zm69.91-19.36c3.11,0,4.42,1,4.92,2.49.88,2.74,1.92,8.14-2.94,9.92-4,1.46-12.38,2.51-16.85,3.17-4.3.65-5.37-1.88-3.88-5.66,2.79-7,9.08-8.51,15-9.53A24.23,24.23,0,0,1,1253.14,546.76Zm-102.27,0a24.35,24.35,0,0,1,3.75.39c5.9,1,12.2,2.5,15,9.52,1.5,3.79.42,6.32-3.87,5.67-4.48-.67-12.85-1.71-16.83-3.17-4.86-1.78-3.85-7.18-3-9.92C1146.44,547.72,1147.76,546.73,1150.87,546.76ZM1202,484c15,0,24.11.43,29.18,1.78,2.17.59,3.71,2.82,4.29,4.42L1246,525.91c-9,.69-27.32,2.29-44,2.29s-35-1.6-44-2.29l10.55-35.67c.57-1.6,2.12-3.83,4.29-4.42C1177.9,484.47,1187,484,1202,484Zm0-8.87c-15.18,0-24.51.23-31.47,2.09a15,15,0,0,0-10.35,10l-11,35.32h-8.53c-3.44,0-5.18,1.64-5.18,4.42,0,3.71,1.74,7.17,6.48,9.62l-1.27,2.25c-1.67,3.18-2.88,6.55-2.88,9.57v24.68A9.82,9.82,0,0,0,1144,582v9.31a4.05,4.05,0,0,0,4.06,4.07h11.55a4.05,4.05,0,0,0,4.07-4.07V582.6h76.66v8.74a4.06,4.06,0,0,0,4.08,4.07H1256a4.05,4.05,0,0,0,4.06-4.07V582a9.83,9.83,0,0,0,6.19-8.91V548.43c0-3-1.22-6.38-2.89-9.56l-1.27-2.25c4.75-2.45,6.49-5.91,6.49-9.62,0-2.79-1.75-4.42-5.19-4.42h-8.54l-11-35.32a15.06,15.06,0,0,0-10.34-10C1226.53,475.4,1217.19,475.17,1202,475.17Z"></path><path d="M843,391.61V360.37h23.71v8.24H852.47v3.09h13.91V380H852.47v3.42h14.24v8.24Z"></path><path d="M879.07,391.61l-11.52-31.24h10.73l6.74,21,6.75-21H902.5L891,391.61Z"></path><path d="M904.18,391.61V360.37h23.7v8.24H913.64v3.09h13.91V380H913.64v3.42h14.24v8.24Z"></path><path d="M949.29,391.61,945,381.77h-3.42v9.84H932.1V360.37h16.67c7.31,0,11.25,4.87,11.25,10.72a10.08,10.08,0,0,1-5.63,9.47l5.67,11.05Zm1.12-20.56c0-1.69-1.5-2.44-3.09-2.44h-5.76v4.92h5.76C948.91,373.53,950.41,372.78,950.41,371.05Z"></path><path d="M961.47,387.21l4.91-7a14.58,14.58,0,0,0,10.08,4c1.78,0,3.46-.47,3.46-1.69,0-3-17.42.05-17.42-12.27,0-5.29,4.4-10.35,13-10.35a20.63,20.63,0,0,1,13.26,4.35l-5.06,6.7a15.8,15.8,0,0,0-9.18-3.09c-1.87,0-2.39.61-2.39,1.41,0,3,17.38.42,17.38,12,0,6.88-5.11,10.86-13.49,10.86C969.34,392.17,964.79,390.21,961.47,387.21Z"></path><path d="M1013,391.61l-1.13-3.65h-11.24l-1.12,3.65H988.73l11.52-31.24h11.9l11.52,31.24Zm-6.75-22-3.09,10.07h6.18Z"></path><path d="M1025.36,391.61V360.37h23.7v8.24h-14.24v3.09h13.91V380h-13.91v11.66Z"></path><path d="M1053.09,391.61V360.37h23.7v8.24h-14.24v3.09h13.91V380h-13.91v3.42h14.24v8.24Z"></path><path d="M843,437.82V406.58h14c9.84,0,17.15,5.62,17.15,15.6s-7.31,15.64-17.1,15.64Zm21.51-15.64c0-4.22-2.44-7.36-7.5-7.36h-4.54v14.76H857A7.22,7.22,0,0,0,864.51,422.18Z"></path><path d="M894.67,437.82,890.36,428h-3.42v9.84h-9.46V406.58h16.68c7.3,0,11.24,4.87,11.24,10.72a10.09,10.09,0,0,1-5.62,9.47l5.67,11.05Zm1.13-20.56c0-1.69-1.5-2.44-3.1-2.44h-5.76v4.92h5.76C894.3,419.74,895.8,419,895.8,417.26Z"></path><path d="M909.24,437.82V406.58h9.46v31.24Z"></path><path d="M931.91,437.82l-11.52-31.24h10.72l6.75,21,6.74-21h10.73l-11.52,31.24Z"></path><path d="M957,437.82V406.58h9.46v31.24Z"></path><path d="M992.52,437.82,981,422v15.83h-9.46V406.58h9.74l10.87,14.8v-14.8h9.46v31.24Z"></path><path d="M1005,422.22c0-10,7.73-16.16,17.19-16.16,7.45,0,11.76,4.12,13.73,8.15l-8,4.08a6.54,6.54,0,0,0-5.77-3.89,7.83,7.83,0,0,0,0,15.65,9.24,9.24,0,0,0,4.88-1.41v-1.12h-5.81v-8.25h15.22v12.79a18.54,18.54,0,0,1-14.29,6.32C1012.71,438.38,1005,432.2,1005,422.22Z"></path><path d="M843,484V452.79h16.68c7.31,0,11.24,4.87,11.24,10.72S867,474.2,859.68,474.2h-7.21V484Zm18.32-20.52c0-1.68-1.26-2.48-2.86-2.48h-6V466h6C860.06,466,861.32,465.15,861.32,463.51Z"></path><path d="M891.21,484l-4.31-9.83h-3.42V484H874V452.79h16.68c7.31,0,11.24,4.87,11.24,10.72a10.09,10.09,0,0,1-5.62,9.47L902,484Zm1.12-20.56c0-1.69-1.5-2.44-3.09-2.44h-5.76V466h5.76C890.83,466,892.33,465.2,892.33,463.47Z"></path><path d="M904.09,468.43c0-9.6,7.44-16.16,17.09-16.16s17.1,6.56,17.1,16.16-7.45,16.16-17.1,16.16S904.09,478,904.09,468.43Zm24.59,0c0-4.35-2.95-7.82-7.5-7.82s-7.49,3.47-7.49,7.82,2.95,7.83,7.49,7.83S928.68,472.79,928.68,468.43Z"></path><path d="M940,468.43c0-10,7.73-16.16,17.19-16.16,7.45,0,11.76,4.12,13.72,8.15l-8,4.08a6.52,6.52,0,0,0-5.76-3.89,7.83,7.83,0,0,0,0,15.65,9.2,9.2,0,0,0,4.87-1.41v-1.12h-5.81v-8.25h15.23v12.79a18.57,18.57,0,0,1-14.29,6.32C947.7,484.59,940,478.41,940,468.43Z"></path><path d="M992.85,484l-4.31-9.83h-3.42V484h-9.46V452.79h16.68c7.3,0,11.24,4.87,11.24,10.72A10.09,10.09,0,0,1,998,473l5.66,11ZM994,463.47c0-1.69-1.49-2.44-3.09-2.44h-5.76V466h5.76C992.48,466,994,465.2,994,463.47Z"></path><path d="M1028.26,484l-1.12-3.65H1015.9l-1.13,3.65H1004l11.53-31.24h11.9L1039,484Zm-6.74-22-3.09,10.07h6.18Z"></path><path d="M1068.31,484V465.25l-7,18.78h-4.21l-7-18.78V484h-9.46V452.79h13.06l5.49,15,5.48-15h13.07V484Z"></path></svg>