<svg id="Layer_1" data-name="Layer 1" xmlns="http://www.w3.org/2000/svg" viewBox="0 0 1920 1080"><defs><style>.cls-1{fill:#353c3f;}.cls-2{fill:#ebebeb;}.cls-3{fill:#e0e0e0;}.cls-4{fill:#fafafa;}.cls-5{fill:#f5f5f5;}.cls-12,.cls-6{fill:#fff;}.cls-7{fill:#ae7461;}.cls-8{fill:#263238;}.cls-9{fill:#455a64;}.cls-10{opacity:0.3;}.cls-11{fill:#a3cc32;}.cls-12{stroke:#e0e0e0;stroke-miterlimit:10;stroke-width:2.35px;}.cls-13{fill:#ffbf9d;}.cls-14{opacity:0.6;}.cls-15{fill:#ff9a6c;}</style></defs><rect class="cls-1" width="1920" height="1080"/><g id="Background_Complete" data-name="Background Complete"><path class="cls-2" d="M403.13,903.05a50.91,50.91,0,0,1,13.54-33.64C420.78,886.3,403.13,903.05,403.13,903.05Z"/><path class="cls-2" d="M422.8,893.53a51,51,0,0,1,36.27-1C445.23,903,422.8,893.53,422.8,893.53Z"/><path class="cls-2" d="M425.05,882.59A40.07,40.07,0,0,1,430,854.44C435.91,866.78,425.05,882.59,425.05,882.59Z"/><path class="cls-2" d="M349,843.1c28.74,7.67,44.23,32.66,44.23,32.66C368.57,875.79,349,843.1,349,843.1Z"/><path class="cls-2" d="M394.9,854.9c-1.5-31,28.79-66.07,28.79-66.07C419,827.31,394.9,854.9,394.9,854.9"/><path class="cls-2" d="M394.76,766.63A83.24,83.24,0,0,1,383.82,811C379.58,791.08,394.76,766.63,394.76,766.63Z"/><path class="cls-2" d="M383.07,829.59c-22.67-2.35-35-25-35-25C375.49,812.29,383.07,829.59,383.07,829.59Z"/><path class="cls-2" d="M334.19,924.36a50.82,50.82,0,0,1,35.55-6.87C357.85,930.13,334.19,924.36,334.19,924.36Z"/><path class="cls-2" d="M392.9,934.52a33.25,33.25,0,0,1-15.23,17.15C378.66,941.23,392.9,934.52,392.9,934.52Z"/><path class="cls-2" d="M390,931.19a40.19,40.19,0,0,1-27.1,4.83C371.62,926.94,390,931.19,390,931.19Z"/><path class="cls-3" d="M401.59,972.91a1.85,1.85,0,0,1,0-.47V957.68c0-3.21,0-6.83-.22-10.86-.21-8.05-.77-17.65-1.59-28.28s-2.21-22.24-4-34.42c-3.59-24.33-8.47-46.09-12.41-61.71-2-7.82-3.64-14.08-4.86-18.47-.59-2.11-1-3.8-1.36-5l-.33-1.32v-.44a3,3,0,0,1,.16.42l.43,1.29,1.55,5c1.33,4.32,3.12,10.61,5.18,18.4A577,577,0,0,1,396.87,884c1.78,12.18,3,23.86,3.92,34.49s1.26,20.25,1.36,28.32c.14,4,0,7.7,0,10.89s0,6-.14,8.24-.14,3.92-.17,5.18v1.36C401.84,972.84,401.61,972.91,401.59,972.91Z"/><path class="cls-3" d="M360,907.3c.14-.23,9.38,5.77,20.43,13.4s20,14.08,19.9,14.27-9.38-5.78-20.46-13.43S359.84,907.54,360,907.3Z"/><path class="cls-3" d="M400.25,910.61a7.41,7.41,0,0,1,1.41-1.55l4.06-3.92,13.63-12.79c5.23-4.88,9.95-9.38,13.61-12.76l4.13-3.87a9.73,9.73,0,0,1,1.59-1.34,16.06,16.06,0,0,1-1.31,1.62c-.89,1-2.35,2.35-3.9,4.11-3.35,3.42-8.09,8-13.44,13s-10.23,9.38-13.82,12.57l-4.3,3.69A9.2,9.2,0,0,1,400.25,910.61Z"/><path class="cls-2" d="M330.91,892.59s23.46-.45,33.32,18A42.26,42.26,0,0,1,330.91,892.59Z"/><path class="cls-2" d="M362.89,883.2s19.06,13.59,16,34.31A42.23,42.23,0,0,1,362.89,883.2Z"/><path class="cls-2" d="M463.32,849.7s-7.53,26.23-31.44,30.92A49.25,49.25,0,0,1,463.32,849.7Z"/><path class="cls-2" d="M352.47,752.25s29.9,19.5,26.66,51.17A64.25,64.25,0,0,1,352.47,752.25Z"/><path class="cls-3" d="M451.87,925.6a12.41,12.41,0,0,1-1.92,1.55c-1.32.94-3.15,2.35-5.38,4.11A131.71,131.71,0,0,0,415,964.11c-1.5,2.35-2.7,4.36-3.5,5.75a11.59,11.59,0,0,1-1.34,2.11,12.73,12.73,0,0,1,1-2.35c.7-1.43,1.78-3.47,3.24-5.93a113.68,113.68,0,0,1,29.73-33.11c2.34-1.71,4.22-3,5.58-3.87A11,11,0,0,1,451.87,925.6Z"/><path class="cls-2" d="M425.92,945.06a50.94,50.94,0,0,1,6.87-35.62C436,931.66,425.92,945.06,425.92,945.06Z"/><path class="cls-2" d="M446,934.1a37,37,0,0,1,26.07-4C457.69,937.71,446,934.1,446,934.1Z"/><polygon class="cls-2" points="358.01 975.35 369.23 1049.01 434.37 1049.01 449.48 976.4 358.01 975.35"/><path class="cls-4" d="M440.37,1022.56c0,.21-16.68.38-37.28.38s-37.26-.17-37.26-.38,16.68-.38,37.26-.38S440.37,1022.35,440.37,1022.56Z"/><path class="cls-4" d="M440.61,1019c0,.21-16.8.37-37.55.37s-37.54-.16-37.54-.37,16.8-.4,37.54-.4S440.61,1018.74,440.61,1019Z"/><path class="cls-4" d="M440.49,1014.84c0,.21-16.8.4-37.54.4s-37.55-.19-37.55-.4,16.8-.37,37.55-.37S440.49,1014.61,440.49,1014.84Z"/><path class="cls-4" d="M376.78,1044.8a117.85,117.85,0,0,1-3.23-18.65,118.25,118.25,0,0,1,3.23,18.77Z"/><path class="cls-4" d="M381.15,1044c-.68-6-1.1-12.08-1.25-18.14a43.68,43.68,0,0,1,1.2,9A42.59,42.59,0,0,1,381.15,1044Z"/><path class="cls-4" d="M389.22,1044a44,44,0,0,1-1.69-9.39,44.6,44.6,0,0,1-.49-9.38,84.79,84.79,0,0,1,1.24,9.38A80.05,80.05,0,0,1,389.22,1044Z"/><path class="cls-4" d="M394.87,1044.41A48.57,48.57,0,0,1,394,1035a50,50,0,0,1,.28-9.39,77.53,77.53,0,0,1,.5,9.39A71.76,71.76,0,0,1,394.87,1044.41Z"/><path class="cls-4" d="M404.94,1044a52.48,52.48,0,0,1-.68-8.94,54,54,0,0,1,0-9,52.9,52.9,0,0,1,.68,9A51.56,51.56,0,0,1,404.94,1044Z"/><path class="cls-4" d="M412.24,1044.43a59.82,59.82,0,0,1-.31-9.27,56,56,0,0,1,.47-9.24,110.06,110.06,0,0,1-.16,18.51Z"/><path class="cls-4" d="M419,1043.44a62.79,62.79,0,0,1,.56-9.69,62,62,0,0,1,1.32-9.59A126,126,0,0,1,419,1043.44Z"/><path class="cls-4" d="M428,1042.46a32.43,32.43,0,0,1,1.11-8.21,33.08,33.08,0,0,1,2.34-8,68,68,0,0,1-1.69,8.12A71.76,71.76,0,0,1,428,1042.46Z"/><path class="cls-2" d="M350.55,960.75v13.8a5.39,5.39,0,0,0,5.37,5.42h94.35a5.42,5.42,0,0,0,5.45-5.4V960.75Z"/><polygon class="cls-3" points="358.71 979.97 359.51 984.36 446.52 990.55 448.73 979.97 358.71 979.97"/><rect class="cls-5" x="1395.29" y="161.31" width="73.7" height="146.09"/><rect class="cls-5" x="1471.84" y="161.31" width="79.64" height="146.09"/><rect class="cls-5" x="1471.84" y="317.61" width="79.64" height="141.16"/><polygon class="cls-5" points="1561.66 158.78 1645.52 158.78 1645.52 29.18 1648.36 29.18 1648.36 158.78 1716.62 158.78 1716.62 26.29 1561.66 26.29 1561.66 158.78"/><rect class="cls-5" x="1648.36" y="161.31" width="68.26" height="146.09"/><rect class="cls-5" x="1648.36" y="317.61" width="68.26" height="141.16"/><rect class="cls-5" x="1395.29" y="317.61" width="73.7" height="141.16"/><rect class="cls-5" x="1561.66" y="317.61" width="83.86" height="141.16"/><rect class="cls-5" x="1395.29" y="461.28" width="73.7" height="127.2"/><rect class="cls-5" x="1648.36" y="461.28" width="68.26" height="127.2"/><polygon class="cls-5" points="1469 158.78 1469 29.18 1471.84 29.18 1471.84 158.78 1551.48 158.78 1551.48 26.29 1395.3 26.29 1395.3 158.78 1469 158.78"/><rect class="cls-5" x="1561.66" y="461.28" width="83.86" height="127.2"/><rect class="cls-5" x="1471.84" y="461.28" width="79.64" height="127.2"/><rect class="cls-5" x="1561.66" y="161.31" width="83.86" height="146.09"/><rect class="cls-3" x="1099.47" y="84.39" width="181.83" height="300.98"/><rect class="cls-2" x="1093.44" y="84.39" width="181.83" height="300.98"/><rect class="cls-6" x="1101.19" y="90.49" width="166.34" height="288.76"/><rect class="cls-2" x="1132.84" y="128.01" width="102.28" height="213.72"/><path class="cls-3" d="M1132.84,266.08c-.23-19.95,17.72-39.44,37.55-42.24,9.38-1.31,19.42.54,28.15-3.07,15.72-6.43,20.72-27.34,36.54-33.53l.72,154.47h-103Z"/></g><g id="Stage"><rect class="cls-7" x="652.35" y="876.66" width="834.5" height="169.04"/><rect class="cls-7" x="594.42" y="867.11" width="950.35" height="19.43"/><path d="M1544.86,886.46c0,.33-211.89.61-473.19.61s-473.24-.28-473.24-.61,211.84-.61,473.24-.61S1544.86,886.14,1544.86,886.46Z"/><path d="M1487.56,991.14c0,.33-186.52.61-416.52.61s-416.55-.28-416.55-.61,186.45-.61,416.55-.61S1487.56,990.74,1487.56,991.14Z"/><path d="M1485.94,935.88c0,.35-186.5.64-416.5.64s-416.55-.29-416.55-.64,186.45-.61,416.55-.61S1485.94,935.55,1485.94,935.88Z"/></g><g id="Plant"><path class="cls-8" d="M800,813s-8.14-56-7.46-88.65,0-69.29,0-69.29h3.76s-2.54,64.72.23,103.76,10,54.18,10,54.18H800"/><path class="cls-9" d="M824.28,592a9.91,9.91,0,0,0-3.43-5,9.35,9.35,0,0,0-8.16,0c-11.36,4-21.4,25.18-26,36.3L801.75,674C829,648.86,833.67,615.7,824.28,592Z"/><path class="cls-8" d="M820,589a3.71,3.71,0,0,1-.24.66c-.19.49-.42,1.1-.73,1.85-.65,1.6-1.59,3.92-2.69,6.81-2.23,5.77-5.05,13.84-7.58,22.92s-4.25,17.44-5.31,23.47c-.54,3-1,5.51-1.22,7.2-.11.8-.23,1.46-.3,2a3.22,3.22,0,0,1-.17.68,4.09,4.09,0,0,1,0-.7,11.82,11.82,0,0,1,.21-2c.19-1.72.54-4.2,1-7.25a216.13,216.13,0,0,1,12.93-46.56c1.15-2.86,2.14-5.16,2.87-6.73.35-.73.63-1.34.84-1.81A3.29,3.29,0,0,1,820,589Z"/><path class="cls-9" d="M795.07,686.26a45.92,45.92,0,0,1-23.23-38.6c-.54-11.26,2.91-22.33,6.85-32.85a4.15,4.15,0,0,1,1.59-2.34,4,4,0,0,1,3.85.61c10.26,5.84,16.43,17,19.78,28.32a56.82,56.82,0,0,1,2.35,23.28,38.59,38.59,0,0,1-11.17,21.68"/><path class="cls-8" d="M795.07,686.26a2.58,2.58,0,0,1,0-.68v-1.94c0-1.69,0-4.13-.22-7.16A196.84,196.84,0,0,0,792.23,653c-1.58-9.08-3.48-17.22-4.86-23.11l-1.69-7-.42-1.9a2.84,2.84,0,0,1-.19-.56,3.15,3.15,0,0,1,.23.65c.15.5.33,1.11.54,1.86.47,1.64,1.11,4,1.88,6.92,1.5,5.87,3.47,14.08,5,23.14a170.89,170.89,0,0,1,2.46,23.46v9.13A2.74,2.74,0,0,1,795.07,686.26Z"/><g class="cls-10"><path d="M795.07,686.26a45.92,45.92,0,0,1-23.23-38.6c-.54-11.26,2.91-22.33,6.85-32.85a4.15,4.15,0,0,1,1.59-2.34,4,4,0,0,1,3.85.61c10.26,5.84,16.43,17,19.78,28.32a56.82,56.82,0,0,1,2.35,23.28,38.59,38.59,0,0,1-11.17,21.68"/></g><path class="cls-9" d="M811,772c13.89,3.05,25.34,12.86,38.76,17.62,8.87,3.17,18.92,4.27,26,10.49-1.69-4.3-5.73-7.16-9.65-9.6a173,173,0,0,0-35.19-16.78c-6.32-2.18-13.14-4-19.57-2.2"/><path class="cls-9" d="M790.89,784.42c-17.41-.29-35.74-15.11-53-16,18.13-5.84,44.09-1,53,16"/><path class="cls-9" d="M797.69,742.65a56.77,56.77,0,0,1,27.83-1.9,170.36,170.36,0,0,1,27.18,7.39c-.9-6-5.78-10.58-10.38-14.6a73,73,0,0,0-10.91-8.4,24.38,24.38,0,0,0-13.09-3.68,20.74,20.74,0,0,0-14.43,7.27,24.11,24.11,0,0,0-6.2,13.92"/><path class="cls-9" d="M762,723.43c-11-9.38-27.57-8.45-42-8.12a342.39,342.39,0,0,1,65.07,40.55C785.68,745.68,775.8,735.23,762,723.43Z"/><g class="cls-10"><path d="M762,723.43c-11-9.38-27.57-8.45-42-8.12a342.39,342.39,0,0,1,65.07,40.55C785.68,745.68,775.8,735.23,762,723.43Z"/></g><path class="cls-9" d="M802.62,710.5a121.13,121.13,0,0,1,16.87-9.78c5.75-2.63,11.15-6.81,16.71-9.81,7.23-3.92,13.49-9.39,20.11-14.22s13.91-9.22,22-10.49a43,43,0,0,0-20,1.15,129.51,129.51,0,0,0-18.77,7.35c-8.56,3.84-17.24,7.79-24.24,14.07s-13.3,12.42-12.57,21.76"/><path class="cls-8" d="M849.43,784.42a3.19,3.19,0,0,1-.54-.24l-1.52-.8c-1.31-.7-3.19-1.73-5.56-2.93-1.18-.61-2.49-1.24-3.9-1.92s-2.91-1.36-4.5-2.07a63.69,63.69,0,0,0-10.73-3.73,23,23,0,0,0-11.17-.28,32.4,32.4,0,0,0-4.69,1.41,23.36,23.36,0,0,0-8.52,5.93c-1,1.08-1.5,1.74-1.54,1.69a2.08,2.08,0,0,1,.3-.49c.24-.33.59-.8,1.06-1.36a22,22,0,0,1,4.69-4.18,22.79,22.79,0,0,1,3.87-2.06,29.76,29.76,0,0,1,4.69-1.5,23.24,23.24,0,0,1,11.45.23,63.61,63.61,0,0,1,10.8,3.83c1.62.7,3.14,1.4,4.53,2.13s2.7,1.34,3.87,2c2.35,1.24,4.2,2.34,5.47,3.09l1.45.89C849.27,784.28,849.46,784.39,849.43,784.42Z"/><path class="cls-8" d="M778,775.78a3.39,3.39,0,0,1,1.08.33,22.91,22.91,0,0,1,2.84,1.22,34.48,34.48,0,0,1,14.55,14.08c.5.9,1,1.82,1.36,2.77a4.4,4.4,0,0,1,.35,1.08s-.75-1.43-2.09-3.64a39,39,0,0,0-14.36-13.8C779.37,776.49,777.87,775.88,778,775.78Z"/><path class="cls-8" d="M739.38,722.54l.76.23,2.08.73,3.29,1.22c1.29.49,2.7,1.2,4.27,1.88a101.77,101.77,0,0,1,22.67,14.45A112.67,112.67,0,0,1,783,751.45a118.48,118.48,0,0,1,7.5,9.38c2,2.82,3.5,5.17,4.53,6.79l1.2,1.87a3,3,0,0,1,.37.68,5.94,5.94,0,0,1-.49-.61c-.3-.4-.75-1-1.29-1.8-1.08-1.58-2.65-3.9-4.69-6.67s-4.58-6-7.58-9.38A113.85,113.85,0,0,0,772,741.41a106.39,106.39,0,0,0-22.45-14.53c-1.57-.7-2.93-1.45-4.2-2l-3.24-1.29-2-.84A3.79,3.79,0,0,1,739.38,722.54Z"/><path class="cls-8" d="M823.83,732.86a5.54,5.54,0,0,1-1.4-.18l-1.6-.28c-.61-.12-1.34-.15-2.13-.22a21.76,21.76,0,0,0-12,2.35,21.15,21.15,0,0,0-5.45,4,24.94,24.94,0,0,0-3.49,4.31,38.88,38.88,0,0,0-2.35,4.7,5.66,5.66,0,0,1,.35-1.36,20.71,20.71,0,0,1,1.67-3.45,22.26,22.26,0,0,1,3.47-4.49,20.79,20.79,0,0,1,5.56-4.2,21.51,21.51,0,0,1,12.3-2.34c.8.12,1.52.14,2.16.3l1.59.4A7,7,0,0,1,823.83,732.86Z"/><path class="cls-8" d="M841.39,678.59l-.66.4-2,1.06c-1.69.91-4.11,2.34-7,4a113.62,113.62,0,0,0-10.09,6.57A84.31,84.31,0,0,0,810.39,700a28.74,28.74,0,0,0-4.69,6c-1.16,2.17-2.24,4.29-3.24,6.34a115.72,115.72,0,0,0-4.84,11,65.54,65.54,0,0,0-2.34,7.77c-.45,1.85-.61,2.91-.68,2.88a3.14,3.14,0,0,1,0-.75A12.23,12.23,0,0,1,795,731a56.18,56.18,0,0,1,2.16-7.84A106.34,106.34,0,0,1,801.82,712c1-2,2.09-4.18,3.22-6.36a29.08,29.08,0,0,1,4.69-6.13,81.87,81.87,0,0,1,11.38-9.38c3.73-2.63,7.23-4.69,10.21-6.48s5.44-3,7.18-3.82l2-1A2.6,2.6,0,0,1,841.39,678.59Z"/><path class="cls-8" d="M792.51,731.29a6.79,6.79,0,0,1-.35-1.48c-.21-1-.45-2.34-.75-4a120.21,120.21,0,0,0-3.31-13.07,113.1,113.1,0,0,0-5-12.51c-.65-1.5-1.24-2.74-1.69-3.73a8.89,8.89,0,0,1-.56-1.4,5.25,5.25,0,0,1,.77,1.29c.47.84,1.13,2.09,1.88,3.66a86.11,86.11,0,0,1,8.31,25.69c.28,1.71.47,3.1.56,4.06A6.29,6.29,0,0,1,792.51,731.29Z"/><path class="cls-9" d="M791.24,691.68a47.53,47.53,0,0,0-5.65-18.77,62,62,0,0,0-42.05-31.39l38.93,58.05,5,10.35A29.77,29.77,0,0,0,791.24,691.68Z"/><rect class="cls-11" x="756.56" y="806.05" width="90.53" height="16.05"/><polygon class="cls-11" points="763.32 818.91 771.04 868.7 831.13 868.7 840.33 818.91 763.32 818.91"/><path class="cls-8" d="M847,822.19c0,.19-20.41.33-45.61.33s-45.6-.14-45.6-.33,20.42-.3,45.6-.3S847,821.94,847,822.19Z"/></g><g id="Presentation"><rect class="cls-12" x="222.46" y="90.49" width="560.29" height="467.44"/><rect class="cls-3" x="528.32" y="363.06" width="195.91" height="12.98" rx="5.75"/><rect class="cls-3" x="528.32" y="389.88" width="195.91" height="12.98" rx="5.75"/><rect class="cls-3" x="528.32" y="414.71" width="108.36" height="12.98" rx="5.75"/><rect class="cls-8" x="203.38" y="66.21" width="609.1" height="35.01" rx="15.53"/><rect class="cls-11" x="424.51" y="152.67" width="193.4" height="19.29" rx="8.56"/><rect class="cls-3" x="279.97" y="208.05" width="445.24" height="12.98" rx="5.75"/><rect class="cls-3" x="279.97" y="239" width="445.24" height="12.98" rx="5.75"/><rect class="cls-3" x="279.97" y="269.95" width="445.24" height="12.98" rx="5.75"/><rect class="cls-3" x="278.3" y="300.9" width="108.36" height="12.98" rx="5.75"/><rect class="cls-5" x="278.3" y="347.46" width="217.92" height="162" rx="16.12"/></g><g id="Speech_Bubble_2" data-name="Speech Bubble 2"><path class="cls-6" d="M1566,486.65l-4.69-16.71a55.18,55.18,0,1,1,19.2,5h0Z"/><path class="cls-8" d="M1566,486.65l.94-.82,2.75-2.35,10.6-8.75v.37h0a.21.21,0,0,1-.14-.26v0a.21.21,0,0,1,.22-.14A55.5,55.5,0,0,0,1607,470a53.69,53.69,0,0,0,14.58-9.72A54.62,54.62,0,0,0,1599,367.38a53.72,53.72,0,0,0-26.24-.68,55.44,55.44,0,0,0-22.59,10.84,54.88,54.88,0,0,0,10.45,91.9l.64.31a.33.33,0,0,1,0,.14l3.36,12.39c.38,1.39.68,2.35.87,3.24a6.74,6.74,0,0,0,.3,1.13s-.11-.33-.32-1-.54-1.79-.94-3.15c-.85-2.86-2.09-7-3.69-12.46v.14a55.39,55.39,0,0,1-11.57-93.29,56.21,56.21,0,0,1,23-11.06,55.39,55.39,0,1,1,8.24,109.26v-.43h0a.22.22,0,0,1,.14.26V475l-10.89,8.64-2.77,2.16C1566.45,486.32,1566,486.65,1566,486.65Z"/><path class="cls-8" d="M1569.24,407.9h8.24a7,7,0,0,1,7-7,6.67,6.67,0,0,1,6.46,4.25,7.33,7.33,0,0,1-.59,6.64c-1.41,2.35-4.46,4.41-10,3.42v18.54h8.12V422.85a15.86,15.86,0,0,0,11.41-15.51c0-12-10.77-14.81-15.4-14.81C1581.11,392.55,1569.1,393.4,1569.24,407.9Z"/><rect class="cls-8" x="1580.48" y="437.56" width="8.26" height="7.7"/></g><g id="Speech_Bubble_1" data-name="Speech Bubble 1"><path class="cls-6" d="M1045.18,212.72l7.65-13.3a48.9,48.9,0,1,1,8.63,15.22h0Z"/><path class="cls-8" d="M1045.18,212.72h1.08l3.16.33,12.09,1.34-.21.28h0a.19.19,0,0,1,0-.26.2.2,0,0,1,.23,0,48.45,48.45,0,0,0,83.32-45.71A48.48,48.48,0,0,0,1125.38,143a49.28,49.28,0,0,0-20.84-7.67,48.55,48.55,0,0,0-51.62,63.94.15.15,0,0,1,0,.16l-5.77,9.79c-.64,1.1-1.15,1.95-1.5,2.53l-.54.89a8.37,8.37,0,0,1,.44-.84l1.41-2.54,5.63-10v.16a48.63,48.63,0,0,1-2.18-24,49.12,49.12,0,0,1,16-29,49.67,49.67,0,0,1,17.08-9.81,48.93,48.93,0,0,1,21.12-2.16,50,50,0,0,1,21.12,7.77A49.09,49.09,0,0,1,1096,232.29a48.07,48.07,0,0,1-15.32-3.38,48.81,48.81,0,0,1-19.5-14.24l.33-.21h0a.19.19,0,0,1,0,.26h0l-12.2-1.6-3.07-.42Z"/><path class="cls-8" d="M1085.94,183.51a4.7,4.7,0,1,1-4.7-4.7A4.7,4.7,0,0,1,1085.94,183.51Z"/><path class="cls-8" d="M1104.5,183.37a4.7,4.7,0,1,1-4.7-4.7A4.7,4.7,0,0,1,1104.5,183.37Z"/><path class="cls-8" d="M1123,180.9a4.69,4.69,0,1,1-6.44-1.57.41.41,0,0,1,.11-.07A4.69,4.69,0,0,1,1123,180.9Z"/></g><g id="Character_5" data-name="Character 5"><polygon class="cls-7" points="1490.75 1010.31 1490.75 969.76 1524.28 967.65 1522.19 1011.32 1506.26 1017.54 1490.75 1010.31"/><path class="cls-9" d="M1504.1,1011l-13.35-.73s-20.56,16.64-22.53,25.81a20.8,20.8,0,0,0,0,7l31.21.92h22.76V1011.3Z"/><path class="cls-8" d="M1469.54,869.12c0,1.88,16.07,118.52,16.07,118.52h40.48l-1-120.86Z"/><rect class="cls-3" x="1467.87" y="1039.55" width="54.25" height="5.66"/><path class="cls-8" d="M1493.38,1012.85c.35,0-1.11,5.65-2.21,12.64s-1.57,12.72-1.92,12.7a41.78,41.78,0,0,1,.7-12.91A42.63,42.63,0,0,1,1493.38,1012.85Z"/><path class="cls-8" d="M1519.89,1036.55a28.59,28.59,0,0,0-2.84-5.14,15,15,0,0,0-4.69-4,14.42,14.42,0,0,0-14.5.68,15,15,0,0,0-4.37,4.44,27.22,27.22,0,0,0-2.34,5.4,3.29,3.29,0,0,1,0-1.65,13.45,13.45,0,0,1,1.5-4.2,14.71,14.71,0,0,1,12.23-7.51,14.69,14.69,0,0,1,12.85,6.34,13.23,13.23,0,0,1,1.9,4A3.71,3.71,0,0,1,1519.89,1036.55Z"/><polygon class="cls-7" points="1578.79 1013.15 1581.18 972.67 1547.82 968.57 1547.35 1012.28 1562.88 1019.44 1578.79 1013.15"/><path class="cls-9" d="M1565.41,1013.08h13.38s19.52,17.81,21,27a20.08,20.08,0,0,1-.43,7l-31.2-.94-22.72-1.31,1.93-32.62Z"/><path class="cls-8" d="M1599,878.51c0,1.9-17.86,118.26-17.86,118.26l-40.54-.63,2.88-121Z"/><rect class="cls-3" x="1569.91" y="1017.72" width="5.66" height="54.25" transform="translate(436.99 2553.24) rotate(-86.62)"/><path class="cls-8" d="M1576,1015.52a43,43,0,0,1,2.68,12.62,42.47,42.47,0,0,1,0,12.93c-.36,0-.43-5.77-1.18-12.78S1575.67,1015.59,1576,1015.52Z"/><path class="cls-8" d="M1548.17,1037.62a6.23,6.23,0,0,1,.3-1.61,13.73,13.73,0,0,1,2.14-3.9,14.63,14.63,0,0,1,13.21-5.56,14.47,14.47,0,0,1,7.58,3,15,15,0,0,1,4.17,5.18,13.32,13.32,0,0,1,1.27,4.27,3.54,3.54,0,0,1,0,1.65,28.52,28.52,0,0,0-2-5.52,14.81,14.81,0,0,0-4.08-4.69,14.37,14.37,0,0,0-14.45-1.53,14.81,14.81,0,0,0-5,3.71A27.94,27.94,0,0,0,1548.17,1037.62Z"/><path class="cls-7" d="M1449.43,546.93s7.41-7.16,9.69-14.08,6.76-17,7.2-19.12-1.8-3.15-4.46-1.08-3.87,6-5.18,9.52-3.33,3.12-3.33,3.12,3.54-16.42,4.36-21.77c.89-5.63,2.07-10-.49-10.91s-3.71,1.66-4.69,5.7-3.59,13.38-3.59,13.38l1.76-15.07s1.68-8.09-1.81-8.14-3.54,8.23-3.54,8.23l-2.89,15.14s2.35-19.05,1-19.76-3.54-1.15-4.43,4.81-3.59,18.19-3.59,18.19H1435l1.2-12.86a4.88,4.88,0,0,0-.12-2.46c-.68-1.18-2.23-1.95-3.22,1.83-1.14,4.31-3.35,19.1-4,24.38a160.84,160.84,0,0,0,.28,18.63L1421,556.83,1441.43,568Z"/><rect class="cls-7" x="1503.63" y="608.48" width="45.59" height="39.56"/><path class="cls-8" d="M1477.28,639.29l-20.06-2.87-31.56-15.22,23.46-59.79-29.3-14.53s-24.9,54.7-29.24,70.4-5.4,23.46,4.69,31.74,84,43.67,84,43.67Z"/><path class="cls-8" d="M1573.28,637.88,1558,633.44l-42.89-1.71s-5.91-.54-20.49,2.84c-11,2.53-25.38,5-25.38,5s-3.1,36.21-3.1,43.6L1479,745.07h105.59l6.43-44.59c0,.14,6.38-49.41,6.33-49.53S1585.05,641.21,1573.28,637.88Z"/><path class="cls-8" d="M1426.08,621.43a31.48,31.48,0,0,0-8.78,4.41,32.38,32.38,0,0,0-6.42,7.44,7.75,7.75,0,0,1,1.17-2.72,19.84,19.84,0,0,1,11.1-8.66A7.14,7.14,0,0,1,1426.08,621.43Z"/><path class="cls-8" d="M1597.3,650.9a39.34,39.34,0,0,1,14.08,25.81c2.35,17.6,7.44,68.31,7.44,68.31h-28.11l-5.35-21.12Z"/><path class="cls-9" d="M1595.85,671.36a3.14,3.14,0,0,1,0,.75,8.35,8.35,0,0,1-.21,2.14c-.19,1.85-.52,4.53-1,7.84-.92,6.61-2.35,15.72-4,25.81l-4.23,25.81c-.51,3.19-.94,5.82-1.24,7.79l-.35,2.13a3.56,3.56,0,0,1-.19.73,2.36,2.36,0,0,1,0-.75c0-.59.12-1.29.21-2.13.19-1.88.52-4.56,1-7.86.89-6.6,2.34-15.7,4-25.82l4.22-25.69c.52-3.21.94-5.84,1.25-7.81l.35-2.12A3,3,0,0,1,1595.85,671.36Z"/><path class="cls-9" d="M1461.42,652.5a76.05,76.05,0,0,1,1.71,8.47c1,5.23,2.35,12.43,4,20.41s2.94,15.23,3.69,20.53c.37,2.63.66,4.7.77,6.27a9.24,9.24,0,0,1,0,2.35,67.63,67.63,0,0,1-1.71-8.45c-1-5.23-2.35-12.46-4-20.44s-2.93-15.23-3.68-20.51c-.38-2.65-.63-4.69-.77-6.29A8,8,0,0,1,1461.42,652.5Z"/><path class="cls-9" d="M1473.06,873.14a31.32,31.32,0,0,1-31.38-30.32c-.86-31.75-.89-80.91-.84-102.21a10.47,10.47,0,0,1,10.47-10.47h163.1a10.46,10.46,0,0,1,10.47,10.46,2.44,2.44,0,0,1,0,.27c-.51,22.12-1.78,73.46-2.55,105.26a27.67,27.67,0,0,1-27.72,27Z"/><path class="cls-3" d="M1436,1047l-9.39-1.12,19.22-157.1a18.22,18.22,0,0,1,18-16.17h137.53a18.25,18.25,0,0,1,18,16.12c4.69,37.13,17.41,156,17.53,157.22l-9.39,1c0-1.2-12.93-120-17.5-157.08a8.86,8.86,0,0,0-8.64-7.88H1463.81a8.82,8.82,0,0,0-8.63,7.91Z"/><path class="cls-8" d="M1436,1047a17.43,17.43,0,0,1,.26-2.46c.26-1.62.47-4.06.84-7.18.75-6.34,1.86-15.6,3.26-27.57,2.87-23.91,7-58.52,12.16-101.39q1-8,2-16.43a17.85,17.85,0,0,1,.8-4.29,9.43,9.43,0,0,1,2.35-3.73,9,9,0,0,1,4-2.16,21,21,0,0,1,4.48-.26h134.76a9.41,9.41,0,0,1,5.54,1.57,9.62,9.62,0,0,1,3.56,4.55,24.84,24.84,0,0,1,.94,5.61c.43,3.71.82,7.44,1.25,11.17q2.53,22.46,5.14,45.85c3.47,31.19,7,63.52,10.79,96.7l-.66-.54,9.39-1-.54.68c-.47-4.29-1-8.91-1.5-13.56-3.41-30.5-6.74-60.4-10-89.4q-2.34-21.75-4.69-42.82c-.37-3.5-.77-7-1.17-10.47a18.43,18.43,0,0,0-3.45-9.39,17.72,17.72,0,0,0-7.86-6,18.09,18.09,0,0,0-4.7-1.11c-1.64-.11-3.4,0-5.06,0H1462.43a18.06,18.06,0,0,0-4,.87,17.1,17.1,0,0,0-6.73,4.23,17.57,17.57,0,0,0-4.2,6.59,33,33,0,0,0-1.43,7.7q-.94,7.81-1.88,15.32-1.86,15-3.54,28.7c-2.35,18.25-4.32,34.7-6.1,49.13-3.62,28.79-6.2,49.44-7.56,60.19v-.14l7,.91,2.35.33-2.23-.21-7-.8h0V1046c1.26-10.75,3.73-31.42,7-60.22,1.73-14.43,3.7-30.87,5.91-49.15q1.64-13.68,3.47-28.72.92-7.49,1.86-15.33a35.19,35.19,0,0,1,1.45-7.88,18.73,18.73,0,0,1,4.39-7,18.5,18.5,0,0,1,7-4.46,19.17,19.17,0,0,1,4.17-.91h140.18a19.11,19.11,0,0,1,5.17,1.17,18.84,18.84,0,0,1,8.35,6.4,19.2,19.2,0,0,1,3.71,10c.4,3.48.77,7,1.17,10.47q2.34,21.12,4.69,42.82c3.24,29,6.57,58.9,10,89.4.54,4.7,1.06,9.39,1.53,13.57v.61h-.61l-9.39,1h-.61v-.61c-3.7-33.18-7.29-65.49-10.77-96.67q-2.59-23.48-5.11-45.85c-.4-3.73-.82-7.47-1.22-11.17a26.9,26.9,0,0,0-.87-5.35,8.53,8.53,0,0,0-3.14-4,8,8,0,0,0-4.91-1.38H1466.23a18,18,0,0,0-4.27.21,8.27,8.27,0,0,0-3.62,1.93,8.91,8.91,0,0,0-2.34,3.37,17.73,17.73,0,0,0-.73,4.09l-2,16.42-12.65,101.51c-1.5,11.9-2.67,21.12-3.45,27.43l-.91,7C1436.1,1046.19,1436,1047,1436,1047Z"/><path class="cls-8" d="M1606,844.7a2.58,2.58,0,0,1,0,.68,5.65,5.65,0,0,1,0,2.09,10.14,10.14,0,0,1-4.69,6.38c-5.75,4.11-15.72,6.64-28,8.21-24.54,3-58.8,2.63-96.2-.89a34.24,34.24,0,0,1-13.59-3.68,18.27,18.27,0,0,1-8.19-10.92,61.28,61.28,0,0,1-2.18-13q-.6-6.37-1.15-12.46c-1.41-16.26-2.21-30.93-2.68-43.27s-.54-22.32-.56-29.21v-10a2.73,2.73,0,0,1,0-.7,2.73,2.73,0,0,1,0,.7v2.07c0,1.9,0,4.55.17,7.93.14,6.89.37,16.87.93,29.19s1.48,27,2.91,43.17q.59,6.11,1.2,12.46a63.92,63.92,0,0,0,2.16,12.74,17.06,17.06,0,0,0,7.67,10.21,33.37,33.37,0,0,0,13.12,3.52c37.38,3.52,71.61,4.06,96.06,1.24,12.18-1.45,22.08-3.85,27.76-7.72a10.11,10.11,0,0,0,4.7-6.05,7.25,7.25,0,0,0,.23-2A2.5,2.5,0,0,1,1606,844.7Z"/><path class="cls-8" d="M1545.61,527.27c5.56-4.7,17.5-2.35,19.92,1.43a9.24,9.24,0,0,1,11.52,5.51l12.49,4.41a13.48,13.48,0,0,1,5.84,3.26,4.71,4.71,0,0,1,.33,6.13,7,7,0,0,1,3.1,9.46,7.21,7.21,0,0,1-1.55,2,4.92,4.92,0,0,1-1.3,6.84l-.3.2a48.27,48.27,0,0,1,6.45,15.32,9.91,9.91,0,0,1-.18,6.83,4,4,0,0,1-5.31,1.9,4.16,4.16,0,0,1-.51-.28,5.72,5.72,0,0,1-.52,6.17c2.18.33,2.35,3.75.7,5.14a7.84,7.84,0,0,1-6.28.93,10.47,10.47,0,0,0-6.43.29,1.92,1.92,0,0,0,.54,1.47,9,9,0,0,1,.47,12.39l-.85.92a19.86,19.86,0,0,1-6.85,3.64c-5.23,1.94-8.1,1.1-13.66,1.19,1.06,3.71-8.82,10.42-18,1.48-37.1,16.43-43.83-2.35-43.83-2.35-10.21,6.72-19.64,1.62-20.63-1.24a7.42,7.42,0,0,1-6.57-3.1,22.41,22.41,0,0,1-3.24-6.82,13.2,13.2,0,0,1-7.93-13,16.22,16.22,0,0,1-4.69-12.25,9.54,9.54,0,0,1-4.2-12.84c.11-.21.22-.42.35-.63a57.78,57.78,0,0,1,8.52-17c-3.36-1.18-4.09-6-2.35-9a18.07,18.07,0,0,1,8.4-6.25c-2.65.36-4.48-3.16-3.54-5.67a10.27,10.27,0,0,1,5.93-5.1,50.27,50.27,0,0,1,11.24-3.4c1.81-4.39,8.24-8.82,12.72-10.3,18.12-5.94,30.34-6.5,50.15,12.2"/><path class="cls-8" d="M1597.26,590.55a3.85,3.85,0,0,0,1,0,6.19,6.19,0,0,0,2.65-.73,6.51,6.51,0,0,0,3-3.19,6.85,6.85,0,0,0-.21-5.77,17.63,17.63,0,0,0-2-2.7,8,8,0,0,1-1.85-3.12,5.29,5.29,0,0,1,.7-3.78c.61-1.22,1.48-2.34,2.12-3.73a11.74,11.74,0,0,0-5.66-15.6,11.9,11.9,0,0,0-1.17-.47v.28a5.9,5.9,0,0,0,1.38-2.46,7.33,7.33,0,0,0,.21-2.87,8.34,8.34,0,0,0-.84-2.79,10.31,10.31,0,0,0-1.76-2.35,18.57,18.57,0,0,0-7.42-4.22,28.4,28.4,0,0,0-8-1.41l.16.19a8.52,8.52,0,0,0-3.82-8,8.79,8.79,0,0,0-4.09-1.38,14.42,14.42,0,0,0-4,.51,8.75,8.75,0,0,1-1.9.19,4.81,4.81,0,0,1-1.79-.44,14.93,14.93,0,0,1-3-2,12.2,12.2,0,0,0-2.82-1.78,9.94,9.94,0,0,0-3-.83,10.05,10.05,0,0,0-5.14.71,10.84,10.84,0,0,0-3.24,2.11,11.62,11.62,0,0,0-1.52,1.9,7.43,7.43,0,0,0-.4.73c.16-.23.31-.46.45-.71A10.73,10.73,0,0,1,1550,523a10.43,10.43,0,0,1,7.93.19,11.9,11.9,0,0,1,2.77,1.78,15.32,15.32,0,0,0,3,2,4.92,4.92,0,0,0,1.88.47,7.68,7.68,0,0,0,2-.16,13.31,13.31,0,0,1,4-.49,8.43,8.43,0,0,1,3.94,1.31,8.21,8.21,0,0,1,3.63,7.67v.14h.19a27.92,27.92,0,0,1,7.89,1.41,18.07,18.07,0,0,1,7.27,4.13,9.74,9.74,0,0,1,1.69,2.35,8.59,8.59,0,0,1,.8,2.67,7.19,7.19,0,0,1-.19,2.73,5.46,5.46,0,0,1-1.29,2.34l-.19.19h.26a11.5,11.5,0,0,1,7,14.65,10,10,0,0,1-.39,1c-.61,1.34-1.47,2.49-2.11,3.73a5.58,5.58,0,0,0-.68,4,8.05,8.05,0,0,0,1.93,3.22,18,18,0,0,1,2,2.72,6.56,6.56,0,0,1,.26,5.59,6.31,6.31,0,0,1-2.89,3.14,7.12,7.12,0,0,1-2.58.8C1597.58,590.57,1597.26,590.53,1597.26,590.55Z"/><path class="cls-8" d="M1473.43,538v-.22a1.27,1.27,0,0,1,.14-.65c.14-.26.33-1.48.59-2.56s.61-2.35,1.13-4a24.09,24.09,0,0,1,2.34-5,15.88,15.88,0,0,1,4.51-4.69,12.16,12.16,0,0,1,3.31-1.48,33.4,33.4,0,0,1,3.87-.56,11.19,11.19,0,0,0,4-1.17,16.15,16.15,0,0,0,3.45-2.63c1.08-1,2.11-2,3.29-3A12.24,12.24,0,0,1,1504,510a21.46,21.46,0,0,1,8.87-.7,58.05,58.05,0,0,1,8.26,1.45,42.9,42.9,0,0,1,13,5.56,31.44,31.44,0,0,1,7,6.38c.35.47.68.85.91,1.2l.61.92.4.56.14.19-.11-.22-.36-.56-.58-.94c-.24-.37-.57-.77-.89-1.22a30.09,30.09,0,0,0-7-6.52,43.47,43.47,0,0,0-13.07-5.68,55.86,55.86,0,0,0-8.31-1.48,22,22,0,0,0-9,.71,11.86,11.86,0,0,0-4,2.23,34.63,34.63,0,0,0-3.31,3,17.62,17.62,0,0,1-3.37,2.58,10.25,10.25,0,0,1-3.85,1.13,32.26,32.26,0,0,0-3.9.61,11.81,11.81,0,0,0-3.4,1.52,15.54,15.54,0,0,0-4.55,4.86,23.28,23.28,0,0,0-2.35,5c-.49,1.55-.8,2.88-1,4s-.4,2-.52,2.56,0,.49,0,.65A1.42,1.42,0,0,0,1473.43,538Z"/><path class="cls-9" d="M1484.58,604.49a4.69,4.69,0,0,1-1.15-.49,8.88,8.88,0,0,1-2.61-2.35,10.77,10.77,0,0,1-1.94-5.3,9.65,9.65,0,0,1,2.13-7.23v.66a10.23,10.23,0,0,1,.47-18.78l-.23.87a14.06,14.06,0,0,1-2.35-11.24,13.6,13.6,0,0,1,7.79-9.38,13.79,13.79,0,0,1,6-1.27l-.63.75A14.43,14.43,0,0,1,1513,535l-.68.26a14.3,14.3,0,0,1,7.77-7.77,13.79,13.79,0,0,1,13.26,1.65,10.4,10.4,0,0,1,1.08.91c.21.24.33.35.3.38a16.26,16.26,0,0,0-6.38-3,13.06,13.06,0,0,0-7.95.77,13.67,13.67,0,0,0-7.16,7.39l-.21.52-.47-.26a13.86,13.86,0,0,0-13.49.68,13.61,13.61,0,0,0-5.78,14l.17.75h-.78a13,13,0,0,0-5.49,1.15,12.48,12.48,0,0,0-7,8.57,13,13,0,0,0,2,10.3l.43.59-.68.28a9.37,9.37,0,0,0-5.82,9.1,9.6,9.6,0,0,0,5.3,7.89l.49.23-.35.42a9,9,0,0,0-2.11,6.6,10.47,10.47,0,0,0,1.67,5.11A11,11,0,0,0,1484.58,604.49Z"/><path class="cls-9" d="M1520.74,606.84a6.71,6.71,0,0,1-1.5-1.46,15.87,15.87,0,0,1-2.87-5.14,16.34,16.34,0,0,1-.4-9,16.93,16.93,0,0,1,6.39-9.57l-.14.77a19.61,19.61,0,0,1-2.59-15.86A19.39,19.39,0,0,1,1534,552.94l-.37.72a16.43,16.43,0,0,1-.78-9.92,15.9,15.9,0,0,1,3.62-6.81,15.05,15.05,0,0,1,3.89-3.12,4.49,4.49,0,0,1,1.62-.65,21.29,21.29,0,0,0-5,4.2,15.24,15.24,0,0,0-3.22,6.59,15.44,15.44,0,0,0,.9,9.39l.25.61-.63.14a18.23,18.23,0,0,0-11,27.8l.3.45-.44.33a15.93,15.93,0,0,0-6,17.45A21.37,21.37,0,0,0,1520.74,606.84Z"/><path class="cls-9" d="M1571.14,604.11a10.6,10.6,0,0,0,3-4,7.84,7.84,0,0,0,.14-5.58,8.21,8.21,0,0,0-5-5l-.68-.23.47-.56a19.66,19.66,0,0,0,4.11-10.16,18.29,18.29,0,0,0-2.89-12,19.43,19.43,0,0,0-10.75-8l-.61-.16.22-.59a17.37,17.37,0,0,0,.18-11.17,17.06,17.06,0,0,0-4.83-7.46,22.82,22.82,0,0,0-7-4.06,6.08,6.08,0,0,1,2.14.5,17.23,17.23,0,0,1,5.3,3,17.84,17.84,0,0,1,5.3,7.7,18.15,18.15,0,0,1,0,11.87l-.37-.75a20.16,20.16,0,0,1,11.47,8.5,19.21,19.21,0,0,1,3,12.78,20,20,0,0,1-4.48,10.68l-.23-.8a9.08,9.08,0,0,1,5.47,5.73,8.54,8.54,0,0,1-.38,6,8.15,8.15,0,0,1-2.35,3.1A3,3,0,0,1,1571.14,604.11Z"/></g><g id="Character_4" data-name="Character 4"><path class="cls-13" d="M1266.47,622,1217,626.8l-.18-42.23s-3.55-.33-5.78-18.4-6.5-48.71-6.5-48.71h0a67.46,67.46,0,0,1,66.34.7l3,1.74Z"/><path class="cls-13" d="M1270.51,543c.3-.18,12.46-5.11,13.42,7.3s-12.13,10.89-12.18,10.54S1270.51,543,1270.51,543Z"/><path class="cls-13" d="M1210,547c-.33,0-12.08-1.81-10.32,10.54s14.24,8,14.22,7.6S1210,547,1210,547Z"/><path class="cls-8" d="M1274.5,541.09c-.75,10.58.23,16-.78,23.11-1.59,11.26-6.31,20.3-15.93,26.89s-23.46,8-33.06,1.57c-6.66-4.5-11.73-9.88-13.4-17.55s-4.2-21.38-5.11-29.19c-1.67-14.08-4.16-27.52-4.16-27.52l41-11.92,25.29,11Z"/><path class="cls-8" d="M1237.35,599.68a13.78,13.78,0,0,0,7.4-.19,13.92,13.92,0,0,0,6.75-2.91c-.14-.3-3.14,1-7,1.81S1237.35,599.28,1237.35,599.68Z"/><path class="cls-8" d="M1274.45,558.94c0-10.77-.51-23,0-34.4.17-4.27,1.06-10.48.19-14.68a33.83,33.83,0,0,0-4.13-12.14,18.34,18.34,0,0,0-13.73-8.07,19,19,0,0,0-15.06,5.7,14.33,14.33,0,0,0-15-3.89,13.78,13.78,0,0,0-9.18,12.18,10,10,0,0,0-11.52,0,9.25,9.25,0,0,0-3,10.77,9.37,9.37,0,0,0-6.36,5.93,8.9,8.9,0,0,0,1.64,8.36c2.35,2.65,5.91,3.87,8.36,6.36a10.07,10.07,0,0,1,1.87,11.1"/><path class="cls-9" d="M1212.13,527a2,2,0,0,0,.59,1.11,8.62,8.62,0,0,0,2.72,2.34,8.84,8.84,0,0,0,5.61,1.06,9.41,9.41,0,0,0,6.38-3.78h-.92a8.5,8.5,0,0,0,6.27,5.56,10.39,10.39,0,0,0,9.38-2.18,13.75,13.75,0,0,0,4.56-7.3l-1,.21a12,12,0,0,0,10,4,11.16,11.16,0,0,0,7.62-4,10.64,10.64,0,0,0,2.35-5.05,4.46,4.46,0,0,0,0-2,17.38,17.38,0,0,0-.42,1.9,11.32,11.32,0,0,1-2.54,4.69,10.64,10.64,0,0,1-7,3.52,11.1,11.1,0,0,1-9-3.71l-.71-.86-.28,1.08a12.89,12.89,0,0,1-4.22,6.68,9.4,9.4,0,0,1-8.24,2,7.57,7.57,0,0,1-5.58-4.7l-.31-1-.61.86a8.72,8.72,0,0,1-5.65,3.52,8.52,8.52,0,0,1-5.21-.77A11.61,11.61,0,0,1,1212.13,527Z"/><path class="cls-9" d="M1211.68,522.06a10.87,10.87,0,0,1,1.29-4.7A7.83,7.83,0,0,1,1217,514a8.3,8.3,0,0,1,6.53.49l1.08.59-.24-1.2a9.53,9.53,0,0,1,0-3.61,9.94,9.94,0,0,1,4.51-6.34,10.22,10.22,0,0,1,6.45-1.29,13.6,13.6,0,0,1,5.77,2.35,4.55,4.55,0,0,0-1.2-1.27,10.11,10.11,0,0,0-4.43-1.88,10.45,10.45,0,0,0-12.25,8.19,9.92,9.92,0,0,0,0,4.06l.85-.61a9.23,9.23,0,0,0-7.44-.42,8.38,8.38,0,0,0-4.39,3.92,7.73,7.73,0,0,0-.89,3.71C1211.45,521.61,1211.61,522.08,1211.68,522.06Z"/><path class="cls-9" d="M1238.36,519.5c.17,0,0-.7-.14-1.71a8.15,8.15,0,0,1,.89-3.81q.95-1.82,2.07-3.54c.56-.7,1.22-.33,1.31-.4s0-.28-.35-.47a1.46,1.46,0,0,0-1.55.31,9.71,9.71,0,0,0-1.29,1.57,13.5,13.5,0,0,0-1.24,2.07,6.48,6.48,0,0,0-.66,4.38C1237.68,519,1238.25,519.5,1238.36,519.5Z"/><path class="cls-9" d="M1261.4,501.17c.12,0,0-1-1-2.18a6,6,0,0,0-2.13-1.71,5.1,5.1,0,0,0-3.48-.35,8.29,8.29,0,0,0-4.69,3.63c-.8,1.25-1.12,2.09-1,2.16s.75-.61,1.69-1.69a9.09,9.09,0,0,1,4.34-3,5.06,5.06,0,0,1,4.7,1.5C1260.79,500.49,1261.4,501.27,1261.4,501.17Z"/><path class="cls-9" d="M1260.75,554.37a20.25,20.25,0,0,0,3.54-8.38,19.58,19.58,0,0,0,.56-9c-.35,0-.56,4-1.71,8.77S1260.42,554.23,1260.75,554.37Z"/><path class="cls-9" d="M1255.47,558a15.08,15.08,0,0,0,2.34-6,14.16,14.16,0,0,0,.85-6.35,22.91,22.91,0,0,0-2,6.1A22.49,22.49,0,0,0,1255.47,558Z"/><path class="cls-9" d="M1220.34,562.7a19,19,0,0,0,2.65,10.7,19.71,19.71,0,0,0,7.37,8.37,66.8,66.8,0,0,1-6.31-8.89A69.61,69.61,0,0,1,1220.34,562.7Z"/><path class="cls-9" d="M1213.72,554.3a15.41,15.41,0,0,0,.29,9.88,15.71,15.71,0,0,0,5.3,8.4,56.85,56.85,0,0,1-4.18-8.73A54.08,54.08,0,0,1,1213.72,554.3Z"/><polygon class="cls-13" points="1198.68 1005.46 1179.14 962.09 1211.73 948.62 1228.13 994.38 1215.77 1006.21 1198.68 1005.46"/><path class="cls-9" d="M1211.31,1001l-12.63,4.43s-12.64,23.21-11,32.41a20.59,20.59,0,0,0,2.65,6.45l29.19-11.07,21.12-8.69-12.48-30.17Z"/><rect class="cls-6" x="1187.31" y="1029.56" width="54.25" height="5.66" transform="translate(-302.21 542) rotate(-22.45)"/><path class="cls-8" d="M1202.09,1006.79c.35,0,1.15,5.66,2.76,12.53s3.43,12.34,3.08,12.49a43.78,43.78,0,0,1-4.27-12.21A41.36,41.36,0,0,1,1202.09,1006.79Z"/><path class="cls-8" d="M1235.59,1018.57a26.41,26.41,0,0,0-4.69-3.66,14.88,14.88,0,0,0-5.91-1.9,14.51,14.51,0,0,0-13.17,6.17,15.55,15.55,0,0,0-2.34,5.77,26.19,26.19,0,0,0,0,5.87,5.44,5.44,0,0,1-.57-1.53,13.86,13.86,0,0,1-.21-4.45,14.69,14.69,0,0,1,8.43-11.62,14.29,14.29,0,0,1,14.29,1,13.51,13.51,0,0,1,3.31,3A3,3,0,0,1,1235.59,1018.57Z"/><path class="cls-8" d="M1148.77,811.24s-20.88,15.86-22.83,30.13a84.07,84.07,0,0,0,3.33,32.61c2.35,6.08,42.24,103.65,42.24,103.65l45.88-20.11-31.07-91.87Z"/><polygon class="cls-13" points="1304.53 1005.52 1320.37 960.66 1286.72 949.98 1274.26 996.96 1287.57 1007.71 1304.53 1005.52"/><path class="cls-9" d="M1291.58,1002.17l13,3.35s14.55,22.06,13.68,31.35a20.9,20.9,0,0,1-2.13,6.67l-30-8.59-21.71-6.85,9.9-31.14Z"/><rect class="cls-6" x="1288.3" y="1006.44" width="5.66" height="54.25" transform="translate(-84.94 1951.02) rotate(-72.37)"/><path class="cls-8" d="M1301.3,1007.14a60.29,60.29,0,0,1-3.74,25.42c-.32,0,1-5.71,2-12.7S1300.9,1007.12,1301.3,1007.14Z"/><path class="cls-8" d="M1268.82,1021.65a5.52,5.52,0,0,1,.7-1.48,14.23,14.23,0,0,1,3-3.26,15.37,15.37,0,0,1,6-2.8,15,15,0,0,1,14.72,5.47,14.78,14.78,0,0,1,2.77,6.05,13.65,13.65,0,0,1,.18,4.46,3.44,3.44,0,0,1-.42,1.57,28.66,28.66,0,0,0-.61-5.84,15.25,15.25,0,0,0-2.79-5.54,14.24,14.24,0,0,0-6.15-4.36,14,14,0,0,0-7.48-.68,14.45,14.45,0,0,0-5.75,2.35A27.68,27.68,0,0,0,1268.82,1021.65Z"/><path class="cls-8" d="M1276.77,956.34l27.69-103L1330,805.42s26.37,15.72,30.69,33.06c2.56,10.18-20.39,83.56-20.39,83.56l-15.86,49.67Z"/><path class="cls-11" d="M1323.31,638.58a145.33,145.33,0,0,0-57-31.74h-52.63L1172.07,628s-23.77,11.22-23.77,45.95S1150,758,1154,766.51a41.65,41.65,0,0,0,8.31,12.3c-1.36,21-2.35,36.84-2.72,41.13l160.8,3.62,12.51-158.09A37.79,37.79,0,0,0,1323.31,638.58Z"/><path d="M1174.59,727.7c-.36,0-2-13.91-3.64-31.16s-2.77-31.23-2.35-31.28,2,13.92,3.64,31.16S1174.89,727.68,1174.59,727.7Z"/><path d="M1307.79,729.84c-.32,0,.38-14.76,1.62-32.85s2.49-32.85,2.82-32.85-.38,14.76-1.6,32.85S1308.12,729.86,1307.79,729.84Z"/><path class="cls-9" d="M1181.41,871.61a31.54,31.54,0,0,1-31.63-30.5c-.89-32-.91-81.61-.87-103.13a10.57,10.57,0,0,1,10.56-10.54H1324A10.56,10.56,0,0,1,1334.57,738v.26c-.54,22.32-1.79,74.08-2.58,106.18a27.9,27.9,0,0,1-27.93,27.24Z"/><path class="cls-3" d="M1144.08,1047l-9.38-1.12,19.38-158.48a18.34,18.34,0,0,1,18.09-16.31h138.75A18.38,18.38,0,0,1,1329,887.29c4.69,37.54,17.57,157.4,17.69,158.59l-9.39,1c0-1.22-13-121.08-17.67-158.46a8.91,8.91,0,0,0-8.7-8H1172.07a8.92,8.92,0,0,0-8.7,8Z"/><path class="cls-8" d="M1144.08,1047a17.81,17.81,0,0,1,.26-2.48c.26-1.65.47-4.09.84-7.25.75-6.39,1.86-15.75,3.29-27.81,2.89-24.12,7-59,12.27-102.26.66-5.42,1.32-10.93,2-16.59a21.26,21.26,0,0,1,.79-4.34,9.66,9.66,0,0,1,2.51-3.75,9,9,0,0,1,4-2.16,19.61,19.61,0,0,1,4.53-.26h135.72a9.3,9.3,0,0,1,9.17,6.29,25.18,25.18,0,0,1,.94,5.65q.63,5.6,1.27,11.27,2.54,22.66,5.19,46.24c3.49,31.45,7.15,64.06,10.88,97.55l-.68-.54,9.39-1-.54.66c-.49-4.32-1-9-1.55-13.68-3.43-30.79-6.78-61-10-90.18q-2.35-21.94-4.7-43.2c-.37-3.52-.77-7-1.17-10.56a18.25,18.25,0,0,0-3.5-9.38,17.75,17.75,0,0,0-7.9-6.08,17.45,17.45,0,0,0-4.88-1.1H1170.39a17,17,0,0,0-4,.87,17.23,17.23,0,0,0-6.81,4.24,17.78,17.78,0,0,0-4.25,6.67,34.69,34.69,0,0,0-1.43,7.76q-1,7.89-1.9,15.47-1.85,15.13-3.59,29c-2.34,18.42-4.34,35-6.12,49.56-3.66,29-6.27,49.89-7.63,60.7v-.11l7,.91,2.35.33-2.35-.21-7.16-.82h0v-.12c1.3-10.84,3.78-31.7,7.23-60.75,1.76-14.55,3.76-31.16,6-49.58q1.63-13.83,3.49-29,.91-7.57,1.88-15.44a36.06,36.06,0,0,1,1.45-8A18.85,18.85,0,0,1,1170.41,871h141.91a20.19,20.19,0,0,1,5.21,1.17,19,19,0,0,1,8.43,6.46,19.83,19.83,0,0,1,3.73,10c.4,3.5.77,7,1.17,10.56q2.34,21.25,4.83,43.2c3.27,29.26,6.64,59.41,10.07,90.2.54,4.69,1.06,9.38,1.53,13.68v.58h-.61l-9.39,1h-.61v-.61c-3.71-33.46-7.34-66.07-10.84-97.52q-2.62-23.58-5.16-46.25c-.43-3.77-.82-7.53-1.25-11.26a25.45,25.45,0,0,0-.87-5.4,8.4,8.4,0,0,0-3.19-4.06,8,8,0,0,0-4.92-1.4H1174.73a18.35,18.35,0,0,0-4.32.23,8.29,8.29,0,0,0-3.64,1.93,8.52,8.52,0,0,0-2.34,3.42,17.42,17.42,0,0,0-.76,4.11q-1.05,8.52-2.06,16.66c-5.4,43.29-9.74,78.25-12.74,102.4-1.53,12-2.7,21.33-3.5,27.69l-.91,7A8.18,8.18,0,0,0,1144.08,1047Z"/><path class="cls-8" d="M1315.49,842.91a2.81,2.81,0,0,1,0,.71,6.13,6.13,0,0,1-.12,2.09,10.27,10.27,0,0,1-4.69,6.45c-5.82,4.13-15.86,6.69-28.16,8.26-24.78,3.07-59.32,2.67-97.14-.89a34.62,34.62,0,0,1-13.7-3.71,18.58,18.58,0,0,1-8.29-11,64.39,64.39,0,0,1-2.18-13.09c-.4-4.27-.8-8.47-1.17-12.58-1.41-16.42-2.35-31.2-2.68-43.64s-.56-22.5-.58-29.45V736a4.45,4.45,0,0,1,0-.73,4.45,4.45,0,0,1,0,.73V738c0,1.92,0,4.69.16,8,.14,7,.38,17,1,29.43s1.46,27.19,2.93,43.57c.4,4.08.8,8.28,1.2,12.55a64.4,64.4,0,0,0,2.18,12.86,17.2,17.2,0,0,0,7.75,10.3,33.28,33.28,0,0,0,13.21,3.55c37.73,3.56,72.25,4.08,96.93,1.26,12.27-1.47,22.27-3.89,28-7.81a10.14,10.14,0,0,0,4.7-6.1,6.39,6.39,0,0,0,.21-2A2.65,2.65,0,0,1,1315.49,842.91Z"/></g><g id="Character_3" data-name="Character 3"><path class="cls-8" d="M928,805.14l.7,39.35s-39.74,13.91-40.33,21.11L964.67,867l1.43-61.31Z"/><path class="cls-3" d="M952.33,841.6a3.11,3.11,0,0,1,2.09,3.59,3,3,0,0,1-3.55,2.11,3.28,3.28,0,0,1-2.18-3.82,3.13,3.13,0,0,1,3.92-1.79"/><path class="cls-9" d="M964.67,867.08l-.12-6.19-73.14,1s-3.4,1.41-3.07,3.8Z"/><path class="cls-6" d="M927.43,844.06c0,.38,1.88.59,3.68,1.81s2.77,2.82,3.1,2.68-.16-2.35-2.34-3.76S927.36,843.74,927.43,844.06Z"/><path class="cls-6" d="M919.38,847.23c0,.35,1.5,1,2.75,2.63s1.57,3.26,2,3.26.63-2.11-.94-4.08S919.38,846.88,919.38,847.23Z"/><path class="cls-6" d="M914.64,856.73c.35,0,.89-1.76,0-3.82s-2.65-2.91-2.81-2.6.89,1.43,1.64,3.12S914.29,856.69,914.64,856.73Z"/><path class="cls-6" d="M928.21,835.08c.14.35,1.87-.14,4,0s3.73.89,3.94.56-1.36-1.67-3.85-1.85S928.21,834.8,928.21,835.08Z"/><path class="cls-8" d="M1021.08,802.74l4.15,47.42-7.55,38.44a4.85,4.85,0,0,0,3.81,5.71,2.25,2.25,0,0,0,.36.06h0a4.68,4.68,0,0,0,4.2-1.52c6.81-7.42,31.68-34.82,31.19-38.27-.57-4-1-50.31-1-50.31Z"/><path class="cls-9" d="M1021.85,894.37l35.2-43,.14,2a7.36,7.36,0,0,1-1.43,4.86c-2.79,3.73-10.72,13.89-29.54,34.61a4.87,4.87,0,0,1-4.34,1.52Z"/><g class="cls-14"><path class="cls-6" d="M1046.3,836.67a3,3,0,0,0-.56,3.9,2.86,2.86,0,0,0,3.87.58,3.1,3.1,0,0,0,.57-4.13,2.94,2.94,0,0,0-4.09-.16"/></g><path class="cls-6" d="M1031.45,872.93a14.71,14.71,0,0,0-4.41-3.43,15.31,15.31,0,0,0-5.54-.7,3.4,3.4,0,0,1,1.64-.73,7.54,7.54,0,0,1,4.3.47,7.4,7.4,0,0,1,3.38,2.7A3.19,3.19,0,0,1,1031.45,872.93Z"/><path class="cls-6" d="M1028.4,879.5a39.8,39.8,0,0,0-4.34-1.76,41,41,0,0,0-4.69-.31,5.33,5.33,0,0,1,4.9-.7C1027.16,877.36,1028.63,879.35,1028.4,879.5Z"/><path class="cls-6" d="M1037.15,864.43a50.3,50.3,0,0,0-6.52-3.17,45.4,45.4,0,0,0-7-1.19,10.81,10.81,0,0,1,7.46.18A11,11,0,0,1,1037.15,864.43Z"/><path class="cls-6" d="M1037.11,849.86c-.12.28-2.82-.63-6.25-.54s-6.07,1.08-6.19.8a12.08,12.08,0,0,1,12.44-.26Z"/><path class="cls-6" d="M1036.14,835.9a23.9,23.9,0,0,0-6.47-.73,22.6,22.6,0,0,0-6.2,2,4.7,4.7,0,0,1,1.46-1.44,10.64,10.64,0,0,1,9.5-.93C1035.7,835.26,1036.31,835.8,1036.14,835.9Z"/><path class="cls-6" d="M1029.69,832.52a4.12,4.12,0,0,1-.19-1.81,12.47,12.47,0,0,1,1.13-4.69,5.53,5.53,0,0,1,2.2-2.79,1.92,1.92,0,0,1,2.35.28,3.15,3.15,0,0,1,.89,2.11,6.86,6.86,0,0,1-5.61,6.73,8,8,0,0,1-8.11-3.66,2.87,2.87,0,0,1-.29-2.34,2,2,0,0,1,2-1.15,6.83,6.83,0,0,1,3.24,1.43,14.47,14.47,0,0,1,3.47,3.47,4.66,4.66,0,0,1,.85,1.6,23.12,23.12,0,0,0-4.7-4.46,6.26,6.26,0,0,0-2.83-1.17,1,1,0,0,0-1.06.61,1.89,1.89,0,0,0,.26,1.5,7.05,7.05,0,0,0,7,3.1,6,6,0,0,0,4.85-5.66,2.14,2.14,0,0,0-.56-1.48,1,1,0,0,0-1.22-.19,5,5,0,0,0-1.9,2.35A18.25,18.25,0,0,0,1029.69,832.52Z"/><path class="cls-9" d="M890.87,476.68a169.35,169.35,0,0,0-3.68,49.69c.82,10.56,36.46,302.82,36.46,302.82h48.13L958.24,554.51l3.94.87s26.28,117.13,28.42,136.09c1.95,17.06,24.1,140.79,24.1,140.79l44,.49L1044.61,669l-16.42-157.22-6.13-45.61Z"/><path class="cls-8" d="M965.75,526.54a8.67,8.67,0,0,1-2,1.12,22.47,22.47,0,0,1-6,2.09,11.79,11.79,0,0,1-4.43,0,9.13,9.13,0,0,1-4.7-2.34,11,11,0,0,1-2.81-4.93c-.57-1.85-.89-3.8-1.29-5.77-1.53-7.93-2.58-15.18-3.19-20.44-.31-2.63-.5-4.69-.61-6.22a9.24,9.24,0,0,1,0-2.35,11.07,11.07,0,0,1,.44,2.35c.26,1.67.56,3.73.94,6.17.77,5.23,1.92,12.44,3.47,20.32.78,3.92,1.29,7.89,3.73,10.23a10,10,0,0,0,8.31,2.16,26.38,26.38,0,0,0,5.91-1.73A10.61,10.61,0,0,1,965.75,526.54Z"/><path class="cls-8" d="M951.36,489.25a1.77,1.77,0,0,1,1-.3,4.34,4.34,0,0,1,2.68.87,4.7,4.7,0,0,1,2,3.7,4.55,4.55,0,0,1-3.05,4.16,4.5,4.5,0,0,1-5-1.11,4.69,4.69,0,0,1-.91-4.13,4.22,4.22,0,0,1,1.45-2.34c.54-.42.92-.47.94-.42a5.19,5.19,0,0,0-1.69,3,4.16,4.16,0,0,0,.92,3.37,3.9,3.9,0,0,0,6.48-2.34,4.24,4.24,0,0,0-1.55-3.15A5.45,5.45,0,0,0,951.36,489.25Z"/><path class="cls-8" d="M1027.63,509.06a5.42,5.42,0,0,1-1.65.26,30.72,30.72,0,0,1-4.5,0,43.75,43.75,0,0,1-27-11.38,28.34,28.34,0,0,1-3.12-3.27,5.71,5.71,0,0,1-1-1.36c.14-.11,1.69,1.67,4.56,4.09a48.46,48.46,0,0,0,26.6,11.19C1025.26,509,1027.6,508.87,1027.63,509.06Z"/><path class="cls-8" d="M914,488.55a19.68,19.68,0,0,1-2.49,4.9,54.75,54.75,0,0,1-8.35,10.35,56.09,56.09,0,0,1-10.58,8.07,19.92,19.92,0,0,1-5,2.35,50.83,50.83,0,0,1,4.7-3,70.48,70.48,0,0,0,10.13-8.19,68,68,0,0,0,8.45-10C912.79,490.29,913.82,488.48,914,488.55Z"/><path class="cls-13" d="M946.34,153.87l1.9-.12a37.22,37.22,0,0,1,39,32c2.46,17.86,5,37.54,5.42,47.21.89,19.95-18.77,24.19-18.77,24.19l.7,8.1a24.24,24.24,0,0,1-22.05,26.25h-.1a24.23,24.23,0,0,1-26.12-21.83l-7-74C916.19,175.15,925.67,156.26,946.34,153.87Z"/><path class="cls-15" d="M974,257.12A48.42,48.42,0,0,1,947.42,251s7,14.08,26.73,11Z"/><path class="cls-8" d="M981.63,204.27a2.84,2.84,0,0,1-2.58,3A2.72,2.72,0,0,1,976,205v0a2.83,2.83,0,0,1,2.58-3,2.72,2.72,0,0,1,3.07,2.32Z"/><path class="cls-8" d="M983.14,197c-.43.3-2.35-1.62-5.31-2.12s-5.49.68-5.77.26.33-.8,1.41-1.36a7.81,7.81,0,0,1,4.69-.63,7.49,7.49,0,0,1,4.15,2.13C983.11,196.13,983.32,196.84,983.14,197Z"/><path class="cls-8" d="M955.17,206.15a2.85,2.85,0,0,1-2.58,3,2.74,2.74,0,0,1-3.08-2.32v0a2.85,2.85,0,0,1,2.58-3,2.73,2.73,0,0,1,3.07,2.33Z"/><path class="cls-8" d="M953.52,196.65c-.23.44-2.77-.42-5.7.49s-4.69,3.05-5,2.77,0-.85.68-1.83a7.62,7.62,0,0,1,3.89-2.65,7.41,7.41,0,0,1,4.7,0C953.12,195.87,953.64,196.44,953.52,196.65Z"/><path class="cls-8" d="M965.75,220.11a20.83,20.83,0,0,1,4.93-1.17c.77-.14,1.5-.33,1.62-.87a4.24,4.24,0,0,0-.66-2.35c-.85-1.85-1.74-3.77-2.65-5.81a102.44,102.44,0,0,1-6.1-15.26c.35-.16,3.61,6.46,7.29,14.74.9,2,1.76,4,2.56,5.86a4.48,4.48,0,0,1,.59,3,1.92,1.92,0,0,1-1.22,1.22,5,5,0,0,1-1.32.26A20.28,20.28,0,0,1,965.75,220.11Z"/><path class="cls-8" d="M953.55,186c-.26.84-3.33.63-6.9,1.27s-6.43,1.78-7,1.05c-.24-.33.23-1.15,1.36-2a11.78,11.78,0,0,1,5.07-2.11,11.52,11.52,0,0,1,5.47.33C952.94,185,953.64,185.62,953.55,186Z"/><path class="cls-8" d="M981.85,187c-.5.72-2.63,0-5.19.23s-4.69.75-5.19,0,0-1.05,1-1.78a7.6,7.6,0,0,1,8.37-.21C981.73,185.9,982.17,186.6,981.85,187Z"/><path class="cls-8" d="M984.78,176.73s-6-12.16-12.16-14.74c-7.48-3.1-10.16,5.07-17.22,3.54s-14.08-4.53-21,1.25c-7.41,6.31-3.54,10.23-3.52,19.1.12,35.92-5.84,46.43-8.68,29.68-.3-1.85-5.51-3-6.73-10.79-1.55-10.07-2.65-22.34-.8-29.66,1.55-6.17,4.69-10.56,10.7-15.54,9.39-7.83,22.78-8.77,32-8.37S984.71,161.07,984.78,176.73Z"/><path class="cls-13" d="M923.51,214.93a5.39,5.39,0,0,0-5.86-4.89l-.26,0c-3.71.56-7.72,2.91-7,10.56,1.2,13.61,14.59,9.57,14.59,9.17S924,220.63,923.51,214.93Z"/><path class="cls-15" d="M921.49,225a3.2,3.2,0,0,1-.61.4,2.34,2.34,0,0,1-1.76.19,5.84,5.84,0,0,1-3.16-5,7.49,7.49,0,0,1,.35-3.45,2.81,2.81,0,0,1,1.62-2,1.19,1.19,0,0,1,1.45.54c.21.36.14.64.24.66s.26-.26,0-.82a1.47,1.47,0,0,0-.61-.8,1.85,1.85,0,0,0-1.34-.23,3.38,3.38,0,0,0-2.35,2.34,8,8,0,0,0-.49,3.85,6.12,6.12,0,0,0,4,5.56,2.55,2.55,0,0,0,2.13-.54C921.49,225.3,921.54,225,921.49,225Z"/><path class="cls-8" d="M987.66,162c-2.08-1.57-5-1.78-7-3.38-3.78-2.91-4-9.38-8.38-11.22-2.63-1-5.59.24-8.4,0-4.55-.49-6.31-3.91-13.21-3.94a12.55,12.55,0,0,0-11.85,6.67,10.31,10.31,0,0,0-10.33,1,11.42,11.42,0,0,0-4.31,8.24s-1.41-.73-5.73,2.67a22.41,22.41,0,0,0-6,10.21c-1.48,5,.68,10.23,2.79,15,1.15,2.56,2.58,5.4,5.23,6.29,3.26,1.11,6.85-1.45,8.12-4.69s3.26-6.38,4.69-9.39c2.68-5.3,5.42-10.27,3.17-13.68a15.49,15.49,0,0,1,9.57,0c3.13,1,5.85,3,9,4.13s7,1,9.13-1.5a6.69,6.69,0,0,0,10.23,2.35,9.38,9.38,0,0,0,12.18,3.42A7.55,7.55,0,0,0,987.66,162Z"/><path class="cls-9" d="M913.87,184a16.89,16.89,0,0,1,1.57,3.12,6.67,6.67,0,0,0,2.35,2.75,5.78,5.78,0,0,0,4.22.49,10.3,10.3,0,0,0,4.08-1.71,16.89,16.89,0,0,0,2.65-2.56,17.41,17.41,0,0,1,2.35-2.65,11.66,11.66,0,0,1-1.83,3,14.36,14.36,0,0,1-2.65,2.8,10.38,10.38,0,0,1-4.39,1.92,6.5,6.5,0,0,1-4.69-.66,6.74,6.74,0,0,1-2.35-3.14A14,14,0,0,1,913.87,184Z"/><path class="cls-9" d="M914.38,194.44a10.07,10.07,0,0,0,2.7,1.5,7.89,7.89,0,0,0,3.24.29,9.65,9.65,0,0,0,3.76-1.44,18.89,18.89,0,0,0,5.11-5.39,13.94,13.94,0,0,1,1.85-2.58,11,11,0,0,1-1.36,2.88,16.59,16.59,0,0,1-5.18,5.77,9.28,9.28,0,0,1-4.09,1.48,7.51,7.51,0,0,1-3.54-.47C915,195.69,914.31,194.47,914.38,194.44Z"/><path class="cls-15" d="M957.16,225.11a16.62,16.62,0,0,0-.77,4.69,5.29,5.29,0,0,0,1.47,4,5.72,5.72,0,0,0,4.42,2h0a6.33,6.33,0,0,0,6.26-5.39l.54-3.38C966,226.19,957.4,225.34,957.16,225.11Z"/><path class="cls-8" d="M965.54,234.78h-1.08a10,10,0,0,1-2.89,0,5.56,5.56,0,0,1-3.49-2.07,6.88,6.88,0,0,1-1.39-4.69,7,7,0,0,1,.73-2.77l-.42.21c3.07.47,5.75.82,7.65,1.06a11.44,11.44,0,0,0,3.09.21,14.76,14.76,0,0,0-3-.73c-1.9-.37-4.55-.84-7.6-1.34h-.31l-.11.26a7.06,7.06,0,0,0-.85,3.1,7.37,7.37,0,0,0,1.62,5.3,5.91,5.91,0,0,0,4,2.14,8.06,8.06,0,0,0,3-.28C965.21,235,965.56,234.82,965.54,234.78Z"/><path class="cls-9" d="M921.68,218.77a11.11,11.11,0,0,0,2.72-4,5.55,5.55,0,0,0-.3-4.69,6.68,6.68,0,0,0-3.36-2.46,8.19,8.19,0,0,0-3.59-.66,4.31,4.31,0,0,0-3.19,1.62,1.6,1.6,0,0,0-.19,1.87c.5.59,1.41.43,2.16.24a8.78,8.78,0,0,1,3.1-.38,3.51,3.51,0,0,1,2.63,1.48,3.64,3.64,0,0,1,0,3.45,10.34,10.34,0,0,1-2.35,2.75"/><path class="cls-3" d="M876,291.09c-1.17,0-18,6.74-22.48,23.33S837,391.64,837,391.64l-12.86,17.79s4.15,32.52,27.8,26.35c0,0,15.8,2.74,20.84-13.26s14.78-63.73,14.78-63.73Z"/><path class="cls-3" d="M925.25,263.33l-8.94,13.52L876,291.09l11.54,116.83-4.31,61.22A13.79,13.79,0,0,0,896,483.89a11.4,11.4,0,0,0,1.31,0L1024,480.2c3.16,0,4.69-4.11,5.16-8.43a28.84,28.84,0,0,0-1-11.57l-6.67-23.46c1,14.57-3.37-86.82-3.54-90.62l9.76-52.23-45.85-18.42-7-11-20.67,15.65Z"/><path class="cls-3" d="M1027.74,293.91s9.22,8.09,10.77,14.27,34.68,78,34.68,78l16.43,4.46,4.39,9.11a25.39,25.39,0,0,1-7.18,31.23c-.61.47-1.2.86-1.76,1.22a28.17,28.17,0,0,1-34.21-5.94c-8.85-10.39-34.69-47.87-34.69-47.87V332.56Z"/><path class="cls-13" d="M1081.74,393.42l23.69-14.08,11.41,14.08-2.35,6.78L1084,422.85a20.33,20.33,0,0,1-7-12.27C1075.45,402.18,1081.74,393.42,1081.74,393.42Z"/><path class="cls-8" d="M1074.23,386.2c0,.23-2,0-5,1a22.28,22.28,0,0,0-9.83,6.83,44.12,44.12,0,0,0-6.27,10.52,27.22,27.22,0,0,1-2.23,4.69,17.79,17.79,0,0,1,1.43-5,37.9,37.9,0,0,1,6.13-11,20.88,20.88,0,0,1,10.53-6.85A9.44,9.44,0,0,1,1074.23,386.2Z"/><path class="cls-13" d="M1105,387.2a18.37,18.37,0,0,1,5.67-17.05,64.12,64.12,0,0,1,18.78-10.73c4.15-1.85,12.78-9.08,14.33-7.32a5.71,5.71,0,0,1,0,7.53c-2.18,3.19-14.71,8-13,12,.72,1.64,4.69,1.92,4.69,1.92s15.11,1,21.45.45,12,.66,11.73,2.84-1.53,3.4-6.78,3.82-13.78.12-14.22,1.32,1.31,2,4.36,1.76,17.51-.24,18.49,1.41a3.28,3.28,0,0,1-1.25,4.47,3.41,3.41,0,0,1-.48.22l-3.41,1.2s2,2.74.33,4.27-5.35,1-5.35,1l-19.14-.54s-1.11,1.15-.54,1.93,15.51-.31,15.62,1.33,1.43,2.35-3,3.52a60.9,60.9,0,0,1-19.8,0,196.84,196.84,0,0,0-21-1.87Z"/><path class="cls-13" d="M844.93,395.93,822.8,377.54l-12.72,14.29,1.55,7,27.69,26a19.13,19.13,0,0,0,8.68-10.6C850.77,406.45,844.93,395.93,844.93,395.93Z"/><path class="cls-13" d="M822.61,387A18.52,18.52,0,0,0,819,369.42a63.85,63.85,0,0,0-17.34-12.81c-3.92-2.35-11.73-10.52-13.37-9a5.75,5.75,0,0,0-.82,7.61c1.78,3.4,10.39,7.39,10.09,11.73a3.24,3.24,0,0,1-3.46,3h0q-10.71-.5-21.33-2.06c-6.24-1.29-12-.75-12,1.45s1.12,3.54,6.29,4.69,13.68,1.72,14.07,3-1.54,1.81-4.55,1.22-17.36-2.35-18.53-.73a3.29,3.29,0,0,0,.71,4.59,2.92,2.92,0,0,0,.48.29l3.24,1.58s-2.35,2.48-.82,4.2,5.21,1.62,5.21,1.62l19,1.69s1,1.26.33,2-15.39-2.11-15.7-.52-1.69,2.23,2.65,3.85a60.39,60.39,0,0,0,19.64,2.35,198.41,198.41,0,0,1,21.12.61Z"/><path class="cls-8" d="M980.77,278.7a33.38,33.38,0,0,1-4,4.16c-2.51,2.34-6,5.91-9.65,9.85-.75.85-1.52,1.67-2.34,2.47l-.47.54-.45-.57c-2.84-3.63-5.28-6.87-7-9.22a20.69,20.69,0,0,1-2.58-3.89,19,19,0,0,1,3.19,3.4c1.88,2.23,4.46,5.35,7.32,9h-.91l2.34-2.49a133.37,133.37,0,0,1,9.95-9.66A23.53,23.53,0,0,1,980.77,278.7Z"/><path class="cls-8" d="M878.65,322.07a12.4,12.4,0,0,1,.65,2.48c.36,1.6.78,3.95,1.22,6.86.94,5.79,2,13.84,2.77,22.78s1.43,17,1.88,22.83c.19,2.72.35,5.05.49,7a10,10,0,0,1,0,2.56,10.27,10.27,0,0,1-.51-2.51c-.26-1.62-.54-4-.89-6.9-.66-5.84-1.41-13.92-2.35-22.83s-1.67-16.94-2.35-22.76l-.63-6.88A8.89,8.89,0,0,1,878.65,322.07Z"/><path class="cls-8" d="M1018.71,318a15.35,15.35,0,0,1,.44,3.09c.19,2,.43,4.93.61,8.55.4,7.2.61,17.17.64,28.15v36.73a14.17,14.17,0,0,1-.14,3.12,15,15,0,0,1-.33-3.12c-.14-2-.28-4.93-.4-8.55-.26-7.2-.33-17.17-.35-28.15s0-21-.28-28.16c0-3.4-.17-6.27-.21-8.52A15.69,15.69,0,0,1,1018.71,318Z"/><path class="cls-8" d="M860.46,421.3a46.28,46.28,0,0,1-1.24-6.2,48.74,48.74,0,0,0-4.69-14.24,26.77,26.77,0,0,0-10.35-10.49,50.5,50.5,0,0,0-5.82-2.34,4.11,4.11,0,0,1,1.71,0,15.57,15.57,0,0,1,4.48,1.4,25.23,25.23,0,0,1,11,10.68,42.13,42.13,0,0,1,4.69,14.69A24.82,24.82,0,0,1,860.46,421.3Z"/><path class="cls-8" d="M866.21,397.11a45.41,45.41,0,0,0-9.6-5.31,47.53,47.53,0,0,0-10.86-1.69,17.33,17.33,0,0,1,11.26.54A17,17,0,0,1,866.21,397.11Z"/><path class="cls-8" d="M957.07,480.31a10.2,10.2,0,0,1-.14-2c0-1.43,0-3.33-.12-5.75-.12-5.09-.26-12.27-.42-21.12-.43-17.93-1-42.49-1.65-69.64s-1-51.81-1-69.65c0-8.91,0-16.14.21-21.11,0-2.35.14-4.32.17-5.75a8.77,8.77,0,0,1,.14-2,11.42,11.42,0,0,1,.12,2v5.73c0,5.11.11,12.29.18,21.11.19,17.81.71,42.43,1.32,69.62s1.15,51.81,1.29,69.65V478.3A15.09,15.09,0,0,1,957.07,480.31Z"/><path class="cls-8" d="M843.85,395.14a9.37,9.37,0,0,1,3.24,4.17,20.47,20.47,0,0,1,1.87,5.47,21.88,21.88,0,0,1,0,7,18.84,18.84,0,0,1-2.06,6.8A13.63,13.63,0,0,1,843,423a7.55,7.55,0,0,1-5,1.78,20.81,20.81,0,0,0,4.44-2.49,13.51,13.51,0,0,0,3.42-4.2,20,20,0,0,0,1.86-6.42,21.62,21.62,0,0,0-1.55-12A46.69,46.69,0,0,0,843.85,395.14Z"/><path class="cls-8" d="M1088.38,425.41a3.73,3.73,0,0,1-1.48-.45,16.16,16.16,0,0,1-3.59-2.16,19.4,19.4,0,0,1-4.93-25.32,16.57,16.57,0,0,1,2.53-3.35c.71-.71,1.18-1,1.22-1a36.06,36.06,0,0,0-3,4.7,19.67,19.67,0,0,0,4.7,24.17C1086.43,424.4,1088.47,425.19,1088.38,425.41Z"/><path class="cls-8" d="M997.92,371.67a18.2,18.2,0,0,1-3.07,1.81c-2,1.08-4.93,2.58-8.59,4.41-7.3,3.64-17.51,8.42-29,13.28s-22,8.85-29.71,11.57c-3.85,1.36-7,2.34-9.15,3.1a17.76,17.76,0,0,1-3.43.93,23.56,23.56,0,0,1,3.27-1.38l9-3.47c7.62-2.91,18.09-7,29.54-11.88s21.68-9.5,29.07-12.92l8.75-4.06A21.06,21.06,0,0,1,997.92,371.67Z"/><path class="cls-15" d="M1133.83,366.34c.14.15-.87,1.13-2.19,2.87a8.3,8.3,0,0,0-1.52,3.35c-.28,1.39-.26,3-.49,4.7a11.56,11.56,0,0,1-4.58,7.69,5.84,5.84,0,0,1-3.4,1.48c0-.19,1.24-.7,2.86-2.13a12.11,12.11,0,0,0,3.9-7.21,48.24,48.24,0,0,1,.61-4.83,8.32,8.32,0,0,1,1.94-3.66C1132.54,367,1133.73,366.25,1133.83,366.34Z"/><path class="cls-15" d="M788.61,385.16a57.62,57.62,0,0,1-13.32.31,59.58,59.58,0,0,1-13.24-1.55,92.44,92.44,0,0,1,13.31.33A101.24,101.24,0,0,1,788.61,385.16Z"/><path class="cls-15" d="M802.18,384.15c0,.15-1.44,0-3.12-1.52A9.78,9.78,0,0,1,795.7,375a23.86,23.86,0,0,1,.82-4.51A12.72,12.72,0,0,0,797,367a12,12,0,0,0-.73-3.17,4.28,4.28,0,0,1,1.6,3.08,11.3,11.3,0,0,1-.22,3.8,33,33,0,0,0-.7,4.32,9.82,9.82,0,0,0,2.75,7C801.05,383.4,802.25,384,802.18,384.15Z"/><path class="cls-15" d="M1137.25,388.4a81.21,81.21,0,0,1,14.2.56,84.61,84.61,0,0,1,14.08,1.79,82.2,82.2,0,0,1-14.2-.57A83.56,83.56,0,0,1,1137.25,388.4Z"/><path class="cls-8" d="M952.94,280.86a44.07,44.07,0,0,1-2.7,7l-1.48,3.45a39,39,0,0,1-1.9,4,2.57,2.57,0,0,1-2.51,1.24,6.22,6.22,0,0,1-2.35-1.22l-4.22-2.89c-5.77-4-10.94-7.65-14.67-10.34a49.49,49.49,0,0,1-5.86-4.56,45.22,45.22,0,0,1,6.36,3.85c3.84,2.51,9.1,6.06,14.87,10.05l4.2,2.9a6.24,6.24,0,0,0,1.88,1.06,1.43,1.43,0,0,0,1.41-.73c1.36-2.48,2.49-5.14,3.52-7.15A48.94,48.94,0,0,1,952.94,280.86Z"/></g><g id="Character_1" data-name="Character 1"><path class="cls-13" d="M656,687.25c0,1.43,13.24,52.44,13.24,69s-15.58,30.22-15.58,30.22l-17-36.84-7-45.83Z"/><path class="cls-13" d="M494.22,682.34c-.16,1.46,2.75,64.91,2.75,64.91l25.51-2.35-5.66-42.54Z"/><path class="cls-11" d="M529.09,629.15c-.26.14-1.05.38-2.23.77-7,2.35-30.5,10.42-33.46,31l-3.21,29.26,26.63,12.18L520.13,735l115.26,2.34-2.84-27.38,39.14-8.61S664.3,666,650,647.08a31.24,31.24,0,0,0-18.77-11.74l-59.67-11.87Z"/><path class="cls-8" d="M585.1,513.07a28.84,28.84,0,0,0-23,7.65A57.93,57.93,0,0,0,548.47,541c-6.45,14.5-10.2,30-13.91,45.38-5.49,22.67-11,45.48-12.46,68.71s5.75,37,16.12,58l36.72-4.91V701.4l5,6.73L594.16,706s4.27-36,4.27-35.88,6.81,34.26,6.81,34.26l11.87-1.06c11.73-45.21-1.55-75,5.16-121.15,1.6-11,4.13-21.89,4.08-33s-3-22.69-10.93-30.71-21.59-11.31-31.33-5.42"/><path class="cls-9" d="M594.09,706a1.91,1.91,0,0,1-.14-.52l-.31-1.52q-.37-2.12-1.07-5.92c-.92-5.14-2.16-12.57-3.29-21.82a230.45,230.45,0,0,1-1.85-32.69,168,168,0,0,1,1.5-19.28,153.74,153.74,0,0,1,4.32-20.35c4.06-13.7,9.71-26.16,12.48-38.15a74.84,74.84,0,0,0,2.16-17.25,46.08,46.08,0,0,0-2.35-14.87,39.48,39.48,0,0,0-5.84-11.08,34.73,34.73,0,0,0-6.78-6.76,32.31,32.31,0,0,0-5.24-3.14l-1.45-.66a2.19,2.19,0,0,1-.49-.23l.51.16,1.5.56a29.59,29.59,0,0,1,5.35,3.08,33.69,33.69,0,0,1,7,6.71,39.23,39.23,0,0,1,6,11.17,46.23,46.23,0,0,1,2.49,15.06,74,74,0,0,1-2.11,17.41c-2.75,12.09-8.4,24.59-12.44,38.2a161,161,0,0,0-4.31,20.25,171.48,171.48,0,0,0-1.53,19.2,236.59,236.59,0,0,0,1.67,32.59c1,9.25,2.2,16.68,3,21.85.4,2.53.73,4.52.94,5.91a7.32,7.32,0,0,0,.23,1.55A3.25,3.25,0,0,1,594.09,706Z"/><path class="cls-9" d="M542.47,682.44V682a3.91,3.91,0,0,0-.17-1.27c-.11-1.17-.3-2.79-.51-4.88-.13-1-.25-2.22-.35-3.52s-.19-2.7-.29-4.22c-.16-3-.44-6.46-.47-10.28V645.39c0-4.48.38-9.27.69-14.29a296.32,296.32,0,0,1,4.36-32.52,290.75,290.75,0,0,1,8.38-31.78c1.64-4.69,3.14-9.38,4.85-13.54.82-2.08,1.58-4.12,2.35-6s1.64-3.75,2.35-5.51c1.47-3.55,3.07-6.62,4.38-9.39.69-1.36,1.27-2.65,1.88-3.8l1.69-3.14c1-1.86,1.78-3.31,2.35-4.35l.63-1.12c.14-.26.21-.38.24-.38a2.63,2.63,0,0,1-.17.42l-.56,1.15-2.23,4.42-1.62,3.16c-.56,1.18-1.15,2.47-1.81,3.85-1.26,2.75-2.81,5.84-4.24,9.39-.75,1.76-1.55,3.59-2.35,5.51s-1.55,4-2.35,6.06c-1.69,4.17-3.16,8.75-4.69,13.51A279.44,279.44,0,0,0,542,631.12c-.33,5-.7,9.79-.75,14.27,0,2.23-.16,4.39-.16,6.45v6c0,3.81.21,7.25.33,10.26,0,1.5.14,2.91.18,4.22s.21,2.47.31,3.52c.14,2.09.28,3.71.37,4.91V682Z"/><path class="cls-9" d="M562.81,709.75a3.61,3.61,0,0,1-.16-.42c-.12-.33-.24-.75-.42-1.29l-1.55-4.91-1.11-3.56c-.37-1.32-.7-2.77-1.1-4.3-.73-3.09-1.76-6.59-2.35-10.53-.37-2-.77-4-1.17-6.17s-.66-4.39-1-6.71-.73-4.7-.92-7.25-.44-5.05-.68-7.7a244.6,244.6,0,0,1,.26-34.35,265.35,265.35,0,0,1,5.33-34c.63-2.56,1.24-5.07,1.83-7.51s1.31-4.7,1.92-7c1.22-4.55,2.65-8.71,3.9-12.53s2.55-7.18,3.63-10.19,2.14-5.53,3-7.6,1.52-3.61,2-4.69l.54-1.22.21-.42v.44a6.29,6.29,0,0,1-.47,1.27l-1.88,4.81c-.82,2.09-1.83,4.69-2.86,7.65s-2.35,6.38-3.52,10.21-2.58,8-3.78,12.53c-.61,2.34-1.34,4.57-1.9,7s-1.17,5-1.78,7.5a268.7,268.7,0,0,0-5.45,33.93A244.55,244.55,0,0,0,553,657c.21,2.63.45,5.18.64,7.67s.61,4.91.89,7.23.54,4.57,1,6.71.78,4.2,1.13,6.17c.63,3.94,1.62,7.42,2.34,10.51.4,1.55.68,3,1.06,4.3s.7,2.51,1,3.59l1.39,5,.35,1.31C562.81,709.56,562.84,709.75,562.81,709.75Z"/><path class="cls-9" d="M614.36,687.91a2,2,0,0,1-.25-.45c-.17-.33-.4-.77-.66-1.34l-1.06-2.18c-.4-.89-.82-1.9-1.31-3.05a106.18,106.18,0,0,1-6.15-20.11,111.35,111.35,0,0,1-1.9-31,113.16,113.16,0,0,1,3-18.19c1.53-6.21,3.55-12.53,5.61-19s4-12.76,5.45-19a93.51,93.51,0,0,0,2.53-18.09,57.5,57.5,0,0,0-1.76-16.42,42,42,0,0,0-6-13.1,37.7,37.7,0,0,0-16.08-13.44,35.35,35.35,0,0,0-5.58-1.74l-1.5-.3h-.52a1.51,1.51,0,0,1,.52,0l1.52.21a31.19,31.19,0,0,1,5.68,1.62,37.22,37.22,0,0,1,16.43,13.42A42.1,42.1,0,0,1,618.52,539a56.46,56.46,0,0,1,1.83,16.57,90.49,90.49,0,0,1-2.49,18.23c-1.43,6.24-3.4,12.58-5.44,19s-4.09,12.76-5.61,18.94a111.41,111.41,0,0,0,4.62,69c.45,1.15.87,2.18,1.22,3.08s.73,1.59,1,2.2.44,1,.58,1.39A2.54,2.54,0,0,1,614.36,687.91Z"/><path d="M511.38,666.53a46.35,46.35,0,0,1,1.29,6.92c.7,4.69,1.59,10.42,2.58,16.78s1.9,12.11,2.65,16.78a38.72,38.72,0,0,1,.87,7,41.71,41.71,0,0,1-1.71-6.86c-.9-4.24-2-10.16-3-16.73s-1.78-12.53-2.35-16.84A37.35,37.35,0,0,1,511.38,666.53Z"/><path d="M634.9,675.49a195.51,195.51,0,0,1-.83,21.78,197.11,197.11,0,0,1-2,21.7,195.42,195.42,0,0,1,.82-21.77A192.55,192.55,0,0,1,634.9,675.49Z"/><path class="cls-13" d="M619.5,946.56l-13.21-42.07,30.37-9.2c-.22,0,10,52.77,10,52.77l-14.73,6Z"/><path class="cls-9" d="M676.26,952l-11-3.7L645.2,940.5l-27.08,2.82,4.06,24.4,22.62-1.83,38.43-2.34-.77-3.31A12.65,12.65,0,0,0,676.26,952Z"/><path class="cls-8" d="M649,963.83a57.51,57.51,0,0,1-2.53-11.59,55.9,55.9,0,0,1-1.34-11.74A114.5,114.5,0,0,1,649,963.83Z"/><polygon class="cls-3" points="622.18 967.72 621.5 963.57 682.25 959.23 683.23 963.5 622.18 967.72"/><polygon class="cls-13" points="539.96 1012.02 539.96 971.48 573.51 969.37 571.4 1013.03 555.47 1019.25 539.96 1012.02"/><path class="cls-9" d="M553.33,1012.75,540,1012s-20.53,16.64-22.53,25.82a20.3,20.3,0,0,0,0,7l31.21.91H571.4V1013Z"/><path class="cls-8" d="M583.7,871.68c.65,1.6,9.52,47.33,9.52,47.33l54.25-12.2-7-30.95Z"/><path class="cls-8" d="M527.69,876.33V971l53.24,2.35,2.34-96.89Z"/><rect class="cls-3" x="517.15" y="1040.04" width="54.25" height="5.66"/><path class="cls-8" d="M542.59,1014.61c.35,0-1.08,5.67-2.21,12.64s-1.57,12.72-1.92,12.7a61.4,61.4,0,0,1,4.13-25.34Z"/><path class="cls-8" d="M569.19,1038.26a27.94,27.94,0,0,0-2.83-5.14,15.1,15.1,0,0,0-4.7-4,14.5,14.5,0,0,0-7.34-1.6,14.18,14.18,0,0,0-7.18,2.35,14.78,14.78,0,0,0-4.34,4.43,27.85,27.85,0,0,0-2.35,5.4,3.25,3.25,0,0,1,0-1.64,13.31,13.31,0,0,1,1.53-4.18,14.77,14.77,0,0,1,25.06-1.2,14,14,0,0,1,1.92,4A3.55,3.55,0,0,1,569.19,1038.26Z"/><path class="cls-9" d="M520.5,872.41a31.27,31.27,0,0,1-31.34-30.29c-.87-31.75-.9-80.91-.87-102.22a10.48,10.48,0,0,1,10.49-10.46H661.86a10.49,10.49,0,0,1,10.58,10.39v.24c-.54,22.13-1.78,73.44-2.56,105.26a27.67,27.67,0,0,1-27.69,27Z"/><path class="cls-3" d="M483.43,1046.26l-9.39-1.13L493.24,888a18.2,18.2,0,0,1,17.95-16.17H648.72A18.24,18.24,0,0,1,666.67,888c4.69,37.14,17.41,156,17.53,157.21l-9.39,1c-.14-1.2-12.93-120-17.53-157.05a8.84,8.84,0,0,0-8.63-7.89H511.26a8.84,8.84,0,0,0-8.64,7.91Z"/><path class="cls-8" d="M483.43,1046.26a18,18,0,0,1,.26-2.49c.26-1.64.47-4,.82-7.18.75-6.31,1.85-15.6,3.26-27.55,2.89-23.91,7-58.52,12.18-101.39.63-5.35,1.31-10.84,2-16.42a18.82,18.82,0,0,1,.8-4.27,9.61,9.61,0,0,1,2.49-3.76,9.13,9.13,0,0,1,4-2.13,19.47,19.47,0,0,1,4.51-.26H648.43a9.17,9.17,0,0,1,5.52,1.57,9.43,9.43,0,0,1,3.57,4.55,25.39,25.39,0,0,1,.93,5.61q.64,5.57,1.25,11.17,2.53,22.45,5.14,45.85c3.49,31.19,7,63.52,10.81,96.7l-.68-.56,9.39-1-.56.66c-.47-4.27-1-8.92-1.51-13.54-3.4-30.51-6.73-60.4-10-89.4q-2.34-21.75-4.69-42.82c-.38-3.5-.78-7-1.15-10.47a18.37,18.37,0,0,0-3.47-9.39,17.81,17.81,0,0,0-7.84-6,18.18,18.18,0,0,0-4.83-1.08c-1.62-.11-3.38,0-5.07,0H509.83a17.68,17.68,0,0,0-3.94.87,17.14,17.14,0,0,0-6.76,4.2,17.76,17.76,0,0,0-4.2,6.62,34.71,34.71,0,0,0-1.41,7.7c-.66,5.21-1.29,10.3-1.9,15.32q-1.86,15-3.54,28.7c-2.35,18.25-4.3,34.7-6.1,49.13-3.62,28.77-6.2,49.44-7.56,60.16v-.11l7,.91,2.35.33-2.35-.21-7-.8h-.12v-.35c1.27-10.75,3.73-31.42,7-60.23,1.74-14.41,3.73-30.88,5.92-49.14,1.12-9.13,2.34-18.77,3.47-28.72.61-5,1.24-10.11,1.85-15.32a35.87,35.87,0,0,1,1.46-7.89,18.73,18.73,0,0,1,4.41-7,18.4,18.4,0,0,1,7-4.45,19.45,19.45,0,0,1,4.2-.92H650.36a19.73,19.73,0,0,1,5.14,1.15,18.78,18.78,0,0,1,8.37,6.43,19.32,19.32,0,0,1,3.69,9.93c.4,3.49.8,7,1.17,10.48q2.35,21.12,4.69,42.83c3.24,29,6.6,58.87,10,89.4.52,4.69,1,9.27,1.5,13.56v.61h-.61l-9.38,1h-.59v-.61c-3.71-33.18-7.3-65.49-10.77-96.68q-2.61-23.46-5.09-45.85c-.42-3.73-.85-7.46-1.25-11.16a25.41,25.41,0,0,0-.86-5.35,8.4,8.4,0,0,0-3.15-4,8,8,0,0,0-4.88-1.38H513.61a18.2,18.2,0,0,0-4.3.21,8.25,8.25,0,0,0-3.59,1.92,8.45,8.45,0,0,0-2.34,3.38,17.26,17.26,0,0,0-.76,4.09l-2,16.42c-5.35,42.92-9.66,77.55-12.64,101.51-1.51,11.9-2.66,21.12-3.45,27.43l-.92,7A20.74,20.74,0,0,1,483.43,1046.26Z"/><path class="cls-8" d="M653.41,844a2.73,2.73,0,0,1,0,.7,5.65,5.65,0,0,1-.12,2.09,10.08,10.08,0,0,1-4.57,6.38c-5.75,4.09-15.72,6.62-27.93,8.19-24.56,3-58.82,2.66-96.2-.86A34.56,34.56,0,0,1,511,856.78a18.31,18.31,0,0,1-8.19-10.91,62.78,62.78,0,0,1-2.18-13q-.6-6.36-1.15-12.48c-1.39-16.24-2.21-30.93-2.65-43.24s-.57-22.32-.57-29.22V738a2.81,2.81,0,0,1,0-.71V740c0,1.9,0,4.55.17,7.93.14,6.9.37,16.87,1,29.17s1.45,27,2.91,43.2q.56,6.09,1.2,12.46a61.79,61.79,0,0,0,2.13,12.74,17.27,17.27,0,0,0,7.67,10.21,33.37,33.37,0,0,0,13.12,3.52c37.4,3.52,71.61,4,96.06,1.24,12.18-1.46,22.09-3.85,27.76-7.74a10,10,0,0,0,4.7-6.06,6.54,6.54,0,0,0,.23-2A2,2,0,0,0,653.41,844Z"/></g></svg>