<?xml version="1.0" encoding="UTF-8"?>
<svg id="Layer_2" data-name="Layer 2" xmlns="http://www.w3.org/2000/svg" viewBox="0 0 454.05 447.83">
  <defs>
    <style>
      .cls-1 {
        fill: #fff;
      }

      .cls-2 {
        fill: #f36d33;
      }
    </style>
  </defs>
  <g id="Layer_1-2" data-name="Layer 1">
    <g>
      <path class="cls-2" d="M454.05,148.09v133.22H147.56v-134.39c0-29.22,23.69-52.91,52.92-52.91h199.49c29.86,0,54.08,24.21,54.08,54.08Z"/>
      <polygon class="cls-1" points="454.05 181.35 454.05 228.19 249.05 266.49 243.55 218.47 454.05 181.35"/>
      <path d="M200.89,94.01h5.35c29.85,0,54.08,24.23,54.08,54.08v133.22h-113.51v-133.22c0-29.85,24.23-54.08,54.08-54.08Z"/>
      <path class="cls-2" d="M146.81,281.31h113.51l-21.24,42.57c-15.64,31.35-53.73,56.76-85.08,56.76h0c-31.35,0-44.08-25.41-28.43-56.76l21.24-42.57Z"/>
      <g>
        <g>
          <path class="cls-1" d="M119.19,224.55h82.3v26.96h-76.98c-2.93,0-5.32-2.38-5.32-5.32v-21.64h0Z"/>
          <path class="cls-2" d="M127.15,248.96c-4.39,0-7.96-3.56-7.96-7.96v-2.83c0-4.39,3.56-7.96,7.96-7.96h74.19c.86,0,1.56-.7,1.56-1.56v-80.86c0-1.5-1.21-2.71-2.71-2.71h-73.91c-5.49,0-9.93,4.45-9.93,9.93v87.97c0,5.49,4.45,9.93,9.93,9.93h73.91c1.5,0,2.71-1.21,2.71-2.71h0c0-.07-.06-1.25-.13-1.25h-75.63Z"/>
        </g>
        <g>
          <path d="M181.33,195.25c-.39,1.11-3.01-2.07-6.92-2.67-3.91-.97-9.12.63-14.69,2.66-5.57,2.16-10.46.93-13.86-2.49-3.4-3.17-5.3-8.54-4.91-9.04.39-1.11,3.01,2.07,6.92,2.67,3.91.97,9.12-.63,14.69-2.67,5.57-2.16,10.47-.93,13.86,2.49,3.4,3.17,5.3,8.54,4.91,9.03"/>
          <path d="M184.22,207.81c-.39,1.11-3.01-2.07-6.92-2.67-3.91-.97-9.12.63-14.69,2.67-5.57,2.16-10.46.93-13.86-2.49-3.4-3.17-5.3-8.54-4.91-9.03.39-1.11,3.01,2.07,6.91,2.67,3.91.97,9.12-.63,14.69-2.66,5.57-2.16,10.46-.93,13.86,2.48,3.4,3.17,5.3,8.54,4.91,9.04"/>
          <path d="M178.08,182.69c-.39,1.11-3.01-2.07-6.92-2.67-3.91-.97-9.12.63-14.69,2.66-5.57,2.16-10.46.93-13.86-2.48-3.4-3.17-5.3-8.54-4.91-9.04.39-1.11,3.01,2.07,6.92,2.67,3.91.97,9.12-.64,14.69-2.67,5.57-2.16,10.46-.93,13.86,2.49,3.4,3.17,5.3,8.54,4.91,9.04"/>
        </g>
      </g>
      <rect y="179.14" width="95.07" height="7.09" rx="2.82" ry="2.82"/>
      <path d="M400.32,440.74h-63.29v-159.43h-35.47v159.43h-63.29c-1.59,0-2.89,1.3-2.89,2.89v1.31c0,1.59,1.3,2.89,2.89,2.89h162.05c1.59,0,2.89-1.3,2.89-2.89v-1.31c0-1.59-1.3-2.89-2.89-2.89Z"/>
      <rect x="24.12" y="196.17" width="70.95" height="7.09" rx="2.82" ry="2.82"/>
      <rect x="42.57" y="213.2" width="52.5" height="7.09" rx="2.82" ry="2.82"/>
      <path d="M368.04,147.82V3.53c0-1.74-1.42-3.16-3.16-3.16s-3.16,1.42-3.16,3.16v144.29c-7.22,1.47-12.66,7.85-12.66,15.5,0,8.74,7.08,15.82,15.82,15.82s15.82-7.08,15.82-15.82c0-7.65-5.44-14.04-12.66-15.5Z"/>
      <path d="M428.51,0h-62.37c-2.38,0-4.31,1.93-4.31,4.31v39.97c0,2.38,1.93,4.31,4.31,4.31h62.37l-27.13-24.22L428.51.16v-.16Z"/>
    </g>
  </g>
</svg>