<svg xmlns="http://www.w3.org/2000/svg" xmlns:xlink="http://www.w3.org/1999/xlink" id="Layer_1" data-name="Layer 1" viewBox="0 0 1950 704"><defs><style>      .cls-1 {        fill: url(#New_Pattern_13);      }      .cls-1, .cls-2, .cls-3 {        stroke-width: 0px;      }      .cls-2 {        fill: none;      }      .cls-3 {        fill: #1772b7;      }    </style><pattern id="New_Pattern_13" data-name="New Pattern 13" x="0" y="0" width="400" height="400" patternTransform="translate(-26 -5147)" patternUnits="userSpaceOnUse" viewBox="0 0 400 400"><g><rect class="cls-2" width="400" height="400"></rect><g><path class="cls-3" d="M348.9,417.64h-3.78v-6.9c0-3.62-.48-7.14-1.39-10.5l-8.05,12.67c-.31.5-.86.78-1.41.78-.26,0-.51-.06-.76-.18l-6.63-3.35c-.76-.38-1.12-1.3-.8-2.1l8.92-23.03c.09-.25.2-.48.34-.7-.69-.83-1.43-1.63-2.2-2.4-5.21-5.2-11.81-9.02-19.18-10.82l-2.91,26.05c-.1.85-.82,1.49-1.67,1.49h-10.15c-.85,0-1.58-.64-1.67-1.49l-2.91-26.05c-8.65,2.11-16.25,7.01-21.77,13.66.09.17.17.35.23.53l9.02,22.98c.31.81-.03,1.72-.8,2.11l-6.33,3.19c-.23.12-.49.18-.75.18-.56,0-1.11-.28-1.42-.78l-7.98-12.68c-.88,3.34-1.36,6.85-1.36,10.47v6.9h-2.93c-1.84,0-3.52.76-4.74,1.97-1.22,1.22-1.97,2.9-1.97,4.74,0,3.69,3.02,6.71,6.71,6.71,11.78,2.69,27.14,5.06,45.13,4.97,17.12-.08,31.79-2.37,43.2-4.97.57-.02,2.91-.14,4.74-1.97,1.22-1.22,1.97-2.9,1.97-4.74,0-3.69-3.02-6.71-6.71-6.71Z"></path><path class="cls-3" d="M297.96,370.42l2.77,24.85h7.14l2.78-24.85.37-3.32c.09-.8-.16-1.59-.7-2.19-.54-.6-1.29-.94-2.09-.94h-7.85c-.82,0-1.55.34-2.1.94-.54.6-.78,1.39-.69,2.19l.37,3.32Z"></path><path class="cls-3" d="M266.22,396.13l8.65,13.75,3.6-1.81-7.93-20.18-.54-1.39c-.26-.66-.76-1.19-1.34-1.41-.13-.06-.32-.1-.51-.1-.16,0-.31.03-.47.11l-4.9,2.47c-.36.18-.51.53-.59.79-.16.59-.03,1.31.35,1.91l3.68,5.85Z"></path><path class="cls-3" d="M333.67,409.84l8.72-13.73,3.71-5.84c.36-.57.48-1.25.31-1.84-.08-.3-.27-.7-.7-.92l-5.13-2.59c-.44-.22-.87-.13-1.16-.02-.56.22-1.05.73-1.29,1.35l-.44,1.12-7.94,20.49,3.91,1.98Z"></path></g><g><path class="cls-3" d="M141.06,409.96c-.67,1.92-5.19-3.58-11.95-4.61-6.76-1.68-15.76,1.1-25.4,4.61-9.63,3.73-18.09,1.61-23.96-4.3-5.87-5.49-9.17-14.76-8.49-15.62.67-1.92,5.19,3.58,11.95,4.62,6.76,1.68,15.76-1.1,25.39-4.61,9.64-3.73,18.09-1.61,23.96,4.3,5.87,5.49,9.16,14.76,8.49,15.62"></path><path class="cls-3" d="M135.44,388.25c-.68,1.92-5.19-3.58-11.95-4.62-6.76-1.68-15.76,1.1-25.4,4.61-9.63,3.73-18.09,1.61-23.96-4.29-5.87-5.49-9.17-14.76-8.49-15.62.67-1.92,5.19,3.58,11.95,4.62,6.76,1.68,15.76-1.1,25.39-4.61,9.64-3.73,18.09-1.61,23.96,4.3,5.87,5.49,9.17,14.76,8.49,15.62"></path></g><g><g><path class="cls-3" d="M341.06,209.96c-.67,1.92-5.19-3.58-11.95-4.61-6.76-1.68-15.76,1.1-25.4,4.61-9.63,3.73-18.09,1.61-23.96-4.3-5.87-5.49-9.17-14.76-8.49-15.62.67-1.92,5.19,3.58,11.95,4.62,6.76,1.68,15.76-1.1,25.39-4.61,9.64-3.73,18.09-1.61,23.96,4.3,5.87,5.49,9.16,14.76,8.49,15.62"></path><path class="cls-3" d="M346.05,231.67c-.68,1.92-5.2-3.58-11.96-4.61-6.76-1.68-15.76,1.1-25.39,4.61-9.64,3.73-18.09,1.61-23.96-4.3-5.87-5.49-9.17-14.76-8.49-15.62.67-1.92,5.19,3.58,11.95,4.61,6.76,1.68,15.76-1.1,25.4-4.61,9.63-3.73,18.09-1.61,23.96,4.29,5.87,5.49,9.17,14.76,8.49,15.62"></path><path class="cls-3" d="M335.44,188.25c-.68,1.92-5.19-3.58-11.95-4.62-6.76-1.68-15.76,1.1-25.4,4.61-9.63,3.73-18.09,1.61-23.96-4.29-5.87-5.49-9.17-14.76-8.49-15.62.67-1.92,5.19,3.58,11.95,4.62,6.76,1.68,15.76-1.1,25.39-4.61,9.64-3.73,18.09-1.61,23.96,4.3,5.87,5.49,9.17,14.76,8.49,15.62"></path></g><g><path class="cls-3" d="M148.9,217.64h-3.78v-6.9c0-3.62-.48-7.14-1.39-10.5l-8.05,12.67c-.31.5-.86.78-1.41.78-.26,0-.51-.06-.76-.18l-6.63-3.35c-.76-.38-1.12-1.3-.8-2.1l8.92-23.03c.09-.25.2-.48.34-.7-.69-.83-1.43-1.63-2.2-2.4-5.21-5.2-11.81-9.02-19.18-10.82l-2.91,26.05c-.1.85-.82,1.49-1.67,1.49h-10.15c-.85,0-1.58-.64-1.67-1.49l-2.91-26.05c-8.65,2.11-16.25,7.01-21.77,13.66.09.17.17.35.23.53l9.02,22.98c.31.81-.03,1.72-.8,2.11l-6.33,3.19c-.23.12-.49.18-.75.18-.56,0-1.11-.28-1.42-.78l-7.98-12.68c-.88,3.34-1.36,6.85-1.36,10.47v6.9h-2.93c-1.84,0-3.52.76-4.74,1.97-1.22,1.22-1.97,2.9-1.97,4.74,0,3.69,3.02,6.71,6.71,6.71,11.78,2.69,27.14,5.06,45.13,4.97,17.12-.08,31.79-2.37,43.2-4.97.57-.02,2.91-.14,4.74-1.97,1.22-1.22,1.97-2.9,1.97-4.74,0-3.69-3.02-6.71-6.71-6.71Z"></path><path class="cls-3" d="M97.96,170.42l2.77,24.85h7.14l2.78-24.85.37-3.32c.09-.8-.16-1.59-.7-2.19-.54-.6-1.29-.94-2.09-.94h-7.85c-.82,0-1.55.34-2.1.94-.54.6-.78,1.39-.69,2.19l.37,3.32Z"></path><path class="cls-3" d="M66.22,196.13l8.65,13.75,3.6-1.81-7.93-20.18-.54-1.39c-.26-.66-.76-1.19-1.34-1.41-.13-.06-.32-.1-.51-.1-.16,0-.31.03-.47.11l-4.9,2.47c-.36.18-.51.53-.59.79-.16.59-.03,1.31.35,1.91l3.68,5.85Z"></path><path class="cls-3" d="M133.67,209.84l8.72-13.73,3.71-5.84c.36-.57.48-1.25.31-1.84-.08-.3-.27-.7-.7-.92l-5.13-2.59c-.44-.22-.87-.13-1.16-.02-.56.22-1.05.73-1.29,1.35l-.44,1.12-7.94,20.49,3.91,1.98Z"></path></g></g><g><path class="cls-3" d="M348.9,17.64h-3.78v-6.9c0-3.62-.48-7.14-1.39-10.5l-8.05,12.67c-.31.5-.86.78-1.41.78-.26,0-.51-.06-.76-.18l-6.63-3.35c-.76-.38-1.12-1.3-.8-2.1l8.92-23.03c.09-.25.2-.48.34-.7-.69-.83-1.43-1.63-2.2-2.4-5.21-5.2-11.81-9.02-19.18-10.82l-2.91,26.05c-.1.85-.82,1.49-1.67,1.49h-10.15c-.85,0-1.58-.64-1.67-1.49l-2.91-26.05c-8.65,2.11-16.25,7.01-21.77,13.66.09.17.17.35.23.53l9.02,22.98c.31.81-.03,1.72-.8,2.11l-6.33,3.19c-.23.12-.49.18-.75.18-.56,0-1.11-.28-1.42-.78l-7.98-12.68c-.88,3.34-1.36,6.85-1.36,10.47v6.9h-2.93c-1.84,0-3.52.76-4.74,1.97-1.22,1.22-1.97,2.9-1.97,4.74,0,3.69,3.02,6.71,6.71,6.71,11.78,2.69,27.14,5.06,45.13,4.97,17.12-.08,31.79-2.37,43.2-4.97.57-.02,2.91-.14,4.74-1.97,1.22-1.22,1.97-2.9,1.97-4.74,0-3.69-3.02-6.71-6.71-6.71Z"></path><path class="cls-3" d="M266.22-3.87l8.65,13.75,3.6-1.81-7.93-20.18-.54-1.39c-.26-.66-.76-1.19-1.34-1.41-.13-.06-.32-.1-.51-.1-.16,0-.31.03-.47.11l-4.9,2.47c-.36.18-.51.53-.59.79-.16.59-.03,1.31.35,1.91l3.68,5.85Z"></path><path class="cls-3" d="M333.67,9.84l8.72-13.73,3.71-5.84c.36-.57.48-1.25.31-1.84-.08-.3-.27-.7-.7-.92l-5.13-2.59c-.44-.22-.87-.13-1.16-.02-.56.22-1.05.73-1.29,1.35l-.44,1.12-7.94,20.49,3.91,1.98Z"></path></g><g><path class="cls-3" d="M141.06,9.96c-.67,1.92-5.19-3.58-11.95-4.61-6.76-1.68-15.76,1.1-25.4,4.61-9.63,3.73-18.09,1.61-23.96-4.3-5.87-5.49-9.17-14.76-8.49-15.62.67-1.92,5.19,3.58,11.95,4.62,6.76,1.68,15.76-1.1,25.39-4.61,9.64-3.73,18.09-1.61,23.96,4.3,5.87,5.49,9.16,14.76,8.49,15.62"></path><path class="cls-3" d="M146.05,31.67c-.68,1.92-5.2-3.58-11.96-4.61-6.76-1.68-15.76,1.1-25.39,4.61-9.64,3.73-18.09,1.61-23.96-4.3-5.87-5.49-9.17-14.76-8.49-15.62.67-1.92,5.19,3.58,11.95,4.61,6.76,1.68,15.76-1.1,25.4-4.61,9.63-3.73,18.09-1.61,23.96,4.29,5.87,5.49,9.17,14.76,8.49,15.62"></path></g></g></pattern></defs><rect class="cls-1" width="1950" height="704"></rect></svg>