<svg id="Layer_1" data-name="Layer 1" xmlns="http://www.w3.org/2000/svg" viewBox="0 0 200 200"><defs><style>.cls-1{fill:#3f4f76;fill-rule:evenodd;}</style></defs><path class="cls-1" d="M108.58,48.61v134.5a2.25,2.25,0,0,0,2.25,2.25h0a2.26,2.26,0,0,0,2.26-2.25V43.19a2.26,2.26,0,0,0-2.26-2.25H82a2.26,2.26,0,0,1-2.26-2.26V4.26A2.26,2.26,0,0,1,82,2h94.78A2.26,2.26,0,0,1,179,4.26V183.11a2.26,2.26,0,0,0,2.26,2.25h1.35c8.13,0,8.13,12.64,0,12.64H17.41c-8.13,0-8.13-12.64,0-12.64h1.35A2.26,2.26,0,0,0,21,183.11V48.61a2.26,2.26,0,0,1,2.25-2.26h83.05A2.26,2.26,0,0,1,108.58,48.61ZM53.08,94.68h6.4a4.26,4.26,0,0,1,4.25,4.25V104a2.12,2.12,0,0,1-2,2H55.34a4.25,4.25,0,0,1-4.25-4.25V96.67A2.12,2.12,0,0,1,53.08,94.68Zm0,16.63h6.4a4.27,4.27,0,0,1,4.25,4.26v5.06a2.13,2.13,0,0,1-2,2H55.34a4.25,4.25,0,0,1-4.25-4.25v-5.07A2.13,2.13,0,0,1,53.08,111.31Zm0,16.64h6.4a4.27,4.27,0,0,1,4.25,4.26v5.06a2.13,2.13,0,0,1-2,2H55.34A4.25,4.25,0,0,1,51.09,135V130A2.12,2.12,0,0,1,53.08,128ZM56,144.59h5.72a3,3,0,0,1,2,2.66v6.66a2.12,2.12,0,0,1-2,2H55.34a4.25,4.25,0,0,1-4.25-4.25v-2.14A4.93,4.93,0,0,1,56,144.59ZM69.72,94.68h6.4a4.27,4.27,0,0,1,4.25,4.25V104a2.12,2.12,0,0,1-2,2H72a4.25,4.25,0,0,1-4.26-4.25V96.67A2.13,2.13,0,0,1,69.72,94.68Zm0,16.63h6.4a4.27,4.27,0,0,1,4.25,4.26v5.06a2.13,2.13,0,0,1-2,2H72a4.26,4.26,0,0,1-4.26-4.25v-5.07A2.14,2.14,0,0,1,69.72,111.31Zm0,16.64h6.4a4.27,4.27,0,0,1,4.25,4.26v5.06a2.13,2.13,0,0,1-2,2H72A4.26,4.26,0,0,1,67.72,135V130A2.13,2.13,0,0,1,69.72,128Zm2.92,16.64h5.73a3,3,0,0,1,2,2.66v6.66a2.12,2.12,0,0,1-2,2H72a4.25,4.25,0,0,1-4.26-4.25v-2.14A4.94,4.94,0,0,1,72.64,144.59ZM86.36,94.68h6.39A4.27,4.27,0,0,1,97,98.93V104a2.13,2.13,0,0,1-2,2h-6.4a4.25,4.25,0,0,1-4.25-4.25V96.67A2.13,2.13,0,0,1,86.36,94.68Zm0,16.63h6.39A4.28,4.28,0,0,1,97,115.57v5.06a2.14,2.14,0,0,1-2,2h-6.4a4.26,4.26,0,0,1-4.25-4.25v-5.07A2.14,2.14,0,0,1,86.36,111.31Zm0,16.64h6.39A4.28,4.28,0,0,1,97,132.21v5.06a2.14,2.14,0,0,1-2,2h-6.4A4.26,4.26,0,0,1,84.36,135V130A2.13,2.13,0,0,1,86.36,128Zm2.92,16.64H95a3,3,0,0,1,2,2.66v6.66a2.13,2.13,0,0,1-2,2h-6.4a4.25,4.25,0,0,1-4.25-4.25v-2.14A4.93,4.93,0,0,1,89.28,144.59Z"/></svg>