<?xml version="1.0" encoding="UTF-8"?>
<svg id="Layer_1" xmlns="http://www.w3.org/2000/svg" version="1.1" viewBox="0 0 1080 1080">
  <!-- Generator: Adobe Illustrator 29.7.1, SVG Export Plug-In . SVG Version: 2.1.1 Build 8)  -->
  <defs>
    <style>
      .st0 {
        fill: #252a2e;
      }

      .st1 {
        font-family: ProximaNova-Bold, 'Proxima Nova';
        font-size: 25.4px;
        font-weight: 700;
        letter-spacing: 0em;
      }

      .st1, .st2, .st3 {
        fill: #231f20;
      }

      .st4 {
        fill: #338ccc;
      }

      .st5 {
        fill: #d2e8c3;
      }

      .st2 {
        font-size: 21.1px;
        letter-spacing: 0em;
      }

      .st2, .st3 {
        font-family: ProximaNova-Semibold, 'Proxima Nova';
        font-weight: 600;
      }

      .st6 {
        fill: #fff;
      }

      .st7 {
        fill: #bbd154;
      }

      .st8 {
        fill: #d8e9f3;
      }

      .st9 {
        fill: #3a9d69;
      }

      .st3 {
        font-size: 20.8px;
        letter-spacing: 0em;
      }

      .st10 {
        fill: #f7f189;
      }

      .st11 {
        fill: #cb2127;
      }
    </style>
  </defs>
  <g>
    <rect class="st5" y="228.7" width="380.3" height="270.4" rx="14.3" ry="14.3"/>
    <g>
      <text class="st1" transform="translate(26.4 300.8)"><tspan x="0" y="0">Ideal</tspan></text>
      <text class="st2" transform="translate(26.4 341.2)"><tspan x="0" y="0">Using desktop or laptop with </tspan><tspan x="0" y="25.4">camera on, speakers and </tspan><tspan x="0" y="50.7">headphone. No additional </tspan><tspan x="0" y="76.1">devices needed during class </tspan><tspan x="0" y="101.4">and exam.</tspan></text>
    </g>
  </g>
  <rect class="st8" y="570.4" width="380.3" height="270.4" rx="14.3" ry="14.3"/>
  <path class="st0" d="M791,296.8v-14.7c0-25.7-20.9-46.5-46.5-46.5s-46.5,20.9-46.5,46.5v15.1c-1.7,1.2-2.8,3.1-2.8,5.3v7.1c0,3.6,2.9,6.5,6.5,6.5h1.7c.3,0,.5,0,.8,0v7.7c0,5.7,4.7,10.4,10.4,10.4s10.4-4.7,10.4-10.4v-35.4c0-5.7-4.7-10.4-10.4-10.4s-8.2,2.8-9.7,6.7v-2.6c0-21.8,17.8-39.6,39.6-39.6s39.6,17.8,39.6,39.6v1.1c-1.8-3.1-5.2-5.3-9-5.3-5.7,0-10.4,4.7-10.4,10.4v35.4c0,5.7,4.7,10.4,10.4,10.4s10.4-4.7,10.4-10.4v-7.7c.3,0,.5,0,.8,0h1.7c3.6,0,6.5-2.9,6.5-6.5v-7.1c0-2.5-1.4-4.7-3.5-5.8Z"/>
  <path class="st0" d="M925.8,263.7h-.7c-2.5,0-4.6,2.1-4.6,4.6v2.7c0,2.5,2.1,4.6,4.6,4.6h.7c.2,0,.4,0,.6,0v7c0,1.1.9,1.9,1.9,2v7.6c0,6.7-5.5,12.2-12.2,12.2s-12.2-5.5-12.2-12.2v-7.6c0,0,.1,0,.2,0,1.1,0,2-.9,2-2v-7c.2,0,.4,0,.6,0h.7c2.5,0,4.6-2.1,4.6-4.6v-2.7c0-2.5-2.1-4.6-4.6-4.6h-.7c-2.5,0-4.6,2.1-4.6,4.6v14.2c0,.5.2,1,.6,1.4v8.1c0,7.2,5.7,13,12.8,13.3v10.1c0,3.8-3.1,7-7,7h-50.1c-4.5,0-8.1,3.6-8.1,8.1s3.6,8.1,8.1,8.1h50.1c3.8,0,7,3.1,7,7v2c0,3.8-3.1,7-7,7h-111.7c-.3-.9-1.2-1.6-2.2-1.6h-15.3c-1,0-1.9.7-2.2,1.6h-1.9c-.3,0-.6.3-.6.6s.3.6.6.6h1.8c.2,1.1,1.2,2,2.3,2h15.3c1.2,0,2.1-.8,2.3-2h111.6c4.5,0,8.1-3.6,8.1-8.1v-2c0-4.5-3.6-8.1-8.1-8.1h-50.1c-3.8,0-7-3.1-7-7s3.1-7,7-7h50.1c4.5,0,8.1-3.6,8.1-8.1v-10.1c7.1-.3,12.8-6.2,12.8-13.3v-7.9c.5-.4.8-.9.8-1.6v-14.2c0-2.5-2.1-4.6-4.6-4.6Z"/>
  <path class="st0" d="M675.9,771.2h-.6c-2.1,0-3.7,1.7-3.7,3.7v2.2c0,2.1,1.7,3.7,3.7,3.7h.6c.2,0,.3,0,.5,0v5.7c0,.9.7,1.6,1.6,1.6v6.2c0,5.5-4.5,10-10,10s-10-4.5-10-10v-6.2c0,0,.1,0,.2,0,.9,0,1.6-.7,1.6-1.6v-5.7c.2,0,.3,0,.5,0h.6c2.1,0,3.7-1.7,3.7-3.7v-2.2c0-2.1-1.7-3.7-3.7-3.7h-.6c-2.1,0-3.7,1.7-3.7,3.7v11.6c0,.4.2.9.5,1.1v6.7c0,5.9,4.7,10.7,10.5,10.9v8.3c0,3.1-2.6,5.7-5.7,5.7h-41c-3.7,0-6.7,3-6.7,6.7s3,6.7,6.7,6.7h41c3.1,0,5.7,2.6,5.7,5.7v1.7c0,3.1-2.6,5.7-5.7,5.7h-91.4c-.3-.8-1-1.3-1.8-1.3h-12.5c-.8,0-1.5.5-1.8,1.3h-1.6c-.3,0-.5.2-.5.5s.2.5.5.5h1.5c.2.9.9,1.6,1.9,1.6h12.5c.9,0,1.7-.7,1.9-1.6h91.4c3.7,0,6.7-3,6.7-6.7v-1.7c0-3.7-3-6.7-6.7-6.7h-41c-3.1,0-5.7-2.6-5.7-5.7s2.6-5.7,5.7-5.7h41c3.7,0,6.7-3,6.7-6.7v-8.3c5.8-.3,10.5-5.1,10.5-10.9v-6.5c.4-.3.7-.8.7-1.3v-11.6c0-2.1-1.7-3.7-3.7-3.7Z"/>
  <g>
    <g>
      <g>
        <rect class="st0" x="442.4" y="317.7" width="100.7" height="60.6"/>
        <path class="st0" d="M339.9,317.7v60.6h99.6v-60.6h-99.6ZM348.2,258.6c-4.6,0-8.3,3.7-8.3,8.3v48h99.6v-56.3h-91.3ZM339.9,381v60.3h99.6v-60.3h-99.6ZM442.4,258.6v56.3h100.7v-56.3h-100.7ZM491.8,245.8c-2.5,0-4.6,2-4.6,4.6s0,.7.1,1.1c.3,1.2,1,2.2,2,2.8.7.4,1.5.7,2.4.7s1.7-.3,2.4-.7c1-.6,1.7-1.6,2-2.8,0-.3.1-.7.1-1.1,0-2.5-2-4.6-4.6-4.6ZM512.1,456.3h-40.6c-1.4,0-2.6.6-3.5,1.5-.9.9-1.5,2.1-1.5,3.5,0,2.7,2.2,5,5,5h40.6c1.4,0,2.6-.6,3.5-1.5s1.5-2.1,1.5-3.5c0-2.7-2.2-5-5-5ZM442.4,381v60.6h100.7v-60.6h-100.7ZM545.9,317.7v60.6h97.8v-60.6h-97.8ZM545.9,381v60.3h97.8v-60.3h-97.8ZM635.5,258.6h-89.6v56.3h97.8v-48c0-4.6-3.7-8.3-8.3-8.3Z"/>
        <path class="st9" d="M439.6,258.6v56.3h-99.6v-48c0-4.6,3.7-8.3,8.3-8.3h91.3Z"/>
        <rect class="st9" x="339.9" y="317.7" width="99.6" height="60.6"/>
        <rect class="st9" x="339.9" y="381" width="99.6" height="60.3"/>
        <rect class="st9" x="442.4" y="258.6" width="100.7" height="56.3"/>
        <rect class="st9" x="442.4" y="317.7" width="100.7" height="60.6"/>
        <rect class="st9" x="442.4" y="381" width="100.7" height="60.3"/>
        <path class="st9" d="M643.8,266.8v48h-97.8v-56.3h89.6c4.6,0,8.3,3.7,8.3,8.3Z"/>
        <rect class="st9" x="545.9" y="317.7" width="97.8" height="60.6"/>
        <rect class="st9" x="545.9" y="381" width="97.8" height="60.3"/>
        <path class="st6" d="M517.1,461.3c0,1.4-.6,2.6-1.5,3.5s-2.1,1.5-3.5,1.5h-40.6c-2.7,0-5-2.2-5-5s.6-2.6,1.5-3.5c.9-.9,2.1-1.5,3.5-1.5h40.6c2.7,0,5,2.2,5,5Z"/>
      </g>
      <g>
        <g>
          <g>
            <circle class="st6" cx="394.4" cy="276.9" r="14.2"/>
            <path class="st6" d="M415.6,311.4v3.5h-42.3v-3.5c0-8.9,7.2-16.2,16.2-16.2h10c8.9,0,16.2,7.2,16.2,16.2Z"/>
          </g>
          <g>
            <circle class="st6" cx="493.5" cy="276.9" r="14.2"/>
            <path class="st6" d="M514.7,311.4v3.5h-42.3v-3.5c0-8.9,7.2-16.2,16.2-16.2h10c8.9,0,16.2,7.2,16.2,16.2Z"/>
          </g>
          <g>
            <circle class="st6" cx="592.6" cy="276.9" r="14.2"/>
            <path class="st6" d="M613.7,311.4v3.5h-42.3v-3.5c0-8.9,7.2-16.2,16.2-16.2h10c8.9,0,16.2,7.2,16.2,16.2Z"/>
          </g>
        </g>
        <g>
          <g>
            <circle class="st6" cx="394.4" cy="401.6" r="14.2"/>
            <path class="st6" d="M385.6,419.9h17.7c6.8,0,12.3,5.5,12.3,12.3v8.9h-42.3v-8.9c0-6.8,5.5-12.3,12.3-12.3Z"/>
          </g>
          <g>
            <circle class="st6" cx="493.5" cy="401.6" r="14.2"/>
            <path class="st6" d="M514.7,441h-42.3v-5c0-8.9,7.2-16.2,16.2-16.2h10c8.9,0,16.2,7.2,16.2,16.2v5Z"/>
          </g>
          <g>
            <circle class="st6" cx="592.6" cy="401.6" r="14.2"/>
            <path class="st6" d="M613.7,441h-42.3v-5c0-8.9,7.2-16.2,16.2-16.2h10c8.9,0,16.2,7.2,16.2,16.2v5Z"/>
          </g>
        </g>
        <g>
          <g>
            <circle class="st6" cx="394.4" cy="341" r="14.2"/>
            <path class="st6" d="M415.6,375.5v2.8h-42.3v-2.8c0-8.9,7.2-16.2,16.2-16.2h10c8.9,0,16.2,7.2,16.2,16.2Z"/>
          </g>
          <g>
            <circle class="st7" cx="493.5" cy="341" r="14.2"/>
            <path class="st7" d="M514.7,375.5v2.8h-42.3v-2.8c0-8.9,7.2-16.2,16.2-16.2h10c8.9,0,16.2,7.2,16.2,16.2Z"/>
          </g>
          <g>
            <circle class="st6" cx="592.6" cy="341" r="14.2"/>
            <path class="st6" d="M613.7,375.5v2.8h-42.3v-2.8c0-8.9,7.2-16.2,16.2-16.2h10c8.9,0,16.2,7.2,16.2,16.2Z"/>
          </g>
        </g>
      </g>
      <path class="st0" d="M487.4,251.5c.3,1.2,1,2.2,2,2.8h4.9c1-.6,1.7-1.6,2-2.8h-8.9Z"/>
      <path class="st0" d="M639.1,243.2h-294.4c-12.2,0-22.1,9.9-22.1,22.1v197.6c0,12.2,9.9,22.1,22.1,22.1h89.1l-7.6,43.5h-21.2c-4.1,0-7.5,3.4-7.5,7.5s3.4,7.5,7.5,7.5h173.9c4.1,0,7.5-3.4,7.5-7.5s-3.4-7.5-7.5-7.5h-21.2l-7.6-43.5h89.1c12.2,0,22.1-9.9,22.1-22.1v-197.6c0-12.2-9.9-22.1-22.1-22.1ZM545.9,258.6h89.6c4.6,0,8.3,3.7,8.3,8.3v48h-97.8v-56.3ZM545.9,317.7h97.8v60.6h-97.8v-60.6ZM545.9,381h97.8v60.3h-97.8v-60.3ZM491.8,245.8c2.5,0,4.6,2,4.6,4.6s0,.7-.1,1.1c-.3,1.2-1,2.2-2,2.8-.7.4-1.5.7-2.4.7s-1.7-.3-2.4-.7c-1-.6-1.7-1.6-2-2.8,0-.3-.1-.7-.1-1.1,0-2.5,2-4.6,4.6-4.6ZM439.6,441.3h-99.6v-60.3h99.6v60.3ZM439.6,378.2h-99.6v-60.6h99.6v60.6ZM439.6,314.8h-99.6v-48c0-4.6,3.7-8.3,8.3-8.3h91.3v56.3ZM515.6,464.8c-.9.9-2.1,1.5-3.5,1.5h-40.6c-2.7,0-5-2.2-5-5s.6-2.6,1.5-3.5c.9-.9,2.1-1.5,3.5-1.5h40.6c2.7,0,5,2.2,5,5s-.6,2.6-1.5,3.5ZM543.1,441.6h-100.7v-60.6h100.7v60.6ZM543.1,378.2h-100.7v-60.6h100.7v60.6ZM543.1,314.8h-100.7v-56.3h100.7v56.3Z"/>
    </g>
    <path class="st6" d="M496.4,250.4c0,.4,0,.7-.1,1.1-.3,1.2-1,2.2-2,2.8-.7.4-1.5.7-2.4.7s-1.7-.3-2.4-.7c-1-.6-1.7-1.6-2-2.8,0-.3-.1-.7-.1-1.1,0-2.5,2-4.6,4.6-4.6s4.6,2,4.6,4.6Z"/>
  </g>
  <g>
    <g>
      <rect class="st0" x="734.7" y="385.7" width="59.5" height="34.5"/>
      <rect class="st0" x="734.7" y="422.3" width="59.5" height="34.5"/>
      <rect class="st0" x="734.7" y="458.9" width="59.5" height="34.5"/>
      <rect class="st0" x="796.4" y="385.7" width="59.6" height="34.5"/>
      <rect class="st0" x="796.4" y="422.3" width="59.6" height="34.5"/>
      <rect class="st0" x="796.4" y="458.9" width="59.6" height="34.5"/>
      <rect class="st0" x="858.1" y="385.7" width="59.5" height="34.5"/>
      <rect class="st0" x="858.1" y="422.3" width="59.5" height="34.5"/>
      <rect class="st0" x="858.1" y="458.9" width="59.5" height="34.5"/>
      <path class="st0" d="M826.5,377.5c-1.8,0-3.2,1.4-3.2,3.2s.8,2.5,2,2.9c.4.1.8.2,1.2.2s.8,0,1.2-.2c1.2-.5,2-1.6,2-2.9s-1.4-3.2-3.2-3.2ZM856.4,521.9h-60.6c-1.4,0-2.6.6-3.5,1.5-.9.9-1.5,2.1-1.5,3.5,0,2.7,2.2,4.9,4.9,4.9h60.6c1.4,0,2.6-.6,3.5-1.5.9-.9,1.5-2.1,1.5-3.5,0-2.7-2.2-4.9-4.9-4.9Z"/>
      <path class="st6" d="M861.4,526.8c0,1.4-.6,2.6-1.5,3.5-.9.9-2.1,1.5-3.5,1.5h-60.6c-2.7,0-4.9-2.2-4.9-4.9s.6-2.6,1.5-3.5c.9-.9,2.1-1.5,3.5-1.5h60.6c2.7,0,4.9,2.2,4.9,4.9Z"/>
      <rect class="st9" x="734.7" y="385.7" width="59.5" height="34.5"/>
      <rect class="st9" x="734.7" y="422.3" width="59.5" height="34.5"/>
      <rect class="st9" x="734.7" y="458.9" width="59.5" height="34.5"/>
      <rect class="st9" x="796.4" y="385.7" width="59.6" height="34.5"/>
      <rect class="st9" x="796.4" y="422.3" width="59.6" height="34.5"/>
      <rect class="st9" x="796.4" y="458.9" width="59.6" height="34.5"/>
      <rect class="st9" x="858.1" y="385.7" width="59.5" height="34.5"/>
      <rect class="st9" x="858.1" y="422.3" width="59.5" height="34.5"/>
      <rect class="st9" x="858.1" y="458.9" width="59.5" height="34.5"/>
      <g>
        <g>
          <g>
            <circle class="st6" cx="764.3" cy="398.6" r="8"/>
            <path class="st6" d="M776.2,418v2.2h-23.8v-2.2c0-5,4.1-9.1,9.1-9.1h5.6c5,0,9.1,4.1,9.1,9.1Z"/>
          </g>
          <g>
            <circle class="st6" cx="826.6" cy="398.6" r="8"/>
            <path class="st6" d="M838.5,418v2.2h-23.8v-2.2c0-5,4.1-9.1,9.1-9.1h5.6c5,0,9.1,4.1,9.1,9.1Z"/>
          </g>
          <g>
            <circle class="st6" cx="888.3" cy="398.6" r="8"/>
            <path class="st6" d="M900.2,418v2.2h-23.8v-2.2c0-5,4.1-9.1,9.1-9.1h5.6c5,0,9.1,4.1,9.1,9.1Z"/>
          </g>
          <g>
            <circle class="st6" cx="764.3" cy="434.8" r="8"/>
            <path class="st6" d="M776.2,454.2v2.6h-23.8v-2.6c0-5,4.1-9.1,9.1-9.1h5.6c5,0,9.1,4.1,9.1,9.1Z"/>
          </g>
          <g>
            <circle class="st7" cx="826.6" cy="434.8" r="8"/>
            <path class="st7" d="M838.5,454.2v2.6h-23.8v-2.6c0-5,4.1-9.1,9.1-9.1h5.6c5,0,9.1,4.1,9.1,9.1Z"/>
          </g>
          <g>
            <circle class="st6" cx="888.3" cy="434.8" r="8"/>
            <path class="st6" d="M900.2,454.2v2.6h-23.8v-2.6c0-5,4.1-9.1,9.1-9.1h5.6c5,0,9.1,4.1,9.1,9.1Z"/>
          </g>
          <g>
            <circle class="st6" cx="764.3" cy="471.4" r="8"/>
            <path class="st6" d="M776.2,490.8v2.6h-23.8v-2.6c0-5,4.1-9.1,9.1-9.1h5.6c5,0,9.1,4.1,9.1,9.1Z"/>
          </g>
          <g>
            <circle class="st6" cx="826.6" cy="471.4" r="8"/>
            <path class="st6" d="M838.5,490.8v2.6h-23.8v-2.6c0-5,4.1-9.1,9.1-9.1h5.6c5,0,9.1,4.1,9.1,9.1Z"/>
          </g>
          <g>
            <circle class="st6" cx="888.3" cy="471.4" r="8"/>
            <path class="st6" d="M900.2,490.8v2.6h-23.8v-2.6c0-5,4.1-9.1,9.1-9.1h5.6c5,0,9.1,4.1,9.1,9.1Z"/>
          </g>
        </g>
        <path class="st0" d="M825.3,383.6c.4.1.8.2,1.2.2s.8,0,1.2-.2h-2.4Z"/>
        <path class="st0" d="M964.1,535.4l-35.1-35.3h0v-118.6c0-3.3-2.7-6.1-6.1-6.1h-193.4c-3.3,0-6.1,2.7-6.1,6.1v118.6h0l-35.1,35.3c-2.8,2.8-.8,7.7,3.2,7.7h269.4c4,0,6-4.8,3.2-7.7ZM826.5,377.5c1.8,0,3.2,1.4,3.2,3.2s-.8,2.5-2,2.9c-.4.1-.8.2-1.2.2s-.8,0-1.2-.2c-1.2-.5-2-1.6-2-2.9s1.4-3.2,3.2-3.2ZM796.4,385.7h59.6v34.5h-59.6v-34.5ZM796.4,422.3h59.6v34.5h-59.6v-34.5ZM796.4,458.9h59.6v34.5h-59.6v-34.5ZM734.7,385.7h59.5v34.5h-59.5v-34.5ZM734.7,422.3h59.5v34.5h-59.5v-34.5ZM734.7,493.4v-34.5h59.5v34.5h-59.5ZM859.9,530.3c-.9.9-2.1,1.5-3.5,1.5h-60.6c-2.7,0-4.9-2.2-4.9-4.9s.6-2.6,1.5-3.5c.9-.9,2.1-1.5,3.5-1.5h60.6c2.7,0,4.9,2.2,4.9,4.9s-.6,2.6-1.5,3.5ZM917.6,493.4h-59.5v-34.5h59.5v34.5ZM917.6,456.8h-59.5v-34.5h59.5v34.5ZM917.6,420.2h-59.5v-34.5h59.5v34.5Z"/>
      </g>
    </g>
    <path class="st6" d="M829.6,380.7c0,1.3-.8,2.5-2,2.9-.4.1-.8.2-1.2.2s-.8,0-1.2-.2c-1.2-.5-2-1.6-2-2.9s1.4-3.2,3.2-3.2,3.2,1.4,3.2,3.2Z"/>
  </g>
  <g>
    <rect class="st9" x="490.2" y="208.5" width="3.5" height="24.6" rx="1.3" ry="1.3"/>
    <rect class="st9" x="507.8" y="214.8" width="3.5" height="24.6" rx="1.3" ry="1.3" transform="translate(309.9 -293.8) rotate(45)"/>
    <rect class="st9" x="472.6" y="214.8" width="3.5" height="24.6" rx="1.3" ry="1.3" transform="translate(970.4 52.4) rotate(135)"/>
  </g>
  <g>
    <rect class="st9" x="965.5" y="470.1" width="3.5" height="24.6" rx="1.3" ry="1.3" transform="translate(1228.9 -566.3) rotate(77.5)"/>
    <rect class="st9" x="963.2" y="488.7" width="3.5" height="24.6" rx="1.3" ry="1.3" transform="translate(1905.9 -43.6) rotate(122.5)"/>
    <rect class="st9" x="955.5" y="454.3" width="3.5" height="24.6" rx="1.3" ry="1.3" transform="translate(1513.9 1374.5) rotate(-147.5)"/>
  </g>
  <g>
    <rect class="st0" x="320.2" y="636" width="178.2" height="235.9" rx="8" ry="8"/>
    <circle class="st6" cx="409.2" cy="859.9" r="5.6"/>
    <rect class="st6" x="334.8" y="650.8" width="149.3" height="197.9" rx="1.7" ry="1.7"/>
    <g>
      <g>
        <g>
          <rect class="st9" x="343.7" y="664.9" width="12" height="12" rx="1.9" ry="1.9"/>
          <rect class="st9" x="360.6" y="669.1" width="111.3" height="4.2" rx="1.6" ry="1.6"/>
        </g>
        <g>
          <rect class="st7" x="360.6" y="678.9" width="8.5" height="8.5" rx="3.2" ry="3.2"/>
          <rect class="st7" x="372.6" y="681.1" width="99.3" height="4.2" rx="1.6" ry="1.6"/>
        </g>
        <g>
          <rect class="st7" x="360.6" y="692.3" width="8.5" height="8.5" rx="3.2" ry="3.2"/>
          <rect class="st7" x="372.6" y="694.4" width="99.3" height="4.2" rx="1.6" ry="1.6"/>
        </g>
        <g>
          <rect class="st7" x="360.6" y="705.7" width="8.5" height="8.5" rx="3.2" ry="3.2"/>
          <rect class="st7" x="372.6" y="707.8" width="99.3" height="4.2" rx="1.6" ry="1.6"/>
        </g>
      </g>
      <g>
        <g>
          <rect class="st9" x="343.7" y="727.5" width="12" height="12" rx="1.9" ry="1.9"/>
          <rect class="st9" x="360.6" y="731.8" width="111.3" height="4.2" rx="1.6" ry="1.6"/>
        </g>
        <g>
          <rect class="st7" x="360.6" y="741.6" width="8.5" height="8.5" rx="3.2" ry="3.2"/>
          <rect class="st7" x="372.6" y="743.7" width="99.3" height="4.2" rx="1.6" ry="1.6"/>
        </g>
        <g>
          <rect class="st7" x="360.6" y="755" width="8.5" height="8.5" rx="3.2" ry="3.2"/>
          <rect class="st7" x="372.6" y="757.1" width="99.3" height="4.2" rx="1.6" ry="1.6"/>
        </g>
        <g>
          <rect class="st7" x="360.6" y="768.4" width="8.5" height="8.5" rx="3.2" ry="3.2"/>
          <rect class="st7" x="372.6" y="770.5" width="99.3" height="4.2" rx="1.6" ry="1.6"/>
        </g>
      </g>
      <g>
        <g>
          <rect class="st9" x="343.7" y="790.2" width="12" height="12" rx="1.9" ry="1.9"/>
          <rect class="st9" x="360.6" y="794.5" width="111.3" height="4.2" rx="1.6" ry="1.6"/>
        </g>
        <g>
          <rect class="st7" x="360.6" y="804.3" width="8.5" height="8.5" rx="3.2" ry="3.2"/>
          <rect class="st7" x="372.6" y="806.4" width="99.3" height="4.2" rx="1.6" ry="1.6"/>
        </g>
        <g>
          <rect class="st7" x="360.6" y="817.7" width="8.5" height="8.5" rx="3.2" ry="3.2"/>
          <rect class="st7" x="372.6" y="819.8" width="99.3" height="4.2" rx="1.6" ry="1.6"/>
        </g>
        <g>
          <rect class="st7" x="360.6" y="831.1" width="8.5" height="8.5" rx="3.2" ry="3.2"/>
          <rect class="st7" x="372.6" y="833.2" width="99.3" height="4.2" rx="1.6" ry="1.6"/>
        </g>
      </g>
    </g>
  </g>
  <g>
    <rect class="st0" x="551.3" y="636" width="94.1" height="162.7" rx="5.5" ry="5.5"/>
    <rect class="st9" x="559.2" y="646.4" width="78.3" height="131.9" rx="2.4" ry="2.4"/>
    <rect class="st6" x="588.9" y="640.4" width="18.9" height="3.5" rx="1.3" ry="1.3"/>
    <circle class="st6" cx="597.9" cy="788.1" r="6.2"/>
    <g>
      <circle class="st6" cx="598.4" cy="706.6" r="20.3"/>
      <path class="st6" d="M631.6,778.3h-66.5v-22.6c0-12.7,11.4-23.1,25.4-23.1h15.7c14,0,25.4,10.3,25.4,23.1v22.6Z"/>
    </g>
    <g>
      <g>
        <circle class="st0" cx="578.2" cy="763.3" r="8.4"/>
        <path class="st10" d="M583.3,761.2l-1.9.9v-.6c0-.4-.3-.7-.7-.7h-7c-.4,0-.7.3-.7.7v4.7c0,.4.3.7.7.7h7c.4,0,.7-.3.7-.7v-.6l1.9.9v-5.3Z"/>
      </g>
      <g>
        <circle class="st0" cx="598.4" cy="763.3" r="8.4"/>
        <g>
          <rect class="st10" x="596.4" y="757.1" width="4" height="7.4" rx="1.4" ry="1.4"/>
          <path class="st10" d="M601.7,762.7v-2.7c0-.2-.1-.3-.3-.3s-.3.1-.3.3v2.7c0,1.5-1.2,2.7-2.7,2.7s-2.7-1.2-2.7-2.7v-2.7c0-.2-.1-.3-.3-.3s-.3.1-.3.3v2.7c0,1.7,1.3,3.2,3,3.3,0,0,0,0,0,0v2.3h-2c-.2,0-.3.1-.3.3s.1.3.3.3h4.7c.2,0,.3-.1.3-.3s-.1-.3-.3-.3h-2v-2.3s0,0,0,0c1.7-.2,3-1.6,3-3.3Z"/>
        </g>
      </g>
      <g>
        <circle class="st0" cx="618.6" cy="763.3" r="8.4"/>
        <path class="st10" d="M613.3,759.9c0,0,0-.1,0-.2,0-.5.4-.8.7-1.1.3-.3.7-.4,1.1-.6.2,0,.4,0,.6,0,.2.2.4.3.5.5.5.6.9,1.2,1.2,1.9.1.3.1.6,0,.9,0,.1-.2.3-.3.4-.1.2-.1.3,0,.5.2.5.5.9.9,1.3.4.5.9.8,1.5,1.1.2.1.4,0,.6,0,.1-.1.3-.2.5-.3.2-.1.5-.2.7,0,.9.4,1.7.9,2.4,1.6,0,0,.1.1.2.2.1.2.2.3,0,.5-.2.6-.5,1.1-1,1.5-.3.2-.6.4-.9.4,0,0,0,0,0,0h-.3c0,0-.1,0-.2,0-.4,0-.9-.2-1.3-.4-1.8-.9-3.3-2.1-4.7-3.7-.6-.7-1.1-1.5-1.5-2.3-.2-.5-.5-.9-.6-1.4,0-.2,0-.3,0-.5,0,0,0-.2,0-.2Z"/>
      </g>
    </g>
    <g>
      <rect class="st0" x="606" y="653.6" width="28.1" height="30.8" rx="1.2" ry="1.2"/>
      <g>
        <circle class="st7" cx="620.2" cy="665" r="7"/>
        <path class="st7" d="M630.6,684.4h-20.8v-2.5c0-4.4,3.6-7.9,7.9-7.9h4.9c4.4,0,7.9,3.6,7.9,7.9v2.5Z"/>
      </g>
    </g>
  </g>
  <path class="st0" d="M526.1,741.6h-6v-13.9h-12.4v-5.4h12.4v-13.4h6v13.4h12.3v5.4h-12.3v13.9Z"/>
  <g>
    <text class="st2" transform="translate(26.4 671.4)"><tspan x="0" y="0">If you use tablet or phone </tspan><tspan x="0" y="25.4">for taking the exam, you </tspan><tspan x="0" y="50.7">will need an additional </tspan><tspan x="0" y="76.1">device with camera and </tspan><tspan x="0" y="101.4">speakers. This allows </tspan><tspan x="0" y="126.8">instructor to keep an eye </tspan><tspan x="0" y="152.1">on you.</tspan></text>
    <text class="st1" transform="translate(26.6 630.9)"><tspan x="0" y="0">Alternate</tspan></text>
  </g>
  <g>
    <g>
      <path class="st0" d="M793.1,636.1h224.7c4,0,7.2,3.2,7.2,7.2v23.7c0,4-3.2,7.2-7.2,7.2h-224.7v-38.1h0Z"/>
      <g>
        <path class="st11" d="M786.3,633l-22.5,39c-1.3,2.2.3,5,2.9,5h45.1c2.6,0,4.2-2.8,2.9-5l-22.5-39c-1.3-2.2-4.5-2.2-5.8,0Z"/>
        <path class="st6" d="M789.2,664.6c1.9,0,3.4,1.6,3.4,3.5s-1.5,3.4-3.4,3.4-3.4-1.6-3.4-3.4,1.5-3.5,3.4-3.5ZM785.9,642.5h6.5l-.8,19.3h-4.7l-.9-19.3Z"/>
      </g>
      <g>
        <path class="st6" d="M856.5,660.3h-7.4l-1,2.9h-3.9l6.4-16.7h4.4l6.4,16.7h-3.9l-1-2.9ZM850,657.2h5.5l-2.7-7.6-2.8,7.6Z"/>
        <path class="st6" d="M867.4,649.6h-4.9v-3.1h13.3v3.1h-4.8v13.5h-3.6v-13.5Z"/>
        <path class="st6" d="M882.6,649.6h-4.9v-3.1h13.3v3.1h-4.8v13.5h-3.6v-13.5Z"/>
        <path class="st6" d="M893.9,646.5h11.8v3h-8.2v3.6h8.1v3h-8.1v3.9h8.2v3.1h-11.8v-16.7Z"/>
        <path class="st6" d="M912.7,652v11.2h-3.5v-16.7h3.6l7.7,10.8v-10.8h3.5v16.7h-3.4l-7.9-11.2Z"/>
        <path class="st6" d="M931.8,649.6h-4.9v-3.1h13.3v3.1h-4.8v13.5h-3.6v-13.5Z"/>
        <path class="st6" d="M943.1,646.5h3.5v16.7h-3.5v-16.7Z"/>
        <path class="st6" d="M958.5,646.2c5,0,8.7,3.6,8.7,8.6s-3.7,8.6-8.7,8.6-8.7-3.6-8.7-8.6,3.7-8.6,8.7-8.6ZM958.5,649.4c-3.1,0-5,2.3-5,5.5s2,5.5,5,5.5,5.1-2.4,5.1-5.5-2-5.5-5.1-5.5Z"/>
        <path class="st6" d="M973.9,652v11.2h-3.5v-16.7h3.6l7.7,10.8v-10.8h3.5v16.7h-3.4l-7.9-11.2Z"/>
      </g>
    </g>
    <g>
      <g>
        <rect class="st4" x="714.5" y="776.7" width="37.5" height="37.5" rx="3.2" ry="3.2"/>
        <g>
          <path class="st6" d="M730.9,801.6c-2.1,0-4.2,0-6.3,0-1.2,0-2.3-.8-2.6-2.1,0-.2,0-.4,0-.6,0-.7,0-1.4,0-2.1,0-2.4,0-4.8,0-7.2,0-.2,0-.2.2-.2,4.2,0,8.5,0,12.7,0,.6,0,1.1.1,1.6.4.7.5,1,1.1,1.1,1.9,0,.2,0,.3,0,.5,0,3,0,6.1,0,9.1,0,.3,0,.2-.2.2-2.2,0-4.3,0-6.5,0Z"/>
          <path class="st6" d="M744.5,789.4v12.1c0,0-.1,0-.1,0-1.6-1.1-3.3-2.2-4.9-3.3,0,0-.1-.1-.1-.3,0-1.6,0-3.3,0-4.9,0-.1,0-.2.1-.3,1.6-1.1,3.3-2.2,4.9-3.3,0,0,0,0,.1,0Z"/>
        </g>
      </g>
      <text class="st3" transform="translate(776.5 793.3)"><tspan x="0" y="0">Update your devices and the</tspan><tspan x="0" y="25">Zoom app before class if needed.</tspan></text>
    </g>
    <g>
      <text class="st3" transform="translate(776.5 722.9)"><tspan x="0" y="0">Make sure your devices always </tspan><tspan x="0" y="25">have a back up power supply.</tspan></text>
      <g>
        <path class="st9" d="M730.3,713.2h-.6v-2.6c0-.5-.4-1-1-1h-9.8c-.5,0-1,.4-1,1v2.6h-.6c-1.6,0-2.9,1.3-2.9,2.9v27.3c0,1.6,1.3,2.9,2.9,2.9h13c1.6,0,2.9-1.3,2.9-2.9v-27.3c0-1.6-1.3-2.9-2.9-2.9Z"/>
        <polygon class="st7" points="724.2 719.7 723.5 727.9 729.5 727.9 722 739.7 723.5 731.6 718.2 731.6 724.2 719.7"/>
        <path class="st0" d="M756.3,718h-2.1v-7.3c0-.6-.5-1-1-1s-1,.5-1,1v7.3h-4.9v-7.3c0-.6-.5-1-1-1s-1,.5-1,1v7.3h-2.1c-.7,0-1.4.6-1.4,1.4v13c0,2.4,2,4.4,4.4,4.4h2.2v9.7h3.5v-9.7h1.5c2.4,0,4.4-2,4.4-4.4v-13c0-.7-.6-1.4-1.4-1.4Z"/>
      </g>
    </g>
  </g>
</svg>