<?xml version="1.0" encoding="UTF-8"?>
<svg id="Layer_1" xmlns="http://www.w3.org/2000/svg" version="1.1" viewBox="0 0 1920 1080">
  <!-- Generator: Adobe Illustrator 29.7.1, SVG Export Plug-In . SVG Version: 2.1.1 Build 8)  -->
  <defs>
    <style>
      .st0 {
        fill: #252a2e;
      }

      .st1 {
        font-size: 34.4px;
        letter-spacing: 0em;
      }

      .st1, .st2, .st3, .st4 {
        fill: #231f20;
      }

      .st1, .st4 {
        font-family: ProximaNova-Semibold, 'Proxima Nova';
        font-weight: 600;
      }

      .st5 {
        fill: #338ccc;
      }

      .st6 {
        fill: #d2e8c3;
      }

      .st7 {
        fill: #fff;
      }

      .st8 {
        fill: #bbd154;
      }

      .st9 {
        fill: #d8e9f3;
      }

      .st10 {
        fill: #3a9d69;
      }

      .st2 {
        letter-spacing: 0em;
      }

      .st2, .st3 {
        font-family: ProximaNova-Bold, 'Proxima Nova';
        font-size: 41.3px;
        font-weight: 700;
      }

      .st3 {
        letter-spacing: 0em;
      }

      .st4 {
        font-size: 33.9px;
        letter-spacing: 0em;
      }

      .st11 {
        fill: #f7f189;
      }

      .st12 {
        fill: #cb2127;
      }
    </style>
  </defs>
  <g>
    <rect class="st6" x="88.2" y="32.9" width="619.1" height="440.2" rx="14.3" ry="14.3"/>
    <g>
      <text class="st2" transform="translate(131.2 150.2)"><tspan x="0" y="0">Ideal</tspan></text>
      <text class="st1" transform="translate(131.2 216.1)"><tspan x="0" y="0">Using desktop or laptop with </tspan><tspan x="0" y="41.3">camera on, speakers and </tspan><tspan x="0" y="82.5">headphone. No additional </tspan><tspan x="0" y="123.8">devices needed during class </tspan><tspan x="0" y="165.1">and exam.</tspan></text>
    </g>
  </g>
  <rect class="st9" x="88.2" y="589.2" width="619.1" height="440.2" rx="14.3" ry="14.3"/>
  <path class="st0" d="M1375.8,143.7v-23.9c0-41.8-34-75.7-75.7-75.7s-75.7,34-75.7,75.7v24.6c-2.7,1.9-4.5,5.1-4.5,8.7v11.6c0,5.8,4.8,10.6,10.6,10.6h2.8c.4,0,.8,0,1.2,0v12.5c0,9.3,7.6,17,17,17s17-7.6,17-17v-57.7c0-9.3-7.6-17-17-17s-13.4,4.6-15.8,10.9v-4.2c0-35.5,28.9-64.4,64.4-64.4s64.4,28.9,64.4,64.4v1.8c-2.9-5.1-8.4-8.6-14.7-8.6-9.3,0-17,7.6-17,17v57.7c0,9.3,7.6,17,17,17s17-7.6,17-17v-12.5c.4,0,.8,0,1.2,0h2.8c5.8,0,10.6-4.8,10.6-10.6v-11.6c0-4-2.3-7.6-5.7-9.4Z"/>
  <path class="st0" d="M1595.2,89.9h-1.2c-4.1,0-7.4,3.3-7.4,7.4v4.4c0,4.1,3.3,7.4,7.4,7.4h1.2c.3,0,.7,0,1-.1v11.3c0,1.7,1.4,3.2,3.1,3.2v12.3c0,10.9-8.9,19.9-19.9,19.9s-19.9-8.9-19.9-19.9v-12.4c.1,0,.2,0,.3,0,1.8,0,3.2-1.4,3.2-3.2v-11.3c.3,0,.7.1,1,.1h1.2c4.1,0,7.4-3.3,7.4-7.4v-4.4c0-4.1-3.3-7.4-7.4-7.4h-1.2c-4.1,0-7.4,3.3-7.4,7.4v23.1c0,.9.4,1.7,1,2.3v13.3c0,11.7,9.3,21.2,20.8,21.7v16.5c0,6.2-5.1,11.3-11.3,11.3h-81.5c-7.3,0-13.2,5.9-13.2,13.2s5.9,13.2,13.2,13.2h81.5c6.2,0,11.3,5.1,11.3,11.3v3.3c0,6.2-5.1,11.3-11.3,11.3h-181.8c-.5-1.5-1.9-2.6-3.6-2.6h-24.9c-1.7,0-3.1,1.1-3.6,2.6h-3.1c-.5,0-1,.4-1,1s.4,1,1,1h2.9c.3,1.8,1.9,3.2,3.8,3.2h24.9c1.9,0,3.5-1.4,3.8-3.2h181.6c7.3,0,13.2-5.9,13.2-13.2v-3.3c0-7.3-5.9-13.2-13.2-13.2h-81.5c-6.2,0-11.3-5.1-11.3-11.3s5.1-11.3,11.3-11.3h81.5c7.3,0,13.2-5.9,13.2-13.2v-16.5c11.6-.5,20.8-10,20.8-21.7v-12.9c.8-.6,1.4-1.5,1.4-2.6v-23.1c0-4.1-3.3-7.4-7.4-7.4Z"/>
  <path class="st0" d="M1188.4,916.1h-1c-3.3,0-6.1,2.7-6.1,6.1v3.6c0,3.3,2.7,6.1,6.1,6.1h1c.3,0,.6,0,.8,0v9.3c0,1.4,1.1,2.6,2.6,2.6v10.1c0,9-7.3,16.3-16.3,16.3s-16.3-7.3-16.3-16.3v-10.1c0,0,.2,0,.3,0,1.4,0,2.6-1.2,2.6-2.6v-9.3c.3,0,.5,0,.8,0h1c3.3,0,6.1-2.7,6.1-6.1v-3.6c0-3.3-2.7-6.1-6.1-6.1h-1c-3.3,0-6.1,2.7-6.1,6.1v18.9c0,.7.3,1.4.8,1.9v10.9c0,9.6,7.6,17.4,17,17.8v13.5c0,5.1-4.2,9.3-9.3,9.3h-66.8c-6,0-10.8,4.9-10.8,10.8s4.9,10.8,10.8,10.8h66.8c5.1,0,9.3,4.2,9.3,9.3v2.7c0,5.1-4.2,9.3-9.3,9.3h-148.9c-.4-1.2-1.6-2.1-3-2.1h-20.4c-1.4,0-2.5.9-3,2.1h-2.5c-.4,0-.8.4-.8.8s.4.8.8.8h2.4c.3,1.5,1.5,2.6,3.1,2.6h20.4c1.5,0,2.8-1.1,3.1-2.6h148.7c6,0,10.8-4.9,10.8-10.8v-2.7c0-6-4.9-10.8-10.8-10.8h-66.8c-5.1,0-9.3-4.2-9.3-9.3s4.2-9.3,9.3-9.3h66.8c6,0,10.8-4.9,10.8-10.8v-13.5c9.5-.4,17-8.2,17-17.8v-10.6c.7-.5,1.1-1.3,1.1-2.2v-18.9c0-3.3-2.7-6.1-6.1-6.1Z"/>
  <g>
    <g>
      <g>
        <rect class="st0" x="808.3" y="177.7" width="163.9" height="98.6"/>
        <path class="st0" d="M641.5,177.7v98.6h162.2v-98.6h-162.2ZM655,81.5c-7.5,0-13.5,6-13.5,13.5v78.1h162.2v-91.6h-148.7ZM641.5,280.9v98.1h162.2v-98.1h-162.2ZM808.3,81.5v91.6h163.9v-91.6h-163.9ZM888.8,60.8c-4.1,0-7.5,3.3-7.5,7.5s0,1.2.2,1.7c.4,1.9,1.7,3.6,3.3,4.6,1.1.7,2.5,1.1,4,1.1s2.8-.4,4-1.1c1.6-1,2.8-2.7,3.3-4.6.1-.6.2-1.1.2-1.7,0-4.1-3.3-7.5-7.5-7.5ZM921.8,403.4h-66c-2.2,0-4.3.9-5.7,2.4-1.5,1.5-2.4,3.5-2.4,5.7,0,4.4,3.6,8.1,8.1,8.1h66c2.2,0,4.2-.9,5.7-2.4s2.4-3.5,2.4-5.7c0-4.4-3.6-8.1-8.1-8.1ZM808.3,280.9v98.6h163.9v-98.6h-163.9ZM976.8,177.7v98.6h159.3v-98.6h-159.3ZM976.8,280.9v98.1h159.3v-98.1h-159.3ZM1122.6,81.5h-145.8v91.6h159.3v-78.1c0-7.4-6-13.5-13.5-13.5Z"/>
        <path class="st10" d="M803.7,81.5v91.6h-162.2v-78.1c0-7.4,6-13.5,13.5-13.5h148.7Z"/>
        <rect class="st10" x="641.5" y="177.7" width="162.2" height="98.6"/>
        <rect class="st10" x="641.5" y="280.9" width="162.2" height="98.1"/>
        <rect class="st10" x="808.3" y="81.5" width="163.9" height="91.6"/>
        <rect class="st10" x="808.3" y="177.7" width="163.9" height="98.6"/>
        <rect class="st10" x="808.3" y="280.9" width="163.9" height="98.1"/>
        <path class="st10" d="M1136.1,95v78.1h-159.3v-91.6h145.8c7.5,0,13.5,6,13.5,13.5Z"/>
        <rect class="st10" x="976.8" y="177.7" width="159.3" height="98.6"/>
        <rect class="st10" x="976.8" y="280.9" width="159.3" height="98.1"/>
        <path class="st7" d="M929.9,411.5c0,2.2-.9,4.2-2.4,5.7s-3.5,2.4-5.7,2.4h-66c-4.4,0-8.1-3.6-8.1-8.1s.9-4.3,2.4-5.7c1.5-1.5,3.5-2.4,5.7-2.4h66c4.4,0,8.1,3.6,8.1,8.1Z"/>
      </g>
      <g>
        <g>
          <g>
            <circle class="st7" cx="730.3" cy="111.4" r="23.2"/>
            <path class="st7" d="M764.7,167.5v5.6h-68.9v-5.6c0-14.5,11.8-26.3,26.3-26.3h16.3c14.5,0,26.3,11.8,26.3,26.3Z"/>
          </g>
          <g>
            <circle class="st7" cx="891.6" cy="111.4" r="23.2"/>
            <path class="st7" d="M926,167.5v5.6h-68.9v-5.6c0-14.5,11.8-26.3,26.3-26.3h16.3c14.5,0,26.3,11.8,26.3,26.3Z"/>
          </g>
          <g>
            <circle class="st7" cx="1052.8" cy="111.4" r="23.2"/>
            <path class="st7" d="M1087.3,167.5v5.6h-68.9v-5.6c0-14.5,11.8-26.3,26.3-26.3h16.3c14.5,0,26.3,11.8,26.3,26.3Z"/>
          </g>
        </g>
        <g>
          <g>
            <circle class="st7" cx="730.3" cy="314.3" r="23.2"/>
            <path class="st7" d="M708.1,344.1h44.3c6.8,0,12.3,5.5,12.3,12.3v22.2h-68.9v-22.2c0-6.8,5.5-12.3,12.3-12.3Z"/>
          </g>
          <g>
            <circle class="st7" cx="891.6" cy="314.3" r="23.2"/>
            <path class="st7" d="M926,378.6h-68.9v-8.1c0-14.5,11.8-26.3,26.3-26.3h16.3c14.5,0,26.3,11.8,26.3,26.3v8.1Z"/>
          </g>
          <g>
            <circle class="st7" cx="1052.8" cy="314.3" r="23.2"/>
            <path class="st7" d="M1087.3,378.6h-68.9v-8.1c0-14.5,11.8-26.3,26.3-26.3h16.3c14.5,0,26.3,11.8,26.3,26.3v8.1Z"/>
          </g>
        </g>
        <g>
          <g>
            <circle class="st7" cx="730.3" cy="215.7" r="23.2"/>
            <path class="st7" d="M764.7,271.8v4.5h-68.9v-4.5c0-14.5,11.8-26.3,26.3-26.3h16.3c14.5,0,26.3,11.8,26.3,26.3Z"/>
          </g>
          <g>
            <circle class="st8" cx="891.6" cy="215.7" r="23.2"/>
            <path class="st8" d="M926,271.8v4.5h-68.9v-4.5c0-14.5,11.8-26.3,26.3-26.3h16.3c14.5,0,26.3,11.8,26.3,26.3Z"/>
          </g>
          <g>
            <circle class="st7" cx="1052.8" cy="215.7" r="23.2"/>
            <path class="st7" d="M1087.3,271.8v4.5h-68.9v-4.5c0-14.5,11.8-26.3,26.3-26.3h16.3c14.5,0,26.3,11.8,26.3,26.3Z"/>
          </g>
        </g>
      </g>
      <path class="st0" d="M881.6,69.9c.4,1.9,1.7,3.6,3.3,4.6h7.9c1.6-1,2.8-2.7,3.3-4.6h-14.5Z"/>
      <path class="st0" d="M1128.5,56.4h-479.3c-19.9,0-35.9,16.1-35.9,35.9v321.6c0,19.8,16.1,35.9,35.9,35.9h145.1l-12.3,70.8h-34.6c-6.7,0-12.1,5.5-12.1,12.1s5.5,12.1,12.1,12.1h283c6.7,0,12.1-5.5,12.1-12.1s-5.5-12.1-12.1-12.1h-34.6l-12.4-70.8h145.1c19.9,0,36-16.1,36-35.9V92.4c0-19.9-16.1-35.9-36-35.9ZM976.8,81.5h145.8c7.5,0,13.5,6,13.5,13.5v78.1h-159.3v-91.6ZM976.8,177.7h159.3v98.6h-159.3v-98.6ZM976.8,280.9h159.3v98.1h-159.3v-98.1ZM888.8,60.8c4.1,0,7.5,3.3,7.5,7.5s0,1.2-.2,1.7c-.4,1.9-1.7,3.6-3.3,4.6-1.1.7-2.5,1.1-4,1.1s-2.8-.4-4-1.1c-1.6-1-2.8-2.7-3.3-4.6-.1-.6-.2-1.1-.2-1.7,0-4.1,3.3-7.5,7.5-7.5ZM803.7,379h-162.2v-98.1h162.2v98.1ZM803.7,276.3h-162.2v-98.6h162.2v98.6ZM803.7,173.1h-162.2v-78.1c0-7.4,6-13.5,13.5-13.5h148.7v91.6ZM927.6,417.2c-1.5,1.5-3.5,2.4-5.7,2.4h-66c-4.4,0-8.1-3.6-8.1-8.1s.9-4.3,2.4-5.7c1.5-1.5,3.5-2.4,5.7-2.4h66c4.4,0,8.1,3.6,8.1,8.1s-.9,4.2-2.4,5.7ZM972.3,379.5h-163.9v-98.6h163.9v98.6ZM972.3,276.3h-163.9v-98.6h163.9v98.6ZM972.3,173.1h-163.9v-91.6h163.9v91.6Z"/>
    </g>
    <path class="st7" d="M896.3,68.2c0,.6,0,1.2-.2,1.7-.4,1.9-1.7,3.6-3.3,4.6-1.1.7-2.5,1.1-4,1.1s-2.8-.4-4-1.1c-1.6-1-2.8-2.7-3.3-4.6-.1-.6-.2-1.1-.2-1.7,0-4.1,3.3-7.5,7.5-7.5s7.5,3.3,7.5,7.5Z"/>
  </g>
  <g>
    <g>
      <rect class="st0" x="1284.2" y="288.5" width="96.9" height="56.1"/>
      <rect class="st0" x="1284.2" y="348.1" width="96.9" height="56.1"/>
      <rect class="st0" x="1284.2" y="407.6" width="96.9" height="56.1"/>
      <rect class="st0" x="1384.6" y="288.5" width="96.9" height="56.1"/>
      <rect class="st0" x="1384.6" y="348.1" width="96.9" height="56.1"/>
      <rect class="st0" x="1384.6" y="407.6" width="96.9" height="56.1"/>
      <rect class="st0" x="1485" y="288.5" width="96.9" height="56.1"/>
      <rect class="st0" x="1485" y="348.1" width="96.9" height="56.1"/>
      <rect class="st0" x="1485" y="407.6" width="96.9" height="56.1"/>
      <path class="st0" d="M1433.6,275.2c-2.9,0-5.2,2.3-5.2,5.2s1.3,4,3.2,4.8c.6.2,1.3.4,1.9.4s1.4-.1,1.9-.4c1.9-.8,3.2-2.6,3.2-4.8s-2.3-5.2-5.2-5.2ZM1482.4,510.2h-98.6c-2.2,0-4.2.9-5.7,2.4-1.5,1.4-2.4,3.5-2.4,5.7,0,4.4,3.6,8,8,8h98.6c2.2,0,4.2-.9,5.7-2.4,1.5-1.4,2.4-3.5,2.4-5.7,0-4.4-3.6-8-8-8Z"/>
      <path class="st7" d="M1490.4,518.2c0,2.2-.9,4.2-2.4,5.7-1.4,1.5-3.5,2.4-5.7,2.4h-98.6c-4.4,0-8-3.6-8-8s.9-4.2,2.4-5.7c1.4-1.5,3.5-2.4,5.7-2.4h98.6c4.4,0,8,3.6,8,8Z"/>
      <rect class="st10" x="1284.2" y="288.5" width="96.9" height="56.1"/>
      <rect class="st10" x="1284.2" y="348.1" width="96.9" height="56.1"/>
      <rect class="st10" x="1284.2" y="407.6" width="96.9" height="56.1"/>
      <rect class="st10" x="1384.6" y="288.5" width="96.9" height="56.1"/>
      <rect class="st10" x="1384.6" y="348.1" width="96.9" height="56.1"/>
      <rect class="st10" x="1384.6" y="407.6" width="96.9" height="56.1"/>
      <rect class="st10" x="1485" y="288.5" width="96.9" height="56.1"/>
      <rect class="st10" x="1485" y="348.1" width="96.9" height="56.1"/>
      <rect class="st10" x="1485" y="407.6" width="96.9" height="56.1"/>
      <g>
        <g>
          <g>
            <circle class="st7" cx="1332.4" cy="309.5" r="13"/>
            <path class="st7" d="M1351.8,341.1v3.6h-38.8v-3.6c0-8.2,6.6-14.8,14.8-14.8h9.2c8.2,0,14.8,6.6,14.8,14.8Z"/>
          </g>
          <g>
            <circle class="st7" cx="1433.7" cy="309.5" r="13"/>
            <path class="st7" d="M1453.1,341.1v3.6h-38.8v-3.6c0-8.2,6.6-14.8,14.8-14.8h9.2c8.2,0,14.8,6.6,14.8,14.8Z"/>
          </g>
          <g>
            <circle class="st7" cx="1534.3" cy="309.5" r="13"/>
            <path class="st7" d="M1553.6,341.1v3.6h-38.8v-3.6c0-8.2,6.6-14.8,14.8-14.8h9.2c8.2,0,14.8,6.6,14.8,14.8Z"/>
          </g>
          <g>
            <circle class="st7" cx="1332.4" cy="368.4" r="13"/>
            <path class="st7" d="M1351.8,399.9v4.3h-38.8v-4.3c0-8.2,6.6-14.8,14.8-14.8h9.2c8.2,0,14.8,6.6,14.8,14.8Z"/>
          </g>
          <g>
            <circle class="st8" cx="1433.7" cy="368.4" r="13"/>
            <path class="st8" d="M1453.1,399.9v4.3h-38.8v-4.3c0-8.2,6.6-14.8,14.8-14.8h9.2c8.2,0,14.8,6.6,14.8,14.8Z"/>
          </g>
          <g>
            <circle class="st7" cx="1534.3" cy="368.4" r="13"/>
            <path class="st7" d="M1553.6,399.9v4.3h-38.8v-4.3c0-8.2,6.6-14.8,14.8-14.8h9.2c8.2,0,14.8,6.6,14.8,14.8Z"/>
          </g>
          <g>
            <circle class="st7" cx="1332.4" cy="428" r="13"/>
            <path class="st7" d="M1351.8,459.6v4.2h-38.8v-4.2c0-8.2,6.6-14.8,14.8-14.8h9.2c8.2,0,14.8,6.6,14.8,14.8Z"/>
          </g>
          <g>
            <circle class="st7" cx="1433.7" cy="428" r="13"/>
            <path class="st7" d="M1453.1,459.6v4.2h-38.8v-4.2c0-8.2,6.6-14.8,14.8-14.8h9.2c8.2,0,14.8,6.6,14.8,14.8Z"/>
          </g>
          <g>
            <circle class="st7" cx="1534.3" cy="428" r="13"/>
            <path class="st7" d="M1553.6,459.6v4.2h-38.8v-4.2c0-8.2,6.6-14.8,14.8-14.8h9.2c8.2,0,14.8,6.6,14.8,14.8Z"/>
          </g>
        </g>
        <path class="st0" d="M1431.6,285.1c.6.2,1.3.4,1.9.4s1.4-.1,1.9-.4h-3.9Z"/>
        <path class="st0" d="M1657.6,532.1l-57.1-57.5h0v-193.1c0-5.4-4.4-9.9-9.9-9.9h-314.9c-5.4,0-9.9,4.4-9.9,9.9v193.1h0l-57.1,57.5c-4.6,4.6-1.3,12.5,5.2,12.5h438.6c6.5,0,9.8-7.9,5.2-12.5ZM1433.6,275.2c2.9,0,5.2,2.3,5.2,5.2s-1.3,4-3.2,4.8c-.6.2-1.3.4-1.9.4s-1.4-.1-1.9-.4c-1.9-.8-3.2-2.6-3.2-4.8s2.3-5.2,5.2-5.2ZM1384.6,288.5h96.9v56.1h-96.9v-56.1ZM1384.6,348.1h96.9v56.1h-96.9v-56.1ZM1384.6,407.6h96.9v56.1h-96.9v-56.1ZM1284.2,288.5h96.9v56.1h-96.9v-56.1ZM1284.2,348.1h96.9v56.1h-96.9v-56.1ZM1284.2,463.8v-56.1h96.9v56.1h-96.9ZM1488,523.9c-1.4,1.5-3.5,2.4-5.7,2.4h-98.6c-4.4,0-8-3.6-8-8s.9-4.2,2.4-5.7c1.4-1.5,3.5-2.4,5.7-2.4h98.6c4.4,0,8,3.6,8,8s-.9,4.2-2.4,5.7ZM1581.9,463.8h-96.9v-56.1h96.9v56.1ZM1581.9,404.2h-96.9v-56.1h96.9v56.1ZM1581.9,344.7h-96.9v-56.1h96.9v56.1Z"/>
      </g>
    </g>
    <path class="st7" d="M1438.7,280.3c0,2.2-1.3,4-3.2,4.8-.6.2-1.3.4-1.9.4s-1.4-.1-1.9-.4c-1.9-.8-3.2-2.6-3.2-4.8s2.3-5.2,5.2-5.2,5.2,2.3,5.2,5.2Z"/>
  </g>
  <g>
    <rect class="st10" x="886.1" y="0" width="5.7" height="40.1" rx="1.3" ry="1.3"/>
    <rect class="st10" x="914.8" y="10.3" width="5.7" height="40.1" rx="1.3" ry="1.3" transform="translate(290.3 -640) rotate(45)"/>
    <rect class="st10" x="857.5" y="10.3" width="5.7" height="40.1" rx="1.3" ry="1.3" transform="translate(1490.2 -556.5) rotate(135)"/>
  </g>
  <g>
    <rect class="st10" x="1659.9" y="425.9" width="5.7" height="40.1" rx="1.3" ry="1.3" transform="translate(1738.3 -1273.9) rotate(77.5)"/>
    <rect class="st10" x="1656.1" y="456.1" width="5.7" height="40.1" rx="1.3" ry="1.3" transform="translate(2951.9 -667.1) rotate(122.5)"/>
    <rect class="st10" x="1643.7" y="400.2" width="5.7" height="40.1" rx="1.3" ry="1.3" transform="translate(2809.4 1659.3) rotate(-147.5)"/>
  </g>
  <g>
    <rect class="st0" x="609.3" y="695.9" width="290.1" height="384.1" rx="8" ry="8"/>
    <circle class="st7" cx="754.4" cy="1060.5" r="9.2"/>
    <rect class="st7" x="633.1" y="720" width="243.1" height="322.2" rx="1.7" ry="1.7"/>
    <g>
      <g>
        <g>
          <rect class="st10" x="647.7" y="742.9" width="19.5" height="19.5" rx="1.9" ry="1.9"/>
          <rect class="st10" x="675.2" y="749.8" width="181.1" height="6.9" rx="1.6" ry="1.6"/>
        </g>
        <g>
          <rect class="st8" x="675.2" y="765.9" width="13.8" height="13.8" rx="3.2" ry="3.2"/>
          <rect class="st8" x="694.7" y="769.3" width="161.7" height="6.9" rx="1.6" ry="1.6"/>
        </g>
        <g>
          <rect class="st8" x="675.2" y="787.6" width="13.8" height="13.8" rx="3.2" ry="3.2"/>
          <rect class="st8" x="694.7" y="791.1" width="161.7" height="6.9" rx="1.6" ry="1.6"/>
        </g>
        <g>
          <rect class="st8" x="675.2" y="809.4" width="13.8" height="13.8" rx="3.2" ry="3.2"/>
          <rect class="st8" x="694.7" y="812.9" width="161.7" height="6.9" rx="1.6" ry="1.6"/>
        </g>
      </g>
      <g>
        <g>
          <rect class="st10" x="647.7" y="845" width="19.5" height="19.5" rx="1.9" ry="1.9"/>
          <rect class="st10" x="675.2" y="851.8" width="181.1" height="6.9" rx="1.6" ry="1.6"/>
        </g>
        <g>
          <rect class="st8" x="675.2" y="867.9" width="13.8" height="13.8" rx="3.2" ry="3.2"/>
          <rect class="st8" x="694.7" y="871.3" width="161.7" height="6.9" rx="1.6" ry="1.6"/>
        </g>
        <g>
          <rect class="st8" x="675.2" y="889.7" width="13.8" height="13.8" rx="3.2" ry="3.2"/>
          <rect class="st8" x="694.7" y="893.1" width="161.7" height="6.9" rx="1.6" ry="1.6"/>
        </g>
        <g>
          <rect class="st8" x="675.2" y="911.5" width="13.8" height="13.8" rx="3.2" ry="3.2"/>
          <rect class="st8" x="694.7" y="914.9" width="161.7" height="6.9" rx="1.6" ry="1.6"/>
        </g>
      </g>
      <g>
        <g>
          <rect class="st10" x="647.7" y="947" width="19.5" height="19.5" rx="1.9" ry="1.9"/>
          <rect class="st10" x="675.2" y="953.9" width="181.1" height="6.9" rx="1.6" ry="1.6"/>
        </g>
        <g>
          <rect class="st8" x="675.2" y="969.9" width="13.8" height="13.8" rx="3.2" ry="3.2"/>
          <rect class="st8" x="694.7" y="973.4" width="161.7" height="6.9" rx="1.6" ry="1.6"/>
        </g>
        <g>
          <rect class="st8" x="675.2" y="991.7" width="13.8" height="13.8" rx="3.2" ry="3.2"/>
          <rect class="st8" x="694.7" y="995.2" width="161.7" height="6.9" rx="1.6" ry="1.6"/>
        </g>
        <g>
          <rect class="st8" x="675.2" y="1013.5" width="13.8" height="13.8" rx="3.2" ry="3.2"/>
          <rect class="st8" x="694.7" y="1016.9" width="161.7" height="6.9" rx="1.6" ry="1.6"/>
        </g>
      </g>
    </g>
  </g>
  <g>
    <rect class="st0" x="985.6" y="695.9" width="153.2" height="264.8" rx="5.5" ry="5.5"/>
    <rect class="st10" x="998.5" y="712.9" width="127.4" height="214.7" rx="2.4" ry="2.4"/>
    <rect class="st7" x="1046.8" y="703.1" width="30.8" height="5.7" rx="1.3" ry="1.3"/>
    <circle class="st7" cx="1061.5" cy="943.6" r="10"/>
    <g>
      <circle class="st7" cx="1062.2" cy="810.8" r="33.1"/>
      <path class="st7" d="M1116.4,927.6h-108.3v-36.8c0-20.7,18.5-37.5,41.4-37.5h25.6c22.8,0,41.4,16.8,41.4,37.5v36.8Z"/>
    </g>
    <g>
      <g>
        <circle class="st0" cx="1029.4" cy="903.1" r="13.6"/>
        <path class="st11" d="M1037.7,899.7l-3.1,1.4v-.9c0-.6-.5-1.1-1.1-1.1h-11.4c-.6,0-1.1.5-1.1,1.1v7.7c0,.6.5,1.1,1.1,1.1h11.4c.6,0,1.1-.5,1.1-1.1v-.9l3.1,1.4v-8.7Z"/>
      </g>
      <g>
        <circle class="st0" cx="1062.2" cy="903.1" r="13.6"/>
        <g>
          <rect class="st11" x="1059" y="893" width="6.5" height="12" rx="1.4" ry="1.4"/>
          <path class="st11" d="M1067.7,902.3v-4.4c0-.3-.2-.5-.5-.5s-.5.2-.5.5v4.4c0,2.4-2,4.4-4.4,4.4s-4.4-2-4.4-4.4v-4.4c0-.3-.2-.5-.5-.5s-.5.2-.5.5v4.4c0,2.8,2.2,5.1,4.9,5.4,0,0,0,0,0,0v3.8h-3.3c-.3,0-.5.2-.5.5s.2.5.5.5h7.6c.3,0,.5-.2.5-.5s-.2-.5-.5-.5h-3.3v-3.8s0,0,0,0c2.8-.3,4.9-2.6,4.9-5.4Z"/>
        </g>
      </g>
      <g>
        <circle class="st0" cx="1095.1" cy="903.1" r="13.6"/>
        <path class="st11" d="M1086.5,897.7c0-.1,0-.2,0-.3.1-.8.6-1.3,1.2-1.8.5-.4,1.1-.7,1.7-1,.3-.1.7-.1,1,.1.3.3.6.5.9.8.8,1,1.4,2,1.9,3.2.2.5.2,1-.1,1.5-.2.2-.3.5-.5.7-.2.3-.2.5,0,.8.4.8.9,1.5,1.5,2.1.7.8,1.5,1.4,2.5,1.8.3.2.6.1.9-.1.2-.2.5-.4.8-.6.4-.2.8-.3,1.2-.1,1.4.6,2.8,1.4,3.9,2.5.1.1.2.2.3.3.2.3.3.5.1.8-.3.9-.8,1.8-1.6,2.4-.4.4-.9.6-1.5.6,0,0,0,0,0,0h-.4c0,0-.2,0-.3,0-.7-.1-1.4-.4-2.1-.7-3-1.4-5.4-3.5-7.6-6-1-1.1-1.8-2.4-2.5-3.7-.4-.7-.8-1.5-.9-2.3,0-.3,0-.6-.1-.9,0-.1,0-.2,0-.4Z"/>
      </g>
    </g>
    <g>
      <rect class="st0" x="1074.7" y="724.6" width="45.8" height="50.1" rx="1.2" ry="1.2"/>
      <g>
        <circle class="st8" cx="1097.8" cy="743.1" r="11.4"/>
        <path class="st8" d="M1114.8,774.7h-33.8v-4c0-7.1,5.8-12.9,12.9-12.9h8c7.1,0,12.9,5.8,12.9,12.9v4Z"/>
      </g>
    </g>
  </g>
  <path class="st0" d="M944.6,867.9h-9.7v-22.7h-20.1v-8.8h20.1v-21.8h9.7v21.8h20v8.8h-20v22.7Z"/>
  <g>
    <text class="st1" transform="translate(131.2 753.5)"><tspan x="0" y="0">If you use tablet or phone </tspan><tspan x="0" y="41.3">for taking the exam, you </tspan><tspan x="0" y="82.5">will need an additional </tspan><tspan x="0" y="123.8">device with camera and </tspan><tspan x="0" y="165.1">speakers. This allows </tspan><tspan x="0" y="206.4">instructor to keep an eye </tspan><tspan x="0" y="247.6">on you.</tspan></text>
    <text class="st3" transform="translate(131.4 687.7)"><tspan x="0" y="0">Alternate</tspan></text>
  </g>
  <g>
    <g>
      <path class="st0" d="M1379.3,696.1h370.3c4,0,7.2,3.2,7.2,7.2v47.6c0,4-3.2,7.2-7.2,7.2h-370.3v-62h0Z"/>
      <g>
        <path class="st12" d="M1370.1,687.9l-40.3,69.8c-1.3,2.2.3,5,2.9,5h80.6c2.6,0,4.2-2.8,2.9-5l-40.3-69.8c-1.3-2.2-4.5-2.2-5.8,0Z"/>
        <path class="st7" d="M1373,742.5c3,0,5.5,2.6,5.5,5.6s-2.5,5.6-5.5,5.6-5.5-2.6-5.5-5.6,2.5-5.6,5.5-5.6ZM1367.6,706.5h10.6l-1.4,31.3h-7.7l-1.5-31.3Z"/>
      </g>
      <g>
        <path class="st7" d="M1482.4,735.5h-12.1l-1.7,4.7h-6.3l10.5-27.1h7.2l10.5,27.1h-6.3l-1.7-4.7ZM1471.9,730.5h9l-4.5-12.4-4.5,12.4Z"/>
        <path class="st7" d="M1500.3,718.1h-7.9v-5.1h21.6v5.1h-7.9v22h-5.8v-22Z"/>
        <path class="st7" d="M1524.9,718.1h-7.9v-5.1h21.6v5.1h-7.9v22h-5.8v-22Z"/>
        <path class="st7" d="M1543.4,713.1h19.2v5h-13.4v5.9h13.1v5h-13.1v6.3h13.4v5h-19.2v-27.1Z"/>
        <path class="st7" d="M1573.9,722v18.2h-5.8v-27.1h5.9l12.6,17.6v-17.6h5.8v27.1h-5.6l-12.9-18.2Z"/>
        <path class="st7" d="M1605,718.1h-7.9v-5.1h21.6v5.1h-7.9v22h-5.8v-22Z"/>
        <path class="st7" d="M1623.5,713.1h5.8v27.1h-5.8v-27.1Z"/>
        <path class="st7" d="M1648.5,712.6c8.2,0,14.2,5.9,14.2,14s-6,14-14.2,14-14.2-5.9-14.2-14,6-14,14.2-14ZM1648.5,717.7c-5,0-8.2,3.8-8.2,8.9s3.2,8.9,8.2,8.9,8.3-3.9,8.3-8.9-3.3-8.9-8.3-8.9Z"/>
        <path class="st7" d="M1673.5,722v18.2h-5.8v-27.1h5.9l12.6,17.6v-17.6h5.8v27.1h-5.6l-12.9-18.2Z"/>
      </g>
    </g>
    <g>
      <g>
        <rect class="st5" x="1251.3" y="925.1" width="61" height="61" rx="3.2" ry="3.2"/>
        <g>
          <path class="st7" d="M1278,965.5c-3.4,0-6.9,0-10.3,0-1.9,0-3.7-1.3-4.2-3.4,0-.3,0-.6,0-1,0-1.1,0-2.3,0-3.4,0-3.9,0-7.8,0-11.7,0-.4,0-.4.4-.4,6.9,0,13.8,0,20.7,0,.9,0,1.8.2,2.6.7,1.1.7,1.7,1.8,1.8,3,0,.3,0,.5,0,.8,0,5,0,9.9,0,14.9,0,.4,0,.4-.4.4-3.5,0-7,0-10.6,0Z"/>
          <path class="st7" d="M1300.2,945.7v19.7c-.1,0-.2,0-.2-.1-2.7-1.8-5.3-3.6-8-5.3-.2-.1-.2-.2-.2-.4,0-2.7,0-5.3,0-8,0-.2,0-.3.2-.4,2.7-1.8,5.3-3.6,8-5.3,0,0,.1-.1.2-.1Z"/>
        </g>
      </g>
      <text class="st4" transform="translate(1352.3 952.1)"><tspan x="0" y="0">Update your devices and the</tspan><tspan x="0" y="40.7">Zoom app before class if needed.</tspan></text>
    </g>
    <g>
      <text class="st4" transform="translate(1352.3 837.3)"><tspan x="0" y="0">Make sure your devices always </tspan><tspan x="0" y="40.7">have a back up power supply.</tspan></text>
      <g>
        <path class="st10" d="M1277,821.6h-1v-4.2c0-.9-.7-1.6-1.6-1.6h-16c-.9,0-1.6.7-1.6,1.6v4.2h-1c-2.6,0-4.7,2.1-4.7,4.7v44.4c0,2.6,2.1,4.7,4.7,4.7h21.2c2.6,0,4.7-2.1,4.7-4.7v-44.4c0-2.6-2.1-4.7-4.7-4.7Z"/>
        <polygon class="st8" points="1267.1 832.2 1265.9 845.5 1275.7 845.5 1263.5 864.8 1265.9 851.5 1257.3 851.5 1267.1 832.2"/>
        <path class="st0" d="M1319.3,829.4h-3.5v-11.9c0-.9-.8-1.7-1.7-1.7s-1.7.8-1.7,1.7v11.9h-7.9v-11.9c0-.9-.8-1.7-1.7-1.7s-1.7.8-1.7,1.7v11.9h-3.5c-1.2,0-2.2,1-2.2,2.2v21.1c0,4,3.2,7.2,7.2,7.2h3.6v15.8h5.6v-15.8h2.4c4,0,7.2-3.2,7.2-7.2v-21.1c0-1.2-1-2.2-2.2-2.2Z"/>
      </g>
    </g>
  </g>
</svg>