<?xml version="1.0" encoding="UTF-8"?>
<svg id="Layer_1" xmlns="http://www.w3.org/2000/svg" xmlns:xlink="http://www.w3.org/1999/xlink" version="1.1" viewBox="0 0 1080 1080">
  <!-- Generator: Adobe Illustrator 29.7.1, SVG Export Plug-In . SVG Version: 2.1.1 Build 8)  -->
  <defs>
    <style>
      .st0, .st1, .st2 {
        fill: none;
      }

      .st3 {
        font-size: 28.1px;
      }

      .st3, .st4, .st5, .st6, .st7, .st8, .st9, .st10, .st11, .st12, .st13, .st14, .st15, .st16, .st17 {
        fill: #221f1f;
      }

      .st3, .st5, .st6 {
        font-family: ProximaNova-Semibold, 'Proxima Nova';
        font-weight: 600;
      }

      .st18 {
        fill: #252a2e;
      }

      .st4 {
        font-size: 20.6px;
      }

      .st4, .st19, .st7, .st8, .st9, .st20, .st10, .st11, .st14, .st15, .st16, .st17 {
        font-family: ProximaNova-Bold, 'Proxima Nova';
        font-weight: 700;
      }

      .st21 {
        fill: #dfd021;
      }

      .st22 {
        fill: #43a78c;
      }

      .st5 {
        letter-spacing: 0em;
      }

      .st5, .st6 {
        font-size: 14.5px;
      }

      .st6 {
        letter-spacing: 0em;
      }

      .st19 {
        font-size: 51.5px;
      }

      .st19, .st20 {
        fill: #fff;
      }

      .st23 {
        clip-path: url(#clippath-10);
      }

      .st7 {
        font-size: 13.8px;
      }

      .st24 {
        clip-path: url(#clippath-1);
      }

      .st25 {
        clip-path: url(#clippath-3);
      }

      .st26 {
        clip-path: url(#clippath-4);
      }

      .st27 {
        clip-path: url(#clippath-2);
      }

      .st28 {
        clip-path: url(#clippath-7);
      }

      .st29 {
        clip-path: url(#clippath-9);
      }

      .st30 {
        clip-path: url(#clippath-8);
      }

      .st31 {
        clip-path: url(#clippath-5);
      }

      .st32 {
        letter-spacing: 0em;
      }

      .st1 {
        stroke: #221f1f;
        stroke-linecap: round;
      }

      .st1, .st2 {
        stroke-miterlimit: 10;
      }

      .st8 {
        letter-spacing: 0em;
      }

      .st8, .st17 {
        font-size: 15.3px;
      }

      .st9 {
        letter-spacing: 0em;
      }

      .st9, .st16 {
        font-size: 15.3px;
      }

      .st20 {
        font-size: 15.6px;
      }

      .st33 {
        fill: #225337;
      }

      .st10 {
        letter-spacing: 0em;
      }

      .st10, .st15 {
        font-size: 15.3px;
      }

      .st11 {
        letter-spacing: 0em;
      }

      .st11, .st14 {
        font-size: 15.3px;
      }

      .st34 {
        fill: #bbd154;
      }

      .st35 {
        letter-spacing: 0em;
      }

      .st36 {
        fill: #3a9d69;
      }

      .st37 {
        letter-spacing: 0em;
      }

      .st13 {
        font-family: ProximaNova-Extrabld, 'Proxima Nova';
        font-size: 60.4px;
      }

      .st38 {
        letter-spacing: 0em;
      }

      .st39 {
        letter-spacing: 0em;
      }

      .st40 {
        letter-spacing: 0em;
      }

      .st41 {
        letter-spacing: 0em;
      }

      .st42 {
        letter-spacing: 0em;
      }

      .st2 {
        stroke: #cdc22e;
        stroke-width: 2px;
      }

      .st43 {
        letter-spacing: 0em;
      }

      .st44 {
        letter-spacing: 0em;
      }

      .st45 {
        letter-spacing: 0em;
      }

      .st46 {
        letter-spacing: 0em;
      }

      .st47 {
        letter-spacing: 0em;
      }

      .st48 {
        fill: #f7f189;
      }

      .st49 {
        clip-path: url(#clippath);
      }
    </style>
    <clipPath id="clippath">
      <rect class="st0" x="-26.9" y="118.4" width="1166.2" height="807.3"/>
    </clipPath>
    <clipPath id="clippath-1">
      <rect class="st0" x="-26.9" y="118.4" width="1166.2" height="807.3"/>
    </clipPath>
    <clipPath id="clippath-2">
      <rect class="st0" x="-26.9" y="118.4" width="1166.2" height="807.3"/>
    </clipPath>
    <clipPath id="clippath-3">
      <rect class="st0" x="-26.9" y="118.4" width="1166.2" height="807.3"/>
    </clipPath>
    <clipPath id="clippath-4">
      <rect class="st0" x="-26.9" y="118.4" width="1166.2" height="807.3"/>
    </clipPath>
    <clipPath id="clippath-5">
      <rect class="st0" x="-26.9" y="118.4" width="1166.2" height="807.3"/>
    </clipPath>
    <clipPath id="clippath-7">
      <rect class="st0" x="-26.9" y="118.4" width="1166.2" height="807.3"/>
    </clipPath>
    <clipPath id="clippath-8">
      <path class="st0" d="M350.3,620c-2.9,1.2-5.7,3.1-8.7,4.7-.7.6-1.2,1.7-.7,2.6.5.9,1.7,1.1,2.5,1.5,2,1,1.9,3.5,2,5.4.3,3.8,4.4,5,7.6,5.2,3.5.3,9.1-.3,8.9-5,0-1.7-1.9-3.9-3.1-5-1.1-1.1-2.1-1.7-2.4-3.2-.3-1.6-.3-3-.2-4.6,0-.8,0-1.4-.7-1.7-.7-.3-1.4-.5-2.2-.5s-2.1.2-2.9.6M294.7,614.4c1.7,4.4,1.8,6.8.3,7.8-.3.2-.8.3-1.4.3-2,0-4.7-1.8-6.9-3.7-2.6,12.7-3.8,17.1-4.5,18.6.7,5.5,2,10,2.5,10.5,0,0,2.8,1.5,2.9,4,.1,1.6-.8,3.2-2.8,4.6h-.2c-.1.1-4.1,1.6-5.4,5.3.1,1.4.5,6.7-3.6,9.5v5.3h.8c1.7,0,2.4.7,2.6,1.3.7,1.4-.1,3.1-5.4,7.4l-2,3.4,56.5,34,30.1,4.6,10.6-80.3c-1.6.5-3.2,1-4.9,1.5-4.7,1.2-8.5.7-13.6,0-6.4-.7-7.7-1.4-8.5-7.8-.9-7.5-9.4-8-10.5-15.9-.9-6.8,2.4-12.5,7.8-15.7-16.6-2.9-33.8-6.1-39.1-7l-2-.3h-.7c0-.1-2.8,12.6-2.8,12.6Z"/>
    </clipPath>
    <clipPath id="clippath-9">
      <rect class="st0" x="41.5" y="844.2" width="41.5" height="41.5"/>
    </clipPath>
    <clipPath id="clippath-10">
      <rect class="st0" x="-26.9" y="118.4" width="1166.2" height="807.3"/>
    </clipPath>
  </defs>
  <rect class="st48" x="41.5" y="844.2" width="41.5" height="41.5"/>
  <g>
    <path class="st33" d="M662.3,449.3c8.3-1.3,22.8.5,25.4,10,2.2,8,14.6,4.6,12.5-3.4-4.6-17.2-25.9-21.4-41.3-19-8.2,1.3-4.7,13.7,3.4,12.5Z"/>
    <path class="st33" d="M944.5,483.9c-2.9-2.3-5.6-4.7-8.2-7.2-1.2-1.1-2.4-1.7-3.7-1.8.6-.2,1.2-.5,1.8-.8,8.9-4.8,7-14.2,4.1-22.1-1.8-4.8-1.1-9.7-2.1-14.6-.3-1.5-.7-3-1.3-4.5.5-2.7,0-5.5-1.7-7.8-1.4-1.9-3.4-2.8-5.3-2.8-4.7-2.4-11.2,1.7-9.7,6.7-.5.2-1,.5-1.4.7-1.6,1-2.6,2.4-3.3,3.9-5.5,2.9-12.5,2.2-18.1.3-7.6-2.5-11.1,9-4.2,12.1-1,1.6-1.4,3.7-1,5.4,1.8,8.4,3.6,16.7,5.5,25.1.2.9,1.5,5.9,2.9,10.8-.3,3.2-.4,6.5-.4,9.7-12.4-6.5-26.3-8.9-40.8-6.7-4.4.7-5.4,4.6-4.1,7.9-4.1.8-8.3,1.8-12.4,2.7-1.1-2-3.2-3.4-5.6-3.3-8.1.5-15.8,2.4-19.8,9.5-2.8,1.1-3.9,3.6-3.7,6.1-4.3-1.1-9.7,2.3-8,7.8,2.9,9.8-3.3,22.5-7,31.4-2,4.9-4.2,9.7-6.4,14.5-1.1,2.4-2.2,4.8-3.3,7.2-1.4,3-.5,2-2.7,2.1-4.4.2-10.2-2.3-14.4-3.2-4.5-1-9-2.3-13.6-2.4-.3,0-.5,0-.8,0-.7-.9-1.6-1.5-2.7-1.9.5-4.2.3-8.4,0-12.6-.7-9.2-1.4-18.3-2.2-27.5,2.3-.3,4.5-1.2,6.8-2.3.9.5,1.9.7,2.9.7,3.7,0,6.3-3,6.5-6.5,0-1.1.1-2.2.2-3.3.3-5.1-5.7-7.8-9.7-5.6-1.9,1-3.9,2.1-5.8,3.1-.4.2-1.2.6-1.6.8-1.8-.8-3.8-.9-5.6,0-.2,0-.4,0-.6,0-10.8-.2-20.9,1.3-27.8,10.3-5.1,6.6,6.2,13,11.2,6.5,2.3-3,6.6-3.8,10.6-4,.5,6.9,1.1,13.9,1.6,20.8.7,9.2,1.6,17-1.9,25.7-1.2,2.9-2.2,5.9-2.3,9.1-.2,5,1,7.2-4.5,8.9-5.5,1.7-11,3-16.6,4.4-1.6-8.5-2.5-16.9-2.8-25.5,0-1.3-.4-2.4-1-3.3,0-12.3-.9-24.7-2.4-37.2-1-8.1-13.9-8.2-12.9,0,3.4,27.9,3.5,55.3-1.6,82.8-2.4.1-4.8.4-7.2.9-3.6-12.6-10.5-24.1-20.3-32.8.2-7,1.7-14.4,2.2-20.6,0-.3,0-.7.1-1,.2,0,.5,0,.7,0,8.3-.1,8.3-12.8.1-12.9-.2-3.4-1-6.7-3.1-9.6,2.3-5.9,2.7-11.9,1.3-17.6,8.9-.4,17.8-.4,26.7,0,8.3.3,8.3-12.6,0-12.9-10.9-.4-21.9-.3-32.8.4,0,0,0,0,0,0,0,0,0,0,0-.1-.3-4.6-1.3-9.3-4.5-12.8-.3-.3-.7-.6-1-.9-.8-2.4-1.7-4.7-3.1-6.9-3.7-5.9-8.9-10.6-15.1-13.9-.5-.2-.9-.4-1.3-.5-.7-2-1.4-3.8-2.1-5.4-2-4.7-4.8-8.1-1.1-12.4,2.6-3,4.8-5.7,6.1-9.6,2.7-7.9-9.8-11.3-12.5-3.4-1.6,4.8-6.9,7.4-8.5,12.5-2.1,6.7,2.2,13.4,4.8,19.4,2.6,5.9,4.9,12.2,8.3,17.5-17.3.5-34.6.9-51.9,1,0-.8.1-1.6.1-2.4.2-9.9-6.4-21.1-3.8-30.7.6-2.1,1.5-4,2.4-6,6.5-.8,7.1-10,1.7-12.3-.4-3-1.1-6.1-1.7-9-2.2-11-4.6-22-7.2-32.9-1.9-8.1-14.4-4.7-12.5,3.4,2.4,10,4.6,20.1,6.7,30.2.5,2.6,1.2,5.1,1.6,7.7-30.6-.2-61.3-.5-91.9-1.1.3-14.6,2.4-29.1,6.2-43.4,2.2-8-10.3-11.5-12.5-3.4-5.5,20.5-7.7,41.7-6.4,62.8-30.4-2.3-60.7-5.3-90.9-9.1-3-.4-4.9,1.1-5.7,3.2-8.8,1.1-28.6,1.3-25.3-13,1.1-4.6-3.1-9.5-7.9-7.9-1.1-1.4-.8-2.5.9-3.2,1-.8,1.9-1.7,2.6-2.7,1.4-2,2.3-4.4,2.2-7-.3-5.3-4.1-8.7-7.6-12.1-8.2-8.2-10.8-19.9-7.7-31,1.1-3.7-2-8.6-6.2-8.2-3.8.3-6.5-.2-9.7-2.2-1.6-1-3.2-1.2-4.6-.9-2.9-.4-6,.8-7.1,4.5-3.8,13.4-7.4,26.9-10.8,40.4-3.6-.3-7.2-.4-10.4-.7-11-1-22-1.8-33-2.6-4.9-.3-9.9-.3-14.7-1-4.7-.6-7.2-1.2-8-6-1-6.8-5.4-13.2-13.2-10.8-7.9,2.4-4.5,14.9,3.4,12.5-2.8.9-3.5-.3-2.7,3.3.3,1.4.6,2.7,1.3,4,1.1,2.2,2.9,4,4.9,5.4,4.5,3.1,9.9,4,15.2,4.5,18,1.6,36,2.5,54,4.2,0,0,0,0,0,0-.4,1.7-.8,3.3-1.2,5-1.1,4.5,2.4,7.6,5.9,8-3.4,5.7-6,11.5-7.2,18.1-2.2,12.1-.2,27.7-8.3,37.9-.3.4-.5.8-.8,1.2-11.1-2-22.1-4.7-32.9-7.9,0-.7,0-1.3.1-2,.3-7.6-10.5-8.2-12.6-1.9-14-4.6-27.7-9.7-41.4-14.9-7.8-2.9-11.2,9.6-3.4,12.5,14.4,5.4,28.9,10.8,43.6,15.6-1.5,12.1-4.6,23.7-8.3,35.7-4.6,14.6,3.5,25.2,9.6,37.9,6.3,13.1,13,24.4,22.8,35.3,10.4,11.5,18.4,24.4,25.5,38.1,1.2,2.2,3,3.2,4.9,3.2.2,3.3.7,6.5,1.1,9.8-2.2.8-3.9,2.7-3.7,5.8.5,5.8-.5,11.2-3.3,16-1.3,1.3-2.4,2.8-3.2,4.6-2.8,6.1,5.2,14,10.1,7.8,1.3-1.5,2.4-3.1,3.4-4.8,2.5-2.7,5.8-4.8,7.7-8.2,2.4-4.2,2.8-9.1,2.3-13.8-.5-5.8-1.6-11.6-1.8-17.5-.1-3.5,0-7,.2-10.5.1-1.6.2-3.3.4-4.9,1,.3,2,.7,2.9.9,4.1,1.1,8.1-2.1,8.2-6.2,0-3.5.2-7,.4-10.6,22,2.8,44.1,5.3,66.2,7.5-.1,3.7-.2,7.4-.1,11.1.1,31.6-5.2,61.5-12.1,92.3-1.8,8.1,10.6,11.6,12.5,3.4,6.9-30.8,12.8-61.3,12.6-93,0-4.2,0-8.3.2-12.5,14,1.4,28,2.6,42,3.8-1.2,3.6.7,8.1,5.9,8.4,8.9.4,17.8.9,26.7,1.5,1.1,0,2.2.1,3.3.2-2.6,3.9-1.1,10.2,4.9,9.9.8,0,1.6,0,2.3-.1-.6,3.7-1.2,7.4-1.7,11-1.7,11.7-3,23.5-3.9,35.4-.4,5.6-.7,11.3-1,16.9-.1,2.8-.2,5.6-.3,8.5,0,1.6,0,3.2,0,4.8-3.8-.2-8.4-1.5-10.9-1.9-5.9-.9-11.8-2.1-17.6-3.5-9.8-2.4-19.4-5-29.4-2.1-8,2.4-4.6,14.8,3.4,12.5,10.4-3.1,21.7,2.1,32,4.2,8.2,1.6,19.9,5,28.2,3.5,8.6-1.5,7.1-10.7,7.3-17.3.3-11.3.9-22.6,1.9-33.8,1-11.1,2.4-22.2,4.2-33.3.3-1.6.7-3.4,1.1-5.3,3.3,0,6.7-.1,10,0,.8.8,1.8,1.4,3.2,1.7,4.8.9,9.6,1.6,14.4,2.2-2.4,12.7-3.7,27.1,3.7,37.9,3.9,5.7,9.7,6.2,16.1,6.5,1.7,0,3.5.1,5.2.2.3,2.5,1.7,4.7,4.5,5.1,4.6.7,9.2,1.2,13.8,1.4,8.1.7,16.2,1.2,24.4,1.6,7.6,2.5,15.2,5.1,22.8,7.6,2.5,9.7,7.1,18.6,9.8,28.2,3.2,11.5,3.7,23.1,2.2,34.9-1,8.2,11.9,8.2,12.9,0,1.4-11.1,1-22.3-1.4-33.2-1.9-8.9-5.7-17.1-8.6-25.6,1.3.4,2.7.7,4,1,12.4,3,25.4,1.9,38.2,1,3.2,10-5,21.5-9.4,30-2.1,4,.4,10.2,5.6,9.7,6.5-.6,13-1.5,19.6-1.8,4-.2,3.4-.8,5.8,2.2,2.1,2.6,3.7,5.9,5.5,8.8,4.4,7,15.6.5,11.2-6.5-3.7-5.9-7.4-15.2-14.7-17.3-3.8-1.1-8.1,0-11.9.3-1.4.1-2.8.3-4.2.4,4.4-9,7.9-18.5,5.6-27.9,3.8-3.4,1.7-11.8-4.4-11.4-.5,0-.9,0-1.4,0,2.9-1.3,5.2-11.8,6.5-16.5.6-.5,1.2-1,1.7-1.8,2.5-3.3,3.9-7,4.9-10.8,3.7-.2,7.5-.6,11.2-1.2.2,0,.5,0,.7-.1,1,1.7,2.8,3,5.3,3,3.4,0,6.8,0,10.2.1,0,3-.1,5.9-.2,8.9-.2,8.1-.4,16.2-.6,24.3-.5,15.7-1,31.5-1.7,47.2-.4,8.3,12.6,8.3,12.9,0,1.1-26.7,2-53.4,2.5-80.1,0,0,0,0,0-.1,4.3,0,8.7.1,13,.2,4.5,0,6.5-3.7,6.2-7.2,2.9,3.5,7.1,10.7,7.5,11.4,3.4,6.4,6.1,13.2,8.1,20.2,3.7,12.7,4.9,25.8,4.5,39-10.2,0-20.4,0-30.6.1-5.3,0-7.5,5.4-5.6,9.7,1.1,2.4,1.6,4.9,2.1,7.5,1.5,8.2,14,4.7,12.5-3.4,0-.3-.1-.6-.2-.9,27.7-.1,55.4-.3,83.1-.4,2.7,0,5.6-2,6.2-4.7.2-1,.4-2,.5-3,7.3-1.2,5-11.5-1.7-12.4-3.9-3.5-10.9-.7-10.7,4.8,0,.9,0,1.6,0,2.4-14.3,0-28.5.1-42.8.2.7-20.2-2.7-40.5-11.1-59-2-4.5-4.4-10-7.5-14.7,5.2-1,10.5-1.8,15.8-2.4,3.9-.4,7.8-.8,11.7-1,.9,14.1,18.1,22.5,28.5,30,3.3,2.4,6.9,4.8,9.3,8.1,2.4,3.4,2.2,7.8,4.6,11.3,3.9,5.8,10.6,5.9,15.6,1.9,5.3-4.2.3-10.9-5.3-10.6.3-2.1-4.3-10-4.7-10.5-2.8-3.7-6.4-6.5-10.1-9.3-4.4-3.2-8.8-6.4-13.3-9.5-3.6-2.6-10.7-6.3-11.8-11.2,3.8.5,7.9,1,10.9-.2,2.7-1,4.6-2.8,6.8-4.2,1,.8,2.2,1.4,3.7,1.5,17.1,1.8,33.8,5.8,50,11.6,4.3,1.5,7.8-2.4,8.2-6.2.7-7.4-6.7-9.4-12.3-11.4-8.3-3.1-16.4-7.1-25-9.3-12.4-3.2-25.7-2.3-36,5.5-3.6-.3-7.3-.5-10.9-.5,2.4-2,4.8-3.9,7.2-5.5,10.9-7.5,23.1-12.4,35.5-16.9,2-.7,3.3-2.1,4-3.6.5,0,1-.2,1.5-.3,19.2-3.7,38.4-.9,57.8-2.6,8.2-.8,8.3-13.7,0-12.9-18.7,1.7-37.3-.9-56,2.2-5.9,1-11.7,2.2-17.5,3.5,3.5-1.7,6.5-4.3,9-7.4,3.6-4.6,5.4-9.9,6.9-15.3,7.2-4.6,12.8-11.1,16.3-19.1.4-1,.9-2.1,1.3-3.1.3,1.1.6,2.2,1,3.2,1.6,3.9,4.1,6.1,8,7.5.8.3,1.6.4,2.3.3.3.6.7,1.2,1.1,1.7,2.9,3.7,6.8,6,11.6,5.5,8.2-.7,8.3-13.6,0-12.9-3,.3-4.1-7-5.2-9-1.6-3.2-3.7-5.5-6.8-7.4-1.1-.7-2.3-.9-3.4-.9-.1-.1-.2-.3-.3-.4,0,0,0,0,0,0,0-.6,0-1.2-.2-1.7,6.6-2.4,13.1-3.5,20.5-2,.7.1,1.4.2,2,.1.3,2.3,0,4.6,0,6.9.2,2.8,1.1,5.4,2.4,7.9,1.1,2.2,2.7,4.4,5,5.5,2.4,1.2,5.2,1.4,7.6,0,.5-.3.9-.7,1.1-1.2.5-.1,1-.3,1.4-.7.5-.5.8-1.2.8-1.9,0-.7-.3-1.4-.8-1.9-.5-.5-1.2-.8-1.9-.8-2,.2-4,.1-5.9-.1-.3,0-.6,0-.9-.1-.3,0-.6,0-.9,0-.5-.8-.9-1.7-1.3-2.5-.8-1.9-1.2-3.8-1.1-5.9,0-2.1.1-4.2-.2-6.3,1.4.3,2.9,0,4.4-1,3.1-2.1,5-4.9,5.5-8.1.6-.7,1.1-1.5,1.5-2.5,1.3-3.4,2-7,2.2-10.7.2-3.4-3.1-6.6-6.5-6.5-.3,0-.6,0-.9.1.4-2.3,1-4.6,1.5-6.6,0-.3.1-.5.1-.8,1.8.8,3.6,1.8,5.3,3.1,5.6,4.3,13.2-1.8,11-6.8,3.9-3.4,4-8,2.9-12.7,2.3-.6,4.7-1.1,7-1.4-1,3.4,1.1,6.6,4.5,8,4.3,1.8,8.7-.2,11.4-3.9.5-.7.8-1.3,1.1-2,6,1.7,12.5-5.8,6.7-10.4ZM926.1,478.7c-2.6.1-5.2.4-7.7.8,0-1,0-2,0-3,1.5,0,3-.2,4.3-.3,2,0,4.1-.2,6.1-.4-1.1.7-1.9,1.7-2.5,2.9ZM923.6,442.2c.4,3.2.6,6.5,1.4,10,.7,2.9,3.9,6.8,2.3,9.4-.7,1.3-3.7,1.8-6.4,2,.5-2.4,1.1-5.5,1.1-5.7.3-4,0-8-.4-12,0-.7-.2-1.3-.5-1.9.9-.6,1.7-1.2,2.4-2ZM909,455.3c-.2,3.3-.6,6.6-1.2,10.2,0,.5-.1,1-.2,1.5-.3,0-.7.2-1,.3-.7-3.7-1.4-7.5-2.1-11.2,1.5-.2,3-.4,4.5-.8ZM737.7,639.8c4.4,2.2,7.5,5.1,10.7,8.3-3.7.7-7.5,1.4-11.2,2.1-5.9-1.9-12,.2-15.9,5.5-.6.8-.9,1.7-1,2.5-1.6,0-3.1,0-4.7,0-.9-4.7-3.4-8.3-10.1-7.6-6.1.6-12.1,2.9-18.2,4.1-2.3.4-4.7.8-7,1.1,2.6-5.1,4.5-10.1,3.3-15.7,17.8,1.7,35.5,1.2,53.2-.6.3.1.6.3.9.4ZM466.4,533.9c-1-7.9-1.5-15.9-1.5-23.8,16.9-1.8,34.1-1.5,50.8,1.2,8.7,1.4,16.5,5.2,25,7,7.8,1.6,16.4,0,23.1,5.1.3.3.7.5,1.1.6.9,3.5,2.1,7,3.6,10.3-.5,4.1.5,8.9,2.3,13.6-5.6,0-11.1,0-16.7,0-5.6,0-7.4,5.9-5.4,9.7-7.2.3-14.4.7-21.5,1.2-9.9-.8-19.7-1.9-29.5-2.9-.1-3.2-.3-6.4-.6-9.5-.4-4.7-2.2-8.6-7-10.1-5.3-1.6-12-1.3-17.6-1.8-2-.2-4-.4-6-.6ZM367.5,525.3c0-3,0-6.1,0-9.1,4.2-1.9,5.2-9.1.3-11.9.2-3.1.4-6.2.7-9.2,1.2-11.8,5-21.6,8.7-32.7.3-.8.5-1.6.6-2.4,26.3,3.2,52.6,5.9,79.1,7.9-2.3,10.2-3.7,20.5-4.4,30.9-1.1.2-2.3.3-3.4.5-8,1.3-4.8,13.4,3,12.5,0,7,.5,13.9,1.2,20.9-1.3-.1-2.5-.2-3.8-.3-27.3-2.5-54.7-4.8-82-7.1ZM566.6,487.5c.4,7.1-1.3,14.2-3.4,21.1-5.6-1.7-11.7-1.6-17.7-2.6-9.8-1.5-18.7-6.1-28.6-7.5-17.1-2.5-34.3-2.9-51.4-1.3.7-9.5,2.2-19,4.4-28.4,3.1-.2,6.2-3.3,5.9-6.5-.3-3.3-.6-6.7-.7-10,29.8.5,59.6.9,89.4,1.1-.9,2.1-1.6,4.2-1.9,6.7-1.1,9.4,3.6,18.1,4.1,27.4ZM475.1,583.5c-.6-4.1-1.2-8.2-1.8-12.3-.1-.9-.3-1.9-.4-2.8,0-.4,0-.7,0-1.1,1.4,0,3.2,0,3.6,0,1.1,0,2.1,0,3.2.1-2,5.2-3.5,10.6-4.6,16ZM499.5,574.1c9.2-1,18.3-1.8,27.5-2.4,3.3.3,6.6.5,9.9.7,9.5.5,19.1.3,28.5-.9,3.5-.4,7-1,10.5-1.8,2.6,0,5.2,0,7.7,0,9.5,13.5,8.9,31.8,7.2,48.4-33.8-.9-67.5-2.3-101.2-4.4,7.2-11.9,10.7-25.7,9.8-39.6ZM614.5,623.2c-2-13.1-4-26.2-6-39.3-1-6.4-.9-16-4.2-22.7,8.2.7,16.6,0,24.8,0,2.4,0,4.7,0,7.1,0-1.5,9.3,4.6,18,12.3,24,1.7,1.3,3.4,2.7,5,4,0,.2,0,.3,0,.5.6,6.3,2.6,12.1,6.7,17,3.9,4.7,9.4,7.8,13.1,12.5-1,.5-2.1,1-3.1,1.5-3.3,1.7-3.8,5-2.7,7.6-1.4-.8-3-1.5-4.9-1.9-9.2-2.3-19.8,1-29,1.8-5.5.5-11.1.9-16.6,1.1-1.4,0-2.8.2-4.3.3,1.5-1.6,2.1-4,1.7-6.3ZM751.8,517c-.2-.2-.5-.4-.7-.5.2.1.5.3.7.5ZM737.9,604.5c7.9-3,9.7-7.8,10.2-14.5.8-.3,1.5-.8,2.3-1.4,1.5-1.4,2.7-2.9,3.6-4.4,4.1-1,13.5,1.2,20.5,3-.7,1.9-.3,4.1,2,5.8,5.8,4.5,5,11.1,2.5,17.1-.9,1.5-1.7,3-2.4,4.5-16.9.1-33.6-1.9-50.5-.4-4.3.4-8.5.9-12.7,1.6-2.3-.4-4.5-.7-6.8-.9.1-.7.2-1.4.4-2.1.5,0,.9,0,1.4-.2,9.7-2.6,20.1-4.4,29.6-7.9ZM654.9,565.8c-.2,2.5-.5,5-.8,7.5-3.7-3.3-6.4-7.2-4.7-11.7,0-.2.2-.4.3-.7,1.9,0,3.7,0,5.6,0-.2,1.6-.3,3.3-.5,4.9ZM640.8,504c-.3.2-.5.4-.8.7-2.1,2.3-2.8,6.9,0,9.1,1.6,1.3,3.3,2.6,4.9,3.9.4,1.4,1.2,2.5,2.4,3.2-1.4,6.1-3.9,12-7.1,17.3-2.4,4,.1,8,3.6,9.2,0,.1-.2.2-.3.3-14,0-28,0-41.9,0-7.2-1.3-12.8-4.6-17.3-11.5-.3-.5-.7-1.1-1-1.7,3.5-3.7.2-10.1-4.8-10.5-1.3-3.9-2.3-7.9-2.9-12,.7-2.2,1.3-4.5,1.8-6.7,21.1-.2,42.3-.7,63.4-1.4ZM305.8,376c1,.4,2.1.7,3.1.9-1.4,13.6,3.9,25.9,13.2,36.5,2.1,2.4,2.1,1.5.5,4.2-1,1.7-2.3,2.9-3.1,4.8-1.5,3.5-1.7,7.4-.3,10.9,1.5,3.8,4.6,6.5,8.3,7.7.6,5.1,2.9,9.8,6.6,13.6-5.2,2.9-4.3,12.5,2.9,12.1,7.3-.4,14.6-.9,21.9-1.3,1.6,0,2.9-.7,3.9-1.5-.5,1.1-.9,2.1-.9,2.2-1.2,3.2-2.1,6.4-3,9.7-1.4,5.5-2.3,11.1-2.9,16.8-.3,2.6-.5,5.2-.7,7.8-23.4-6-47.8-6.2-71.8-9.1,6.1-11.6,5.4-24.5,7.8-37.7,2.4-13,20.2-30.3,6.6-42.7-.3-.3-.7-.6-1-.8,2.9-11.4,5.9-22.8,9.1-34.1ZM262,596.8c-4.4-5.3-9.4-10-13.6-15.5-4.4-5.9-7.7-12.5-10.9-19.1-2.9-6.1-6.1-11.9-9.1-17.9-3.8-7.7-1.8-12.9.7-20.6,3.1-9.5,5.2-19.3,6.4-29.2,11.8,3.4,23.7,6.2,35.9,8.1,12.6,1.9,25.3,2.8,38,3.9-9.4,34.4-18.6,69.2-20.3,105-3.7-.6-7.2,0-9.4,3.7-.9,1.5-1.4,3.2-1.8,5.2-4.7-8.2-9.9-16.2-16-23.5ZM303.3,596.5c3.2-29.7,11-58.8,18.9-87.6.1-.4.2-.8.2-1.1,10.9,1.2,21.6,2.9,32.2,5.8,0,5.9,0,11.8,0,17.6,0,3.7,2.9,6.2,6.5,6.5,4.9.4,9.9.8,14.8,1.2-2.6,21.7-5.5,43.3-6.9,65-21.9-2.2-43.8-4.7-65.7-7.5ZM388.7,539.9c15.5,1.3,31.1,2.6,46.6,4,6.7.6,13.3,1.2,20,1.8,1.6,4.8,7.8,4.4,10.7,1,2.1.2,4.3.4,6.4.6,2.7.3,5.9,1.1,8.6.8,2.1,1.2,3.1.9,3-.8.2-1.9.3-1.4.3,1.7.2,1.9.3,3.8.4,5.7-2.7-.2-5.4-.3-8-.4-4.6-.1-10-.7-13.7,2.7-3.4,3.1-3.3,7.8-2.8,12,.8,6.5,1.9,13.1,2.9,19.6,1.1,7.6,1.7,15.8,3.4,23.5-28.1-1.9-56.2-4.3-84.3-7,1.3-21.8,4.1-43.5,6.7-65.3ZM527.9,646.9c7.6.4,8.3-10.4,1.7-12.7-12.5-4.3-25.4-5.7-38.4-6-.1-.5-.3-1-.5-1.5,32.9,2,65.8,3.4,98.8,4.3-.2,4.1.4,7.2,2.6,9.1,1.1,10.9,2.2,21.8,2.7,32.7.2,3.8.3,7.7.5,11.5-5.8-.4-11.5-.6-17.3-.8-.7-.6-1.5-1.1-2.5-1.4-4.3-1.1-8.6-2.1-12.9-2.9-.6-.6-1.4-1.1-2.3-1.4-10.1-3.6-20.2-7.3-30.8-9-3.5-.6-7.3-1.2-10.7-.9-.4-3.7-.2-7.6,0-10,.2-3.8.9-7.6,1.6-11.4,2.5.2,5,.4,7.5.5ZM617.8,697.4c-1.5-.4-3.1-.9-4.6-1.3,3-3.5,1.3-10.3-4.8-10.9,0,0,0,0,0,0-.2-4.1-.3-8.3-.5-12.5-.5-10.1-1.4-20.1-2.5-30.2,9.5,0,19-.6,28.4-1.4,5.2-.5,10.4-1.1,15.5-1.8,3.8-.5,9.2-2,12.1,1,3.7,3.7,1.6,12.9.7,17.3,0,.1,0,.3,0,.4-1.2,1.5-1.5,3.5-1.1,5.5-.4,1.9-.8,3.8-1.2,5.7-2,4.9-3.8,9.8-5.5,14.9-1.5,4.6-3.5,9.8-3.3,14.7-11.1.9-22.4,1.4-33-1.5ZM777.1,634.5c-3.5,2.8-11.1,10.2-16.1,8-1.6-.7-3.3-3.6-4.8-5.1.5,0,1,.1,1.5.2,2.1.2,3.7-.4,4.7-1.6,5.5-.9,11.1-1.9,16.6-3-.7.5-1.3,1-2,1.5ZM792.2,613.4c.9-1,1.8-2,2.9-2.8,4.2-3.2,7.9-.4,12.7-.1.2,0,.4,0,.5,0-5.3,1.2-10.7,2.2-16.1,2.9ZM805.2,596.9c-4.3-.8-7.9-1.6-11.9-.2-.5-2.8-1.5-5.5-3.1-7.9,4.9-1.7,7.4-6.6,10.2-12.8,1.9-4.1,3.8-8.3,5.6-12.4,3.7,2.1,8.9,2.6,12.6,2.5,2.3,0,4.7-.5,7-.7,0,0,.3,0,.5,0-1.5,3.5-2.4,7.2-3.2,10.9-.9,1.3-1.5,2.3-1.7,2.6-1.2,1.9-1.2,3.9-.4,5.6-.8,2.3-1.7,4.6-3,6.7-3.1,5.2-6.8,6.8-12.5,5.7ZM884.7,534.1c-.4.3-.8.6-1.1.9-.2,0-.4-.1-.6-.1-13.1-2.7-23.9.1-35.9,5.5-1.8.8-2.8,2-3.2,3.4-7.3.2-15,1.9-21.8,2.6-2.4.3-6,.2-9.4.6,3.1-8.8,6.2-18.3,4.1-27.6.9.2,2,.3,3.1,0,14.3-3.4,28.5-7.2,42.9-9.8,6-1.1,12.7-2.2,19.3-2-1.1,5-2.4,10.3-2.4,15.5,0,2.5,2.7,12.7,5,11.1Z"/>
  </g>
  <g class="st49">
    <path class="st48" d="M364.1,648.5c1.7-.4,3.3-1,4.9-1.5l-10.6,80.3-30.1-4.6-56.5-34,2-3.4c5.3-4.3,6.1-6,5.4-7.4-.2-.6-.9-1.3-2.6-1.3h-.8v-5.3c4-2.9,3.7-8.2,3.6-9.5,1.3-3.7,5.3-5.2,5.4-5.2h.2c2-1.5,2.9-3.1,2.8-4.7-.1-2.5-2.9-4-2.9-4-.6-.5-1.8-4.9-2.5-10.5.7-1.5,1.8-5.9,4.5-18.6,2.2,1.8,4.9,3.7,6.9,3.7s1-.1,1.4-.3c1.5-1,1.4-3.4-.3-7.8l2.8-12.7h.5c0,.1.2.1.2.1l2,.3c5.3,1,22.5,4.1,39.1,7-5.3,3.2-8.7,8.9-7.8,15.7,1.1,7.9,9.6,8.4,10.5,15.9.8,6.3,2.1,7,8.5,7.8,5.1.6,8.9,1.1,13.6,0M356.4,626.2c-.3-1.6-.3-3-.2-4.6,0-.8,0-1.4-.7-1.7-1.5-.7-3.6-.5-5.1.1-2.9,1.2-5.7,3.1-8.7,4.7-.7.6-1.2,1.7-.7,2.6.5.9,1.7,1.1,2.5,1.5,2,1,1.9,3.5,2,5.4.3,3.8,4.4,5,7.6,5.2,3.5.3,9.1-.3,8.9-5,0-1.7-1.9-3.9-3.1-5-1.1-1.1-2.1-1.7-2.4-3.2"/>
    <path class="st22" d="M865.9,828.1c-1.6-2.1-.6-14.1-.6-14.1,1-6.2-13.6-26.8-13.6-26.8-4.5-8.5-1.5-10-1.5-10-1.7-2.5-5.7-6.2-5.7-6.2-5.5-3-13.8-24.5-13.8-24.5-2-5.1-2.9-9.2-3.2-12.4h-10.3c-.6,0-.8.1-.9.1.1.5.7,1.5,1.6,2.4l.5.5-.7,6.5h-5.5v-3.6l-43.9,2.2-3.7-4h-.5c-.8,1.9-1.1,3.6-1.4,5.6-.2,1.2-.3,2.8-.7,4-.3.9-1.1,1.6-1.5,2.5-.7,1.8-1.6,5.6-3.7,6.6.9.4,1.5.8,1.5.8,10.5,4,7.2,8,7.2,8,9.8-.5,13.2-6.8,13.2-6.8,1.7-5.3,7.5-4.7,7.5-4.7,0,1.3,5.3,2,5.3,2,3,4,6,4.5,6,4.5,1,3.4,3.4,4.2,3.4,4.2,1.7.2,1.7,4.2,1.7,4.2,1-1.7,6.2.5,6.2.5,1.3,3.8,2.8,3.4,2.8,3.4,3.4,3,.2,13.2.2,13.2-1.3,7.2,3.8,11.7,3.8,11.7,1.7-2.5-1-4.5-1-5.7s6.5,1.7,6.5,1.7c1.5,1.3-5.5,7.5-5.5,7.5v1c0,1,9.8,11.5,9.8,11.5,6-10.2,3.8,4.7,3.8,4.7,5.3,2,4.7,6.5,4.7,6.5,4.7,7.5,5.7,4,5.7,4,4-1.5,8.7,8,8.7,8-.5,6.5,3,6.2,3,6.2.5-3,4.2-1.5,4.2-1.5,4.7-1,7.8-5.5,7.8-5.5-1.5-6,2.5-8.5,2.5-8.5"/>
    <path class="st34" d="M760.5,750.4c.4-.9,1.2-1.6,1.5-2.5.4-1.1.5-2.8.7-4,.3-2.1.7-3.8,1.4-5.6l-41.7,3.7v1.5l3.6,2.5.3,10.9c1.3-.2,2.2-.5,2.2-.5,8.5-3.4,19.3-2.5,19.3-2.5,2.3,0,6.6,1.9,8.9,3,2.1-1.1,3-4.8,3.7-6.6"/>
    <path class="st34" d="M615.8,736.6l-1-1,.9-.7c0-.5-.5-1.8-1.1-3.4-4.5-1.6-4.1-8.4-3.9-10-.7-3.2-.1-21.5,0-25.2,0-.3-.1-.5-.3-.7-.3-.2-1-.5-2.4-.5s-3.1.3-4,.5c-.2.2-.6.5-1,.6-.2.1-.6.1-.8.1-2.8,0-5.9-4.1-6.8-5.4-1.6-1.6-2.4-2.1-2.8-2.2,0,.2-.1.7,0,1.3l.2,1.4h-5.4l-.3-.3c-.9-.9-1.4-1-1.6-1-.3.1-.6.5-.7.6l-.2.7-6.3.9c-1.1,1-2.6,1.6-4.1,1.6-2.2,0-4.1-1-4.9-1.5h-4.7c-.3.9-1,1.7-1.8,2.1-.3.1-.7.2-1.1.2-2.8,0-6.3-3.3-7.5-4.5l-1.3-.3c-.6,1.4-2,2-3.2,2-2,0-3.3-.6-3.9-1.6-.2-.5-.3-1-.2-1.5-.8-.2-1.4-.7-1.8-1.3-.2-.3-.5-.7-.5-1.1h-1.6c-.2.8-.6,1.4-1.3,1.5h-.2c-.8,0-1.5-.7-2.1-2h0v-.3c-.6-.5-4.5-1.6-10.3-1.8h-1.1v-1.1c0-1.6-.1-2.6-.2-3.3-.2.7-.6,1.1-1.1,1.4-.3.1-.6.2-.9.2-.8,0-1.5-.5-1.6-.6l-.2-.2c-.5.5-.9.6-1.3.6h-.3c-2.8,0-6.2-4.4-7.2-5.7l-.6-.8.6-.6c.5-1.8,1.1-19.9,1.6-36.8l-45.1-1.4-6.3,88h-1.1c-4.6-.1-18.9-.5-31.9-1.3,0,1.7-.1,3.1-.7,4.8-.6,1.8-1.7,3.4-2.4,5.2-1.1,3.3-1.5,8.5-1.7,12.9,6.7,5.8,8,11.6,8,11.6-2.3,15.5,6.8,17.2,6.8,17.2,7.8,3,11.7,8.5,11.7,8.5,5.3,6,8.5-1,8.5-1,5.1-9,6.5-10.2,6.5-10.2,2,0,5.7-3.8,5.7-3.8,6.8,4.2,16.5,2,16.5,2l-.5,1c-.5,1,12.7,13.8,12.7,13.8-1.5,3,3.2,10.8,3.2,10.8,1.5,9,4,6.8,4,6.8-.5,2.3,7.8,12.1,7.8,12.1,6,1.3,3.4,7,3.4,7,2.5,1.5.5,6.5.5,6.5,5.3.8,4.5,5.7,4.5,5.7.2,8,12.3,9,12.3,9,4,4.5,7.2,3.4,7.2,3.4,8.5-.5,8.3,3.4,8.3,3.4,4.2,3.4,6.5-1.5,6.5-1.5-11.3-25.3,7-40.3,7-40.3,1.5.2,10.5-7.2,10.5-7.2,1.7-2.3,16.5-8,16.5-8,3.4-5.3,10.5-9,10.5-9l-.8-2.3c4.6-2.5,8.8-4.2,12.5-5.5l.3-7.8v-.2c2.6-4.1.6-6.7-.1-7.4-.8-.2-1.3-.7-1.4-1.4-.2-1.3,1-2.2,2.4-2.9,2-1,2.6-6.4,2.6-8.8v-.2c1.1-4.8-3.9-9.5-3.9-9.5"/>
    <path class="st48" d="M429.8,726.8c.6-1.8.6-3.2.7-4.8-11.4-.7-21.8-1.6-23.8-2.9-.6-.2-2-.7-3-.7s-.8.1-.9.2c0,0-.7.8,1.3,4.6h1.3c5.5,1.8,5.7,7.6,5.7,7.6,6.8,2.5,11.3,11.5,11.3,11.5,1.3.9,2.4,1.8,3.5,2.6.2-4.3.6-9.6,1.7-12.9.6-1.8,1.8-3.5,2.4-5.2"/>
    <path class="st48" d="M260.5,482.5c.9,1.7,3,1.9,4.9,2.1,4.1.4,6.4.7,9.8,2.1l9-33.3c-2.8-.9-4-1.8-4-3.1s.3-1.1.9-1.6c0-.2,0-.4,0-.6-2.9,1.7-10.1,1.2-13.1,1.7-2.6,10.8-4.8,21.9-7.4,32.7"/>
    <path class="st36" d="M287,439.9h.2c0-.1.3-.1.3-.1.6,0,.7-.2.8-.3.5-.6.5-1.8.3-2.4v-.6c-.1,0,.3-.5.3-.5.7-.7,3.9-4.9,6-7.7l.2-.2c1.7-1.3,1-3.1.7-3.9-2-1.1-3-3.6-3.6-5.6l-18.7-3.7-.2-.6c-.2-.6-3-1.4-8-1.4h-2.4l-.3-.2c-.1-.1-.9-.6-6.4-.6s-3.1,0-4.6.1c-1.5.5-2.9.7-4.1.7-1.8,0-2.9-.6-3.3-.8-.7-.2-1.6-.5-2.6-.5-2.1,0-4.1.6-4.2.6l-.7.2-.5-.6c-1.5-1.7-5.7-2.9-7.2-3.2h-.3c-1-.8-1.6-.9-2.1-.9s-.2,0-.3.1c-.5.2-.7.8-.7.8l-.2.9h-2.4c-8.5,0-10.9-5.3-11-5.5l-.2-.6.2-.5c1.4-2.5,1.7-4.6,1.1-6.3-.6-1.6-1.8-2.4-2.2-2.6-2-.3-3.3-1.1-4-2.3-.2-.5-.5-.9-.5-1.3-.5-.1-1-.1-1.7-.1s-1.4.1-2,.1l-1.4,7.6c.8,17.8-25,54-25,54l-1.7,12.5.3,3.2c8.8,4,62.6,16.8,98.9,24.8l1.6-5.9c-3.4-1.4-5.8-1.7-9.8-2.1-1.9-.2-4-.4-4.9-2.1,2.6-10.8,4.8-21.9,7.4-32.7,3-.5,10.3,0,13.1-1.7-.5-4.3,5.6-8.1,5.9-8.3"/>
    <path class="st22" d="M716.6,595.2c-2.8-.9-5.3-2.3-8.3-2.8,0-.4,0-.8.1-1.1-.8,3-1.9,6.3-3.7,7.2l-.5,4.1,7.1-1.4,3.2,2,1.5.6c.9-1.7,2.4-4.1,4.5-4.1s2.6,1.1,3.6,3.3h.1c.2,0,.3,0,.5-.1.3-.2.5-1,.3-2.6l-1.8-2.3c-2.1-1-4.3-2-6.6-2.7"/>
    <path class="st22" d="M724.8,598.8l5.3-4.6v3.7l3.1.2v-3l6.9-6.9.8-5.7h1c1.7,0,5.6-.6,6.5-2.1.1-.2.3-.8-.1-1.7v-.3c-.1,0-.9-8.2-.9-8.2l-1.5-10.8-.7-11.8-1.5-9.8-2-7.2.5-5.2-5.6-.7-5.1.8h-6.1c-1.3.2-2.6.4-3.8.5l-3.9,19.7-11.2,3.7.6,3.1v11.9l1.5,11.8v.2c-.1,0-1.1,3.4.7,5.2l.2.2v.3c.3,1,1.5,6.5-.9,8.4,0,.2,0,.3-.1.5,0,.4,0,.8-.1,1.1,2.9.5,5.5,1.8,8.3,2.8,2.3.8,4.5,1.7,6.6,2.7l1.8,2.3c0-.2,0-.5-.1-.7v-.7Z"/>
    <path class="st34" d="M721.7,526.1c-1.7.2-3.2.3-4.3.3h-.5c-5.9,7.9-9.5,5.9-11.5,2.8l-.5,12.6,1.6,7.8,11.2-3.7,3.9-19.7Z"/>
    <path class="st22" d="M763.2,623.3h.6c5.3-.8,9-1.3,11.7-1.6l7.5-5.5v-4.6l9.9-9.8c-2.9-1.7-5.9-5.7-6.2-6.3l-.2-.3v-2.3l-3.4-1.7v-5.7c-1.6-.5-2.9-1.1-3.1-1.3l-.7-.3v-.8c.5-3-.2-3.4-.2-3.4-.3,0-.8.2-1.1.5-1.7,2.8-3,3.9-4.1,3.9s-.3,0-.6-.1c-.3-.1-1-.5-1.3-1.6h-2c-1.3,1.5-2.4,2.2-3.4,2.2s-.6,0-.8-.1c-.9-.3-1.5-1.3-1.7-2.6h-6.1v-1c-.2-1.5-.8-2.5-1.8-3.2-.8-.6-2.1-.9-3.4-.9s-1.7.1-2.3.2v1.4c.7,1.4.7,2.8,0,3.8-1.1,2.3-5.2,3-7.2,3.1l-.7,4.6-6.7,6.8v4.6l-7.9-.6v-.7l-.2.2c.2,1.3.2,2.4,0,3.3l17.6,22.1c2.6-.4,12.2-2,17-2h1.3Z"/>
    <path class="st34" d="M726.4,604.8c-.6.5-1.3.7-2.1.7s-1.3-.2-1.4-.2l-.6-.2-.2-.6c-.7-2-1.4-2.4-1.6-2.4-.7,0-2.1,2.1-2.8,3.8l-.5,1.1-3.9-1.5-2.5-1.6-6.9,1.3-.2,2.1-.5.3c-.1.1-2.1,1.5-1.3,2.8.1.2.3.5.6.7.5.3,1.8,1.5,1.3,2.9-.3.9-1.5,1.4-3.3,1.4s-.9,0-1.1-.1c-.8.1-1.7.3-2.1.9-.5.7,0,1.8.5,2.6v.3c.1,0-.2,5.6-.2,5.6l-1.8-1.3c-.9-.7-3.7-2.3-5.9-2.3s-.8.1-1.1.1c-.7.2-1.3.8-1.6,1.6.1.1.2.2.3.3.7.8.9,2.1.7,3.8l-.7,5.3h-2.6c7.7,0,15.7-.2,18-.7v-4.2h1.1c.2,0,21.8-.8,25.8-2h14.5c0,0,.3,0,.6,0l-17.6-22.1c-.2.7-.5,1.3-1,1.7"/>
    <path class="st22" d="M802.3,618.9c-.1,0-1,.7-1.7,1.5l-.3.3-17.7,2.1c-.3,0-2.3.3-5.9.7l-.2.2h-.1c-3,.2-7,.8-12.1,1.4h-.7c0,.1-.1.1-.1.1-.3,0-.8-.1-1.3-.1-4.1,0-12.7,1.3-15.9,1.9l6.3,8s-3.5,17.3-3.3,21.6l16.7-1.8.3-4.2.6-.3c3.1-1.5,3.7-2.6,3.7-2.9v-.2h-.1c-.8-.8-.6-1.1,4.9-4.8l.5-.2h.1c3.8-.7,4.8-3.1,4.8-3.2l.2-.6,4.7-1.5v-3.4l6.1-4.9.2,2.2c.1.8.2,1.1.3,1.3.7-2.3,1.8-3.7,3.3-4.1.3-.1.7-.1,1-.1.6,0,1.1.1,1.7.3,1.1-3.2,2.4-5.1,4-5.7.1,0,.2-.1.3-.1,0-2.8-.6-3.1-.6-3.1"/>
    <path class="st34" d="M752.6,634.9l-6.3-8c-.8.1-1.3.2-1.3.2h-14.2c-4.1,1.1-20.4,1.8-25,2v3.2l-.3.3c-.3.3-1.5,1.5-22.2,1.6.2,5.4-2.9,9.5-3.7,10.6l-1,3.7-.2,5.7-3.3,1.4c.6,1.5,1.3,4,1,6.2h28.1l5.2-1.5,21.1-1.7,16.5-1.8,2.3-.3c-.2-4.4,3.3-21.6,3.3-21.6"/>
    <path class="st48" d="M358.9,509.5l8.2-46.1v-.3c-1.3-4.6-2.5-5.2-3-5.3h-.1c-1.1,0-2.9,2-3.7,3.3l-.8,1.3-1.1-1c-1.8-1.7-4.7-1.7-5.3-1.7h-.1c-.9.2-2,.2-3,.2-2.1,0-3.8-.3-4.7-.5-1.4,1.6-2.4,2.3-3.3,2.3s-.5,0-.7-.1c-.9-.3-1.3-1.4-1-2.8.2-5.6-.9-6.5-1-6.7h-.2c0,.1-.2.2-.2.2l-.5-.2c-4-1.8-6-11.6-6.4-13.6v-.5c1-4.5.3-5.2.3-5.2-.8,0-2.9,1.6-4.6,3.4l-.6.6-.8-.3c-1.1-.5-2.1-1.4-2.5-2.6,0,0,0,0,0-.1-.3.1-.7.3-1.2.4-2.3.5-4.8-.7-7.2-.5-5.1.3-10.3.7-15.4,1-3.5.2-6.7-.4-8.7,2.6,0,.9-.1,2.3-.8,3.4-.6.7-1.3,1.1-2.3,1.3-.8.6-5.7,4-4.2,6.5l.7,1.3-1.4.5c.5.2,1.4.7,3,1.1l1.1.3-11.1,41.3c9.3,2.2,70.2,16.1,82.9,16.4"/>
    <path class="st22" d="M844.9,554h0l-5.5-.7-2.3,3.8h-3l-3.4,4.9-4,.3-.6-9.2-14.8,2-2.5-11-.2.8v11.1c-.1,0-.2.2-.2.2-3.3,5.5-6.1,8.5-6.2,8.6l-.9.9-.9-.9c-.5-.5-.8-.8-1-.9v.6l-.5.5c-3,2.8-2.2,4-2.2,4l.2.3h0c.9,2.8.9,4.4-.1,5.2-.3.3-.9.6-1.5.6s-1.1-.2-1.4-.3h-.1l-.3-.2c-1-1.3-1.5-1.3-1.5-1.3-.3.3-.8,3.6-.3,7.6v1c.1,0-2.1.6-2.1.6-.2,1.4-.8,2.4-1.8,3-.6.3-1.4.5-2.2.5h-.1v3.9l3.4,1.7v3c1.7,2.2,4.7,5.5,6.3,5.9h.6c0,.1.2.6.2.6,0,0,2.3,4.2,6.2,4.9,1.1-1,3.4-3.1,5.4-3.1s.6,0,.8.1c.5.1,1.3.6,1.7,1.8.1,0,.3.1.5.1s.3,0,.5-.1c.6-.2,1.6-1.1,2.3-4.6l.2-1h1c0,.1.5.1.5.1,1.1,0,4.1-.2,5.5-2l.2-.2h.3c0-.1,1-.6.1-3-.5-1.4-1-2.9.1-3.6.2-.1.3-.1.6-.1h.1l1.7-6.1,2.8-5.2c-.1-3.8.5-5.9,2-6.3.1,0,.3-.1.5-.1,1.1,0,2.2,1,3.6,3.6h1.7l1.1-8.4h3.1v-1.8l2.4-1.6c.3-2.2,1-4.7,2.4-5.3.1,0,.2-.1.3-.1l1-4.8.3-.2Z"/>
    <path class="st22" d="M845.6,552.2c-.7.2-2.1.9-2.3,1.6-.1.1-.1.2,0,.5l.3.8h.6c0,.1.7.3.7.3h.5c0,.1,7.2,2.3,7.2,2.3l.2-1.6-.3-2.1c-2.6-.9-5.7-2-6.9-1.8"/>
    <path class="st34" d="M625.8,472.6c1.8.7,6.4,2.5,8,5.4,1.1.5,4.1,1.8,4.9,4.6l8.7,6,1.1,8c2.2,2.6,2.9,4.6,2.3,6.1-.3.8-.9,1.1-1.4,1.4l-.8,3.9,3.1,3c2.6.5,4.4,1.4,5.2,2.8h0c0,.1,10.7-.2,10.7-.2l9.5-.5,10.1-.6,12.2-.5v-1.3c-4-5.6,0-17.8,0-17.8-3.6-5.6,7.1-32.5,7.1-32.5-10.1,16.9-12.6,15.3-12.6,15.3-1.6-.9.5-6.3,3.1-11.9l-4.7-4-1-9.5c-3-.3-4.7-1.1-5.4-2.5-.2-.3-.2-.8-.3-1.1l-9.8-1.4-3.2-1.7-3.1-.6-8.4-2c-2.6-.1-4.2-2.1-4.8-3.3-3.2.3-6.1,0-6.1,0,4-6.5,1.5-6.2,1.5-6.2-7.5,4.2-12.3,5.7-15.4,6.1l-5.2,10.7h-.8c0-.1-.1-.1-.1-.1-.6,0-2.5.1-4.1,1.6-1.5,1.4-2.5,3.4-2.8,6.3,1,.2,2.3.9,3.1,2.2.8,1.4.7,3.1-.3,5.1-.3,2.5-1,7.1-.3,9.4"/>
    <path class="st48" d="M458.7,542.1c.7-8.3,5.5-67.8,6.3-76.8l-94.5-11.5-1.3,10h.2l-11.7,66.3c43.8,5.7,93.6,11.9,101,12.1"/>
    <path class="st34" d="M686.1,626.5c.2-1,.1-1.6-.1-1.8-.7.2-1.3.3-1.8.3s-1.5-.2-2.2-.7c-2.5-1.7-2.5-6-2.5-6.4v-.6l.5-.3c.8-.7-.2-4-2.3-7.5l-4.7-.6-8.5-8.7.3-.8c2.6-5.2,2.6-9.5,2.4-11.4h-8.4l.3-1.5c.8-3.8,0-4.9-.2-5.3-.2-.2-.5-.2-.5-.2h-.5l-.3-.3-7.6-7.4c-3.6-1.8-4-6.8-4-7.4v-.2c.2-3,.2-5.6,0-7.4-1.1-.9-2.4-2.2-3.3-3.4l-58.6,2c.5,1.5.9,2.5,1.1,3h.8c0-.1.1,1,.1,1l1.8,6.3c.1.2,1.1,2.1,3.7,2.1s.9,0,1.4-.1c.1,0,.8-.2,1.5-.2s1.6.3,2.1.8c1,1.1.8,3.1-.8,6.1-.1.6-.5,2.8.7,4.5.7,1,2,1.7,3.6,2.1h.9c0,.1,1.5,44.9,1.5,44.9h.1v.6c-.1,0-.1,1.1-.1,1.1h-.1l-.8,6.9,69.9-1.8h.2c.1.1,2.1,1,2.3,3,.2,1.4-.5,2.8-1.8,4.2l-1.1,2.3,6.7-.3c.9-1.1,3.6-5.2,2.9-9.9l-.2-1.4h2.4v-2.5c-.1,0,3,0,3,0l.3-3Z"/>
    <path class="st34" d="M651.1,571.5h.2c0,.1,7.5,7.4,7.5,7.4.5.1,1.1.3,1.8,1,1,1.1,1.4,3.1,1,5.9h7.5l.2.9c0,.2,1.4,5.9-2.1,13.2l6.8,6.9,4.9.6.3.5c.8,1.3,4.7,7.7,2.5,10.6.1,1.5.6,3.4,1.5,4,.2.1.5.2.8.2s.5,0,.8-.1c.7-1.8,1.7-3.1,3.3-3.6.6-.2,1.3-.3,1.8-.3,2.1,0,4.1.9,5.5,1.7v-.8c-.8-1.8-.9-3.4-.2-4.6,1.1-2,4-2.1,4.1-2.2h1.5c-.5-.3-.8-.8-1-1.1-1.3-2.1,0-4.2,1.5-5.6l1-9.8,1.1.2c.5-.5,1.7-3,2.6-6.5v-.6c.1,0,.7-.2.7-.2.8-.3.8-3.2.3-5.6-2.2-2.5-1.5-6.1-1.3-7.1l-1.5-11.5v-11.8l-2.2-10.9.7-17.6c-2.6.9-3.2-5.7-3.3-10.1l-12.1.5-10.1.6-9.5.5-9.1.3c1.6,1.3,2.4,3.2,2.6,4.1,2.3,1,3.7,2.3,4.2,3.9.5,1.5,0,2.8-.2,3.2-.9,4.4-2.6,7.4-5.1,8.8-1.4.8-2.5,1-3.4,1h-.8c-2.2.5-3.4,1.1-3.8,2.1-.2.7.2,1.5.2,1.5,1.8,2.1,2.6,4.1,2.4,6.1-.2,1.8-1.5,3-2.2,3.6v4.9h-3c.2,1.7.2,3.7-1.1,4.2-.2.1-.5.1-.7.1.2,2.8-.1,6-.1,6.5.2.6.8,4,3,5.1"/>
    <path class="st22" d="M887,566v-1.3c0-1.5-2.6-10.8-4.9-18.7h-.1v-.3c-.3-1.1-.7-2.3-1-3.3l-6,1-13.2,3-12.6,2.2h-.4c0-.1-20.2,4.4-20.2,4.4l.5,6.9h.5l3.4-5.1h2.9l1.2-1.9c5.5-1,12.5-1.8,16.2-2.1,1.4.8,2.5,1.5,2.8,1.6l.6.3v.2c.6.1,1.1.2,1.8.7,1.3.8,2.2,2.3,2.6,4.4,1.6,0,4.4.3,6.1,2.3,1.4,1.5,1.8,3.6,1.3,6.1v.5c-.1,0-.5.2-.5.2-.6.5-2,1.7-1.8,2.9.1.8,1.1,1.7,2.9,2.4l11.4,1.4c0-1.5.1-2.5.1-2.5-3.1-.6-3.2-6.5-3.2-6.5,1.7,1.3.2-8,.2-8-1.3-4.5,2.5-5.5,2.5-5.5,5.5-5.5.5,5.1.5,5.1,2.3.5,2.3,6,2.3,6l-2,.2.8,1.5c5.1,2,0,3.4,0,3.4,1.3,5.7,4.2,5.1,4.2,5.1,7.5-.8,6.2,4.2,6.2,4.2,4.2.8,1.5,4.7,1.5,4.7-2.5,0-1.3,12.5-1.3,12.5,4.2,3.2,3.4-8.7,3.4-8.7-.5-7.2,5.1-10.2,5.1-10.2l.2-9.2-14,.3Z"/>
    <path class="st22" d="M896.3,440.8h.8v1c.2.5.8,4.5.1,7,.7,2.8,1.7,4.7,2.2,4.9l1.4.5-.6,1.3c-.2.5-.6,1.6-.2,2.4.3.6,1,.9,2.1,1.1h.8c0,.1,3.6,13.2,3.6,13.2l6.4-1.4v-3.6l1.1-3.8-1.3-2,1.4-12.1v-10.5l.5-.3c1.5-1.3,4.4-4.4,4.2-6.5,0-.7-.2-1.1-.8-1.6l-.3-.2-.2-1.3-22.3,4.5h-.3c.5,4,1.1,6.7,1.5,7.2"/>
    <path class="st36" d="M274.2,495.1h0c-4.2-.9-21.4-4.7-40.5-9.3l-14.4,57.2,61.3,91.5c.7-2.4,1.8-7.5,4.1-18.3l.5-2.1,1.6,1.4c3,2.8,5.9,4.5,6.8,4.5,0,0,.5-.9-1.3-5.3v-.3c-.1,0,23.4-110.1,23.4-110.1-20.3-4.2-40.1-8.7-41.6-9.2"/>
    <path class="st34" d="M675.9,648.5l.7-2.5-9.8.6,3.4-6.4h.1c.9-.9,1.4-1.7,1.3-2.3-.1-.5-.5-.8-.8-1l-69,1.8,3.3,16.8v34.9c0,1-.1,2-.2,2.8.8-.1,1.8-.2,2.8-.2,1.7,0,3.1.3,4,1,.8.6,1.3,1.5,1.3,2.6-.1,3-.2,6-.2,8.8,2.9-.1,12.9-.6,23-.8,4.5-.1,8.3-.1,11.5-.1,5.6,0,9.2.1,11.1.5v-4.1c-.3-1.1-2.2-8.4-1.3-13.8v-.8c.1,0,.8-.2.8-.2,1.8-.5,3.3-1.3,3.8-1.6-.1,0-.1-.1-.3-.2l-.7-.3v-.8c0-.5.3-4.8,2.9-6.2.5-.2,1-.5,1.6-.5s.7,0,1,.1c.3-.8.6-2.1-.3-3l-.3-.3v-.5c0-1.1.1-4.7,2.1-5.5.2-.1.6-.1.8-.1.6,0,1,.2,1.6.6l-.7-5.2h3.4c.5-2-.7-5.2-1.3-6.4l-.6-1.1,4.2-1.7.8-4.6Z"/>
    <path class="st22" d="M863.9,666.9c0-.1.1-.1.1-.2-3.8-3.6-15.7-11.5-23.3-16.2-.1,0-.6-.1-1.3-.1-3.8,0-12.2,1.5-15,2.2l-1,.2-.3-1c-.8-2.5-3-3.8-6.3-3.8s-3.3.3-3.4.5h-14.2c0,.1-.2,0-.2,0-1.5,0-6.9,2.8-12.2,6.1-.3.3-2.8,2.5-2.3,4.4.5,1.5,3,2.8,7.4,3.4h.6c0,.1,3.4,6.3,3.4,6.3.1.1,3.6,5.2,6.9,5.3h.8l.3.7s1.8,4.1,6,5.4l.7.2.2.7c0,.2,1.4,4.7,6.8,6.4h.3c0,.1.2.3.2.3.1.1,3.4,4,4.1,8.2v.3l2.8.9h.1c.2.1,4.1,2.8,3.6,8.6h8.5c4.4-4.6,2-7,2-7h2.8c-.5-2,4.5-4,4.5-4,0-2.3,4.3-4.2,4.3-4.2.5-5.5,5.1-4.5,5.1-4.5-.5-5.3,1.3-5.3,1.3-5.3-1.6-6.1,7.1-13.8,7.1-13.8"/>
    <path class="st22" d="M919.9,428.6v.5c1,.8,1.5,2,1.5,3.1,0,3.3-3.3,6.8-4.7,8v9.5l-1.3,11.3,1.4,2.2-1.4,4.6v2.6l16.5-2.3v-1.4h0c1.7-4.4,6.9-5.1,10.1-5.1.2-.5.5-1.1.7-1.8h-7v-2.6c-.5,0-1-.1-1.5-.5-2.6-1.5-3.2-6.9-3.3-8.6l-4.1-14.2-4.1-13.4c-3.1.7-2.1,7.9-2.1,7.9l-.7.2Z"/>
    <path class="st48" d="M400.7,717c.6-.7,1.5-1,2.8-1s3.7.8,4,.9l.2.2c1.7,1.5,28.8,3,53.2,3.7l6.9-94.8c-30.4-2.1-83-9.9-92-11.3l-15,112.9,14.8,2.3,2-9.8,23.3,2.8c-1.1-2.9-1.3-4.7-.1-6"/>
    <path class="st34" d="M704,725.1l.2-21.2,1.3-22.6v-15.5l-1.7-1.1h-.1c0-.1-31.2-.1-31.2-.1l.3,2.6c1.5,3,1.3,3.9.5,4.5-.2.1-.5.2-.8.2-.8,0-1.5-.7-2.6-1.8-.6-.7-1-.8-1-.8-.1.1-.5,1.3-.5,2.8,2,2.3.7,5.3-.2,6.5l-.6.8-.9-.5c-.3-.2-.7-.3-.9-.3s-.3,0-.5.1c-.8.5-1.4,2.1-1.6,3.6.9.7,1,1.5.9,2.1-.2,1.7-2.8,2.9-4.9,3.6-.7,5.2,1.4,12.1,1.4,12.2v7h-1.3c.6,4.6,1.6,7.9,2.2,8.2l.6.2,2.1,6.2h-2.2l.5,2.2-.5.5c-.1.1-7.5,8.4-7.2,20.2l30.4-1.5-.2,1.5c-.5,2.8-.8,8.5,1.7,9.3h.5c0,.1,3.8,8.2,3.8,8.2.2-.1.3-.2.3-.2,4.5-7.8,8-4,8-4,5.3-3.2,6,.5,6,.5l1.8-.2c.2-5.5-1.8-22.3-3.4-32.7"/>
    <path class="st34" d="M692.1,776.5c-3.8-1-1-5.5-1-5.5,1.3,0,4.2-1.7,4.2-1.7,1.3-4.3-2.5-4.5-2.5-4.5-1.5,6.5-5.1,3.8-5.1,3.8-3-1.6-.8-3.8,1.4-5.3l-3.4-7.4c-3.6-1.6-3.4-7.2-3.1-10.3l-29.9,1.5v-1.1c-.8-11.8,5.5-20.6,7.2-22.6l-.9-3.9h1.8l-.7-2.1c-1.8-1.5-2.8-6.7-3.2-10.2-1.5-.1-4.4-.3-9.6-.3-10.3,0-25,.6-34.8,1-.1,6.9-.1,12.5.2,13.4v.2c.1,0,.1.2.1.2,0,.1-.8,7,2.6,7.8h.6c0,.1.2.6.2.6,1.3,2.5,1.8,4.4,1.6,5.5,1.5,1.6,5.2,6.1,4.1,11,0,1.6-.3,8.8-3.9,10.8-.2.1-.3.2-.6.3,1,1,4,4.6.9,10.1l-.2,6.3c8.7-2.3,13.7-.8,13.7-.8,3.8,3.8,17.2,3.4,17.2,3.4-2.5-9.3,3.8-3.4,3.8-3.4,5.7-3.2,6.5,2.8,6.5,2.8,7.5-.2,5.7,6.5,5.7,6.5,4.7,4,8.3,2,8.3,2,0-3.4,4-3.2,4-3.2,1.7-2.8,3.4.5,3.4.5,4.5,3.8,3-4.5,3-4.5l3.2-1.7c1.5.8,2.5,3,2.5,3,4.7-.5,7.8,4.2,7.8,4.2,6.8.8,3-3,3-3-.7-2.5-8.4-3.4-8.4-3.4"/>
    <path class="st34" d="M593.9,499.9l-20.9-.2h-1.4c-.2,3.2,1.6,3.9,1.6,3.9l.6.2.2.6c.8,2.2-.8,7.9-1.5,10.7,1.6,2.3,2.1,3.7,1.1,4.5h-.1c0,.1,2.5,7.4,2.5,7.4.9,1.1,3.2,4.6,2.9,7.5.8,1,2.8,4,2.8,8.8l1.7,11.6h0c0,.1,60.3-2,60.3-2l.3.5c1.6,2.1,3.2,3.4,3.9,3.9,0-.5,0-1.3-.3-2.9l-.3-1.5h3.6v-3.9l.6-.3s1.4-.8,1.6-2.3c.2-1.3-.5-2.6-1.8-4.1-.1-.1-1.4-1.8-.6-3.8.7-1.7,2.6-3,5.9-3.6h.5c0,.1.5.1.5.1.5,0,1.3-.1,2.2-.7,1.8-1.1,3.2-3.7,3.9-7.4v-.3c.2-.1.6-.7.2-1.5-.3-1-1.6-2-3.4-2.6l-.7-.2v-.7c-.1-.1-.7-3.6-3.4-4l-1.5-.2.7-1.4s.1-.5-.1-.8c-.2-.5-1-1.3-3.8-1.6h-.3l-4.7-4.5,1.4-6.8h.8c0-.1.2-.2.2-.3,0,0,.3-.9-1.8-3.6h-19.3l-33.8,1.6Z"/>
    <path class="st22" d="M951.2,485c-4-8-6.5-7-6.5-7-6.2,1.7-2-8-2-8-1.7-2.2-1.8-4.4-1.5-6-2.5.1-5.7.8-6.9,3.2v2.9l-20,2.8-7.5,1.6v12.2c-.1,0,28.8-6.8,28.8-6.8l.5.6c.7.9,6.4,8.3,9.4,11.5h.1c2.5-8.5,5.5-1.7,5.5-1.7.8-3,8.7-3.8,8.7-3.8l-.8-3.2c-7.1,5.9-7.9,1.8-7.9,1.8"/>
    <path class="st22" d="M978.8,407.6c-4.6,3.6-4.6.5-4.6.5-1-11.1-8.2-7.6-8.2-7.6l-7.1-25.8-9.2-4.6c2.1,2.5-5.1,5.6-5.1,5.6-7.6-1-3.1-5.1-5.6-4-2.5,1-6.5,17.2-6.5,17.2,2.5,4.6.5,7.1.5,7.1-3.1,0-3.1,6.1-3.1,6.1,9.6,3.1,4.6,4,4.6,4-6.1,2.5-6.1,15.3-6.1,15.3h-3.1c-.1,0-.1-.1-.2-.1l3.8,11.9,4.3,14.6h0c.1,2.4.9,6.2,2.1,7,.1,0,.2.1.3.1s.3,0,.6-.1l1.7-.9v3.7h5.2c1.3-5.3,2-12.7,2-12.7,4.6,1,7.6-2.5,7.6-2.5-.5-3.1,4.6-4.4,4.6-4.4,1-16.5,5.1-8.4,5.1-8.4,6.5-6.5,8.6-4,8.6-4l7.6-6.1c6.5-7.7.5-11.8.5-11.8"/>
    <path class="st22" d="M891.1,551.3c-1.4-1-2.2-2.8-2.5-4l-3.3-3c-.3.6-.7,1-.8,1.3,1.7,5.7,4.1,14.5,4.8,17.9l10.8-.2-.6-1.7c-3.3-.1-8.4-10.2-8.4-10.2"/>
    <path class="st22" d="M906.5,521.3l2.6-7.9-3.1-1.7c-5.3-.8-13.3-4.4-13.7-4.6l-.8-.3-2,6.2-1.3,1.8c.5.7.9,1.6.7,2.6-.1.6-.5,1.4-1.5,2.1-.1.2-.2.7.1,1.7h4l-.9,1.7s-.3.7,0,1.5c.3.9,1.6,1.8,3.3,2.5.7,0,2.4.2,3,1.7.6,1.6-1,3.3-2.3,4.5-2.9,4-3.9,4.9-4.6,5.1-.6.5-3,3.3-4.6,5.4l2.6,2.3c6.9,5.6,11.8,5.4,11.8,5.4l.8,5.3c2-.5,2.8-6.8,2.8-6.8,4.2-2.8,5.3-14.5,5.3-14.5l-1-10.8c-6.7-.7-2.1-2.9-1.4-3.2"/>
    <path class="st22" d="M908.1,509.5h0c0,.1,2.5,1.6,2.5,1.6,6.7-7.3,15.7-9.4,15.7-9.4.5.2,2.1-.2,3.9-.9h0c1-3.6-.9-13.2-1.6-16.5l-21.8,5.2c.6,3.2,2.4,14.9,1.3,20.1"/>
    <path class="st22" d="M934.7,482.7l-3.7.9c.7,3.2,2.3,11.5,1.8,16.1,2.4-.9,4.5-1.8,4.5-1.8.8-1.7,2.5-3.2,2.5-3.2.8.6,2.4-.2,3.7-1-2.8-3.2-7.4-9.1-8.8-10.9"/>
    <path class="st34" d="M723.9,757.2l-.3-10.2-3.7-2.5v-4.9l43.2-3.8c-1-2.4-1.6-5.2-1.6-5.3v-4.8c-1.8-2.6-1-9.5-.8-10.8h0c0-.1.1-.5.1-.5.9-1.5,1.3-2.4,1.5-3-.1,0-.2.1-.5.2l-1.8,1v-5.5l-3.6-6.9-11.5-40.4-14.8,1.6-20.9,1.7-2.5.7,1.1.7v16.9l-1.3,22.6-.2,21c0,.2,3.7,24,3.3,32.7h.2v-1.5l4.7-.2c2-12.7,6.5-2.5,6.5-2.5.8,1.7-.3,4.4-.7,5.1.6-.5,2-.9,3.4-1.4"/>
    <path class="st22" d="M769.4,527.4l-4-4c0-.6,0-1,.1-1.5l-16,3.1-4.7.7-.5,4.9,1.8,6.9,1.5,10,.7,11.8,1.5,10.7.3,4c.7-.1,1.5-.2,2.5-.2,2,0,3.6.5,4.8,1.3,1.3.9,2.2,2.2,2.5,3.9h6.2v1.1c0,.7.2,1.4.3,1.6,0,0,.6-.1,2-1.6l.3-.3,5.5-.2v1.1c.2-.5.8-1.1,1.5-2.3l.2-.2c.3-.2,1.5-1.1,2.9-1.1s.9.1,1.3.3c1.3.7,1.8,2.3,1.7,5.1,1.1.6,2.5,1,3.7,1s.8-.1,1-.2c.2-.1.7-.3.7-1.8v-.9l2-.6c-.2-3.2-.2-8,2-9,.2-.1.6-.2.9-.2.9,0,2,.6,3.1,1.8,0-.2,0-.9-.5-2.2-.2-.3-.6-.9-.6-1.8,0-1.5.9-3.1,2.6-4.8,0-1,.5-1.8,1.1-2.2.2-.1.5-.1.8-.1.7,0,1.4.3,2.3,1,1-1.1,2.9-3.6,4.9-7v-10.9c.1,0,1.7-4.9,1.7-4.9v-.3c-.1,0,.1,0,.1,0l.2-.7-2-15.3-1.4-8.6c-7.5.6-12.5,10.7-12.5,10.7-4-1-14.9,4-14.9,4l-2.4-3.1-5.6,1.1Z"/>
    <path class="st22" d="M775.9,497.4c-2.5-2.5-4.6-13.7-4.6-13.7.5-9.6-8.2-4.6-8.2-4.6-5.6,9.6-8.2,9.2-8.2,9.2-6.5-8.2,1.5-9.2,1.5-9.2l1.5-5.1c3.6-3.6,0-9.6,0-9.6-2.5-1.5-2.1-4.6-2.1-4.6,4.6-2.1,0-7.1,0-7.1-1.5.5-6.1,0-6.1,0-7.6-6.5-8.2-2.5-8.2-2.5-8.2-7.1-7.1,2.1-7.1,2.1,5.6,2.1-4,5.6-4,5.6,1.5,8.2-3.6,9.6-3.6,9.6v-9.2l-2.1,4c-6.5,2.1-3.1,6.1-3.1,6.1-4.6-1.5-2.5,4-2.5,4-3.6,9.6-2.1,18.7-2.1,18.7,12.3,26.4,2.5,30.9,2.5,30.9-.5.7-.8,1.3-1.1,1.8,1.8,0,4.1-.2,6.4-.7h6.2l5.2-.8,7,.8,5.4-.8,9.4-1.8,7.9-1.5c1-1.6,2.4-2,2.4-2-2.5-5.1,3.1-9.2,3.1-9.2,2.5-8.6,4-2.1,4-2.1,3.3-.8.2-8.5.2-8.5"/>
    <path class="st48" d="M314.8,381.5c1.5,1.3,3.8,4.4,1.7,11.5.6,1.6,1.8,3.6,3.2,4h.7c0,.1.2.7.2.7.8,2.6,3.6,10,6,11.6,1.1.5,4.7,2,5.2,4.6.2,1.5-.6,3-2.4,4.2-1.8,4-4.6,11.5-3.3,14.8.1.3.3.7.6.9,1.5-1.5,3.8-3.4,5.7-3.4s.8.1,1.1.2c1.6.8,1.8,3.2.9,7.6.7,3.8,2.6,9.9,4.7,11.4h.2c.5,0,.9.1,1.4.3,1.6,1,2.3,3.8,2.1,8.6.3-.3.8-.8,1.3-1.4l.5-.6.8.2s2.3.6,4.9.6,1.8-.1,2.8-.2h.5c.8,0,3.4.1,5.7,1.6,1-1.5,2.9-3.4,5.1-3.4h.5c1.3.2,2.3.9,3.1,2.4l.9-6.8,96.9,11.8c.6-3.3,2-11.7,2.4-16.4h0c.2-3.9,1.1-16.5,1.3-20.4v-.9c0-.8.3-4,.9-9,.9-8.5,2.6-23.4,2.6-28.4-39.6-3.8-73.6-7.6-73.6-7.6-27.2-4.2-55.5-10-80.7-15.6-1.1,4.1-2.9,13.8-3.8,17"/>
    <path class="st36" d="M270.3,684.7c4.6-3.4,6-5.1,6.3-5.7h-.2c-.6,0-1.1.1-1.7.2l-1.5.3v-9.6l.6-.3c3.9-2.3,3-7.7,3-7.8v-.6c1.5-4.5,5.7-6.4,6.8-6.9.8-.6,1.7-1.5,1.7-2.4-.1-.9-1.1-1.7-1.7-2.1-2.2-1.4-3.3-8.7-3.8-12.2l-63.2-94.3,14.6-58.1c-22.7-5.4-47.5-11.6-56.3-14.9l.3,3.1c1,11.3-8.3,21.2-8.3,21.2-4.2.8-3.4,6.8-3.4,6.8,10,25,1.3,19.8,1.3,19.8v9l7,14.5s-1.3,5.5,0,5.5,4,4.7,4,4.7l1-3c6.8-4,3.8,2.8,3.8,2.8l-2.3-.5,2,3.2c3,11.3-2.8,4.7-2.8,4.7.2-12.5-3,.5-3,.5-1.7,4,2.8,12.1,2.8,12.1,8.7.2,2.8,8,2.8,8-4.2,1-2.3,5.7-2.3,5.7,1.3,0,4.5,6.3,4.5,6.3-2,.8,1.7,7.7,1.7,7.7-.5,1.5,7,14,7,14l-3,9.8,1.3,3.2c14.5,1.7,18.3,8.3,18.3,8.3,1,5.3,4.7,6.2,4.7,6.2,8.7-1,7.8,8,7.8,8,13,2.3,13.8,17,13.8,17v11.5l36.5,4.4Z"/>
    <path class="st22" d="M928.7,505.5c-.5,2.8-10.8,6.2-10.8,6.2-5.5-.5-6.2,2.3-6.2,2.3-.9.9-1.6,1.5-2.1,1.8l-1.8,5.4c13.4-1,24.3-15.2,24.3-15.2l-3.4-.6Z"/>
    <path class="st22" d="M804.5,618.3c9-1.3,75.9-10.5,90.4-15.8l-1.5-3c-3.4-1.5-5.7,3.8-5.7,3.8-2.5-.2-8.5-8.5-8.5-8.5-.8-4.9,5.5,3.4,5.5,3.4,4,2.8,4,0,4,0-8.3-9-1.7-7.5-1.7-7.5-2-4-1.3-9-1.3-9-3.2-.7-4.6-3.3-5.1-5.9l-12.3-1.5h-.1c-2.8-1-4.2-2.5-4.6-4.4-.3-2.2,1.6-4.1,2.4-4.8.2-1.6,0-2.8-.8-3.6-1.3-1.4-3.6-1.5-4.5-1.5h-1.8c0,.1-.1-1-.1-1-.2-1.8-.9-3.2-1.7-3.8-.2-.1-.3-.2-.6-.2v1.3l-1.6,4.2-7.9-3.8-1.1,5.5-1.3-1c-.2.6-.7,2-.9,3.7v.6c-.1,0-2.4,1.5-2.4,1.5v3h-3.4l-1.1,8.4h-5.3l-.3-.7c-.7-1.4-1.3-2.2-1.5-2.5-.1.7-.3,2.1-.2,3.8v.3l-3,5.6-2.4,8.4c.5,1.6.5,2.9-.1,3.9-.3.8-1,1.3-1.4,1.5-2,2.2-5.2,2.5-6.8,2.6-.8,2.9-2,4.7-3.6,5.3-.5.1-.9.2-1.4.2-1.1,0-2.1-.6-2.2-.7l-.5-.3v-.5c-.2-.5-.3-.6-.3-.6-.8,0-2.8,1.3-4.1,2.8l-.5.5h-.6c-3.9-.6-6.5-3.3-7.8-5.1l-9.4,9.3v4.7l-5.1,3.7c1-.1,1.5-.2,1.6-.2l16.8-2c.7-.8,2-2.1,3.3-2.1s.6,0,.8.1c.9.5,1.4,1,1.7,1.7"/>
    <path class="st22" d="M899.6,617.1c-4,3-3.4,0-3.4,0-.5-1-3.8,1.7-3.8,1.7-14,4.2-1-4-1-4,4.5-3,5.5-1.7,5.5-1.7,5.3,3.2,4,1,4,1l-4.8-9.4c-14.7,5.5-80.9,14.7-91,16.1.1.8.1,1.7,0,2.8v2c-.1,0-1.7-.9-1.7-.9h-.2c-.3.1-1.6,1-3,5.6l-.6,1.8-1.4-1.3s-.8-.7-1.6-.7h-.3c-.8.2-1.5,1.4-2,3.1v.5c-.1,0-.6.2-.6.2-.1.1-.7.3-1.4.3s-.8-.1-1.1-.3c-.5-.2-.9-.7-1.1-1.3l-2,1.6v4l-5.4,1.7c-.6,1-2.3,3.3-6.2,4-1.6,1.1-3.2,2.2-3.9,2.8v1c-.3,1.5-1.8,2.9-4.4,4.2v1.3c-.1,0,17.1-1.3,17.1-1.3,3.2-2.1,10.3-6.3,13.4-6.3s.5,0,.7.1h13.3c.6-.2,2.1-.6,3.9-.6,4,0,6.9,1.5,8.3,4.4,2.9-.6,10.3-2,14.4-2s1.8.1,2.4.3c.2.1,19,11.7,24.2,17,3-1,7.8-1.1,7.8-1.1-1-6.2,4.7-11,4.7-11,5.1-8.3,15-9,15-9,6.2-4-2.3-5.7-2.3-5.7,2.3-3.2-.8-7.8-.8-7.8,1,1.3,7,0,7,0,1.7-6,3.8-6.2,3.8-6.2,3.7-2.2-1.6-7-1.6-7"/>
    <path class="st22" d="M767.9,656v1.1c-.1,0-20.4,2.3-20.4,2.3l11.3,39.9,3.7,7.1v2.3h.3c.6,0,1,.2,1.4.6,1.3,1.3.1,3.7-1.3,6-.3,3.1-.6,7.9.5,9.1l.2.3v5.4c.7,2.4,1.5,4.6,2.3,5.9l3.2,3.6,45.3-2.3v3.7h.9l.3-3.2c-1-1.1-2.5-3.1-1.7-4.7.5-.9,1.5-1.4,3.1-1.4s.9,0,1.4.1h8.8c-.1-4.6.9-6.8.9-6.8,1.7-10.5,5.5-16.8,5.5-16.8h.1c0-.1-8.8-.1-8.8-.1l.3-1.5c1-4.7-1.6-7-2.2-7.5l-3.9-1.3v-.8c0-.3,0-.6-.1-.9-.5-2.9-2.8-5.9-3.3-6.8-5.3-1.7-7.2-5.7-7.8-7.3-3.9-1.4-5.9-4.6-6.5-5.9-4.4-.7-8-6.1-8.2-6.3l-2.9-5.3c-5.1-.9-8-2.5-8.7-5.1-.5-1.6.2-3.2,1-4.5l-14.7,1Z"/>
    <path class="st22" d="M816.3,507l9.8-2.6,25.5-5.1,11.5-2,8.7-1.7c.6-.2,3.4-1.3,6.1-1.3s2.2.2,2.9.7c.6.3,1,.8,1.3,1.4h2.3c0-.1.1,1,.1,1,0,.2.6,5.5,5.3,5.9h.2l3.3,1.4c.1,0,7.5,3.3,12.4,4.2.9-3.3-.2-13.7-1.4-20.7v-14.7c.1,0-3.3-12.5-3.3-12.5-1.5-.3-2.5-1.1-3.1-2.2-.7-1.3-.5-2.8-.2-3.7-1.6-1.5-2.5-5.2-2.9-6.2v-.3c-.1,0,0-.3,0-.3.5-1.6.2-4.5,0-5.7-1.3-1-2.1-3.9-2.6-8.8-6.3,1.3-6.3,3.9-6.3,3.9-12.2-.8-13.7,4.4-13.7,4.4-2.5,4.6-13.7,17.2-13.7,17.2,4.6,1.5,4,6.1,4,6.1,2.1,1.5,5.6,8.2,0,6.5-5.6-1.5-6.5,7.1-6.5,7.1-6.5-1.5-9.6,2.5-9.6,2.5-5.6-5.1-12.6,0-12.6,0-18.7-2.1-6.1,10.1-6.1,10.1,5.1,1.5-11.1,13.2-11.1,14.2s-.1.2-.2.3v.8h.1Z"/>
    <path class="st22" d="M889.4,505.8h0c-4.9-.5-6.7-4.8-7.1-6.9h-2.1c0,.1-.1-1-.1-1,0-.3-.2-.6-.5-.8-.3-.2-.9-.3-1.6-.3-1.8,0-4.4.8-5.4,1.1l-9,1.8-11.5,2-25.4,4.9-12.7,3.4v-1.6c-2.2,1.8-5.3,4-6.9,5.2l1.5,9.1,2.1,15.8-.2.9,3,12.9,20.1-2.6,14.4-3.7,13.8-2.3,13.2-3,8.2-1.4.3,1c.1.3.3,1,.6,2.1,1.8-2.6,4.8-6.2,6-6.7.3-.2,2-2.2,3.4-4.4h.1c1.3-1.3,1.6-1.8,1.7-2.1-.2-.1-.6-.1-.9-.1h-.3c-2.8-1-4.4-2.4-5.1-4-.2-.6-.3-1.1-.2-1.7h-2.1l-.3-.7c-1.7-3.8.2-5.2.5-5.4.3-.2.5-.3.6-.5,0-.3-.3-1-.7-1.3l-.7-.7,2.1-3.2,1.4-6Z"/>
    <path class="st36" d="M203.7,385.9l-.3,2.2c.5,0,.9-.1,1.5-.1,1.4,0,2.5.2,3.4.6l1,.5-.3,1s0,.2.1.6c.3.6,1.3.9,2.5,1.1h.2c.2.1,2.8,1.1,3.7,4.1.8,2.2.5,4.8-1,7.7.7,1.1,3,3.6,8.5,3.6h.5c.3-.6.8-1.3,1.7-1.6.5-.2.8-.2,1.4-.2.9,0,2,.3,3,.9,1.1.2,5.6,1.3,7.9,3.4.8-.2,2.4-.5,4.1-.5s2.8.2,3.8.7h.2c0,.1.6.6,2.1.6s2.2-.2,3.6-.6h.2c.8,0,2.8-.1,5.1-.1,3.8,0,6.2.2,7.4.8h2c5.2,0,8.4.7,9.6,2.2l16.8,3.3c-.1-.6-.1-.9-.1-1.3-1.3-5.1,8.7-43.3,11.4-53.5-39.9-9.3-69-17.5-69-17.5,3.8,6.8,1.7,11.7,1.7,11.7.5,1.7-.8,3.4-.8,3.4,3,13-3.2,1-3.2,1-1-2.8,2-3.4,2-3.4-4-3.2-3.4,3.8-3.4,3.8-11.7-.2-21.2-10-21.2-10-6.8-7.5-3.2,8-3.2,8v14.1c.2,3.8,3.4,5.3,3.4,5.3-7.8-.5-4.5,2.8-4.5,2.8,6,3-1.5,5.3-1.5,5.3"/>
    <path class="st34" d="M565.6,399.4c-.1,6.3.5,12.4,1.4,13.1.6.2,2.6,2.1,2.1,12.3,0,3.3.5,9.8,2,12.9.7,1.5,1,2.2,1,2.8,1,2.1,2.3,6.2,0,10.6v3.6l-.9.2c-1.7.3-2.4.9-2.5,1.3-.1,1,2.2,3.3,5.1,5.1l.6.3v35.7l19.8.2,33.9-1.7h18.5l-.8-6-8.6-5.7v-.5c-.6-2.3-4-3.4-4.1-3.4h-.6c0-.1-.2-.7-.2-.7-.8-2-4.9-4-7.4-4.7h-.5c0-.1-.2-.6-.2-.6-1.7-3.3-.1-10.7.1-11.5v-.2c.6-.9,1-2.2.6-3-.5-.8-1.8-1.1-2.3-1.1h-1.1c0-.1.1-1.3.1-1.3.2-4,1.5-7.1,3.8-9.1,2-1.6,4-2.1,5.2-2.1l4-8.2c-2.2-.3-2.4-1.5-1.7-1,1.5,1,13.7-11.7,13.7-11.7-1.5-6.1,19.8-15.2,19.8-15.2-7.6-4.6-11.1,0-11.1,0-4-.5-4.6-3.6-4.6-3.6-3.6,4-10.1,3.6-10.1,3.6-3.1-5.1-10.1-5.1-10.1-5.1-5.6-5.6-12.2-5.1-12.2-5.1-4.6,6.7-7.6,0-7.6,0-12.2.5-12.2-4.6-12.2-4.6.5-10.7-5.1-10.1-5.1-10.1v9.2c-4,1-13.7,1.3-26.5.8,0,1-.1,2.8-.9,4.5"/>
    <path class="st48" d="M356.3,532.1h-1.3c0-.1,3.6-20.2,3.6-20.2-6.7-.3-23.4-3.6-40.3-7.1l-20.2,94.4,2,.3c26.6,4.9,66.6,12.1,73.8,12.5l10.1-76.4c-10.7-1.3-20.4-2.6-27.7-3.6"/>
    <path class="st48" d="M479.7,624.1h2.6c.6-5.3,3.4-33.1,2.3-39.6-.3-3.2.6-12.2,1.4-20.7.7-7,1.4-14.2,1.4-17.1l-27.7-2.3h-.8c-6.9,0-42.8-4.5-72.7-8.3l-10.1,76.3c10,1.5,78.3,11.7,103.6,11.7"/>
    <path class="st34" d="M603,690.1v-34.7l-3.8-19.1.8-7.4-116.2-2.6c-1,.1-2.3.1-3.7.1-2.8,0-6.1-.1-9.6-.3l-.5,6.7,47.4,1.5v1.1c-.3,15.3-.9,34.1-1.7,38.4,1.8,2.4,4,4.4,4.9,4.4s.3-.3.5-.6v-.2c.3-.3.9-1,1.7-1s.3,0,.5.1c.5.1.7.5.9.8v-.7l.5-.3c.1-.1.7-.6,1.5-.6s.6.1.8.2c1.3.6,2,2.3,2.1,5.5,5.5.3,9,1.1,10.6,2.4h0c0-.1.2-.5.2-.5.2-.3.8-1.1,1.7-1.1h.3c.8.2,1.1,1,1.3,1.7l3-.2-.5,1.7s-.1.5.1.7c.2.2.7.5,1.5.5h1.1v1.8l-.2.3c-.1.1-.1.3-.1.5.1.1.6.3,1.7.3s1.1-.2,1.1-1.1v-1.6l4.7,1.4.2.2c1.8,2,4.6,4,5.9,4h.3c.3-.1.8-1,.8-2.9v-.3l.2-.3c.2-.5,1-1.4,2.1-1.4s.3,0,.5.1c1,.3,1.4,1.5,1.5,2.5h3.3l.3.2c.1,0,1.8,1.3,3.8,1.3s2.1-.5,2.9-1.1l.2-.2,5.7-.9c.3-.5.9-1.1,2-1.4.2,0,.3-.1.6-.1.9,0,2,.5,2.9,1.4h1.6c0-1.1.5-2.1,1.3-2.4.3-.1.6-.2,1-.2,1.3,0,2.8.9,4.8,3,1.8,2.5,4,4.6,4.9,4.6s.2-.1.2-.2h0c0-.1.1-.1.1-.1-.1-.9.1-1.8.1-3.7"/>
  </g>
  <text class="st7" transform="translate(828.7 798.6)"><tspan x="0" y="0">FL</tspan></text>
  <text class="st7" transform="translate(335.3 569.6)"><tspan x="0" y="0">UT</tspan></text>
  <text class="st7" transform="translate(314.8 477.9)"><tspan x="0" y="0">ID</tspan></text>
  <text class="st7" transform="translate(228.7 450.7)"><tspan x="0" y="0">OR</tspan></text>
  <text class="st7" transform="translate(203.4 588)"><tspan class="st44" x="0" y="0">C</tspan><tspan class="st37" x="9.4" y="0">A</tspan></text>
  <text class="st7" transform="translate(388.4 420.5)"><tspan x="0" y="0">MT</tspan></text>
  <text class="st7" transform="translate(260 550.5)"><tspan x="0" y="0">NV</tspan></text>
  <text class="st7" transform="translate(424.1 586.6)"><tspan x="0" y="0">CO</tspan></text>
  <text class="st7" transform="translate(407.8 676.9)"><tspan x="0" y="0">NM</tspan></text>
  <text class="st7" transform="translate(402.5 504.8)"><tspan x="0" y="0">WY</tspan></text>
  <text class="st7" transform="translate(550.2 665.3)"><tspan x="0" y="0">OK</tspan></text>
  <text class="st7" transform="translate(256.8 388.2)"><tspan class="st40" x="0" y="0">W</tspan><tspan x="12" y="0">A</tspan></text>
  <text class="st7" transform="translate(590 454.5)"><tspan x="0" y="0">MN</tspan></text>
  <text class="st7" transform="translate(603.1 531.6)"><tspan x="0" y="0">IA</tspan></text>
  <text class="st7" transform="translate(623.4 603.2)"><tspan x="0" y="0">MO</tspan></text>
  <text class="st7" transform="translate(628.4 672.4)"><tspan x="0" y="0">AR</tspan></text>
  <text class="st7" transform="translate(628.4 746)"><tspan x="0" y="0">LA</tspan></text>
  <text class="st7" transform="translate(676.6 709.2)"><tspan x="0" y="0">MS</tspan></text>
  <text class="st7" transform="translate(722.5 709.2)"><tspan x="0" y="0">AL</tspan></text>
  <text class="st7" transform="translate(713.4 648)"><tspan x="0" y="0">TN</tspan></text>
  <text class="st7" transform="translate(748.6 605.9)"><tspan class="st43" x="0" y="0">K</tspan><tspan x="8.6" y="0">Y</tspan></text>
  <text class="st7" transform="translate(673.7 568.3)"><tspan x="0" y="0">IL</tspan></text>
  <text class="st7" transform="translate(658.2 481.5)"><tspan x="0" y="0">WI</tspan></text>
  <text class="st7" transform="translate(735.4 504.8)"><tspan x="0" y="0">MI</tspan></text>
  <text class="st7" transform="translate(722.5 569.6)"><tspan x="0" y="0">IN</tspan></text>
  <text class="st7" transform="translate(768.1 555.5)"><tspan x="0" y="0">OH</tspan></text>
  <text class="st7" transform="translate(796.5 588)"><tspan x="0" y="0">WV</tspan></text>
  <text class="st7" transform="translate(840 528.1)"><tspan class="st38" x="0" y="0">P</tspan><tspan x="7.6" y="0">A</tspan></text>
  <text class="st7" transform="translate(873.7 483.7)"><tspan x="0" y="0">NY</tspan></text>
  <g class="st24">
    <path class="st48" d="M495.7,472.2l8.5-23.1-34.1-1.5c-.8,6-2.5,15.8-2.6,16.7v1.3c-.8,9.2-2,23.3-3.1,37l46.8,2.7v-.3l-15.4-32.8Z"/>
    <path class="st34" d="M543.9,506.5l5.9,5.2v.6c-.1,0,.2,0,.2,0,.6,0,1.8-.2,4.2-1.4h.3c0-.1.3-.1.3-.1.7.1,1.5.2,2.2.2,1.4,0,2-.2,2.1-.3l.7-1.4,1.1,1s3.9,3.6,6.7,3.7h.5l.3.2c.5.3.9.8,1.3,1.1v-.6c.9-2.6,2.1-7.5,2-9.3-1-.7-3.2-2.6-2.4-7.2l.2-1h2.2v-34.3c-2.1-1.4-6.1-4.4-5.6-7.1.2-1.4,1.4-2.4,3.4-3v-.8l-65.3-2.8-8.5,23.1,15.4,32.8v.3l19.7,1.2h13.1Z"/>
    <path class="st34" d="M569.3,441.1c-.1-.2-.3-.6-.7-1l-.3-.5.3-.2c0-.1-.1-.2-.1-.2-2.2-4.6-2.2-13.7-2.2-14,.5-8.7-1-10.3-1-10.3-2.5-1.7-2.5-11.4-2.4-15.3h0c0-.1.1-.5.1-.5h0c.7-1.6.8-3,.6-4.2-23.6-.9-57.2-3.7-87.8-6.6l-3.5,28.9c-.1,1.4-.3,2.6-.4,3.8h19.7l13.5,25.8v.2c0,0,64.8,2.8,64.8,2.8,1.7-3.7.5-7-.6-8.6"/>
    <path class="st48" d="M491.6,421h-19.7c-.2,2.2-.4,3.8-.4,4.2v1c-.1,3.6-.9,14.6-1.3,19.3l34.8,1.5v-.2c0,0-13.4-25.8-13.4-25.8Z"/>
    <path class="st34" d="M474.8,388.2c.2,4.1-.8,13.9-2.4,28.3,0,.3,0,.5,0,.8l3.5-28.9c-.3,0-.6,0-1,0"/>
    <path class="st48" d="M511.1,521.1v-13.2l-47-2.8c-1.4,16.9-2.6,32.6-3.1,37.2l28.5,2.4v.9c.5,2.2-.2,9.9-1.1,18.7v.2l13.7.4v-32.1l9.1-11.7Z"/>
    <path class="st34" d="M583.6,562.7c-.8-.6-1.8-2-3-7.1l-1.7-11.8c0-5.2-2.5-7.8-2.5-7.8l-.5-.6.2-.7c.6-1.8-1-4.8-2.3-6.4v-.2c-.1,0-3.2-8.8-3.2-8.8-.8-.5-2-1.4-3.6-2.8-2.6-.3-5.5-2.4-6.9-3.6-.7.3-1.7.6-3.1.6s-1.7-.1-2.3-.1c-2.1.9-3.7,1.4-4.9,1.4s-1.5-.2-2-.6c-.6-.5-.8-1-.8-1.5l-4.1-3.7h-12.3l-19.6-1.1v13.2l-9.1,11.7v32.1l82.9,2.2-1.3-4.4Z"/>
    <path class="st34" d="M598.5,584.8c-1.8-.5-3.3-1.5-4.2-2.9-1.8-2.9-1-6.3-1-6.4v-.2c1.5-2.5,1.4-3.4,1.4-3.7h-.2c-.2,0-.6.1-.8.1-.8.2-1.4.2-2.1.2-3.1,0-4.8-1.8-5.5-2.9l-83.9-2.2v1.5h-14c0,.8-.2,1.7-.2,2.5l-.3,10.1h18.2l-5.2,36.1h-14.9c-.2,2.1-.4,3.9-.5,5.3v1.5c0,0,114.9,3,114.9,3l-1.5-42Z"/>
    <path class="st34" d="M484.9,623.8h0s0-1.5,0-1.5c0,.6-.1,1.1-.2,1.5"/>
    <path class="st34" d="M502,566.9l-13.8-.4c0,.6-.1,1.3-.2,1.9h14v-1.5Z"/>
    <path class="st48" d="M505.7,581h-18.2l.3-10.1c-.5,5.9-.9,11.1-.8,13.1.9,5.2-.5,22.6-1.5,33.1h14.9l5.2-36.1Z"/>
  </g>
  <text class="st7" transform="translate(943.6 416.1)"><tspan x="0" y="0">ME</tspan></text>
  <text class="st7" transform="translate(894.8 420.5)"><tspan x="0" y="0">VT</tspan></text>
  <text class="st7" transform="translate(953.2 464)"><tspan x="0" y="0">NH</tspan></text>
  <text class="st7" transform="translate(965.4 482.7)"><tspan x="0" y="0">MA</tspan></text>
  <text class="st7" transform="translate(942.8 509.5)"><tspan x="0" y="0">RI</tspan></text>
  <text class="st7" transform="translate(918.7 536.1)"><tspan x="0" y="0">NJ</tspan></text>
  <text class="st7" transform="translate(915.4 557.7)"><tspan x="0" y="0">DE</tspan></text>
  <text class="st7" transform="translate(912.6 575)"><tspan x="0" y="0">MD</tspan></text>
  <text class="st7" transform="translate(909.1 592.6)"><tspan x="0" y="0">DC</tspan></text>
  <text class="st7" transform="translate(909.1 499.7)"><tspan x="0" y="0">CT</tspan></text>
  <text class="st7" transform="translate(779.9 703)"><tspan class="st41" x="0" y="0">G</tspan><tspan class="st35" x="9.8" y="0">A</tspan></text>
  <text class="st7" transform="translate(839.5 635.9)"><tspan x="0" y="0">NC</tspan></text>
  <text class="st7" transform="translate(816.2 676.8)"><tspan x="0" y="0">SC</tspan></text>
  <text class="st7" transform="translate(841.9 594.8)"><tspan class="st39" x="0" y="0">V</tspan><tspan x="8.8" y="0">A</tspan></text>
  <text class="st7" transform="translate(533.6 603.2)"><tspan x="0" y="0">KS</tspan></text>
  <text class="st7" transform="translate(515.7 542.3)"><tspan x="0" y="0">NE</tspan></text>
  <text class="st7" transform="translate(511.2 481.5)"><tspan x="0" y="0">SD</tspan></text>
  <text class="st7" transform="translate(513 423.2)"><tspan x="0" y="0">ND</tspan></text>
  <text class="st7" transform="translate(522.9 746)"><tspan x="0" y="0">TX</tspan></text>
  <g class="st27">
    <line class="st1" x1="904" y1="423.2" x2="904" y2="433.8"/>
    <line class="st1" x1="952.3" y1="460.3" x2="940.1" y2="460.8"/>
    <line class="st1" x1="940.1" y1="497.9" x2="937.3" y2="492.6"/>
    <line class="st1" x1="959.9" y1="477.9" x2="938.7" y2="477.9"/>
    <line class="st1" x1="916.9" y1="531.6" x2="906" y2="531.6"/>
    <line class="st1" x1="907.9" y1="569.6" x2="897.1" y2="569.6"/>
    <line class="st1" x1="910.3" y1="555.2" x2="894.6" y2="560.2"/>
    <line class="st1" x1="866.9" y1="559.2" x2="904.5" y2="585.2"/>
    <path class="st36" d="M299.7,434.7c5.1-.3,10.3-.6,15.4-1,2.4-.1,4.9,1,7.2.5.5-.1.9-.2,1.2-.4-1.8-5.3,3-15.7,3.6-16.9v-.2c.1,0,.3-.2.3-.2,1.1-.8,1.7-1.6,1.7-2.2-.1-1-2.3-2.3-3.7-2.8h-.2c-3.3-2.2-6.1-9.9-7-12.6-3-1.3-4.4-5.5-4.4-5.7v-.3c-.1,0,0-.3,0-.3,2.3-7.7-1.1-9.5-1.3-9.5l-1-.5.5-1c.5-1,2.2-10.3,3.4-17.5-3.6-.8-7-1.6-10.3-2.4-6.3,24-12.3,50-11.5,52.4v.2c.1.1.1.9.3,2.1h0c.3,2.1,1.1,4.8,2.9,5.6h.3c0,.1.2.5.2.5,1,1.5,2.1,5.1-.9,7.2-.7.8-4.3,5.6-5.6,7.4,0,0,0,.2,0,.3,2-3,5.2-2.4,8.7-2.6"/>
    <path class="st34" d="M693.7,440.5c-6.3-.8-13-1.4-19.4-1.4-2.6-2.2-5.7-4.5-8.5-6.7-.8,2.9-3.6,4.3-6.6,4.9.5.6,1.1,1.4,2.5,1.4h.1l8.5,2,3.6.6,3.1,1.7,12.4,1.7-.9,1.5s-.1.2,0,.5c.1.2.7,1,4.5,1.3h1c0,.1,1.1,10.7,1.1,10.7l3.4,3c2.1-4.2,4.4-8.2,5.6-10.3-3.2-3.3-7.9-7.3-10.4-10.7"/>
    <path class="st22" d="M742.9,437.8v-5.7c-8.6,3.6-12.2,1-12.2,1v-5.1l-5.6,3.1c-8.2-4-16.8,6.8-16.8,6.8-5.1-6.9-9.6,0-9.6,0-2.1-9.4-8.6-8.8-8.6-8.8-10.7,5.1-7.1,2.1-7.1,2.1-.5-6.1,9.2-13.2,9.2-13.2-2.5-.5-8.6,2.5-8.6,2.5-8.2,12.2-17.8,11.7-17.8,11.7,0,0,0,.2,0,.2,2.8,2.1,5.9,4.5,8.5,6.7,6.5,0,13.2.7,19.4,1.4,2.5,3.4,7.2,7.4,10.4,10.7.5-.9.9-1.5.9-1.5,8.6-3.6,9.6-.5,9.6-.5,3.9,2.4,2.5-5.7,2.5-5.7,2.5,1.4,6.1,0,6.1,0,3.6-6.2,7.1-1.4,7.1-1.4,5.1,3.1,9.6,0,9.6,0,1-2.5,7.6,0,7.6,0l-4.6-4.4Z"/>
    <path class="st18" d="M649.9,843.6c0-28.5,23.1-51.6,51.6-51.6s51.6,23.1,51.6,51.6-23.1,51.6-51.6,51.6-51.6-23.1-51.6-51.6"/>
  </g>
  <text class="st19" transform="translate(674.9 855.8)"><tspan x="0" y="0">10</tspan></text>
  <text class="st20" transform="translate(689.5 874.2)"><tspan x="0" y="0">AM</tspan></text>
  <g class="st25">
    <path class="st18" d="M271,798.6c0-28.5,23.1-51.6,51.6-51.6s51.6,23.1,51.6,51.6-23.1,51.6-51.6,51.6-51.6-23.1-51.6-51.6"/>
  </g>
  <text class="st19" transform="translate(306.9 810.9)"><tspan x="0" y="0">9</tspan></text>
  <text class="st20" transform="translate(310.6 829.2)"><tspan x="0" y="0">AM</tspan></text>
  <g class="st26">
    <path class="st18" d="M82.8,675.1c0-28.5,23.1-51.6,51.6-51.6s51.6,23.1,51.6,51.6-23.1,51.6-51.6,51.6-51.6-23.1-51.6-51.6"/>
  </g>
  <text class="st19" transform="translate(118.8 687.3)"><tspan x="0" y="0">8</tspan></text>
  <text class="st20" transform="translate(122.4 705.7)"><tspan x="0" y="0">AM</tspan></text>
  <g class="st31">
    <path class="st18" d="M908.3,675.1c0-28.5,23.1-51.6,51.6-51.6s51.6,23.1,51.6,51.6-23.1,51.6-51.6,51.6-51.6-23.1-51.6-51.6"/>
  </g>
  <text class="st19" transform="translate(938.7 687.3)"><tspan x="0" y="0">11</tspan></text>
  <text class="st20" transform="translate(947.9 705.7)"><tspan x="0" y="0">AM</tspan></text>
  <text class="st8" transform="translate(236.3 314.1) rotate(11.1)"><tspan x="0" y="0">PACIFIC</tspan></text>
  <text class="st17" transform="translate(239.4 332.4) rotate(11.1)"><tspan x="0" y="0">(</tspan></text>
  <path class="st12" d="M247.9,325.5l4.2.8c1.9.4,2.7,1.8,2.4,3.3-.3,1.5-1.5,2.5-3.4,2.2l-2.2-.4-.6,2.9-2-.4,1.6-8.3ZM251.5,327.9l-1.9-.4-.4,2.1,1.9.4c.8.1,1.2-.2,1.3-.8.1-.6-.2-1.1-.9-1.2Z"/>
  <path class="st12" d="M256.8,333.2c.5.7,1.4,1.4,2.5,1.6,1,.2,1.6-.1,1.7-.6.1-.6-.6-.9-1.5-1.3-1.3-.6-3.1-1.3-2.7-3.2.3-1.4,1.8-2.3,3.8-1.9,1.4.3,2.5,1,3.2,1.9l-1.2,1.2c-.5-.7-1.5-1.2-2.3-1.4-.8-.2-1.3,0-1.4.6s.6.8,1.4,1.1c1.3.6,3.1,1.3,2.7,3.3-.3,1.6-1.8,2.4-4.1,2-1.6-.3-2.8-1.1-3.3-2l1.2-1.3Z"/>
  <polygon class="st12" points="268.4 331.3 266 330.8 266.4 329.1 273.1 330.4 272.7 332.1 270.4 331.7 269.1 338.2 267.1 337.8 268.4 331.3"/>
  <text class="st17" transform="translate(273.3 339) rotate(11.1)"><tspan x="0" y="0">)</tspan></text>
  <text class="st10" transform="translate(367.6 340.8) rotate(7.7)"><tspan x="0" y="0">MOUNTAIN</tspan></text>
  <text class="st15" transform="translate(407.2 326.3) rotate(7.7)"><tspan class="st47" x="0" y="0">+</tspan><tspan x="9.2" y="0">1</tspan></text>
  <text class="st15" transform="translate(388.6 361) rotate(7.7)"><tspan x="0" y="0">(</tspan></text>
  <polygon class="st12" points="403.9 357.6 400.9 362.8 399.9 362.7 398.4 356.8 397.6 362.3 395.6 362.1 396.7 353.7 399.4 354.1 400.8 359.4 403.6 354.7 406.3 355 405.2 363.4 403.2 363.1 403.9 357.6"/>
  <path class="st12" d="M409.2,361.3c.5.7,1.5,1.3,2.6,1.5,1,.1,1.5-.2,1.6-.7,0-.6-.7-.8-1.5-1.2-1.4-.5-3.1-1.1-2.9-3,.2-1.4,1.7-2.4,3.7-2.1,1.4.2,2.5.8,3.3,1.7l-1.1,1.3c-.6-.7-1.5-1.1-2.4-1.3-.8-.1-1.3.2-1.4.7s.6.7,1.5,1.1c1.4.5,3.2,1.1,2.9,3.1-.2,1.6-1.6,2.5-4,2.2-1.6-.2-2.8-.9-3.4-1.8l1.1-1.4Z"/>
  <polygon class="st12" points="420.6 358.7 418.2 358.4 418.5 356.7 425.2 357.6 425 359.3 422.6 359 421.7 365.6 419.7 365.3 420.6 358.7"/>
  <text class="st15" transform="translate(425.8 366.1) rotate(7.7)"><tspan x="0" y="0">)</tspan></text>
  <text class="st11" transform="translate(570.3 357.6) rotate(.3)"><tspan x="0" y="0">CENTRAL</tspan></text>
  <text class="st14" transform="translate(581.8 376.2) rotate(.3)"><tspan x="0" y="0">(</tspan></text>
  <path class="st12" d="M593.2,367.7c1.8,0,3,1,3.6,2.2l-1.7.8c-.4-.7-1.1-1.2-2-1.2-1.5,0-2.5,1.1-2.5,2.6,0,1.5,1.1,2.6,2.5,2.6.9,0,1.6-.5,2-1.2l1.7.8c-.6,1.2-1.8,2.1-3.7,2.1-2.6,0-4.6-1.8-4.6-4.4,0-2.6,2-4.4,4.6-4.4Z"/>
  <path class="st12" d="M599.7,373.8c.6.6,1.7,1.1,2.8,1.1,1,0,1.5-.4,1.5-.9,0-.6-.8-.8-1.7-1-1.4-.3-3.2-.7-3.2-2.6,0-1.4,1.3-2.6,3.4-2.6s2.6.5,3.4,1.2l-1,1.4c-.6-.6-1.7-.9-2.5-.9-.8,0-1.3.3-1.3.8s.7.6,1.6.9c1.4.3,3.3.7,3.3,2.7,0,1.6-1.3,2.7-3.6,2.7-1.6,0-2.9-.6-3.6-1.3l.9-1.5Z"/>
  <polygon class="st12" points="610.7 369.8 608.3 369.7 608.3 368 615.2 368 615.1 369.8 612.7 369.8 612.7 376.4 610.7 376.4 610.7 369.8"/>
  <text class="st14" transform="translate(616.8 376.4) rotate(.3)"><tspan x="0" y="0">)</tspan></text>
  <text class="st14" transform="translate(593.7 338.1) rotate(.3)"><tspan class="st46" x="0" y="0">+</tspan><tspan class="st32" x="9.2" y="0">2</tspan></text>
  <text class="st16" transform="translate(796 377.5) rotate(-3.6)"><tspan x="0" y="0">(</tspan></text>
  <polygon class="st12" points="802.6 368.7 809 368.3 809.1 370 804.8 370.3 804.9 371.8 809.1 371.6 809.2 373.3 805 373.6 805.1 375.3 809.4 375 809.5 376.7 803.2 377.1 802.6 368.7"/>
  <path class="st12" d="M812.7,373.9c.6.5,1.7,1,2.9.9,1,0,1.5-.5,1.4-1,0-.6-.8-.7-1.7-.8-1.4-.2-3.3-.5-3.4-2.4,0-1.4,1.2-2.7,3.2-2.8,1.4,0,2.6.3,3.5,1l-.9,1.5c-.7-.5-1.7-.8-2.6-.8-.8,0-1.3.4-1.2.9s.8.6,1.7.7c1.4.2,3.4.5,3.5,2.5.1,1.6-1.1,2.8-3.5,2.9-1.6.1-2.9-.4-3.7-1l.8-1.6Z"/>
  <polygon class="st12" points="823.4 369.2 821 369.3 820.9 367.6 827.7 367.1 827.8 368.9 825.4 369 825.8 375.7 823.8 375.8 823.4 369.2"/>
  <text class="st16" transform="translate(830 375.4) rotate(-3.6)"><tspan x="0" y="0">)</tspan></text>
  <text class="st16" transform="translate(802.2 339.4) rotate(-3.6)"><tspan class="st45" x="0" y="0">+</tspan><tspan x="9.2" y="0">3</tspan></text>
  <text class="st9" transform="translate(780.3 361.7) rotate(-3.6)"><tspan x="0" y="0">EASTERN</tspan></text>
  <path class="st21" d="M245.8,378.4l5.1-4.2c.7-.6.3-1.8-.6-1.8l-6.6-.4c-.4,0-.7-.3-.9-.6l-2.4-6.2c-.4-.9-1.6-.9-1.9,0l-2.4,6.2c-.1.4-.5.6-.9.6l-6.6.4c-.9,0-1.3,1.2-.6,1.8l5.1,4.2c.3.3.4.7.3,1l-1.7,6.4c-.2.9.8,1.6,1.5,1.1l5.6-3.6c.3-.2.8-.2,1.1,0l5.6,3.6c.8.5,1.8-.2,1.5-1.1l-1.7-6.4c0-.4,0-.8.4-1"/>
  <g>
    <text class="st13" transform="translate(295.6 202.8)"><tspan x="0" y="0">Class </tspan><tspan class="st42" x="165.2" y="0">S</tspan><tspan x="201.6" y="0">tart Time</tspan></text>
    <g>
      <polygon class="st12" points="375.4 227.4 370.9 227.4 370.9 224.7 383.1 224.7 383.1 227.4 378.5 227.4 378.5 240.2 375.4 240.2 375.4 227.4"/>
      <rect class="st12" x="387.1" y="224.7" width="3.1" height="15.5"/>
      <polygon class="st12" points="409.3 229.4 404.6 240.2 403.2 240.2 398.4 229.4 398.4 240.2 395.4 240.2 395.4 224.7 399.5 224.7 403.9 234.7 408.2 224.7 412.4 224.7 412.4 240.2 409.3 240.2 409.3 229.4"/>
      <polygon class="st12" points="417.6 224.7 428.9 224.7 428.9 227.4 420.7 227.4 420.7 231 428.7 231 428.7 233.7 420.7 233.7 420.7 237.5 428.9 237.5 428.9 240.2 417.6 240.2 417.6 224.7"/>
      <polygon class="st12" points="432.6 238 440.8 227.4 432.6 227.4 432.6 224.7 445 224.7 445 227 436.8 237.5 445.2 237.5 445.2 240.2 432.6 240.2 432.6 238"/>
      <path class="st12" d="M456.9,224.4c4.8,0,8.2,3.5,8.2,8.1s-3.3,8.1-8.2,8.1-8.2-3.5-8.2-8.1,3.3-8.1,8.2-8.1ZM456.9,227.1c-3.1,0-5.1,2.3-5.1,5.4s2,5.4,5.1,5.4,5-2.3,5-5.4-2-5.4-5-5.4Z"/>
      <polygon class="st12" points="472.5 229.2 472.5 240.2 469.4 240.2 469.4 224.7 472.7 224.7 480.6 235.4 480.6 224.7 483.7 224.7 483.7 240.2 480.5 240.2 472.5 229.2"/>
      <polygon class="st12" points="488.9 224.7 500.2 224.7 500.2 227.4 492 227.4 492 231 500 231 500 233.7 492 233.7 492 237.5 500.2 237.5 500.2 240.2 488.9 240.2 488.9 224.7"/>
      <text class="st3" transform="translate(502.9 240.2)"><tspan x="0" y="0"> </tspan></text>
      <path class="st12" d="M513.4,224.7h8c3,0,4.7,1.8,4.7,4s-1.2,3.1-2.6,3.5c1.7.4,3,2,3,3.8s-1.7,4.2-4.8,4.2h-8.3v-15.5ZM521,227.4h-4.5v3.6h4.5c1.3,0,2-.8,2-1.8s-.8-1.8-2-1.8ZM521.2,233.7h-4.7v3.9h4.7c1.4,0,2.2-.7,2.2-1.9s-.8-2-2.2-2Z"/>
      <path class="st12" d="M536.7,234.6h-2.7v5.6h-3.1v-15.5h7.3c3.3,0,5.3,2.2,5.3,4.9s-1.8,4.4-3.8,4.7l4,5.9h-3.5l-3.5-5.6ZM537.9,227.4h-3.9v4.5h3.9c1.6,0,2.5-1,2.5-2.3s-.9-2.3-2.5-2.3Z"/>
      <polygon class="st12" points="548.1 224.7 559.4 224.7 559.4 227.4 551.2 227.4 551.2 231 559.2 231 559.2 233.7 551.2 233.7 551.2 237.5 559.4 237.5 559.4 240.2 548.1 240.2 548.1 224.7"/>
      <path class="st12" d="M578.6,240.2h-3.4l-1.2-2.9h-7.3l-1.2,2.9h-3.5l6.4-15.5h3.7l6.4,15.5ZM567.6,234.6h5.5l-2.7-7-2.7,7Z"/>
      <polygon class="st12" points="586.3 233.8 585 235.3 585 240.2 581.9 240.2 581.9 224.7 585 224.7 585 231.8 591.1 224.7 594.8 224.7 588.2 232.1 595.3 240.2 591.6 240.2 586.3 233.8"/>
      <path class="st12" d="M598.8,224.7h6.1c5.1,0,8.4,3.2,8.4,7.8s-3.3,7.7-8.4,7.7h-6.1v-15.5ZM605,227.4h-3.1v10.1h3c3.4,0,5.2-2.3,5.2-5s-1.7-5.1-5.2-5.1Z"/>
      <path class="st12" d="M625.1,224.4c4.8,0,8.2,3.5,8.2,8.1s-3.3,8.1-8.2,8.1-8.2-3.5-8.2-8.1,3.3-8.1,8.2-8.1ZM625.1,227.1c-3.1,0-5.1,2.3-5.1,5.4s2,5.4,5.1,5.4,5-2.3,5-5.4-2-5.4-5-5.4Z"/>
      <polygon class="st12" points="646 229.3 643 240.2 639.8 240.2 635.1 224.7 638.5 224.7 641.5 236.1 644.8 224.7 647.3 224.7 650.5 236.2 653.5 224.7 656.9 224.7 652.3 240.2 649.1 240.2 646 229.3"/>
      <polygon class="st12" points="663.4 229.2 663.4 240.2 660.4 240.2 660.4 224.7 663.6 224.7 671.5 235.4 671.5 224.7 674.6 224.7 674.6 240.2 671.4 240.2 663.4 229.2"/>
    </g>
  </g>
  <text class="st4" transform="translate(30 357.9)"><tspan x="0" y="0">Evergreen</tspan></text>
  <text class="st4" transform="translate(30 382.6)"><tspan x="0" y="0">Safety Council</tspan></text>
  <g class="st28">
    <path class="st48" d="M339.2,609.2c-5.3,3.2-8.7,8.9-7.8,15.7,1.1,7.9,9.6,8.4,10.5,15.9.8,6.3,2.1,7,8.5,7.8,5.1.6,8.9,1.1,13.6,0,1.7-.4,3.3-1,4.9-1.5l4.3-32.4c-4.7-.4-19.2-2.9-34.1-5.5M353,639.4c-3.2-.3-7.3-1.4-7.6-5.2-.1-1.9,0-4.4-2-5.4-.8-.4-2-.6-2.5-1.5-.5-.9,0-2,.7-2.6,3.1-1.6,5.8-3.4,8.7-4.7,1.5-.6,3.6-.9,5.1-.1.7.4.7.9.7,1.7,0,1.6-.1,3,.2,4.6.3,1.5,1.3,2.1,2.4,3.2,1.2,1.1,3,3.3,3.1,5,.3,4.7-5.4,5.3-8.9,5"/>
  </g>
  <g class="st30">
    <line class="st2" x1="227.2" y1="582.2" x2="317.3" y2="773.3"/>
    <line class="st2" x1="234" y1="582.2" x2="324" y2="773.3"/>
    <line class="st2" x1="240.7" y1="582.2" x2="330.7" y2="773.3"/>
    <line class="st2" x1="247.4" y1="582.2" x2="337.4" y2="773.3"/>
    <line class="st2" x1="254.1" y1="582.2" x2="344.2" y2="773.3"/>
    <line class="st2" x1="260.9" y1="582.2" x2="350.9" y2="773.3"/>
    <line class="st2" x1="267.6" y1="582.2" x2="357.6" y2="773.3"/>
    <line class="st2" x1="274.3" y1="582.2" x2="364.3" y2="773.3"/>
    <line class="st2" x1="281" y1="582.2" x2="371.1" y2="773.3"/>
    <line class="st2" x1="287.8" y1="582.2" x2="377.8" y2="773.3"/>
    <line class="st2" x1="294.5" y1="582.2" x2="384.5" y2="773.3"/>
    <line class="st2" x1="301.2" y1="582.2" x2="391.2" y2="773.3"/>
    <line class="st2" x1="308" y1="582.2" x2="398" y2="773.3"/>
    <line class="st2" x1="314.7" y1="582.2" x2="404.7" y2="773.3"/>
    <line class="st2" x1="321.4" y1="582.2" x2="411.4" y2="773.3"/>
    <line class="st2" x1="328.1" y1="582.2" x2="418.2" y2="773.3"/>
    <line class="st2" x1="334.9" y1="582.2" x2="424.9" y2="773.3"/>
    <line class="st2" x1="341.6" y1="582.2" x2="431.6" y2="773.3"/>
    <line class="st2" x1="348.3" y1="582.2" x2="438.3" y2="773.3"/>
    <line class="st2" x1="355" y1="582.2" x2="445.1" y2="773.3"/>
    <line class="st2" x1="361.8" y1="582.2" x2="451.8" y2="773.3"/>
    <line class="st2" x1="368.5" y1="582.2" x2="458.5" y2="773.3"/>
  </g>
  <text class="st7" transform="translate(316.5 661.3)"><tspan x="0" y="0">AZ</tspan></text>
  <g class="st29">
    <line class="st2" x1="-72.9" y1="726.8" x2="61.1" y2="1011.2"/>
    <line class="st2" x1="-62.9" y1="726.8" x2="71.1" y2="1011.2"/>
    <line class="st2" x1="-52.9" y1="726.8" x2="81.1" y2="1011.2"/>
    <line class="st2" x1="-42.9" y1="726.8" x2="91.1" y2="1011.2"/>
    <line class="st2" x1="-32.9" y1="726.8" x2="101.1" y2="1011.2"/>
    <line class="st2" x1="-22.9" y1="726.8" x2="111.1" y2="1011.2"/>
    <line class="st2" x1="-12.9" y1="726.8" x2="121.1" y2="1011.2"/>
    <line class="st2" x1="-2.8" y1="726.8" x2="131.1" y2="1011.2"/>
    <line class="st2" x1="7.2" y1="726.8" x2="141.1" y2="1011.2"/>
    <line class="st2" x1="17.2" y1="726.8" x2="151.2" y2="1011.2"/>
    <line class="st2" x1="27.2" y1="726.8" x2="161.2" y2="1011.2"/>
    <line class="st2" x1="37.2" y1="726.8" x2="171.2" y2="1011.2"/>
    <line class="st2" x1="47.2" y1="726.8" x2="181.2" y2="1011.2"/>
    <line class="st2" x1="57.2" y1="726.8" x2="191.2" y2="1011.2"/>
    <line class="st2" x1="67.2" y1="726.8" x2="201.2" y2="1011.2"/>
    <line class="st2" x1="77.2" y1="726.8" x2="211.2" y2="1011.2"/>
    <line class="st2" x1="87.2" y1="726.8" x2="221.2" y2="1011.2"/>
    <line class="st2" x1="97.3" y1="726.8" x2="231.2" y2="1011.2"/>
    <line class="st2" x1="107.3" y1="726.8" x2="241.2" y2="1011.2"/>
    <line class="st2" x1="117.3" y1="726.8" x2="251.2" y2="1011.2"/>
    <line class="st2" x1="127.3" y1="726.8" x2="261.3" y2="1011.2"/>
    <line class="st2" x1="137.3" y1="726.8" x2="271.3" y2="1011.2"/>
  </g>
  <g>
    <text class="st5" transform="translate(91.6 854.3)"><tspan x="0" y="0">Does not observe</tspan></text>
    <text class="st5" transform="translate(91.6 868.5)"><tspan x="0" y="0">Daylight Savings.</tspan></text>
    <text class="st6" transform="translate(91.6 882.8)"><tspan x="0" y="0">Please check at time.gov</tspan></text>
  </g>
  <g class="st23">
    <path class="st12" d="M225.3,374.5l-13.5-9.7-.5,4.7-30.7-3c-2-.2-3.8,1.3-4,3.2-.2,2,1.3,3.8,3.2,4l30.7,3-.5,4.7,15.2-6.9Z"/>
  </g>
</svg>