<?xml version="1.0" encoding="UTF-8"?>
<svg id="Layer_1" xmlns="http://www.w3.org/2000/svg" version="1.1" viewBox="0 0 1080 1080">
  <!-- Generator: Adobe Illustrator 29.7.1, SVG Export Plug-In . SVG Version: 2.1.1 Build 8)  -->
  <defs>
    <style>
      .st0 {
        fill: #fff;
      }
    </style>
  </defs>
  <g id="CEuS0X.tif">
    <g>
      <path class="st0" d="M1080-28.1v1136.1H0V-28.1h1080ZM507.7,99.2C198,123.8,13.7,460.7,149,739.9c156.8,323.7,617.3,333.4,791.4,19.8,175.6-316.2-75.3-688.8-432.6-660.5Z"/>
      <path d="M507.7,99.2c357.3-28.3,608.2,344.3,432.6,660.5-174.1,313.5-634.6,303.8-791.4-19.8C13.7,460.7,198,123.8,507.7,99.2ZM264.2,257.2c-216.5,219.3-118.3,595.7,179.6,675.2,314.3,83.9,589.4-210.7,487.9-519.4C839.6,133.1,471.6,47.1,264.2,257.2Z"/>
      <path class="st0" d="M264.2,257.2c207.4-210.1,575.4-124.1,667.5,155.8,101.6,308.8-173.5,603.3-487.9,519.4C145.9,852.9,47.7,476.5,264.2,257.2ZM511.2,183.3c-254.3,26.7-399.6,306.1-278.1,532.1,137.4,255.5,505.6,250,638.3-7,131.7-255-76.6-554.8-360.3-525.1Z"/>
      <path d="M511.2,183.3c283.6-29.8,492,270.1,360.3,525.1-132.7,257-500.9,262.5-638.3,7-121.5-226,23.8-505.4,278.1-532.1ZM546.1,214.4c-23.3,4.3-22.5,60.4-6,67.7,41.5,18.6,44.6-74.8,6-67.7ZM325.1,305.7c-36.4,10.4,13.2,71.1,35.9,60.8,36.7-16.7-13.4-67.2-35.9-60.8ZM759.9,305.8c-17.1,5.2-54.6,55.2-17.4,61.9,14.6,2.6,43.2-24.1,45.9-37.1,3.8-18-11.2-30-28.5-24.8ZM571.6,392.7c16.8,8.2,40.7,2.6,38.6-19.1-1.1-10.8-44.9-55.7-55.2-57.5-17.6-3.2-66.7,46.8-63.5,63.5,5.4,28.1,36.5,11.4,38,13.2v138.4c-1,5-49.7,56.1-54.4,57.9-7,2.8-6.2-10.7-12.4-15.6-10.6-8.3-27.9-2.9-33.1,8.6s-3.3,66.5,2.1,75c7.6,12.2,61,11.6,74.9,9s19.2-21.1,13.5-34.2c-3.8-8.8-18.4-4.9-15.2-13,6.4-15.8,61.3-50.8,65.9-70.9l.8-155.3ZM237.4,523.2c-23,5.3-23.1,37.9,6.2,41.4,21.4,2.6,55.8,1.7,46.7-29.1-5-16.8-39.1-15.5-52.9-12.3ZM872.1,527c-14-11.3-71.8-7.2-64.2,20.1,6,21.7,41,20.8,58.5,15.9,13.9-3.9,17.8-26.2,5.7-36ZM346.2,719.4c-11.2,3.3-37.7,34.8-33.5,49.5,10,35,66.4-9.4,62-33.4-2.3-12.4-16.8-19.5-28.5-16ZM742.5,719.4c-41.7,7.9,8.4,73.1,35.9,60.8,31-14-14.3-64.9-35.9-60.8ZM563.5,804.1c-36-29.6-49.6,62.3-17.4,68.5,30.6,5.9,32.8-55.9,17.4-68.5Z"/>
      <path class="st0" d="M571.6,392.7l-.8,155.3c-4.5,20.1-59.5,55.1-65.9,70.9s11.4,4.2,15.2,13c5.6,13.1,2.6,31.2-13.5,34.2s-67.3,3.1-74.9-9c-5.4-8.5-6.2-65.7-2.1-75s22.4-16.9,33.1-8.6,5.4,18.4,12.4,15.6,53.4-52.9,54.3-57.9v-138.4c-1.5-1.8-32.6,15-38-13.2-3.2-16.7,46-66.7,63.5-63.5,10.3,1.9,54.1,46.8,55.2,57.5,2.1,21.7-21.8,27.3-38.6,19.1Z"/>
      <path class="st0" d="M759.9,305.8c17.2-5.2,32.2,6.8,28.5,24.8-2.7,13-31.3,39.7-45.9,37.1-37.1-6.7.3-56.7,17.4-61.9Z"/>
      <path class="st0" d="M346.2,719.4c11.7-3.4,26.2,3.6,28.5,16,4.4,24.1-51.9,68.4-62,33.4-4.2-14.7,22.3-46.2,33.5-49.5Z"/>
      <path class="st0" d="M563.5,804.1c15.4,12.6,13.2,74.4-17.4,68.5-32.1-6.2-18.6-98.1,17.4-68.5Z"/>
      <path class="st0" d="M742.5,719.4c21.6-4.1,66.9,46.8,35.9,60.8-27.5,12.4-77.6-52.8-35.9-60.8Z"/>
      <path class="st0" d="M325.1,305.7c22.5-6.4,72.6,44.1,35.9,60.8-22.7,10.3-72.3-50.4-35.9-60.8Z"/>
      <path class="st0" d="M237.4,523.2c13.8-3.2,47.9-4.5,52.9,12.3,9.2,30.8-25.3,31.7-46.7,29.1-29.3-3.5-29.2-36.1-6.2-41.4Z"/>
      <path class="st0" d="M872.1,527c12.2,9.9,8.2,32.1-5.7,36-17.5,4.9-52.5,5.8-58.5-15.9-7.6-27.3,50.2-31.4,64.2-20.1Z"/>
      <path class="st0" d="M546.1,214.4c38.6-7.1,35.5,86.3-6,67.7s-17.3-63.5,6-67.7Z"/>
    </g>
  </g>
</svg>