<svg xmlns="http://www.w3.org/2000/svg" xmlns:xlink="http://www.w3.org/1999/xlink" id="Layer_1" data-name="Layer 1" viewBox="0 0 1366 768"><defs><style>      .cls-1 {        fill: url(#New_Pattern_5);      }      .cls-1, .cls-2, .cls-3 {        stroke-width: 0px;      }      .cls-2 {        fill: none;      }      .cls-3 {        fill: #fde500;      }    </style><pattern id="New_Pattern_5" data-name="New Pattern 5" x="0" y="0" width="125" height="218" patternTransform="translate(1532.75 -5451.52) rotate(-30)" patternUnits="userSpaceOnUse" viewBox="0 0 125 218"><g><rect class="cls-2" width="125" height="218"></rect><g><g><path class="cls-3" d="M52.4,133.07c-.41,1.17-3.16-2.18-7.28-2.81-4.12-1.03-9.6.67-15.47,2.81-5.87,2.27-11.02.98-14.59-2.62-3.58-3.34-5.58-8.99-5.17-9.51.41-1.17,3.16,2.18,7.28,2.81,4.12,1.03,9.6-.67,15.47-2.81,5.87-2.27,11.02-.98,14.6,2.62,3.58,3.34,5.58,8.99,5.17,9.51"></path><path class="cls-3" d="M55.44,146.3c-.41,1.17-3.17-2.18-7.28-2.81-4.12-1.03-9.6.67-15.47,2.81-5.87,2.27-11.02.98-14.6-2.62-3.58-3.34-5.58-8.99-5.17-9.51.41-1.17,3.16,2.18,7.28,2.81,4.12,1.03,9.6-.67,15.47-2.81,5.87-2.27,11.02-.98,14.59,2.61,3.58,3.34,5.59,8.99,5.17,9.51"></path><path class="cls-3" d="M48.98,119.85c-.41,1.17-3.16-2.18-7.28-2.81-4.12-1.03-9.6.67-15.47,2.81-5.87,2.27-11.02.98-14.59-2.61-3.58-3.34-5.59-8.99-5.17-9.52.41-1.17,3.16,2.18,7.28,2.81,4.12,1.02,9.6-.67,15.47-2.81,5.87-2.27,11.02-.98,14.6,2.62,3.58,3.34,5.58,8.99,5.17,9.51"></path></g><g><path class="cls-3" d="M115.5,133.07c-.41,1.17-3.16-2.18-7.28-2.81-4.12-1.03-9.6.67-15.47,2.81-5.87,2.27-11.02.98-14.59-2.62-3.58-3.34-5.58-8.99-5.17-9.51.41-1.17,3.16,2.18,7.28,2.81,4.12,1.03,9.6-.67,15.47-2.81,5.87-2.27,11.02-.98,14.6,2.62,3.58,3.34,5.58,8.99,5.17,9.51"></path><path class="cls-3" d="M118.54,146.3c-.41,1.17-3.17-2.18-7.28-2.81-4.12-1.03-9.6.67-15.47,2.81-5.87,2.27-11.02.98-14.6-2.62-3.58-3.34-5.58-8.99-5.17-9.51.41-1.17,3.16,2.18,7.28,2.81,4.12,1.03,9.6-.67,15.47-2.81,5.87-2.27,11.02-.98,14.59,2.61,3.58,3.34,5.59,8.99,5.17,9.51"></path><path class="cls-3" d="M112.08,119.85c-.41,1.17-3.16-2.18-7.28-2.81-4.12-1.03-9.6.67-15.47,2.81-5.87,2.27-11.02.98-14.59-2.61-3.58-3.34-5.59-8.99-5.17-9.52.41-1.17,3.16,2.18,7.28,2.81,4.12,1.02,9.6-.67,15.47-2.81,5.87-2.27,11.02-.98,14.6,2.62,3.58,3.34,5.58,8.99,5.17,9.51"></path></g></g><g><polygon class="cls-3" points="54.61 207.19 39.34 207.19 13.76 170.26 29.04 170.26 54.61 207.19"></polygon><polygon class="cls-3" points="111.24 207.19 95.96 207.19 70.39 170.26 85.66 170.26 111.24 207.19"></polygon></g><g><path class="cls-3" d="M21.76,68.7l22.08.05c1.64,0,2.98-1.33,2.99-2.97l.05-22.08c0-1.64-1.33-2.98-2.97-2.99l-22.08-.05c-1.64,0-2.98,1.33-2.99,2.97l-.05,22.08c0,1.64,1.33,2.98,2.97,2.99Z"></path><path class="cls-3" d="M104.25,77.01c0,1.15-.87,2.11-1.98,2.25.08-.49.11-.98.11-1.49,0-5.34-4.33-9.66-9.66-9.66s-9.66,4.33-9.66,9.66c0,.51.04,1.02.12,1.51h-6.96c.03-.08.06-.15.08-.23,0-.03.02-.05.03-.08.02-.06.04-.11.05-.16.01-.04.03-.08.04-.12,0,0,0-.02,0-.03.02-.06.04-.12.05-.18.03-.09.05-.17.08-.26.02-.08.04-.16.07-.25.02-.08.04-.16.06-.24.01-.05.03-.11.04-.16.02-.07.03-.15.05-.22.02-.08.03-.16.05-.25,0-.01,0-.02,0-.04,0-.01,0-.02,0-.03.02-.1.03-.19.05-.29.01-.07.02-.15.03-.22,0-.06.02-.12.02-.18,0-.06.01-.1.02-.14,0-.04,0-.09.01-.13,0-.09.02-.18.02-.28,0-.07,0-.13.01-.2,0-.07,0-.13,0-.18,0-.06,0-.13,0-.19,0-.03,0-.06,0-.1,0-.1,0-.19,0-.29,0-6.96-5.64-12.61-12.61-12.61s-12.61,5.64-12.61,12.61c0,.08,0,.17,0,.25v.02s0,.07,0,.11c-.22.07-.45.11-.69.11,0,0-35.21-.09-35.21-.09-1.24,0-2.26-1.02-2.25-2.27,0-1.24,1.02-2.25,2.27-2.25l32.94.08.14-57.72c0-1.24,1.02-2.25,2.26-2.25,1.25,0,2.26,1.02,2.26,2.27l-.11,43.87c3.88-9.15,7.99-18.21,11.73-27.41,1.01-2.48,2.31-3.43,4.8-3.42,8.28.04,16.55.04,24.83,0,2.76-.01,3.96,1.12,3.91,3.97-.12,6.49.03,12.99-.07,19.49-.02,1.01.03,2.23.95,2.86,1.07.72,2.45.37,3.54,1.24.37.3.7.67.87,1.12.24.64.27,6.96.27,6.96,0,0,0,15.26,0,15.26ZM93.53,30.96c-7.49,0-14.89-.04-22.28.07-.7,0-1.73.87-2.03,1.58-2.35,5.42-4.65,10.86-6.94,16.31-.48,1.15-.32,2.47.43,3.46l1.37,1.82,6.68-6.68-2-2c-.58-.58-.51-1.57.22-2.04.53-.34,1.23-.24,1.68.21l5.84,5.84c.58.58.51,1.57-.22,2.04-.53.34-1.23.24-1.68-.21l-1.97-1.97-6.8,6.8s-.1.09-.16.13l.91,1.21c.76,1.01,1.96,1.59,3.23,1.56,1.43-.04,3.59.26,4.75-.75.76-.67,1.38-1.65,1.7-2.61.85-2.58,2.38-3.16,4.88-3.05.32.02.65.03.97.04l2.13-10.15c.19-.89,1.07-1.47,1.96-1.28.89.19,1.47,1.07,1.28,1.96l-2,9.53c2.63,0,5.31-.05,8.08-.05v-21.78Z"></path><path class="cls-3" d="M64.41,64.29c-5.81,0-10.53,4.73-10.53,10.53,0,1.47.3,2.87.85,4.14,1.61,3.76,5.35,6.39,9.69,6.39s8.05-2.62,9.67-6.36c.56-1.28.86-2.69.86-4.17,0-5.81-4.73-10.53-10.53-10.53Z"></path><path class="cls-3" d="M92.71,70.22c-4.16,0-7.54,3.38-7.54,7.54,0,.47.04.93.13,1.37.65,3.51,3.73,6.17,7.42,6.17s6.77-2.66,7.42-6.17c.08-.44.13-.9.13-1.37,0-4.16-3.38-7.54-7.54-7.54Z"></path></g></g></pattern></defs><rect class="cls-1" width="1366" height="768"></rect></svg>