<svg xmlns="http://www.w3.org/2000/svg" xmlns:xlink="http://www.w3.org/1999/xlink" id="Layer_1" data-name="Layer 1" viewBox="0 0 1366 768"><defs><style>      .cls-1 {        fill: url(#New_Pattern_4);      }      .cls-1, .cls-2, .cls-3 {        stroke-width: 0px;      }      .cls-2 {        fill: none;      }      .cls-3 {        fill: #0a3b36;      }    </style><pattern id="New_Pattern_4" data-name="New Pattern 4" x="0" y="0" width="130" height="178" patternTransform="translate(2951.75 -5451.52) rotate(-30)" patternUnits="userSpaceOnUse" viewBox="0 0 130 178"><g><rect class="cls-2" width="130" height="178"></rect><g><g><path class="cls-3" d="M151.45,99.39c-.41,1.17-3.16-2.18-7.28-2.81-4.12-1.03-9.6.67-15.47,2.81-5.87,2.27-11.02.98-14.59-2.62-3.58-3.34-5.58-8.99-5.17-9.51.41-1.17,3.16,2.18,7.28,2.81,4.12,1.03,9.6-.67,15.47-2.81,5.87-2.27,11.02-.98,14.6,2.62,3.58,3.34,5.58,8.99,5.17,9.51"></path><path class="cls-3" d="M154.49,112.62c-.41,1.17-3.17-2.18-7.28-2.81-4.12-1.03-9.6.67-15.47,2.81-5.87,2.27-11.02.98-14.6-2.62-3.58-3.34-5.58-8.99-5.17-9.51.41-1.17,3.16,2.18,7.28,2.81,4.12,1.03,9.6-.67,15.47-2.81,5.87-2.27,11.02-.98,14.59,2.61,3.58,3.34,5.59,8.99,5.17,9.51"></path><path class="cls-3" d="M148.03,86.17c-.41,1.17-3.16-2.18-7.28-2.81-4.12-1.03-9.6.67-15.47,2.81-5.87,2.27-11.02.98-14.59-2.61-3.58-3.34-5.59-8.99-5.17-9.52.41-1.17,3.16,2.18,7.28,2.81,4.12,1.02,9.6-.67,15.47-2.81,5.87-2.27,11.02-.98,14.6,2.62,3.58,3.34,5.58,8.99,5.17,9.51"></path></g><polygon class="cls-3" points="150.42 167.68 135.15 167.68 109.58 130.74 124.85 130.74 150.42 167.68"></polygon><path class="cls-3" d="M155.7,31.46c-.1.87-.82,1.54-1.69,1.57l-3.31.12c-.21,0-.43.05-.62.14l-.33.14.98,3.4c.56,2.83.83,5.69.83,8.55v9.15c0,.76-.78,1.38-1.74,1.38h-4.85c-.96,0-1.74-.62-1.74-1.38v-2.91c0-.28-.28-.5-.63-.5h-25.19c-.35,0-.63.22-.63.5v2.91c0,.76-.78,1.38-1.74,1.38h-4.85c-.96,0-1.74-.62-1.74-1.38v-9.15c0-2.86.28-5.72.83-8.55l.98-3.4-.33-.14c-.2-.08-.41-.13-.62-.14l-3.31-.12c-.88-.03-1.6-.7-1.69-1.57-.12-1.05.7-1.96,1.76-1.96h1.9c.59,0,1.14.3,1.47.79l1.21,1.81,3.18-11.06c.23-1.28,1.4-2.28,2.89-2.47.53-.07,1.07-.13,1.61-.19v-1.79h-.12c-.56,0-1.02-.46-1.02-1.02v-4.23c0-.56.46-1.02,1.02-1.02h23.61c.56,0,1.02.46,1.02,1.02v4.23c0,.56-.46,1.02-1.02,1.02h-.12v1.79c.55.06,1.09.13,1.61.19,1.49.19,2.66,1.19,2.89,2.47l3.18,11.06,1.21-1.81c.33-.49.88-.79,1.47-.79h1.9c1.05,0,1.87.91,1.76,1.96ZM120.03,18.2c2.96-.28,6.18-.47,9.66-.48.11,0,.21,0,.32,0,.1,0,.21,0,.32,0,3.47.01,6.7.2,9.66.48v-1.62h-19.95v1.62ZM114.18,32.56c5.27-.47,10.46-.7,15.64-.71h0c.06,0,.12,0,.19,0,.06,0,.12,0,.19,0h0c5.18.01,10.36.24,15.64.71.26.03.44-.22.36-.49-.79-3.83-1.19-5.74-1.99-9.56-.1-.48-.49-.85-.95-.9-4.46-.31-8.86-.46-13.25-.46-4.39,0-8.79.15-13.25.46-.46.04-.85.42-.95.9-.79,3.82-1.19,5.73-1.99,9.56-.08.27.1.52.36.49ZM146.46,42.42c0-.52-.42-.94-.94-.94h-31.03c-.52,0-.94.42-.94.94s.42.94.94.94h31.03c.52,0,.94-.42.94-.94ZM146.46,38.64c0-.52-.42-.94-.94-.94h-31.03c-.52,0-.94.42-.94.94s.42.94.94.94h31.03c.52,0,.94-.42.94-.94Z"></path></g><g><g><path class="cls-3" d="M86.45,99.39c-.41,1.17-3.16-2.18-7.28-2.81-4.12-1.03-9.6.67-15.47,2.81-5.87,2.27-11.02.98-14.59-2.62-3.58-3.34-5.58-8.99-5.17-9.51.41-1.17,3.16,2.18,7.28,2.81,4.12,1.03,9.6-.67,15.47-2.81,5.87-2.27,11.02-.98,14.6,2.62,3.58,3.34,5.58,8.99,5.17,9.51"></path><path class="cls-3" d="M89.49,112.62c-.41,1.17-3.17-2.18-7.28-2.81-4.12-1.03-9.6.67-15.47,2.81-5.87,2.27-11.02.98-14.6-2.62-3.58-3.34-5.58-8.99-5.17-9.51.41-1.17,3.16,2.18,7.28,2.81,4.12,1.03,9.6-.67,15.47-2.81,5.87-2.27,11.02-.98,14.59,2.61,3.58,3.34,5.59,8.99,5.17,9.51"></path><path class="cls-3" d="M83.03,86.17c-.41,1.17-3.16-2.18-7.28-2.81-4.12-1.03-9.6.67-15.47,2.81-5.87,2.27-11.02.98-14.59-2.61-3.58-3.34-5.59-8.99-5.17-9.52.41-1.17,3.16,2.18,7.28,2.81,4.12,1.02,9.6-.67,15.47-2.81,5.87-2.27,11.02-.98,14.6,2.62,3.58,3.34,5.58,8.99,5.17,9.51"></path></g><polygon class="cls-3" points="85.42 167.68 70.15 167.68 44.58 130.74 59.85 130.74 85.42 167.68"></polygon><path class="cls-3" d="M90.7,31.46c-.1.87-.82,1.54-1.69,1.57l-3.31.12c-.21,0-.43.05-.62.14l-.33.14.98,3.4c.56,2.83.83,5.69.83,8.55v9.15c0,.76-.78,1.38-1.74,1.38h-4.85c-.96,0-1.74-.62-1.74-1.38v-2.91c0-.28-.28-.5-.63-.5h-25.19c-.35,0-.63.22-.63.5v2.91c0,.76-.78,1.38-1.74,1.38h-4.85c-.96,0-1.74-.62-1.74-1.38v-9.15c0-2.86.28-5.72.83-8.55l.98-3.4-.33-.14c-.2-.08-.41-.13-.62-.14l-3.31-.12c-.88-.03-1.6-.7-1.69-1.57-.12-1.05.7-1.96,1.76-1.96h1.9c.59,0,1.14.3,1.47.79l1.21,1.81,3.18-11.06c.23-1.28,1.4-2.28,2.89-2.47.53-.07,1.07-.13,1.61-.19v-1.79h-.12c-.56,0-1.02-.46-1.02-1.02v-4.23c0-.56.46-1.02,1.02-1.02h23.61c.56,0,1.02.46,1.02,1.02v4.23c0,.56-.46,1.02-1.02,1.02h-.12v1.79c.55.06,1.09.13,1.61.19,1.49.19,2.66,1.19,2.89,2.47l3.18,11.06,1.21-1.81c.33-.49.88-.79,1.47-.79h1.9c1.05,0,1.87.91,1.76,1.96ZM55.03,18.2c2.96-.28,6.18-.47,9.66-.48.11,0,.21,0,.32,0,.1,0,.21,0,.32,0,3.47.01,6.7.2,9.66.48v-1.62h-19.95v1.62ZM49.18,32.56c5.27-.47,10.46-.7,15.64-.71h0c.06,0,.12,0,.19,0,.06,0,.12,0,.19,0h0c5.18.01,10.36.24,15.64.71.26.03.44-.22.36-.49-.79-3.83-1.19-5.74-1.99-9.56-.1-.48-.49-.85-.95-.9-4.46-.31-8.86-.46-13.25-.46-4.39,0-8.79.15-13.25.46-.46.04-.85.42-.95.9-.79,3.82-1.19,5.73-1.99,9.56-.08.27.1.52.36.49ZM81.46,42.42c0-.52-.42-.94-.94-.94h-31.03c-.52,0-.94.42-.94.94s.42.94.94.94h31.03c.52,0,.94-.42.94-.94ZM81.46,38.64c0-.52-.42-.94-.94-.94h-31.03c-.52,0-.94.42-.94.94s.42.94.94.94h31.03c.52,0,.94-.42.94-.94Z"></path></g><g><g><path class="cls-3" d="M21.45,99.39c-.41,1.17-3.16-2.18-7.28-2.81-4.12-1.03-9.6.67-15.47,2.81-5.87,2.27-11.02.98-14.59-2.62-3.58-3.34-5.58-8.99-5.17-9.51.41-1.17,3.16,2.18,7.28,2.81,4.12,1.03,9.6-.67,15.47-2.81,5.87-2.27,11.02-.98,14.6,2.62,3.58,3.34,5.58,8.99,5.17,9.51"></path><path class="cls-3" d="M24.49,112.62c-.41,1.17-3.17-2.18-7.28-2.81-4.12-1.03-9.6.67-15.47,2.81-5.87,2.27-11.02.98-14.6-2.62-3.58-3.34-5.58-8.99-5.17-9.51.41-1.17,3.16,2.18,7.28,2.81,4.12,1.03,9.6-.67,15.47-2.81,5.87-2.27,11.02-.98,14.59,2.61,3.58,3.34,5.59,8.99,5.17,9.51"></path><path class="cls-3" d="M18.03,86.17c-.41,1.17-3.16-2.18-7.28-2.81-4.12-1.03-9.6.67-15.47,2.81-5.87,2.27-11.02.98-14.59-2.61-3.58-3.34-5.59-8.99-5.17-9.52.41-1.17,3.16,2.18,7.28,2.81,4.12,1.02,9.6-.67,15.47-2.81,5.87-2.27,11.02-.98,14.6,2.62,3.58,3.34,5.58,8.99,5.17,9.51"></path></g><polygon class="cls-3" points="20.42 167.68 5.15 167.68 -20.42 130.74 -5.15 130.74 20.42 167.68"></polygon><path class="cls-3" d="M25.7,31.46c-.1.87-.82,1.54-1.69,1.57l-3.31.12c-.21,0-.43.05-.62.14l-.33.14.98,3.4c.56,2.83.83,5.69.83,8.55v9.15c0,.76-.78,1.38-1.74,1.38h-4.85c-.96,0-1.74-.62-1.74-1.38v-2.91c0-.28-.28-.5-.63-.5H-12.59c-.35,0-.63.22-.63.5v2.91c0,.76-.78,1.38-1.74,1.38h-4.85c-.96,0-1.74-.62-1.74-1.38v-9.15c0-2.86.28-5.72.83-8.55l.98-3.4-.33-.14c-.2-.08-.41-.13-.62-.14l-3.31-.12c-.88-.03-1.6-.7-1.69-1.57-.12-1.05.7-1.96,1.76-1.96h1.9c.59,0,1.14.3,1.47.79l1.21,1.81,3.18-11.06c.23-1.28,1.4-2.28,2.89-2.47.53-.07,1.07-.13,1.61-.19v-1.79h-.12c-.56,0-1.02-.46-1.02-1.02v-4.23c0-.56.46-1.02,1.02-1.02H11.81c.56,0,1.02.46,1.02,1.02v4.23c0,.56-.46,1.02-1.02,1.02h-.12v1.79c.55.06,1.09.13,1.61.19,1.49.19,2.66,1.19,2.89,2.47l3.18,11.06,1.21-1.81c.33-.49.88-.79,1.47-.79h1.9c1.05,0,1.87.91,1.76,1.96ZM-9.97,18.2c2.96-.28,6.18-.47,9.66-.48.11,0,.21,0,.32,0,.1,0,.21,0,.32,0,3.47.01,6.7.2,9.66.48v-1.62H-9.97v1.62ZM-15.82,32.56c5.27-.47,10.46-.7,15.64-.71H-.19c.06,0,.12,0,.19,0,.06,0,.12,0,.19,0H.19c5.18.01,10.36.24,15.64.71.26.03.44-.22.36-.49-.79-3.83-1.19-5.74-1.99-9.56-.1-.48-.49-.85-.95-.9C8.79,21.31,4.39,21.15,0,21.15c-4.39,0-8.79.15-13.25.46-.46.04-.85.42-.95.9-.79,3.82-1.19,5.73-1.99,9.56-.08.27.1.52.36.49ZM16.46,42.42c0-.52-.42-.94-.94-.94H-15.52c-.52,0-.94.42-.94.94s.42.94.94.94H15.52c.52,0,.94-.42.94-.94ZM16.46,38.64c0-.52-.42-.94-.94-.94H-15.52c-.52,0-.94.42-.94.94s.42.94.94.94H15.52c.52,0,.94-.42.94-.94Z"></path></g></g></pattern></defs><rect class="cls-1" width="1366" height="768"></rect></svg>