<svg xmlns="http://www.w3.org/2000/svg" xmlns:xlink="http://www.w3.org/1999/xlink" id="Layer_1" x="0px" y="0px" viewBox="0 0 246.5 351" style="enable-background:new 0 0 246.5 351;" xml:space="preserve"><style type="text/css">	.st0{fill:#F7A7A8;}	.st1{fill:#F4908F;}	.st2{fill:#273339;}	.st3{fill:#95C8EC;}	.st4{opacity:0.4;fill:#010101;enable-background:new    ;}	.st5{fill:#F5F6F6;}	.st6{fill:#384850;}	.st7{opacity:0.6;fill:#273339;enable-background:new    ;}	.st8{opacity:0.7;fill:#FFFFFF;enable-background:new    ;}	.st9{fill:#465B65;}	.st10{fill:#E0E1E0;}	.st11{fill:#010101;}	.st12{fill:#BFD730;}	.st13{fill:#FAFBFC;}	.st14{opacity:0.15;fill:#010101;enable-background:new    ;}	.st15{fill:#EF3B2A;}	.st16{opacity:0.1;fill:#FFFFFF;enable-background:new    ;}	.st17{opacity:0.1;fill:#010101;enable-background:new    ;}</style><g id="freepik--character-4--inject-63">	<g id="freepik--Character--inject-63">		<path class="st0" d="M54.7,120.9c0,0,3.1,0.1,7.2,0.1s14.2-0.7,18.1-1.9c5.9-3.7,14.4-14.8,17.9-18.1c2.6-2.5,5.4-4,10.4-3.2    c3.3,0.5,5.6,10,0.8,15c-4.4,4.7-12.9,14.3-22.6,18.6c-4.2,1.9-9.1,1.2-20,0.7c-4.4-0.1-8.7-0.5-13-1.2    C50.5,130.5,54.7,120.9,54.7,120.9z"></path>		<path class="st1" d="M57.1,128.1c0.7-1.9,1-4,0.9-6l-0.2-0.1c-2.2,0-4.4-0.3-6.5-1l-1.2,0.6c-1.4,2-2.3,8-0.8,8.5    c1.4,0.4,2.7,0.7,4.1,0.9C55.7,131.1,56.6,129.4,57.1,128.1z"></path>		<path class="st0" d="M52.2,130.4c-5.9-0.2-8.1-3.2-8.9-8.4c-0.5-4.5-0.8-9.1-0.7-13.7c-0.1-1.8,0.5-2.4,1.2-2.5    c0.3,0,1.4,0.2,1.5,2.2c0.2,3.5,0.3,5.6,1,5.6s0.6-2.6,0.5-6.1c0-2.4,0-4.4,1.4-4.4s1.8,1.4,1.8,4.6s0,5.6,0.8,5.7    c0.7,0,0.5-3.4,0.7-5.6s0.1-3.5,1.5-3.5s1.6,1.8,1.5,4c-0.1,2.9,0,5.9,0.2,8.8c0.4,1.3,1.7-1.9,2.7-3.1c1.6-2.1,3.5-1.1,2.7,0.8    c-1,2.3-1.7,4.8-2.1,7.3C57.6,124.4,56.6,130.4,52.2,130.4z"></path>		<path class="st1" d="M52.2,119.8c0,0-3.5,3.7-2.3,7.6c-1.2-1.5-1.4-3.5-0.6-5.3C49.8,120.9,50.9,120,52.2,119.8z"></path>		<polygon class="st0" points="137.7,284.8 129.3,284.8 128.1,269.9 137.7,271.4   "></polygon>		<path class="st2" d="M119,300.5c-0.3,0.8-0.2,1.7,0.1,2.6c0.3,0.5,2.2,2.1,5.7,2.4c3.3,0.2,6.2-0.2,8.2-1.4    c1.7-0.9,2.9-2.6,3.1-4.5c0.2-1.9,0-3.7,0.9-5.1s2.1-2.8,2.4-3.6c0.3-1.3,0.3-2.6,0-3.8L119,300.5z"></path>		<path class="st3" d="M128.1,284.1c0,0.7-0.1,1.4-0.4,2.1c-0.5,1.5-1.2,2.8-2,4.1c-0.4,0.7-0.9,1.3-1.4,1.9c-1,1.2-2.2,2.2-3.3,3.3    c-1.1,1.1-1.8,2.5-2,4c-0.1,2.6,2.7,3.5,4.8,3.9c2.3,0.4,4.7,0.3,7-0.4c2.4-0.6,4.3-2.7,4.7-5.1c0.1-0.7,0.1-1.5,0.2-2.2    c0.3-1.6,1-3.2,2-4.5c0.6-0.8,1.1-1.6,1.5-2.5c0.7-1.6,0.1-3.4-0.3-5c-0.4-1.4-0.8-2.9-1.3-2.8c0,0.7,0,0.8-0.5,1.3    s-0.7,1.5-1.4,2.1c0.2-0.6,0.4-1.2,0.5-1.8c0-0.3,0-0.5-0.1-0.7c-0.2-0.2-0.5-0.3-0.8-0.4c-1-0.3-2.1-0.6-3.1-0.7    c-1-0.2-2-0.2-3.1,0c-0.3,0.1-0.6,0.2-0.8,0.5c-0.2,0.3-0.3,0.6-0.3,0.9C128,282.3,128.1,283.4,128.1,284.1z"></path>		<path class="st4" d="M128.1,284.1c0,0.7-0.1,1.4-0.4,2.1c-0.5,1.5-1.2,2.8-2,4.1c-0.4,0.7-0.9,1.3-1.4,1.9c-1,1.2-2.2,2.2-3.3,3.3    c-1.1,1.1-1.8,2.5-2,4c-0.1,2.6,2.7,3.5,4.8,3.9c2.3,0.4,4.7,0.3,7-0.4c2.4-0.6,4.3-2.7,4.7-5.1c0.1-0.7,0.1-1.5,0.2-2.2    c0.3-1.6,1-3.2,2-4.5c0.6-0.8,1.1-1.6,1.5-2.5c0.7-1.6,0.1-3.4-0.3-5c-0.4-1.4-0.8-2.9-1.3-2.8c0,0.7,0,0.8-0.5,1.3    s-0.7,1.5-1.4,2.1c0.2-0.6,0.4-1.2,0.5-1.8c0-0.3,0-0.5-0.1-0.7c-0.2-0.2-0.5-0.3-0.8-0.4c-1-0.3-2.1-0.6-3.1-0.7    c-1-0.2-2-0.2-3.1,0c-0.3,0.1-0.6,0.2-0.8,0.5c-0.2,0.3-0.3,0.6-0.3,0.9C128,282.3,128.1,283.4,128.1,284.1z"></path>		<path class="st5" d="M125.3,290.9c1-0.7,3.1-0.7,4.3-0.6c1.2,0.1,2.3,0.5,3.4,1.2c0.3,0.2,0.7,0.2,1-0.1l0,0c0.3-0.3,0.3-0.7,0-1    c0,0-0.1-0.1-0.1-0.1c-1.1-0.8-2.4-1.3-3.8-1.4c-2.9-0.2-3.8,0.3-3.8,0.3S125,290,125.3,290.9z"></path>		<path class="st5" d="M123.1,293.5c1.2-0.7,3.6-0.6,4.8-0.5c1.2,0.1,2.3,0.5,3.3,1.2c0.3,0.2,0.7,0.2,1-0.1l0,0    c0.3-0.3,0.3-0.7,0-1c0,0-0.1-0.1-0.1-0.1c-1.1-0.9-2.5-1.4-3.9-1.5c-2.9-0.2-3.7,0.4-3.7,0.4    C123.8,292.2,123.3,292.8,123.1,293.5z"></path>		<path class="st5" d="M131.3,286.1c-1.2-0.2-2.5-0.1-3.7,0.3c-0.5,0.3-0.9,1.1-0.5,1.3c1-0.4,2.1-0.6,3.2-0.5    c1.1,0.1,2.2,0.4,3.1,0.9c0.2,0.1,0.5,0.3,0.8,0.4c0.3,0.2,0.8,0.1,0.9-0.3c0,0,0,0,0,0l0,0c0.1-0.3,0-0.7-0.2-0.8    C133.8,286.7,132.6,286.3,131.3,286.1z"></path>		<polygon class="st0" points="108.6,276.5 99.3,276.8 99.2,261 109.9,260.3   "></polygon>		<path class="st2" d="M81.2,287.6c-0.2,0.8-0.2,1.6,0.1,2.3c0.3,0.7,3.8,2.7,8.6,2.3c3.5-0.2,6.9-1.4,9.8-3.4    c1.8-1.2,3.7-1.4,6-1.6s5.4-1.3,5.9-2.4c0.3-1,0.2-2-0.1-3L81.2,287.6z"></path>		<path class="st3" d="M100.4,272.8l-0.4-0.1c-0.2,0-0.4,0-0.6,0c-0.2,0.1-0.4,0.2-0.6,0.4c-0.5,0.6-0.9,1.2-1.2,1.9    c-1,1.6-3.1,3-5.4,4.2c-1.5,0.8-3.1,1.5-4.7,2.2s-3.8,1.2-5.1,2c-1.6,1.1-2,3.2-0.9,4.8c0.2,0.3,0.5,0.7,0.9,0.9    c1.8,1.1,6.6,2.2,11.7,0.8c2.8-0.8,5.8-3.7,9.4-4c2.3-0.2,6.6-0.8,8.1-2.6c0.5-0.8-0.2-3.2-0.8-5.3c-0.6-2.3-1.3-5.9-2-5.7    c0,0.3-0.1,0.7-0.4,0.9c-0.3,0.3-0.7,0.5-1,0.7c-0.5,0.5-1,1.1-1.3,1.8c-0.1,0.3-0.4,0.6-0.6,0.7c-0.4,0.1-0.7-0.1-1-0.2    c-0.4-0.2-0.9-0.2-1.4-0.1c0-0.5,0.1-0.9,0.2-1.4c0-0.1,0-0.3,0-0.4c-0.1-0.1-0.2-0.3-0.3-0.3C102.3,273.3,101.4,273,100.4,272.8z    "></path>		<path class="st4" d="M100.4,272.8l-0.4-0.1c-0.2,0-0.4,0-0.6,0c-0.2,0.1-0.4,0.2-0.6,0.4c-0.5,0.6-0.9,1.2-1.2,1.9    c-1,1.6-3.1,3-5.4,4.2c-1.5,0.8-3.1,1.5-4.7,2.2s-3.8,1.2-5.1,2c-1.6,1.1-2,3.2-0.9,4.8c0.2,0.3,0.5,0.7,0.9,0.9    c1.8,1.1,6.6,2.2,11.7,0.8c2.8-0.8,5.8-3.7,9.4-4c2.3-0.2,6.6-0.8,8.1-2.6c0.5-0.8-0.2-3.2-0.8-5.3c-0.6-2.3-1.3-5.9-2-5.7    c0,0.3-0.1,0.7-0.4,0.9c-0.3,0.3-0.7,0.5-1,0.7c-0.5,0.5-1,1.1-1.3,1.8c-0.1,0.3-0.4,0.6-0.6,0.7c-0.4,0.1-0.7-0.1-1-0.2    c-0.4-0.2-0.9-0.2-1.4-0.1c0-0.5,0.1-0.9,0.2-1.4c0-0.1,0-0.3,0-0.4c-0.1-0.1-0.2-0.3-0.3-0.3C102.3,273.3,101.4,273,100.4,272.8z    "></path>		<path class="st5" d="M94.4,277.9c0.3-0.6,1-1.1,1.7-1.1c1-0.2,2.9,0.6,4,1.5c0.4,0.3,0.4,0.8,0.1,1.2c-0.1,0.1-0.2,0.2-0.3,0.2    l0,0c-0.3,0.2-0.7,0.1-1-0.1C97.7,278.5,96.1,277.9,94.4,277.9z"></path>		<path class="st5" d="M91.1,279.7c0.5-0.6,1.2-1,2-1c1.6,0.1,3.2,0.6,4.4,1.6c0.4,0.3,0.4,0.8,0.1,1.2c-0.1,0.1-0.1,0.1-0.2,0.2    l0,0c-0.3,0.2-0.7,0.1-0.9-0.1C95.1,280.2,93.1,279.5,91.1,279.7z"></path>		<path class="st5" d="M87.6,281.3c0.5-0.6,1.3-0.9,2.1-0.9c1.6,0.1,3,0.7,4.2,1.7c0.4,0.3,0.4,0.8,0.1,1.2    c-0.1,0.1-0.1,0.1-0.2,0.2l0,0c-0.3,0.2-0.7,0.1-0.9-0.1C91.5,281.9,89.5,281.1,87.6,281.3z"></path>		<path class="st6" d="M135.1,151.5c6.8,15.4,0.9,62.9,0.9,62.9c0.2,2.5,3,9.5,4.1,20.4c1.2,12.9-2.3,41.9-2.3,41.9    c-3,1.2-6.3,1.1-9.2-0.3c0,0-8.2-46.8-9.8-59.6c-1.4-11.2-5.4-35.5-5.4-35.5l-1,35.3c0,0,1.4,8.9,1.9,13.7    c0.7,7.6-4.5,38.4-4.5,38.4s-6,1.9-10.9,0c0,0-3.6-43.3-4.3-52.4c-0.9-12.2-2.9-47.8-0.2-64.8L135.1,151.5z"></path>		<path class="st7" d="M113.5,181.2l-1.6-11.4c0,0-9.6-1.3-14-5.4c2.5,4,6.7,6.6,11.3,7.2l1.7,10.3l1.7,30.9L113.5,181.2z"></path>		<path class="st3" d="M121.3,98.1l2.9,0.2c0,0,8.5,1.7,9.2,3.1c1.6,3.1,1.7,4,1.7,7.6c0,3.9-0.6,7.4-2.6,12.6l-3.1,12.4    c-0.6,3.5,5.1,11.2,6.7,20c-11.5,6.4-27.3,5.3-35.4,1.8c-2.4-0.9-4.6-2.5-6.3-4.5c1.3-7.1,1.6-11.9,3.7-18.4c0,0-0.6-4.1-0.7-7.4    c-4.4-4.2-4.5-11.3-1.8-15.1c5.9-8.3,11.4-12.6,12.5-12.6L121.3,98.1z"></path>		<path class="st8" d="M121.3,98.1l2.9,0.2c0,0,8.5,1.7,9.2,3.1c1.6,3.1,1.7,4,1.7,7.6c0,3.9-0.6,7.4-2.6,12.6l-3.1,12.4    c-0.6,3.5,5.1,11.2,6.7,20c-11.5,6.4-27.3,5.3-35.4,1.8c-2.4-0.9-4.6-2.5-6.3-4.5c1.3-7.1,1.6-11.9,3.7-18.4c0,0-0.6-4.1-0.7-7.4    c-4.4-4.2-4.5-11.3-1.8-15.1c5.9-8.3,11.4-12.6,12.5-12.6L121.3,98.1z"></path>		<path class="st6" d="M122.3,92.7c0-2.3,5.8-6.8,8-10.1s7-12.5,0.7-16.3c0,0,1.2-6.2-3.3-9.7c-5.1-4-13.3-4-22.2-2.7    S93.6,53.4,92,57.1s1.7,7.7,3.4,8.5c0,0-3.1,3.8-0.5,7.4s9.4,2.5,9.4,2.5L122.3,92.7z"></path>		<path class="st0" d="M102.4,62c-2.1,1.3-4.8,6.7-4.5,18c0.2,9.6,3.3,12,4.9,12.7s4.6,0.3,7.5-0.2V98c0,0-3.6,3.3,0.4,4    c8.7,1.7,11.7-3.7,11.7-3.7V84.8c0,0,1.6,1.7,4.4-0.2c2.4-1.6,3.2-4.8,1.6-7.2c-0.1-0.1-0.2-0.2-0.3-0.4c-1.6-1.5-4-1.4-5.5,0.2    c-0.2,0.2-0.3,0.3-0.4,0.5c0,0-3.9-0.3-10.1-3.8C107.3,71.3,103.9,67.1,102.4,62z"></path>		<path class="st6" d="M122.2,77.6v3.8l0,0c-1.7,0-3.1-1.4-3.1-3.1v-4.5L122.2,77.6z"></path>		<path class="st9" d="M94.9,91.9c0.1-1.6,1-3.2,2.3-4.1c0.5-0.3,1.1-0.4,1.6-0.2l0,0l2.4,1.4l-3.4,5.8l-2.3-1.3l0,0    C95,93.1,94.8,92.5,94.9,91.9z"></path>		<path class="st6" d="M99.5,89.2c-1.4,0.9-2.3,2.4-2.3,4.1c0,1.5,1,2.1,2.3,1.3c1.4-0.9,2.3-2.4,2.3-4.1    C101.9,89,100.9,88.4,99.5,89.2z"></path>		<path class="st6" d="M104.2,86.5v0.8c0,0.3-0.2,0.7-0.5,0.9l-4.2,2.4v-1.3L104.2,86.5z"></path>		<polygon class="st9" points="101.9,85.1 104.2,86.5 99.5,89.2 97.2,87.8   "></polygon>		<path class="st10" d="M95.3,86.8c0,0-0.1-0.4-0.4-1s-0.5-1.4-0.8-2.2s-0.6-1.6-0.9-2.2c-0.1-0.1-0.1-0.3-0.2-0.4    c0-0.1-0.1-0.2-0.2-0.3c-0.1-0.1-0.2-0.1-0.4-0.2l-0.1,0.1c-0.1,0.1-0.1,0.2-0.1,0.4c0,0.1,0.1,0.2,0.1,0.3l0.2,0.4    c0.3,0.6,0.7,1.3,1.1,2.1l1.1,2.1L95.3,86.8L95.3,86.8z"></path>		<path class="st10" d="M93.3,88.7l-0.9-0.5L90.3,87c-0.8-0.4-1.5-0.8-2.1-1.1l-0.4-0.2c-0.1-0.1-0.2-0.1-0.3-0.1    c-0.1,0-0.3,0-0.4,0.1l-0.1,0.2c0,0.1,0.1,0.3,0.1,0.4c0.1,0.1,0.2,0.1,0.3,0.2l0.4,0.2c0.6,0.3,1.4,0.6,2.2,0.9l2.2,0.8    L93.3,88.7L93.3,88.7z"></path>		<path class="st10" d="M93.2,91.7l-1.1,0.2l-2.3,0.4c-0.9,0.1-1.7,0.2-2.3,0.4L87,92.7c-0.1,0-0.2,0.1-0.3,0.1    c-0.1,0.1-0.2,0.2-0.2,0.3v0.2c0.1,0.1,0.2,0.2,0.4,0.2c0.1,0,0.2,0,0.3,0l0.4-0.1c0.6-0.1,1.5-0.4,2.3-0.7l2.3-0.7L93.2,91.7    L93.2,91.7z"></path>		<path class="st10" d="M94.3,94.3L93.5,95l-1.7,1.7c-0.6,0.6-1.2,1.2-1.7,1.7l-0.3,0.3c-0.1,0.1-0.1,0.2-0.2,0.3c0,0.1,0,0.3,0,0.4    l0.1,0.1c0.1,0,0.3,0,0.4,0c0.1,0,0.1-0.1,0.2-0.2l0.3-0.3c0.4-0.5,0.9-1.2,1.5-1.8l1.5-1.9C94,94.7,94.3,94.3,94.3,94.3    L94.3,94.3z"></path>		<polygon class="st6" points="98.3,87.5 99.9,88.4 99.1,88.9 97.5,88   "></polygon>		<polygon class="st2" points="99.9,88.4 98.3,87.5 98.3,87.8 99.6,88.6   "></polygon>		<polygon class="st11" points="98.3,87.8 97.8,88.1 97.5,88 98.3,87.5   "></polygon>		<path class="st2" d="M110.2,77.5c0,0.7,0.5,1.2,1.2,1.2c0.7,0,1.2-0.5,1.2-1.2c0-0.7-0.5-1.2-1.1-1.2    C110.7,76.3,110.2,76.9,110.2,77.5C110.2,77.5,110.2,77.5,110.2,77.5z"></path>		<path class="st2" d="M99.5,73.8l2.4-1.7c-0.4-0.7-1.3-0.9-1.9-0.5c0,0,0,0-0.1,0C99.2,72.2,99,73.1,99.5,73.8z"></path>		<path class="st2" d="M100,76.7c-0.1,0.7,0.4,1.3,1.1,1.4s1.3-0.4,1.4-1.1c0-0.1,0-0.1,0-0.2c0.1-0.7-0.4-1.2-1.1-1.3c0,0,0,0,0,0    C100.6,75.5,100,76,100,76.7C100,76.7,100,76.7,100,76.7z"></path>		<polygon class="st1" points="106.7,76 106.5,83.2 102.7,82.1   "></polygon>		<path class="st1" d="M110.2,92.4c3.1-0.4,9.4-2.2,10.4-4.7c-0.4,1.3-1.2,2.4-2.2,3.2c-1.9,1.6-8.2,3.5-8.2,3.5V92.4z"></path>		<path class="st12" d="M124.2,98.4c0,0-1.3,5.6-7.8,10.8c-3.4,2.9-7.1,5.4-11,7.6c0,0-2.8-5.3-1.2-10.5c2.2-6.9,5.4-8.5,5.4-8.5    l-2.3-0.1c0,0-3.3,1.4-7.8,6.6c-6.6,7.7-6.8,11.5-5.5,16.2c0.6,1.9,1.7,3.7,3.1,5.1l0.2,7.1l-3.7,20.7c0,0,4.5,5.8,18,7.1    c19.4,1.8,25.3-5.4,25.3-5.4c-0.6-6.6-4.2-14.4-4.6-20.7c-0.5-7.3,3.1-14.3,3.7-22.2c0.2-3,0-5.9-0.9-8.8    c-0.7-2.5-2.9-4.3-5.5-4.5L124.2,98.4z"></path>		<path class="st13" d="M135.5,148c-0.2-0.9-0.5-1.9-0.8-2.8c-7.1,4.9-21.7,5.3-29.3,3.6c-4-0.9-7.5-3.4-9.8-6.8l-0.6,3.5    c1.4,2.4,4.5,5.4,10.4,6.7C113.3,154,128.7,153.4,135.5,148z"></path>		<path class="st13" d="M133.7,141.9c-0.3-1-0.5-2-0.8-3c-7.5,3.9-20.6,4.2-27.6,2.6c-3.4-0.8-6.5-2.6-8.7-5.4l-0.6,3.5    c2.4,2.7,5.7,4.6,9.3,5.2C112.7,146.5,126.4,146.2,133.7,141.9z"></path>		<path class="st14" d="M105.4,116.8c-1.6,4-2.5,35.7-1.3,45.3l-1.7-0.4c-0.6-5.8-0.1-23.2,0.6-31.7    C103.6,123.1,104.2,118.7,105.4,116.8z"></path>		<path class="st0" d="M178.1,148.6c0-0.6,0-1.1-0.1-1.7c-0.1-1.8-0.5-3.6-1.4-5.2c-0.9-1.6-2.4-2-4.1-2.6c-2.7-1-3.7-0.4-6.4-1.4    c-3.9-1.4-11.6-4.4-16.1-6.5c0,0-8.4-22.9-11-27.8c-2.3-4.4-5-4.3-11.3-4.7c-2.7,10.8-2.1,18.5,3.9,24.2c0,0,5.8,10.9,8.2,15    s2.9,4.7,8.9,6.2c5.6,1.4,16.5,4.5,18.7,5.1c2.8,0.8,5.2,7.1,10.1,1.7C178,150.3,178.2,149.4,178.1,148.6z"></path>		<path class="st6" d="M175.8,112.6c-0.1-0.4-0.3-0.8-0.7-1c-1.1-0.6-2.5-0.6-3.6,0c-0.4,0.2-0.7,0.6-0.7,1l0,0v61.1    c0,0.8,1.1,1.4,2.5,1.4s2.5-0.6,2.5-1.4l0,0L175.8,112.6L175.8,112.6z"></path>		<polygon class="st2" points="184.3,62.8 166.1,52.2 162.1,54.5 149.2,64.3 149.2,88.6 162.1,113.3 180.4,123.9 184.3,121.6     197.2,111.8 197.2,87.5   "></polygon>		<polygon class="st9" points="180.4,65.1 162.1,54.5 149.2,64.3 149.2,88.6 162.1,113.3 180.4,123.9 193.3,114.1 193.3,89.7   "></polygon>		<polygon class="st15" points="164.7,110.9 152.6,87.8 152.6,65.9 162.4,58.5 177.9,67.5 190,90.6 190,112.4 180.2,119.8   "></polygon>		<path class="st13" d="M155.8,82.3c0-0.2,0.2-0.3,0.4-0.2l1.6,1c0.2,0.2,0.4,0.4,0.4,0.7v1.4c0,0.8,0.1,1.6,0.2,2.3    c0.1,0.5,0.4,0.9,0.9,1.2c0.4,0.3,0.7,0.3,0.8,0c0.2-0.5,0.3-1,0.2-1.6c0-0.8-0.1-1.6-0.4-2.3c-0.3-0.9-0.7-1.8-1.2-2.6l-1.2-2.2    c-0.5-0.9-1-1.9-1.3-2.9c-0.3-0.9-0.5-1.9-0.5-2.8c0-1.6,0.3-2.5,0.8-2.9c0.5-0.4,1.4-0.2,2.7,0.6c1.2,0.7,2.1,1.7,2.6,3    c0.5,1.4,0.7,2.8,0.7,4.3V80c0,0.2-0.2,0.3-0.4,0.2l-1.5-1c-0.2-0.2-0.4-0.4-0.4-0.7v-0.9c0-0.7,0-1.4-0.2-2.1    c-0.1-0.4-0.4-0.8-0.8-1.1c-0.4-0.2-0.7-0.3-0.8-0.1c-0.2,0.4-0.3,0.8-0.2,1.2c0,0.5,0.1,1.1,0.2,1.6c0.3,0.7,0.6,1.4,0.9,2    l1.3,2.5c0.6,1.1,1.1,2.3,1.5,3.5c0.3,1,0.5,2.1,0.5,3.1c0,1.8-0.2,2.9-0.8,3.4s-1.4,0.3-2.7-0.5c-1.2-0.7-2.1-1.8-2.7-3.1    c-0.5-1.5-0.8-3-0.8-4.6L155.8,82.3z"></path>		<path class="st13" d="M165.3,94.5V79.2c0-0.3-0.2-0.5-0.4-0.7l-1.1-0.7c-0.2-0.2-0.4-0.4-0.4-0.7v-1.6c0-0.2,0.2-0.3,0.4-0.2    l5.4,3.5c0.2,0.2,0.4,0.4,0.4,0.7V81c0,0.2-0.2,0.3-0.4,0.2l-1.1-0.7c-0.2-0.1-0.4,0-0.4,0.2v15.3c0,0.2-0.2,0.3-0.4,0.2l-1.7-1.1    C165.4,95.1,165.3,94.8,165.3,94.5z"></path>		<path class="st13" d="M177,101.4c-0.6,0.5-1.5,0.4-2.7-0.4c-1.2-0.8-2.2-1.8-2.7-3.1c-0.6-1.5-0.9-3.1-0.9-4.7v-8.6    c0-3.4,1.2-4.4,3.6-2.8c1.2,0.7,2.1,1.8,2.7,3.1c0.6,1.4,0.9,2.9,0.8,4.4v8.6C177.9,99.8,177.6,100.9,177,101.4z M173.4,97.3    c0.1,0.5,0.5,0.9,0.9,1.2c0.5,0.3,0.8,0.3,0.9-0.1c0.2-0.7,0.3-1.4,0.2-2.1v-8.7c0-0.7-0.1-1.4-0.2-2.1c-0.1-0.5-0.4-0.9-0.8-1.2    c-0.4-0.3-0.7-0.3-0.9,0c-0.2,0.6-0.3,1.2-0.2,1.8v8.7C173.2,95.7,173.3,96.5,173.4,97.3z"></path>		<path class="st13" d="M180.1,104.1V86.3c0-0.3,0.2-0.3,0.4-0.2l3.3,2.2c1.2,0.7,2.1,1.7,2.6,3c0.5,1.4,0.8,2.9,0.7,4.4v0.4    c0.1,1.3-0.1,2.6-0.7,3.8c-0.5,0.7-1.3,0.6-2.5-0.2l-1-0.6c-0.2-0.1-0.4,0-0.4,0.2v6.5c0,0.2-0.2,0.3-0.4,0.2l-1.7-1.1    C180.3,104.7,180.1,104.4,180.1,104.1z M183,96.7l0.5,0.3c0.5,0.3,0.9,0.3,1,0c0.2-0.8,0.3-1.7,0.2-2.5v-0.4    c0-0.9-0.1-1.7-0.2-2.5c-0.2-0.6-0.5-1-1-1.3l-0.5-0.3c-0.2-0.1-0.4-0.1-0.4,0.2V96C182.6,96.3,182.7,96.5,183,96.7z"></path>		<polygon class="st9" points="162.1,54.5 166.1,52.2 184.3,62.8 180.4,65.1   "></polygon>		<polygon class="st16" points="162.1,54.5 166.1,52.2 184.3,62.8 180.4,65.1   "></polygon>		<polygon class="st6" points="197.2,87.5 193.3,89.7 180.4,65.1 184.3,62.8   "></polygon>		<polygon class="st17" points="193.3,114.1 197.2,111.8 184.3,121.6 180.4,123.9   "></polygon>		<path class="st0" d="M165.1,137.3c3.9,0.6,5.5-0.4,6.8,1.6c1,1.5,2.1,2.8,3.3,4.1c0.2,0.2,0.4,0.5,0.4,0.8c0,0.4-0.5,0.6-0.8,0.6    c-1.5,0.3-3,0-4.2-1c-1.3-0.7-2.6-1.3-4-1.8L165.1,137.3z"></path>		<path class="st0" d="M175.8,138.4c0.4,0.3,0.9,0.6,1.4,0.8c0.7,0.4,1.4,0.8,2,1.3c0.6,0.6,1,1.4,1,2.2c-0.1,0.4-0.1,0.8-0.1,1.2    c0.1,0.8,1,1.4,0.8,2.2c-0.1,0.5-0.7,0.8-0.8,1.4c-0.3,0.9,0.6,1.7,0.4,2.6c-0.2,0.4-0.4,0.8-0.8,1.1c-0.4,0.5-0.7,1-1.1,1.4    c-0.8,0.6-1.9,0.9-2.9,0.8c-1.3,0.1-2.6-0.4-3.6-1.4c-0.4-0.4-0.5-1.1-0.1-1.6c0.1-0.1,0.2-0.3,0.3-0.4c0.1-0.3,0-0.6-0.2-0.8    c-0.2-0.2-0.4-0.4-0.5-0.7c-0.1-0.5-0.1-1,0.2-1.5c0.3-0.8-0.1-1.3-0.1-2c-0.1-0.7,0.2-1.5,0.7-2c0.3-0.3,0.7-0.6,1.1-0.8    c0.2-0.3,0.4-0.4,0.8-0.5c0.1,0,1.7-0.8,1.7-1V138.4z"></path>		<path class="st1" d="M170.7,151.6v-8.1l-0.6-0.4c0,0-2.3,1.8-4.3,1.6c1.3,0.3,2.6,0.3,3.9,0v5.9L170.7,151.6L170.7,151.6z"></path>		<path class="st1" d="M175.1,143.1c0,0,0.7,0.9-0.3,1.3c-1.1,0.3-2.2,0.2-3.1-0.4c-0.1,0.3-0.1,0.6-0.1,0.9c0,0,2.6,1,3.5-0.1    S175.1,143.1,175.1,143.1z"></path>	</g></g></svg>