<svg id="Layer_1" data-name="Layer 1" xmlns="http://www.w3.org/2000/svg" viewBox="0 0 200 200"><defs><style>.cls-1{fill:#3e5076;}</style></defs><path class="cls-1" d="M185.48,76.32,9.21,96.22c-.09.69-.18,1.39-.28,2.09A127.82,127.82,0,0,1,2.87,123v45.39c0,6.94,4.82,12.57,10.76,12.57H31.85c5.94,0,10.76-5.63,10.76-12.57v-6.05H157.39v6.05c0,6.94,4.82,12.57,10.76,12.57h18.22c5.94,0,10.76-5.63,10.76-12.57V123a124.76,124.76,0,0,1-5.86-24.43c-.1-.69-.18-1.38-.26-2.06-1.19-2.14-3.09-5.73-5.1-10.31-5.57-12.74-7.38-22.76-14.51-44.43-1.84-5.6-3.44-10.17-7.82-13.91-4.88-4.16-10.51-5-13.33-5.37a359.55,359.55,0,0,0-100.5,0c-2.82.38-8.45,1.21-13.33,5.37-4.35,3.71-6,8.23-7.82,13.91-7,21.2-8.94,31.26-14.35,43.93C12.26,90.39,10.38,94,9.21,96.22ZM26.84,84.1,39.23,46.15l.2-.76c1.22-5.71,5.46-9.7,10.32-9.7h100.5c4.86,0,9.1,4,10.32,9.7l12.59,38.72a.65.65,0,0,1-.55.9l-61.82-3c-3.28-.15-17.69-.15-21,0L27.39,85A.66.66,0,0,1,26.84,84.1Zm7.84,55.46c-8.12,0-14.71-7.77-14.75-17.26,0-5.44-.2-8.59,1-10.34,1.06-1.54,3.19-2,7.44-2,7.29,0,22.12,18.1,28.23,26,1.08,1.39.23,3.61-1.37,3.61Zm144.72-18c0,9.49-6.63,17.26-14.75,17.26H146.28c-3.79,0-4.64-2.22-3.56-3.61,6.12-7.9,20.94-26,28.24-26,4.25,0,6.38.47,7.44,2C179.6,113,179.42,116.15,179.4,121.59Z"/></svg>