<?xml version="1.0" encoding="UTF-8"?>
<svg id="Layer_1" xmlns="http://www.w3.org/2000/svg" version="1.1" viewBox="0 0 1080 1080">
  <!-- Generator: Adobe Illustrator 29.7.1, SVG Export Plug-In . SVG Version: 2.1.1 Build 8)  -->
  <defs>
    <style>
      .st0 {
        fill: #252a2e;
      }

      .st1 {
        fill: #fff;
      }

      .st2 {
        fill: #bbd154;
      }

      .st3 {
        fill: #3a9d69;
      }

      .st4 {
        fill: #f7f189;
      }
    </style>
  </defs>
  <path class="st0" d="M1009.6,61.6H70.4C31.5,61.6,0,93.1,0,132v630.2c0,38.9,31.5,70.4,70.4,70.4h284.3l-24.2,138.6h-67.8c-13.1,0-23.8,10.7-23.8,23.8s10.7,23.8,23.8,23.8h554.5c13.1,0,23.8-10.7,23.8-23.8s-10.7-23.8-23.8-23.8h-67.8l-24.2-138.6h284.3c38.9,0,70.4-31.5,70.4-70.4V132c0-38.9-31.5-70.4-70.4-70.4Z"/>
  <path class="st2" d="M1024.5,137.2v556.5H55.4V137.2c0-14.6,11.8-26.4,26.4-26.4h916.3c14.6,0,26.4,11.8,26.4,26.4Z"/>
  <rect class="st1" x="459.5" y="741.6" width="161.1" height="31.7" rx="7.1" ry="7.1"/>
  <path class="st1" d="M924.2,402.2c0,116.6-51.9,221-133.9,291.5h-500.7c-82-70.5-133.9-174.9-133.9-291.5s51.9-221,133.9-291.5h500.7c82,70.5,133.9,174.9,133.9,291.5Z"/>
  <g>
    <ellipse class="st2" cx="307.1" cy="522.9" rx="39.8" ry="72.2"/>
    <ellipse class="st2" cx="772.9" cy="522.9" rx="39.8" ry="72.2"/>
    <g>
      <path class="st3" d="M306.4,450.7c-.1,0-.2,0-.3,0,0,0,0,0,0,0,.1,0,.3,0,.4,0Z"/>
      <path class="st3" d="M771.9,450.7s0,0,0,0c-.3,0-.6,0-.9,0,.3,0,.7,0,1,0Z"/>
      <path class="st3" d="M771,595c.3,0,.6,0,.9,0,0,0,0,0,0,0-.3,0-.7,0-1,0Z"/>
      <path class="st3" d="M733.1,522.9c0-38.6,16.7-70.1,37.7-72.1-153,15.6-305.7,15.7-458.7.5,19.7,4.4,34.9,34.8,34.9,71.6s-15.2,67.2-34.9,71.6c153-15.2,305.7-15.1,458.7.5-21-2-37.7-33.5-37.7-72.1Z"/>
      <path class="st3" d="M306,595s0,0,0,0c.1,0,.2,0,.3,0-.1,0-.3,0-.4,0Z"/>
    </g>
    <path class="st0" d="M616.2,617.7l-34.2-59.2c1.1-3.9,1.7-8,1.7-12.3,0-12.9-5.5-24.6-14.2-32.7v-58.2c0-5.9-4.9-10.8-10.8-10.8h-39.4c-5.9,0-10.8,4.9-10.8,10.8v58.2c-8.8,8.2-14.2,19.8-14.2,32.7s.6,8.4,1.7,12.3l-34.2,59.2c-2,3.4-.8,7.8,2.6,9.7l35.2,20.4c3.4,2,7.8.8,9.7-2.6l29.6-51.3,29.6,51.3c2,3.4,6.3,4.6,9.7,2.6l35.2-20.4c3.4-2,4.6-6.3,2.6-9.7Z"/>
    <circle class="st4" cx="538" cy="544.7" r="25.8"/>
  </g>
  <g>
    <g>
      <path class="st2" d="M771.9,225.3l-231.9-68.9-231.9,68.9c-10.6,5.6-10.6,20.8,0,26.4l231.9,68.9,169.7-50.4v83.2c0,4.4,3.6,7.9,7.9,7.9s7.9-3.6,7.9-7.9v-87.9l46.4-13.8c10.6-5.6,10.6-20.8,0-26.4Z"/>
      <path class="st3" d="M668.1,259.5v109.7c0,.7,0,1.4-.2,2.1-.9,6.9-6,12.6-13,14.1-77.6,16.6-152.2,16.6-229.8,0-5.4-1.2-9.7-4.9-11.8-9.8-.9-2-1.3-4.2-1.3-6.5v-109.7c0-7.8,5.5-14.6,13.2-16.2,77.7-16.6,152.2-16.6,229.8,0,7.7,1.6,13.2,8.4,13.2,16.2Z"/>
    </g>
    <path class="st0" d="M667.6,371.4c-.9,6.9-6,12.6-13,14.1-77.6,16.6-152.2,16.6-229.8,0-5.4-1.2-9.7-4.9-11.8-9.8,29-11.9,77.9-19.7,133.3-19.7s91.8,5.9,121.3,15.4Z"/>
  </g>
</svg>