<?xml version="1.0" encoding="UTF-8"?>
<svg id="Layer_1" xmlns="http://www.w3.org/2000/svg" version="1.1" viewBox="0 0 256 256">
  <!-- Generator: Adobe Illustrator 29.8.1, SVG Export Plug-In . SVG Version: 2.1.1 Build 2)  -->
  <defs>
    <style>
      .st0 {
        fill: #28844f;
      }
    </style>
  </defs>
  <path class="st0" d="M239.9,159.6c-2.1,6.1-16.5-11.4-38-14.7-21.5-5.4-50,3.5-80.7,14.6-30.7,11.1-57.4,5.1-76.1-13.6-18.7-17.4-29.1-46.9-27-49.6,2.1-6.1,16.5,11.4,38,14.7,21.5,5.4,50-3.5,80.7-14.6,30.7-11.1,57.4-5.1,76.1,13.6,18.7,17.4,29.1,46.9,27,49.6Z"/>
  <path class="st0" d="M255.7,228.6c-2.1,6.1-16.5-11.4-37.9-14.7-21.5-5.4-50.1,3.5-80.7,14.6-30.6,11.1-57.5,5.1-76.1-13.6-18.7-17.4-29.1-46.9-27-49.6,2.2-6.1,16.5,11.4,38,14.7,21.5,5.3,50.1-3.5,80.7-14.7,30.6-11.2,57.5-5.1,76.1,13.7,18.7,17.4,29.1,46.9,26.9,49.6Z"/>
  <path class="st0" d="M222,90.7c-2.1,6.1-16.5-11.4-37.9-14.7-21.5-5.4-50.1,3.5-80.7,14.6-30.6,11.1-57.5,5.1-76.1-13.6C8.6,59.6-1.9,30.1.3,27.4c2.1-6.1,16.5,11.4,37.9,14.7,21.5,5.4,50.1-3.5,80.7-14.6,30.6-11.1,57.5-5.1,76.1,13.6,18.7,17.4,29.1,46.9,26.9,49.6Z"/>
</svg>