<svg xmlns="http://www.w3.org/2000/svg" id="b734870f-50f4-4012-9bc0-614f97c97175" data-name="Layer 1" width="100" height="100" fill="#26834F" viewBox="0 0 500 422"><path d="M454.4,261.3c-3.9,11.1-30.2-20.8-69.4-26.8-39.2-9.8-91.4,6.4-147.4,26.7s-104.9,9.4-139-24.9c-34.1-31.8-53.2-85.7-49.3-90.6,3.9-11.1,30.2,20.8,69.4,26.8,39.2,9.8,91.4-6.4,147.4-26.7s104.9-9.4,139,24.9C439.2,202.5,458.3,256.3,454.4,261.3Z"></path><path d="M483.3,387.3c-3.9,11.1-30.1-20.8-69.3-26.8-39.3-9.8-91.5,6.4-147.4,26.7s-105,9.4-139.1-24.9c-34.1-31.8-53.2-85.7-49.3-90.6,4-11.2,30.2,20.8,69.4,26.8,39.2,9.7,91.5-6.4,147.4-26.8s105-9.3,139.1,25C468.2,328.5,487.3,382.3,483.3,387.3Z"></path><path d="M421.7,135.3c-3.9,11.1-30.1-20.8-69.3-26.8-39.2-9.8-91.5,6.4-147.4,26.7s-105,9.4-139.1-24.9C31.8,78.5,12.7,24.6,16.7,19.7,20.6,8.6,46.8,40.5,86,46.5c39.2,9.8,91.5-6.4,147.4-26.7s105-9.4,139.1,24.9C406.6,76.5,425.7,130.4,421.7,135.3Z"></path></svg>