<svg width="216" height="34" viewBox="0 0 216 34" fill="none" xmlns="http://www.w3.org/2000/svg">
<g id="Layer_1" clip-path="url(#clip0_51_2)">
<path id="Vector" d="M37.1925 21.421C36.8585 22.3684 34.6346 19.6559 31.3038 19.1473C27.9729 18.3195 23.5402 19.6908 18.7932 21.416C14.0463 23.2509 9.88278 22.2088 6.99075 19.2968C4.09871 16.5943 2.47319 12.0219 2.80727 11.603C3.14135 10.6556 5.36522 13.3682 8.69605 13.8768C12.0269 14.7045 16.4597 13.3383 21.2066 11.608C25.9535 9.76809 30.117 10.8152 33.0091 13.7222C35.9011 16.4248 37.5216 20.9972 37.1925 21.416" fill="white"/>
<path id="Vector_2" d="M39.6508 32.1115C39.3167 33.0589 37.0928 30.3464 33.762 29.8378C30.4312 29.0101 25.9984 30.3813 21.2515 32.1065C16.5045 33.9465 12.341 32.8993 9.44898 29.9924C6.55694 27.2898 4.93142 22.7174 5.2655 22.2985C5.59958 21.3512 7.82345 24.0637 11.1543 24.5723C14.4851 25.4 18.9179 24.0338 23.6648 22.3035C28.4117 20.4686 32.5753 21.5057 35.4673 24.4177C38.3593 27.1203 39.9849 31.6927 39.6508 32.1115Z" fill="white"/>
<path id="Vector_3" d="M34.4303 10.7255C34.0962 11.6729 31.8723 8.96035 28.5415 8.45175C25.2107 7.62403 20.7779 8.99027 16.031 10.7205C11.284 12.5554 7.1205 11.5133 4.22847 8.60633C1.33145 5.90377 -0.28909 1.33137 0.0449901 0.91252C0.37907 -0.0348703 2.60294 2.67267 5.93377 3.18626C9.26459 4.01398 13.6974 2.64774 18.4443 0.917506C23.1912 -0.922425 27.3548 0.119704 30.2468 3.03168C33.1388 5.73424 34.7644 10.3066 34.4303 10.7255Z" fill="white"/>
<path id="Vector_4" d="M79.2716 31.6927H81.3409V28.1226H84.2529V26.3275H81.3409V24.4178H85.0158V22.6127H79.2716V31.6927Z" fill="white"/>
<path id="Vector_5" d="M92.4603 28.1475H95.7512V26.2876H92.4603V24.4178H96.215V22.6127H90.391V31.6927H96.3296V29.8877H92.4603V28.1475Z" fill="white"/>
<path id="Vector_6" d="M101.131 24.4178H103.525V31.6927H105.594V24.4178H107.993V22.6127H101.131V24.4178Z" fill="white"/>
<path id="Vector_7" d="M58.8728 26.3275L57.9254 26.0233C57.0828 25.7839 57.0279 25.3801 57.0279 25.1956C57.0279 24.6969 57.4517 24.2582 58.095 24.2582C58.808 24.2582 59.1371 24.7169 59.1371 25.2604H61.2064C61.2064 23.4953 59.8751 22.4531 58.1349 22.4531C56.3946 22.4531 54.9337 23.6 54.9337 25.2305C54.9337 26.0881 55.3176 27.3097 57.3171 27.8533L58.3991 28.1823C59.2019 28.4466 59.4014 28.7757 59.4014 29.1297C59.4014 29.7231 58.8878 30.0622 58.2146 30.0622C57.5016 30.0622 56.9232 29.6134 56.9232 29.035H54.8539C54.8539 30.7104 56.1952 31.8423 58.1349 31.8423C59.7953 31.8423 61.4806 30.9747 61.4806 29.025C61.4806 27.3796 60.1643 26.7214 58.8728 26.3225" fill="white"/>
<path id="Vector_8" d="M69.4337 27.7885L70.446 24.5873L71.4731 27.7885H69.4337ZM69.344 22.6127L65.9832 31.6877H68.1971L68.8703 29.5785H72.0565L72.7396 31.6877H74.9386L71.5928 22.6127H69.339H69.344Z" fill="white"/>
<path id="Vector_9" d="M184.522 24.4078C185.469 24.4078 186.167 24.8565 186.641 25.5945L188.246 24.4726C187.419 23.2609 186.023 22.4581 184.427 22.4581C181.869 22.4581 179.815 24.5773 179.815 27.1352C179.815 29.6932 181.869 31.8523 184.427 31.8523C186.023 31.8523 187.419 31.0495 188.246 29.8378L186.641 28.7159C186.167 29.4539 185.469 29.9026 184.507 29.9026C182.951 29.9026 181.899 28.6361 181.899 27.1352C181.899 25.6344 182.991 24.4078 184.522 24.4078Z" fill="white"/>
<path id="Vector_10" d="M195.676 22.6127H193.607V31.6877H195.676V22.6127Z" fill="white"/>
<path id="Vector_11" d="M173.517 27.7635L170.62 22.6127H168.72V31.6927H170.79V26.4721L173.766 31.6927H175.586V22.6127H173.517V27.7635Z" fill="white"/>
<path id="Vector_12" d="M203.205 22.6127H201.136V31.6927H206.536V29.8877H203.205V22.6127Z" fill="white"/>
<path id="Vector_13" d="M134.659 24.4078C135.606 24.4078 136.305 24.8565 136.778 25.5945L138.384 24.4726C137.551 23.2609 136.16 22.4581 134.564 22.4581C132.006 22.4581 129.952 24.5773 129.952 27.1352C129.952 29.6932 132.006 31.8523 134.564 31.8523C136.16 31.8523 137.556 31.0495 138.384 29.8378L136.778 28.7159C136.305 29.4539 135.606 29.9026 134.644 29.9026C133.088 29.9026 132.036 28.6361 132.036 27.1352C132.036 25.6344 133.128 24.4078 134.659 24.4078Z" fill="white"/>
<path id="Vector_14" d="M160.977 28.2921C160.977 29.4389 160.254 29.8877 159.516 29.8877C158.778 29.8877 158.04 29.4389 158.04 28.2921V22.6127H155.97V28.4467C155.97 30.5409 157.646 31.8473 159.516 31.8473C161.385 31.8473 163.046 30.5409 163.046 28.4467V22.6127H160.977V28.2921Z" fill="white"/>
<path id="Vector_15" d="M116.045 25.9585L113.951 22.6127H111.488L115.018 27.594V31.6877H117.097V27.6339L120.643 22.6127H118.179L116.045 25.9585Z" fill="white"/>
<path id="Vector_16" d="M147.01 29.8976C145.484 29.8976 144.467 28.661 144.467 27.1452C144.467 25.6294 145.479 24.4028 147.01 24.4028C148.541 24.4028 149.568 25.6294 149.568 27.1452C149.568 28.661 148.526 29.8976 147.01 29.8976ZM147.025 22.4531C144.427 22.4531 142.388 24.5723 142.388 27.1452C142.388 29.7181 144.427 31.8472 147.025 31.8472C149.623 31.8472 151.647 29.7131 151.647 27.1452C151.647 24.5773 149.578 22.4531 147.025 22.4531Z" fill="white"/>
<path id="Vector_17" d="M45.9734 16.6791C45.8188 16.6791 45.6792 16.6192 45.5645 16.5045C45.4498 16.3898 45.39 16.2502 45.39 16.0957V2.00447C45.39 1.8499 45.4498 1.71028 45.5645 1.5956C45.6792 1.48092 45.8188 1.42108 45.9734 1.42108H57.3171C57.4717 1.42108 57.6113 1.48092 57.726 1.5956C57.8407 1.71028 57.9005 1.8499 57.9005 2.00447V4.84665C57.9005 5.01618 57.8407 5.15579 57.726 5.27546C57.6113 5.39015 57.4717 5.44998 57.3171 5.44998H50.7801V7.0057H56.3647C56.5193 7.0057 56.6589 7.06553 56.7736 7.18022C56.8883 7.2949 56.9481 7.43452 56.9481 7.58909V10.3914C56.9481 10.5609 56.8883 10.7005 56.7736 10.8202C56.6589 10.9349 56.5193 10.9947 56.3647 10.9947L50.7801 11.0147V12.6501H57.8457C58.0152 12.6501 58.1548 12.71 58.2645 12.8247C58.3742 12.9394 58.4291 13.084 58.4291 13.2535V16.0957C58.4291 16.2502 58.3742 16.3898 58.2645 16.5045C58.1548 16.6192 58.0152 16.6791 57.8457 16.6791H45.9734Z" fill="white"/>
<path id="Vector_18" d="M77.8904 1.40112C78.1348 1.40112 78.3143 1.49088 78.424 1.6654C78.5337 1.83991 78.5387 2.03937 78.4339 2.25876L71.3485 16.5843C71.2986 16.6741 71.2138 16.7538 71.1041 16.8187C70.9944 16.8835 70.8947 16.9184 70.8 16.9184H68.252C68.1622 16.9184 68.0575 16.8835 67.9379 16.8137C67.8232 16.7439 67.7434 16.6591 67.7035 16.5693L60.6779 2.2438C60.5731 2.02441 60.5781 1.82994 60.6978 1.66041C60.8125 1.49088 60.992 1.40611 61.2214 1.40611H65.6392C65.7439 1.40611 65.8486 1.44101 65.9483 1.50583C66.053 1.57066 66.1278 1.65542 66.1827 1.76013L69.703 9.30934L73.0887 1.76013C73.1286 1.67038 73.2033 1.5906 73.313 1.51581C73.4227 1.446 73.5324 1.4111 73.6322 1.4111H77.8755L77.8904 1.40112Z" fill="white"/>
<path id="Vector_19" d="M81.9393 16.6791C81.7847 16.6791 81.6451 16.6192 81.5304 16.5045C81.4157 16.3898 81.3559 16.2502 81.3559 16.0957V2.00447C81.3559 1.8499 81.4157 1.71028 81.5304 1.5956C81.6451 1.48092 81.7847 1.42108 81.9393 1.42108H93.283C93.4376 1.42108 93.5772 1.48092 93.6919 1.5956C93.8066 1.71028 93.8664 1.8499 93.8664 2.00447V4.84665C93.8664 5.01618 93.8066 5.15579 93.6919 5.27546C93.5772 5.39015 93.4376 5.44998 93.283 5.44998H86.746V7.0057H92.3307C92.4852 7.0057 92.6249 7.06553 92.7395 7.18022C92.8542 7.2949 92.9141 7.43452 92.9141 7.58909V10.3914C92.9141 10.5609 92.8542 10.7005 92.7395 10.8202C92.6249 10.9349 92.4852 10.9947 92.3307 10.9947L86.746 11.0147V12.6501H93.8116C93.9811 12.6501 94.1207 12.71 94.2304 12.8247C94.3401 12.9394 94.395 13.084 94.395 13.2535V16.0957C94.395 16.2502 94.3401 16.3898 94.2304 16.5045C94.1207 16.6192 93.9811 16.6791 93.8116 16.6791H81.9393Z" fill="white"/>
<path id="Vector_20" d="M124.946 9.429C124.946 10.6207 125.355 11.5681 126.172 12.2712C127 12.9742 128.152 13.3233 129.618 13.3233C130.8 13.3233 131.687 13.2086 132.286 12.9742V12.0019H130.241C130.072 12.0019 129.932 11.9421 129.812 11.8274C129.698 11.7127 129.638 11.5681 129.638 11.3986V8.81071C129.638 8.64117 129.698 8.50156 129.812 8.39186C129.927 8.28216 130.072 8.22731 130.241 8.22731H136.469C136.639 8.22731 136.778 8.28216 136.898 8.39186C137.013 8.50156 137.072 8.64117 137.072 8.81071V15.6419C137.072 15.7566 137.033 15.8713 136.948 15.981C136.863 16.0907 136.763 16.1654 136.644 16.2053C135.696 16.5045 134.619 16.7439 133.403 16.9234C132.191 17.1029 130.874 17.1976 129.463 17.1976C126.257 17.1976 123.804 16.5793 122.109 15.3377C120.408 14.1011 119.561 12.1864 119.561 9.60851C119.561 7.03061 120.438 5.07599 122.188 3.59507C123.939 2.14407 126.232 1.41608 129.059 1.41608C130.436 1.41608 131.672 1.50583 132.774 1.68035C133.876 1.85487 134.764 2.04933 135.442 2.25377C135.547 2.2787 135.641 2.34352 135.726 2.43826C135.811 2.533 135.861 2.63771 135.871 2.74242L136.2 5.44996C136.225 5.66936 136.16 5.84887 136.005 5.9835C135.851 6.11812 135.661 6.15801 135.442 6.08821C134.744 5.87878 133.896 5.67933 132.914 5.48487C132.435 5.39512 131.952 5.32531 131.463 5.27046C130.974 5.2206 130.486 5.19068 129.992 5.19068C128.461 5.19068 127.23 5.57961 126.292 6.35746C125.4 7.13532 124.951 8.16249 124.951 9.43399" fill="white"/>
<path id="Vector_21" d="M164.198 16.6791C164.043 16.6791 163.904 16.6192 163.789 16.5045C163.674 16.3898 163.614 16.2502 163.614 16.0957V2.00447C163.614 1.8499 163.674 1.71028 163.789 1.5956C163.904 1.48092 164.043 1.42108 164.198 1.42108H175.546C175.701 1.42108 175.836 1.48092 175.955 1.5956C176.07 1.71028 176.13 1.8499 176.13 2.00447V4.84665C176.13 5.01618 176.07 5.15579 175.955 5.27546C175.836 5.39015 175.701 5.44998 175.546 5.44998H169.009V7.0057H174.594C174.749 7.0057 174.883 7.06553 175.003 7.18022C175.118 7.2949 175.177 7.43452 175.177 7.58909V10.3914C175.177 10.5609 175.118 10.7005 175.003 10.8202C174.883 10.9349 174.749 10.9947 174.594 10.9947L169.009 11.0147V12.6501H176.075C176.245 12.6501 176.384 12.71 176.494 12.8247C176.604 12.9394 176.658 13.084 176.658 13.2535V16.0957C176.658 16.2502 176.604 16.3898 176.494 16.5045C176.384 16.6192 176.245 16.6791 176.075 16.6791H164.203H164.198Z" fill="white"/>
<path id="Vector_22" d="M182.472 16.6791C182.318 16.6791 182.178 16.6192 182.063 16.5045C181.949 16.3898 181.889 16.2502 181.889 16.0957V2.00447C181.889 1.8499 181.949 1.71028 182.063 1.5956C182.178 1.48092 182.318 1.42108 182.472 1.42108H193.816C193.971 1.42108 194.11 1.48092 194.225 1.5956C194.34 1.71028 194.399 1.8499 194.399 2.00447V4.84665C194.399 5.01618 194.34 5.15579 194.225 5.27546C194.11 5.39015 193.971 5.44998 193.816 5.44998H187.279V7.0057H192.864C193.018 7.0057 193.158 7.06553 193.273 7.18022C193.387 7.2949 193.447 7.43452 193.447 7.58909V10.3914C193.447 10.5609 193.387 10.7005 193.273 10.8202C193.158 10.9349 193.018 10.9947 192.864 10.9947L187.279 11.0147V12.6501H194.345C194.514 12.6501 194.654 12.71 194.764 12.8247C194.873 12.9394 194.928 13.084 194.928 13.2535V16.0957C194.928 16.2502 194.873 16.3898 194.764 16.5045C194.654 16.6192 194.514 16.6791 194.345 16.6791H182.472Z" fill="white"/>
<path id="Vector_23" d="M208.78 6.15305C209.154 6.64669 209.528 7.14033 209.887 7.64394C210.251 8.14257 210.62 8.65116 210.999 9.16974V2.00447C210.999 1.8499 211.059 1.71028 211.173 1.5956C211.288 1.48092 211.433 1.42108 211.602 1.42108H215.397C215.566 1.42108 215.711 1.48092 215.825 1.5956C215.94 1.71028 216 1.8499 216 2.00447V16.0957C216 16.2502 215.94 16.3898 215.825 16.5045C215.711 16.6192 215.566 16.6791 215.397 16.6791H211.039C210.974 16.6791 210.889 16.6541 210.784 16.6092C210.68 16.5644 210.605 16.5095 210.55 16.4447L205.06 9.05007V16.0957C205.06 16.2502 205 16.3898 204.886 16.5045C204.766 16.6192 204.626 16.6791 204.457 16.6791H200.662C200.508 16.6791 200.368 16.6192 200.253 16.5045C200.139 16.3898 200.079 16.2502 200.079 16.0957V2.00447C200.079 1.8499 200.139 1.71028 200.253 1.5956C200.368 1.48092 200.508 1.42108 200.662 1.42108H204.98C205.06 1.42108 205.15 1.44601 205.265 1.50086C205.374 1.55072 205.444 1.61056 205.469 1.67538C206.037 2.45324 206.596 3.21115 207.134 3.94413C207.673 4.67711 208.221 5.41508 208.78 6.15305Z" fill="white"/>
<path id="Vector_24" d="M152.256 7.3597C151.762 7.5791 151.044 7.6888 150.097 7.6888H147.763V4.79178H150.795C151.508 4.79178 152.051 4.90148 152.425 5.12087C152.799 5.34027 152.989 5.68931 152.989 6.16799C152.989 6.73642 152.744 7.13532 152.251 7.35472M159.77 15.7815L157.401 11.7875C157.122 11.3188 156.788 10.88 156.384 10.516C156.384 10.516 156.379 10.511 156.374 10.506C156.085 10.2468 155.731 10.0074 155.312 9.78801C155.661 9.67333 155.985 9.5387 156.275 9.38911C156.564 9.23953 156.823 9.07997 157.042 8.91043C157.935 8.24726 158.384 7.1802 158.384 5.69928C158.384 4.38789 157.84 3.3308 156.748 2.52801C155.736 1.79005 154.395 1.41608 152.719 1.41608H142.951C142.797 1.41608 142.657 1.47591 142.542 1.5906C142.428 1.70528 142.368 1.8449 142.368 1.99947V16.0907C142.368 16.2452 142.428 16.3848 142.542 16.4995C142.657 16.6142 142.797 16.674 142.951 16.674H147.269C147.439 16.674 147.583 16.6142 147.698 16.4995C147.813 16.3848 147.873 16.2452 147.873 16.0907V11.2839H149.762C150.461 11.2839 150.864 11.3238 150.969 11.3986C151.034 11.4385 151.094 11.4883 151.154 11.5532C151.213 11.618 151.268 11.6828 151.318 11.7476L151.298 11.7077L153.791 16.34C153.841 16.4297 153.916 16.5095 154.016 16.5743C154.11 16.6391 154.215 16.674 154.32 16.674H159.261C159.506 16.674 159.685 16.5793 159.795 16.3898C159.905 16.2004 159.895 15.9959 159.765 15.7765" fill="white"/>
<path id="Vector_25" d="M109.214 7.3597C108.721 7.5791 108.002 7.6888 107.055 7.6888H104.722V4.79178H107.753C108.466 4.79178 109.01 4.90148 109.384 5.12087C109.758 5.34027 109.947 5.68931 109.947 6.16799C109.947 6.73642 109.703 7.13532 109.209 7.35472M116.728 15.7815L114.36 11.7875C114.081 11.3188 113.747 10.88 113.343 10.516C113.343 10.516 113.338 10.511 113.333 10.506C113.039 10.2468 112.69 10.0074 112.271 9.78801C112.62 9.67333 112.944 9.5387 113.233 9.38911C113.522 9.23953 113.782 9.07997 114.001 8.91043C114.894 8.24726 115.342 7.1802 115.342 5.69928C115.342 4.38789 114.799 3.3308 113.707 2.52801C112.695 1.79005 111.353 1.41608 109.678 1.41608H99.9098C99.7552 1.41608 99.6156 1.47591 99.5009 1.5906C99.3862 1.70528 99.3264 1.8449 99.3264 1.99947V16.0907C99.3264 16.2452 99.3862 16.3848 99.5009 16.4995C99.6156 16.6142 99.7552 16.674 99.9098 16.674H104.228C104.397 16.674 104.542 16.6142 104.657 16.4995C104.771 16.3848 104.831 16.2452 104.831 16.0907V11.2839H106.721C107.419 11.2839 107.823 11.3238 107.928 11.3986C107.993 11.4385 108.052 11.4883 108.112 11.5532C108.172 11.618 108.227 11.6828 108.277 11.7476L108.257 11.7077L110.75 16.34C110.8 16.4297 110.875 16.5095 110.974 16.5743C111.069 16.6391 111.174 16.674 111.278 16.674H116.22C116.464 16.674 116.644 16.5793 116.753 16.3898C116.863 16.2004 116.853 15.9959 116.723 15.7765" fill="white"/>
</g>
<defs>
<clipPath id="clip0_51_2">
<rect width="216" height="33.024" fill="white"/>
</clipPath>
</defs>
</svg>
