<?xml version="1.0" encoding="UTF-8"?>
<svg id="Layer_1" xmlns="http://www.w3.org/2000/svg" version="1.1" viewBox="0 0 300 80">
  <!-- Generator: Adobe Illustrator 29.8.1, SVG Export Plug-In . SVG Version: 2.1.1 Build 2)  -->
  <defs>
    <style>
      .st0 {
        fill: #03854a;
      }
    </style>
  </defs>
  <path class="st0" d="M51.7,44.2c-.4,1.3-3.5-2.5-8.2-3.2-4.6-1.2-10.8.8-17.4,3.2-6.6,2.6-12.4,1.1-16.4-2.9-4-3.8-6.3-10.1-5.8-10.7.4-1.3,3.5,2.5,8.2,3.2,4.6,1.2,10.8-.8,17.4-3.2,6.6-2.6,12.4-1.1,16.4,2.9,4,3.8,6.3,10.1,5.8,10.7"/>
  <path class="st0" d="M55.1,59c-.4,1.3-3.5-2.4-8.2-3.2-4.6-1.2-10.8.8-17.4,3.2-6.6,2.6-12.4,1.1-16.4-2.9-4-3.8-6.3-10.1-5.8-10.7.4-1.3,3.5,2.5,8.2,3.2,4.6,1.1,10.8-.8,17.4-3.2,6.6-2.5,12.4-1.1,16.4,2.9,4,3.8,6.3,10.1,5.8,10.7"/>
  <path class="st0" d="M47.8,29.3c-.4,1.3-3.5-2.4-8.2-3.2-4.6-1.2-10.8.7-17.4,3.1-6.6,2.6-12.4,1.1-16.4-2.9C1.9,22.6-.4,16.3,0,15.7c.4-1.3,3.5,2.4,8.2,3.2,4.6,1.2,10.8-.7,17.4-3.2,6.6-2.5,12.4-1.1,16.4,2.9,4,3.8,6.3,10.1,5.8,10.7"/>
  <polygon class="st0" points="110.1 58.4 113 58.4 113 53.5 117 53.5 117 51 113 51 113 48.3 118.1 48.3 118.1 45.8 110.1 45.8 110.1 58.4"/>
  <polygon class="st0" points="128.4 53.5 133 53.5 133 50.9 128.4 50.9 128.4 48.3 133.6 48.3 133.6 45.8 125.5 45.8 125.5 58.4 133.8 58.4 133.8 55.9 128.4 55.9 128.4 53.5"/>
  <polygon class="st0" points="140.4 48.3 143.8 48.3 143.8 58.4 146.7 58.4 146.7 48.3 150 48.3 150 45.8 140.4 45.8 140.4 48.3"/>
  <path class="st0" d="M81.8,51l-1.3-.4c-1.2-.3-1.2-.9-1.2-1.2,0-.8.7-1.3,1.4-1.3,0,0,0,0,0,0,.7,0,1.4.5,1.4,1.2,0,0,0,.1,0,.2h2.9c0-2.4-1.8-3.9-4.3-3.9s-4.4,1.6-4.4,3.9.5,2.9,3.3,3.6l1.5.4c1.1.4,1.4.8,1.4,1.3,0,.8-.7,1.3-1.6,1.3s-1.8-.6-1.8-1.4h-2.9c0,2.3,1.9,3.9,4.6,3.9s4.6-1.2,4.6-3.9-1.8-3.2-3.6-3.8"/>
  <path class="st0" d="M96.4,53l1.4-4.4,1.4,4.4h-2.8ZM96.3,45.8l-4.7,12.6h3.1l.9-2.9h4.4l1,2.9h3.1l-4.7-12.6h-3.1Z"/>
  <path class="st0" d="M256.3,48.3c1.2,0,2.3.6,2.9,1.6l2.2-1.6c-2-2.9-6-3.7-8.9-1.7-1.8,1.2-2.8,3.2-2.8,5.4,0,3.6,2.8,6.5,6.4,6.6,2.1,0,4.1-1,5.3-2.8l-2.2-1.6c-.6,1-1.8,1.7-3,1.6-2.2,0-3.6-1.8-3.6-3.8,0-2,1.5-3.7,3.5-3.8,0,0,0,0,.1,0"/>
  <rect class="st0" x="268.9" y="45.8" width="2.9" height="12.6"/>
  <polygon class="st0" points="241 53 237 45.8 234.3 45.8 234.3 58.4 237.2 58.4 237.2 51.2 241.3 58.4 243.9 58.4 243.9 45.8 241 45.8 241 53"/>
  <polygon class="st0" points="282.2 45.8 279.3 45.8 279.3 58.4 286.8 58.4 286.8 55.9 282.2 55.9 282.2 45.8"/>
  <path class="st0" d="M187,48.3c1.2,0,2.3.6,2.9,1.6l2.2-1.6c-2-2.9-6-3.7-8.9-1.7-1.8,1.2-2.8,3.2-2.8,5.4,0,3.6,2.8,6.5,6.4,6.6,2.1,0,4.1-1,5.3-2.8l-2.2-1.6c-.6,1-1.8,1.7-3,1.6-2.2,0-3.6-1.8-3.6-3.8,0-2,1.5-3.7,3.5-3.8,0,0,0,0,.1,0"/>
  <path class="st0" d="M223.6,53.7c0,1.6-1,2.2-2,2.2s-2-.6-2-2.2v-7.9h-2.9v8.1c0,2.9,2.3,4.7,4.9,4.7s4.9-1.8,4.9-4.7v-8.1h-2.9v7.9Z"/>
  <polygon class="st0" points="161.2 50.5 158.3 45.8 154.8 45.8 159.7 52.7 159.7 58.4 162.6 58.4 162.6 52.8 167.6 45.8 164.1 45.8 161.2 50.5"/>
  <path class="st0" d="M204.2,55.9c-2.1,0-3.5-1.7-3.5-3.8s1.4-3.8,3.5-3.8,3.5,1.7,3.5,3.8-1.4,3.8-3.5,3.8M204.2,45.6c-3.6,0-6.6,2.8-6.6,6.4,0,3.6,2.8,6.6,6.4,6.6,3.6,0,6.6-2.8,6.6-6.4,0,0,0,0,0-.1,0-3.6-2.8-6.5-6.4-6.5,0,0,0,0,0,0"/>
  <path class="st0" d="M63.8,37.6c-.2,0-.4,0-.6-.2-.2-.1-.2-.4-.2-.6v-19.6c0-.2,0-.4.3-.6.1-.2.4-.2.6-.2h15.8c.2,0,.4,0,.6.2.2.1.2.4.2.6v3.9c0,.2,0,.4-.2.6-.1.2-.4.2-.6.2h-9.1v2.2h7.8c.4,0,.8.4.8.8v3.9c0,.2,0,.4-.2.6-.1.2-.4.2-.6.2h-7.8v2.3h9.8c.2,0,.4,0,.6.2.2.2.2.4.2.6v3.9c0,.2,0,.4-.2.6-.1.2-.4.2-.6.2h-16.5Z"/>
  <path class="st0" d="M108.2,16.4c.4,0,.8.3.9.7,0,.2,0,.3-.1.5l-9.8,19.9c0,.1-.2.2-.3.3-.1,0-.3.1-.4.1h-3.5c-.2,0-.3,0-.4-.2-.1,0-.3-.2-.3-.3l-9.7-19.9c-.1-.3-.1-.6,0-.8.2-.2.4-.4.7-.3h6.1c.2,0,.3,0,.4.1.1,0,.3.2.3.3l4.9,10.5,4.7-10.5c0-.1.2-.3.3-.3.1,0,.3-.1.4-.2h5.9Z"/>
  <path class="st0" d="M113.8,37.6c-.4,0-.8-.4-.8-.8v-19.6c0-.2,0-.4.2-.6.1-.2.4-.2.6-.2h15.8c.2,0,.4,0,.6.2.2.1.2.4.2.6v3.9c0,.2,0,.4-.2.6-.1.2-.4.2-.6.2h-9.1v2.2h7.8c.4,0,.8.4.8.8v3.9c0,.2,0,.5-.2.6-.1.2-.4.2-.6.2h-7.8v2.3h9.8c.2,0,.4,0,.6.2.2.2.2.4.2.6v3.9c0,.2,0,.4-.2.6-.1.2-.4.2-.6.2h-16.5Z"/>
  <path class="st0" d="M173.5,27.5c0,1.5.6,3,1.7,3.9,1.2,1,2.8,1.5,4.8,1.5,1.3,0,2.5-.1,3.7-.5v-1.3h-2.8c-.5,0-.8-.4-.8-.8,0,0,0,0,0,0v-3.6c0-.2,0-.4.2-.6.2-.2.4-.2.6-.2h8.6c.2,0,.4,0,.6.2.2.2.2.4.2.6v9.5c0,.2,0,.3-.2.5-.1.1-.2.3-.4.3-1.5.5-3,.8-4.5,1-1.8.3-3.6.4-5.5.4-4.4,0-7.9-.9-10.2-2.6s-3.5-4.4-3.5-8c0-3.5,1.2-6.3,3.6-8.4,2.4-2.1,5.6-3.1,9.5-3,1.7,0,3.5.1,5.2.4,1.3.2,2.5.5,3.7.8.2,0,.3.1.4.3.1.1.2.3.2.4l.4,3.8c0,.3,0,.6-.3.7-.2.2-.5.2-.8.2-1-.3-2.1-.6-3.5-.8-.7-.1-1.3-.2-2-.3-.7,0-1.4-.1-2-.1-2.1,0-3.8.5-5.1,1.6-1.2,1.1-1.9,2.6-1.9,4.3"/>
  <path class="st0" d="M228,37.6c-.4,0-.8-.4-.8-.8v-19.6c0-.2,0-.4.2-.6.1-.2.4-.2.6-.2h15.8c.2,0,.4,0,.6.2.2.1.2.4.2.6v3.9c0,.2,0,.4-.2.6-.1.2-.4.2-.6.2h-9.1v2.2h7.8c.4,0,.8.4.8.8v3.9c0,.2,0,.4-.2.6-.1.2-.4.2-.6.2h-7.8v2.3h9.8c.2,0,.4,0,.6.2.2.2.2.4.2.6v3.9c0,.2,0,.4-.2.6-.1.2-.4.2-.6.2h-16.5Z"/>
  <path class="st0" d="M253.4,37.6c-.4,0-.8-.4-.8-.8v-19.6c0-.2,0-.4.2-.6.1-.2.4-.2.6-.2h15.8c.2,0,.4,0,.6.2.2.1.2.4.2.6v3.9c0,.2,0,.4-.2.6-.1.2-.4.2-.6.2h-9.1v2.2h7.8c.2,0,.4,0,.6.2.2.1.2.4.2.6v3.9c0,.2,0,.4-.2.6-.1.2-.4.2-.6.2h-7.8v2.3h9.8c.2,0,.4,0,.6.2.2.2.2.4.2.6v3.9c0,.2,0,.4-.2.6-.2.2-.4.2-.6.2h-16.5Z"/>
  <path class="st0" d="M290,23c.5.7,1,1.4,1.5,2.1s1,1.4,1.5,2.1v-9.9c0-.2,0-.4.2-.6.2-.2.4-.3.6-.2h5.3c.2,0,.4,0,.6.2.2.1.2.4.2.6v19.6c0,.2,0,.4-.2.6-.2.2-.4.2-.6.2h-6.1c-.1,0-.2,0-.3,0-.1,0-.2-.1-.3-.2l-7.6-10.3v9.8c0,.2,0,.4-.2.6-.2.2-.4.2-.6.2h-5.3c-.4,0-.8-.4-.8-.8v-19.6c0-.2,0-.4.2-.6.1-.2.4-.2.6-.2h6c.1,0,.3,0,.4.1.1,0,.2.1.3.2.8,1.1,1.6,2.1,2.3,3.2.8,1,1.5,2,2.3,3.1"/>
  <path class="st0" d="M211.5,24.6c-1,.3-2,.5-3,.4h-3.2v-4h4.2c.8,0,1.6.1,2.3.4.5.3.8.9.8,1.5,0,.7-.4,1.4-1,1.6M221.9,36.3l-3.3-5.5c-.4-.7-.9-1.3-1.4-1.8h0c-.4-.4-.9-.7-1.5-1,.5-.2.9-.3,1.3-.6.4-.2.7-.4,1.1-.7,1.2-.9,1.9-2.4,1.9-4.5,0-1.8-.8-3.4-2.3-4.4-1.4-1-3.3-1.5-5.6-1.5h-13.6c-.2,0-.4,0-.6.3-.2.1-.2.4-.2.6v19.6c0,.4.4.8.8.8h6c.2,0,.4,0,.6-.2.2-.1.2-.4.2-.6v-6.7h2.6c1,0,1.5,0,1.7.2,0,0,.2.1.3.2,0,0,.2.2.2.3h0c0,0,3.5,6.4,3.5,6.4,0,.1.2.2.3.3.1,0,.3.1.4.1h6.9c.3,0,.6-.1.7-.4.2-.3.1-.6,0-.8"/>
  <path class="st0" d="M151.7,24.6c-1,.3-2,.5-3,.4h-3.2v-4h4.2c.8,0,1.6.1,2.3.4.5.3.8.9.8,1.5,0,.7-.4,1.4-1,1.6M162.1,36.3l-3.3-5.5c-.4-.7-.9-1.3-1.4-1.8h0c-.4-.4-.9-.7-1.5-1,.5-.2.9-.3,1.3-.6.4-.2.7-.4,1.1-.7,1.2-.9,1.9-2.4,1.9-4.5,0-1.8-.8-3.4-2.3-4.4-1.4-1-3.3-1.5-5.6-1.5h-13.6c-.2,0-.4,0-.6.2-.2.1-.2.4-.2.6v19.6c0,.4.4.8.8.8h6c.2,0,.4,0,.6-.2.2-.1.2-.4.2-.6v-6.7h2.6c1,0,1.5,0,1.7.2,0,0,.2.1.3.2,0,0,.2.2.2.3h0c0,0,3.5,6.4,3.5,6.4,0,.1.2.2.3.3.1,0,.3.1.4.1h6.9c.3,0,.6-.1.7-.4.2-.3.1-.6,0-.8"/>
</svg>