<svg xmlns="http://www.w3.org/2000/svg" xmlns:xlink="http://www.w3.org/1999/xlink" id="Layer_1" data-name="Layer 1" viewBox="0 0 2113 707"><defs><style>      .cls-1 {        fill: url(#New_Pattern_7);      }      .cls-1, .cls-2, .cls-3, .cls-4 {        stroke-width: 0px;      }      .cls-2, .cls-5 {        fill: none;      }      .cls-5 {        stroke: #668960;        stroke-linecap: round;        stroke-miterlimit: 10;        stroke-width: 4px;      }      .cls-3 {        fill: #2f824a;      }      .cls-4 {        fill: #fff;      }    </style><pattern id="New_Pattern_7" data-name="New Pattern 7" x="0" y="0" width="264" height="258.31" patternTransform="translate(-1 -1111)" patternUnits="userSpaceOnUse" viewBox="0 0 264 258.31"><g><rect class="cls-2" y="0" width="264" height="258.31"></rect><polygon class="cls-5" points="528.73 391.02 395.79 523.96 262.86 391.02 395.79 258.09 528.73 391.02"></polygon><g><polygon class="cls-5" points="264.73 391.02 131.79 523.96 -1.14 391.02 131.79 258.09 264.73 391.02"></polygon><g><circle class="cls-4" cx="131.79" cy="258.46" r="23.5"></circle><path class="cls-3" d="M161.35,258.46c0,16.32-13.23,29.56-29.56,29.56s-29.56-13.23-29.56-29.56,13.23-29.56,29.56-29.56,29.56,13.23,29.56,29.56ZM134.59,274.51c0-1.77-1.43-3.2-3.2-3.2s-3.2,1.43-3.2,3.2v.29c0,1.77,1.43,3.2,3.2,3.2s3.2-1.43,3.2-3.2v-.29ZM143.55,249.43c0-3.06-1.05-5.58-3.15-7.55-2.1-1.97-4.9-2.95-8.39-2.95-3.77,0-6.74,1.15-8.91,3.45-1.62,1.72-2.63,3.86-3.04,6.41-.23,1.42.88,2.71,2.32,2.71,1.18,0,2.16-.89,2.33-2.06.18-1.3.49-2.35.92-3.17,1.14-2.17,3.21-3.26,6.19-3.26,2.41,0,4.14.63,5.19,1.89,1.05,1.26,1.57,2.75,1.57,4.46,0,1.23-.36,2.41-1.09,3.54-.4.65-.92,1.27-1.56,1.86l-2.14,2.07c-2.05,1.98-3.38,3.73-3.97,5.26-.37.96-.63,2.12-.77,3.46-.14,1.38.93,2.59,2.32,2.59,1.19,0,2.2-.89,2.32-2.07.12-1.21.35-2.19.69-2.93.52-1.13,1.63-2.51,3.35-4.14,2.36-2.24,3.92-3.94,4.68-5.09s1.14-2.66,1.14-4.52Z"></path></g></g><polygon class="cls-5" points=".73 391.02 -132.21 523.96 -265.14 391.02 -132.21 258.09 .73 391.02"></polygon><g><polygon class="cls-5" points="528.73 132.72 395.79 265.65 262.86 132.72 395.79 -.22 528.73 132.72"></polygon><circle class="cls-4" cx="263.51" cy="132.72" r="22.5"></circle><path class="cls-3" d="M293.06,132.72c0,16.32-13.23,29.56-29.56,29.56s-29.56-13.23-29.56-29.56,13.23-29.56,29.56-29.56,29.56,13.23,29.56,29.56ZM278.01,132.72c0-1.38-1.12-2.5-2.5-2.5h-9.5v-9.5c0-1.38-1.12-2.5-2.5-2.5s-2.5,1.12-2.5,2.5v9.5h-9.5c-1.38,0-2.5,1.12-2.5,2.5s1.12,2.5,2.5,2.5h9.5v9.5c0,1.38,1.12,2.5,2.5,2.5s2.5-1.12,2.5-2.5v-9.5h9.5c1.38,0,2.5-1.12,2.5-2.5Z"></path></g><g><polygon class="cls-5" points="264.73 132.72 131.79 265.65 -1.14 132.72 131.79 -.22 264.73 132.72"></polygon><g><circle class="cls-4" cx="131.79" cy=".15" r="23.5"></circle><path class="cls-3" d="M161.35.15c0,16.32-13.23,29.56-29.56,29.56S102.24,16.48,102.24.15s13.23-29.56,29.56-29.56,29.56,13.23,29.56,29.56ZM134.59,16.2c0-1.77-1.43-3.2-3.2-3.2s-3.2,1.43-3.2,3.2v.29c0,1.77,1.43,3.2,3.2,3.2s3.2-1.43,3.2-3.2v-.29ZM143.55-8.88c0-3.06-1.05-5.58-3.15-7.55-2.1-1.97-4.9-2.95-8.39-2.95-3.77,0-6.74,1.15-8.91,3.45-1.62,1.72-2.63,3.86-3.04,6.41-.23,1.42.88,2.71,2.32,2.71,1.18,0,2.16-.89,2.33-2.06.18-1.3.49-2.35.92-3.17,1.14-2.17,3.21-3.26,6.19-3.26,2.41,0,4.14.63,5.19,1.89,1.05,1.26,1.57,2.75,1.57,4.46,0,1.23-.36,2.41-1.09,3.54-.4.65-.92,1.27-1.56,1.86l-2.14,2.07c-2.05,1.98-3.38,3.73-3.97,5.26-.37.96-.63,2.12-.77,3.46-.14,1.38.93,2.59,2.32,2.59,1.19,0,2.2-.89,2.32-2.07.12-1.21.35-2.19.69-2.93.52-1.13,1.63-2.51,3.35-4.14,2.36-2.24,3.92-3.94,4.68-5.09s1.14-2.66,1.14-4.52Z"></path></g><g><circle class="cls-4" cx="131.79" cy="258.15" r="23.5"></circle><path class="cls-3" d="M161.35,258.15c0,16.32-13.23,29.56-29.56,29.56s-29.56-13.23-29.56-29.56,13.23-29.56,29.56-29.56,29.56,13.23,29.56,29.56ZM134.59,274.2c0-1.77-1.43-3.2-3.2-3.2s-3.2,1.43-3.2,3.2v.29c0,1.77,1.43,3.2,3.2,3.2s3.2-1.43,3.2-3.2v-.29ZM143.55,249.12c0-3.06-1.05-5.58-3.15-7.55-2.1-1.97-4.9-2.95-8.39-2.95-3.77,0-6.74,1.15-8.91,3.45-1.62,1.72-2.63,3.86-3.04,6.41-.23,1.42.88,2.71,2.32,2.71,1.18,0,2.16-.89,2.33-2.06.18-1.3.49-2.35.92-3.17,1.14-2.17,3.21-3.26,6.19-3.26,2.41,0,4.14.63,5.19,1.89,1.05,1.26,1.57,2.75,1.57,4.46,0,1.23-.36,2.41-1.09,3.54-.4.65-.92,1.27-1.56,1.86l-2.14,2.07c-2.05,1.98-3.38,3.73-3.97,5.26-.37.96-.63,2.12-.77,3.46-.14,1.38.93,2.59,2.32,2.59,1.19,0,2.2-.89,2.32-2.07.12-1.21.35-2.19.69-2.93.52-1.13,1.63-2.51,3.35-4.14,2.36-2.24,3.92-3.94,4.68-5.09s1.14-2.66,1.14-4.52Z"></path></g><g><circle class="cls-4" cx="264.49" cy="132.72" r="24"></circle><path class="cls-3" d="M294.05,132.72c0,16.32-13.23,29.56-29.56,29.56s-29.56-13.23-29.56-29.56,13.23-29.56,29.56-29.56,29.56,13.23,29.56,29.56ZM278.99,142.72c0-1.38-1.12-2.5-2.5-2.5h-24c-1.38,0-2.5,1.12-2.5,2.5s1.12,2.5,2.5,2.5h24c1.38,0,2.5-1.12,2.5-2.5ZM278.99,132.72c0-1.38-1.12-2.5-2.5-2.5h-24c-1.38,0-2.5,1.12-2.5,2.5s1.12,2.5,2.5,2.5h24c1.38,0,2.5-1.12,2.5-2.5ZM278.99,122.72c0-1.38-1.12-2.5-2.5-2.5h-24c-1.38,0-2.5,1.12-2.5,2.5s1.12,2.5,2.5,2.5h24c1.38,0,2.5-1.12,2.5-2.5Z"></path></g><circle class="cls-4" cx="-.49" cy="132.72" r="22.5"></circle><path class="cls-3" d="M29.06,132.72c0,16.32-13.23,29.56-29.56,29.56s-29.56-13.23-29.56-29.56S-16.82,103.16-.49,103.16s29.56,13.23,29.56,29.56ZM14.01,132.72c0-1.38-1.12-2.5-2.5-2.5H2.01v-9.5c0-1.38-1.12-2.5-2.5-2.5s-2.5,1.12-2.5,2.5v9.5h-9.5c-1.38,0-2.5,1.12-2.5,2.5s1.12,2.5,2.5,2.5H-2.99v9.5c0,1.38,1.12,2.5,2.5,2.5s2.5-1.12,2.5-2.5v-9.5h9.5c1.38,0,2.5-1.12,2.5-2.5Z"></path></g><g><polygon class="cls-5" points=".73 132.72 -132.21 265.65 -265.14 132.72 -132.21 -.22 .73 132.72"></polygon><g><circle class="cls-4" cx=".49" cy="132.72" r="24"></circle><path class="cls-3" d="M30.05,132.72c0,16.32-13.23,29.56-29.56,29.56s-29.56-13.23-29.56-29.56S-15.83,103.16.49,103.16s29.56,13.23,29.56,29.56ZM14.99,142.72c0-1.38-1.12-2.5-2.5-2.5H-11.51c-1.38,0-2.5,1.12-2.5,2.5s1.12,2.5,2.5,2.5H12.49c1.38,0,2.5-1.12,2.5-2.5ZM14.99,132.72c0-1.38-1.12-2.5-2.5-2.5H-11.51c-1.38,0-2.5,1.12-2.5,2.5s1.12,2.5,2.5,2.5H12.49c1.38,0,2.5-1.12,2.5-2.5ZM14.99,122.72c0-1.38-1.12-2.5-2.5-2.5H-11.51c-1.38,0-2.5,1.12-2.5,2.5s1.12,2.5,2.5,2.5H12.49c1.38,0,2.5-1.12,2.5-2.5Z"></path></g></g><polygon class="cls-5" points="528.73 -125.59 395.79 7.34 262.86 -125.59 395.79 -258.53 528.73 -125.59"></polygon><g><polygon class="cls-5" points="264.73 -125.59 131.79 7.34 -1.14 -125.59 131.79 -258.53 264.73 -125.59"></polygon><g><circle class="cls-4" cx="131.79" cy="-.16" r="23.5"></circle><path class="cls-3" d="M161.35-.16c0,16.32-13.23,29.56-29.56,29.56S102.24,16.17,102.24-.16s13.23-29.56,29.56-29.56,29.56,13.23,29.56,29.56ZM134.59,15.89c0-1.77-1.43-3.2-3.2-3.2s-3.2,1.43-3.2,3.2v.29c0,1.77,1.43,3.2,3.2,3.2s3.2-1.43,3.2-3.2v-.29ZM143.55-9.19c0-3.06-1.05-5.58-3.15-7.55-2.1-1.97-4.9-2.95-8.39-2.95-3.77,0-6.74,1.15-8.91,3.45-1.62,1.72-2.63,3.86-3.04,6.41-.23,1.42.88,2.71,2.32,2.71,1.18,0,2.16-.89,2.33-2.06.18-1.3.49-2.35.92-3.17,1.14-2.17,3.21-3.26,6.19-3.26,2.41,0,4.14.63,5.19,1.89,1.05,1.26,1.57,2.75,1.57,4.46,0,1.23-.36,2.41-1.09,3.54-.4.65-.92,1.27-1.56,1.86l-2.14,2.07c-2.05,1.98-3.38,3.73-3.97,5.26-.37.96-.63,2.12-.77,3.46-.14,1.38.93,2.59,2.32,2.59,1.19,0,2.2-.89,2.32-2.07.12-1.21.35-2.19.69-2.93.52-1.13,1.63-2.51,3.35-4.14,2.36-2.24,3.92-3.94,4.68-5.09s1.14-2.66,1.14-4.52Z"></path></g></g><polygon class="cls-5" points=".73 -125.59 -132.21 7.34 -265.14 -125.59 -132.21 -258.53 .73 -125.59"></polygon></g></pattern></defs><rect class="cls-1" width="2113" height="707"></rect></svg>