<svg xmlns="http://www.w3.org/2000/svg" xmlns:xlink="http://www.w3.org/1999/xlink" id="a192027c-5da1-467c-af8a-9a6dcc7f0c5f" data-name="Layer 1" viewBox="0 0 1920 1080"><defs><style>.aede2129-bfd9-4afd-b5eb-9d978cb4d036,.e03a7a0d-c365-4b4f-8af3-546b8d9cfe30{fill:none;}.a2246e9a-42a9-4644-b1de-de50a78d8d87{fill:#cf4406;}.b8f9f323-f25e-40be-9707-9514495881a1{fill:#ff6d2d;}.a8579ef4-e859-46e4-9d39-2b4d567dcdf6{fill:#fff;stroke:#fff;}.a8579ef4-e859-46e4-9d39-2b4d567dcdf6,.aede2129-bfd9-4afd-b5eb-9d978cb4d036{stroke-miterlimit:10;}.aede2129-bfd9-4afd-b5eb-9d978cb4d036{stroke:#71cff1;stroke-width:0.79px;}.f52c6b59-af66-47ff-b06e-ea2c9421626d{fill:url(#b2cfe16b-5d3f-4079-9d8c-1b215f50d7f5);}</style><pattern id="b2cfe16b-5d3f-4079-9d8c-1b215f50d7f5" data-name="New Pattern Swatch 3" width="342" height="315" patternTransform="matrix(-2.38, 1.22, 1.22, 2.38, -1835.33, 2832.2)" patternUnits="userSpaceOnUse" viewBox="0 0 342 315"><rect class="e03a7a0d-c365-4b4f-8af3-546b8d9cfe30" width="342" height="315"></rect><path class="a2246e9a-42a9-4644-b1de-de50a78d8d87" d="M298.6,307.1l-66.7,41a5.5,5.5,0,0,0,0,9.6l66.7,41a5.9,5.9,0,0,0,6,0l66.8-41a5.6,5.6,0,0,0,0-9.6l-66.8-41A5.9,5.9,0,0,0,298.6,307.1Z"></path><path class="a2246e9a-42a9-4644-b1de-de50a78d8d87" d="M127.6,307.1l-66.7,41a5.5,5.5,0,0,0,0,9.6l66.7,41a5.9,5.9,0,0,0,6,0l66.8-41a5.6,5.6,0,0,0,0-9.6l-66.8-41A5.9,5.9,0,0,0,127.6,307.1Z"></path><path class="a2246e9a-42a9-4644-b1de-de50a78d8d87" d="M-43.4,307.1l-66.7,41a5.5,5.5,0,0,0,0,9.6l66.7,41a5.9,5.9,0,0,0,6,0l66.8-41a5.6,5.6,0,0,0,0-9.6l-66.8-41A5.9,5.9,0,0,0-43.4,307.1Z"></path><path class="a2246e9a-42a9-4644-b1de-de50a78d8d87" d="M385.4,322.9l66.7-41a5.5,5.5,0,0,0,0-9.6l-66.7-41a5.9,5.9,0,0,0-6,0l-66.8,41a5.6,5.6,0,0,0,0,9.6l66.8,41A5.9,5.9,0,0,0,385.4,322.9Z"></path><path class="b8f9f323-f25e-40be-9707-9514495881a1" d="M375.1,81.1,334.8,281.2c2.5,7.8,22.9,13.8,47.6,13.8s45.2-6.1,47.6-13.9l-1.1-5.1L389.7,81.1l-.5-2c-1.2-1-3.8-1.6-6.8-1.6s-5.7.6-6.9,1.6l-.4,2"></path><path class="a2246e9a-42a9-4644-b1de-de50a78d8d87" d="M298.6-7.9l-66.7,41a5.5,5.5,0,0,0,0,9.6l66.7,41a5.9,5.9,0,0,0,6,0l66.8-41a5.6,5.6,0,0,0,0-9.6l-66.8-41A5.9,5.9,0,0,0,298.6-7.9Z"></path><path class="b8f9f323-f25e-40be-9707-9514495881a1" d="M308.9,233.9,349.2,33.8C346.7,26,326.3,20,301.6,20S256.4,26.1,254,33.9l1.1,5.1,39.2,194.9.5,2c1.2,1,3.8,1.6,6.8,1.6s5.7-.6,6.9-1.6l.4-2"></path><path class="a8579ef4-e859-46e4-9d39-2b4d567dcdf6" d="M321.4,171.6c-1.5-1.6-4.5-2.9-8.3-3.8a49.5,49.5,0,0,0-11.5-1.2,50.8,50.8,0,0,0-11.5,1.2h0c-3.8.9-6.7,2.2-8.3,3.8l1.3,6.3,4.5,22.3c1.8-2.2,7.4-3.8,14-3.8s12.3,1.6,14.1,3.8l4.5-22.3Z"></path><line class="aede2129-bfd9-4afd-b5eb-9d978cb4d036" x1="290.1" y1="167.8" x2="290.1" y2="167.8"></line><path class="a8579ef4-e859-46e4-9d39-2b4d567dcdf6" d="M329.2,133l-3.6,17.9a26.9,26.9,0,0,0-9.4-3.8,61.6,61.6,0,0,0-14.3-1.5,62.5,62.5,0,0,0-14.4,1.5h0a25,25,0,0,0-9.8,4.2L274,133l-1.4-6.9c3.4-4.7,15.1-8.1,29-8.1s25.7,3.4,29,8.1Z"></path><ellipse class="a2246e9a-42a9-4644-b1de-de50a78d8d87" cx="301.6" cy="236.1" rx="6.9" ry="2.2"></ellipse><path class="a2246e9a-42a9-4644-b1de-de50a78d8d87" d="M214.4,322.9l66.7-41a5.5,5.5,0,0,0,0-9.6l-66.7-41a5.9,5.9,0,0,0-6,0l-66.8,41a5.6,5.6,0,0,0,0,9.6l66.8,41A5.9,5.9,0,0,0,214.4,322.9Z"></path><path class="b8f9f323-f25e-40be-9707-9514495881a1" d="M204.1,81.1,163.8,281.2c2.5,7.8,22.9,13.8,47.6,13.8s45.2-6.1,47.6-13.9l-1.1-5.1L218.7,81.1l-.5-2c-1.2-1-3.8-1.6-6.8-1.6s-5.7.6-6.9,1.6l-.4,2"></path><path class="a8579ef4-e859-46e4-9d39-2b4d567dcdf6" d="M191.6,143.4c1.5,1.6,4.5,2.9,8.3,3.8a49.5,49.5,0,0,0,11.5,1.2,50.8,50.8,0,0,0,11.5-1.2h0c3.8-.9,6.7-2.2,8.3-3.8l-1.3-6.3-4.5-22.3c-1.8,2.2-7.4,3.8-14,3.8s-12.3-1.6-14.1-3.8l-4.5,22.3Z"></path><line class="aede2129-bfd9-4afd-b5eb-9d978cb4d036" x1="222.9" y1="147.2" x2="222.9" y2="147.2"></line><path class="a8579ef4-e859-46e4-9d39-2b4d567dcdf6" d="M183.8,182l3.6-17.9a26.9,26.9,0,0,0,9.4,3.8,61.6,61.6,0,0,0,14.3,1.5,62.5,62.5,0,0,0,14.4-1.5h0a25,25,0,0,0,9.8-4.2L239,182l1.4,6.9c-3.4,4.7-15.1,8.1-29,8.1s-25.7-3.4-29-8.1Z"></path><ellipse class="a2246e9a-42a9-4644-b1de-de50a78d8d87" cx="211.4" cy="78.9" rx="6.9" ry="2.2"></ellipse><path class="a2246e9a-42a9-4644-b1de-de50a78d8d87" d="M127.6-7.9l-66.7,41a5.5,5.5,0,0,0,0,9.6l66.7,41a5.9,5.9,0,0,0,6,0l66.8-41a5.6,5.6,0,0,0,0-9.6l-66.8-41A5.9,5.9,0,0,0,127.6-7.9Z"></path><path class="b8f9f323-f25e-40be-9707-9514495881a1" d="M137.9,233.9,178.2,33.8C175.7,26,155.3,20,130.6,20S85.4,26.1,83,33.9L84.1,39l39.2,194.9.5,2c1.2,1,3.8,1.6,6.8,1.6s5.7-.6,6.9-1.6l.4-2"></path><path class="a8579ef4-e859-46e4-9d39-2b4d567dcdf6" d="M150.4,171.6c-1.5-1.6-4.5-2.9-8.3-3.8a49.5,49.5,0,0,0-11.5-1.2,50.8,50.8,0,0,0-11.5,1.2h0c-3.8.9-6.7,2.2-8.3,3.8l1.3,6.3,4.5,22.3c1.8-2.2,7.4-3.8,14-3.8s12.3,1.6,14.1,3.8l4.5-22.3Z"></path><line class="aede2129-bfd9-4afd-b5eb-9d978cb4d036" x1="119.1" y1="167.8" x2="119.1" y2="167.8"></line><path class="a8579ef4-e859-46e4-9d39-2b4d567dcdf6" d="M158.2,133l-3.6,17.9a26.9,26.9,0,0,0-9.4-3.8,61.6,61.6,0,0,0-14.3-1.5,62.5,62.5,0,0,0-14.4,1.5h0a25,25,0,0,0-9.8,4.2L103,133l-1.4-6.9c3.4-4.7,15.1-8.1,29-8.1s25.7,3.4,29,8.1Z"></path><ellipse class="a2246e9a-42a9-4644-b1de-de50a78d8d87" cx="130.6" cy="236.1" rx="6.9" ry="2.2"></ellipse><path class="a2246e9a-42a9-4644-b1de-de50a78d8d87" d="M43.4,322.9l66.7-41a5.5,5.5,0,0,0,0-9.6l-66.7-41a5.9,5.9,0,0,0-6,0l-66.8,41a5.6,5.6,0,0,0,0,9.6l66.8,41A5.9,5.9,0,0,0,43.4,322.9Z"></path><path class="b8f9f323-f25e-40be-9707-9514495881a1" d="M33.1,81.1-7.2,281.2C-4.7,289,15.7,295,40.4,295s45.2-6.1,47.6-13.9L86.9,276,47.7,81.1l-.5-2c-1.2-1-3.8-1.6-6.8-1.6s-5.7.6-6.9,1.6l-.4,2"></path><path class="a8579ef4-e859-46e4-9d39-2b4d567dcdf6" d="M20.6,143.4c1.5,1.6,4.5,2.9,8.3,3.8a49.5,49.5,0,0,0,11.5,1.2,50.8,50.8,0,0,0,11.5-1.2h0c3.8-.9,6.7-2.2,8.3-3.8l-1.3-6.3-4.5-22.3c-1.8,2.2-7.4,3.8-14,3.8s-12.3-1.6-14.1-3.8l-4.5,22.3Z"></path><line class="aede2129-bfd9-4afd-b5eb-9d978cb4d036" x1="51.9" y1="147.2" x2="51.9" y2="147.2"></line><path class="a8579ef4-e859-46e4-9d39-2b4d567dcdf6" d="M12.8,182l3.6-17.9a26.9,26.9,0,0,0,9.4,3.8,61.6,61.6,0,0,0,14.3,1.5,62.5,62.5,0,0,0,14.4-1.5h0a25,25,0,0,0,9.8-4.2L68,182l1.4,6.9c-3.4,4.7-15.1,8.1-29,8.1s-25.7-3.4-29-8.1Z"></path><ellipse class="a2246e9a-42a9-4644-b1de-de50a78d8d87" cx="40.4" cy="78.9" rx="6.9" ry="2.2"></ellipse><path class="a2246e9a-42a9-4644-b1de-de50a78d8d87" d="M-43.4-7.9l-66.7,41a5.5,5.5,0,0,0,0,9.6l66.7,41a5.9,5.9,0,0,0,6,0l66.8-41a5.6,5.6,0,0,0,0-9.6l-66.8-41A5.9,5.9,0,0,0-43.4-7.9Z"></path><path class="b8f9f323-f25e-40be-9707-9514495881a1" d="M-33.1,233.9,7.2,33.8C4.7,26-15.7,20-40.4,20S-85.6,26.1-88,33.9l1.1,5.1,39.2,194.9.5,2c1.2,1,3.8,1.6,6.8,1.6s5.7-.6,6.9-1.6l.4-2"></path><path class="a2246e9a-42a9-4644-b1de-de50a78d8d87" d="M385.4,7.9l66.7-41a5.5,5.5,0,0,0,0-9.6l-66.7-41a5.9,5.9,0,0,0-6,0l-66.8,41a5.6,5.6,0,0,0,0,9.6l66.8,41A5.9,5.9,0,0,0,385.4,7.9Z"></path><path class="a2246e9a-42a9-4644-b1de-de50a78d8d87" d="M214.4,7.9l66.7-41a5.5,5.5,0,0,0,0-9.6l-66.7-41a5.9,5.9,0,0,0-6,0l-66.8,41a5.6,5.6,0,0,0,0,9.6l66.8,41A5.9,5.9,0,0,0,214.4,7.9Z"></path><path class="a2246e9a-42a9-4644-b1de-de50a78d8d87" d="M43.4,7.9l66.7-41a5.5,5.5,0,0,0,0-9.6l-66.7-41a5.9,5.9,0,0,0-6,0l-66.8,41a5.6,5.6,0,0,0,0,9.6l66.8,41A5.9,5.9,0,0,0,43.4,7.9Z"></path></pattern></defs><polygon class="f52c6b59-af66-47ff-b06e-ea2c9421626d" points="506.5 2118.5 2533.8 1076.6 1500.6 -933.9 -526.8 108.1 506.5 2118.5"></polygon></svg>