<svg xmlns:xlink="http://www.w3.org/1999/xlink" xmlns="http://www.w3.org/2000/svg" viewBox="0 0 349.71 604.72" width="349.71"  height="604.72" ><defs><style>.cls-1{isolation:isolate;}.cls-2{fill:#6e6e6e;}.cls-10,.cls-12,.cls-13,.cls-14,.cls-15,.cls-16,.cls-18,.cls-19,.cls-2,.cls-6,.cls-7,.cls-8{stroke:#020000;}.cls-10,.cls-12,.cls-13,.cls-14,.cls-15,.cls-16,.cls-2,.cls-6,.cls-7,.cls-8{stroke-miterlimit:10;}.cls-10,.cls-12,.cls-13,.cls-14,.cls-15,.cls-18,.cls-19,.cls-2,.cls-6,.cls-7,.cls-8{stroke-width:1.11px;}.cls-3{fill:#020000;}.cls-4{fill:#797a7d;}.cls-5{fill:#f36d38;}.cls-6{fill:#ffb38c;}.cls-7{fill:#ebebeb;}.cls-8{fill:#ababab;}.cls-9{fill:#828282;}.cls-10,.cls-16,.cls-19{fill:none;}.cls-11,.cls-14{fill:#d9d9d9;}.cls-12{fill:#2e2e2e;}.cls-13{fill:#ff9866;}.cls-15,.cls-18{fill:#ff6d2d;}.cls-16{stroke-width:1.15px;}.cls-17{fill:#fff;}.cls-18,.cls-19{stroke-linejoin:bevel;}.cls-20{fill:#ccc;mix-blend-mode:multiply;}</style></defs><g class="cls-1"><g id="Layer_1" data-name="Layer 1"><path class="cls-2" d="M80.18,566.79c0,5.57-9.75,5.57-9.75,0V145h9.75Z"/><path class="cls-3" d="M48.58,146.22a12.68,12.68,0,0,1-9-3.72L4.3,107.29a12.67,12.67,0,0,1-3.74-9V48.51a12.65,12.65,0,0,1,3.74-9L39.58,4.28a12.68,12.68,0,0,1,9-3.72H98.51a12.65,12.65,0,0,1,9,3.72L142.8,39.49a12.65,12.65,0,0,1,3.74,9V98.27a12.67,12.67,0,0,1-3.74,9L107.51,142.5a12.65,12.65,0,0,1-9,3.72Z"/><path class="cls-4" d="M98.51,1.11a12.2,12.2,0,0,1,8.61,3.56L142.4,39.88A12.2,12.2,0,0,1,146,48.51V98.27a12.2,12.2,0,0,1-3.58,8.63l-35.28,35.21a12.2,12.2,0,0,1-8.61,3.56H48.58A12.21,12.21,0,0,1,40,142.11L4.69,106.9a12.2,12.2,0,0,1-3.58-8.63V48.51a12.2,12.2,0,0,1,3.58-8.63L40,4.67a12.21,12.21,0,0,1,8.61-3.56H98.51m0-1.11H48.58a13.2,13.2,0,0,0-9.39,3.89L3.91,39.09A13.23,13.23,0,0,0,0,48.51V98.27a13.23,13.23,0,0,0,3.91,9.42l35.28,35.2a13.2,13.2,0,0,0,9.39,3.89H98.51a13.18,13.18,0,0,0,9.39-3.89l35.29-35.2a13.22,13.22,0,0,0,3.9-9.42V48.51a13.22,13.22,0,0,0-3.9-9.42L107.9,3.89A13.18,13.18,0,0,0,98.51,0Z"/><rect class="cls-5" x="17.4" y="17.49" width="112.59" height="112.59" rx="17.74" transform="translate(73.76 -30.5) rotate(45)"/><path class="cls-3" d="M24.16,84.28a8.52,8.52,0,0,0,6.56,3.28c2.66,0,4.64-2.17,4.64-5.32,0-3.72-2.6-5.76-5.5-8-3.53-2.78-7.49-5.88-7.49-12.62,0-6.07,4.08-11,10.64-11a11.85,11.85,0,0,1,8.3,3.16l-2.6,4.95a7.37,7.37,0,0,0-5.51-2.35c-2.42,0-4.27,1.92-4.27,4.89s2.41,5.07,5.2,7.3c3.65,2.91,7.79,6.31,7.79,13.31,0,6.62-4.27,11.45-10.83,11.45a12.84,12.84,0,0,1-9.84-4Z"/><path class="cls-3" d="M45.9,92.57V51.29h6.43V86.88H62.79v5.69Z"/><path class="cls-3" d="M76.74,50.61c8.54,0,12,9.41,12,21.35s-3.47,21.36-12,21.36S64.79,84,64.79,72,68.2,50.61,76.74,50.61Zm0,5.76c-4,0-5.32,6.87-5.32,15.59s1.36,15.6,5.32,15.6,5.38-7,5.38-15.6S80.76,56.37,76.74,56.37Z"/><path class="cls-3" d="M111.48,92.57l-3.84-28.84-3.77,28.84H97.25L90.38,51.29H97l3.83,29.89L105,51.29h5.26l4.27,29.89,3.78-29.89H125L118.1,92.57Z"/><path class="cls-6" d="M166.6,217.14c-19.43-5.69-51.52,10.08-75.91-2.11L83,208.32a5.19,5.19,0,0,0-4.63-1.12l-9.8,2.39a5.08,5.08,0,0,0-3.9,5.13L65,222.9a5,5,0,0,0,1.07,2.93l7.14,9.09h10.5c11.63.74,25.94,3.53,37.58,4.27,14.41.92,28.84,1.84,43.28,1.49"/><path class="cls-7" d="M249.41,190.62c-10.52,3.39-21,9.12-27.78,12.89-11.48.55-23.75,1.69-23.82,6.84,0,0-14.12-1.09-20.41,2.74v0c-5.94-.72-14.19.21-14.19,2.8V242c0,3.67,9.9,4.76,15.81,3.28l0,.36c7.38,5.45,18.59,2.44,23.24,1.35,5.2,3.83,21.33,3.09,31.73,1.82,6.83-2.37,11,10.72,12.9,12.38S264,190.51,264,190.51C259.6,190.7,254.14,189.1,249.41,190.62Z"/><path class="cls-8" d="M346.38,535.81c-7.7,6.25-18.51,8.07-28.19,5.93l-1,.47-12.33-68.08c-6-7.39-7-20-7.58-32.7l-8.76-37.29-3.37,43.07-2.47,22.49-3.25,33c-7.59,3.79-23.44,0-28.59-3.45L245,416.55l2.1-85.86.26-10.87,88.67,1.36s1.87,8.56,3.57,17.5c1.42,7.35,2.71,15,2.76,18.19.3,19.08-6.36,32.68-4.1,65.48.38,5.33.17,10.71,1,16,2.05,12.42-1.57,23.7,2,35.77,4.42,14.81,4.65,30.48,4.85,45.93Q346.28,527.91,346.38,535.81Z"/><path class="cls-9" d="M339.64,337.25c-1.7-7.48-4.79-21.56-4.79-21.56l-88.67-1.14,1,16a51.58,51.58,0,0,0,8.69-1.79A68.44,68.44,0,0,0,296,332.26L297,332c.61-.14,1.2-.3,1.78-.46s1.16-.33,1.7-.49a25.82,25.82,0,0,0,2.83-1l.82-.37a13.89,13.89,0,0,0,3.19-2s0-.06,0-.11a33.28,33.28,0,0,0,8.68,7c3.48,1.72,7.63,2.19,11.67,2.53a76.44,76.44,0,0,0,8.28.35h.29C337.39,337.43,338.52,337.38,339.64,337.25Z"/><path class="cls-10" d="M346.38,535.81c-7.7,6.25-18.51,8.07-28.19,5.93l-1,.47-12.33-68.08c-6-7.39-7-20-7.58-32.7l-8.76-37.29-3.37,43.07-2.47,22.49-3.25,33c-7.59,3.79-23.44,0-28.59-3.45L245,416.55l2.1-85.86.26-10.87,88.67,1.36s1.87,8.56,3.57,17.5c1.42,7.35,2.71,15,2.76,18.19.3,19.08-6.36,32.68-4.1,65.48.38,5.33.17,10.71,1,16,2.05,12.42-1.57,23.7,2,35.77,4.42,14.81,4.65,30.48,4.85,45.93Q346.28,527.91,346.38,535.81Z"/><rect class="cls-11" x="292.11" y="223.9" width="32.27" height="56.49"/><path class="cls-12" d="M276.76,504.9l.76-2.89-26.22-6.89L247,511.6c-.8,3-1.61,6.08-2.41,9.12a80.11,80.11,0,0,1-2.45,8.63,24.7,24.7,0,0,1-10.68,12c-5.59,3.38-11.89,5.43-17.56,8.66a13.85,13.85,0,0,0-4.14,3.25,5.74,5.74,0,0,0-1.22,5c1.8,6.36,10.9,8.17,17.43,7.08,3.57-.59,6.87-2.22,10.26-3.47A51.37,51.37,0,0,1,259,559a16.26,16.26,0,0,0,11.9-3.56,9,9,0,0,0,2.87-3.44,11.17,11.17,0,0,0,.69-3.68c1-14.57-1.62-29.6,2.61-43.59Z"/><path class="cls-13" d="M310.29,189.63l-35.44,6.62V152.42h27.92A90.15,90.15,0,0,0,310.29,189.63Z"/><path class="cls-14" d="M290.51,189c-4.61-.59-8.14-3.87-12.47-5.31-1.61-.54-6.06,1.51-7.66,1.92l-14.94,3.82,5.69,63.93,38.67-16.32Z"/><ellipse class="cls-6" cx="284.53" cy="134.49" rx="29.86" ry="33.48"/><path class="cls-3" d="M315.74,139.79a.3.3,0,0,1-.54.12,5.57,5.57,0,0,0-2-1.85,6.6,6.6,0,0,0-1.14-.52c-4.77-1.63-12.21,1-16.41,1.39a41.55,41.55,0,0,1-14.71-1c-13.78-3.85-6.1-11.28-17.58-16.62.1,0-.63,5.65-.71,6A16.71,16.71,0,0,1,259.7,134c-1.77,2.31-4.3,3.68-7.29,4.81-.72.28-1.1.16-1.32-.48a41.36,41.36,0,0,1-1.22-6.94,35.67,35.67,0,0,1-.32-7.51,20,20,0,0,1,6-13.52c5-4.59,12.48-6.43,19.79-6.92,1.7-.12,3.42-.17,5.13-.15,11.66,0,25.24,2.13,31.94,10.74A20.46,20.46,0,0,1,316.54,127,40.67,40.67,0,0,1,315.74,139.79Z"/><path class="cls-12" d="M343.35,537.81a132.54,132.54,0,0,1,.7,46q-7.82,6.87-15.71,13.65c-2.82,2.42-5.35,5.88-9,6.29a73,73,0,0,1-14,.17c-2.57-.22-5.37-.7-7-2.66a6.93,6.93,0,0,1-.89-6.7,15.84,15.84,0,0,1,4-5.75c5-5,13.19-8.2,14.38-15.18a123.64,123.64,0,0,0,1.28-31.74Z"/><path class="cls-8" d="M347.35,545l-33.53-1.83c-2-.12-1.37-12.05.66-11.94L348,533.11C349.92,533.21,349.27,545.15,347.35,545Z"/><path class="cls-8" d="M279,506l-31.21-4.36c-1.88-.26-.33-11.38,1.56-11.11l31.2,4.36C282.39,495.11,280.83,506.22,279,506Z"/><path class="cls-10" d="M308.13,225a17.57,17.57,0,0,0-.73,1.71c-3.92,9.76-4.43,24.95,0,35.13"/><path class="cls-15" d="M319.08,120.65a2.22,2.22,0,0,1-1.8,2.52,172.94,172.94,0,0,1-66.23.07,2.24,2.24,0,0,1-1.8-2.53c2.58-15.17,9.6-30.11,24.31-34.9,1.51-2.28,4.66-3.71,7.52-4.43a70.39,70.39,0,0,1,13.26,1.4l1.85,3.52C309.92,91.58,316.55,106,319.08,120.65Z"/><path class="cls-16" d="M294.88,82.87c-2.48,0-5.94,3.72-7.68,5.39-1.51,1.44-3.61,3.85-3.61,6"/><path class="cls-16" d="M269.35,95c-.31-2.16,1.42-4.86,2.71-6.49.9-1.15,3.9-6,9-7.1"/><path class="cls-15" d="M321,177.27a12.8,12.8,0,0,1,4.56,2.17l.27.23c5.46,4.81,8.87,12,10.88,19.21,5.91,21,2.65,43.26,1.87,65.06a283.43,283.43,0,0,0,.46,29.29c.47,6.92,1.18,13.84,2.15,20.71q1.67,11.67,4.28,23.15l-.44.13a29.26,29.26,0,0,1-3.86.32l0,0-.32,0a64.56,64.56,0,0,1-8.33-.42c-4.06-.41-8.24-1-11.75-3-4.19-2.46-6.92-6.77-9.49-10.92C304,308,297.61,291.33,306.2,276.82c9.56-16.18,13.94-35.19,18.09-53.53.35-1.5.65-3,.9-4.55a90.64,90.64,0,0,0-.24-32.06c0-.17-.06-.35-.11-.53-.55-2.63-2.58-5.63-4.28-8.46"/><path class="cls-17" d="M341.06,337.54l0,0-.32,0-8.28-.41c-3.2-2-7.91-12.32-7.91-12.32s-9,3.71-9.88,2.66c-.38-.47-4-3.76-4.94-7.6-1-4.43.11-10,0-10.74-.28-2,11.33-3.6,11.11-5.28-3.72-27.65.38-64.24,3.42-77.6a41,41,0,0,0,.87-6.7,89.87,89.87,0,0,0-.23-31.84c0-.17-.07-.35-.12-.53a28.33,28.33,0,0,0-3.28-8.56c-.29-.48-.6-1-.93-1.42a16.72,16.72,0,0,1,1.93,1.09,18.76,18.76,0,0,1,3,2.23l.26.23c2.48,8.43,8.46,31.37,4.91,47-3.87,17-4.15,49.25-2.31,72.3,2.15-1.32,4.38-2.48,6.54-3.76a32.26,32.26,0,0,0,4-2.73c.47,6.87,1.18,13.75,2.14,20.57a64,64,0,0,0-9.32,8.4C332.27,324.12,340.42,336.76,341.06,337.54Z"/><path class="cls-10" d="M321,177.27a12.8,12.8,0,0,1,4.56,2.17l.27.23c5.46,4.81,8.87,12,10.88,19.21,5.91,21,2.65,43.26,1.87,65.06a283.43,283.43,0,0,0,.46,29.29c.47,6.92,1.18,13.84,2.15,20.71q1.67,11.67,4.28,23.15l-.44.13a29.26,29.26,0,0,1-3.86.32l0,0-.32,0a64.56,64.56,0,0,1-8.33-.42c-4.06-.41-8.24-1-11.75-3-4.19-2.46-6.92-6.77-9.49-10.92C304,308,297.61,291.33,306.2,276.82c9.56-16.18,13.94-35.19,18.09-53.53.35-1.5.65-3,.9-4.55a90.64,90.64,0,0,0-.24-32.06c0-.17-.06-.35-.11-.53-.55-2.63-2.58-5.63-4.28-8.46"/><path class="cls-18" d="M322.22,181.93c-.88.73,1.24,1.27.56,2.21a8.6,8.6,0,0,0-1.37,3.13c-.59,2.51-.51,5.15-.88,7.7-.39,2.82-.77,5.63-1.22,8.44-.11.66-.21,1.31-.33,2-.4,2.3-.83,4.58-1.3,6.86a34.69,34.69,0,0,1-2.68,8.53c-1.72,3.37-5.54,4.9-6.68,8.26A47.45,47.45,0,0,0,306.16,240c-.67,7.39-.09,15.3,2.89,22.16l3.34,5.54c.57,1.52,0,3.73-.09,5.3-.14,2-.31,4-.51,6.07-.64,7-.84,9-1.37,16-.12,1.42-.91,7.17-.63,8.56s-.11,3.27-.06,4.71a70.16,70.16,0,0,1-.75,14,14,14,0,0,1-3.19,2.35c-.26.15-.54.29-.82.44a24.58,24.58,0,0,1-2.83,1.23l-1.7.59c-.58.18-1.18.38-1.79.55-.31.1-.63.18-.94.26-22.46,5.82-40.21-7.47-40.21-7.47s-7.83,6.33-16.81,5.9v-29.5l0-1.32c.52-22.83,3.58-45.52,3.55-68.36,0-6.74.33-13.5,1-20.21a55,55,0,0,0,0-8c-.1-2.38.11-5,2.13-6.57a12,12,0,0,1,1-.75,25,25,0,0,1,8.72-3.53l.57-.14c2.26-.57,7.2-2.08,9-1.76,2.61.48,2.23,2.2,1.7,4.76-1.38,6.71-6.67,45.76-4.76,50.88,0,0,11-26.06,13.69-30.47,3.55-5.85,10.33-19.17,18.56-26.3a38.06,38.06,0,0,1,6-4.44,17.64,17.64,0,0,1,3.57-1.62c2.73-.91,5.59-.66,8.45-.86a33.37,33.37,0,0,1,4.36,0C319.24,177.93,322.66,181.55,322.22,181.93Z"/><path class="cls-17" d="M309.71,308a69.42,69.42,0,0,1-.74,14.05,14,14,0,0,1-3.19,2.35l-.83.44a29.82,29.82,0,0,1-2.82,1.23c-.55.2-1.11.39-1.71.59s-1.17.38-1.78.55c-.31.1-.63.18-.94.26A63,63,0,0,0,280.91,314a99.6,99.6,0,0,0-11-5.26c-3.19-1.29-6.48-2.26-9.68-3.5-2.91,1.27-5.9,2.28-8.78,3.62a93.37,93.37,0,0,0-9.75,5.14c-.35.21-.69.45-1,.68V296.4l0-1.32c1.34-.68,2.7-1.32,4-2-1-14,.62-27.92.95-41.67.21-9.25,2.11-20.76,1.86-29.33l.81-30.93a25.37,25.37,0,0,1,8.73-3.53l.56-.14c.37,6.43-2.61,22.6-3.67,34.18-.89,9.79-.71,21.74-.94,31.21-.31,13.4-3,25.53-2.15,37.26,1.23-.57,2.45-1.17,3.69-1.73.36-.15.69-.32,1.06-.48.61-.28,1.22-.63,1.86-.86A9.26,9.26,0,0,1,263,287a21.3,21.3,0,0,1,2.4.94c.38.16.76.33,1.15.46.6-3.8,1.34-8.41,1.41-9.12.51-5.07.91-10.2,1.09-15.29.45-12.91,1.72-28.14,7.93-39.65q7.77-14.35,15.88-28.47c2.8-4.86,5.49-10.89,9-15.7a17.39,17.39,0,0,1,3.57-1.62c2.73-.91,5.58-.66,8.44-.86-3.24,4.64-10.89,17.78-11.61,18.95-10.65,17.16-19.49,37.12-22.32,57.37-.29,2.16-.51,4.33-.61,6.51-.43,8.31-.13,16.66-.66,25-.16,2.6-.41,5.18-.78,7.74Q294,300.25,309.71,308Z"/><path class="cls-19" d="M322.33,181.4c-.88.72,1.13,1.8.45,2.74a8.6,8.6,0,0,0-1.37,3.13c-.59,2.51-.51,5.15-.88,7.7-.39,2.82-.77,5.63-1.22,8.44-.11.66-.21,1.31-.33,2-.4,2.3-.83,4.58-1.3,6.86a34.69,34.69,0,0,1-2.68,8.53c-1.72,3.37-5.54,4.9-6.68,8.26A47.45,47.45,0,0,0,306.16,240c-.67,7.39-.09,15.3,2.89,22.16l3.34,5.54c.57,1.52,0,3.73-.09,5.3-.14,2-.31,4-.51,6.07-.64,7-.84,9-1.37,16-.12,1.42-.91,7.17-.63,8.56s-.11,3.27-.06,4.71a70.16,70.16,0,0,1-.75,14,14,14,0,0,1-3.19,2.35c-.26.15-.54.29-.82.44a24.58,24.58,0,0,1-2.83,1.23l-1.7.59c-.58.18-1.18.38-1.79.55-.31.1-.63.18-.94.26-22.46,5.82-40.21-7.47-40.21-7.47s-7.83,6.33-16.81,5.9v-29.5l0-1.32c.52-22.83,3.58-45.52,3.55-68.36,0-6.74.33-13.5,1-20.21a55,55,0,0,0,0-8c-.1-2.38.11-5,2.13-6.57a12,12,0,0,1,1-.75,25,25,0,0,1,8.72-3.53l.57-.14c2.26-.57,7.2-2.08,9-1.76,2.61.48,2.23,2.2,1.7,4.76-1.38,6.71-6.67,45.76-4.76,50.88,0,0,11-26.06,13.69-30.47,3.55-5.85,10.33-19.17,18.56-26.3a38.06,38.06,0,0,1,6-4.44,17.64,17.64,0,0,1,3.57-1.62c2.73-.91,5.59-.66,8.45-.86a51.74,51.74,0,0,1,5.43,0c1,0,0,2.79,1.06,3"/><path class="cls-20" d="M252.06,238.54a64.63,64.63,0,0,1,32.45,3.9c4.21,1.67,8.29,3.79,12.73,4.68s13.08.43,16.36-2.69c2.54-2.41,9.32-8.35,9.51-11.85.32-5.94-11.11-9.73-15.13-14.1a29.3,29.3,0,0,0-14.12-8,73.55,73.55,0,0,0-16.28-2c-9.66-.37-19.93-.11-28.07,5.09a12.07,12.07,0,0,0-5.06,5.57,15.45,15.45,0,0,0-.64,5.34,178.49,178.49,0,0,0,.44,18.07C246.34,240,248.78,239,252.06,238.54Z"/><path class="cls-6" d="M241.06,194.9l-2.33,22.84c-9.7,2.36-19.35-8-24.9-16.33s-6.38-18.71-9.37-28.26c-2-6.51-8-14.53-9-19.81,0-24.23,8.61-31.83,26.1-35.82a2.85,2.85,0,0,1,1.45,0,32.13,32.13,0,0,1,10.66,6.06,2.86,2.86,0,0,1,.82,3.42C228,141.39,217.8,142.11,216,148.71Z"/><path class="cls-7" d="M324.84,186.15a28.55,28.55,0,0,0-3.31-8.62l-.07-.12a31.6,31.6,0,0,0-15.61-.63c-8,1.62-15.79,3.9-23.7,5.82s-15.8,2.84-23.62,4.76c.15-2.11-21.06-3.6-21.2-1.49,2,13.14,1.63,21.49-2,31.88-.17,2.25,21.13,5.38,22.27,3.36L285,226c6.71,4.9,12.77,10.91,20.34,13.87a27,27,0,0,0,3.54,1.11s.13-.17.16-.17c4.6-2.16,9.27-4.62,12.28-8.71a12.94,12.94,0,0,0,1-1.5q1.13-3.6,2-7.29c.35-1.5.65-3,.89-4.54a90.46,90.46,0,0,0-.23-32.07C324.92,186.52,324.89,186.34,324.84,186.15Z"/></g></g></svg>