<svg xmlns="http://www.w3.org/2000/svg" xmlns:xlink="http://www.w3.org/1999/xlink" id="Layer_1" data-name="Layer 1" viewBox="0 0 1366 768"><defs><style>      .cls-1 {        fill: none;      }      .cls-1, .cls-2, .cls-3 {        stroke-width: 0px;      }      .cls-2 {        fill: url(#New_Pattern);      }      .cls-3 {        fill: #f26d32;      }    </style><pattern id="New_Pattern" data-name="New Pattern" x="0" y="0" width="132" height="188" patternTransform="translate(2951.75 -4627.52) rotate(-30)" patternUnits="userSpaceOnUse" viewBox="0 0 132 188"><g><rect class="cls-1" width="132" height="188"></rect><g><path class="cls-3" d="M152.83,52h-3.74l-5.52-15.81-3.73-10.66-.53-1.53h0l-3.04-8.71-1.93-5.52c-.77-2.21-3.89-2.21-4.67,0l-1.93,5.52-3.04,8.71h0l-1.42,4.06h0l-2.84,8.13-5.52,15.81h-3.74c-.56,0-1.08.27-1.49.75-.4.49-.62,1.13-.62,1.81,0,1.41.95,2.56,2.11,2.56h41.65c.56,0,1.08-.27,1.49-.75.4-.49.62-1.13.62-1.81,0-1.41-.95-2.56-2.11-2.56Z"></path><g><path class="cls-3" d="M153.45,100.71c-.41,1.17-3.16-2.18-7.28-2.81-4.12-1.03-9.6.67-15.47,2.81-5.87,2.27-11.02.98-14.59-2.62-3.58-3.34-5.58-8.99-5.17-9.51.41-1.17,3.16,2.18,7.28,2.81,4.12,1.03,9.6-.67,15.47-2.81,5.87-2.27,11.02-.98,14.6,2.62,3.58,3.34,5.58,8.99,5.17,9.51"></path><path class="cls-3" d="M156.49,113.93c-.41,1.17-3.17-2.18-7.28-2.81-4.12-1.03-9.6.67-15.47,2.81-5.87,2.27-11.02.98-14.6-2.62-3.58-3.34-5.58-8.99-5.17-9.51.41-1.17,3.16,2.18,7.28,2.81,4.12,1.03,9.6-.67,15.47-2.81,5.87-2.27,11.02-.98,14.59,2.61,3.58,3.34,5.59,8.99,5.17,9.51"></path><path class="cls-3" d="M150.03,87.48c-.41,1.17-3.16-2.18-7.28-2.81-4.12-1.03-9.6.67-15.47,2.81-5.87,2.27-11.02.98-14.59-2.61-3.58-3.34-5.59-8.99-5.17-9.52.41-1.17,3.16,2.18,7.28,2.81,4.12,1.02,9.6-.67,15.47-2.81,5.87-2.27,11.02-.98,14.6,2.62,3.58,3.34,5.58,8.99,5.17,9.51"></path></g><polygon class="cls-3" points="141.94 131.87 122.06 131.87 108 145.93 108 165.82 122.06 179.87 141.94 179.87 156 165.82 156 145.93 141.94 131.87"></polygon></g><g><path class="cls-3" d="M86.83,52h-3.74l-5.52-15.81-3.73-10.66-.53-1.53h0l-3.04-8.71-1.93-5.52c-.77-2.21-3.89-2.21-4.67,0l-1.93,5.52-3.04,8.71h0l-1.42,4.06h0l-2.84,8.13-5.52,15.81h-3.74c-.56,0-1.08.27-1.49.75-.4.49-.62,1.13-.62,1.81,0,1.41.95,2.56,2.11,2.56h41.65c.56,0,1.08-.27,1.49-.75.4-.49.62-1.13.62-1.81,0-1.41-.95-2.56-2.11-2.56Z"></path><g><path class="cls-3" d="M87.45,100.71c-.41,1.17-3.16-2.18-7.28-2.81-4.12-1.03-9.6.67-15.47,2.81-5.87,2.27-11.02.98-14.59-2.62-3.58-3.34-5.58-8.99-5.17-9.51.41-1.17,3.16,2.18,7.28,2.81,4.12,1.03,9.6-.67,15.47-2.81,5.87-2.27,11.02-.98,14.6,2.62,3.58,3.34,5.58,8.99,5.17,9.51"></path><path class="cls-3" d="M90.49,113.93c-.41,1.17-3.17-2.18-7.28-2.81-4.12-1.03-9.6.67-15.47,2.81-5.87,2.27-11.02.98-14.6-2.62-3.58-3.34-5.58-8.99-5.17-9.51.41-1.17,3.16,2.18,7.28,2.81,4.12,1.03,9.6-.67,15.47-2.81,5.87-2.27,11.02-.98,14.59,2.61,3.58,3.34,5.59,8.99,5.17,9.51"></path><path class="cls-3" d="M84.03,87.48c-.41,1.17-3.16-2.18-7.28-2.81-4.12-1.03-9.6.67-15.47,2.81-5.87,2.27-11.02.98-14.59-2.61-3.58-3.34-5.59-8.99-5.17-9.52.41-1.17,3.16,2.18,7.28,2.81,4.12,1.02,9.6-.67,15.47-2.81,5.87-2.27,11.02-.98,14.6,2.62,3.58,3.34,5.58,8.99,5.17,9.51"></path></g><polygon class="cls-3" points="75.94 131.87 56.06 131.87 42 145.93 42 165.82 56.06 179.87 75.94 179.87 90 165.82 90 145.93 75.94 131.87"></polygon></g><g><path class="cls-3" d="M20.83,52h-3.74l-5.52-15.81-3.73-10.66-.53-1.53h0l-3.04-8.71-1.93-5.52c-.77-2.21-3.89-2.21-4.67,0l-1.93,5.52-3.04,8.71h0l-1.42,4.06h0l-2.84,8.13-5.52,15.81h-3.74c-.56,0-1.08.27-1.49.75-.4.49-.62,1.13-.62,1.81,0,1.41.95,2.56,2.11,2.56H20.83c.56,0,1.08-.27,1.49-.75.4-.49.62-1.13.62-1.81,0-1.41-.95-2.56-2.11-2.56Z"></path><g><path class="cls-3" d="M21.45,100.71c-.41,1.17-3.16-2.18-7.28-2.81-4.12-1.03-9.6.67-15.47,2.81-5.87,2.27-11.02.98-14.59-2.62-3.58-3.34-5.58-8.99-5.17-9.51.41-1.17,3.16,2.18,7.28,2.81,4.12,1.03,9.6-.67,15.47-2.81,5.87-2.27,11.02-.98,14.6,2.62,3.58,3.34,5.58,8.99,5.17,9.51"></path><path class="cls-3" d="M24.49,113.93c-.41,1.17-3.17-2.18-7.28-2.81-4.12-1.03-9.6.67-15.47,2.81-5.87,2.27-11.02.98-14.6-2.62-3.58-3.34-5.58-8.99-5.17-9.51.41-1.17,3.16,2.18,7.28,2.81,4.12,1.03,9.6-.67,15.47-2.81,5.87-2.27,11.02-.98,14.59,2.61,3.58,3.34,5.59,8.99,5.17,9.51"></path><path class="cls-3" d="M18.03,87.48c-.41,1.17-3.16-2.18-7.28-2.81-4.12-1.03-9.6.67-15.47,2.81-5.87,2.27-11.02.98-14.59-2.61-3.58-3.34-5.59-8.99-5.17-9.52.41-1.17,3.16,2.18,7.28,2.81,4.12,1.02,9.6-.67,15.47-2.81,5.87-2.27,11.02-.98,14.6,2.62,3.58,3.34,5.58,8.99,5.17,9.51"></path></g><polygon class="cls-3" points="9.94 131.87 -9.94 131.87 -24 145.93 -24 165.82 -9.94 179.87 9.94 179.87 24 165.82 24 145.93 9.94 131.87"></polygon></g></g></pattern></defs><rect class="cls-2" width="1366" height="768"></rect></svg>