<svg id="Layer_1" data-name="Layer 1" xmlns="http://www.w3.org/2000/svg" viewBox="0 0 200 200"><defs><style>.cls-1{fill:#3e5076;}</style></defs><path class="cls-1" d="M132.67,147a4.25,4.25,0,0,1-3.9-2.58L79.66,30.05a4.25,4.25,0,1,1,7.81-3.35L134.9,137.13l53.27-22.67a4.25,4.25,0,1,1,3.33,7.82l-57.16,24.33A4.35,4.35,0,0,1,132.67,147Zm32.38-82.81a4.24,4.24,0,0,0-5.58-2.24l-37.66,16a4.26,4.26,0,0,0-2.25,5.57l17.53,41.19a4.27,4.27,0,0,0,5.58,2.25l37.66-16a4.25,4.25,0,0,0,2.25-5.57ZM80.27,154.63a21.24,21.24,0,1,0,21.24-21.24A21.24,21.24,0,0,0,80.27,154.63Zm-5.64,5h-30A22.37,22.37,0,0,0,5.91,144.33V110a4.25,4.25,0,0,1,4.25-4.25H17V58.11a5.31,5.31,0,0,1,5.31-5.31H77.93A5.32,5.32,0,0,1,82.81,56l27.51,64.2a5.27,5.27,0,0,1,.39,2.46h0v6.22a26.92,26.92,0,0,0-9.2-1.62,27.34,27.34,0,0,0-27.34,27.34A27,27,0,0,0,74.63,159.59Zm-9.18-41.14H98l-23.59-55H27.57V105.7H59.45ZM6,159.59a16.28,16.28,0,1,0,16.28-16.28A16.28,16.28,0,0,0,6,159.59Z"/></svg>