<svg xmlns="http://www.w3.org/2000/svg" xmlns:xlink="http://www.w3.org/1999/xlink" id="Layer_1" data-name="Layer 1" viewBox="0 0 986.29 154.17"><defs><style>.cls-1{fill:none;}.cls-2{clip-path:url(#clip-path);}.cls-3{fill:#fff;}</style><clipPath id="clip-path"><rect class="cls-1" x="-1489.14" y="-327.27" width="800" height="800" rx="400"></rect></clipPath></defs><g class="cls-2"><image width="1882" height="1407" transform="translate(-2276.28 -877.09) scale(1.32)" xlink:href="../Screen-Shot-2021-09-16-at-4.08.00-PM.png"></image></g><path class="cls-3" d="M242.19,108.57a33.5,33.5,0,0,1-9.06,3.66,41.42,41.42,0,0,1-9.94,1.22,31.71,31.71,0,0,1-8.91-1.15,24.27,24.27,0,0,1-6.91-3.18,21.45,21.45,0,0,1-5.05-4.82,26.72,26.72,0,0,1-3.4-6A32.3,32.3,0,0,1,197,91.43a44.08,44.08,0,0,1-.59-7.26,45.05,45.05,0,0,1,.61-7.43,34.71,34.71,0,0,1,1.92-7,28.84,28.84,0,0,1,3.33-6.23,20.91,20.91,0,0,1,4.92-5,23.34,23.34,0,0,1,6.67-3.29,28,28,0,0,1,8.52-1.2,32.13,32.13,0,0,1,9.78,1.5,22.53,22.53,0,0,1,8.34,4.78,1.45,1.45,0,0,1,.18,2.26l-2,2.53a1.23,1.23,0,0,1-2.09.26,22.2,22.2,0,0,0-6.3-3.68,21.79,21.79,0,0,0-8.16-1.46,17.42,17.42,0,0,0-8.37,1.87,16.07,16.07,0,0,0-5.71,5.12,22.87,22.87,0,0,0-3.27,7.6,40.51,40.51,0,0,0-1,9.37,38.05,38.05,0,0,0,1.07,9.33,20.53,20.53,0,0,0,3.39,7.38,16,16,0,0,0,6,4.88,20.52,20.52,0,0,0,8.95,1.77,31.87,31.87,0,0,0,3.27-.18,32.2,32.2,0,0,0,3.48-.54,28.54,28.54,0,0,0,3.43-1,15.52,15.52,0,0,0,3.07-1.46V87.75H224.32a1.3,1.3,0,0,1-1.56-1.57V83.39a1.3,1.3,0,0,1,1.56-1.57h17.61a1.31,1.31,0,0,1,1.57,1.57v22.83a2.55,2.55,0,0,1-.33,1.33A3.74,3.74,0,0,1,242.19,108.57Z"></path><path class="cls-3" d="M258.57,112.58A1.31,1.31,0,0,1,257,111V56.46a1.31,1.31,0,0,1,1.57-1.57h30.85A1.31,1.31,0,0,1,291,56.46v2.79a1.31,1.31,0,0,1-1.57,1.57H264.15V79.64h22.48a1.31,1.31,0,0,1,1.57,1.57V84a1.31,1.31,0,0,1-1.57,1.57H264.15v21.08h25.27a1.31,1.31,0,0,1,1.57,1.57V111a1.31,1.31,0,0,1-1.57,1.57Z"></path><path class="cls-3" d="M323.23,112.58a1.31,1.31,0,0,1-1.57-1.57V56.46a1.31,1.31,0,0,1,1.57-1.57h15.42a28,28,0,0,1,9.42,1.4A17.36,17.36,0,0,1,354.36,60a14.13,14.13,0,0,1,3.51,5.41A18.89,18.89,0,0,1,359,71.8a17.34,17.34,0,0,1-.87,5.49,15.19,15.19,0,0,1-2.6,4.75,15.81,15.81,0,0,1-4.33,3.68A20.26,20.26,0,0,1,345.1,88a44.61,44.61,0,0,1,5.25,5.14A57.89,57.89,0,0,1,354.84,99a71.39,71.39,0,0,1,3.66,6.14c1.09,2.07,2,4,2.81,5.93.44,1,.12,1.48-1,1.48h-4.7a2.55,2.55,0,0,1-1.35-.3,2.44,2.44,0,0,1-.83-1.18q-1-2.4-2.46-5.19a58.53,58.53,0,0,0-3.45-5.7,59.23,59.23,0,0,0-4.48-5.78,49.8,49.8,0,0,0-5.56-5.38h-8.71v22a1.31,1.31,0,0,1-1.57,1.57Zm5.58-29.45h10.11a18,18,0,0,0,6-.87,10.62,10.62,0,0,0,3.94-2.38A8.61,8.61,0,0,0,351,76.37a14.26,14.26,0,0,0,.63-4.31,14.54,14.54,0,0,0-.63-4.31,9.08,9.08,0,0,0-2.1-3.6A10,10,0,0,0,345,61.71a17.82,17.82,0,0,0-6-.89H328.81Z"></path><path class="cls-3" d="M404.62,92.62a1.16,1.16,0,0,1-1.31,1.31H374.82a21,21,0,0,0,1,5.38,13.1,13.1,0,0,0,2.4,4.38,10.8,10.8,0,0,0,3.94,2.94,13.76,13.76,0,0,0,5.73,1.07,19.88,19.88,0,0,0,5.31-.72,14.43,14.43,0,0,0,4.71-2.24,1.84,1.84,0,0,1,1.2-.46c.3,0,.63.31,1,.81l1.39,2.09a1.78,1.78,0,0,1,.31,1.2,1.84,1.84,0,0,1-.74,1.06,16.8,16.8,0,0,1-6,3,26.42,26.42,0,0,1-7.23,1,21.06,21.06,0,0,1-9.15-1.81,17.25,17.25,0,0,1-6.19-4.81A19.63,19.63,0,0,1,369,99.9a30.83,30.83,0,0,1,0-16.47,20.48,20.48,0,0,1,3.44-7,16.91,16.91,0,0,1,5.82-4.79,18,18,0,0,1,8.25-1.79A17.07,17.07,0,0,1,395,71.82a16.82,16.82,0,0,1,5.6,5,20.86,20.86,0,0,1,3.11,6.84,30.14,30.14,0,0,1,1,7.47Zm-6.71-3.74a23.6,23.6,0,0,0-1-5.25,14.19,14.19,0,0,0-2.2-4.32,10.68,10.68,0,0,0-3.47-2.94,10.19,10.19,0,0,0-4.83-1.09,10.51,10.51,0,0,0-4.75,1,10.17,10.17,0,0,0-3.49,2.83,13.67,13.67,0,0,0-2.26,4.31,23.44,23.44,0,0,0-1.09,5.43Z"></path><path class="cls-3" d="M416.56,112.58A1.31,1.31,0,0,1,415,111V72.32a1.31,1.31,0,0,1,1.57-1.57h3.22a1.31,1.31,0,0,1,1.57,1.57v3.49a17.29,17.29,0,0,1,2.07-2.16,14.74,14.74,0,0,1,2.77-1.92,15.6,15.6,0,0,1,3.57-1.35,18.75,18.75,0,0,1,4.49-.5,15.48,15.48,0,0,1,6.62,1.29,12.33,12.33,0,0,1,4.49,3.44,13.92,13.92,0,0,1,2.55,5,22.88,22.88,0,0,1,.8,6.08V111a1.66,1.66,0,0,1-.35,1.22,1.68,1.68,0,0,1-1.21.35h-3.66a1.69,1.69,0,0,1-1.22-.35,1.66,1.66,0,0,1-.35-1.22V86.35a20.36,20.36,0,0,0-.37-3.75,9.92,9.92,0,0,0-1.38-3.48,7.69,7.69,0,0,0-2.76-2.57,9.16,9.16,0,0,0-4.56-1,14.82,14.82,0,0,0-2.85.29,13.39,13.39,0,0,0-2.9.93,14,14,0,0,0-2.81,1.73,12.84,12.84,0,0,0-2.5,2.63V111a1.31,1.31,0,0,1-1.57,1.57Z"></path><path class="cls-3" d="M495.86,92.62a1.16,1.16,0,0,1-1.31,1.31h-28.5a21,21,0,0,0,1,5.38,13.26,13.26,0,0,0,2.39,4.38,10.83,10.83,0,0,0,3.95,2.94,13.76,13.76,0,0,0,5.73,1.07,19.88,19.88,0,0,0,5.31-.72,14.63,14.63,0,0,0,4.71-2.24,1.83,1.83,0,0,1,1.19-.46q.46.06,1,.81l1.39,2.09a1.77,1.77,0,0,1,.3,1.2,1.75,1.75,0,0,1-.74,1.06,16.67,16.67,0,0,1-6,3,26.48,26.48,0,0,1-7.23,1,21.06,21.06,0,0,1-9.15-1.81,17.25,17.25,0,0,1-6.19-4.81,19.48,19.48,0,0,1-3.51-6.93,30.7,30.7,0,0,1,0-16.47,20.48,20.48,0,0,1,3.44-7,17,17,0,0,1,5.81-4.79,18,18,0,0,1,8.26-1.79,17,17,0,0,1,8.45,1.94,16.72,16.72,0,0,1,5.6,5,20.68,20.68,0,0,1,3.12,6.84,30.14,30.14,0,0,1,1,7.47Zm-6.71-3.74a23,23,0,0,0-1-5.25,14,14,0,0,0-2.2-4.32,10.54,10.54,0,0,0-3.46-2.94,10.23,10.23,0,0,0-4.84-1.09,10.47,10.47,0,0,0-4.74,1,10.17,10.17,0,0,0-3.49,2.83,13.9,13.9,0,0,0-2.27,4.31,24.53,24.53,0,0,0-1.09,5.43Z"></path><path class="cls-3" d="M560.34,70.75c.87,0,1.31.38,1.31,1.13a3.88,3.88,0,0,1,0,.57,5.74,5.74,0,0,1-.13.65c-.66,3.32-1.46,6.73-2.37,10.24s-1.91,7-3,10.31-2.19,6.54-3.35,9.56-2.33,5.68-3.49,8a2.91,2.91,0,0,1-.87,1,2.33,2.33,0,0,1-1.39.37H543.7a2.36,2.36,0,0,1-1.35-.33,2.51,2.51,0,0,1-.83-1.06q-3.75-8.67-6.14-16A115.43,115.43,0,0,1,531.67,81,107.68,107.68,0,0,1,528,95.15q-2.41,7.32-6.08,15.95a2.7,2.7,0,0,1-.83,1.13,2.28,2.28,0,0,1-1.35.35h-3.4a2.29,2.29,0,0,1-2.26-1.39c-1.11-2.36-2.24-5-3.4-8.06s-2.29-6.21-3.38-9.55-2.1-6.76-3.05-10.26-1.73-6.9-2.37-10.22a5.74,5.74,0,0,1-.13-.65,3.88,3.88,0,0,1-.05-.57c0-.75.44-1.13,1.31-1.13h3.75a2,2,0,0,1,1.28.35,1.91,1.91,0,0,1,.55,1.22q.74,4.28,1.83,8.82c.72,3,1.52,6,2.37,9s1.75,5.75,2.66,8.45,1.82,5.11,2.73,7.23q1.47-3.18,3-7.23T524,90.1c.92-2.94,1.75-5.92,2.51-9s1.38-6,1.87-8.82a2,2,0,0,1,.54-1.22,2,2,0,0,1,1.29-.35h3a2,2,0,0,1,1.29.35,1.91,1.91,0,0,1,.54,1.22c.53,2.85,1.17,5.79,1.94,8.82s1.61,6,2.53,9,1.86,5.75,2.85,8.45,2,5.11,3,7.23c.9-2.12,1.8-4.53,2.72-7.23s1.8-5.52,2.66-8.45,1.65-5.92,2.37-9,1.34-6,1.83-8.82a1.91,1.91,0,0,1,.55-1.22,2,2,0,0,1,1.28-.35Z"></path><path class="cls-3" d="M596.42,112.58a1.71,1.71,0,0,1-1.22-.35,1.66,1.66,0,0,1-.35-1.22v-3.75a18.88,18.88,0,0,1-2,2.23,14.77,14.77,0,0,1-2.72,2,15.83,15.83,0,0,1-3.59,1.44,18.14,18.14,0,0,1-4.64.54,17.4,17.4,0,0,1-6-1,12.44,12.44,0,0,1-4.38-2.65,11.22,11.22,0,0,1-2.66-4,13.89,13.89,0,0,1-.89-5,13.2,13.2,0,0,1,1-5.1,10.79,10.79,0,0,1,3-4.1,14.59,14.59,0,0,1,5.19-2.72,25.2,25.2,0,0,1,7.45-1,31.25,31.25,0,0,1,5.62.46,19.23,19.23,0,0,1,4.22,1.19V86.09A19.25,19.25,0,0,0,594,82.3a8.3,8.3,0,0,0-1.44-3.36,7.64,7.64,0,0,0-3-2.39,11.84,11.84,0,0,0-5-.92,20.69,20.69,0,0,0-5.78.85,14.75,14.75,0,0,0-5.12,2.64,1.83,1.83,0,0,1-1.19.46,1.74,1.74,0,0,1-1-.81l-1.39-2a1.53,1.53,0,0,1,.35-2.26A19.21,19.21,0,0,1,577,71.08a27.22,27.22,0,0,1,8.22-1.2A21.29,21.29,0,0,1,592.45,71a13,13,0,0,1,5,3.12,12.28,12.28,0,0,1,2.86,4.79,19.63,19.63,0,0,1,.91,6.14v26a1.31,1.31,0,0,1-1.57,1.57ZM583,108a14.46,14.46,0,0,0,6.23-1.39,13.19,13.19,0,0,0,5.18-4.62V94.54a10.67,10.67,0,0,0-2-.65c-.76-.18-1.54-.32-2.35-.44s-1.63-.19-2.44-.24-1.54-.06-2.18-.06a19.13,19.13,0,0,0-5,.56,9.39,9.39,0,0,0-3.27,1.55,5.78,5.78,0,0,0-1.81,2.37,8.13,8.13,0,0,0-.56,3,9.53,9.53,0,0,0,.37,2.62,5.87,5.87,0,0,0,1.3,2.35,6.86,6.86,0,0,0,2.51,1.7A10.64,10.64,0,0,0,583,108Z"></path><path class="cls-3" d="M616.11,112.58a1.31,1.31,0,0,1-1.57-1.57V51.58A1.31,1.31,0,0,1,616.11,50h3.66a1.31,1.31,0,0,1,1.57,1.57V75.2a12.35,12.35,0,0,1,1.87-2,11.84,11.84,0,0,1,2.53-1.68A15.12,15.12,0,0,1,629,70.32a17.21,17.21,0,0,1,4-.44,17.61,17.61,0,0,1,7.29,1.46,15,15,0,0,1,5.54,4.25,19.92,19.92,0,0,1,3.53,6.82,31,31,0,0,1,1.24,9.17,31.11,31.11,0,0,1-1.24,9.15,20.42,20.42,0,0,1-3.53,6.88,15.28,15.28,0,0,1-5.54,4.34,18.67,18.67,0,0,1-11.45,1,13.63,13.63,0,0,1-3.34-1.26,13.09,13.09,0,0,1-2.63-1.87,12.87,12.87,0,0,1-2-2.33V111a1.3,1.3,0,0,1-1.56,1.57Zm5.23-10.37a11.69,11.69,0,0,0,4.68,4.42,12.77,12.77,0,0,0,5.69,1.33,11.44,11.44,0,0,0,4.86-1,10,10,0,0,0,3.74-3,14.71,14.71,0,0,0,2.4-5.08,30.46,30.46,0,0,0,0-14.29,14.89,14.89,0,0,0-2.4-5.08,10.06,10.06,0,0,0-3.74-3,11.44,11.44,0,0,0-4.86-1A12.77,12.77,0,0,0,626,76.7a11.76,11.76,0,0,0-4.68,4.42Z"></path><path class="cls-3" d="M662.73,112.58a1.31,1.31,0,0,1-1.57-1.57V51.58A1.31,1.31,0,0,1,662.73,50h3.66A1.31,1.31,0,0,1,668,51.58V111a1.31,1.31,0,0,1-1.57,1.57Z"></path><path class="cls-3" d="M715.28,92.62A1.16,1.16,0,0,1,714,93.93H685.48a21,21,0,0,0,1,5.38,13.26,13.26,0,0,0,2.39,4.38,10.83,10.83,0,0,0,4,2.94,13.76,13.76,0,0,0,5.73,1.07,19.88,19.88,0,0,0,5.31-.72,14.53,14.53,0,0,0,4.71-2.24,1.84,1.84,0,0,1,1.2-.46c.3,0,.63.31,1,.81l1.39,2.09a1.51,1.51,0,0,1-.43,2.26,16.8,16.8,0,0,1-6,3,26.48,26.48,0,0,1-7.23,1,21.06,21.06,0,0,1-9.15-1.81,17.25,17.25,0,0,1-6.19-4.81,19.81,19.81,0,0,1-3.51-6.93,30.7,30.7,0,0,1,0-16.47,20.48,20.48,0,0,1,3.44-7,16.91,16.91,0,0,1,5.82-4.79,18,18,0,0,1,8.25-1.79,17.07,17.07,0,0,1,8.46,1.94,16.69,16.69,0,0,1,5.59,5,20.68,20.68,0,0,1,3.12,6.84,30.14,30.14,0,0,1,1,7.47Zm-6.71-3.74a23.6,23.6,0,0,0-1-5.25,14.42,14.42,0,0,0-2.2-4.32,10.68,10.68,0,0,0-3.47-2.94,10.22,10.22,0,0,0-4.83-1.09,10.48,10.48,0,0,0-4.75,1,10.17,10.17,0,0,0-3.49,2.83,13.9,13.9,0,0,0-2.27,4.31,24,24,0,0,0-1.08,5.43Z"></path><path class="cls-3" d="M746.3,112.58a1.31,1.31,0,0,1-1.57-1.57V56.46a1.31,1.31,0,0,1,1.57-1.57h30.85a1.31,1.31,0,0,1,1.57,1.57v2.79a1.31,1.31,0,0,1-1.57,1.57H751.88V79.64h22.48a1.31,1.31,0,0,1,1.57,1.57V84a1.31,1.31,0,0,1-1.57,1.57H751.88v21.08h25.27a1.31,1.31,0,0,1,1.57,1.57V111a1.31,1.31,0,0,1-1.57,1.57Z"></path><path class="cls-3" d="M791.87,112.58a1.3,1.3,0,0,1-1.56-1.57V72.32a1.3,1.3,0,0,1,1.56-1.57h3.23a1.31,1.31,0,0,1,1.57,1.57v3.49a17.29,17.29,0,0,1,2.07-2.16,15,15,0,0,1,2.76-1.92,15.87,15.87,0,0,1,3.58-1.35,18.66,18.66,0,0,1,4.48-.5,15.49,15.49,0,0,1,6.63,1.29,12.42,12.42,0,0,1,4.49,3.44,13.74,13.74,0,0,1,2.54,5,22.48,22.48,0,0,1,.81,6.08V111a1.31,1.31,0,0,1-1.57,1.57H818.8a1.31,1.31,0,0,1-1.57-1.57V86.35a19.53,19.53,0,0,0-.37-3.75,9.72,9.72,0,0,0-1.37-3.48,7.72,7.72,0,0,0-2.77-2.57,9.1,9.1,0,0,0-4.55-1,14.82,14.82,0,0,0-2.85.29,13.22,13.22,0,0,0-2.9.93,13.76,13.76,0,0,0-2.81,1.73,12.88,12.88,0,0,0-2.51,2.63V111a1.66,1.66,0,0,1-.35,1.22,1.69,1.69,0,0,1-1.22.35Z"></path><path class="cls-3" d="M871.17,92.62a1.15,1.15,0,0,1-1.3,1.31h-28.5a21.38,21.38,0,0,0,1,5.38,13.1,13.1,0,0,0,2.4,4.38,10.88,10.88,0,0,0,3.94,2.94,13.82,13.82,0,0,0,5.73,1.07,20,20,0,0,0,5.32-.72,14.48,14.48,0,0,0,4.7-2.24,1.87,1.87,0,0,1,1.2-.46c.31,0,.63.31,1,.81l1.4,2.09a1.77,1.77,0,0,1,.3,1.2,1.79,1.79,0,0,1-.74,1.06,16.75,16.75,0,0,1-6,3,26.53,26.53,0,0,1-7.23,1,21,21,0,0,1-9.15-1.81,17.25,17.25,0,0,1-6.19-4.81,19.48,19.48,0,0,1-3.51-6.93,29.75,29.75,0,0,1-1.11-8.15,30.34,30.34,0,0,1,1.13-8.32,20.85,20.85,0,0,1,3.44-7,16.91,16.91,0,0,1,5.82-4.79,18,18,0,0,1,8.26-1.79,17,17,0,0,1,8.45,1.94,16.82,16.82,0,0,1,5.6,5,20.68,20.68,0,0,1,3.12,6.84,30.6,30.6,0,0,1,.95,7.47Zm-6.71-3.74a23,23,0,0,0-1-5.25,14.19,14.19,0,0,0-2.2-4.32,10.65,10.65,0,0,0-3.46-2.94A10.26,10.26,0,0,0,853,75.28a10.54,10.54,0,0,0-4.75,1,10.14,10.14,0,0,0-3.48,2.83,13.69,13.69,0,0,0-2.27,4.31,24.53,24.53,0,0,0-1.09,5.43Z"></path><path class="cls-3" d="M883.11,112.58a1.31,1.31,0,0,1-1.57-1.57V72.32a1.31,1.31,0,0,1,1.57-1.57h3.23a1.3,1.3,0,0,1,1.56,1.57v3.92a25.18,25.18,0,0,1,2-2.26,14.05,14.05,0,0,1,2.55-2,13.17,13.17,0,0,1,7.32-2.05q.87,0,1.8.09a9.84,9.84,0,0,1,1.86.35,1.41,1.41,0,0,1,1.13,1.91l-.7,3.23a1.78,1.78,0,0,1-.59,1.11,1.62,1.62,0,0,1-1.24,0,13.21,13.21,0,0,0-3.66-.52,12.93,12.93,0,0,0-2.59.26,12,12,0,0,0-5.19,2.42,11.81,11.81,0,0,0-2.24,2.37V111a1.31,1.31,0,0,1-1.57,1.57Z"></path><path class="cls-3" d="M945.07,116.76a12,12,0,0,1-1.33,5.6,12.74,12.74,0,0,1-3.92,4.49,19.81,19.81,0,0,1-6.41,3,32.88,32.88,0,0,1-8.82,1.07,33.71,33.71,0,0,1-7.49-.76,18.44,18.44,0,0,1-5.73-2.25,11,11,0,0,1-3.68-3.61,9.1,9.1,0,0,1-1.31-4.88,8.48,8.48,0,0,1,1.89-5.65,12.73,12.73,0,0,1,5-3.5,6.88,6.88,0,0,1-2.76-2.16,5.74,5.74,0,0,1-1.07-3.59,6.72,6.72,0,0,1,.48-2.57,8,8,0,0,1,1.26-2.12,10.86,10.86,0,0,1,1.77-1.68,18.19,18.19,0,0,1,2-1.3,13.11,13.11,0,0,1-2.62-2.46,13.71,13.71,0,0,1-1.78-2.95,14.73,14.73,0,0,1-1-3.24,18.25,18.25,0,0,1-.32-3.38,17.63,17.63,0,0,1,.87-5.47,13.09,13.09,0,0,1,7.47-8.14,17.11,17.11,0,0,1,7-1.29,18.81,18.81,0,0,1,3.18.24,18,18,0,0,1,2.58.63H943a1.31,1.31,0,0,1,1.57,1.57V74.5a1.54,1.54,0,0,1-.4,1.22,1.72,1.72,0,0,1-1.17.35,28.56,28.56,0,0,1-3.49-.22,20.85,20.85,0,0,1-3.13-.57,11.22,11.22,0,0,1,3.15,4.19,13.23,13.23,0,0,1,.94,5.14,18,18,0,0,1-.85,5.51,12.89,12.89,0,0,1-2.72,4.77A13.45,13.45,0,0,1,932,98.24a18.78,18.78,0,0,1-7.32,1.27A19.53,19.53,0,0,1,918,98.46c-1.74,1.66-2.62,3.29-2.62,4.88a3.09,3.09,0,0,0,.16,1,1.69,1.69,0,0,0,.74.9,5.23,5.23,0,0,0,1.67.65,13.84,13.84,0,0,0,3,.26h10.55a21.53,21.53,0,0,1,5.31.63,12.7,12.7,0,0,1,4.31,1.94A9.53,9.53,0,0,1,944,112,10,10,0,0,1,945.07,116.76ZM913,118.51a7.39,7.39,0,0,0,.55,2.83,5.71,5.71,0,0,0,1.87,2.39,10,10,0,0,0,3.57,1.66,22,22,0,0,0,5.69.61,24.27,24.27,0,0,0,6.1-.68,13.19,13.19,0,0,0,4.22-1.83,7.59,7.59,0,0,0,2.47-2.7,7.18,7.18,0,0,0,.8-3.33,6.27,6.27,0,0,0-.41-2.27,4.7,4.7,0,0,0-1.37-1.83,7.11,7.11,0,0,0-2.53-1.22,14.8,14.8,0,0,0-3.88-.43H917.79a8.32,8.32,0,0,0-3.68,2.9A7,7,0,0,0,913,118.51Zm2.88-33.81a12.55,12.55,0,0,0,.59,4,9,9,0,0,0,1.72,3.14A7.82,7.82,0,0,0,921,93.89a10.41,10.41,0,0,0,7.71,0,7.91,7.91,0,0,0,2.81-2.07,9.18,9.18,0,0,0,1.72-3.14,13.62,13.62,0,0,0,0-7.93,9.28,9.28,0,0,0-1.72-3.14,8.08,8.08,0,0,0-2.81-2.09,10.16,10.16,0,0,0-7.71,0,8,8,0,0,0-2.81,2.09,9.11,9.11,0,0,0-1.72,3.14A12.49,12.49,0,0,0,915.88,84.7Z"></path><path class="cls-3" d="M965,111.71q-2.13-3.7-4.22-8.3c-1.4-3.07-2.72-6.28-4-9.63S954.38,87,953.3,83.54s-2-6.86-2.74-10.17a5.67,5.67,0,0,1-.18-.79,6.34,6.34,0,0,1-.08-.78,1,1,0,0,1,.28-.77,1.48,1.48,0,0,1,1-.28h3.84a2.1,2.1,0,0,1,1.28.31,1.7,1.7,0,0,1,.55,1.17q.83,4.27,2.09,8.74c.84,3,1.76,5.9,2.75,8.78s2,5.64,3.11,8.3,2.19,5.06,3.29,7.21q1.69-3.23,3.35-7.21T975,89.73q1.51-4.33,2.77-8.83t2.14-8.75a1.84,1.84,0,0,1,.52-1,1.92,1.92,0,0,1,1.31-.37H985c.87,0,1.31.32,1.31,1a2.68,2.68,0,0,1-.07.59c0,.22-.11.54-.19,1a109.94,109.94,0,0,1-3.14,12q-2,6.12-4.27,11.83-2.1,5.22-4.55,10.06a86.59,86.59,0,0,1-5.28,9,57,57,0,0,1-6,7.58,38.81,38.81,0,0,1-6.8,5.75,2,2,0,0,1-1.22.44,1.43,1.43,0,0,1-1.22-.7L952,127.13a1.75,1.75,0,0,1-.43-1,1.53,1.53,0,0,1,.87-1.22c1.33-1,2.55-1.94,3.64-2.86s2.13-1.88,3.13-2.89a38,38,0,0,0,2.92-3.32Q963.5,114,965,111.71Z"></path><path class="cls-3" d="M94.38,57c0-8.75,5.93-17.27,9.17-15.65,3.68,1.85-2.76,10.1-9.17,15.65M54,60.22c0-7,7-20.45,11.21-19C70.25,42.86,61.07,56.37,54,60.22Zm-7,50.39c-3.21.15-5.34-1.9-5.34-5.32,0-9.18,12.73-17.94,22.34-22.64C62.27,95.46,58,110.11,47,110.61Zm58.71-29.89c-7.25,0-12.81,5.34-12.81,11.74,0,5.34,3.2,9.61,7.48,9.61a2.74,2.74,0,0,0,3-2.78c0-2.77-3.68-3.45-3.39-7.6a5.2,5.2,0,0,1,5.32-4.57c5.12,0,7.52,5,7.52,10.09-.22,7.9-6,13.4-12.86,13.4-9,0-14.73-8.54-14.73-17.73,0-13.66,9-19,13.66-20.28,0,0,12.29,2.18,11.9-3.21-.17-2.37-3.69-3.28-6.25-3.38a17.39,17.39,0,0,0-5.69.91A7,7,0,0,1,95.66,63c8.76-6.62,15-13,15-20.28,0-3.85-2.57-7.27-7.48-7.27-8.75,0-15.37,11.11-15.37,21.14a18.27,18.27,0,0,0,.43,4.92A202.38,202.38,0,0,1,71,72.55a38.41,38.41,0,0,1,.83-6.47c2.56-2.77,6.08-6.93,6.08-10.13a2.52,2.52,0,0,0-2.57-2.78c-4.27,0-7.47,6.4-8.32,10.89-1.93,2.35-5.77,5.34-9,5.34-2.56,0-3.42-2.35-3.63-3.2C62.56,63.42,72.6,52.31,72.6,42.28c0-2.14-.86-6.84-7.26-6.84-9.61,0-17.72,14.31-17.72,25.42-3.42,0-4.7-3.64-4.7-6.41S44,48.9,44,48a1.73,1.73,0,0,0-1.71-1.92c-3.21,0-5.13,4.27-5.13,9.18.22,6.84,4.7,11.11,10.68,11.53.85,4.06,4.49,7.9,9,7.9a13.06,13.06,0,0,0,8.54-3c-.22,1.49-.43,2.77-.64,4-9.4,4.92-16.23,8.33-22.42,13.88-4.91,4.49-7.69,10.46-7.69,15.16,0,6.41,4.06,12.38,12.39,12.38,9.82,0,17.29-7.89,20.92-18.79,1.71-5.12,2.39-12.58,2.82-19.41a195.13,195.13,0,0,0,19.6-12.4,8.56,8.56,0,0,0,2.14,2.56C88,71.53,77.3,78.15,77.3,93.74c0,11.1,7.47,23.48,22.2,23.48,12.17,0,20.51-10,20.51-19.64C120,88.83,115.09,80.72,105.69,80.72Zm36.72,18.34c0,.06-.16.16-.4.08s-.24-.16-.23-.28a58.46,58.46,0,0,0,2.56-16.44c0-9.39-3.84-15.16-8.75-15.16a5,5,0,0,0-5.12,5.34c0,5.77,7,6.19,7,18.8a49.79,49.79,0,0,1-2.77,15.37c-7.91,26.69-33.1,39.07-57.65,39.07-11.32,0-19.37-2.33-21.76-3.4a.35.35,0,0,1-.1-.43c.05-.15.22-.25.31-.21A53.52,53.52,0,0,0,72,144.35c9.4,0,15-3.84,15-8.55a5.29,5.29,0,0,0-5.34-5.33c-5.77,0-6.2,7.25-18.58,7.25-5.34,0-10-1.06-15.59-2.77-26.48-8.11-39.09-33.1-39.07-57.87a71.62,71.62,0,0,1,3.44-21.76.34.34,0,0,1,.38-.06c.19.06.25.23.23.28A56,56,0,0,0,9.82,72c0,9.4,3.84,15,8.75,15a5.06,5.06,0,0,0,5.13-5.13c0-5.76-7-6.4-7-18.79,0-5.34,1.07-10,2.78-15.59C27.54,20.93,52.53,8.52,77.09,8.33,88.5,8.24,98.49,11.66,98.86,12a.33.33,0,0,1,.07.38c-.08.2-.21.22-.28.21A47.56,47.56,0,0,0,82.2,9.82c-9.17,0-14.94,3.84-14.94,8.76A5.11,5.11,0,0,0,72.6,23.7c5.77,0,6.2-7,18.57-7,5.34,0,10,1.07,15.59,2.78,26.7,8.11,38.85,33.31,39.08,57.65A67.32,67.32,0,0,1,142.41,99.06ZM77.09,3.63a73.46,73.46,0,1,0,73.44,73.45A73.46,73.46,0,0,0,77.09,3.63Zm0,150.54a77.09,77.09,0,1,1,77.08-77.09A77.05,77.05,0,0,1,77.09,154.17Z"></path></svg>