<svg xmlns="http://www.w3.org/2000/svg" xmlns:xlink="http://www.w3.org/1999/xlink" id="Layer_1" data-name="Layer 1" viewBox="0 0 1978 518.25"><defs><style>      .cls-1 {        fill: url(#New_Pattern_12);      }      .cls-1, .cls-2, .cls-3 {        stroke-width: 0px;      }      .cls-4 {        stroke: #00a99d;        stroke-miterlimit: 10;        stroke-width: 3px;      }      .cls-4, .cls-2 {        fill: none;      }      .cls-3 {        fill: #00a99d;      }    </style><pattern id="New_Pattern_12" data-name="New Pattern 12" x="0" y="0" width="220" height="340" patternTransform="translate(3 -2798)" patternUnits="userSpaceOnUse" viewBox="0 0 220 340"><g><rect class="cls-2" width="220" height="340"></rect><g><path class="cls-3" d="M167.69,334.18v12c-.84.73-1.89,1.13-3,1.13s-2.17-.4-3.01-1.13v-12h6.01Z"></path><path class="cls-3" d="M203.76,310.13l-35.83,35.83c-.08.08-.16.15-.25.22-.84.73-1.89,1.13-3,1.13s-2.17-.4-3.01-1.13c-.08-.07-.16-.14-.24-.22l-35.83-35.83c-.87-.86-1.35-2.02-1.35-3.25s.48-2.38,1.35-3.25l35.83-35.83c.86-.86,2.02-1.34,3.25-1.34s2.38.48,3.25,1.34l35.83,35.83c1.79,1.79,1.79,4.71,0,6.5ZM151.51,300.22c2.44,2.45,5.95,3.33,9.95,1.78,4-1.46,7.74-2.61,10.55-1.91,2.81.43,4.68,2.72,4.96,1.92.28-.35-1.09-4.21-3.53-6.49-2.44-2.45-5.95-3.33-9.95-1.78-4,1.46-7.74,2.61-10.54,1.91-2.81-.43-4.68-2.71-4.96-1.92-.28.36,1.09,4.21,3.53,6.49ZM153.85,309.23c2.44,2.45,5.95,3.33,9.95,1.78,4-1.46,7.74-2.61,10.55-1.91,2.81.43,4.68,2.71,4.96,1.92.28-.35-1.09-4.21-3.52-6.48-2.44-2.45-5.95-3.33-9.95-1.78-4,1.46-7.74,2.61-10.54,1.91-2.81-.43-4.68-2.72-4.96-1.92-.28.36,1.09,4.21,3.53,6.49ZM177.85,313.55c-2.44-2.45-5.95-3.33-9.95-1.78-4,1.46-7.74,2.61-10.55,1.91-2.81-.43-4.68-2.71-4.96-1.92-.28.35,1.09,4.21,3.52,6.48,2.44,2.45,5.95,3.33,9.95,1.78,4-1.46,7.74-2.61,10.54-1.91,2.81.43,4.68,2.71,4.96,1.92.28-.35-1.09-4.21-3.53-6.49Z"></path></g><g><g><path class="cls-3" d="M67.76,311.02c-.28.8-2.16-1.49-4.96-1.92-2.81-.7-6.54.46-10.55,1.91-4,1.55-7.51.67-9.95-1.78-2.44-2.28-3.81-6.13-3.53-6.49.28-.8,2.16,1.49,4.96,1.92,2.81.7,6.54-.46,10.54-1.91,4-1.55,7.51-.67,9.95,1.78,2.44,2.28,3.8,6.13,3.52,6.48"></path><path class="cls-3" d="M69.83,320.03c-.28.8-2.16-1.49-4.96-1.92-2.81-.7-6.54.46-10.54,1.91-4,1.55-7.51.67-9.95-1.78-2.44-2.28-3.81-6.13-3.52-6.48.28-.8,2.16,1.49,4.96,1.92,2.81.7,6.54-.46,10.55-1.91,4-1.55,7.51-.67,9.95,1.78,2.44,2.28,3.81,6.13,3.53,6.49"></path><path class="cls-3" d="M65.43,302.01c-.28.8-2.16-1.49-4.96-1.92-2.81-.7-6.54.46-10.55,1.91-4,1.55-7.51.67-9.95-1.78-2.44-2.28-3.81-6.13-3.53-6.49.28-.8,2.16,1.49,4.96,1.92,2.81.7,6.54-.46,10.54-1.91,4-1.55,7.51-.67,9.95,1.78,2.44,2.28,3.81,6.13,3.53,6.49"></path></g><path class="cls-4" d="M92.99,310.9l-35.83,35.83c-2.22,2.22-5.82,2.22-8.04,0l-35.83-35.83c-2.22-2.22-2.22-5.82,0-8.04l35.83-35.83c2.22-2.22,5.82-2.22,8.04,0l35.83,35.83c2.22,2.22,2.22,5.82,0,8.04Z"></path></g><g><g><g><path class="cls-3" d="M177.76,141.02c-.28.8-2.16-1.49-4.96-1.92-2.81-.7-6.54.46-10.55,1.91-4,1.55-7.51.67-9.95-1.78-2.44-2.28-3.81-6.13-3.53-6.49.28-.8,2.16,1.49,4.96,1.92,2.81.7,6.54-.46,10.54-1.91,4-1.55,7.51-.67,9.95,1.78,2.44,2.28,3.8,6.13,3.52,6.48"></path><path class="cls-3" d="M179.83,150.03c-.28.8-2.16-1.49-4.96-1.92-2.81-.7-6.54.46-10.54,1.91-4,1.55-7.51.67-9.95-1.78-2.44-2.28-3.81-6.13-3.52-6.48.28-.8,2.16,1.49,4.96,1.92,2.81.7,6.54-.46,10.55-1.91,4-1.55,7.51-.67,9.95,1.78,2.44,2.28,3.81,6.13,3.53,6.49"></path><path class="cls-3" d="M175.43,132.01c-.28.8-2.16-1.49-4.96-1.92-2.81-.7-6.54.46-10.55,1.91-4,1.55-7.51.67-9.95-1.78-2.44-2.28-3.81-6.13-3.53-6.49.28-.8,2.16,1.49,4.96,1.92,2.81.7,6.54-.46,10.54-1.91,4-1.55,7.51-.67,9.95,1.78,2.44,2.28,3.81,6.13,3.53,6.49"></path></g><path class="cls-4" d="M202.99,140.9l-35.83,35.83c-2.22,2.22-5.82,2.22-8.04,0l-35.83-35.83c-2.22-2.22-2.22-5.82,0-8.04l35.83-35.83c2.22-2.22,5.82-2.22,8.04,0l35.83,35.83c2.22,2.22,2.22,5.82,0,8.04Z"></path></g><path class="cls-3" d="M57.69,164.18v12c-.84.73-1.89,1.13-3,1.13s-2.17-.4-3.01-1.13v-12h6.01Z"></path><path class="cls-3" d="M54.69,179.49c1.06,0,2.08-.24,3-.7v65.84h-6.01v-65.85c.92.47,1.95.7,3.01.7Z"></path><polyline class="cls-4" points="166.14 177.54 166.14 244.63 160.14 244.63 160.14 177.54"></polyline><path class="cls-3" d="M93.76,140.13l-35.83,35.83c-.08.08-.16.15-.25.22-.84.73-1.89,1.13-3,1.13s-2.17-.4-3.01-1.13c-.08-.07-.16-.14-.24-.22l-35.83-35.83c-.87-.86-1.35-2.02-1.35-3.25s.48-2.38,1.35-3.25l35.83-35.83c.86-.86,2.02-1.34,3.25-1.34s2.38.48,3.25,1.34l35.83,35.83c1.79,1.79,1.79,4.71,0,6.5ZM41.51,130.22c2.44,2.45,5.95,3.33,9.95,1.78,4-1.46,7.74-2.61,10.55-1.91,2.81.43,4.68,2.72,4.96,1.92.28-.35-1.09-4.21-3.53-6.49-2.44-2.45-5.95-3.33-9.95-1.78-4,1.46-7.74,2.61-10.54,1.91-2.81-.43-4.68-2.71-4.96-1.92-.28.36,1.09,4.21,3.53,6.49ZM43.85,139.23c2.44,2.45,5.95,3.33,9.95,1.78,4-1.46,7.74-2.61,10.55-1.91,2.81.43,4.68,2.71,4.96,1.92.28-.35-1.09-4.21-3.52-6.48-2.44-2.45-5.95-3.33-9.95-1.78-4,1.46-7.74,2.61-10.54,1.91-2.81-.43-4.68-2.72-4.96-1.92-.28.36,1.09,4.21,3.53,6.49ZM67.85,143.55c-2.44-2.45-5.95-3.33-9.95-1.78-4,1.46-7.74,2.61-10.55,1.91-2.81-.43-4.68-2.71-4.96-1.92-.28.35,1.09,4.21,3.52,6.48,2.44,2.45,5.95,3.33,9.95,1.78,4-1.46,7.74-2.61,10.54-1.91,2.81.43,4.68,2.71,4.96,1.92.28-.35-1.09-4.21-3.53-6.49Z"></path></g><g><path class="cls-3" d="M167.69-5.82V6.18c-.84.73-1.89,1.13-3,1.13s-2.17-.4-3.01-1.13V-5.82h6.01Z"></path><path class="cls-3" d="M164.69,9.49c1.06,0,2.08-.24,3-.7v65.84h-6.01V8.78c.92.47,1.95.7,3.01.7Z"></path><path class="cls-3" d="M203.76-29.87L167.93,5.96c-.08.08-.16.15-.25.22-.84.73-1.89,1.13-3,1.13s-2.17-.4-3.01-1.13c-.08-.07-.16-.14-.24-.22l-35.83-35.83c-.87-.86-1.35-2.02-1.35-3.25s.48-2.38,1.35-3.25l35.83-35.83c.86-.86,2.02-1.34,3.25-1.34s2.38.48,3.25,1.34l35.83,35.83c1.79,1.79,1.79,4.71,0,6.5ZM151.51-39.78c2.44,2.45,5.95,3.33,9.95,1.78,4-1.46,7.74-2.61,10.55-1.91,2.81.43,4.68,2.72,4.96,1.92.28-.35-1.09-4.21-3.53-6.49-2.44-2.45-5.95-3.33-9.95-1.78-4,1.46-7.74,2.61-10.54,1.91-2.81-.43-4.68-2.71-4.96-1.92-.28.36,1.09,4.21,3.53,6.49ZM153.85-30.77c2.44,2.45,5.95,3.33,9.95,1.78,4-1.46,7.74-2.61,10.55-1.91,2.81.43,4.68,2.71,4.96,1.92.28-.35-1.09-4.21-3.52-6.48-2.44-2.45-5.95-3.33-9.95-1.78-4,1.46-7.74,2.61-10.54,1.91-2.81-.43-4.68-2.72-4.96-1.92-.28.36,1.09,4.21,3.53,6.49ZM177.85-26.45c-2.44-2.45-5.95-3.33-9.95-1.78-4,1.46-7.74,2.61-10.55,1.91-2.81-.43-4.68-2.71-4.96-1.92-.28.35,1.09,4.21,3.52,6.48,2.44,2.45,5.95,3.33,9.95,1.78,4-1.46,7.74-2.61,10.54-1.91,2.81.43,4.68,2.71,4.96,1.92.28-.35-1.09-4.21-3.53-6.49Z"></path></g><g><path class="cls-4" d="M92.99-29.1L57.16,6.73c-2.22,2.22-5.82,2.22-8.04,0L13.29-29.1c-2.22-2.22-2.22-5.82,0-8.04l35.83-35.83c2.22-2.22,5.82-2.22,8.04,0l35.83,35.83c2.22,2.22,2.22,5.82,0,8.04Z"></path><polyline class="cls-4" points="56.14 7.54 56.14 74.63 50.14 74.63 50.14 7.54"></polyline></g></g></pattern></defs><rect class="cls-1" x="-1.5" width="1980.5" height="518"></rect></svg>