<svg id="Layer_1" data-name="Layer 1" xmlns="http://www.w3.org/2000/svg" viewBox="0 0 200 200"><defs><style>.cls-1{fill:#3f4f76;}</style></defs><path class="cls-1" d="M178.71,53.82h-53V65.46a8.06,8.06,0,0,1-8,8H82.33a8.06,8.06,0,0,1-8-8V53.82h-53A17.82,17.82,0,0,0,3.62,71.49v92a17.82,17.82,0,0,0,17.67,17.67H178.71a17.82,17.82,0,0,0,17.67-17.67v-92A17.82,17.82,0,0,0,178.71,53.82Zm-91.56,108H31.33a8.23,8.23,0,0,1-8.43-8.43c.4-13.25-1.21-18.07,5.22-22.49,2.41-2,5.22-2.41,15.26-6h0L47,123.69h0l3.22-4.82v-2.81c-4-2.81-3.22-6.82-3.62-7.23v-.4c-2,0-2.41-2.41-2.41-4-.4-1.61-1.2-3.62-.8-5.62.4-.81.8-.81,1.2-.41q-.6-3-1.2-7.22c-1.21-7.63,2.81-15.26,12.85-17.27,10-2.41,12.85,3.61,12.85,3.61,8.43-1.6,7.63,12,5.62,20.48.4,0,.4,0,.4.4.81,2-.4,4-.8,5.63s-.4,4-2.41,4a9.69,9.69,0,0,1-2.81,6.83v3.21l2.81,4.82h0c.4,0,13.65,4.82,14.46,5.22.4.4,7.22,2,8.83,8.43.4.81.4,9.24.4,16.07C95.58,157.83,91.57,161.84,87.15,161.84Zm89.95-38.55H114.46V112.05H177.1Zm0-26.1H114.46V86H177.1Z"/><path class="cls-1" d="M82.33,69.48h35.34a4,4,0,0,0,4-4V22.9a4,4,0,0,0-4-4H82.33a3.79,3.79,0,0,0-4,4V65.46A4.31,4.31,0,0,0,82.33,69.48ZM100,27.72a8.47,8.47,0,0,1,8.43,8.43A8.23,8.23,0,0,1,100,44.58a8.43,8.43,0,0,1,0-16.86Z"/></svg>