<?xml version="1.0" encoding="UTF-8"?>
<svg id="Layer_1" xmlns="http://www.w3.org/2000/svg" version="1.1" viewBox="0 0 1080 1080">
  <!-- Generator: Adobe Illustrator 29.7.1, SVG Export Plug-In . SVG Version: 2.1.1 Build 8)  -->
  <defs>
    <style>
      .st0 {
        fill: #fff;
      }
    </style>
  </defs>
  <path class="st0" d="M1080,0v1080H0V0h1080ZM344.9,46.4c-29.5,4-67.6-3-98.1,0l.2,370c6.6,19.7,11.7,76.4,30.3,87.9,5.8,3.5,12.6.9,18.1,7.2,16.7,18.8-6,42.2-12.2,59.6s-10,52.7-25.7,67.1c-4.4,4-13.5,4.5-15.9,9.4s-3,16.3-5.8,23.7c-4.6,12.1-13.9,22.2-12.1,36.2,2.9,22.3,24.1,7,35.8,23.4,15.2,21.3-14.8,33.4-14.8,44.3v260.5h611.7v-348c0-.7-7.6-2.7-11.5-8.5s-6-18.1-11.7-24.2c-12.7-13.5-30.2,2.9-27.5,18-11.4-3.7-23.4,5.7-32.6,6s-16.8-4.1-25.3-3.9c-14.4.3-27.9,9.4-38.3,10.6s-15.9-3.2-25.2-2.1c-9.2,1-14.8,8.9-24.8,6-16.4-4.8-2.9-46.8-23.8-50s-17.5,2.7-22.6-9.2,5.4-15,2.2-25.4c-1.4-4.5-22.3-22.5-28.1-35.2-6.7-14.7-6-37.7-12.5-46.6-18.1-24.6-51.1,27.6-66.7,5.5-3.5-4.9-1.4-23.7.6-29.3s9.8-5.3,10.3-15.1c.6-10.7-11.3-20.9-10.8-35.7.4-10.9,18.3-69.3,14.8-72.9-9.9,0-18.6,1-28-2.5s-34.8-24.5-38.3-29.2c-10.1-13.6-16.6-31.1-28.6-45.3s-27.3-26.3-46.4-30.6c3.1-13.3,3.3-24.2-2.1-36.9-9.1-21.3-30.1-21-31.5-50.9-1.5-31.5,4.3-64.7,1.9-98.8s-5.7-25-2.1-36.9c-.8-1-2.5,2-3.1,2.1Z"/>
  <path d="M344.9,46.4c.6,0,2.3-3.1,3.1-2.1-3.6,11.9,1.2,24.8,2.1,36.9,2.4,34.1-3.4,67.3-1.9,98.8,1.4,29.9,22.5,29.6,31.5,50.9,5.4,12.7,5.2,23.6,2.1,36.9,19.1,4.4,34,16,46.4,30.6s18.4,31.6,28.6,45.3,33,27.2,38.3,29.2c9.5,3.6,18.1,2.6,28,2.5,3.5,3.6-14.5,62-14.8,72.9-.5,14.8,11.4,25,10.8,35.7-.6,9.9-9,11.5-10.3,15.1-2,5.6-4,24.4-.6,29.3,15.6,22,48.6-30.1,66.7-5.5s5.8,31.9,12.5,46.6c5.8,12.7,26.8,30.7,28.1,35.2,3.1,10.4-6.6,15.1-2.2,25.4s13.3,7.8,22.6,9.2c20.8,3.2,7.4,45.2,23.8,50,10,2.9,15.6-4.9,24.8-6,9.2-1,17.6,3,25.2,2.1s23.9-10.2,38.3-10.6c8.5-.2,18,4.2,25.3,3.9s21.2-9.6,32.6-6c-2.7-15.1,14.8-31.5,27.5-18s7.2,17.5,11.7,24.2,11.5,7.8,11.5,8.5v348H244.7v-260.5c0-10.9,29.9-23,14.8-44.3-11.7-16.4-32.9-1-35.8-23.4s7.5-24.1,12.1-36.2c2.8-7.4,3.6-19.2,5.8-23.7s11.5-5.4,15.9-9.4c15.7-14.4,19-48.3,25.7-67.1s28.9-40.8,12.2-59.6-12.4-3.6-18.1-7.2c-18.6-11.4-23.7-68.1-30.3-87.9l-.2-370c30.5-3,68.6,4,98.1,0Z"/>
</svg>