<svg xmlns="http://www.w3.org/2000/svg" id="Layer_1" data-name="Layer 1" viewBox="0 0 677.76 103.62"><defs><style>.cls-1{fill:#00844a;}</style></defs><path class="cls-1" d="M116.71,67.21c-1,3-8-5.54-18.48-7.14-10.45-2.6-24.36,1.7-39.25,7.12-14.9,5.77-28,2.5-37-6.64C12.87,52.07,7.77,37.73,8.82,36.41c1-3,8,5.54,18.48,7.14,10.44,2.6,24.35-1.7,39.25-7.12,14.9-5.77,28-2.5,37,6.64,9.07,8.48,14.16,22.82,13.12,24.14"></path><path class="cls-1" d="M124.42,100.76c-1,3-8-5.53-18.48-7.13-10.45-2.6-24.36,1.7-39.25,7.12-14.9,5.77-28,2.5-37-6.63C20.57,85.64,15.48,71.29,16.53,70c1-3,8,5.54,18.47,7.13C45.45,79.71,59.36,75.41,74.26,70c14.89-5.76,28-2.49,37,6.64,9.08,8.48,14.17,22.82,13.13,24.14"></path><path class="cls-1" d="M108,33.65c-1,3-8-5.53-18.48-7.13-10.45-2.61-24.36,1.69-39.26,7.11-14.89,5.77-27.95,2.5-37-6.63C4.18,18.52-.91,4.18.13,2.86c1-3,8,5.53,18.48,7.13C29.06,12.6,43,8.3,57.87,2.87c14.89-5.76,28-2.49,37,6.64C104,18,109.07,32.34,108,33.65"></path><polygon class="cls-1" points="248.74 99.44 255.22 99.44 255.22 88.23 264.36 88.23 264.36 82.61 255.22 82.61 255.22 76.62 266.76 76.62 266.76 70.96 248.74 70.96 248.74 99.44"></polygon><polygon class="cls-1" points="290.11 88.32 300.45 88.32 300.45 82.49 290.11 82.49 290.11 76.62 301.89 76.62 301.89 70.96 283.62 70.96 283.62 99.44 302.26 99.44 302.26 93.77 290.11 93.77 290.11 88.32"></polygon><polygon class="cls-1" points="317.32 76.62 324.84 76.62 324.84 99.44 331.33 99.44 331.33 76.62 338.86 76.62 338.86 70.96 317.32 70.96 317.32 76.62"></polygon><path class="cls-1" d="M184.73,82.61l-3-1c-2.65-.74-2.81-2-2.81-2.6a3.09,3.09,0,0,1,3.35-2.94,3,3,0,0,1,3.26,3.14H192c0-5.53-4.17-8.8-9.63-8.8-5.66,0-10,3.6-10,8.72,0,2.69,1.2,6.53,7.48,8.23l3.39,1c2.52.83,3.14,1.86,3.14,3,0,1.86-1.61,2.93-3.72,2.93s-4-1.4-4-3.22h-6.49c0,5.25,4.22,8.8,10.29,8.8,5.21,0,10.5-2.73,10.5-8.84,0-5.17-4.13-7.24-8.18-8.48"></path><path class="cls-1" d="M217.86,87.2l3.19-10,3.22,10ZM217.57,71,207,99.44H214l2.11-6.62h10l2.15,6.62h6.9L224.64,71Z"></path><path class="cls-1" d="M579,76.58a7.56,7.56,0,0,1,6.66,3.72l5-3.52a14.49,14.49,0,0,0-26.45,8.35,14.66,14.66,0,0,0,14.46,14.8,14.49,14.49,0,0,0,12-6.32l-5-3.51a7.59,7.59,0,0,1-6.7,3.71c-4.88,0-8.18-4-8.18-8.68A8.24,8.24,0,0,1,579,76.58"></path><rect class="cls-1" x="607.5" y="70.96" width="6.49" height="28.48"></rect><polygon class="cls-1" points="544.45 87.12 535.36 70.96 529.41 70.96 529.41 99.44 535.9 99.44 535.9 83.07 545.24 99.44 550.94 99.44 550.94 70.96 544.45 70.96 544.45 87.12"></polygon><polygon class="cls-1" points="637.6 70.96 631.11 70.96 631.11 99.44 648.06 99.44 648.06 93.77 637.6 93.77 637.6 70.96"></polygon><path class="cls-1" d="M422.53,76.58a7.56,7.56,0,0,1,6.66,3.72l5-3.52a14.49,14.49,0,0,0-26.45,8.35,14.66,14.66,0,0,0,14.46,14.8,14.49,14.49,0,0,0,12-6.32l-5-3.51a7.59,7.59,0,0,1-6.7,3.71c-4.88,0-8.18-4-8.18-8.68a8.24,8.24,0,0,1,8.22-8.55"></path><path class="cls-1" d="M505.1,88.77c0,3.6-2.27,5-4.59,5s-4.63-1.4-4.63-5V71H489.4V89.27c0,6.57,5.25,10.66,11.11,10.66s11.08-4.09,11.08-10.66V71H505.1Z"></path><polygon class="cls-1" points="364.12 81.46 357.55 70.96 349.82 70.96 360.9 86.58 360.9 99.44 367.43 99.44 367.43 86.7 378.55 70.96 370.82 70.96 364.12 81.46"></polygon><path class="cls-1" d="M461.29,93.81c-4.8,0-8-3.88-8-8.63s3.18-8.6,8-8.6,8,3.84,8,8.6-3.27,8.63-8,8.63m0-23.35a14.74,14.74,0,1,0,14.51,14.72,14.61,14.61,0,0,0-14.51-14.72"></path><path class="cls-1" d="M144.25,52.34a1.78,1.78,0,0,1-1.28-.55,1.76,1.76,0,0,1-.55-1.28V6.29A1.74,1.74,0,0,1,143,5a1.74,1.74,0,0,1,1.28-.55h35.6a1.73,1.73,0,0,1,1.28.55,1.74,1.74,0,0,1,.55,1.28v8.92a1.8,1.8,0,0,1-.55,1.34,1.73,1.73,0,0,1-1.28.55H159.33V22h17.53a1.88,1.88,0,0,1,1.83,1.83v8.79a1.83,1.83,0,0,1-.55,1.35,1.76,1.76,0,0,1-1.28.55l-17.53.06V39.7H181.5a1.7,1.7,0,0,1,1.31.55,1.85,1.85,0,0,1,.52,1.34v8.92a1.81,1.81,0,0,1-.52,1.28,1.73,1.73,0,0,1-1.31.55Z"></path><path class="cls-1" d="M244.4,4.4a1.79,1.79,0,0,1,1.71,2.69L223.88,52a1.92,1.92,0,0,1-.76.73,1.86,1.86,0,0,1-1,.31h-8a1.86,1.86,0,0,1-1-.34,1.73,1.73,0,0,1-.74-.76L190.42,7a1.73,1.73,0,0,1,.06-1.84,1.9,1.9,0,0,1,1.65-.79H206a1.79,1.79,0,0,1,1,.31,1.91,1.91,0,0,1,.73.79l11.05,23.69L229.38,5.5a1.79,1.79,0,0,1,.7-.76,1.82,1.82,0,0,1,1-.34Z"></path><path class="cls-1" d="M257.11,52.34a1.88,1.88,0,0,1-1.83-1.83V6.29A1.74,1.74,0,0,1,255.83,5a1.73,1.73,0,0,1,1.28-.55h35.6A1.73,1.73,0,0,1,294,5a1.74,1.74,0,0,1,.55,1.28v8.92a1.8,1.8,0,0,1-.55,1.34,1.73,1.73,0,0,1-1.28.55H272.19V22h17.53a1.88,1.88,0,0,1,1.83,1.83v8.79A1.83,1.83,0,0,1,291,34a1.76,1.76,0,0,1-1.28.55l-17.53.06V39.7h22.17a1.7,1.7,0,0,1,1.31.55,1.85,1.85,0,0,1,.52,1.34v8.92a1.81,1.81,0,0,1-.52,1.28,1.73,1.73,0,0,1-1.31.55Z"></path><path class="cls-1" d="M392.05,29.58a11.13,11.13,0,0,0,3.84,8.91q3.92,3.3,10.81,3.3a24.06,24.06,0,0,0,8.37-1.1v-3h-6.41a1.88,1.88,0,0,1-1.9-1.89V27.63a1.77,1.77,0,0,1,.55-1.32,1.93,1.93,0,0,1,1.35-.52H428.2a1.91,1.91,0,0,1,1.34.52,1.74,1.74,0,0,1,.55,1.32V49.06a1.72,1.72,0,0,1-.4,1.07,2,2,0,0,1-.94.7,66.49,66.49,0,0,1-10.17,2.26,83.77,83.77,0,0,1-12.37.85q-15.07,0-23.08-5.83t-8-18q0-11.91,8.24-18.87t21.56-6.84a74.69,74.69,0,0,1,11.66.82A63.42,63.42,0,0,1,425,7.05a1.71,1.71,0,0,1,.89.58,1.78,1.78,0,0,1,.45.94l1,8.49a1.82,1.82,0,0,1-.61,1.68,1.77,1.77,0,0,1-1.77.34q-3.3-1-7.94-1.9c-1.5-.28-3-.51-4.55-.67a44.2,44.2,0,0,0-4.61-.24q-7.2,0-11.6,3.66a12.16,12.16,0,0,0-4.21,9.65"></path><path class="cls-1" d="M515.22,52.34a1.88,1.88,0,0,1-1.83-1.83V6.29A1.74,1.74,0,0,1,513.94,5a1.73,1.73,0,0,1,1.28-.55h35.6A1.73,1.73,0,0,1,552.1,5a1.74,1.74,0,0,1,.55,1.28v8.92a1.8,1.8,0,0,1-.55,1.34,1.73,1.73,0,0,1-1.28.55H530.3V22h17.53a1.88,1.88,0,0,1,1.83,1.83v8.79a1.83,1.83,0,0,1-.55,1.35,1.78,1.78,0,0,1-1.28.55l-17.53.06V39.7h22.17a1.7,1.7,0,0,1,1.31.55,1.85,1.85,0,0,1,.52,1.34v8.92a1.81,1.81,0,0,1-.52,1.28,1.73,1.73,0,0,1-1.31.55Z"></path><path class="cls-1" d="M572.56,52.34a1.9,1.9,0,0,1-1.84-1.83V6.29A1.75,1.75,0,0,1,571.28,5a1.73,1.73,0,0,1,1.28-.55h35.6a1.74,1.74,0,0,1,1.28.55A1.74,1.74,0,0,1,610,6.29v8.92a1.8,1.8,0,0,1-.55,1.34,1.74,1.74,0,0,1-1.28.55H587.64V22h17.53a1.74,1.74,0,0,1,1.28.55,1.76,1.76,0,0,1,.55,1.28v8.79a1.87,1.87,0,0,1-.55,1.35,1.78,1.78,0,0,1-1.28.55l-17.53.06V39.7h22.17a1.71,1.71,0,0,1,1.31.55,1.85,1.85,0,0,1,.52,1.34v8.92a1.81,1.81,0,0,1-.52,1.28,1.75,1.75,0,0,1-1.31.55Z"></path><path class="cls-1" d="M655.11,19.3c1.17,1.55,2.34,3.11,3.48,4.67s2.3,3.17,3.48,4.8V6.29A1.74,1.74,0,0,1,662.62,5,1.8,1.8,0,0,1,664,4.46h11.91a1.8,1.8,0,0,1,1.34.55,1.74,1.74,0,0,1,.55,1.28V50.51a1.76,1.76,0,0,1-.55,1.28,1.83,1.83,0,0,1-1.34.55H662.19a1.94,1.94,0,0,1-.79-.22,1.84,1.84,0,0,1-.74-.52L643.44,28.4V50.51a1.76,1.76,0,0,1-.55,1.28,1.85,1.85,0,0,1-1.34.55H629.64a1.88,1.88,0,0,1-1.83-1.83V6.29A1.74,1.74,0,0,1,628.36,5a1.73,1.73,0,0,1,1.28-.55H643.2a2,2,0,0,1,.88.25,1.15,1.15,0,0,1,.64.54q2.68,3.68,5.23,7.12t5.16,6.93"></path><path class="cls-1" d="M477.74,23.09a17.19,17.19,0,0,1-6.76,1h-7.32V15.05h9.51a10.29,10.29,0,0,1,5.12,1,3.53,3.53,0,0,1,1.77,3.29,3.73,3.73,0,0,1-2.32,3.72m23.6,26.44L493.91,37a17,17,0,0,0-3.2-4l0,0a16.28,16.28,0,0,0-3.33-2.26,22.24,22.24,0,0,0,3-1.25,16.07,16.07,0,0,0,2.41-1.5Q497,24.87,497,17.9a11.81,11.81,0,0,0-5.13-10q-4.75-3.48-12.64-3.48H448.58A1.76,1.76,0,0,0,447.3,5a1.77,1.77,0,0,0-.56,1.28V50.51a1.9,1.9,0,0,0,1.84,1.83h13.55a1.87,1.87,0,0,0,1.35-.55,1.8,1.8,0,0,0,.55-1.28V35.42H470c2.2,0,3.46.12,3.79.37a2.56,2.56,0,0,1,.58.49c.18.2.35.4.52.61l-.07-.12,7.82,14.53a2.21,2.21,0,0,0,.7.73,1.65,1.65,0,0,0,.95.31h15.51a1.81,1.81,0,0,0,1.68-.89,1.79,1.79,0,0,0-.09-1.92"></path><path class="cls-1" d="M342.68,23.09a17.19,17.19,0,0,1-6.76,1H328.6V15.05h9.51a10.29,10.29,0,0,1,5.12,1A3.53,3.53,0,0,1,345,19.37a3.73,3.73,0,0,1-2.32,3.72m23.6,26.44L358.85,37a17,17,0,0,0-3.2-4l0,0a16.28,16.28,0,0,0-3.33-2.26,22.24,22.24,0,0,0,3-1.25,16.07,16.07,0,0,0,2.41-1.5q4.22-3.11,4.21-10.07a11.81,11.81,0,0,0-5.13-10q-4.76-3.48-12.64-3.48H313.52a1.76,1.76,0,0,0-1.28.55,1.76,1.76,0,0,0-.55,1.28V50.51a1.88,1.88,0,0,0,1.83,1.83h13.55a1.87,1.87,0,0,0,1.35-.55,1.8,1.8,0,0,0,.55-1.28V35.42h5.92c2.2,0,3.46.12,3.79.37a2.56,2.56,0,0,1,.58.49c.18.2.35.4.52.61l-.07-.12,7.82,14.53a2.21,2.21,0,0,0,.7.73,1.65,1.65,0,0,0,.95.31h15.51a1.81,1.81,0,0,0,1.68-.89,1.79,1.79,0,0,0-.09-1.92"></path></svg>