<?xml version="1.0" encoding="UTF-8"?>
<svg id="Layer_1" xmlns="http://www.w3.org/2000/svg" version="1.1" viewBox="0 0 1080 1080">
  <!-- Generator: Adobe Illustrator 29.7.1, SVG Export Plug-In . SVG Version: 2.1.1 Build 8)  -->
  <defs>
    <style>
      .st0 {
        fill: #252a2e;
      }

      .st1 {
        fill: #fff;
      }

      .st2 {
        fill: #bbd154;
      }

      .st3 {
        fill: #3a9d69;
      }

      .st4 {
        fill: #cb2127;
      }
    </style>
  </defs>
  <path class="st3" d="M1080,359.8v316.9H351v-319.7c0-69.5,56.3-125.8,125.9-125.8h474.5c71,0,128.6,57.6,128.6,128.6Z"/>
  <polygon class="st2" points="1080 439 1080 550.4 592.4 641.5 579.3 527.2 1080 439"/>
  <path class="st0" d="M397.2,231.2h174c26.5,0,48,21.5,48,48v397.5h-270v-397.5c0-26.5,21.5-48,48-48Z"/>
  <path class="st3" d="M349.2,676.7h270l-50.5,101.3c-37.2,74.6-127.8,135-202.4,135h0c-74.6,0-104.8-60.4-67.6-135l50.5-101.3Z"/>
  <g>
    <g>
      <path class="st1" d="M283.5,541.7h195.7v64.1h-191c-2.6,0-4.7-2.1-4.7-4.7v-59.4h0Z"/>
      <path class="st3" d="M302.4,599.8c-10.5,0-18.9-8.5-18.9-18.9v-6.7c0-10.5,8.5-18.9,18.9-18.9h176.5c2.1,0,3.7-1.7,3.7-3.7v-192.3c0-3.6-2.9-6.5-6.5-6.5h-175.8c-13,0-23.6,10.6-23.6,23.6v209.3c0,13,10.6,23.6,23.6,23.6h175.8c3.6,0,6.5-2.9,6.5-6.5h0c0-.2-.1-3-.3-3h-179.9Z"/>
    </g>
    <g>
      <path class="st0" d="M431.3,472c-.9,2.6-7.1-4.9-16.4-6.3-9.3-2.3-21.7,1.5-34.9,6.3-13.3,5.1-24.9,2.2-33-5.9-8.1-7.5-12.6-20.3-11.7-21.5.9-2.6,7.1,4.9,16.4,6.4,9.3,2.3,21.7-1.5,34.9-6.3,13.3-5.1,24.9-2.2,33,5.9,8.1,7.5,12.6,20.3,11.7,21.5"/>
      <path class="st0" d="M438.2,501.9c-.9,2.6-7.2-4.9-16.5-6.3-9.3-2.3-21.7,1.5-34.9,6.3-13.3,5.1-24.9,2.2-33-5.9-8.1-7.5-12.6-20.3-11.7-21.5.9-2.6,7.1,4.9,16.4,6.3,9.3,2.3,21.7-1.5,34.9-6.3,13.3-5.1,24.9-2.2,33,5.9,8.1,7.5,12.6,20.3,11.7,21.5"/>
      <path class="st0" d="M423.6,442.1c-.9,2.6-7.1-4.9-16.4-6.4-9.3-2.3-21.7,1.5-34.9,6.3-13.3,5.1-24.9,2.2-33-5.9-8.1-7.5-12.6-20.3-11.7-21.5.9-2.6,7.1,4.9,16.4,6.4,9.3,2.3,21.7-1.5,34.9-6.3,13.3-5.1,24.9-2.2,33,5.9,8.1,7.5,12.6,20.3,11.7,21.5"/>
    </g>
  </g>
  <rect class="st0" y="433.7" width="226.1" height="16.9" rx="2.5" ry="2.5"/>
  <path class="st0" d="M952.2,1055.9h-150.5v-379.2h-84.4v379.2h-150.5c-3.8,0-6.9,3.1-6.9,6.9v3.1c0,3.8,3.1,6.9,6.9,6.9h385.4c3.8,0,6.9-3.1,6.9-6.9v-3.1c0-3.8-3.1-6.9-6.9-6.9Z"/>
  <rect class="st0" x="57.4" y="474.2" width="168.7" height="16.9" rx="2.5" ry="2.5"/>
  <rect class="st0" x="101.2" y="514.7" width="124.9" height="16.9" rx="2.5" ry="2.5"/>
  <path class="st0" d="M875.4,359.2V16c0-4.1-3.4-7.5-7.5-7.5s-7.5,3.4-7.5,7.5v343.2c-17.2,3.5-30.1,18.7-30.1,36.9s16.8,37.6,37.6,37.6,37.6-16.8,37.6-37.6-12.9-33.4-30.1-36.9Z"/>
  <path class="st4" d="M1019.2,7.6h-148.4c-5.7,0-10.3,4.6-10.3,10.3v95.1c0,5.7,4.6,10.3,10.3,10.3h148.4l-64.5-57.6,64.5-57.6v-.4Z"/>
</svg>