<svg xmlns="http://www.w3.org/2000/svg" xmlns:xlink="http://www.w3.org/1999/xlink" id="Layer_1" data-name="Layer 1" viewBox="0 0 2053 700.5"><defs><style>      .cls-1 {        fill: url(#New_Pattern_8);      }      .cls-1, .cls-2, .cls-3 {        stroke-width: 0px;      }      .cls-2 {        fill: none;      }      .cls-3 {        fill: #e5ad3e;      }    </style><pattern id="New_Pattern_8" data-name="New Pattern 8" x="0" y="0" width="740" height="700" patternTransform="translate(-1 -1915)" patternUnits="userSpaceOnUse" viewBox="0 0 740 700"><g><rect class="cls-2" width="740" height="700"></rect><g><g><path class="cls-3" d="M138.11,640.18c-.69,1.97-5.31-3.66-12.22-4.72-6.91-1.72-16.11,1.12-25.96,4.71-9.85,3.81-18.49,1.65-24.49-4.39-6-5.61-9.37-15.09-8.68-15.96.69-1.96,5.31,3.66,12.22,4.72,6.91,1.72,16.11-1.12,25.96-4.71,9.85-3.81,18.49-1.65,24.49,4.39,6,5.61,9.37,15.09,8.68,15.96"></path><path class="cls-3" d="M143.21,662.37c-.69,1.96-5.31-3.66-12.22-4.72-6.91-1.72-16.11,1.12-25.96,4.71-9.85,3.81-18.49,1.65-24.49-4.39-6-5.61-9.37-15.09-8.68-15.96.69-1.97,5.31,3.66,12.22,4.72,6.91,1.72,16.11-1.12,25.96-4.71,9.85-3.81,18.49-1.65,24.49,4.39,6,5.61,9.37,15.09,8.68,15.96"></path><path class="cls-3" d="M132.37,617.99c-.69,1.96-5.31-3.66-12.22-4.72-6.91-1.72-16.11,1.12-25.96,4.71-9.85,3.81-18.49,1.65-24.49-4.39-6-5.61-9.37-15.09-8.68-15.97.69-1.96,5.31,3.66,12.22,4.72,6.91,1.72,16.11-1.12,25.96-4.71,9.85-3.81,18.49-1.65,24.49,4.39,6,5.61,9.37,15.09,8.68,15.96"></path></g><g><path class="cls-3" d="M643.49,603.9c-.98-.98-2.28-1.52-3.66-1.52s-2.68.54-3.66,1.52l-22.44,22.44c-.98.98-1.52,2.28-1.52,3.66s.54,2.68,1.52,3.66l22.44,22.44c.98.98,2.28,1.52,3.66,1.52s2.68-.54,3.66-1.52l22.44-22.44c.98-.98,1.52-2.28,1.52-3.66s-.54-2.68-1.52-3.66l-22.44-22.44Z"></path><path class="cls-3" d="M676.41,636.41l-30.17,30.17c-3.54,3.54-9.27,3.54-12.81,0l-30.17-30.17c-3.54-3.54-3.54-9.27,0-12.81l30.17-30.17c3.54-3.54,9.27-3.54,12.81,0l30.17,30.17c3.54,3.54,3.54,9.27,0,12.81ZM670.58,630c0-2.22-.86-4.3-2.43-5.87l-22.44-22.44c-1.57-1.57-3.65-2.43-5.87-2.43s-4.3.86-5.87,2.43l-22.44,22.44c-1.57,1.57-2.43,3.65-2.43,5.87s.86,4.3,2.43,5.87l22.44,22.44c1.57,1.57,3.65,2.43,5.87,2.43s4.3-.86,5.87-2.43l22.44-22.44c1.57-1.57,2.43-3.65,2.43-5.87Z"></path></g><path class="cls-3" d="M315.44,630c0,20.57-16.68,37.25-37.25,37.25s-37.25-16.68-37.25-37.25,16.68-37.25,37.25-37.25,37.25,16.68,37.25,37.25ZM251.79,621.01c17.7-2.39,35.11-2.39,52.8.02-3.74-11-14.14-18.92-26.4-18.92s-22.66,7.91-26.4,18.9ZM271.89,657.17c-6.75-7.47-13.62-15.18-21.11-22.02,2.03,10.89,10.39,19.54,21.11,22.02ZM285.12,633.03c0-3.83-3.1-6.93-6.93-6.93s-6.93,3.1-6.93,6.93,3.1,6.93,6.93,6.93,6.93-3.1,6.93-6.93ZM305.58,635.22c-7.51,6.84-14.42,14.48-21.24,21.98,10.77-2.43,19.18-11.08,21.24-21.98Z"></path><g><path class="cls-3" d="M467.41,615.06l-5.69-19.78c-1.07-3.71-6.33-3.71-7.4,0l-5.69,19.78c6.29,1.51,12.46,1.51,18.77,0Z"></path><path class="cls-3" d="M500.27,653.22l-14.73,5.12-8.14,2.84-16.98,5.91c-1.55.54-3.24.54-4.79,0l-16.98-5.91-8.14-2.84-14.73-5.12c-3.59-1.25-3.59-6.33,0-7.58l26.74-9.31,3.7-12.86c7.94,2.38,15.63,2.38,23.61,0l3.7,12.87,26.74,9.31c3.59,1.25,3.59,6.33,0,7.58ZM439.79,645.81c-.23.78.16,1.62.91,1.94,11.79,5.06,22.77,5.08,34.64,0,.75-.32,1.14-1.16.91-1.94l-1.93-6.69c-11.14,4.52-21.55,4.49-32.61,0l-1.93,6.69Z"></path></g></g><g><g><path class="cls-3" d="M138.11,500.18c-.69,1.97-5.31-3.66-12.22-4.72-6.91-1.72-16.11,1.12-25.96,4.71-9.85,3.81-18.49,1.65-24.49-4.39-6-5.61-9.37-15.09-8.68-15.96.69-1.96,5.31,3.66,12.22,4.72,6.91,1.72,16.11-1.12,25.96-4.71,9.85-3.81,18.49-1.65,24.49,4.39,6,5.61,9.37,15.09,8.68,15.96"></path><path class="cls-3" d="M143.21,522.37c-.69,1.96-5.31-3.66-12.22-4.72-6.91-1.72-16.11,1.12-25.96,4.71-9.85,3.81-18.49,1.65-24.49-4.39-6-5.61-9.37-15.09-8.68-15.96.69-1.97,5.31,3.66,12.22,4.72,6.91,1.72,16.11-1.12,25.96-4.71,9.85-3.81,18.49-1.65,24.49,4.39,6,5.61,9.37,15.09,8.68,15.96"></path><path class="cls-3" d="M132.37,477.99c-.69,1.96-5.31-3.66-12.22-4.72-6.91-1.72-16.11,1.12-25.96,4.71-9.85,3.81-18.49,1.65-24.49-4.39-6-5.61-9.37-15.09-8.68-15.97.69-1.96,5.31,3.66,12.22,4.72,6.91,1.72,16.11-1.12,25.96-4.71,9.85-3.81,18.49-1.65,24.49,4.39,6,5.61,9.37,15.09,8.68,15.96"></path></g><g><path class="cls-3" d="M643.49,463.9c-.98-.98-2.28-1.52-3.66-1.52s-2.68.54-3.66,1.52l-22.44,22.44c-.98.98-1.52,2.28-1.52,3.66s.54,2.68,1.52,3.66l22.44,22.44c.98.98,2.28,1.52,3.66,1.52s2.68-.54,3.66-1.52l22.44-22.44c.98-.98,1.52-2.28,1.52-3.66s-.54-2.68-1.52-3.66l-22.44-22.44Z"></path><path class="cls-3" d="M676.41,496.41l-30.17,30.17c-3.54,3.54-9.27,3.54-12.81,0l-30.17-30.17c-3.54-3.54-3.54-9.27,0-12.81l30.17-30.17c3.54-3.54,9.27-3.54,12.81,0l30.17,30.17c3.54,3.54,3.54,9.27,0,12.81ZM670.58,490c0-2.22-.86-4.3-2.43-5.87l-22.44-22.44c-1.57-1.57-3.65-2.43-5.87-2.43s-4.3.86-5.87,2.43l-22.44,22.44c-1.57,1.57-2.43,3.65-2.43,5.87s.86,4.3,2.43,5.87l22.44,22.44c1.57,1.57,3.65,2.43,5.87,2.43s4.3-.86,5.87-2.43l22.44-22.44c1.57-1.57,2.43-3.65,2.43-5.87Z"></path></g><path class="cls-3" d="M315.44,490c0,20.57-16.68,37.25-37.25,37.25s-37.25-16.68-37.25-37.25,16.68-37.25,37.25-37.25,37.25,16.68,37.25,37.25ZM251.79,481.01c17.7-2.39,35.11-2.39,52.8.02-3.74-11-14.14-18.92-26.4-18.92s-22.66,7.91-26.4,18.9ZM271.89,517.17c-6.75-7.47-13.62-15.18-21.11-22.02,2.03,10.89,10.39,19.54,21.11,22.02ZM285.12,493.03c0-3.83-3.1-6.93-6.93-6.93s-6.93,3.1-6.93,6.93,3.1,6.93,6.93,6.93,6.93-3.1,6.93-6.93ZM305.58,495.22c-7.51,6.84-14.42,14.48-21.24,21.98,10.77-2.43,19.18-11.08,21.24-21.98Z"></path><g><path class="cls-3" d="M467.41,475.06l-5.69-19.78c-1.07-3.71-6.33-3.71-7.4,0l-5.69,19.78c6.29,1.51,12.46,1.51,18.77,0Z"></path><path class="cls-3" d="M500.27,513.22l-14.73,5.12-8.14,2.84-16.98,5.91c-1.55.54-3.24.54-4.79,0l-16.98-5.91-8.14-2.84-14.73-5.12c-3.59-1.25-3.59-6.33,0-7.58l26.74-9.31,3.7-12.86c7.94,2.38,15.63,2.38,23.61,0l3.7,12.87,26.74,9.31c3.59,1.25,3.59,6.33,0,7.58ZM439.79,505.81c-.23.78.16,1.62.91,1.94,11.79,5.06,22.77,5.08,34.64,0,.75-.32,1.14-1.16.91-1.94l-1.93-6.69c-11.14,4.52-21.55,4.49-32.61,0l-1.93,6.69Z"></path></g></g><g><g><path class="cls-3" d="M138.11,360.18c-.69,1.97-5.31-3.66-12.22-4.72-6.91-1.72-16.11,1.12-25.96,4.71-9.85,3.81-18.49,1.65-24.49-4.39-6-5.61-9.37-15.09-8.68-15.96.69-1.96,5.31,3.66,12.22,4.72,6.91,1.72,16.11-1.12,25.96-4.71,9.85-3.81,18.49-1.65,24.49,4.39,6,5.61,9.37,15.09,8.68,15.96"></path><path class="cls-3" d="M143.21,382.37c-.69,1.96-5.31-3.66-12.22-4.72-6.91-1.72-16.11,1.12-25.96,4.71-9.85,3.81-18.49,1.65-24.49-4.39-6-5.61-9.37-15.09-8.68-15.96.69-1.97,5.31,3.66,12.22,4.72,6.91,1.72,16.11-1.12,25.96-4.71,9.85-3.81,18.49-1.65,24.49,4.39,6,5.61,9.37,15.09,8.68,15.96"></path><path class="cls-3" d="M132.37,337.99c-.69,1.96-5.31-3.66-12.22-4.72-6.91-1.72-16.11,1.12-25.96,4.71-9.85,3.81-18.49,1.65-24.49-4.39-6-5.61-9.37-15.09-8.68-15.97.69-1.96,5.31,3.66,12.22,4.72,6.91,1.72,16.11-1.12,25.96-4.71,9.85-3.81,18.49-1.65,24.49,4.39,6,5.61,9.37,15.09,8.68,15.96"></path></g><g><path class="cls-3" d="M643.49,323.9c-.98-.98-2.28-1.52-3.66-1.52s-2.68.54-3.66,1.52l-22.44,22.44c-.98.98-1.52,2.28-1.52,3.66s.54,2.68,1.52,3.66l22.44,22.44c.98.98,2.28,1.52,3.66,1.52s2.68-.54,3.66-1.52l22.44-22.44c.98-.98,1.52-2.28,1.52-3.66s-.54-2.68-1.52-3.66l-22.44-22.44Z"></path><path class="cls-3" d="M676.41,356.41l-30.17,30.17c-3.54,3.54-9.27,3.54-12.81,0l-30.17-30.17c-3.54-3.54-3.54-9.27,0-12.81l30.17-30.17c3.54-3.54,9.27-3.54,12.81,0l30.17,30.17c3.54,3.54,3.54,9.27,0,12.81ZM670.58,350c0-2.22-.86-4.3-2.43-5.87l-22.44-22.44c-1.57-1.57-3.65-2.43-5.87-2.43s-4.3.86-5.87,2.43l-22.44,22.44c-1.57,1.57-2.43,3.65-2.43,5.87s.86,4.3,2.43,5.87l22.44,22.44c1.57,1.57,3.65,2.43,5.87,2.43s4.3-.86,5.87-2.43l22.44-22.44c1.57-1.57,2.43-3.65,2.43-5.87Z"></path></g><path class="cls-3" d="M315.44,350c0,20.57-16.68,37.25-37.25,37.25s-37.25-16.68-37.25-37.25,16.68-37.25,37.25-37.25,37.25,16.68,37.25,37.25ZM251.79,341.01c17.7-2.39,35.11-2.39,52.8.02-3.74-11-14.14-18.92-26.4-18.92s-22.66,7.91-26.4,18.9ZM271.89,377.17c-6.75-7.47-13.62-15.18-21.11-22.02,2.03,10.89,10.39,19.54,21.11,22.02ZM285.12,353.03c0-3.83-3.1-6.93-6.93-6.93s-6.93,3.1-6.93,6.93,3.1,6.93,6.93,6.93,6.93-3.1,6.93-6.93ZM305.58,355.22c-7.51,6.84-14.42,14.48-21.24,21.98,10.77-2.43,19.18-11.08,21.24-21.98Z"></path><g><path class="cls-3" d="M467.41,335.06l-5.69-19.78c-1.07-3.71-6.33-3.71-7.4,0l-5.69,19.78c6.29,1.51,12.46,1.51,18.77,0Z"></path><path class="cls-3" d="M500.27,373.22l-14.73,5.12-8.14,2.84-16.98,5.91c-1.55.54-3.24.54-4.79,0l-16.98-5.91-8.14-2.84-14.73-5.12c-3.59-1.25-3.59-6.33,0-7.58l26.74-9.31,3.7-12.86c7.94,2.38,15.63,2.38,23.61,0l3.7,12.87,26.74,9.31c3.59,1.25,3.59,6.33,0,7.58ZM439.79,365.81c-.23.78.16,1.62.91,1.94,11.79,5.06,22.77,5.08,34.64,0,.75-.32,1.14-1.16.91-1.94l-1.93-6.69c-11.14,4.52-21.55,4.49-32.61,0l-1.93,6.69Z"></path></g></g><g><g><path class="cls-3" d="M138.11,220.18c-.69,1.97-5.31-3.66-12.22-4.72-6.91-1.72-16.11,1.12-25.96,4.71-9.85,3.81-18.49,1.65-24.49-4.39-6-5.61-9.37-15.09-8.68-15.96.69-1.96,5.31,3.66,12.22,4.72,6.91,1.72,16.11-1.12,25.96-4.71,9.85-3.81,18.49-1.65,24.49,4.39,6,5.61,9.37,15.09,8.68,15.96"></path><path class="cls-3" d="M143.21,242.37c-.69,1.96-5.31-3.66-12.22-4.72-6.91-1.72-16.11,1.12-25.96,4.71-9.85,3.81-18.49,1.65-24.49-4.39-6-5.61-9.37-15.09-8.68-15.96.69-1.97,5.31,3.66,12.22,4.72,6.91,1.72,16.11-1.12,25.96-4.71,9.85-3.81,18.49-1.65,24.49,4.39,6,5.61,9.37,15.09,8.68,15.96"></path><path class="cls-3" d="M132.37,197.99c-.69,1.96-5.31-3.66-12.22-4.72-6.91-1.72-16.11,1.12-25.96,4.71-9.85,3.81-18.49,1.65-24.49-4.39-6-5.61-9.37-15.09-8.68-15.97.69-1.96,5.31,3.66,12.22,4.72,6.91,1.72,16.11-1.12,25.96-4.71,9.85-3.81,18.49-1.65,24.49,4.39,6,5.61,9.37,15.09,8.68,15.96"></path></g><g><path class="cls-3" d="M643.49,183.9c-.98-.98-2.28-1.52-3.66-1.52s-2.68.54-3.66,1.52l-22.44,22.44c-.98.98-1.52,2.28-1.52,3.66s.54,2.68,1.52,3.66l22.44,22.44c.98.98,2.28,1.52,3.66,1.52s2.68-.54,3.66-1.52l22.44-22.44c.98-.98,1.52-2.28,1.52-3.66s-.54-2.68-1.52-3.66l-22.44-22.44Z"></path><path class="cls-3" d="M676.41,216.41l-30.17,30.17c-3.54,3.54-9.27,3.54-12.81,0l-30.17-30.17c-3.54-3.54-3.54-9.27,0-12.81l30.17-30.17c3.54-3.54,9.27-3.54,12.81,0l30.17,30.17c3.54,3.54,3.54,9.27,0,12.81ZM670.58,210c0-2.22-.86-4.3-2.43-5.87l-22.44-22.44c-1.57-1.57-3.65-2.43-5.87-2.43s-4.3.86-5.87,2.43l-22.44,22.44c-1.57,1.57-2.43,3.65-2.43,5.87s.86,4.3,2.43,5.87l22.44,22.44c1.57,1.57,3.65,2.43,5.87,2.43s4.3-.86,5.87-2.43l22.44-22.44c1.57-1.57,2.43-3.65,2.43-5.87Z"></path></g><path class="cls-3" d="M315.44,210c0,20.57-16.68,37.25-37.25,37.25s-37.25-16.68-37.25-37.25,16.68-37.25,37.25-37.25,37.25,16.68,37.25,37.25ZM251.79,201.01c17.7-2.39,35.11-2.39,52.8.02-3.74-11-14.14-18.92-26.4-18.92s-22.66,7.91-26.4,18.9ZM271.89,237.17c-6.75-7.47-13.62-15.18-21.11-22.02,2.03,10.89,10.39,19.54,21.11,22.02ZM285.12,213.03c0-3.83-3.1-6.93-6.93-6.93s-6.93,3.1-6.93,6.93,3.1,6.93,6.93,6.93,6.93-3.1,6.93-6.93ZM305.58,215.22c-7.51,6.84-14.42,14.48-21.24,21.98,10.77-2.43,19.18-11.08,21.24-21.98Z"></path><g><path class="cls-3" d="M467.41,195.06l-5.69-19.78c-1.07-3.71-6.33-3.71-7.4,0l-5.69,19.78c6.29,1.51,12.46,1.51,18.77,0Z"></path><path class="cls-3" d="M500.27,233.22l-14.73,5.12-8.14,2.84-16.98,5.91c-1.55.54-3.24.54-4.79,0l-16.98-5.91-8.14-2.84-14.73-5.12c-3.59-1.25-3.59-6.33,0-7.58l26.74-9.31,3.7-12.86c7.94,2.38,15.63,2.38,23.61,0l3.7,12.87,26.74,9.31c3.59,1.25,3.59,6.33,0,7.58ZM439.79,225.81c-.23.78.16,1.62.91,1.94,11.79,5.06,22.77,5.08,34.64,0,.75-.32,1.14-1.16.91-1.94l-1.93-6.69c-11.14,4.52-21.55,4.49-32.61,0l-1.93,6.69Z"></path></g></g><g><g><path class="cls-3" d="M138.11,80.18c-.69,1.97-5.31-3.66-12.22-4.72-6.91-1.72-16.11,1.12-25.96,4.71-9.85,3.81-18.49,1.65-24.49-4.39-6-5.61-9.37-15.09-8.68-15.96.69-1.96,5.31,3.66,12.22,4.72,6.91,1.72,16.11-1.12,25.96-4.71,9.85-3.81,18.49-1.65,24.49,4.39,6,5.61,9.37,15.09,8.68,15.96"></path><path class="cls-3" d="M143.21,102.37c-.69,1.96-5.31-3.66-12.22-4.72-6.91-1.72-16.11,1.12-25.96,4.71-9.85,3.81-18.49,1.65-24.49-4.39-6-5.61-9.37-15.09-8.68-15.96.69-1.97,5.31,3.66,12.22,4.72,6.91,1.72,16.11-1.12,25.96-4.71,9.85-3.81,18.49-1.65,24.49,4.39,6,5.61,9.37,15.09,8.68,15.96"></path><path class="cls-3" d="M132.37,57.99c-.69,1.96-5.31-3.66-12.22-4.72-6.91-1.72-16.11,1.12-25.96,4.71-9.85,3.81-18.49,1.65-24.49-4.39-6-5.61-9.37-15.09-8.68-15.97.69-1.96,5.31,3.66,12.22,4.72,6.91,1.72,16.11-1.12,25.96-4.71,9.85-3.81,18.49-1.65,24.49,4.39,6,5.61,9.37,15.09,8.68,15.96"></path></g><g><path class="cls-3" d="M643.49,43.9c-.98-.98-2.28-1.52-3.66-1.52s-2.68.54-3.66,1.52l-22.44,22.44c-.98.98-1.52,2.28-1.52,3.66s.54,2.68,1.52,3.66l22.44,22.44c.98.98,2.28,1.52,3.66,1.52s2.68-.54,3.66-1.52l22.44-22.44c.98-.98,1.52-2.28,1.52-3.66s-.54-2.68-1.52-3.66l-22.44-22.44Z"></path><path class="cls-3" d="M676.41,76.41l-30.17,30.17c-3.54,3.54-9.27,3.54-12.81,0l-30.17-30.17c-3.54-3.54-3.54-9.27,0-12.81l30.17-30.17c3.54-3.54,9.27-3.54,12.81,0l30.17,30.17c3.54,3.54,3.54,9.27,0,12.81ZM670.58,70c0-2.22-.86-4.3-2.43-5.87l-22.44-22.44c-1.57-1.57-3.65-2.43-5.87-2.43s-4.3.86-5.87,2.43l-22.44,22.44c-1.57,1.57-2.43,3.65-2.43,5.87s.86,4.3,2.43,5.87l22.44,22.44c1.57,1.57,3.65,2.43,5.87,2.43s4.3-.86,5.87-2.43l22.44-22.44c1.57-1.57,2.43-3.65,2.43-5.87Z"></path></g><path class="cls-3" d="M315.44,70c0,20.57-16.68,37.25-37.25,37.25s-37.25-16.68-37.25-37.25,16.68-37.25,37.25-37.25,37.25,16.68,37.25,37.25ZM251.79,61.01c17.7-2.39,35.11-2.39,52.8.02-3.74-11-14.14-18.92-26.4-18.92s-22.66,7.91-26.4,18.9ZM271.89,97.17c-6.75-7.47-13.62-15.18-21.11-22.02,2.03,10.89,10.39,19.54,21.11,22.02ZM285.12,73.03c0-3.83-3.1-6.93-6.93-6.93s-6.93,3.1-6.93,6.93,3.1,6.93,6.93,6.93,6.93-3.1,6.93-6.93ZM305.58,75.22c-7.51,6.84-14.42,14.48-21.24,21.98,10.77-2.43,19.18-11.08,21.24-21.98Z"></path><g><path class="cls-3" d="M467.41,55.06l-5.69-19.78c-1.07-3.71-6.33-3.71-7.4,0l-5.69,19.78c6.29,1.51,12.46,1.51,18.77,0Z"></path><path class="cls-3" d="M500.27,93.22l-14.73,5.12-8.14,2.84-16.98,5.91c-1.55.54-3.24.54-4.79,0l-16.98-5.91-8.14-2.84-14.73-5.12c-3.59-1.25-3.59-6.33,0-7.58l26.74-9.31,3.7-12.86c7.94,2.38,15.63,2.38,23.61,0l3.7,12.87,26.74,9.31c3.59,1.25,3.59,6.33,0,7.58ZM439.79,85.81c-.23.78.16,1.62.91,1.94,11.79,5.06,22.77,5.08,34.64,0,.75-.32,1.14-1.16.91-1.94l-1.93-6.69c-11.14,4.52-21.55,4.49-32.61,0l-1.93,6.69Z"></path></g></g></g></pattern></defs><rect class="cls-1" x="-2" y="2" width="2057" height="699"></rect></svg>