<?xml version="1.0" encoding="UTF-8"?>
<svg id="Layer_1" xmlns="http://www.w3.org/2000/svg" version="1.1" viewBox="0 0 1080 1080">
  <!-- Generator: Adobe Illustrator 29.7.1, SVG Export Plug-In . SVG Version: 2.1.1 Build 8)  -->
  <defs>
    <style>
      .st0 {
        fill: #fff;
      }
    </style>
  </defs>
  <path class="st0" d="M1080,2.6v1073.8H6.2V2.6h1073.8ZM113,846.7h817.4c-1.6-88.2-8.2-176.3-5.6-264.7.5-17.4,8.6-37.6,5.7-53.1-3.3-17.5-20.7-13.4-29.2-24.4-12.8-16.4-1.4-59.4,8.6-76.4,9.8-16.8,30.9-22.9,37.2-37.6s2.9-28.3,7.3-40.7c7.2-20,34.4-61.2,28.8-81.6l-55.2-41.3c-119.4-8.3-219.5-9.6-335.4,22.8-14.7,4.1-32,28.6-44.9,29.7-8.4.7-16.8-8.6-26.3-9.7-24.5-2.7-37.3,19.5-58.4,26.8-12.7,0-26.2-32.2-58.7-32.2-33.3,0-45.3,36.8-96.1,32.4-57.1-4.9-35-63.8-56.3-82.9s-27.2-1-38.8-3.7-14.1-17.2-22.1-18.4c-2.1-.3-39.8,3.1-42.3,3.9-20.4,6.3-2.7,74.6-2.9,92.8-.7,73,0,264.8-23,324.8-8.4,22-29.5,40-31.3,65.3s15.8,43.2,16.7,64.1-13,35.1-10.8,58.1c1.6,16.4,13.3,30,15.8,46.1Z"/>
  <path d="M113,846.7c-2.5-16.1-14.2-29.6-15.8-46.1-2.2-23,11.7-37.9,10.8-58.1s-18.7-36.8-16.7-64.1,22.9-43.2,31.3-65.3c22.9-60,22.2-251.8,23-324.8.2-18.2-17.5-86.4,2.9-92.8,2.5-.8,40.1-4.2,42.3-3.9,8.1,1.2,13.2,16.4,22.1,18.4s22.2-11.1,38.8,3.7-.8,77.9,56.3,82.9c50.9,4.4,62.9-32.4,96.1-32.4,32.5,0,46,32.2,58.7,32.2,21.1-7.3,33.9-29.5,58.4-26.8,9.5,1.1,18,10.4,26.3,9.7,12.9-1.1,30.2-25.6,44.9-29.7,115.9-32.4,216-31.1,335.4-22.8l55.2,41.3c5.6,20.3-21.6,61.6-28.8,81.6-4.5,12.4-1.8,27.8-7.3,40.7s-27.4,20.9-37.2,37.6c-9.9,17-21.4,59.9-8.6,76.4,8.6,11,26,6.9,29.2,24.4,2.9,15.4-5.2,35.7-5.7,53.1-2.6,88.4,4,176.5,5.6,264.7H113Z"/>
</svg>