<svg xmlns="http://www.w3.org/2000/svg" xmlns:xlink="http://www.w3.org/1999/xlink" id="Layer_1" data-name="Layer 1" viewBox="0 0 2261 703"><defs><style>      .cls-1 {        fill: url(#New_Pattern_14);      }      .cls-1, .cls-2, .cls-3 {        stroke-width: 0px;      }      .cls-2, .cls-4, .cls-5 {        fill: none;      }      .cls-4, .cls-5 {        stroke: #1a3a36;        stroke-linecap: round;        stroke-linejoin: round;        stroke-width: 4px;      }      .cls-5 {        stroke-dasharray: 0 0 12 12;      }      .cls-3 {        fill: #1a3a36;      }    </style><pattern id="New_Pattern_14" data-name="New Pattern 14" x="0" y="0" width="562" height="458" patternTransform="translate(-14 -6012)" patternUnits="userSpaceOnUse" viewBox="0 0 562 458"><g><rect class="cls-2" width="562" height="458"></rect><g><path class="cls-4" d="M557.97,439.99l-5.72,4.57c-2.07,1.66-4.91,2-7.32.87h0c-4.05-1.89-5.31-7.05-2.58-10.59l6.63-8.61c4.15-5.4,10.47-8.69,17.28-9h0c3.45-.16,6.89.46,10.07,1.81l15,6.36c5.65,2.39,11.6,3.99,17.68,4.76h0v41.28l-36.69-30.96c-4.88-3.98-9.43-4.42-14.35-.48Z"></path><rect class="cls-4" x="495.5" y="419.84" width="19.49" height="55.03" rx="5.31" ry="5.31"></rect><path class="cls-4" d="M517.25,428.24h0c8.2-.76,16.17-3.08,23.51-6.82,6.32-3.22,15.28-5.3,22.39-3.88"></path></g><g><g><path class="cls-4" d="M-4.03,439.99l-5.72,4.57c-2.07,1.66-4.91,2-7.32.87h0c-4.05-1.89-5.31-7.05-2.58-10.59l6.63-8.61c4.15-5.4,10.47-8.69,17.28-9h0c3.45-.16,6.89.46,10.07,1.81l15,6.36c5.65,2.39,11.6,3.99,17.68,4.76h0v41.28l-36.69-30.96c-4.88-3.98-9.43-4.42-14.35-.48Z"></path><rect class="cls-4" x="47.01" y="419.84" width="19.49" height="55.03" rx="5.31" ry="5.31"></rect><path class="cls-4" d="M-44.75,428.24h0c8.2-.76,16.17-3.08,23.51-6.82,6.32-3.22,15.28-5.3,22.39-3.88"></path><path class="cls-3" d="M21.78,449.65c5.86,3.35,11.14,7.28,16.35,11.43.45.37.92.78,1.31,1.22,7.29,8.55-2.99,19.56-12.16,13.34-5.37-4.18-10.69-8.61-15.81-13.09-1.86-1.68.44-4.57,2.5-3.12,5.21,3.77,10.37,7.8,15.4,11.82.37.3.8.63,1.22.86,4.84,2.47,9.1-2.87,5.77-7.14-5.08-4.89-10.2-9.68-14.58-15.31h0Z"></path></g><g><path class="cls-4" d="M276.97,439.99l-5.72,4.57c-2.07,1.66-4.91,2-7.32.87h0c-4.05-1.89-5.31-7.05-2.58-10.59l6.63-8.61c4.15-5.4,10.47-8.69,17.28-9h0c3.45-.16,6.89.46,10.07,1.81l15,6.36c5.65,2.39,11.6,3.99,17.68,4.76h0v41.28l-36.69-30.96c-4.88-3.98-9.43-4.42-14.35-.48Z"></path><rect class="cls-4" x="328.01" y="419.84" width="19.49" height="55.03" rx="5.31" ry="5.31"></rect><rect class="cls-4" x="214.5" y="419.84" width="19.49" height="55.03" rx="5.31" ry="5.31"></rect><path class="cls-4" d="M236.25,428.24h0c8.2-.76,16.17-3.08,23.51-6.82,6.32-3.22,15.28-5.3,22.39-3.88"></path><path class="cls-3" d="M302.78,449.65c5.86,3.35,11.14,7.28,16.35,11.43.45.37.92.78,1.31,1.22,7.29,8.55-2.99,19.56-12.16,13.34-5.37-4.18-10.69-8.61-15.81-13.09-1.86-1.68.44-4.57,2.5-3.12,5.21,3.77,10.37,7.8,15.4,11.82.37.3.8.63,1.22.86,4.84,2.47,9.1-2.87,5.77-7.14-5.08-4.89-10.2-9.68-14.58-15.31h0Z"></path></g><path class="cls-5" d="M15.11,408.51c20.28-33.32,58.91-52.18,96.09-59.33,40.34-7.77,84.04-3.47,121.14,14.64,19.14,9.35,36.84,22.75,48.92,40.48"></path><g><path class="cls-4" d="M557.97,440.99l-5.72,4.57c-2.07,1.66-4.91,2-7.32.87h0c-4.05-1.89-5.31-7.05-2.58-10.59l6.63-8.61c4.15-5.4,10.47-8.69,17.28-9h0c3.45-.16,6.89.46,10.07,1.81l15,6.36c5.65,2.39,11.6,3.99,17.68,4.76h0v41.28l-36.69-30.96c-4.88-3.98-9.43-4.42-14.35-.48Z"></path><rect class="cls-4" x="495.5" y="420.84" width="19.49" height="55.03" rx="5.31" ry="5.31"></rect><path class="cls-4" d="M517.25,429.24h0c8.2-.76,16.17-3.08,23.51-6.82,6.32-3.22,15.28-5.3,22.39-3.88"></path></g></g><g><path class="cls-4" d="M-4.03,440.99l-5.72,4.57c-2.07,1.66-4.91,2-7.32.87h0c-4.05-1.89-5.31-7.05-2.58-10.59l6.63-8.61c4.15-5.4,10.47-8.69,17.28-9h0c3.45-.16,6.89.46,10.07,1.81l15,6.36c5.65,2.39,11.6,3.99,17.68,4.76h0v41.28l-36.69-30.96c-4.88-3.98-9.43-4.42-14.35-.48Z"></path><rect class="cls-4" x="47.01" y="420.84" width="19.49" height="55.03" rx="5.31" ry="5.31"></rect><path class="cls-4" d="M-44.75,429.24h0c8.2-.76,16.17-3.08,23.51-6.82,6.32-3.22,15.28-5.3,22.39-3.88"></path><path class="cls-3" d="M21.78,450.65c5.86,3.35,11.14,7.28,16.35,11.43.45.37.92.78,1.31,1.22,7.29,8.55-2.99,19.56-12.16,13.34-5.37-4.18-10.69-8.61-15.81-13.09-1.86-1.68.44-4.57,2.5-3.12,5.21,3.77,10.37,7.8,15.4,11.82.37.3.8.63,1.22.86,4.84,2.47,9.1-2.87,5.77-7.14-5.08-4.89-10.2-9.68-14.58-15.31h0Z"></path></g><g><path class="cls-4" d="M557.97,210.99l-5.72,4.57c-2.07,1.66-4.91,2-7.32.87h0c-4.05-1.89-5.31-7.05-2.58-10.59l6.63-8.61c4.15-5.4,10.47-8.69,17.28-9h0c3.45-.16,6.89.46,10.07,1.81l15,6.36c5.65,2.39,11.6,3.99,17.68,4.76h0v41.28l-36.69-30.96c-4.88-3.98-9.43-4.42-14.35-.48Z"></path><rect class="cls-4" x="495.5" y="190.84" width="19.49" height="55.03" rx="5.31" ry="5.31"></rect><path class="cls-4" d="M517.25,199.24h0c8.2-.76,16.17-3.08,23.51-6.82,6.32-3.22,15.28-5.3,22.39-3.88"></path><line class="cls-4" x1="517.24" y1="236.06" x2="522.84" y2="240.26"></line><path class="cls-4" d="M523.24,252.32h0c-2.26-2.26-2.26-5.97,0-8.23l7.17-7.17c2.26-2.26,5.97-2.26,8.23,0h0c2.26,2.26,2.26,5.97,0,8.23l-7.17,7.17c-2.26,2.26-5.97,2.26-8.23,0Z"></path><path class="cls-4" d="M533.56,261.5h0c-2.26-2.26-2.26-5.97,0-8.23l10.36-10.36c2.26-2.26,5.97-2.26,8.23,0h0c2.26,2.26,2.26,5.97,0,8.23l-10.36,10.36c-2.26,2.26-5.97,2.26-8.23,0Z"></path><path class="cls-4" d="M548.79,267.06l-.16-.16c-2.22-2.22-2.22-5.86,0-8.08l6.25-6.25c2.22-2.22,5.86-2.22,8.08,0l.16.16c2.22,2.22,2.22,5.86,0,8.08l-6.25,6.25c-2.22,2.22-5.86,2.22-8.08,0Z"></path></g><g><g><path class="cls-4" d="M-4.03,210.99l-5.72,4.57c-2.07,1.66-4.91,2-7.32.87h0c-4.05-1.89-5.31-7.05-2.58-10.59l6.63-8.61c4.15-5.4,10.47-8.69,17.28-9h0c3.45-.16,6.89.46,10.07,1.81l15,6.36c5.65,2.39,11.6,3.99,17.68,4.76h0v41.28l-36.69-30.96c-4.88-3.98-9.43-4.42-14.35-.48Z"></path><rect class="cls-4" x="47.01" y="190.84" width="19.49" height="55.03" rx="5.31" ry="5.31"></rect><rect class="cls-4" x="-66.5" y="190.84" width="19.49" height="55.03" rx="-13.76" ry="-13.76"></rect><path class="cls-4" d="M-44.75,199.24h0c8.2-.76,16.17-3.08,23.51-6.82,6.32-3.22,15.28-5.3,22.39-3.88"></path><path class="cls-4" d="M3.08,243.64l13.43,10.74c2.72,2.17,3.15,6.16,1,8.86-1.24,1.55-3.08,2.36-4.94,2.36-1.38,0-2.76-.45-3.92-1.38l-6.37-5.09"></path><path class="cls-4" d="M12.52,232.05l15.54,12.42c3.13,2.51,3.66,7.1,1.18,10.21h0c-2.49,3.11-7.09,3.61-10.22,1.1l-15.54-12.42"></path><path class="cls-3" d="M21.78,220.65c5.86,3.35,11.14,7.28,16.35,11.43.45.37.92.78,1.31,1.22,7.29,8.55-2.99,19.56-12.16,13.34-5.37-4.18-10.69-8.61-15.81-13.09-1.86-1.68.44-4.57,2.5-3.12,5.21,3.77,10.37,7.8,15.4,11.82.37.3.8.63,1.22.86,4.84,2.47,9.1-2.87,5.77-7.14-5.08-4.89-10.2-9.68-14.58-15.31h0Z"></path><line class="cls-4" x1="-44.76" y1="236.06" x2="-39.16" y2="240.26"></line><path class="cls-4" d="M-38.76,252.32h0c-2.26-2.26-2.26-5.97,0-8.23l7.17-7.17c2.26-2.26,5.97-2.26,8.23,0h0c2.26,2.26,2.26,5.97,0,8.23l-7.17,7.17c-2.26,2.26-5.97,2.26-8.23,0Z"></path><path class="cls-4" d="M-28.44,261.5h0c-2.26-2.26-2.26-5.97,0-8.23l10.36-10.36c2.26-2.26,5.97-2.26,8.23,0h0c2.26,2.26,2.26,5.97,0,8.23l-10.36,10.36c-2.26,2.26-5.97,2.26-8.23,0Z"></path><path class="cls-4" d="M-13.21,267.06l-.16-.16c-2.22-2.22-2.22-5.86,0-8.08l6.25-6.25c2.22-2.22,5.86-2.22,8.08,0l.16.16c2.22,2.22,2.22,5.86,0,8.08l-6.25,6.25c-2.22,2.22-5.86,2.22-8.08,0Z"></path></g><g><path class="cls-4" d="M276.97,210.99l-5.72,4.57c-2.07,1.66-4.91,2-7.32.87h0c-4.05-1.89-5.31-7.05-2.58-10.59l6.63-8.61c4.15-5.4,10.47-8.69,17.28-9h0c3.45-.16,6.89.46,10.07,1.81l15,6.36c5.65,2.39,11.6,3.99,17.68,4.76h0v41.28l-36.69-30.96c-4.88-3.98-9.43-4.42-14.35-.48Z"></path><rect class="cls-4" x="328.01" y="190.84" width="19.49" height="55.03" rx="5.31" ry="5.31"></rect><rect class="cls-4" x="214.5" y="190.84" width="19.49" height="55.03" rx="5.31" ry="5.31"></rect><path class="cls-4" d="M236.25,199.24h0c8.2-.76,16.17-3.08,23.51-6.82,6.32-3.22,15.28-5.3,22.39-3.88"></path><path class="cls-4" d="M284.08,243.64l13.43,10.74c2.72,2.17,3.15,6.16,1,8.86-1.24,1.55-3.08,2.36-4.94,2.36-1.38,0-2.76-.45-3.92-1.38l-6.37-5.09"></path><path class="cls-4" d="M293.52,232.05l15.54,12.42c3.13,2.51,3.66,7.1,1.18,10.21h0c-2.49,3.11-7.09,3.61-10.22,1.1l-15.54-12.42"></path><path class="cls-3" d="M302.78,220.65c5.86,3.35,11.14,7.28,16.35,11.43.45.37.92.78,1.31,1.22,7.29,8.55-2.99,19.56-12.16,13.34-5.37-4.18-10.69-8.61-15.81-13.09-1.86-1.68.44-4.57,2.5-3.12,5.21,3.77,10.37,7.8,15.4,11.82.37.3.8.63,1.22.86,4.84,2.47,9.1-2.87,5.77-7.14-5.08-4.89-10.2-9.68-14.58-15.31h0Z"></path><line class="cls-4" x1="236.24" y1="236.06" x2="241.84" y2="240.26"></line><path class="cls-4" d="M242.24,252.32h0c-2.26-2.26-2.26-5.97,0-8.23l7.17-7.17c2.26-2.26,5.97-2.26,8.23,0h0c2.26,2.26,2.26,5.97,0,8.23l-7.17,7.17c-2.26,2.26-5.97,2.26-8.23,0Z"></path><path class="cls-4" d="M252.56,261.5h0c-2.26-2.26-2.26-5.97,0-8.23l10.36-10.36c2.26-2.26,5.97-2.26,8.23,0h0c2.26,2.26,2.26,5.97,0,8.23l-10.36,10.36c-2.26,2.26-5.97,2.26-8.23,0Z"></path><path class="cls-4" d="M267.79,267.06l-.16-.16c-2.22-2.22-2.22-5.86,0-8.08l6.25-6.25c2.22-2.22,5.86-2.22,8.08,0l.16.16c2.22,2.22,2.22,5.86,0,8.08l-6.25,6.25c-2.22,2.22-5.86,2.22-8.08,0Z"></path></g><path class="cls-5" d="M15.11,179.51c20.28-33.32,58.91-52.18,96.09-59.33,40.34-7.77,84.04-3.47,121.14,14.64,19.14,9.35,36.84,22.75,48.92,40.48"></path><g><path class="cls-4" d="M557.97,211.99l-5.72,4.57c-2.07,1.66-4.91,2-7.32.87h0c-4.05-1.89-5.31-7.05-2.58-10.59l6.63-8.61c4.15-5.4,10.47-8.69,17.28-9h0c3.45-.16,6.89.46,10.07,1.81l15,6.36c5.65,2.39,11.6,3.99,17.68,4.76h0v41.28l-36.69-30.96c-4.88-3.98-9.43-4.42-14.35-.48Z"></path><rect class="cls-4" x="609.01" y="191.84" width="19.49" height="55.03" rx="5.31" ry="5.31"></rect><rect class="cls-4" x="495.5" y="191.84" width="19.49" height="55.03" rx="5.31" ry="5.31"></rect><path class="cls-4" d="M517.25,200.24h0c8.2-.76,16.17-3.08,23.51-6.82,6.32-3.22,15.28-5.3,22.39-3.88"></path><path class="cls-4" d="M565.08,244.64l13.43,10.74c2.72,2.17,3.15,6.16,1,8.86-1.24,1.55-3.08,2.36-4.94,2.36-1.38,0-2.76-.45-3.92-1.38l-6.37-5.09"></path><path class="cls-4" d="M574.52,233.05l15.54,12.42c3.13,2.51,3.66,7.1,1.18,10.21h0c-2.49,3.11-7.09,3.61-10.22,1.1l-15.54-12.42"></path><path class="cls-3" d="M583.78,221.65c5.86,3.35,11.14,7.28,16.35,11.43.45.37.92.78,1.31,1.22,7.29,8.55-2.99,19.56-12.16,13.34-5.37-4.18-10.69-8.61-15.81-13.09-1.86-1.68.44-4.57,2.5-3.12,5.21,3.77,10.37,7.8,15.4,11.82.37.3.8.63,1.22.86,4.84,2.47,9.1-2.87,5.77-7.14-5.08-4.89-10.2-9.68-14.58-15.31h0Z"></path><line class="cls-4" x1="517.24" y1="237.06" x2="522.84" y2="241.26"></line><path class="cls-4" d="M523.24,253.32h0c-2.26-2.26-2.26-5.97,0-8.23l7.17-7.17c2.26-2.26,5.97-2.26,8.23,0h0c2.26,2.26,2.26,5.97,0,8.23l-7.17,7.17c-2.26,2.26-5.97,2.26-8.23,0Z"></path><path class="cls-4" d="M533.56,262.5h0c-2.26-2.26-2.26-5.97,0-8.23l10.36-10.36c2.26-2.26,5.97-2.26,8.23,0h0c2.26,2.26,2.26,5.97,0,8.23l-10.36,10.36c-2.26,2.26-5.97,2.26-8.23,0Z"></path><path class="cls-4" d="M548.79,268.06l-.16-.16c-2.22-2.22-2.22-5.86,0-8.08l6.25-6.25c2.22-2.22,5.86-2.22,8.08,0l.16.16c2.22,2.22,2.22,5.86,0,8.08l-6.25,6.25c-2.22,2.22-5.86,2.22-8.08,0Z"></path></g><path class="cls-5" d="M296.11,278.49c20.28,33.32,58.91,52.18,96.09,59.33,40.34,7.77,84.04,3.47,121.14-14.64,19.14-9.35,36.84-22.75,48.92-40.48"></path></g><g><g><path class="cls-4" d="M-4.03,211.99l-5.72,4.57c-2.07,1.66-4.91,2-7.32.87h0c-4.05-1.89-5.31-7.05-2.58-10.59l6.63-8.61c4.15-5.4,10.47-8.69,17.28-9h0c3.45-.16,6.89.46,10.07,1.81l15,6.36c5.65,2.39,11.6,3.99,17.68,4.76h0v41.28l-36.69-30.96c-4.88-3.98-9.43-4.42-14.35-.48Z"></path><rect class="cls-4" x="47.01" y="191.84" width="19.49" height="55.03" rx="5.31" ry="5.31"></rect><path class="cls-4" d="M-44.75,200.24h0c8.2-.76,16.17-3.08,23.51-6.82,6.32-3.22,15.28-5.3,22.39-3.88"></path><path class="cls-4" d="M3.08,244.64l13.43,10.74c2.72,2.17,3.15,6.16,1,8.86-1.24,1.55-3.08,2.36-4.94,2.36-1.38,0-2.76-.45-3.92-1.38l-6.37-5.09"></path><path class="cls-4" d="M12.52,233.05l15.54,12.42c3.13,2.51,3.66,7.1,1.18,10.21h0c-2.49,3.11-7.09,3.61-10.22,1.1l-15.54-12.42"></path><path class="cls-3" d="M21.78,221.65c5.86,3.35,11.14,7.28,16.35,11.43.45.37.92.78,1.31,1.22,7.29,8.55-2.99,19.56-12.16,13.34-5.37-4.18-10.69-8.61-15.81-13.09-1.86-1.68.44-4.57,2.5-3.12,5.21,3.77,10.37,7.8,15.4,11.82.37.3.8.63,1.22.86,4.84,2.47,9.1-2.87,5.77-7.14-5.08-4.89-10.2-9.68-14.58-15.31h0Z"></path><path class="cls-4" d="M-13.21,268.06l-.16-.16c-2.22-2.22-2.22-5.86,0-8.08l6.25-6.25c2.22-2.22,5.86-2.22,8.08,0l.16.16c2.22,2.22,2.22,5.86,0,8.08l-6.25,6.25c-2.22,2.22-5.86,2.22-8.08,0Z"></path></g><path class="cls-5" d="M-265.89,278.49c20.28,33.32,58.91,52.18,96.09,59.33,40.34,7.77,84.04,3.47,121.14-14.64,19.14-9.35,36.84-22.75,48.92-40.48"></path></g><g><path class="cls-4" d="M557.97-18.01l-5.72,4.57c-2.07,1.66-4.91,2-7.32.87h0c-4.05-1.89-5.31-7.05-2.58-10.59l6.63-8.61c4.15-5.4,10.47-8.69,17.28-9h0c3.45-.16,6.89.46,10.07,1.81l15,6.36c5.65,2.39,11.6,3.99,17.68,4.76h0V13.43l-36.69-30.96c-4.88-3.98-9.43-4.42-14.35-.48Z"></path><rect class="cls-4" x="495.5" y="-38.16" width="19.49" height="55.03" rx="5.31" ry="5.31"></rect><line class="cls-4" x1="517.24" y1="7.06" x2="522.84" y2="11.26"></line><path class="cls-4" d="M523.24,23.32h0c-2.26-2.26-2.26-5.97,0-8.23l7.17-7.17c2.26-2.26,5.97-2.26,8.23,0h0c2.26,2.26,2.26,5.97,0,8.23l-7.17,7.17c-2.26,2.26-5.97,2.26-8.23,0Z"></path><path class="cls-4" d="M533.56,32.5h0c-2.26-2.26-2.26-5.97,0-8.23l10.36-10.36c2.26-2.26,5.97-2.26,8.23,0h0c2.26,2.26,2.26,5.97,0,8.23l-10.36,10.36c-2.26,2.26-5.97,2.26-8.23,0Z"></path><path class="cls-4" d="M548.79,38.06l-.16-.16c-2.22-2.22-2.22-5.86,0-8.08l6.25-6.25c2.22-2.22,5.86-2.22,8.08,0l.16.16c2.22,2.22,2.22,5.86,0,8.08l-6.25,6.25c-2.22,2.22-5.86,2.22-8.08,0Z"></path></g><g><g><path class="cls-4" d="M-4.03-18.01l-5.72,4.57c-2.07,1.66-4.91,2-7.32.87h0c-4.05-1.89-5.31-7.05-2.58-10.59l6.63-8.61c4.15-5.4,10.47-8.69,17.28-9h0c3.45-.16,6.89.46,10.07,1.81l15,6.36c5.65,2.39,11.6,3.99,17.68,4.76h0V13.43L10.32-17.52c-4.88-3.98-9.43-4.42-14.35-.48Z"></path><rect class="cls-4" x="47.01" y="-38.16" width="19.49" height="55.03" rx="5.31" ry="5.31"></rect><path class="cls-4" d="M3.08,14.64l13.43,10.74c2.72,2.17,3.15,6.16,1,8.86-1.24,1.55-3.08,2.36-4.94,2.36-1.38,0-2.76-.45-3.92-1.38l-6.37-5.09"></path><path class="cls-4" d="M12.52,3.05l15.54,12.42c3.13,2.51,3.66,7.1,1.18,10.21h0c-2.49,3.11-7.09,3.61-10.22,1.1L3.47,14.36"></path><path class="cls-3" d="M21.78-8.35c5.86,3.35,11.14,7.28,16.35,11.43.45.37.92.78,1.31,1.22,7.29,8.55-2.99,19.56-12.16,13.34-5.37-4.18-10.69-8.61-15.81-13.09-1.86-1.68.44-4.57,2.5-3.12,5.21,3.77,10.37,7.8,15.4,11.82.37.3.8.63,1.22.86,4.84,2.47,9.1-2.87,5.77-7.14-5.08-4.89-10.2-9.68-14.58-15.31h0Z"></path><path class="cls-4" d="M-13.21,38.06l-.16-.16c-2.22-2.22-2.22-5.86,0-8.08l6.25-6.25c2.22-2.22,5.86-2.22,8.08,0l.16.16c2.22,2.22,2.22,5.86,0,8.08l-6.25,6.25c-2.22,2.22-5.86,2.22-8.08,0Z"></path></g><g><path class="cls-4" d="M276.97-18.01l-5.72,4.57c-2.07,1.66-4.91,2-7.32.87h0c-4.05-1.89-5.31-7.05-2.58-10.59l6.63-8.61c4.15-5.4,10.47-8.69,17.28-9h0c3.45-.16,6.89.46,10.07,1.81l15,6.36c5.65,2.39,11.6,3.99,17.68,4.76h0V13.43l-36.69-30.96c-4.88-3.98-9.43-4.42-14.35-.48Z"></path><rect class="cls-4" x="328.01" y="-38.16" width="19.49" height="55.03" rx="5.31" ry="5.31"></rect><rect class="cls-4" x="214.5" y="-38.16" width="19.49" height="55.03" rx="5.31" ry="5.31"></rect><path class="cls-4" d="M284.08,14.64l13.43,10.74c2.72,2.17,3.15,6.16,1,8.86-1.24,1.55-3.08,2.36-4.94,2.36-1.38,0-2.76-.45-3.92-1.38l-6.37-5.09"></path><path class="cls-4" d="M293.52,3.05l15.54,12.42c3.13,2.51,3.66,7.1,1.18,10.21h0c-2.49,3.11-7.09,3.61-10.22,1.1l-15.54-12.42"></path><path class="cls-3" d="M302.78-8.35c5.86,3.35,11.14,7.28,16.35,11.43.45.37.92.78,1.31,1.22,7.29,8.55-2.99,19.56-12.16,13.34-5.37-4.18-10.69-8.61-15.81-13.09-1.86-1.68.44-4.57,2.5-3.12,5.21,3.77,10.37,7.8,15.4,11.82.37.3.8.63,1.22.86,4.84,2.47,9.1-2.87,5.77-7.14-5.08-4.89-10.2-9.68-14.58-15.31h0Z"></path><line class="cls-4" x1="236.24" y1="7.06" x2="241.84" y2="11.26"></line><path class="cls-4" d="M242.24,23.32h0c-2.26-2.26-2.26-5.97,0-8.23l7.17-7.17c2.26-2.26,5.97-2.26,8.23,0h0c2.26,2.26,2.26,5.97,0,8.23l-7.17,7.17c-2.26,2.26-5.97,2.26-8.23,0Z"></path><path class="cls-4" d="M252.56,32.5h0c-2.26-2.26-2.26-5.97,0-8.23l10.36-10.36c2.26-2.26,5.97-2.26,8.23,0h0c2.26,2.26,2.26,5.97,0,8.23l-10.36,10.36c-2.26,2.26-5.97,2.26-8.23,0Z"></path><path class="cls-4" d="M267.79,38.06l-.16-.16c-2.22-2.22-2.22-5.86,0-8.08l6.25-6.25c2.22-2.22,5.86-2.22,8.08,0l.16.16c2.22,2.22,2.22,5.86,0,8.08l-6.25,6.25c-2.22,2.22-5.86,2.22-8.08,0Z"></path></g><g><path class="cls-4" d="M557.97-17.01l-5.72,4.57c-2.07,1.66-4.91,2-7.32.87h0c-4.05-1.89-5.31-7.05-2.58-10.59l6.63-8.61c4.15-5.4,10.47-8.69,17.28-9h0c3.45-.16,6.89.46,10.07,1.81l15,6.36c5.65,2.39,11.6,3.99,17.68,4.76h0V14.43l-36.69-30.96c-4.88-3.98-9.43-4.42-14.35-.48Z"></path><rect class="cls-4" x="495.5" y="-37.16" width="19.49" height="55.03" rx="5.31" ry="5.31"></rect><line class="cls-4" x1="517.24" y1="8.06" x2="522.84" y2="12.26"></line><path class="cls-4" d="M523.24,24.32h0c-2.26-2.26-2.26-5.97,0-8.23l7.17-7.17c2.26-2.26,5.97-2.26,8.23,0h0c2.26,2.26,2.26,5.97,0,8.23l-7.17,7.17c-2.26,2.26-5.97,2.26-8.23,0Z"></path><path class="cls-4" d="M533.56,33.5h0c-2.26-2.26-2.26-5.97,0-8.23l10.36-10.36c2.26-2.26,5.97-2.26,8.23,0h0c2.26,2.26,2.26,5.97,0,8.23l-10.36,10.36c-2.26,2.26-5.97,2.26-8.23,0Z"></path><path class="cls-4" d="M548.79,39.06l-.16-.16c-2.22-2.22-2.22-5.86,0-8.08l6.25-6.25c2.22-2.22,5.86-2.22,8.08,0l.16.16c2.22,2.22,2.22,5.86,0,8.08l-6.25,6.25c-2.22,2.22-5.86,2.22-8.08,0Z"></path></g><path class="cls-5" d="M296.11,49.49c20.28,33.32,58.91,52.18,96.09,59.33,40.34,7.77,84.04,3.47,121.14-14.64,19.14-9.35,36.84-22.75,48.92-40.48"></path></g><g><g><path class="cls-4" d="M-4.03-17.01l-5.72,4.57c-2.07,1.66-4.91,2-7.32.87h0c-4.05-1.89-5.31-7.05-2.58-10.59l6.63-8.61c4.15-5.4,10.47-8.69,17.28-9h0c3.45-.16,6.89.46,10.07,1.81l15,6.36c5.65,2.39,11.6,3.99,17.68,4.76h0V14.43L10.32-16.52c-4.88-3.98-9.43-4.42-14.35-.48Z"></path><rect class="cls-4" x="47.01" y="-37.16" width="19.49" height="55.03" rx="5.31" ry="5.31"></rect><path class="cls-4" d="M3.08,15.64l13.43,10.74c2.72,2.17,3.15,6.16,1,8.86-1.24,1.55-3.08,2.36-4.94,2.36-1.38,0-2.76-.45-3.92-1.38l-6.37-5.09"></path><path class="cls-4" d="M12.52,4.05l15.54,12.42c3.13,2.51,3.66,7.1,1.18,10.21h0c-2.49,3.11-7.09,3.61-10.22,1.1L3.47,15.36"></path><path class="cls-3" d="M21.78-7.35C27.64-4,32.93-.08,38.14,4.08c.45.37.92.78,1.31,1.22,7.29,8.55-2.99,19.56-12.16,13.34-5.37-4.18-10.69-8.61-15.81-13.09-1.86-1.68.44-4.57,2.5-3.12,5.21,3.77,10.37,7.8,15.4,11.82.37.3.8.63,1.22.86,4.84,2.47,9.1-2.87,5.77-7.14C31.29,3.06,26.17-1.72,21.78-7.35h0Z"></path><path class="cls-4" d="M-13.21,39.06l-.16-.16c-2.22-2.22-2.22-5.86,0-8.08l6.25-6.25c2.22-2.22,5.86-2.22,8.08,0l.16.16c2.22,2.22,2.22,5.86,0,8.08l-6.25,6.25c-2.22,2.22-5.86,2.22-8.08,0Z"></path></g><path class="cls-5" d="M-265.89,49.49c20.28,33.32,58.91,52.18,96.09,59.33,40.34,7.77,84.04,3.47,121.14-14.64C-29.51,84.83-11.81,71.43.27,53.7"></path></g></g></pattern></defs><rect class="cls-1" width="2261" height="704"></rect></svg>