<svg width="212" height="1044" viewBox="0 0 212 1044" fill="none" xmlns="http://www.w3.org/2000/svg">
<g clip-path="url(#clip0_1222_1189)">
<g style="mix-blend-mode:multiply">
<path d="M-80.4498 1117.24C-23.5524 1087.18 -14.7527 1083.81 41.0837 1070.64C79.9235 1061.48 126.053 1035.53 149.986 1009.38C167.005 990.779 205.16 936.398 203.417 933.223C201.46 929.662 198.512 931.006 188.709 939.923C175.053 952.344 153.924 962.728 121.308 973.047C63.4144 991.364 48.9898 999.645 11.2107 1036.25C-1.18384 1048.27 -12.6225 1058.63 -14.2088 1059.29C-18.0805 1060.9 11.0959 1018.91 23.3692 1005.22C28.7384 999.226 46.4773 983.121 62.7891 969.428C137.207 906.958 171.277 861.868 193.422 796.538C204.995 762.394 203.407 757.164 187.905 778.373C179.403 790.004 154.539 813.836 114.406 848.82C103.075 858.697 87.6746 875.325 79.8082 886.175L65.6313 905.729L74.7881 877.134C81.6898 855.581 86.06 846.503 92.5314 840.272C132.394 801.894 136.463 733.941 106.121 613.343C101.69 595.732 97.3182 574.774 96.4061 566.772C94.7389 552.144 92.4239 548.054 87.1053 550.34C83.6395 551.83 76.2623 585.299 70.7597 624.497C66.2226 656.817 66.8682 690.697 73.2727 756.388C78.5779 810.803 77.5737 834.585 68.6528 865.794C61.603 890.457 50.7378 920.594 48.558 921.531C47.8649 921.829 48.432 912.818 49.8187 901.507C54.8393 860.556 50.6741 826.033 32.842 760.795C27.6405 741.765 21.884 716.618 20.0501 704.913C17.8812 691.069 15.4731 682.864 13.1605 681.435C10.4173 679.74 9.36697 681.228 8.56174 687.948C7.98775 692.738 3.58547 717.071 -1.22071 742.022C-13.3781 805.133 -13.57 818.191 -3.23152 878.689C1.31596 905.3 4.28617 917.097 12.1892 939.936C14.7135 947.232 17.3694 959.346 18.091 966.856C19.2884 979.32 18.2042 982.433 5.66424 1002.52C-26.1775 1053.52 -46.093 1078.01 -77.1042 1104.28C-100.544 1124.14 -101.654 1128.44 -80.4501 1117.24L-80.4498 1117.24Z" fill="#A6C9B9"/>
</g>
<g style="mix-blend-mode:multiply">
<path d="M-80.4498 -138.004C-23.5524 -107.948 -14.7527 -104.574 41.0837 -91.4056C79.9235 -82.2454 126.053 -56.2948 149.986 -30.1416C167.005 -11.5437 205.16 42.8375 203.417 46.0127C201.46 49.573 198.512 48.2299 188.709 39.3125C175.053 26.8915 153.924 16.5075 121.308 6.18833C63.4144 -12.1283 48.9898 -20.4095 11.2107 -57.0193C-1.18384 -69.0304 -12.6225 -79.3966 -14.2088 -80.0555C-18.0805 -81.6676 11.0959 -39.678 23.3692 -25.9821C28.7384 -19.9905 46.4773 -3.88519 62.7891 9.80763C137.207 72.2776 171.277 117.368 193.422 182.697C204.995 216.842 203.407 222.072 187.905 200.863C179.403 189.231 154.539 165.399 114.406 130.416C103.075 120.538 87.6746 103.911 79.8082 93.0604L65.6313 73.5061L74.7881 102.101C81.6898 123.654 86.06 132.733 92.5314 138.963C132.394 177.342 136.463 245.294 106.121 365.892C101.69 383.504 97.3182 404.461 96.4061 412.464C94.7389 427.092 92.4239 431.182 87.1053 428.895C83.6395 427.405 76.2623 393.937 70.7597 354.738C66.2226 322.418 66.8682 288.538 73.2727 222.848C78.5779 168.433 77.5737 144.65 68.6528 113.441C61.603 88.7784 50.7378 58.6414 48.558 57.7044C47.8649 57.4064 48.432 66.417 49.8187 77.7282C54.8393 118.68 50.6741 153.202 32.842 218.44C27.6405 237.47 21.884 262.617 20.0501 274.322C17.8812 288.166 15.4731 296.372 13.1605 297.8C10.4173 299.495 9.36697 298.008 8.56174 291.288C7.98775 286.497 3.58547 262.164 -1.22071 237.214C-13.3781 174.102 -13.57 161.045 -3.23152 100.546C1.31596 73.9354 4.28617 62.1386 12.1892 39.2991C14.7135 32.0037 17.3694 19.8896 18.091 12.3791C19.2884 -0.0847217 18.2042 -3.1971 5.66424 -23.2829C-26.1775 -74.2862 -46.093 -98.7718 -77.1042 -125.046C-100.544 -144.905 -101.654 -149.205 -80.4501 -138.004L-80.4498 -138.004Z" fill="#A6C9B9"/>
</g>
</g>
<defs>
<clipPath id="clip0_1222_1189">
<rect width="212" height="1044" fill="white"/>
</clipPath>
</defs>
</svg>
