<svg xmlns="http://www.w3.org/2000/svg" xmlns:xlink="http://www.w3.org/1999/xlink" id="Layer_1" x="0px" y="0px" viewBox="0 0 603.4 495.2" style="enable-background:new 0 0 603.4 495.2;" xml:space="preserve"><style type="text/css">	.st0{fill:#E0E0E0;}	.st1{fill:#FAFAFA;}	.st2{fill:#C8856A;}	.st3{fill:#263238;}	.st4{fill:#37474F;}	.st5{fill:#455A64;}	.st6{fill:#F0F0F0;}	.st7{fill:#90CAF9;}	.st8{fill:#AF6152;}	.st9{fill:#FFA8A7;}	.st10{opacity:7.000000e-02;enable-background:new    ;}	.st11{opacity:0.3;enable-background:new    ;}	.st12{opacity:0.5;enable-background:new    ;}	.st13{fill:#F28F8F;}	.st14{opacity:0.4;enable-background:new    ;}	.st15{fill:#9A4A4D;}	.st16{opacity:0.6;fill:#F28F8F;enable-background:new    ;}	.st17{fill:#F5F5F5;}	.st18{opacity:0.6;fill:#263238;enable-background:new    ;}	.st19{opacity:0.7;fill:#FFFFFF;enable-background:new    ;}	.st20{fill:#C0DB23;}	.st21{opacity:0.15;enable-background:new    ;}	.st22{fill:#F73426;}	.st23{opacity:0.1;fill:#FFFFFF;enable-background:new    ;}	.st24{opacity:0.1;enable-background:new    ;}</style><g id="freepik--Floor--inject-63">	<g id="freepik--floor--inject-63_00000080175380742618251360000003727170245015918521_">					<ellipse id="freepik--floor--inject-63" transform="matrix(0.2785 -0.9604 0.9604 0.2785 -47.3111 488.8557)" class="st0" cx="301.7" cy="275.9" rx="189.2" ry="290"></ellipse>		<g id="freepik--Lines--inject-63">			<path class="st1" d="M105.8,243.4l19.8,11.4c2.7,1.4,5.9,1.4,8.7,0l137.6-79.4c2.4-1.4,2.4-3.6,0-5L252,159     c-2.7-1.4-5.9-1.4-8.7,0l-137.6,79.4C103.4,239.8,103.4,242,105.8,243.4z"></path>			<path class="st1" d="M219,139.8l-19.8-11.4c-2.7-1.4-5.9-1.4-8.7,0L53,207.8c-2.4,1.4-2.4,3.6,0,5l19.8,11.4     c2.7,1.4,5.9,1.4,8.7,0L219,144.8C221.4,143.4,221.4,141.2,219,139.8z"></path>			<path class="st1" d="M173.6,108.4L153.9,97c-2.7-1.4-5.9-1.4-8.7,0L7.6,176.4c-2.4,1.4-2.4,3.6,0,5l19.8,11.4     c2.7,1.4,5.9,1.4,8.7,0l137.6-79.4C176,112,176,109.7,173.6,108.4z"></path>			<path class="st1" d="M264.2,335l19.8,11.4c2.7,1.4,5.9,1.4,8.7,0L430.2,267c2.4-1.4,2.4-3.6,0-5l-19.8-11.4     c-2.7-1.4-5.9-1.4-8.7,0L264.2,330C261.8,331.4,261.8,333.6,264.2,335z"></path>			<path class="st1" d="M377.4,231.5L357.6,220c-2.7-1.4-5.9-1.4-8.7,0l-137.6,79.4c-2.4,1.4-2.4,3.6,0,5l19.8,11.4     c2.7,1.4,5.9,1.4,8.7,0l137.6-79.4C379.8,235.1,379.8,232.8,377.4,231.5z"></path>			<path class="st1" d="M304.8,189.5c-2.7-1.4-5.9-1.4-8.7,0l-137.6,79.4c-2.4,1.4-2.4,3.6,0,5l19.8,11.4c2.7,1.4,5.9,1.4,8.7,0     l137.6-79.4c2.4-1.4,2.4-3.6,0-5L304.8,189.5z"></path>			<path class="st1" d="M425,424.9l19.8,11.4c2.7,1.4,5.9,1.4,8.7,0L591,356.9c2.4-1.4,2.4-3.6,0-5l-19.8-11.4     c-2.7-1.4-5.9-1.4-8.7,0L425,419.9C422.6,421.3,422.6,423.5,425,424.9z"></path>			<path class="st1" d="M538.2,321.4l-19.8-11.4c-2.7-1.4-5.9-1.4-8.7,0l-137.6,79.4c-2.4,1.4-2.4,3.6,0,5l19.8,11.4     c2.7,1.4,5.9,1.4,8.7,0l137.6-79.4C540.6,325,540.6,322.7,538.2,321.4z"></path>			<path class="st1" d="M465.6,279.4c-2.7-1.4-5.9-1.4-8.7,0l-137.6,79.4c-2.4,1.4-2.4,3.6,0,5l19.8,11.4c2.7,1.4,5.9,1.4,8.7,0     l137.6-79.4c2.4-1.4,2.4-3.6,0-5L465.6,279.4z"></path>		</g>	</g></g><g id="freepik--Character--inject-18">	<g id="freepik--Bottom--inject-18">		<path class="st2" d="M205.2,241.7c-0.6-2.6-1.8-4.7-2.2-6.6c-0.6-2.2-0.7-4.5-0.3-6.7c0.7-3.4,1.5-6.8,2.5-10.1    c1.4-4.6,5.1-7.5,15.2-19.5l-15.8-3.8c-2.3,5.1-6.7,14.1-7.5,14.8l-0.2,0.2l0,0c-1.4,1.1-3.6,1.7-5.5,3.5l0,0    c-1.2,1.1-1.6,2.9-1,4.4l0.2,0.7c0.5,1.5,0.9,3.1,1.1,4.6c-0.2,2.4-0.7,4.7-1.7,6.8c-0.8,2.1-0.6,4.4,0.6,6.3    c2,3.2,4.9,5.7,8.2,7.5C204.1,245.9,205.9,244.3,205.2,241.7z"></path>		<path class="st3" d="M190.2,214.3c-0.9,0.4-1.7,1.2-2.1,2.1c0,1.8,0.3,3.5,0.9,5.2c0.8,2.3,1.1,3.2,0.5,5.1    c-0.9,2.3-1.4,4.7-1.2,7.2c0.4,4.4,2.8,8.4,6.5,10.8c2.4,2,5.5,2.9,8.6,2.5c1.3-0.2,1.6-2,1.6-2L190.2,214.3z"></path>		<path class="st4" d="M197.1,209.7c-0.8,0.7-1.4,1.6-1.6,2.7c-0.3,2.6,2.4,5.9,3.1,6.7c0.5-0.5,1.3-0.8,2.1-0.7    c1.7,0,4.6,0.3,4.9,1c0.3,0.7-2.2,6.1-2.6,10c-0.3,3.2,0.3,6.3,1.7,9.2c1,2,2.7,4.8-0.1,7.3c-1.7,0.5-8.6-0.4-12.7-6.2    c-3.6-5.2-2-10.5-1.1-13.3s0.1-4.4-0.7-7.7c-0.5-1.4-0.5-2.9,0-4.3C192.1,212.1,194.5,210.6,197.1,209.7z"></path>		<path class="st1" d="M191.9,239.6c1.3-2.3,3.6-4,6.2-4.4c3.9-0.8,5.3,0,6.2,1.3c0.9,1.3,4.7,7.4,0.4,9.4    C203.4,246.7,196.6,246.7,191.9,239.6z"></path>		<path class="st3" d="M198.7,219.1c0.3,0.2,0.4,0.5,0.5,0.9c0,0.3,0,0.7-0.1,1c-0.2,0.6-0.3,1.2-0.5,1.9c-0.3,1.2-0.6,2.5-0.9,3.7    c-0.2,1.2-0.4,2.5-0.5,3.8c-0.1,1.3-0.1,2.6,0.1,3.8c-0.4-1.2-0.6-2.5-0.5-3.8c0-1.3,0.1-2.6,0.4-3.9c0.3-1.3,0.6-2.5,1-3.8    c0.2-0.6,0.4-1.2,0.7-1.8c0.1-0.3,0.2-0.6,0.3-0.9C199,219.6,198.9,219.3,198.7,219.1z"></path>		<path class="st1" d="M196.5,233.2c1.5-0.7,5.8-0.9,6.7,0.5v0.5c0.2-0.4,0.2-0.9,0-1.4c-0.3-0.8-3.1-1.7-6.7-0.5    C196.1,232.5,196,233.3,196.5,233.2z"></path>		<path class="st1" d="M196.7,229.9c1.5-0.7,5.4-1,6.3,0.2v0.4c0.2-0.4,0.2-0.9,0-1.2c-0.3-0.8-3-1.7-6.5-0.3    C196.2,229.3,196.2,230,196.7,229.9z"></path>		<path class="st1" d="M197.1,226.5c1.5-0.6,5.5-0.7,6.3,0.6l-0.1,0.4c0.3-0.3,0.4-0.8,0.3-1.2c-0.2-0.9-3-1.9-6.5-0.9    C196.7,225.9,196.7,226.6,197.1,226.5z"></path>		<path class="st1" d="M197.7,223.7c1.6-0.6,5.7-0.8,6.6,0.6l-0.1,0.4c0.3-0.4,0.4-0.8,0.3-1.2c-0.2-0.9-3.2-1.8-6.7-0.8    C197.2,223,197.1,223.8,197.7,223.7z"></path>		<path class="st2" d="M261.2,256.6c-1.4-0.8-2.6-1.8-4-2.6c-1.4-0.8-2.7-1.7-3.8-2.8c-2-2.1-3.5-4.6-4.5-7.3    c-0.5-1.1-1.3-3.1-1.7-4.3c-0.6-1.9,0-21.4,0-26.9l-14.8,8c1.4,5.6,2.3,11.3,2.8,17.1c-0.3,4.6-2.7,10.6,1.6,13.7    c0.9,0.6,1.8,1,2.7,1.5c2.9,1.7,4.9,4.7,7.6,6.9c2,1.6,4.3,2.7,6.7,3.4c1,0.4,2,0.6,3.1,0.6c1.4-0.1,2.7-0.2,4-0.5    c0.8-0.1,1.6-0.4,2.4-0.8c0.7-0.4,1.2-1.1,1.4-2c0.1-0.9-0.3-1.7-1-2.3c-0.6-0.6-1.4-1.1-2.1-1.5L261.2,256.6z"></path>		<path class="st3" d="M233.2,248.9c-0.3,1-0.3,2.1,0,3.1c1.1,1.1,2.4,2.1,3.8,2.7c1.8,0.9,3.2,2.4,4,4.1c0.9,1.6,2.1,3,3.5,4.2    c2.6,2.3,6.3,3.5,12.6,3.3c3.9-0.2,7.1-1.7,8-2.8c0.5-0.6,0.7-1.5,0.6-2.3L233.2,248.9z"></path>		<path class="st4" d="M234.4,238.5c0-0.6,0.6-1.2,0.8-1c-0.1,1,0,2,0.4,3c1.4,1.9,3.5,3.2,5.8,3.7c0,0-0.2-0.7,1.2-1.2    c1.5-0.5,5.2-1.9,5.9-1.5s1.5,4.2,4,7.6c2.2,2.9,5.1,5.1,8.4,6.5c2.2,0.9,4.7,2.7,4.7,5.6c-2.3,3.1-8.4,3.5-12.2,3.1    c-4.7-0.4-9-3.1-11.4-7.1c-1.4-2-3.3-3.7-5.4-4.9c-1.3-0.9-2.7-1.6-3.3-3.4C232.6,244.3,234.3,243.6,234.4,238.5z"></path>		<path class="st1" d="M249.7,263.6c-0.3-2.4,0.8-5.4,4.6-7.3c3.8-1.9,5.4-1.5,6.7-1s5.8,2.7,4.6,6    C265.2,262.9,257.3,266.4,249.7,263.6z"></path>		<path class="st3" d="M241.3,244.1c0.4,0,0.7,0.1,1,0.3c0.2,0.3,0.4,0.6,0.6,0.9l0.9,1.8c0.6,1.2,1.3,2.4,2,3.6    c0.7,1.2,1.4,2.3,2.2,3.4c0.8,1.1,1.7,2.1,2.7,2.9c-1.2-0.7-2.2-1.6-3.1-2.6c-0.9-1-1.7-2.2-2.4-3.4c-0.7-1.2-1.3-2.4-1.9-3.6    c-0.3-0.6-0.5-1.3-0.8-1.9c-0.1-0.3-0.2-0.6-0.4-0.9C242,244.4,241.7,244.2,241.3,244.1z"></path>		<path class="st1" d="M249,256.5c1.2-1.2,6.4-3.5,8.2-2.9l0.4,0.3c-0.2-0.4-0.5-0.8-1-1c-0.8-0.5-5.4,0.4-8.3,3    C248.1,256.2,248.5,256.8,249,256.5z"></path>		<path class="st1" d="M246.8,253.9c1.2-1.2,5.8-3.2,7.5-2.6l0.4,0.3c0,0,0-0.5-0.9-1c-0.9-0.5-4.7,0-7.6,2.6    C246,253.6,246.4,254.2,246.8,253.9z"></path>		<path class="st1" d="M245.3,251.2c1.2-1.2,5.3-2.9,7-2.3l0.3,0.4c-0.1-0.4-0.3-0.8-0.7-1c-0.8-0.6-4.2-0.3-7.3,2.2    C244.5,250.9,244.9,251.5,245.3,251.2z"></path>		<path class="st1" d="M243.9,248.8c1.2-1.2,5.3-2.9,7-2.3l0.2,0.4c-0.1-0.4-0.3-0.8-0.6-1c-0.8-0.6-4.2-0.3-7.2,2.2    C243.1,248.5,243.5,249.1,243.9,248.8z"></path>		<path class="st4" d="M220,138.5l9.9-16.4c0,0,14.8-9.8,20.1-16.2c4.4,9.9,6.1,20.7,5.1,31.5c-1.5,13.9-6.5,27.2-14.4,38.6    c-4.3,6.1-29.1,34.3-29.1,34.3c-2.5-0.2-9.4-4.6-10.6-8.1c0,0,5.9-14.6,8.7-19.9c3.6-6.9,4.6-10.1,12-16.4    C220.3,159.3,220,138.5,220,138.5z"></path>		<path class="st3" d="M203.4,200.8l-0.5-0.3l0.3-0.5c6.5-12.5,14.6-28.1,31-33.2l0.2,0.6c-16.2,5.1-24.2,20.4-30.7,32.8    L203.4,200.8z"></path>		<path class="st3" d="M240.8,134.4l-20.3,20.3c0.1,3.8,0.5,7.6,1,11.3c-1.8,1.5-3.5,3.2-5.1,4.9l7.7,12.5c-0.8,4.1-0.8,8.3,0,12.4    c6.8-7.9,14.3-16.8,16.5-19.9c2.5-3.6,4.7-7.3,6.6-11.2l-3.5-29.3c0,0,5.6-2.9,7.2-8C247.8,132,240.8,134.4,240.8,134.4z"></path>		<path class="st4" d="M216.5,156.1c-3.3-9.1-5.3-14.9-6.4-21.3c-1.7-9.1-0.1-14.3,1.2-17.2c3.8-8.7,5.9-11.5,7.3-14.5    c0,0,2.9,6,15.8,7.1c14.8,1.3,16.6-4.2,16.6-4.2c-0.5,5.5,1.1,12.5-0.6,17c-3.4,9.2-9.5,11.4-9.5,11.4l4.2,25.5    c1.7,13.5,2.4,11.2,2.5,37.5c0,11.6,0.1,29.9,0.1,29.9c-1.8,1.1-10.3,2.4-13.5,1.1c0,0-3.2-11.9-5.1-19.8c-3.6-15.2-4-19-2.9-26.3    C226.2,182.3,220.2,166.5,216.5,156.1z"></path>		<path class="st3" d="M236.9,228.9c-1.5-7.1-4.4-21.4-5.7-29c-0.9-4.6-1.1-9.3-0.7-13.9c0.1-1.3,0.2-2.6,0.1-4    c-0.2-4.4-3.5-14.1-6.9-24.3c-3-9-6.2-18.4-7.1-23.8h0.3c1.2,0,2.4-0.4,3.4-1.2c3-2.4,5.1-8.2,6.2-17.3h-0.6    c-1,8.8-3.1,14.7-5.9,16.9c-0.9,0.8-2.2,1.2-3.4,1.1c-1.3-8.7,1-14.9,3-20.4c0.5-1.5,1.1-3,1.5-4.4l-0.6-0.2    c-0.4,1.4-0.9,2.9-1.5,4.4c-2,5.6-4.3,12-3,21c0.8,5.5,4.1,15.1,7.2,24.3c3.3,9.7,6.7,19.8,6.9,24.1c0,1.3,0,2.6-0.1,3.9    c-0.4,4.7-0.2,9.4,0.7,14c1.3,7.5,4.2,21.7,5.6,28.9H236.9z"></path>		<path class="st5" d="M233.8,229c2.5,0.9,5.1,1.1,7.7,0.7c5.2-0.6,6.2-2.2,6.2-2.2v-7.6c0,0-1.9,1.8-7.2,2.4    c-2.7,0.5-5.5,0.3-8.2-0.5L233.8,229z"></path>		<path class="st5" d="M200.5,202.4c0.5,2.7,2.1,5.2,4.4,6.6c4.3,3,6.5,1.7,6.5,1.7l4.8-5.9c-2.8,0.5-5.7-0.3-7.9-2.1    c-2.6-1.6-4.3-4.3-4.7-7.4L200.5,202.4z"></path>	</g>	<g id="freepik--Top--inject-18">		<path class="st2" d="M267,121.5l4.2,4.1c2.3,2.3,3.5,4.7,8.2,7.7c2.2,1.4,5.1,3,7.7,2.2c0.6-0.3,1.2-0.4,1.9-0.5    c0.4,0,0.7,0.1,1.1,0.2c0.4,0.1,0.9,0.1,1.3,0c0.3,0,0.5-0.1,0.7-0.3c0.3-0.2,0.4-0.7,0.7-0.9c0.3-0.3,0.8-0.4,1.2-0.3    c0.4,0.1,0.8,0.2,1.2,0.2c0.4,0,1,0,1.2-0.4c0.2-0.5,0.1-1-0.3-1.3c-1.9-2.2-4.6-2.9-7-4.3c-0.8-0.5-3.6-1.8-3.4-2.5s1.9,0,3.6,0    c2.5-0.2,3.3-1.9,1.9-2.2c-2.1-0.6-4.2-1.4-6.2-2.3c-2.7-1.1-4-0.9-5.6-2.1c-2.1-1.6-4-3.5-5.6-5.6c-2.9-4.2-9.7-12.8-9.7-12.8    s-6.2-19.6-7.9-23.1c-3-6.2-5.2-8.2-12.9-9.2l0.2,0.9l0.7,17.9c0,0,5.8,16.6,6.4,18.5c0.7,1.9,2.4,3.5,5.1,6.2    C258.6,114.3,267,121.5,267,121.5z"></path>		<path class="st6" d="M243.4,67.6c3.9,0.4,7.4,1,10.1,3.9c2.7,2.9,8.9,16.1,8.9,16.1s-2.5,9.7-17.1,10.1L243.4,67.6z"></path>		<path class="st1" d="M237.7,67.1c0,0-16.6,0.6-19.9,1.2c-2,0.4-5.1,3.3-5.2,14.6c-0.1,7-1.4,28.8-1.4,28.8    c9.2,7.9,39.7,5.1,43.8,0.2c0,0-0.4-11.3-0.5-16.5c1-2.3,1.7-4.7,1.8-7.2c0-4.7-0.9-6.5-4.9-12c-2.3-3.2-5-6.1-8-8.6L237.7,67.1z"></path>		<path class="st0" d="M212.6,83c0,2.4,0,4.8-0.1,7.2s-0.2,4.8-0.3,7.2l-0.3,7.2l-0.4,7.2l-0.1-0.2c1.5,1.2,3.1,2.1,4.9,2.6    c1.8,0.6,3.6,1.1,5.5,1.4c3.7,0.6,7.5,0.9,11.3,0.9c3.8,0,7.6-0.3,11.3-0.9c1.9-0.3,3.7-0.7,5.6-1.2l1.4-0.4    c0.4-0.2,0.9-0.3,1.3-0.5c0.9-0.3,1.7-0.8,2.4-1.5c-0.7,0.7-1.4,1.3-2.3,1.7c-0.4,0.2-0.9,0.4-1.3,0.6c-0.4,0.2-0.9,0.3-1.4,0.5    c-1.8,0.6-3.7,1-5.6,1.3c-3.8,0.6-7.6,1-11.4,1.1c-3.8,0.1-7.7-0.2-11.4-0.8c-1.9-0.3-3.8-0.8-5.6-1.4c-1.8-0.6-3.5-1.6-5.1-2.8    l-0.1-0.1v-0.2l0.9-14.4C212.1,92.5,212.4,87.7,212.6,83z"></path>		<path class="st4" d="M250.9,31.8c-4.7-6.1-12.5-8.7-19.9-6.7c-4.1,1-8.4,3.4-9.6,7.7c-3.4,0-5.7,3.6-6.1,10.1s-0.5,17.3,1,19.6    c0.8,1.5,2.2,2.6,3.8,3.2c-0.8-1.1-1.5-2.3-1.9-3.5c1,1.5,2.4,2.6,4.1,3.4c2.7,1.3,5.6,2,8.6,1.9c3.9,0.2,7.8-0.3,11.5-1.5    c-1.1-0.5-2-1.4-2.5-2.6c1.7,1.7,4.3,2.2,6.5,1.3c-1.9-0.4-3-2.7-3.1-6.7c0-1.2,0-4.1,0-7.6c2.4-1.1,4.9-1.5,6.3-4.2    c1-2,1.2-4.3,0.6-6.5c1.1,0.9,1.7,2.2,1.7,3.5C253.9,39.4,253.4,35,250.9,31.8z"></path>		<path class="st2" d="M225.4,64.8c0-1.4-0.3-8.6-0.3-8.6c0,0.5-2.7,2-5.1-0.7c-2.4-2.7-2.5-5.7-1.2-7.6c1.4-1.9,5.1-2,6.4,1.4    c2.3,0.5,3.2-2.9,1.5-6.2c0.1-4.2,4.4-4,6.5-9.4c5.4,2.8,10.4,0.5,13.9,4.6c1,3.5,1.5,7.2,1.3,10.9c0.1,7.5-2,11.2-4.5,12.4    c-1.8,0.9-3.9,1.2-5.9,1l0.2,2.4l0,0c0,1.2,0,1.7,1.1,2.1c0.8,0.3,2.4,0.6,2.4,0.6s3.4,3.2-4,4.2c-11.1,1.6-17.2-3.8-17.2-3.8    l2.6-0.5C225.2,67.2,225.4,66.3,225.4,64.8z"></path>		<path class="st7" d="M221.9,54.5c0,0.6,0.5,1.1,1.2,1.1c0.6,0,1.1-0.5,1.1-1.2c0-0.6-0.5-1.1-1.2-1.1c0,0,0,0,0,0    C222.3,53.4,221.9,53.9,221.9,54.5C221.9,54.5,221.9,54.5,221.9,54.5z"></path>		<path class="st8" d="M235.3,53.8l4,1.2c-0.3,1.1-1.4,1.8-2.5,1.5c0,0,0,0-0.1,0C235.6,56.1,234.9,54.9,235.3,53.8z"></path>		<path class="st9" d="M235.5,54.7c1.1,0,2.1,0.7,2.3,1.8c-0.4,0.1-0.8,0.1-1.2,0c-0.8-0.2-1.3-0.9-1.5-1.7    C235.3,54.7,235.4,54.7,235.5,54.7z"></path>		<path class="st4" d="M246.9,41.6l-3.2-0.3c0.1-0.9,0.8-1.5,1.7-1.5c0,0,0,0,0,0C246.3,39.9,246.9,40.7,246.9,41.6z"></path>		<path class="st4" d="M231.6,41.9l3.2-0.7c-0.1-0.9-0.9-1.4-1.8-1.3c0,0-0.1,0-0.1,0C232.1,40.2,231.5,41,231.6,41.9z"></path>		<path class="st3" d="M243.3,45.7c0,0.7,0.5,1.4,1.3,1.5c0.7,0.1,1.4-0.4,1.4-1.2c0,0,0,0,0-0.1c0-0.7-0.5-1.4-1.2-1.4    C244,44.4,243.4,44.9,243.3,45.7C243.3,45.6,243.3,45.7,243.3,45.7z"></path>		<path class="st3" d="M233.5,46c0,0.7,0.5,1.4,1.3,1.4c0.7,0.1,1.4-0.4,1.4-1.2c0,0,0,0,0,0c0-0.8-0.5-1.4-1.3-1.5    C234.2,44.7,233.6,45.2,233.5,46C233.5,46,233.5,46,233.5,46z"></path>		<path class="st3" d="M229.6,42.8l-7.9,3.7c0.9,0,1.7,0.4,2.4,1l5.8-2.8L229.6,42.8z"></path>		<path class="st3" d="M250.5,42.3c-2.1-0.3-4.3-0.2-6.4,0.2c-1.9,0.6-2.5,1.3-3.6,1.3s-1.8-0.6-3.8-1.2c-2.1-0.3-4.2-0.3-6.2,0    c-0.7,0-1.3,0.2-1.3,1.1c0,0.9,0.6,1,0.8,1.7c0.3,2.4,0.8,5.5,3.9,5.6c6.5,0.4,4.4-6,6.7-5.7c0.9,0.2,0.7,1.9,1.3,3    c0.2,0.5,0.5,0.9,0.8,1.3c1.7,1.6,4.4,1.5,6-0.2c0.3-0.3,0.5-0.7,0.7-1.1c0.5-1.1,0.5-2.9,1-3.8C251,44.2,251.5,42.6,250.5,42.3z     M238.1,47.3c-0.1,0.7-0.5,1.3-0.9,1.8c-0.7,0.7-1.7,1.1-2.7,1.1c-1.4,0.1-2.7-0.7-3.2-2c0-0.1-0.1-0.3-0.1-0.4    c-0.3-1-0.7-3.2-0.1-3.8c1-1,5.7-1,7,0.6C238.4,45.5,238.4,46.4,238.1,47.3L238.1,47.3z M249.2,46.8c-0.2,1.2-0.8,2.3-1.9,2.9    c-1.7,0.8-3.7,0.2-4.5-1.5c0-0.1-0.1-0.1-0.1-0.2c-1.1-3.6,0.4-4.5,4-4.8C249.7,43,249.8,43.8,249.2,46.8L249.2,46.8z"></path>		<path class="st8" d="M244.4,50.9l-4.4,1.9l-0.4-6.7c0.1-0.3,0.4-0.5,0.8-0.6l1.1,1.5l2.7,3.7L244.4,50.9z"></path>		<path class="st8" d="M238.2,62.4c-5.2-0.5-10.1-2.1-11.2-4.4c0,1.5,0.8,2.9,2.1,3.8c3,1.3,6.1,2.1,9.3,2.5L238.2,62.4z"></path>		<path class="st0" d="M199.3,83.1c-1.9,3.1,0,7.7,3.9,11.3c3.9,3.6,11.3,6.9,12.7,2.7c1.4-4.2-2.4-9.9-4.7-12.1    C208.9,82.9,201.4,79.6,199.3,83.1z"></path>		<path class="st2" d="M217.7,68.5c-2.6,0.5-7.3,0.6-11,6.4c-4.8,8.1-8.9,16.6-12.3,25.4c-1.9,5.1-2.3,7.7,0.5,10.9    c2.4,2.8,12.7,11.9,15.8,14.8c2.1,1.9,5.1,5.7,7.1,7.2c0,0,4.2-1,6.4-8.7c0,0,0.2-1.1,2.9-0.2c1.9,0.7,4.3,0.8,5.5-0.3    c1.1-1.1-1.5-1.7-2.9-2.5c-2-1.4-4.2-2.3-6.6-2.7c-3.4-0.6-4.4-0.8-7.7-4.2c-2.7-2.9-5.1-6-7.3-9.3l8.7-18    C219.8,80.8,220.5,74.6,217.7,68.5z"></path>		<path class="st8" d="M208,105.3c-2.1-2.8-6.7-2.9-6.7-2.9c2.6-0.6,5.2,0,7.3,1.7L208,105.3z"></path>		<path class="st6" d="M217.8,68.3c-2.5,0.2-5.7,0.7-7.2,2c-1.9,1.5-3.5,3.1-5.1,4.9c-3.4,4-6.2,7.9-6.2,7.9s4-1.5,8.9,2.2    c3.9,2.9,6.7,7,7.7,11.8c1.7-4.8,3.2-10,4.1-13C221,81.2,221.5,72.9,217.8,68.3z"></path>	</g></g><g id="freepik--Shadows--inject-63">	<ellipse id="freepik--shadow--inject-63" class="st10" cx="377.7" cy="384" rx="44.2" ry="25.5"></ellipse>			<ellipse id="freepik--shadow--inject-63_00000010307151158007213930000009652596246988742843_" class="st10" cx="311.4" cy="265.7" rx="53.3" ry="30.8"></ellipse>			<ellipse id="freepik--shadow--inject-63_00000079447692551782191520000015030094439038153139_" class="st10" cx="217.2" cy="236.9" rx="53.3" ry="30.8"></ellipse></g><g id="freepik--character-3--inject-63">	<g id="freepik--character--inject-63">		<path class="st7" d="M302.4,120c-6.1,0.2-10.4,1.6-14.8,6c-3.2,3.2-11.1,25.5-8.2,40.6c2.2,11.6,15.9,17.8,26.4,12.5    c8.3-4.1,9.5-21,9.3-28.6S302.4,120,302.4,120z"></path>		<path class="st11" d="M302.4,120c-6.1,0.2-10.4,1.6-14.8,6c-3.2,3.2-11.1,25.5-8.2,40.6c2.2,11.6,15.9,17.8,26.4,12.5    c8.3-4.1,9.5-21,9.3-28.6S302.4,120,302.4,120z"></path>		<path class="st7" d="M294.8,125.5c0,0-1.6-2.2-5.4-1c0,0-4.1,4.8-7.2,13.9c0,0-1,0-0.3-2.6s3.2-8.7,4.9-10.9s3.6-5.5,15.2-6.6    c3.7-0.3,14.5,0.6,17.8,1.8c5.1,1.8,4,4.7,4,4.7L294.8,125.5z"></path>		<path class="st12" d="M294.8,125.5c0,0-1.6-2.2-5.4-1c0,0-4.1,4.8-7.2,13.9c0,0-1,0-0.3-2.6s3.2-8.7,4.9-10.9s3.6-5.5,15.2-6.6    c3.7-0.3,14.5,0.6,17.8,1.8c5.1,1.8,4,4.7,4,4.7L294.8,125.5z"></path>		<path class="st9" d="M346,268.2c-4.4-3.7-10.9-8.4-12.1-14.4c0,0,0.6-4.8,0.9-7.7c0.9-9.9,1.2-17.8,2.1-25.5    c1-9.4,1.4-10.5,1.2-18.5c-0.1-2.7-0.2-5.6-0.4-8.6c-0.2-9.4-0.8-18.5-0.7-25.5c0,0-13,0.2-23.3,0.9c-11.1,1.4-14.9,3.9-14.6,5.3    c-1,5-1.5,10.1-1.7,15.2c-0.3,6.8-1.4,22.8-1.4,22.8c-2.6,2.1-4.6,5.1-6.7,9.8c-1.2,2.8-4.4,11.8-6.6,19.2    c-0.8,2.8-1.5,4.9-1.8,5.5c-0.3,1-0.9,2-1.5,2.9c-0.8,0.8-1.7,1.6-2.6,2.3c-0.8,0.7-1.4,1.5-1.8,2.5c-0.1,0.4-0.2,0.7-0.1,1.1    c0,1.3,1,2.5,1.6,3.6c1.1,2.1,1.5,4.4,1.2,6.8c-0.2,4.2,2.3,8.1,6.2,9.6c2.2,0.9,4.7,1,7,0.3c0.9-0.3,2-0.9,2-1.9    c-0.1-0.7-0.4-1.4-0.9-1.9c-3.2-4.5-4.6-10-3.9-15.5c0.5-4,2.8-8.6,4.9-12c4.8-7.9,10-15.6,14.3-22.1c5.3-8,5.8-9.3,7.7-16.9    c0.9-3.6,1.8-7.4,2.8-11.2c1.3,5.9,3.2,16.3,3.6,18.6c0,0.3-0.1,0.8-0.1,1.3c-0.8,3.6-0.8,6.1-0.8,10.8c0,3,2,15.6,3.1,23.2    c0.2,1.7,0.5,3.4,0.7,5.1c0,1.6-0.4,3.3-1.2,4.7c-0.6,1.2-0.8,2.6-0.6,4c0.1,0.4,0.2,0.8,0.4,1.2c0.7,1.2,2.1,1.6,3.2,2.4    c1.4,0.9,2.6,2.6,3.8,3.9c1.1,1.3,2.5,2.4,4,3.3c1.8,0.7,3.8,1.1,5.8,1.2c1.1,0.1,2.3,0,3.4-0.2c1,0,2.1-0.3,3-0.7    c0.8-0.4,1.3-1.2,1.4-2.1C347.4,269.7,346.8,268.7,346,268.2z"></path>		<path class="st4" d="M333.9,253.8c-0.5,0.7-3.1,1.1-4.2,1.5s-1,3.1-1,3.1c-1,0-1.1-0.8-1.5-2.1c-0.6-2.2-2.3-2.2-2.8-2.5v-0.7    c0,0-0.6-0.2-0.7,0.9c-0.2,1.4-0.5,2.9-1,4.3c-0.3,1-0.8,4.5-0.1,5.5c0.6,0.8,1.4,1.3,2.3,1.7c1.8,1,3.4,2.4,4.7,4.1    c1,1.4,3.9,4.7,10.3,4.8s8.2-2.2,8.2-2.2c0.9-1.6,0.4-3.6-1.1-4.6c-2.6-2-4.2-2.3-7-5.4C337.7,259.5,335.7,256.8,333.9,253.8z"></path>		<path class="st4" d="M288.6,254.5c-1.7-0.1-3.2-0.7-4.5-1.8c-2.1-1.5-2.9,2.8-2.9,2.8c-0.7-0.5-1-1-0.5-3c0.4-1.8,0.4-2.9-0.6-3.9    l0.5-1c0,0-0.6-1-1.8,1.4s-4.4,3.2-4.8,6.7c0.3,1.3,0.8,2.5,1.5,3.7c1.3,1.8,1.9,4,1.7,6.2c-0.2,2.7,0.9,7.2,4,9.3    c3.3,2.3,7.6,2.8,11.3,1.3c1.5-1.2,1.7-3.3,0.5-4.7c0,0-0.1-0.1-0.1-0.1c-2.1-3-3-4.4-3.7-7S288.6,254.5,288.6,254.5z"></path>		<path class="st5" d="M298.5,167.5c0,0-0.9,10.1-1.2,16s-2.2,28.5-2.2,28.5c-7.5,6.8-10.8,20.9-13.8,31.4c0,0,4,5.6,10.5,4.2    c-0.1-0.4,19-28.3,21.4-34.2c2.2-5.4,4.6-17.1,4.6-17.1s2.7,13.4,2.3,15.9c-1.7,10.1,2.1,27.2,2.9,34.2c0,0,0.8,2,5.8,2.1    c5.2,0.1,6.2-1.7,6.2-1.7s3.2-33.7,3.6-40.1s-0.9-30.5-1.6-38.8L298.5,167.5z"></path>		<path class="st4" d="M317.9,196.2l1.1-6.3c0,0,8.5-0.6,12.2-4.8c0,0-1.3,5.5-10.1,6.3l-1.2,6.1l0.3,12.3    C319.5,205.3,318.7,201.2,317.9,196.2z"></path>		<path class="st1" d="M300.2,124.2c-4.4,0.8-5.7,3.5-6.2,7.2c-0.3,3.4,0,6.8,0.9,10l2.4,14.8l0.5,17.9c5.4,6,27.6,8.2,39.7-0.5    c0,0-1-31-1.8-37c-1.5-10.5-8.2-13.1-9.9-13.1l-15.5,0.1L300.2,124.2z"></path>		<g id="freepik--Girl--inject-63">			<path class="st13" d="M351.2,157.2c-1-4.4-2.2-8.7-3.6-13l-8.3,2.9L351.2,157.2z"></path>			<path class="st6" d="M331.9,124.1c2.9,0.2,5-0.1,8.1,1.9s9,21.9,9,21.9c-1.7,2.7-9.9,3.6-11.3,3.5c0,0-1.4-8.3-3-12.5     S331.9,124.1,331.9,124.1z"></path>			<g id="freepik--Kid--inject-63">				<path class="st7" d="M325.9,123.5c0,0,8.8,6.2,11.1,31.8c1.2-1,3.1-9.9,2.2-15.6c-0.8-5.1-3.7-13.4-7.3-15.6      C330.1,123.1,327.9,122.9,325.9,123.5z"></path>				<path class="st14" d="M325.9,123.5c0,0,8.8,6.2,11.1,31.8c1.2-1,3.1-9.9,2.2-15.6c-0.8-5.1-3.7-13.4-7.3-15.6      C330.1,123.1,327.9,122.9,325.9,123.5z"></path>			</g>			<path class="st9" d="M351.5,159.3c0,1.6-0.3,3.2-0.9,4.7c-0.3,1-1.1,1.9-2.1,2.3c-0.8,0.1-1.5,0-2.2-0.4     c-3.1-1.5-5.7-3.7-7.6-6.5c-2.2-3-3.5-6.5-5.3-9.7c-1.5-2.4-2.6-5-3.4-7.8c-0.5-1.8-0.6-3.7-0.3-5.6c0.1-0.9,0.4-1.8,0.8-2.7     c0-0.1,1.1-1.6,1.3-1.3c0.7,1.7,1.4,3.4,1.9,5.1c1.2,0.7,2.6,0.7,3.8,0.1c0.5-0.2,0.9-0.7,1-1.3c-0.2-0.9-0.5-1.7-0.8-2.6     c1.3-0.2,2.5,1.8,2.9,2.8c0.3,1.3,0.4,2.7,0.3,4c-0.1,1.3,0,2.7,0.3,4c1.1,3.8,5.2,5.7,7.8,8.5     C350.6,154.7,351.5,156.9,351.5,159.3z"></path>		</g>		<path class="st7" d="M305.7,123.8c0,0,6.2,4.4,6.6,14.5c1,25.6-15.8,32.3-15.8,32.3c-1.6-3.2-0.6-6.3,0.8-9.4    c5.5-5.6,8.4-13.3,8.1-21.1c-0.4-9.3-4.9-14.6-7.2-15.3C300.5,123.7,303.1,123.4,305.7,123.8z"></path>		<path class="st14" d="M305.7,123.8c0,0,6.2,4.4,6.6,14.5c1,25.6-15.8,32.3-15.8,32.3c-1.6-3.2-0.6-6.3,0.8-9.4    c5.5-5.6,8.4-13.3,8.1-21.1c-0.4-9.3-4.9-14.6-7.2-15.3C300.5,123.7,303.1,123.4,305.7,123.8z"></path>		<path class="st3" d="M337.6,96.5c-0.2,3.9-3.5,6.9-7.4,6.7c-3.9-0.2-6.9-3.5-6.7-7.4c0.2-3.8,3.3-6.8,7.1-6.7    C334.6,89.2,337.7,92.5,337.6,96.5C337.6,96.5,337.6,96.5,337.6,96.5z"></path>		<path class="st3" d="M304,104.5c0,0,1.8,8.8,2.5,10.2c0.5,0.9,1.3,1.6,2.3,1.9l-0.1-6.1L304,104.5z"></path>		<path class="st3" d="M306.4,92c-1.3-0.2-2.6,0.3-3.5,1.2c-1.5,1.6-0.7,6.5,1.1,11.3l3.5,0.4L306.4,92z"></path>		<path class="st9" d="M308.5,104.9c-0.7,0.4-1.7-0.9-2.6-1.9s-3.7-2.2-5.1,0.8s1.2,7.1,3.4,7.8c3.8,1.2,4.4-1.2,4.4-1.2l0.2,13.9    c1.7,3.8,5.2,6.5,9.3,7.2c6.8,1,6.8-4.7,4.6-7.5v-3.9c1.7,0.1,3.4,0,5-0.4c2.2-0.6,3.8-1.9,5.3-5.1c2-4.4,2.3-9.3,0.9-18.4    c-1.5-10.6-14.5-11-21.2-6.9S308.5,104.9,308.5,104.9z"></path>		<path class="st3" d="M305.6,96c0.3-3.2-0.9-7.1,1.3-9.9c1.4-1.8,3.8-2.5,5.9-1.7c0.3-2.8,2.7-4.8,5.4-4.5c1.8,0.2,3.3,1.3,4.1,2.9    c0.9-1.6,2.5-2.6,4.4-2.6c1.8,0.2,3.4,1.5,3.8,3.3c-0.1-0.3,2.2-0.1,2.4-0.1c0.8,0.1,1.5,0.3,2.2,0.7c1.3,0.8,2.2,2.1,2.6,3.6    c0.4,2.4-0.6,4.8-2.7,6.1c-2,1.3-4.6,1.4-6.8,0.4c-0.2-0.1-0.5-0.2-0.8-0.1c-0.1,0.1-0.2,0.2-0.3,0.4c-0.5,1-1.4,1.7-2.4,2    c-2,0.4-4.2-0.3-5.5-1.9c-1.4,1.9-4,2.3-5.8,0.9c-0.1-0.1-0.3-0.2-0.4-0.3c0.9,1.4,0.5,3.3-0.9,4.2c-0.2,0.1-0.4,0.2-0.6,0.3    c-0.5,0.2-1,0.3-1.5,0.2c1.4,1.4,1.7,3.4,0.9,5.2c-0.3,0.7-0.8,1.2-1.5,1.4c-1.6,0.4-2.6-2.4-3.6-3.2c-0.4-0.4-0.4-1.1-0.4-1.6    C305.4,99.6,305.5,97.8,305.6,96z"></path>		<path class="st3" d="M306.4,92.7l-4.2-2.3c0.6-1.2,2-1.6,3.1-1c0,0,0.1,0,0.1,0C306.6,90.1,307,91.5,306.4,92.7z"></path>		<path class="st13" d="M322.7,120.1c0,0-6.8-0.8-9.8-2.8c-1.2-0.7-2.3-1.8-3-3c0.3,1.3,0.9,2.5,1.7,3.6c3,3.6,11.1,4.4,11.1,4.4    L322.7,120.1z"></path>		<path class="st3" d="M320.5,103.5c0,0.8-0.7,1.4-1.5,1.4c-0.8,0-1.4-0.7-1.4-1.5c0-0.8,0.7-1.4,1.4-1.4    C319.9,102,320.5,102.7,320.5,103.5z"></path>		<path class="st3" d="M318.7,99.2l-3,1.6c-0.4-0.9-0.1-1.9,0.7-2.4C317.2,98,318.2,98.3,318.7,99.2    C318.6,99.1,318.7,99.1,318.7,99.2z"></path>		<path class="st15" d="M319.6,111.2l5.6,2.2c-0.5,1.5-2.2,2.4-3.7,1.9c0,0-0.1,0-0.1,0C319.8,114.5,319,112.8,319.6,111.2z"></path>		<path class="st16" d="M320.9,112.8c-0.5,0-1,0.1-1.4,0.4c0.3,0.8,0.9,1.5,1.8,1.9c0.6,0.2,1.3,0.2,1.9,0.1    C323.2,113.9,322.2,112.9,320.9,112.8z"></path>		<path class="st3" d="M332.7,100.1L330,98c0.5-0.8,1.6-0.9,2.3-0.4c0,0,0,0,0.1,0.1C333.1,98.2,333.3,99.3,332.7,100.1z"></path>		<path class="st3" d="M331.9,103c0,0.8-0.7,1.4-1.5,1.4c-0.8,0-1.4-0.7-1.4-1.5c0-0.8,0.7-1.4,1.4-1.4    C331.3,101.5,332,102.1,331.9,103C331.9,102.9,331.9,102.9,331.9,103z"></path>		<polygon class="st13" points="324.4,102 324.7,109.6 328.7,108.2   "></polygon>		<path class="st0" d="M320.6,131.5c0,0-8.5-2.6-11.8-7.9v-3.2c-2.1,0.2-3.1,3.5-3.1,3.5s0.2,4.2,2.7,6.9s6.8,1.7,6.8,1.7    s1.8,2.3,2.7,2.6S320.6,131.5,320.6,131.5z"></path>		<path class="st0" d="M320.6,131.5c1.2-1,2.6-4.6,2-7.5c0-0.2,0-2.1,0-2.1c0.5,0,1,0.2,1.3,0.5c0.5,0.6,1.1,1.3,1.5,2    c0.5,1.5,0.9,3.1,1.2,4.7c0,1.2-0.8,2.3-2,2.7c0.1,0.9,0,1.7-0.2,2.6C324.2,135,320.6,131.5,320.6,131.5z"></path>		<path class="st9" d="M290.5,170.9c2.1-0.7,3.7-1.8,8-5.4c3.5-2.9,6.7-6.2,9.6-9.8c0.5-0.6,1-1.1,1.6-1.6c1-0.9,1.9-1.9,2.6-2.9    c1.7-2.5,1.8-4.2,2-7.3s0.1-7.3-1.2-10.3c-0.2-0.5-1.3-0.7-1.6-0.6c0.2,0.7,0.3,1.4,0.4,2c-0.6,1.5-1.5,3-2.6,4.2    c-1.6,1.8-3.3,2.8-3.4,2.4s0.4-1.6,0.2-3.5s-0.7-2.6-1.3-2.8c-0.9-0.2-0.9,0.8-1.4,2.3c-0.5,1.8-1.3,2.8-1.4,5.6    c-0.1,2.4,0,3.4-1.1,4.7c-1.2,1.1-2.5,2.2-3.9,3.1c0,0,1.4-4.4,2.8-8.8c2.8-8.6,1.7-16.2-1.7-17.6c-4.8,0.2-7.8,2.1-10,9.1    c-2.4,7.4-3.2,10.6-5.1,25.2C281.6,169.9,286.9,172.1,290.5,170.9z"></path>		<path class="st13" d="M297,151c-3.1,2.2-9.8,5.4-10.7,9c0,0,0.1-2.9,4.2-6.3c2.3-1.9,4.7-3.7,7.2-5.2L297,151z"></path>		<path class="st6" d="M298.1,124.7c-1.7-0.4-4.5,0.2-6.9,2.4c-2.4,2.2-3.7,6.4-4.9,10.3s-3.1,14-3.1,14c3.3,1.2,6.7,1.8,10.2,2    c0,0,2.7-1.7,4.1-2.7c0,0,2.8-8.8,3.5-11.1S303,126.4,298.1,124.7z"></path>	</g></g><g id="freepik--character-4--inject-63">	<g id="freepik--Character--inject-63">		<path class="st9" d="M320.9,212.4c0,0,3.1,0.1,7.2,0.1s14.2-0.7,18.1-1.9c5.9-3.7,14.4-14.8,17.9-18.1c2.6-2.5,5.4-4,10.4-3.2    c3.3,0.5,5.6,10,0.8,15c-4.4,4.7-12.9,14.3-22.6,18.6c-4.2,1.9-9.1,1.2-20,0.7c-4.4-0.1-8.7-0.5-13-1.2    C316.7,222,320.9,212.4,320.9,212.4z"></path>		<path class="st13" d="M323.3,219.6c0.7-1.9,1-4,0.9-6l-0.2-0.1c-2.2,0-4.4-0.3-6.5-1l-1.2,0.6c-1.4,2-2.3,8-0.8,8.5    c1.4,0.4,2.7,0.7,4.1,0.9C321.8,222.6,322.8,220.9,323.3,219.6z"></path>		<path class="st9" d="M318.4,221.9c-5.9-0.2-8.1-3.2-8.9-8.4c-0.5-4.5-0.8-9.1-0.7-13.7c-0.1-1.8,0.5-2.4,1.2-2.5    c0.3,0,1.4,0.2,1.5,2.2c0.2,3.5,0.3,5.6,1,5.6s0.6-2.6,0.5-6.1c0-2.4,0-4.4,1.4-4.4s1.8,1.4,1.8,4.6c0.1,3.2,0,5.6,0.8,5.6    c0.7,0,0.5-3.4,0.7-5.6s0.1-3.5,1.5-3.5s1.6,1.8,1.5,3.9c-0.1,2.9,0,5.9,0.2,8.8c0.4,1.3,1.7-1.9,2.7-3.1c1.6-2.1,3.5-1.1,2.7,0.8    c-1,2.3-1.7,4.8-2.1,7.3C323.8,215.9,322.8,221.9,318.4,221.9z"></path>		<path class="st13" d="M318.4,211.3c0,0-3.5,3.7-2.3,7.6c-1.2-1.5-1.4-3.5-0.6-5.3C316,212.4,317.1,211.5,318.4,211.3z"></path>		<polygon class="st9" points="403.8,376.3 395.4,376.3 394.3,361.4 403.8,362.9   "></polygon>		<path class="st3" d="M385.2,392c-0.3,0.8-0.2,1.7,0.1,2.6c0.3,0.5,2.2,2.1,5.7,2.4c3.3,0.2,6.2-0.2,8.2-1.4    c1.7-0.9,2.9-2.6,3.1-4.5c0.2-1.9,0-3.7,0.9-5.1s2.1-2.8,2.4-3.6c0.3-1.3,0.3-2.6,0-3.8L385.2,392z"></path>		<path class="st7" d="M394.2,375.6c0,0.7-0.1,1.4-0.4,2.1c-0.5,1.5-1.2,2.8-2,4.1c-0.4,0.7-0.9,1.3-1.4,1.9c-1,1.2-2.2,2.2-3.3,3.3    c-1.1,1.1-1.8,2.5-2,4c-0.1,2.6,2.7,3.5,4.8,3.9c2.3,0.4,4.7,0.3,7-0.4c2.4-0.6,4.3-2.7,4.7-5.1c0.1-0.7,0.1-1.5,0.2-2.2    c0.3-1.6,1-3.2,2-4.5c0.6-0.8,1.1-1.6,1.5-2.5c0.7-1.6,0.1-3.4-0.3-5c-0.4-1.4-0.8-2.9-1.3-2.8c0,0.7,0,0.8-0.5,1.3    s-0.7,1.5-1.4,2.1c0.2-0.6,0.4-1.2,0.5-1.8c0-0.3,0-0.5-0.1-0.7c-0.2-0.2-0.5-0.3-0.8-0.4c-1-0.3-2.1-0.6-3.1-0.7    c-1-0.2-2-0.2-3.1,0c-0.3,0.1-0.6,0.2-0.8,0.5c-0.2,0.3-0.3,0.6-0.3,0.9C394.2,373.8,394.2,374.9,394.2,375.6z"></path>		<path class="st14" d="M394.2,375.6c0,0.7-0.1,1.4-0.4,2.1c-0.5,1.5-1.2,2.8-2,4.1c-0.4,0.7-0.9,1.3-1.4,1.9    c-1,1.2-2.2,2.2-3.3,3.3c-1.1,1.1-1.8,2.5-2,4c-0.1,2.6,2.7,3.5,4.8,3.9c2.3,0.4,4.7,0.3,7-0.4c2.4-0.6,4.3-2.7,4.7-5.1    c0.1-0.7,0.1-1.5,0.2-2.2c0.3-1.6,1-3.2,2-4.5c0.6-0.8,1.1-1.6,1.5-2.5c0.7-1.6,0.1-3.4-0.3-5c-0.4-1.4-0.8-2.9-1.3-2.8    c0,0.7,0,0.8-0.5,1.3s-0.7,1.5-1.4,2.1c0.2-0.6,0.4-1.2,0.5-1.8c0-0.3,0-0.5-0.1-0.7c-0.2-0.2-0.5-0.3-0.8-0.4    c-1-0.3-2.1-0.6-3.1-0.7c-1-0.2-2-0.2-3.1,0c-0.3,0.1-0.6,0.2-0.8,0.5c-0.2,0.3-0.3,0.6-0.3,0.9    C394.2,373.8,394.2,374.9,394.2,375.6z"></path>		<path class="st17" d="M391.5,382.3c1-0.7,3.1-0.7,4.3-0.6c1.2,0.1,2.3,0.5,3.4,1.2c0.3,0.2,0.7,0.2,1-0.1l0,0c0.3-0.3,0.3-0.7,0-1    c0,0-0.1-0.1-0.1-0.1c-1.1-0.8-2.4-1.3-3.8-1.4c-2.9-0.2-3.8,0.3-3.8,0.3S391.2,381.5,391.5,382.3z"></path>		<path class="st17" d="M389.3,385c1.2-0.7,3.6-0.6,4.8-0.5c1.2,0.1,2.3,0.5,3.3,1.2c0.3,0.2,0.7,0.2,1-0.1l0,0c0.3-0.3,0.3-0.7,0-1    c0,0-0.1-0.1-0.1-0.1c-1.1-0.9-2.5-1.4-3.9-1.5c-2.9-0.2-3.7,0.4-3.7,0.4C390,383.7,389.5,384.3,389.3,385z"></path>		<path class="st17" d="M397.4,377.6c-1.2-0.2-2.5-0.1-3.6,0.3c-0.5,0.3-0.9,1.1-0.5,1.3c1-0.4,2.1-0.6,3.2-0.5    c1.1,0.1,2.2,0.4,3.1,0.9c0.2,0.1,0.5,0.3,0.8,0.4c0.3,0.2,0.8,0.1,0.9-0.3c0,0,0,0,0,0l0,0c0.1-0.3,0-0.7-0.2-0.8    C400,378.2,398.7,377.7,397.4,377.6z"></path>		<polygon class="st9" points="374.7,368 365.5,368.3 365.4,352.5 376.1,351.8   "></polygon>		<path class="st3" d="M347.4,379.1c-0.2,0.8-0.2,1.6,0.1,2.3c0.3,0.7,3.8,2.7,8.6,2.3c3.5-0.2,6.9-1.4,9.8-3.4    c1.8-1.2,3.7-1.4,6-1.6s5.4-1.3,5.9-2.4c0.3-1,0.2-2-0.1-3L347.4,379.1z"></path>		<path class="st7" d="M366.6,364.3l-0.4-0.1c-0.2,0-0.4,0-0.6,0c-0.2,0.1-0.4,0.2-0.6,0.4c-0.5,0.6-0.9,1.2-1.2,1.9    c-1,1.6-3.1,3-5.4,4.2c-1.5,0.8-3.1,1.5-4.7,2.2s-3.8,1.2-5.1,2c-1.6,1.1-2,3.2-0.9,4.8c0.2,0.3,0.5,0.7,0.9,0.9    c1.8,1.1,6.6,2.2,11.7,0.8c2.8-0.8,5.8-3.7,9.4-4c2.3-0.2,6.6-0.8,8.1-2.6c0.5-0.8-0.2-3.2-0.8-5.3c-0.6-2.3-1.3-5.9-2-5.7    c0,0.3-0.1,0.7-0.4,0.9c-0.3,0.3-0.7,0.5-1,0.7c-0.5,0.5-1,1.1-1.3,1.8c-0.1,0.3-0.4,0.6-0.6,0.7c-0.4,0.1-0.7-0.1-1-0.2    c-0.4-0.2-0.9-0.2-1.4-0.1c0-0.5,0.1-0.9,0.2-1.4c0-0.1,0-0.3,0-0.4c-0.1-0.1-0.2-0.3-0.3-0.3    C368.5,364.8,367.6,364.4,366.6,364.3z"></path>		<path class="st14" d="M366.6,364.3l-0.4-0.1c-0.2,0-0.4,0-0.6,0c-0.2,0.1-0.4,0.2-0.6,0.4c-0.5,0.6-0.9,1.2-1.2,1.9    c-1,1.6-3.1,3-5.4,4.2c-1.5,0.8-3.1,1.5-4.7,2.2s-3.8,1.2-5.1,2c-1.6,1.1-2,3.2-0.9,4.8c0.2,0.3,0.5,0.7,0.9,0.9    c1.8,1.1,6.6,2.2,11.7,0.8c2.8-0.8,5.8-3.7,9.4-4c2.3-0.2,6.6-0.8,8.1-2.6c0.5-0.8-0.2-3.2-0.8-5.3c-0.6-2.3-1.3-5.9-2-5.7    c0,0.3-0.1,0.7-0.4,0.9c-0.3,0.3-0.7,0.5-1,0.7c-0.5,0.5-1,1.1-1.3,1.8c-0.1,0.3-0.4,0.6-0.6,0.7c-0.4,0.1-0.7-0.1-1-0.2    c-0.4-0.2-0.9-0.2-1.4-0.1c0-0.5,0.1-0.9,0.2-1.4c0-0.1,0-0.3,0-0.4c-0.1-0.1-0.2-0.3-0.3-0.3    C368.5,364.8,367.6,364.4,366.6,364.3z"></path>		<path class="st17" d="M360.5,369.4c0.3-0.6,1-1.1,1.7-1.1c1-0.2,2.9,0.6,4,1.5c0.4,0.3,0.4,0.8,0.1,1.2c-0.1,0.1-0.2,0.2-0.3,0.2    l0,0c-0.3,0.2-0.7,0.1-1-0.1C363.9,369.9,362.2,369.3,360.5,369.4z"></path>		<path class="st17" d="M357.3,371.2c0.5-0.6,1.2-1,2-1c1.6,0.1,3.2,0.6,4.4,1.6c0.4,0.3,0.4,0.8,0.1,1.2c-0.1,0.1-0.1,0.1-0.2,0.2    l0,0c-0.3,0.2-0.7,0.1-0.9-0.1C361.3,371.7,359.3,371,357.3,371.2z"></path>		<path class="st17" d="M353.7,372.8c0.5-0.6,1.3-0.9,2.1-0.9c1.6,0.1,3,0.7,4.2,1.7c0.4,0.3,0.4,0.8,0.1,1.2    c-0.1,0.1-0.1,0.1-0.2,0.2l0,0c-0.3,0.2-0.7,0.1-0.9-0.1C357.7,373.4,355.7,372.6,353.7,372.8z"></path>		<path class="st4" d="M401.3,243c6.8,15.4,0.9,62.9,0.9,62.9c0.2,2.5,3,9.5,4.1,20.4c1.2,12.9-2.3,41.9-2.3,41.9    c-3,1.2-6.3,1.1-9.2-0.3c0,0-8.2-46.8-9.8-59.6c-1.4-11.2-5.4-35.5-5.4-35.5l-1,35.3c0,0,1.4,8.9,1.9,13.7    c0.7,7.5-4.5,38.4-4.5,38.4s-6,1.9-10.9,0c0,0-3.6-43.3-4.3-52.4c-0.9-12.2-2.9-47.8-0.2-64.8L401.3,243z"></path>		<path class="st18" d="M379.6,272.7l-1.6-11.4c0,0-9.6-1.3-14-5.4c2.5,4,6.7,6.6,11.3,7.2l1.7,10.3l1.7,30.9L379.6,272.7z"></path>		<path class="st7" d="M387.5,189.6l2.9,0.2c0,0,8.5,1.7,9.2,3.1c1.6,3.1,1.7,4,1.7,7.6c0,3.9-0.6,7.4-2.6,12.6l-3.1,12.4    c-0.6,3.5,5.1,11.2,6.7,20c-11.5,6.4-27.3,5.3-35.4,1.8c-2.4-0.9-4.6-2.5-6.3-4.5c1.3-7.1,1.6-11.9,3.7-18.4c0,0-0.6-4.1-0.7-7.4    c-4.4-4.2-4.5-11.3-1.8-15.1c5.9-8.3,11.4-12.6,12.5-12.6L387.5,189.6z"></path>		<path class="st19" d="M387.5,189.6l2.9,0.2c0,0,8.5,1.7,9.2,3.1c1.6,3.1,1.7,4,1.7,7.6c0,3.9-0.6,7.4-2.6,12.6l-3.1,12.4    c-0.6,3.5,5.1,11.2,6.7,20c-11.5,6.4-27.3,5.3-35.4,1.8c-2.4-0.9-4.6-2.5-6.3-4.5c1.3-7.1,1.6-11.9,3.7-18.4c0,0-0.6-4.1-0.7-7.4    c-4.4-4.2-4.5-11.3-1.8-15.1c5.9-8.3,11.4-12.6,12.5-12.6L387.5,189.6z"></path>		<path class="st4" d="M388.4,184.2c0-2.3,5.8-6.8,8-10.1c2.2-3.2,7-12.5,0.7-16.3c0,0,1.2-6.2-3.2-9.7c-5.1-4-13.3-4-22.2-2.7    s-11.8-0.5-13.5,3.2s1.7,7.7,3.4,8.5c0,0-3.1,3.8-0.5,7.4c2.6,3.6,9.4,2.5,9.4,2.5L388.4,184.2z"></path>		<path class="st9" d="M368.5,153.4c-2.1,1.3-4.8,6.7-4.5,18c0.2,9.6,3.3,12,4.9,12.6c1.6,0.7,4.6,0.3,7.5-0.2v5.6    c0,0-3.6,3.3,0.4,4c8.7,1.7,11.7-3.7,11.7-3.7v-13.5c0,0,1.6,1.7,4.4-0.2c2.4-1.6,3.2-4.8,1.6-7.2c-0.1-0.1-0.2-0.2-0.3-0.4    c-1.6-1.5-4-1.4-5.5,0.2c-0.2,0.2-0.3,0.3-0.4,0.5c0,0-3.9-0.3-10.1-3.8C373.5,162.8,370,158.5,368.5,153.4z"></path>		<path class="st4" d="M388.3,169.1v3.8l0,0c-1.7,0-3.1-1.4-3.1-3.1v-4.5L388.3,169.1z"></path>		<path class="st5" d="M361,183.3c0.1-1.6,1-3.2,2.3-4.1c0.5-0.3,1.1-0.4,1.6-0.2l0,0l2.4,1.4l-3.4,5.8l-2.3-1.3l0,0    C361.2,184.6,360.9,184,361,183.3z"></path>		<path class="st4" d="M365.7,180.6c-1.4,0.9-2.3,2.4-2.3,4.1c0,1.5,1,2.1,2.3,1.3c1.4-0.9,2.3-2.4,2.3-4.1    C368,180.5,367,179.9,365.7,180.6z"></path>		<path class="st4" d="M370.4,177.9v0.8c0,0.3-0.2,0.7-0.5,0.9l-4.2,2.4v-1.4L370.4,177.9z"></path>		<polygon class="st5" points="368,176.6 370.4,177.9 365.7,180.6 363.3,179.3   "></polygon>		<path class="st0" d="M361.5,178.3c0,0-0.1-0.4-0.4-1s-0.5-1.4-0.8-2.2c-0.3-0.8-0.6-1.6-0.9-2.2c-0.1-0.1-0.1-0.3-0.2-0.4    c0-0.1-0.1-0.2-0.2-0.3c-0.1-0.1-0.2-0.1-0.4-0.1l-0.1,0.1c-0.1,0.1-0.1,0.2-0.1,0.4c0,0.1,0.1,0.2,0.1,0.3l0.2,0.4    c0.3,0.6,0.7,1.3,1.1,2.1l1.1,2.1L361.5,178.3L361.5,178.3z"></path>		<path class="st0" d="M359.5,180.2l-0.9-0.5l-2.1-1.1c-0.8-0.4-1.5-0.8-2.1-1.1l-0.4-0.2c-0.1-0.1-0.2-0.1-0.3-0.1    c-0.1,0-0.3,0-0.4,0.1l-0.1,0.2c0,0.1,0.1,0.3,0.1,0.4c0.1,0.1,0.2,0.1,0.3,0.2l0.4,0.2c0.6,0.3,1.4,0.6,2.2,0.9l2.2,0.8    L359.5,180.2L359.5,180.2z"></path>		<path class="st0" d="M359.4,183.1l-1.1,0.1l-2.3,0.4c-0.9,0.1-1.7,0.2-2.3,0.4l-0.4,0.1c-0.1,0-0.2,0.1-0.3,0.1    c-0.1,0.1-0.2,0.2-0.2,0.3v0.2c0.1,0.1,0.2,0.2,0.4,0.2c0.1,0,0.2,0,0.3,0l0.4-0.1c0.6-0.1,1.5-0.4,2.3-0.7l2.3-0.7L359.4,183.1    L359.4,183.1z"></path>		<path class="st0" d="M360.4,185.8l-0.8,0.7l-1.7,1.6c-0.6,0.6-1.2,1.2-1.7,1.7l-0.3,0.3c-0.1,0.1-0.1,0.2-0.2,0.3    c0,0.1,0,0.3,0,0.4l0.1,0.1c0.1,0,0.3,0,0.4,0c0.1,0,0.1-0.1,0.2-0.2l0.3-0.3c0.4-0.5,0.9-1.2,1.5-1.8l1.5-1.9    C360.2,186.2,360.4,185.8,360.4,185.8L360.4,185.8z"></path>		<polygon class="st4" points="364.5,179 366.1,179.9 365.3,180.4 363.7,179.4   "></polygon>		<polygon class="st3" points="366.1,179.9 364.5,179 364.5,179.3 365.8,180   "></polygon>		<polygon points="364.5,179.3 363.9,179.6 363.7,179.4 364.5,179   "></polygon>		<path class="st3" d="M376.3,169c0,0.7,0.5,1.2,1.2,1.2c0.7,0,1.2-0.5,1.2-1.2c0-0.7-0.5-1.2-1.1-1.2    C376.9,167.8,376.3,168.3,376.3,169C376.3,169,376.3,169,376.3,169z"></path>		<path class="st3" d="M365.6,165.3l2.4-1.7c-0.4-0.7-1.3-0.9-1.9-0.5c0,0,0,0-0.1,0C365.4,163.7,365.2,164.6,365.6,165.3z"></path>		<path class="st3" d="M366.2,168.1c-0.1,0.7,0.4,1.3,1.1,1.4c0.7,0.1,1.3-0.4,1.4-1.1c0-0.1,0-0.1,0-0.2c0.1-0.7-0.4-1.2-1.1-1.3    c0,0,0,0,0,0C366.8,166.9,366.2,167.5,366.2,168.1C366.2,168.1,366.2,168.1,366.2,168.1z"></path>		<polygon class="st13" points="372.9,167.5 372.7,174.7 368.9,173.5   "></polygon>		<path class="st13" d="M376.4,183.9c3.1-0.4,9.4-2.2,10.4-4.7c-0.4,1.3-1.2,2.4-2.2,3.2c-1.9,1.6-8.2,3.5-8.2,3.5V183.9z"></path>		<path class="st20" d="M390.4,189.9c0,0-1.3,5.6-7.8,10.8c-3.4,2.9-7.1,5.4-11,7.6c0,0-2.8-5.3-1.2-10.5c2.2-6.9,5.4-8.5,5.4-8.5    l-2.3-0.1c0,0-3.3,1.4-7.8,6.6c-6.6,7.7-6.8,11.5-5.5,16.2c0.6,1.9,1.7,3.7,3.1,5.1l0.2,7.1l-3.7,20.7c0,0,4.5,5.8,18,7.1    c19.4,1.8,25.3-5.4,25.3-5.4c-0.6-6.6-4.2-14.4-4.6-20.7c-0.5-7.3,3.1-14.3,3.7-22.2c0.2-3,0-5.9-0.9-8.8    c-0.7-2.5-2.9-4.3-5.5-4.5L390.4,189.9z"></path>		<path class="st1" d="M401.6,239.5c-0.2-0.9-0.5-1.9-0.8-2.8c-7.1,4.9-21.7,5.3-29.3,3.6c-4-0.9-7.5-3.4-9.8-6.8l-0.6,3.5    c1.4,2.4,4.5,5.4,10.4,6.7C379.4,245.5,394.9,244.9,401.6,239.5z"></path>		<path class="st1" d="M399.9,233.4c-0.3-1-0.5-2-0.8-3c-7.5,3.9-20.6,4.2-27.6,2.6c-3.4-0.8-6.5-2.6-8.7-5.4l-0.6,3.5    c2.4,2.7,5.7,4.6,9.3,5.2C378.8,238,392.5,237.7,399.9,233.4z"></path>		<path class="st21" d="M371.6,208.3c-1.6,4-2.5,35.7-1.3,45.3l-1.7-0.4c-0.6-5.8-0.1-23.2,0.6-31.7    C369.7,214.5,370.3,210.2,371.6,208.3z"></path>		<path class="st9" d="M444.3,240.1c0-0.6,0-1.1-0.1-1.7c-0.1-1.8-0.5-3.6-1.4-5.2c-0.9-1.6-2.4-2-4.1-2.6c-2.7-1-3.7-0.4-6.4-1.4    c-3.9-1.4-11.6-4.4-16.1-6.5c0,0-8.4-22.9-11-27.8c-2.3-4.4-5-4.3-11.3-4.7c-2.7,10.8-2.1,18.5,3.9,24.2c0,0,5.8,10.9,8.2,15    s2.9,4.7,8.9,6.2c5.6,1.4,16.5,4.5,18.7,5.1c2.8,0.8,5.2,7.1,10.1,1.7C444.2,241.7,444.4,240.9,444.3,240.1z"></path>		<path class="st4" d="M441.9,204c-0.1-0.4-0.3-0.8-0.7-1c-1.1-0.6-2.5-0.6-3.6,0c-0.4,0.2-0.7,0.6-0.7,1l0,0v61.1    c0,0.8,1.1,1.4,2.5,1.4s2.5-0.6,2.5-1.4l0,0L441.9,204L441.9,204z"></path>		<polygon class="st3" points="450.5,154.3 432.2,143.7 428.3,146 415.4,155.7 415.4,180.1 428.3,204.8 446.6,215.3 450.5,213.1     463.4,203.3 463.4,179   "></polygon>		<polygon class="st5" points="446.6,156.5 428.3,146 415.4,155.7 415.4,180.1 428.3,204.8 446.6,215.3 459.5,205.6 459.5,181.2       "></polygon>		<polygon class="st22" points="430.8,202.4 418.8,179.3 418.8,157.4 428.6,150 444.1,159 456.1,182 456.1,203.9 446.3,211.3   "></polygon>		<path class="st1" d="M422,173.8c0-0.2,0.2-0.3,0.4-0.2l1.6,1c0.2,0.2,0.4,0.4,0.4,0.7v1.4c0,0.8,0.1,1.6,0.2,2.3    c0.1,0.5,0.4,0.9,0.9,1.2c0.4,0.3,0.7,0.3,0.8,0c0.2-0.5,0.3-1,0.2-1.6c0-0.8-0.1-1.6-0.4-2.3c-0.3-0.9-0.7-1.8-1.2-2.6l-1.2-2.2    c-0.5-0.9-1-1.9-1.3-2.9c-0.3-0.9-0.5-1.9-0.5-2.8c0-1.6,0.3-2.5,0.8-2.9c0.5-0.4,1.4-0.2,2.7,0.6c1.2,0.7,2.1,1.7,2.6,3    c0.5,1.4,0.7,2.8,0.7,4.3v0.7c0,0.2-0.2,0.3-0.4,0.2l-1.5-1c-0.2-0.2-0.4-0.4-0.4-0.7v-0.9c0-0.7,0-1.4-0.2-2.1    c-0.1-0.4-0.4-0.8-0.8-1.1c-0.4-0.2-0.7-0.3-0.8-0.1c-0.2,0.4-0.3,0.8-0.2,1.2c0,0.5,0.1,1.1,0.2,1.6c0.3,0.7,0.6,1.4,0.9,2    l1.3,2.5c0.6,1.1,1.1,2.3,1.5,3.5c0.3,1,0.5,2.1,0.5,3.1c0,1.8-0.2,2.9-0.8,3.4c-0.5,0.5-1.4,0.3-2.7-0.5    c-1.2-0.7-2.1-1.8-2.7-3.1c-0.5-1.5-0.8-3-0.8-4.6L422,173.8z"></path>		<path class="st1" d="M431.5,186v-15.4c0-0.3-0.2-0.5-0.4-0.7l-1.1-0.7c-0.2-0.2-0.4-0.4-0.4-0.7V167c0-0.2,0.2-0.3,0.4-0.2    l5.4,3.5c0.2,0.2,0.4,0.4,0.4,0.7v1.6c0,0.2-0.2,0.3-0.4,0.2l-1.1-0.7c-0.2-0.1-0.4,0-0.4,0.2v15.3c0,0.2-0.2,0.3-0.4,0.2    l-1.7-1.1C431.6,186.5,431.5,186.3,431.5,186z"></path>		<path class="st1" d="M443.2,192.9c-0.6,0.5-1.5,0.4-2.7-0.4c-1.2-0.8-2.2-1.8-2.7-3.1c-0.6-1.5-0.9-3.1-0.9-4.6v-8.6    c0-3.4,1.2-4.4,3.6-2.8c1.2,0.7,2.1,1.8,2.7,3.1c0.6,1.4,0.9,2.9,0.8,4.4v8.6C444,191.3,443.8,192.4,443.2,192.9z M439.6,188.8    c0.1,0.5,0.5,0.9,0.9,1.2c0.5,0.3,0.8,0.3,0.9-0.1c0.2-0.7,0.3-1.4,0.2-2.1v-8.7c0-0.7-0.1-1.4-0.2-2.1c-0.1-0.5-0.4-0.9-0.8-1.2    c-0.4-0.3-0.7-0.3-0.9,0c-0.2,0.6-0.3,1.2-0.2,1.8v8.7C439.4,187.2,439.4,188,439.6,188.8z"></path>		<path class="st1" d="M446.3,195.6v-17.8c0-0.3,0.2-0.3,0.4-0.2l3.3,2.2c1.2,0.7,2.1,1.7,2.6,3c0.5,1.4,0.8,2.9,0.7,4.4v0.4    c0.1,1.3-0.1,2.6-0.7,3.8c-0.5,0.7-1.3,0.6-2.5-0.2l-1-0.6c-0.2-0.1-0.4,0-0.4,0.2v6.5c0,0.2-0.2,0.3-0.4,0.2l-1.7-1.1    C446.4,196.1,446.3,195.9,446.3,195.6z M449.1,188.2l0.5,0.3c0.5,0.3,0.9,0.3,1,0c0.2-0.8,0.3-1.7,0.2-2.5v-0.4    c0-0.9-0.1-1.7-0.2-2.5c-0.2-0.6-0.5-1-1-1.3l-0.5-0.3c-0.2-0.1-0.4-0.1-0.4,0.2v5.9C448.8,187.8,448.9,188,449.1,188.2z"></path>		<polygon class="st5" points="428.3,146 432.2,143.7 450.5,154.3 446.6,156.5   "></polygon>		<polygon class="st23" points="428.3,146 432.2,143.7 450.5,154.3 446.6,156.5   "></polygon>		<polygon class="st4" points="463.4,179 459.5,181.2 446.6,156.5 450.5,154.3   "></polygon>		<polygon class="st24" points="459.5,205.6 463.4,203.3 450.5,213.1 446.6,215.3   "></polygon>		<path class="st9" d="M431.2,228.8c3.9,0.6,5.5-0.4,6.8,1.6c1,1.5,2.1,2.8,3.3,4.1c0.2,0.2,0.4,0.5,0.4,0.8c0,0.4-0.5,0.6-0.8,0.6    c-1.5,0.3-3,0-4.2-1c-1.3-0.7-2.6-1.3-4-1.8L431.2,228.8z"></path>		<path class="st9" d="M441.9,229.9c0.4,0.3,0.9,0.6,1.4,0.8c0.7,0.4,1.4,0.8,2,1.3c0.6,0.6,1,1.4,1,2.2c-0.1,0.4-0.1,0.8-0.1,1.2    c0.1,0.8,1,1.4,0.8,2.2c-0.1,0.5-0.7,0.8-0.8,1.4c-0.3,0.9,0.6,1.7,0.4,2.6c-0.2,0.4-0.4,0.8-0.8,1.1c-0.4,0.5-0.7,1-1.1,1.4    c-0.8,0.6-1.9,0.9-2.9,0.8c-1.3,0.1-2.6-0.4-3.6-1.4c-0.4-0.4-0.5-1.1-0.1-1.6c0.1-0.1,0.2-0.3,0.3-0.4c0.1-0.3,0-0.6-0.2-0.8    c-0.2-0.2-0.4-0.4-0.5-0.7c-0.1-0.5-0.1-1,0.2-1.5c0.3-0.8-0.1-1.3-0.1-2c-0.1-0.7,0.2-1.5,0.7-2c0.3-0.3,0.7-0.6,1.1-0.8    c0.2-0.3,0.4-0.4,0.8-0.5c0.1,0,1.7-0.8,1.7-1V229.9z"></path>		<path class="st13" d="M436.9,243.1V235l-0.6-0.4c0,0-2.3,1.8-4.3,1.6c1.3,0.3,2.6,0.3,3.9,0v5.9L436.9,243.1L436.9,243.1z"></path>		<path class="st13" d="M441.2,234.6c0,0,0.7,0.9-0.3,1.3c-1.1,0.3-2.2,0.2-3.1-0.4c-0.1,0.3-0.1,0.6-0.1,0.9c0,0,2.6,1,3.5-0.1    S441.2,234.6,441.2,234.6z"></path>	</g></g></svg>