<?xml version="1.0" encoding="UTF-8"?>
<svg id="Layer_1" xmlns="http://www.w3.org/2000/svg" version="1.1" viewBox="0 0 603.4 495.2">
  <!-- Generator: Adobe Illustrator 29.5.1, SVG Export Plug-In . SVG Version: 2.1.0 Build 141)  -->
  <defs>
    <style>
      .st0 {
        fill: #e0e0e0;
      }

      .st1 {
        opacity: 0;
      }

      .st1, .st2, .st3, .st4, .st5, .st6, .st7, .st8, .st9, .st10 {
        isolation: isolate;
      }

      .st2 {
        opacity: .3;
      }

      .st3, .st10 {
        opacity: .1;
      }

      .st4 {
        opacity: .2;
      }

      .st5 {
        opacity: .4;
      }

      .st6 {
        opacity: .5;
      }

      .st11 {
        fill: #f73426;
      }

      .st12 {
        fill: #c0db23;
      }

      .st13 {
        fill: #90caf9;
      }

      .st14 {
        fill: #37474f;
      }

      .st7, .st15 {
        fill: #f28f8f;
      }

      .st7, .st8 {
        opacity: .6;
      }

      .st16, .st8 {
        fill: #263238;
      }

      .st17 {
        fill: #af6152;
      }

      .st18 {
        fill: #c8856a;
      }

      .st19 {
        fill: #f0f0f0;
      }

      .st20 {
        fill: #fafafa;
      }

      .st21 {
        fill: #f5f5f5;
      }

      .st22 {
        fill: #ffa8a7;
      }

      .st23 {
        fill: #455a64;
      }

      .st24 {
        fill: #9a4a4d;
      }

      .st9 {
        opacity: .7;
      }

      .st9, .st10 {
        fill: #fff;
      }
    </style>
  </defs>
  <g id="freepik--Floor--inject-63">
    <g id="freepik--floor--inject-63">
      <g id="freepik--Lines--inject-63">
        <path class="st20" d="M105.8,243.4l19.8,11.4c2.7,1.4,5.9,1.4,8.7,0l137.6-79.4c2.4-1.4,2.4-3.6,0-5l-19.9-11.4c-2.7-1.4-5.9-1.4-8.7,0l-137.6,79.4c-2.3,1.4-2.3,3.6.1,5Z"/>
        <path class="st20" d="M219,139.8l-19.8-11.4c-2.7-1.4-5.9-1.4-8.7,0L53,207.8c-2.4,1.4-2.4,3.6,0,5l19.8,11.4c2.7,1.4,5.9,1.4,8.7,0l137.5-79.4c2.4-1.4,2.4-3.6,0-5Z"/>
        <path class="st20" d="M173.6,108.4l-19.7-11.4c-2.7-1.4-5.9-1.4-8.7,0L7.6,176.4c-2.4,1.4-2.4,3.6,0,5l19.8,11.4c2.7,1.4,5.9,1.4,8.7,0l137.6-79.4c2.3-1.4,2.3-3.7-.1-5Z"/>
        <path class="st20" d="M264.2,335l19.8,11.4c2.7,1.4,5.9,1.4,8.7,0l137.5-79.4c2.4-1.4,2.4-3.6,0-5l-19.8-11.4c-2.7-1.4-5.9-1.4-8.7,0l-137.5,79.4c-2.4,1.4-2.4,3.6,0,5Z"/>
        <path class="st20" d="M377.4,231.5l-19.8-11.5c-2.7-1.4-5.9-1.4-8.7,0l-137.6,79.4c-2.4,1.4-2.4,3.6,0,5l19.8,11.4c2.7,1.4,5.9,1.4,8.7,0l137.6-79.4c2.4-1.3,2.4-3.6,0-4.9Z"/>
        <path class="st20" d="M304.8,189.5c-2.7-1.4-5.9-1.4-8.7,0l-137.6,79.4c-2.4,1.4-2.4,3.6,0,5l19.8,11.4c2.7,1.4,5.9,1.4,8.7,0l137.6-79.4c2.4-1.4,2.4-3.6,0-5l-19.8-11.4Z"/>
        <path class="st20" d="M425,424.9l19.8,11.4c2.7,1.4,5.9,1.4,8.7,0l137.5-79.4c2.4-1.4,2.4-3.6,0-5l-19.8-11.4c-2.7-1.4-5.9-1.4-8.7,0l-137.5,79.4c-2.4,1.4-2.4,3.6,0,5Z"/>
        <path class="st20" d="M538.2,321.4l-19.8-11.4c-2.7-1.4-5.9-1.4-8.7,0l-137.6,79.4c-2.4,1.4-2.4,3.6,0,5l19.8,11.4c2.7,1.4,5.9,1.4,8.7,0l137.6-79.4c2.4-1.4,2.4-3.7,0-5Z"/>
        <path class="st20" d="M465.6,279.4c-2.7-1.4-5.9-1.4-8.7,0l-137.6,79.4c-2.4,1.4-2.4,3.6,0,5l19.8,11.4c2.7,1.4,5.9,1.4,8.7,0l137.6-79.4c2.4-1.4,2.4-3.6,0-5l-19.8-11.4Z"/>
      </g>
    </g>
  </g>
  <g id="freepik--Character--inject-18">
    <g id="freepik--Bottom--inject-18">
      <path class="st18" d="M205.2,241.7c-.6-2.6-1.8-4.7-2.2-6.6-.6-2.2-.7-4.5-.3-6.7.7-3.4,1.5-6.8,2.5-10.1,1.4-4.6,5.1-7.5,15.2-19.5l-15.8-3.8c-2.3,5.1-6.7,14.1-7.5,14.8l-.2.2h0c-1.4,1.1-3.6,1.7-5.5,3.5h0c-1.2,1.1-1.6,2.9-1,4.4l.2.7c.5,1.5.9,3.1,1.1,4.6-.2,2.4-.7,4.7-1.7,6.8-.8,2.1-.6,4.4.6,6.3,2,3.2,4.9,5.7,8.2,7.5,5.3,2.1,7.1.5,6.4-2.1Z"/>
      <path class="st16" d="M190.2,214.3c-.9.4-1.7,1.2-2.1,2.1,0,1.8.3,3.5.9,5.2.8,2.3,1.1,3.2.5,5.1-.9,2.3-1.4,4.7-1.2,7.2.4,4.4,2.8,8.4,6.5,10.8,2.4,2,5.5,2.9,8.6,2.5,1.3-.2,1.6-2,1.6-2l-14.8-30.9Z"/>
      <path class="st14" d="M197.1,209.7c-.8.7-1.4,1.6-1.6,2.7-.3,2.6,2.4,5.9,3.1,6.7.5-.5,1.3-.8,2.1-.7,1.7,0,4.6.3,4.9,1,.3.7-2.2,6.1-2.6,10-.3,3.2.3,6.3,1.7,9.2,1,2,2.7,4.8-.1,7.3-1.7.5-8.6-.4-12.7-6.2-3.6-5.2-2-10.5-1.1-13.3s.1-4.4-.7-7.7c-.5-1.4-.5-2.9,0-4.3,2-2.3,4.4-3.8,7-4.7Z"/>
      <path class="st20" d="M191.9,239.6c1.3-2.3,3.6-4,6.2-4.4,3.9-.8,5.3,0,6.2,1.3s4.7,7.4.4,9.4c-1.3.8-8.1.8-12.8-6.3Z"/>
      <path class="st16" d="M198.7,219.1c.3.2.4.5.5.9,0,.3,0,.7-.1,1-.2.6-.3,1.2-.5,1.9-.3,1.2-.6,2.5-.9,3.7-.2,1.2-.4,2.5-.5,3.8s-.1,2.6.1,3.8c-.4-1.2-.6-2.5-.5-3.8,0-1.3.1-2.6.4-3.9.3-1.3.6-2.5,1-3.8.2-.6.4-1.2.7-1.8.1-.3.2-.6.3-.9-.2-.4-.3-.7-.5-.9Z"/>
      <path class="st20" d="M196.5,233.2c1.5-.7,5.8-.9,6.7.5v.5c.2-.4.2-.9,0-1.4-.3-.8-3.1-1.7-6.7-.5-.4.2-.5,1,0,.9Z"/>
      <path class="st20" d="M196.7,229.9c1.5-.7,5.4-1,6.3.2v.4c.2-.4.2-.9,0-1.2-.3-.8-3-1.7-6.5-.3-.3.3-.3,1,.2.9Z"/>
      <path class="st20" d="M197.1,226.5c1.5-.6,5.5-.7,6.3.6v.4c.2-.3.3-.8.2-1.2-.2-.9-3-1.9-6.5-.9-.4.5-.4,1.2,0,1.1Z"/>
      <path class="st20" d="M197.7,223.7c1.6-.6,5.7-.8,6.6.6v.4c.2-.4.3-.8.2-1.2-.2-.9-3.2-1.8-6.7-.8-.6.3-.7,1.1-.1,1Z"/>
      <path class="st18" d="M261.2,256.6c-1.4-.8-2.6-1.8-4-2.6s-2.7-1.7-3.8-2.8c-2-2.1-3.5-4.6-4.5-7.3-.5-1.1-1.3-3.1-1.7-4.3-.6-1.9,0-21.4,0-26.9l-14.8,8c1.4,5.6,2.3,11.3,2.8,17.1-.3,4.6-2.7,10.6,1.6,13.7.9.6,1.8,1,2.7,1.5,2.9,1.7,4.9,4.7,7.6,6.9,2,1.6,4.3,2.7,6.7,3.4,1,.4,2,.6,3.1.6,1.4-.1,2.7-.2,4-.5.8-.1,1.6-.4,2.4-.8.7-.4,1.2-1.1,1.4-2,.1-.9-.3-1.7-1-2.3-.6-.6-1.4-1.1-2.1-1.5l-.4-.2Z"/>
      <path class="st16" d="M233.2,248.9c-.3,1-.3,2.1,0,3.1,1.1,1.1,2.4,2.1,3.8,2.7,1.8.9,3.2,2.4,4,4.1.9,1.6,2.1,3,3.5,4.2,2.6,2.3,6.3,3.5,12.6,3.3,3.9-.2,7.1-1.7,8-2.8.5-.6.7-1.5.6-2.3l-32.5-12.3Z"/>
      <path class="st14" d="M234.4,238.5c0-.6.6-1.2.8-1-.1,1,0,2,.4,3,1.4,1.9,3.5,3.2,5.8,3.7,0,0-.2-.7,1.2-1.2,1.5-.5,5.2-1.9,5.9-1.5s1.5,4.2,4,7.6c2.2,2.9,5.1,5.1,8.4,6.5,2.2.9,4.7,2.7,4.7,5.6-2.3,3.1-8.4,3.5-12.2,3.1-4.7-.4-9-3.1-11.4-7.1-1.4-2-3.3-3.7-5.4-4.9-1.3-.9-2.7-1.6-3.3-3.4-.7-4.6,1-5.3,1.1-10.4Z"/>
      <path class="st20" d="M249.7,263.6c-.3-2.4.8-5.4,4.6-7.3s5.4-1.5,6.7-1,5.8,2.7,4.6,6c-.4,1.6-8.3,5.1-15.9,2.3Z"/>
      <path class="st16" d="M241.3,244.1c.4,0,.7.1,1,.3.2.3.4.6.6.9l.9,1.8c.6,1.2,1.3,2.4,2,3.6.7,1.2,1.4,2.3,2.2,3.4.8,1.1,1.7,2.1,2.7,2.9-1.2-.7-2.2-1.6-3.1-2.6-.9-1-1.7-2.2-2.4-3.4s-1.3-2.4-1.9-3.6c-.3-.6-.5-1.3-.8-1.9-.1-.3-.2-.6-.4-.9-.1-.2-.4-.4-.8-.5Z"/>
      <path class="st20" d="M249,256.5c1.2-1.2,6.4-3.5,8.2-2.9l.4.3c-.2-.4-.5-.8-1-1-.8-.5-5.4.4-8.3,3-.2.3.2.9.7.6Z"/>
      <path class="st20" d="M246.8,253.9c1.2-1.2,5.8-3.2,7.5-2.6l.4.3s0-.5-.9-1-4.7,0-7.6,2.6c-.2.4.2,1,.6.7Z"/>
      <path class="st20" d="M245.3,251.2c1.2-1.2,5.3-2.9,7-2.3l.3.4c-.1-.4-.3-.8-.7-1-.8-.6-4.2-.3-7.3,2.2-.1.4.3,1,.7.7Z"/>
      <path class="st20" d="M243.9,248.8c1.2-1.2,5.3-2.9,7-2.3l.2.4c-.1-.4-.3-.8-.6-1-.8-.6-4.2-.3-7.2,2.2-.2.4.2,1,.6.7Z"/>
      <path class="st14" d="M220,138.5l9.9-16.4s14.8-9.8,20.1-16.2c4.4,9.9,6.1,20.7,5.1,31.5-1.5,13.9-6.5,27.2-14.4,38.6-4.3,6.1-29.1,34.3-29.1,34.3-2.5-.2-9.4-4.6-10.6-8.1,0,0,5.9-14.6,8.7-19.9,3.6-6.9,4.6-10.1,12-16.4-1.4-6.6-1.7-27.4-1.7-27.4Z"/>
      <path class="st16" d="M203.4,200.8l-.5-.3.3-.5c6.5-12.5,14.6-28.1,31-33.2l.2.6c-16.2,5.1-24.2,20.4-30.7,32.8l-.3.6Z"/>
      <path class="st16" d="M240.8,134.4l-20.3,20.3c.1,3.8.5,7.6,1,11.3-1.8,1.5-3.5,3.2-5.1,4.9l7.7,12.5c-.8,4.1-.8,8.3,0,12.4,6.8-7.9,14.3-16.8,16.5-19.9,2.5-3.6,4.7-7.3,6.6-11.2l-3.5-29.3s5.6-2.9,7.2-8c-3.1,4.6-10.1,7-10.1,7Z"/>
      <path class="st14" d="M216.5,156.1c-3.3-9.1-5.3-14.9-6.4-21.3-1.7-9.1-.1-14.3,1.2-17.2,3.8-8.7,5.9-11.5,7.3-14.5,0,0,2.9,6,15.8,7.1,14.8,1.3,16.6-4.2,16.6-4.2-.5,5.5,1.1,12.5-.6,17-3.4,9.2-9.5,11.4-9.5,11.4l4.2,25.5c1.7,13.5,2.4,11.2,2.5,37.5,0,11.6.1,29.9.1,29.9-1.8,1.1-10.3,2.4-13.5,1.1,0,0-3.2-11.9-5.1-19.8-3.6-15.2-4-19-2.9-26.3,0,0-6-15.8-9.7-26.2Z"/>
      <path class="st16" d="M236.9,228.9c-1.5-7.1-4.4-21.4-5.7-29-.9-4.6-1.1-9.3-.7-13.9.1-1.3.2-2.6.1-4-.2-4.4-3.5-14.1-6.9-24.3-3-9-6.2-18.4-7.1-23.8h.3c1.2,0,2.4-.4,3.4-1.2,3-2.4,5.1-8.2,6.2-17.3h-.6c-1,8.8-3.1,14.7-5.9,16.9-.9.8-2.2,1.2-3.4,1.1-1.3-8.7,1-14.9,3-20.4.5-1.5,1.1-3,1.5-4.4l-.6-.2c-.4,1.4-.9,2.9-1.5,4.4-2,5.6-4.3,12-3,21,.8,5.5,4.1,15.1,7.2,24.3,3.3,9.7,6.7,19.8,6.9,24.1,0,1.3,0,2.6-.1,3.9-.4,4.7-.2,9.4.7,14,1.3,7.5,4.2,21.7,5.6,28.9h.6Z"/>
      <path class="st23" d="M233.8,229c2.5.9,5.1,1.1,7.7.7,5.2-.6,6.2-2.2,6.2-2.2v-7.6s-1.9,1.8-7.2,2.4c-2.7.5-5.5.3-8.2-.5l1.5,7.2Z"/>
      <path class="st23" d="M200.5,202.4c.5,2.7,2.1,5.2,4.4,6.6,4.3,3,6.5,1.7,6.5,1.7l4.8-5.9c-2.8.5-5.7-.3-7.9-2.1-2.6-1.6-4.3-4.3-4.7-7.4l-3.1,7.1Z"/>
    </g>
    <g id="freepik--Top--inject-18">
      <path class="st18" d="M267,121.5l4.2,4.1c2.3,2.3,3.5,4.7,8.2,7.7,2.2,1.4,5.1,3,7.7,2.2.6-.3,1.2-.4,1.9-.5.4,0,.7.1,1.1.2.4.1.9.1,1.3,0,.3,0,.5-.1.7-.3.3-.2.4-.7.7-.9.3-.3.8-.4,1.2-.3.4.1.8.2,1.2.2s1,0,1.2-.4c.2-.5.1-1-.3-1.3-1.9-2.2-4.6-2.9-7-4.3-.8-.5-3.6-1.8-3.4-2.5s1.9,0,3.6,0c2.5-.2,3.3-1.9,1.9-2.2-2.1-.6-4.2-1.4-6.2-2.3-2.7-1.1-4-.9-5.6-2.1-2.1-1.6-4-3.5-5.6-5.6-2.9-4.2-9.7-12.8-9.7-12.8,0,0-6.2-19.6-7.9-23.1-3-6.2-5.2-8.2-12.9-9.2l.2.9.7,17.9s5.8,16.6,6.4,18.5c.7,1.9,2.4,3.5,5.1,6.2,2.9,2.7,11.3,9.9,11.3,9.9Z"/>
      <path class="st19" d="M243.4,67.6c3.9.4,7.4,1,10.1,3.9s8.9,16.1,8.9,16.1c0,0-2.5,9.7-17.1,10.1l-1.9-30.1Z"/>
      <path class="st20" d="M237.7,67.1s-16.6.6-19.9,1.2c-2,.4-5.1,3.3-5.2,14.6-.1,7-1.4,28.8-1.4,28.8,9.2,7.9,39.7,5.1,43.8.2,0,0-.4-11.3-.5-16.5,1-2.3,1.7-4.7,1.8-7.2,0-4.7-.9-6.5-4.9-12-2.3-3.2-5-6.1-8-8.6l-5.7-.5Z"/>
      <path class="st0" d="M212.6,83c0,2.4,0,4.8-.1,7.2s-.2,4.8-.3,7.2l-.3,7.2-.4,7.2v-.2c1.4,1.2,3,2.1,4.8,2.6,1.8.6,3.6,1.1,5.5,1.4,3.7.6,7.5.9,11.3.9s7.6-.3,11.3-.9c1.9-.3,3.7-.7,5.6-1.2l1.4-.4c.4-.2.9-.3,1.3-.5.9-.3,1.7-.8,2.4-1.5-.7.7-1.4,1.3-2.3,1.7-.4.2-.9.4-1.3.6-.4.2-.9.3-1.4.5-1.8.6-3.7,1-5.6,1.3-3.8.6-7.6,1-11.4,1.1-3.8,0-7.7-.2-11.4-.8-1.9-.3-3.8-.8-5.6-1.4s-3.5-1.6-5.1-2.8h-.1v-.3l.9-14.4c.3-5,.6-9.8.8-14.5Z"/>
      <path class="st14" d="M250.9,31.8c-4.7-6.1-12.5-8.7-19.9-6.7-4.1,1-8.4,3.4-9.6,7.7-3.4,0-5.7,3.6-6.1,10.1s-.5,17.3,1,19.6c.8,1.5,2.2,2.6,3.8,3.2-.8-1.1-1.5-2.3-1.9-3.5,1,1.5,2.4,2.6,4.1,3.4,2.7,1.3,5.6,2,8.6,1.9,3.9.2,7.8-.3,11.5-1.5-1.1-.5-2-1.4-2.5-2.6,1.7,1.7,4.3,2.2,6.5,1.3-1.9-.4-3-2.7-3.1-6.7v-7.6c2.4-1.1,4.9-1.5,6.3-4.2,1-2,1.2-4.3.6-6.5,1.1.9,1.7,2.2,1.7,3.5,2-3.8,1.5-8.2-1-11.4Z"/>
      <path class="st18" d="M225.4,64.8c0-1.4-.3-8.6-.3-8.6,0,.5-2.7,2-5.1-.7-2.4-2.7-2.5-5.7-1.2-7.6,1.4-1.9,5.1-2,6.4,1.4,2.3.5,3.2-2.9,1.5-6.2.1-4.2,4.4-4,6.5-9.4,5.4,2.8,10.4.5,13.9,4.6,1,3.5,1.5,7.2,1.3,10.9.1,7.5-2,11.2-4.5,12.4-1.8.9-3.9,1.2-5.9,1l.2,2.4h0c0,1.2,0,1.7,1.1,2.1.8.3,2.4.6,2.4.6,0,0,3.4,3.2-4,4.2-11.1,1.6-17.2-3.8-17.2-3.8l2.6-.5c2.1-.4,2.3-1.3,2.3-2.8Z"/>
      <path class="st13" d="M221.9,54.5c0,.6.5,1.1,1.2,1.1s1.1-.5,1.1-1.2-.5-1.1-1.2-1.1h0c-.7.1-1.1.6-1.1,1.2h0Z"/>
      <path class="st17" d="M235.3,53.8l4,1.2c-.3,1.1-1.4,1.8-2.5,1.5h-.1c-1.1-.4-1.8-1.6-1.4-2.7Z"/>
      <path class="st22" d="M235.5,54.7c1.1,0,2.1.7,2.3,1.8-.4,0-.8,0-1.2,0-.8-.2-1.3-.9-1.5-1.7.2,0,.3,0,.4,0Z"/>
      <path class="st14" d="M246.9,41.6l-3.2-.3c.1-.9.8-1.5,1.7-1.5h0c.9.1,1.5.9,1.5,1.8Z"/>
      <path class="st14" d="M231.6,41.9l3.2-.7c-.1-.9-.9-1.4-1.8-1.3h-.1c-.8.3-1.4,1.1-1.3,2Z"/>
      <path class="st16" d="M243.3,45.7c0,.7.5,1.4,1.3,1.5.7,0,1.4-.4,1.4-1.2h0c0-.8-.5-1.5-1.2-1.5-.8,0-1.4.4-1.5,1.2,0-.1,0,0,0,0Z"/>
      <path class="st16" d="M233.5,46c0,.7.5,1.4,1.3,1.4.7,0,1.4-.4,1.4-1.2h0c0-.8-.5-1.4-1.3-1.5-.7,0-1.3.5-1.4,1.3h0Z"/>
      <path class="st16" d="M229.6,42.8l-7.9,3.7c.9,0,1.7.4,2.4,1l5.8-2.8-.3-1.9Z"/>
      <path class="st16" d="M250.5,42.3c-2.1-.3-4.3-.2-6.4.2-1.9.6-2.5,1.3-3.6,1.3s-1.8-.6-3.8-1.2c-2.1-.3-4.2-.3-6.2,0-.7,0-1.3.2-1.3,1.1s.6,1,.8,1.7c.3,2.4.8,5.5,3.9,5.6,6.5.4,4.4-6,6.7-5.7.9.2.7,1.9,1.3,3,.2.5.5.9.8,1.3,1.7,1.6,4.4,1.5,6-.2.3-.3.5-.7.7-1.1.5-1.1.5-2.9,1-3.8.6-.3,1.1-1.9.1-2.2ZM238.1,47.3c-.1.7-.5,1.3-.9,1.8-.7.7-1.7,1.1-2.7,1.1-1.4,0-2.7-.7-3.2-2,0,0-.1-.3-.1-.4-.3-1-.7-3.2-.1-3.8,1-1,5.7-1,7,.6.3.9.3,1.8,0,2.7h0ZM249.2,46.8c-.2,1.2-.8,2.3-1.9,2.9-1.7.8-3.7.2-4.5-1.5,0,0-.1,0-.1-.2-1.1-3.6.4-4.5,4-4.8,3-.2,3.1.6,2.5,3.6h0Z"/>
      <path class="st17" d="M244.4,50.9l-4.4,1.9-.4-6.7c.1-.3.4-.5.8-.6l1.1,1.5,2.7,3.7.2.2Z"/>
      <path class="st17" d="M238.2,62.4c-5.2-.5-10.1-2.1-11.2-4.4,0,1.5.8,2.9,2.1,3.8,3,1.3,6.1,2.1,9.3,2.5l-.2-1.9Z"/>
      <path class="st0" d="M199.3,83.1c-1.9,3.1,0,7.7,3.9,11.3,3.9,3.6,11.3,6.9,12.7,2.7,1.4-4.2-2.4-9.9-4.7-12.1-2.3-2.1-9.8-5.4-11.9-1.9Z"/>
      <path class="st18" d="M217.7,68.5c-2.6.5-7.3.6-11,6.4-4.8,8.1-8.9,16.6-12.3,25.4-1.9,5.1-2.3,7.7.5,10.9,2.4,2.8,12.7,11.9,15.8,14.8,2.1,1.9,5.1,5.7,7.1,7.2,0,0,4.2-1,6.4-8.7,0,0,.2-1.1,2.9-.2,1.9.7,4.3.8,5.5-.3,1.1-1.1-1.5-1.7-2.9-2.5-2-1.4-4.2-2.3-6.6-2.7-3.4-.6-4.4-.8-7.7-4.2-2.7-2.9-5.1-6-7.3-9.3l8.7-18c3-6.5,3.7-12.7.9-18.8Z"/>
      <path class="st17" d="M208,105.3c-2.1-2.8-6.7-2.9-6.7-2.9,2.6-.6,5.2,0,7.3,1.7l-.6,1.2Z"/>
      <path class="st19" d="M217.8,68.3c-2.5.2-5.7.7-7.2,2-1.9,1.5-3.5,3.1-5.1,4.9-3.4,4-6.2,7.9-6.2,7.9,0,0,4-1.5,8.9,2.2,3.9,2.9,6.7,7,7.7,11.8,1.7-4.8,3.2-10,4.1-13,1-2.9,1.5-11.2-2.2-15.8Z"/>
    </g>
  </g>
  <g id="freepik--Shadows--inject-63">
    <ellipse id="freepik--shadow--inject-63" class="st1" cx="377.7" cy="384" rx="44.2" ry="25.5"/>
    <ellipse id="freepik--shadow--inject-631" data-name="freepik--shadow--inject-63" class="st1" cx="311.4" cy="265.7" rx="53.3" ry="30.8"/>
    <ellipse id="freepik--shadow--inject-632" data-name="freepik--shadow--inject-63" class="st1" cx="217.2" cy="236.9" rx="53.3" ry="30.8"/>
  </g>
  <g id="freepik--character-3--inject-63">
    <g id="freepik--character--inject-63">
      <path class="st13" d="M302.4,120c-6.1.2-10.4,1.6-14.8,6-3.2,3.2-11.1,25.5-8.2,40.6,2.2,11.6,15.9,17.8,26.4,12.5,8.3-4.1,9.5-21,9.3-28.6s-12.7-30.5-12.7-30.5Z"/>
      <path class="st2" d="M302.4,120c-6.1.2-10.4,1.6-14.8,6-3.2,3.2-11.1,25.5-8.2,40.6,2.2,11.6,15.9,17.8,26.4,12.5,8.3-4.1,9.5-21,9.3-28.6s-12.7-30.5-12.7-30.5Z"/>
      <path class="st13" d="M294.8,125.5s-1.6-2.2-5.4-1c0,0-4.1,4.8-7.2,13.9,0,0-1,0-.3-2.6s3.2-8.7,4.9-10.9,3.6-5.5,15.2-6.6c3.7-.3,14.5.6,17.8,1.8,5.1,1.8,4,4.7,4,4.7l-29,.7Z"/>
      <path class="st6" d="M294.8,125.5s-1.6-2.2-5.4-1c0,0-4.1,4.8-7.2,13.9,0,0-1,0-.3-2.6s3.2-8.7,4.9-10.9,3.6-5.5,15.2-6.6c3.7-.3,14.5.6,17.8,1.8,5.1,1.8,4,4.7,4,4.7l-29,.7Z"/>
      <path class="st22" d="M346,268.2c-4.4-3.7-10.9-8.4-12.1-14.4,0,0,.6-4.8.9-7.7.9-9.9,1.2-17.8,2.1-25.5,1-9.4,1.4-10.5,1.2-18.5-.1-2.7-.2-5.6-.4-8.6-.2-9.4-.8-18.5-.7-25.5,0,0-13,.2-23.3.9-11.1,1.4-14.9,3.9-14.6,5.3-1,5-1.5,10.1-1.7,15.2-.3,6.8-1.4,22.8-1.4,22.8-2.6,2.1-4.6,5.1-6.7,9.8-1.2,2.8-4.4,11.8-6.6,19.2-.8,2.8-1.5,4.9-1.8,5.5-.3,1-.9,2-1.5,2.9-.8.8-1.7,1.6-2.6,2.3-.8.7-1.4,1.5-1.8,2.5-.1.4-.2.7-.1,1.1,0,1.3,1,2.5,1.6,3.6,1.1,2.1,1.5,4.4,1.2,6.8-.2,4.2,2.3,8.1,6.2,9.6,2.2.9,4.7,1,7,.3.9-.3,2-.9,2-1.9-.1-.7-.4-1.4-.9-1.9-3.2-4.5-4.6-10-3.9-15.5.5-4,2.8-8.6,4.9-12,4.8-7.9,10-15.6,14.3-22.1,5.3-8,5.8-9.3,7.7-16.9.9-3.6,1.8-7.4,2.8-11.2,1.3,5.9,3.2,16.3,3.6,18.6,0,.3-.1.8-.1,1.3-.8,3.6-.8,6.1-.8,10.8s2,15.6,3.1,23.2c.2,1.7.5,3.4.7,5.1,0,1.6-.4,3.3-1.2,4.7-.6,1.2-.8,2.6-.6,4,.1.4.2.8.4,1.2.7,1.2,2.1,1.6,3.2,2.4,1.4.9,2.6,2.6,3.8,3.9,1.1,1.3,2.5,2.4,4,3.3,1.8.7,3.8,1.1,5.8,1.2,1.1.1,2.3,0,3.4-.2,1,0,2.1-.3,3-.7.8-.4,1.3-1.2,1.4-2.1-.1-1.3-.7-2.3-1.5-2.8Z"/>
      <path class="st14" d="M333.9,253.8c-.5.7-3.1,1.1-4.2,1.5s-1,3.1-1,3.1c-1,0-1.1-.8-1.5-2.1-.6-2.2-2.3-2.2-2.8-2.5v-.7s-.6-.2-.7.9c-.2,1.4-.5,2.9-1,4.3-.3,1-.8,4.5-.1,5.5.6.8,1.4,1.3,2.3,1.7,1.8,1,3.4,2.4,4.7,4.1,1,1.4,3.9,4.7,10.3,4.8s8.2-2.2,8.2-2.2c.9-1.6.4-3.6-1.1-4.6-2.6-2-4.2-2.3-7-5.4-2.3-2.7-4.3-5.4-6.1-8.4Z"/>
      <path class="st14" d="M288.6,254.5c-1.7-.1-3.2-.7-4.5-1.8-2.1-1.5-2.9,2.8-2.9,2.8-.7-.5-1-1-.5-3,.4-1.8.4-2.9-.6-3.9l.5-1s-.6-1-1.8,1.4-4.4,3.2-4.8,6.7c.3,1.3.8,2.5,1.5,3.7,1.3,1.8,1.9,4,1.7,6.2-.2,2.7.9,7.2,4,9.3,3.3,2.3,7.6,2.8,11.3,1.3,1.5-1.2,1.7-3.3.5-4.7h-.1c-2.1-3.1-3-4.5-3.7-7.1s-.6-9.9-.6-9.9Z"/>
      <path class="st23" d="M298.5,167.5s-.9,10.1-1.2,16-2.2,28.5-2.2,28.5c-7.5,6.8-10.8,20.9-13.8,31.4,0,0,4,5.6,10.5,4.2-.1-.4,19-28.3,21.4-34.2,2.2-5.4,4.6-17.1,4.6-17.1,0,0,2.7,13.4,2.3,15.9-1.7,10.1,2.1,27.2,2.9,34.2,0,0,.8,2,5.8,2.1,5.2.1,6.2-1.7,6.2-1.7,0,0,3.2-33.7,3.6-40.1s-.9-30.5-1.6-38.8l-38.5-.4Z"/>
      <path class="st14" d="M317.9,196.2l1.1-6.3s8.5-.6,12.2-4.8c0,0-1.3,5.5-10.1,6.3l-1.2,6.1.3,12.3c-.7-4.5-1.5-8.6-2.3-13.6Z"/>
      <path class="st20" d="M300.2,124.2c-4.4.8-5.7,3.5-6.2,7.2-.3,3.4,0,6.8.9,10l2.4,14.8.5,17.9c5.4,6,27.6,8.2,39.7-.5,0,0-1-31-1.8-37-1.5-10.5-8.2-13.1-9.9-13.1h-15.5c0,0-10.1.7-10.1.7Z"/>
      <g id="freepik--Girl--inject-63">
        <path class="st15" d="M351.2,157.2c-1-4.4-2.2-8.7-3.6-13l-8.3,2.9,11.9,10.1Z"/>
        <path class="st19" d="M331.9,124.1c2.9.2,5,0,8.1,1.9s9,21.9,9,21.9c-1.7,2.7-9.9,3.6-11.3,3.5,0,0-1.4-8.3-3-12.5s-2.8-14.8-2.8-14.8Z"/>
        <g id="freepik--Kid--inject-63">
          <path class="st13" d="M325.9,123.5s8.8,6.2,11.1,31.8c1.2-1,3.1-9.9,2.2-15.6-.8-5.1-3.7-13.4-7.3-15.6-1.8-1-4-1.2-6-.6Z"/>
          <path class="st5" d="M325.9,123.5s8.8,6.2,11.1,31.8c1.2-1,3.1-9.9,2.2-15.6-.8-5.1-3.7-13.4-7.3-15.6-1.8-1-4-1.2-6-.6Z"/>
        </g>
        <path class="st22" d="M351.5,159.3c0,1.6-.3,3.2-.9,4.7-.3,1-1.1,1.9-2.1,2.3-.8.1-1.5,0-2.2-.4-3.1-1.5-5.7-3.7-7.6-6.5-2.2-3-3.5-6.5-5.3-9.7-1.5-2.4-2.6-5-3.4-7.8-.5-1.8-.6-3.7-.3-5.6.1-.9.4-1.8.8-2.7,0-.1,1.1-1.6,1.3-1.3.7,1.7,1.4,3.4,1.9,5.1,1.2.7,2.6.7,3.8.1.5-.2.9-.7,1-1.3-.2-.9-.5-1.7-.8-2.6,1.3-.2,2.5,1.8,2.9,2.8.3,1.3.4,2.7.3,4s0,2.7.3,4c1.1,3.8,5.2,5.7,7.8,8.5,1.6,1.8,2.5,4,2.5,6.4Z"/>
      </g>
      <path class="st13" d="M305.7,123.8s6.2,4.4,6.6,14.5c1,25.6-15.8,32.3-15.8,32.3-1.6-3.2-.6-6.3.8-9.4,5.5-5.6,8.4-13.3,8.1-21.1-.4-9.3-4.9-14.6-7.2-15.3,2.3-1.1,4.9-1.4,7.5-1Z"/>
      <path class="st5" d="M305.7,123.8s6.2,4.4,6.6,14.5c1,25.6-15.8,32.3-15.8,32.3-1.6-3.2-.6-6.3.8-9.4,5.5-5.6,8.4-13.3,8.1-21.1-.4-9.3-4.9-14.6-7.2-15.3,2.3-1.1,4.9-1.4,7.5-1Z"/>
      <path class="st16" d="M337.6,96.5c-.2,3.9-3.5,6.9-7.4,6.7-3.9-.2-6.9-3.5-6.7-7.4.2-3.8,3.3-6.8,7.1-6.7,4,0,7.1,3.4,7,7.4h0Z"/>
      <path class="st16" d="M304,104.5s1.8,8.8,2.5,10.2c.5.9,1.3,1.6,2.3,1.9v-6.1c-.1,0-4.8-6-4.8-6Z"/>
      <path class="st16" d="M306.4,92c-1.3-.2-2.6.3-3.5,1.2-1.5,1.6-.7,6.5,1.1,11.3l3.5.4-1.1-12.9Z"/>
      <path class="st22" d="M308.5,104.9c-.7.4-1.7-.9-2.6-1.9s-3.7-2.2-5.1.8,1.2,7.1,3.4,7.8c3.8,1.2,4.4-1.2,4.4-1.2l.2,13.9c1.7,3.8,5.2,6.5,9.3,7.2,6.8,1,6.8-4.7,4.6-7.5v-3.9c1.7,0,3.4,0,5-.4,2.2-.6,3.8-1.9,5.3-5.1,2-4.4,2.3-9.3.9-18.4-1.5-10.6-14.5-11-21.2-6.9s-4.2,15.6-4.2,15.6Z"/>
      <path class="st16" d="M305.6,96c.3-3.2-.9-7.1,1.3-9.9,1.4-1.8,3.8-2.5,5.9-1.7.3-2.8,2.7-4.8,5.4-4.5,1.8.2,3.3,1.3,4.1,2.9.9-1.6,2.5-2.6,4.4-2.6,1.8.2,3.4,1.5,3.8,3.3-.1-.3,2.2,0,2.4,0,.8,0,1.5.3,2.2.7,1.3.8,2.2,2.1,2.6,3.6.4,2.4-.6,4.8-2.7,6.1-2,1.3-4.6,1.4-6.8.4-.2,0-.5-.2-.8,0-.1,0-.2.2-.3.4-.5,1-1.4,1.7-2.4,2-2,.4-4.2-.3-5.5-1.9-1.4,1.9-4,2.3-5.8.9-.1,0-.3-.2-.4-.3.9,1.4.5,3.3-.9,4.2-.2,0-.4.2-.6.3-.5.2-1,.3-1.5.2,1.4,1.4,1.7,3.4.9,5.2-.3.7-.8,1.2-1.5,1.4-1.6.4-2.6-2.4-3.6-3.2-.4-.4-.4-1.1-.4-1.6,0-2.1,0-3.9.2-5.7Z"/>
      <path class="st16" d="M306.4,92.7l-4.2-2.3c.6-1.2,2-1.6,3.1-1h.1c1.2.7,1.6,2.1,1,3.3Z"/>
      <path class="st15" d="M322.7,120.1s-6.8-.8-9.8-2.8c-1.2-.7-2.3-1.8-3-3,.3,1.3.9,2.5,1.7,3.6,3,3.6,11.1,4.4,11.1,4.4v-2.2Z"/>
      <path class="st16" d="M320.5,103.5c0,.8-.7,1.4-1.5,1.4s-1.4-.7-1.4-1.5.7-1.4,1.4-1.4,1.5.7,1.5,1.5Z"/>
      <path class="st16" d="M318.7,99.2l-3,1.6c-.4-.9-.1-1.9.7-2.4.8-.4,1.8,0,2.3.8-.1,0,0,0,0,0Z"/>
      <path class="st24" d="M319.6,111.2l5.6,2.2c-.5,1.5-2.2,2.4-3.7,1.9h-.1c-1.6-.8-2.4-2.5-1.8-4.1Z"/>
      <path class="st7" d="M320.9,112.8c-.5,0-1,0-1.4.4.3.8.9,1.5,1.8,1.9.6.2,1.3.2,1.9,0,0-1.3-1-2.3-2.3-2.4Z"/>
      <path class="st16" d="M332.7,100.1l-2.7-2.1c.5-.8,1.6-.9,2.3-.4h.1c.7.6.9,1.7.3,2.5Z"/>
      <path class="st16" d="M331.9,103c0,.8-.7,1.4-1.5,1.4s-1.4-.7-1.4-1.5.7-1.4,1.4-1.4,1.6.6,1.5,1.5q0,0,0,0Z"/>
      <polygon class="st15" points="324.4 102 324.7 109.6 328.7 108.2 324.4 102"/>
      <path class="st0" d="M320.6,131.5s-8.5-2.6-11.8-7.9v-3.2c-2.1.2-3.1,3.5-3.1,3.5,0,0,.2,4.2,2.7,6.9s6.8,1.7,6.8,1.7c0,0,1.8,2.3,2.7,2.6s2.7-3.6,2.7-3.6Z"/>
      <path class="st0" d="M320.6,131.5c1.2-1,2.6-4.6,2-7.5v-2.1c.5,0,1,.2,1.3.5.5.6,1.1,1.3,1.5,2,.5,1.5.9,3.1,1.2,4.7,0,1.2-.8,2.3-2,2.7.1.9,0,1.7-.2,2.6-.2.6-3.8-2.9-3.8-2.9Z"/>
      <path class="st22" d="M290.5,170.9c2.1-.7,3.7-1.8,8-5.4,3.5-2.9,6.7-6.2,9.6-9.8.5-.6,1-1.1,1.6-1.6,1-.9,1.9-1.9,2.6-2.9,1.7-2.5,1.8-4.2,2-7.3s.1-7.3-1.2-10.3c-.2-.5-1.3-.7-1.6-.6.2.7.3,1.4.4,2-.6,1.5-1.5,3-2.6,4.2-1.6,1.8-3.3,2.8-3.4,2.4s.4-1.6.2-3.5-.7-2.6-1.3-2.8c-.9-.2-.9.8-1.4,2.3-.5,1.8-1.3,2.8-1.4,5.6-.1,2.4,0,3.4-1.1,4.7-1.2,1.1-2.5,2.2-3.9,3.1,0,0,1.4-4.4,2.8-8.8,2.8-8.6,1.7-16.2-1.7-17.6-4.8.2-7.8,2.1-10,9.1-2.4,7.4-3.2,10.6-5.1,25.2-1.4,11,3.9,13.2,7.5,12Z"/>
      <path class="st15" d="M297,151c-3.1,2.2-9.8,5.4-10.7,9,0,0,.1-2.9,4.2-6.3,2.3-1.9,4.7-3.7,7.2-5.2l-.7,2.5Z"/>
      <path class="st19" d="M298.1,124.7c-1.7-.4-4.5.2-6.9,2.4s-3.7,6.4-4.9,10.3-3.1,14-3.1,14c3.3,1.2,6.7,1.8,10.2,2,0,0,2.7-1.7,4.1-2.7,0,0,2.8-8.8,3.5-11.1s2-13.2-2.9-14.9Z"/>
    </g>
  </g>
  <g id="freepik--character-4--inject-63">
    <g id="freepik--Character--inject-63">
      <path class="st22" d="M320.9,212.4s3.1.1,7.2.1,14.2-.7,18.1-1.9c5.9-3.7,14.4-14.8,17.9-18.1,2.6-2.5,5.4-4,10.4-3.2,3.3.5,5.6,10,.8,15-4.4,4.7-12.9,14.3-22.6,18.6-4.2,1.9-9.1,1.2-20,.7-4.4-.1-8.7-.5-13-1.2-3-.4,1.2-10,1.2-10Z"/>
      <path class="st15" d="M323.3,219.6c.7-1.9,1-4,.9-6h-.2c-2.2-.1-4.4-.4-6.5-1.1l-1.2.6c-1.4,2-2.3,8-.8,8.5,1.4.4,2.7.7,4.1.9,2.2.1,3.2-1.6,3.7-2.9Z"/>
      <path class="st22" d="M318.4,221.9c-5.9-.2-8.1-3.2-8.9-8.4-.5-4.5-.8-9.1-.7-13.7-.1-1.8.5-2.4,1.2-2.5.3,0,1.4.2,1.5,2.2.2,3.5.3,5.6,1,5.6s.6-2.6.5-6.1c0-2.4,0-4.4,1.4-4.4s1.8,1.4,1.8,4.6c.1,3.2,0,5.6.8,5.6s.5-3.4.7-5.6.1-3.5,1.5-3.5,1.6,1.8,1.5,3.9c-.1,2.9,0,5.9.2,8.8.4,1.3,1.7-1.9,2.7-3.1,1.6-2.1,3.5-1.1,2.7.8-1,2.3-1.7,4.8-2.1,7.3-.4,2.5-1.4,8.5-5.8,8.5Z"/>
      <path class="st15" d="M318.4,211.3s-3.5,3.7-2.3,7.6c-1.2-1.5-1.4-3.5-.6-5.3.5-1.2,1.6-2.1,2.9-2.3Z"/>
      <polygon class="st22" points="403.8 376.3 395.4 376.3 394.3 361.4 403.8 362.9 403.8 376.3"/>
      <path class="st16" d="M385.2,392c-.3.8-.2,1.7.1,2.6.3.5,2.2,2.1,5.7,2.4,3.3.2,6.2-.2,8.2-1.4,1.7-.9,2.9-2.6,3.1-4.5s0-3.7.9-5.1,2.1-2.8,2.4-3.6c.3-1.3.3-2.6,0-3.8l-20.4,13.4Z"/>
      <path class="st13" d="M394.2,375.6c0,.7-.1,1.4-.4,2.1-.5,1.5-1.2,2.8-2,4.1-.4.7-.9,1.3-1.4,1.9-1,1.2-2.2,2.2-3.3,3.3s-1.8,2.5-2,4c-.1,2.6,2.7,3.5,4.8,3.9,2.3.4,4.7.3,7-.4,2.4-.6,4.3-2.7,4.7-5.1.1-.7.1-1.5.2-2.2.3-1.6,1-3.2,2-4.5.6-.8,1.1-1.6,1.5-2.5.7-1.6.1-3.4-.3-5-.4-1.4-.8-2.9-1.3-2.8,0,.7,0,.8-.5,1.3s-.7,1.5-1.4,2.1c.2-.6.4-1.2.5-1.8,0-.3,0-.5-.1-.7-.2-.2-.5-.3-.8-.4-1-.3-2.1-.6-3.1-.7-1-.2-2-.2-3.1,0-.3.1-.6.2-.8.5-.2.3-.3.6-.3.9,0,.2,0,1.3,0,2Z"/>
      <path class="st5" d="M394.2,375.6c0,.7-.1,1.4-.4,2.1-.5,1.5-1.2,2.8-2,4.1-.4.7-.9,1.3-1.4,1.9-1,1.2-2.2,2.2-3.3,3.3s-1.8,2.5-2,4c-.1,2.6,2.7,3.5,4.8,3.9,2.3.4,4.7.3,7-.4,2.4-.6,4.3-2.7,4.7-5.1.1-.7.1-1.5.2-2.2.3-1.6,1-3.2,2-4.5.6-.8,1.1-1.6,1.5-2.5.7-1.6.1-3.4-.3-5-.4-1.4-.8-2.9-1.3-2.8,0,.7,0,.8-.5,1.3s-.7,1.5-1.4,2.1c.2-.6.4-1.2.5-1.8,0-.3,0-.5-.1-.7-.2-.2-.5-.3-.8-.4-1-.3-2.1-.6-3.1-.7-1-.2-2-.2-3.1,0-.3.1-.6.2-.8.5-.2.3-.3.6-.3.9,0,.2,0,1.3,0,2Z"/>
      <path class="st21" d="M391.5,382.3c1-.7,3.1-.7,4.3-.6,1.2.1,2.3.5,3.4,1.2.3.2.7.2,1-.1h0c.3-.3.3-.7,0-1h-.1c-1.1-.9-2.4-1.4-3.8-1.5-2.9-.2-3.8.3-3.8.3,0,0-1.3.9-1,1.7Z"/>
      <path class="st21" d="M389.3,385c1.2-.7,3.6-.6,4.8-.5,1.2.1,2.3.5,3.3,1.2.3.2.7.2,1-.1h0c.3-.3.3-.7,0-1h-.1c-1.1-1-2.5-1.5-3.9-1.6-2.9-.2-3.7.4-3.7.4-.7.3-1.2.9-1.4,1.6Z"/>
      <path class="st21" d="M397.4,377.6c-1.2-.2-2.5-.1-3.6.3-.5.3-.9,1.1-.5,1.3,1-.4,2.1-.6,3.2-.5s2.2.4,3.1.9c.2.1.5.3.8.4.3.2.8.1.9-.3h0c.1-.3,0-.7-.2-.8-1.1-.7-2.4-1.2-3.7-1.3Z"/>
      <polygon class="st22" points="374.7 368 365.5 368.3 365.4 352.5 376.1 351.8 374.7 368"/>
      <path class="st16" d="M347.4,379.1c-.2.8-.2,1.6.1,2.3.3.7,3.8,2.7,8.6,2.3,3.5-.2,6.9-1.4,9.8-3.4,1.8-1.2,3.7-1.4,6-1.6s5.4-1.3,5.9-2.4c.3-1,.2-2-.1-3l-30.3,5.8Z"/>
      <path class="st13" d="M366.6,364.3h-.4c-.2-.1-.4-.1-.6-.1-.2.1-.4.2-.6.4-.5.6-.9,1.2-1.2,1.9-1,1.6-3.1,3-5.4,4.2-1.5.8-3.1,1.5-4.7,2.2s-3.8,1.2-5.1,2c-1.6,1.1-2,3.2-.9,4.8.2.3.5.7.9.9,1.8,1.1,6.6,2.2,11.7.8,2.8-.8,5.8-3.7,9.4-4,2.3-.2,6.6-.8,8.1-2.6.5-.8-.2-3.2-.8-5.3-.6-2.3-1.3-5.9-2-5.7,0,.3-.1.7-.4.9-.3.3-.7.5-1,.7-.5.5-1,1.1-1.3,1.8-.1.3-.4.6-.6.7-.4.1-.7-.1-1-.2-.4-.2-.9-.2-1.4-.1,0-.5.1-.9.2-1.4v-.4c-.1-.1-.2-.3-.3-.3-.7-.7-1.6-1.1-2.6-1.2Z"/>
      <path class="st5" d="M366.6,364.3h-.4c-.2-.1-.4-.1-.6-.1-.2.1-.4.2-.6.4-.5.6-.9,1.2-1.2,1.9-1,1.6-3.1,3-5.4,4.2-1.5.8-3.1,1.5-4.7,2.2s-3.8,1.2-5.1,2c-1.6,1.1-2,3.2-.9,4.8.2.3.5.7.9.9,1.8,1.1,6.6,2.2,11.7.8,2.8-.8,5.8-3.7,9.4-4,2.3-.2,6.6-.8,8.1-2.6.5-.8-.2-3.2-.8-5.3-.6-2.3-1.3-5.9-2-5.7,0,.3-.1.7-.4.9-.3.3-.7.5-1,.7-.5.5-1,1.1-1.3,1.8-.1.3-.4.6-.6.7-.4.1-.7-.1-1-.2-.4-.2-.9-.2-1.4-.1,0-.5.1-.9.2-1.4v-.4c-.1-.1-.2-.3-.3-.3-.7-.7-1.6-1.1-2.6-1.2Z"/>
      <path class="st21" d="M360.5,369.4c.3-.6,1-1.1,1.7-1.1,1-.2,2.9.6,4,1.5.4.3.4.8.1,1.2-.1.1-.2.2-.3.2h0c-.3.2-.7.1-1-.1-1.1-1.2-2.8-1.8-4.5-1.7Z"/>
      <path class="st21" d="M357.3,371.2c.5-.6,1.2-1,2-1,1.6.1,3.2.6,4.4,1.6.4.3.4.8.1,1.2l-.2.2h0c-.3.2-.7.1-.9-.1-1.4-1.4-3.4-2.1-5.4-1.9Z"/>
      <path class="st21" d="M353.7,372.8c.5-.6,1.3-.9,2.1-.9,1.6.1,3,.7,4.2,1.7.4.3.4.8.1,1.2l-.2.2h0c-.3.2-.7.1-.9-.1-1.3-1.5-3.3-2.3-5.3-2.1Z"/>
      <path class="st14" d="M401.3,243c6.8,15.4.9,62.9.9,62.9.2,2.5,3,9.5,4.1,20.4,1.2,12.9-2.3,41.9-2.3,41.9-3,1.2-6.3,1.1-9.2-.3,0,0-8.2-46.8-9.8-59.6-1.4-11.2-5.4-35.5-5.4-35.5l-1,35.3s1.4,8.9,1.9,13.7c.7,7.5-4.5,38.4-4.5,38.4,0,0-6,1.9-10.9,0,0,0-3.6-43.3-4.3-52.4-.9-12.2-2.9-47.8-.2-64.8h40.7Z"/>
      <path class="st8" d="M379.6,272.7l-1.6-11.4s-9.6-1.3-14-5.4c2.5,4,6.7,6.6,11.3,7.2l1.7,10.3,1.7,30.9.9-31.6Z"/>
      <path class="st13" d="M387.5,189.6l2.9.2s8.5,1.7,9.2,3.1c1.6,3.1,1.7,4,1.7,7.6s-.6,7.4-2.6,12.6l-3.1,12.4c-.6,3.5,5.1,11.2,6.7,20-11.5,6.4-27.3,5.3-35.4,1.8-2.4-.9-4.6-2.5-6.3-4.5,1.3-7.1,1.6-11.9,3.7-18.4,0,0-.6-4.1-.7-7.4-4.4-4.2-4.5-11.3-1.8-15.1,5.9-8.3,11.4-12.6,12.5-12.6l13.2.3Z"/>
      <path class="st9" d="M387.5,189.6l2.9.2s8.5,1.7,9.2,3.1c1.6,3.1,1.7,4,1.7,7.6s-.6,7.4-2.6,12.6l-3.1,12.4c-.6,3.5,5.1,11.2,6.7,20-11.5,6.4-27.3,5.3-35.4,1.8-2.4-.9-4.6-2.5-6.3-4.5,1.3-7.1,1.6-11.9,3.7-18.4,0,0-.6-4.1-.7-7.4-4.4-4.2-4.5-11.3-1.8-15.1,5.9-8.3,11.4-12.6,12.5-12.6l13.2.3Z"/>
      <path class="st14" d="M388.4,184.2c0-2.3,5.8-6.8,8-10.1,2.2-3.2,7-12.5.7-16.3,0,0,1.2-6.2-3.2-9.7-5.1-4-13.3-4-22.2-2.7s-11.8-.5-13.5,3.2,1.7,7.7,3.4,8.5c0,0-3.1,3.8-.5,7.4,2.6,3.6,9.4,2.5,9.4,2.5l17.9,17.2Z"/>
      <path class="st22" d="M368.5,153.4c-2.1,1.3-4.8,6.7-4.5,18,.2,9.6,3.3,12,4.9,12.6,1.6.7,4.6.3,7.5-.2v5.6s-3.6,3.3.4,4c8.7,1.7,11.7-3.7,11.7-3.7v-13.5s1.6,1.7,4.4-.2c2.4-1.6,3.2-4.8,1.6-7.2-.1-.1-.2-.2-.3-.4-1.6-1.5-4-1.4-5.5.2-.2.2-.3.3-.4.5,0,0-3.9-.3-10.1-3.8-4.7-2.5-8.2-6.8-9.7-11.9Z"/>
      <path class="st14" d="M388.3,169.1v3.8h0c-1.7,0-3.1-1.4-3.1-3.1v-4.5l3.1,3.8Z"/>
      <path class="st23" d="M361,183.3c.1-1.6,1-3.2,2.3-4.1.5-.3,1.1-.4,1.6-.2h0l2.4,1.4-3.4,5.8-2.3-1.3h0c-.4-.3-.7-.9-.6-1.6Z"/>
      <path class="st14" d="M365.7,180.6c-1.4.9-2.3,2.4-2.3,4.1s1,2.1,2.3,1.3c1.4-.9,2.3-2.4,2.3-4.1s-1-2-2.3-1.3Z"/>
      <path class="st14" d="M370.4,177.9v.8c0,.3-.2.7-.5.9l-4.2,2.4v-1.4l4.7-2.7Z"/>
      <polygon class="st23" points="368 176.6 370.4 177.9 365.7 180.6 363.3 179.3 368 176.6"/>
      <path class="st0" d="M361.5,178.3s-.1-.4-.4-1-.5-1.4-.8-2.2-.6-1.6-.9-2.2c-.1-.1-.1-.3-.2-.4,0-.1-.1-.2-.2-.3s-.2-.1-.4-.1h-.1c-.1.2-.1.3-.1.5s.1.2.1.3l.2.4c.3.6.7,1.3,1.1,2.1l1.1,2.1.6.8h0Z"/>
      <path class="st0" d="M359.5,180.2l-.9-.5-2.1-1.1c-.8-.4-1.5-.8-2.1-1.1l-.4-.2c-.1-.1-.2-.1-.3-.1s-.3,0-.4.1v.2c-.1.1,0,.3,0,.4.1.1.2.1.3.2l.4.2c.6.3,1.4.6,2.2.9l2.2.8,1.1.2h0Z"/>
      <path class="st0" d="M359.4,183.1h-1.1c0,.1-2.3.5-2.3.5-.9.1-1.7.2-2.3.4h-.4c-.1.1-.2.2-.3.2-.1.1-.2.2-.2.3v.2c.1.1.2.2.4.2h.7c.6-.2,1.5-.5,2.3-.8l2.3-.7.9-.3h0Z"/>
      <path class="st0" d="M360.4,185.8l-.8.7-1.7,1.6c-.6.6-1.2,1.2-1.7,1.7l-.3.3c-.1.1-.1.2-.2.3v.4h.1c.1.1.3.1.4.1s.1-.1.2-.2l.3-.3c.4-.5.9-1.2,1.5-1.8l1.5-1.9c.5-.5.7-.9.7-.9h0Z"/>
      <polygon class="st14" points="364.5 179 366.1 179.9 365.3 180.4 363.7 179.4 364.5 179"/>
      <polygon class="st16" points="366.1 179.9 364.5 179 364.5 179.3 365.8 180 366.1 179.9"/>
      <polygon points="364.5 179.3 363.9 179.6 363.7 179.4 364.5 179 364.5 179.3"/>
      <path class="st16" d="M376.3,169c0,.7.5,1.2,1.2,1.2s1.2-.5,1.2-1.2-.5-1.2-1.1-1.2-1.3.5-1.3,1.2h0Z"/>
      <path class="st16" d="M365.6,165.3l2.4-1.7c-.4-.7-1.3-.9-1.9-.5h-.1c-.6.6-.8,1.5-.4,2.2Z"/>
      <path class="st16" d="M366.2,168.1c-.1.7.4,1.3,1.1,1.4.7.1,1.3-.4,1.4-1.1v-.2c.1-.7-.4-1.2-1.1-1.3h0c-.8,0-1.4.6-1.4,1.2h0Z"/>
      <polygon class="st15" points="372.9 167.5 372.7 174.7 368.9 173.5 372.9 167.5"/>
      <path class="st15" d="M376.4,183.9c3.1-.4,9.4-2.2,10.4-4.7-.4,1.3-1.2,2.4-2.2,3.2-1.9,1.6-8.2,3.5-8.2,3.5v-2h0Z"/>
      <path class="st12" d="M390.4,189.9s-1.3,5.6-7.8,10.8c-3.4,2.9-7.1,5.4-11,7.6,0,0-2.8-5.3-1.2-10.5,2.2-6.9,5.4-8.5,5.4-8.5h-2.3c0-.1-3.3,1.3-7.8,6.5-6.6,7.7-6.8,11.5-5.5,16.2.6,1.9,1.7,3.7,3.1,5.1l.2,7.1-3.7,20.7s4.5,5.8,18,7.1c19.4,1.8,25.3-5.4,25.3-5.4-.6-6.6-4.2-14.4-4.6-20.7-.5-7.3,3.1-14.3,3.7-22.2.2-3,0-5.9-.9-8.8-.7-2.5-2.9-4.3-5.5-4.5l-5.4-.5Z"/>
      <path class="st20" d="M401.6,239.5c-.2-.9-.5-1.9-.8-2.8-7.1,4.9-21.7,5.3-29.3,3.6-4-.9-7.5-3.4-9.8-6.8l-.6,3.5c1.4,2.4,4.5,5.4,10.4,6.7,7.9,1.8,23.4,1.2,30.1-4.2Z"/>
      <path class="st20" d="M399.9,233.4c-.3-1-.5-2-.8-3-7.5,3.9-20.6,4.2-27.6,2.6-3.4-.8-6.5-2.6-8.7-5.4l-.6,3.5c2.4,2.7,5.7,4.6,9.3,5.2,7.3,1.7,21,1.4,28.4-2.9Z"/>
      <path class="st4" d="M371.6,208.3c-1.6,4-2.5,35.7-1.3,45.3l-1.7-.4c-.6-5.8-.1-23.2.6-31.7.5-7,1.1-11.3,2.4-13.2Z"/>
      <path class="st22" d="M444.3,240.1c0-.6,0-1.1-.1-1.7-.1-1.8-.5-3.6-1.4-5.2-.9-1.6-2.4-2-4.1-2.6-2.7-1-3.7-.4-6.4-1.4-3.9-1.4-11.6-4.4-16.1-6.5,0,0-8.4-22.9-11-27.8-2.3-4.4-5-4.3-11.3-4.7-2.7,10.8-2.1,18.5,3.9,24.2,0,0,5.8,10.9,8.2,15s2.9,4.7,8.9,6.2c5.6,1.4,16.5,4.5,18.7,5.1,2.8.8,5.2,7.1,10.1,1.7.5-.7.7-1.5.6-2.3Z"/>
      <path class="st14" d="M441.9,204c-.1-.4-.3-.8-.7-1-1.1-.6-2.5-.6-3.6,0-.4.2-.7.6-.7,1h0v61.1c0,.8,1.1,1.4,2.5,1.4s2.5-.6,2.5-1.4h0v-61.1h0Z"/>
      <polygon class="st16" points="450.5 154.3 432.2 143.7 428.3 146 415.4 155.7 415.4 180.1 428.3 204.8 446.6 215.3 450.5 213.1 463.4 203.3 463.4 179 450.5 154.3"/>
      <polygon class="st23" points="446.6 156.5 428.3 146 415.4 155.7 415.4 180.1 428.3 204.8 446.6 215.3 459.5 205.6 459.5 181.2 446.6 156.5"/>
      <polygon class="st11" points="430.8 202.4 418.8 179.3 418.8 157.4 428.6 150 444.1 159 456.1 182 456.1 203.9 446.3 211.3 430.8 202.4"/>
      <path class="st20" d="M422,173.8c0-.2.2-.3.4-.2l1.6,1c.2.2.4.4.4.7v1.4c0,.8.1,1.6.2,2.3.1.5.4.9.9,1.2.4.3.7.3.8,0,.2-.5.3-1,.2-1.6,0-.8-.1-1.6-.4-2.3-.3-.9-.7-1.8-1.2-2.6l-1.2-2.2c-.5-.9-1-1.9-1.3-2.9-.3-.9-.5-1.9-.5-2.8,0-1.6.3-2.5.8-2.9s1.4-.2,2.7.6c1.2.7,2.1,1.7,2.6,3,.5,1.4.7,2.8.7,4.3v.7c0,.2-.2.3-.4.2l-1.5-1c-.2-.2-.4-.4-.4-.7v-.9c0-.7,0-1.4-.2-2.1-.1-.4-.4-.8-.8-1.1-.4-.2-.7-.3-.8-.1-.2.4-.3.8-.2,1.2,0,.5.1,1.1.2,1.6.3.7.6,1.4.9,2l1.3,2.5c.6,1.1,1.1,2.3,1.5,3.5.3,1,.5,2.1.5,3.1,0,1.8-.2,2.9-.8,3.4-.5.5-1.4.3-2.7-.5-1.2-.7-2.1-1.8-2.7-3.1-.5-1.5-.8-3-.8-4.6l.2-1.1Z"/>
      <path class="st20" d="M431.5,186v-15.4c0-.3-.2-.5-.4-.7l-1.1-.7c-.2-.2-.4-.4-.4-.7v-1.5c0-.2.2-.3.4-.2l5.4,3.5c.2.2.4.4.4.7v1.6c0,.2-.2.3-.4.2l-1.1-.7c-.2-.1-.4,0-.4.2v15.3c0,.2-.2.3-.4.2l-1.7-1.1c-.2-.2-.3-.4-.3-.7Z"/>
      <path class="st20" d="M443.2,192.9c-.6.5-1.5.4-2.7-.4-1.2-.8-2.2-1.8-2.7-3.1-.6-1.5-.9-3.1-.9-4.6v-8.6c0-3.4,1.2-4.4,3.6-2.8,1.2.7,2.1,1.8,2.7,3.1.6,1.4.9,2.9.8,4.4v8.6c0,1.8-.2,2.9-.8,3.4ZM439.6,188.8c.1.5.5.9.9,1.2.5.3.8.3.9-.1.2-.7.3-1.4.2-2.1v-8.7c0-.7-.1-1.4-.2-2.1-.1-.5-.4-.9-.8-1.2s-.7-.3-.9,0c-.2.6-.3,1.2-.2,1.8v8.7c-.1.9-.1,1.7.1,2.5Z"/>
      <path class="st20" d="M446.3,195.6v-17.8c0-.3.2-.3.4-.2l3.3,2.2c1.2.7,2.1,1.7,2.6,3,.5,1.4.8,2.9.7,4.4v.4c.1,1.3-.1,2.6-.7,3.8-.5.7-1.3.6-2.5-.2l-1-.6c-.2-.1-.4,0-.4.2v6.5c0,.2-.2.3-.4.2l-1.7-1.1c-.2-.3-.3-.5-.3-.8ZM449.1,188.2l.5.3c.5.3.9.3,1,0,.2-.8.3-1.7.2-2.5v-.4c0-.9-.1-1.7-.2-2.5-.2-.6-.5-1-1-1.3l-.5-.3c-.2-.1-.4-.1-.4.2v5.9c0,.2.2.4.4.6Z"/>
      <polygon class="st23" points="428.3 146 432.2 143.7 450.5 154.3 446.6 156.5 428.3 146"/>
      <polygon class="st10" points="428.3 146 432.2 143.7 450.5 154.3 446.6 156.5 428.3 146"/>
      <polygon class="st14" points="463.4 179 459.5 181.2 446.6 156.5 450.5 154.3 463.4 179"/>
      <polygon class="st3" points="459.5 205.6 463.4 203.3 450.5 213.1 446.6 215.3 459.5 205.6"/>
      <path class="st22" d="M431.2,228.8c3.9.6,5.5-.4,6.8,1.6,1,1.5,2.1,2.8,3.3,4.1.2.2.4.5.4.8s-.5.6-.8.6c-1.5.3-3,0-4.2-1-1.3-.7-2.6-1.3-4-1.8l-1.5-4.3Z"/>
      <path class="st22" d="M441.9,229.9c.4.3.9.6,1.4.8.7.4,1.4.8,2,1.3.6.6,1,1.4,1,2.2-.1.4-.1.8-.1,1.2.1.8,1,1.4.8,2.2-.1.5-.7.8-.8,1.4-.3.9.6,1.7.4,2.6-.2.4-.4.8-.8,1.1-.4.5-.7,1-1.1,1.4-.8.6-1.9.9-2.9.8-1.3.1-2.6-.4-3.6-1.4s-.5-1.1-.1-1.6c.1-.1.2-.3.3-.4.1-.3,0-.6-.2-.8s-.4-.4-.5-.7c-.1-.5-.1-1,.2-1.5.3-.8-.1-1.3-.1-2-.1-.7.2-1.5.7-2,.3-.3.7-.6,1.1-.8.2-.3.4-.4.8-.5.1,0,1.7-.8,1.7-1v-2.3h-.2Z"/>
      <path class="st15" d="M436.9,243.1v-8.1l-.6-.4s-2.3,1.8-4.3,1.6c1.3.3,2.6.3,3.9,0v5.9l1,1h0Z"/>
      <path class="st15" d="M441.2,234.6s.7.9-.3,1.3c-1.1.3-2.2.2-3.1-.4-.1.3-.1.6-.1.9,0,0,2.6,1,3.5-.1s0-1.7,0-1.7Z"/>
    </g>
  </g>
</svg>