<svg id="Layer_1" data-name="Layer 1" xmlns="http://www.w3.org/2000/svg" viewBox="0 0 200 200"><defs><style>.cls-1{fill:#3e5076;}</style></defs><path class="cls-1" d="M165.36,161.63H34.64A6.26,6.26,0,0,0,28.31,168v21.19a6.25,6.25,0,0,0,6.33,6.34H165.36a6.25,6.25,0,0,0,6.33-6.34V168A6.26,6.26,0,0,0,165.36,161.63Z"/><path class="cls-1" d="M58.21,72.83,42.37,151.05H157.63L141.79,72.83a12.55,12.55,0,0,0-12.48-10.1H70.69A12.75,12.75,0,0,0,58.21,72.83Z"/><path class="cls-1" d="M100,44.11a8.87,8.87,0,0,0,8.91-8.91V13.41a8.91,8.91,0,1,0-17.82,0V35A9,9,0,0,0,100,44.11Z"/><path class="cls-1" d="M51.28,46.49A9.07,9.07,0,0,0,59.6,52,9.39,9.39,0,0,0,63,51.44a8.88,8.88,0,0,0,4.75-11.69l-8.32-20A8.92,8.92,0,0,0,43,26.68Z"/><path class="cls-1" d="M137,51.64a10.23,10.23,0,0,0,3.37.59,8.94,8.94,0,0,0,8.32-5.55l8.32-20a8.92,8.92,0,0,0-16.44-6.93l-8.32,20A9,9,0,0,0,137,51.64Z"/></svg>