<svg xmlns="http://www.w3.org/2000/svg" id="Layer_2" data-name="Layer 2" viewBox="0 0 495.37 376.35"><defs><style>      .cls-1 {        fill: #252a2e;      }      .cls-1, .cls-2, .cls-3, .cls-4 {        stroke-width: 0px;      }      .cls-2 {        fill: #bdd356;      }      .cls-3 {        fill: #3c9e69;      }      .cls-4 {        fill: #f8f18b;      }    </style></defs><g id="Layer_1-2" data-name="Layer 1"><g><g><rect class="cls-3" y="26.79" width="330" height="214.56" rx="13.99" ry="13.99"></rect><rect class="cls-1" x="154.74" y="71.12" width="141.43" height="9.33" rx="4.66" ry="4.66"></rect><rect class="cls-1" x="154.74" y="115.44" width="141.43" height="9.33" rx="4.66" ry="4.66"></rect><rect class="cls-1" x="154.74" y="137.59" width="141.43" height="9.33" rx="4.66" ry="4.66"></rect><rect class="cls-1" x="154.74" y="93.28" width="141.43" height="9.33" rx="4.66" ry="4.66"></rect><rect class="cls-1" x="33.98" y="69.07" width="82" height="82" rx="3.25" ry="3.25"></rect><circle class="cls-2" cx="74.98" cy="98.9" r="18.83"></circle><path class="cls-2" d="M68.38,123.1h13.21c11.79,0,21.36,9.57,21.36,21.36v6.61h-55.94v-6.61c0-11.79,9.57-21.36,21.36-21.36Z"></path></g><g><rect class="cls-2" x="103" y="161.79" width="330" height="214.56" rx="13.99" ry="13.99"></rect><rect class="cls-1" x="257.74" y="206.12" width="141.43" height="9.33" rx="4.66" ry="4.66"></rect><rect class="cls-1" x="257.74" y="250.44" width="141.43" height="9.33" rx="4.66" ry="4.66"></rect><rect class="cls-1" x="257.74" y="272.59" width="141.43" height="9.33" rx="4.66" ry="4.66"></rect><rect class="cls-1" x="257.74" y="228.28" width="141.43" height="9.33" rx="4.66" ry="4.66"></rect><rect class="cls-1" x="136.98" y="204.07" width="82" height="82" rx="3.25" ry="3.25"></rect><circle class="cls-4" cx="177.98" cy="233.9" r="18.83"></circle><path class="cls-4" d="M171.38,258.1h13.21c11.79,0,21.36,9.57,21.36,21.36v6.61h-55.94v-6.61c0-11.79,9.57-21.36,21.36-21.36Z"></path></g></g><g><circle class="cls-3" cx="426.65" cy="68.72" r="68.72"></circle><path class="cls-4" d="M420.32,109.56c-2.95,0-5.74-1.35-7.58-3.67l-26.84-33.98c-3.31-4.19-2.59-10.26,1.59-13.57,4.19-3.31,10.26-2.59,13.57,1.59l18.37,23.25,28.53-45.33c2.84-4.52,8.81-5.87,13.33-3.03,4.52,2.84,5.87,8.81,3.03,13.33l-35.81,56.91c-1.67,2.66-4.53,4.34-7.66,4.5-.17,0-.35.01-.52.01Z"></path></g></g></svg>