<?xml version="1.0" encoding="UTF-8"?>
<svg id="Layer_1" xmlns="http://www.w3.org/2000/svg" version="1.1" viewBox="0 0 1920 1080">
  <!-- Generator: Adobe Illustrator 29.7.1, SVG Export Plug-In . SVG Version: 2.1.1 Build 8)  -->
  <defs>
    <style>
      .st0 {
        fill: none;
      }

      .st1 {
        fill: #e0e0e0;
      }

      .st2 {
        fill: #ae7461;
      }

      .st3 {
        fill: #a3cc32;
      }

      .st4 {
        fill: #ebebeb;
      }

      .st5 {
        fill: #263238;
      }

      .st6, .st7 {
        fill: #fff;
      }

      .st8 {
        fill: #fafafa;
      }

      .st9 {
        opacity: .6;
      }

      .st10 {
        opacity: .3;
      }

      .st11 {
        fill: #ffbf9d;
      }

      .st12 {
        fill: #f5f5f5;
      }

      .st13 {
        fill: #455a64;
      }

      .st7 {
        stroke: #e0e0e0;
        stroke-miterlimit: 10;
        stroke-width: 2.3px;
      }

      .st14 {
        fill: #ff9a6c;
      }
    </style>
  </defs>
  <rect class="st0" width="1920" height="1080"/>
  <g id="Background_Complete">
    <path class="st4" d="M403.1,903c.2-12.5,5.1-24.5,13.5-33.6,4.1,16.9-13.5,33.6-13.5,33.6Z"/>
    <path class="st4" d="M422.8,893.5c11.6-4.8,24.5-5.1,36.3-1-13.8,10.5-36.3,1-36.3,1Z"/>
    <path class="st4" d="M425,882.6c-1.9-9.7-.1-19.7,5-28.2,5.9,12.3-5,28.2-5,28.2Z"/>
    <path class="st4" d="M349,843.1c28.7,7.7,44.2,32.7,44.2,32.7-24.7,0-44.2-32.7-44.2-32.7Z"/>
    <path class="st4" d="M394.9,854.9c-1.5-31,28.8-66.1,28.8-66.1-4.7,38.5-28.8,66.1-28.8,66.1"/>
    <path class="st4" d="M394.8,766.6c.6,15.5-3.2,30.9-10.9,44.4-4.2-19.9,10.9-44.4,10.9-44.4Z"/>
    <path class="st4" d="M383.1,829.6c-22.7-2.3-35-25-35-25,27.4,7.7,35,25,35,25Z"/>
    <path class="st4" d="M334.2,924.4c10.6-6.6,23.3-9,35.5-6.9-11.9,12.6-35.5,6.9-35.5,6.9Z"/>
    <path class="st4" d="M392.9,934.5c-2.9,7.3-8.3,13.4-15.2,17.2,1-10.4,15.2-17.2,15.2-17.2Z"/>
    <path class="st4" d="M390,931.2c-8.2,4.7-17.8,6.5-27.1,4.8,8.7-9.1,27.1-4.8,27.1-4.8Z"/>
    <path class="st1" d="M401.6,972.9c0-.2,0-.3,0-.5v-14.8c0-3.2,0-6.8-.2-10.9-.2-8-.8-17.7-1.6-28.3s-2.2-22.2-4-34.4c-3.6-24.3-8.5-46.1-12.4-61.7-2-7.8-3.6-14.1-4.9-18.5-.6-2.1-1-3.8-1.4-5l-.3-1.3v-.4c0,.1.1.3.2.4l.4,1.3,1.5,5c1.3,4.3,3.1,10.6,5.2,18.4,5.4,20.3,9.6,40.9,12.7,61.7,1.8,12.2,3,23.9,3.9,34.5s1.3,20.2,1.4,28.3c.1,4,0,7.7,0,10.9s0,6-.1,8.2-.1,3.9-.2,5.2v1.4c0,.4-.2.4-.2.4Z"/>
    <path class="st1" d="M360,907.3c.1-.2,9.4,5.8,20.4,13.4s20,14.1,19.9,14.3-9.4-5.8-20.5-13.4-20-14-19.9-14.2Z"/>
    <path class="st1" d="M400.2,910.6c.4-.6.9-1.1,1.4-1.5l4.1-3.9,13.6-12.8c5.2-4.9,10-9.4,13.6-12.8l4.1-3.9c.5-.5,1-1,1.6-1.3-.4.6-.8,1.1-1.3,1.6-.9,1-2.4,2.3-3.9,4.1-3.4,3.4-8.1,8-13.4,13s-10.2,9.4-13.8,12.6l-4.3,3.7c-.5.5-1.1.9-1.7,1.2Z"/>
    <path class="st4" d="M330.9,892.6s23.5-.5,33.3,18c-13.3-.4-25.7-7.1-33.3-18Z"/>
    <path class="st4" d="M362.9,883.2s19.1,13.6,16,34.3c-10.4-8.3-16.4-21-16-34.3Z"/>
    <path class="st4" d="M463.3,849.7s-7.5,26.2-31.4,30.9c5-14.7,16.7-26.1,31.4-30.9Z"/>
    <path class="st4" d="M352.5,752.2s29.9,19.5,26.7,51.2c-16.5-11.9-26.4-30.9-26.7-51.2Z"/>
    <path class="st1" d="M451.9,925.6c-.6.6-1.2,1.1-1.9,1.5-1.3.9-3.1,2.3-5.4,4.1-11.6,9.2-21.6,20.3-29.6,32.9-1.5,2.3-2.7,4.4-3.5,5.8-.4.7-.8,1.5-1.3,2.1.3-.8.6-1.6,1-2.3.7-1.4,1.8-3.5,3.2-5.9,7.6-12.9,17.7-24.1,29.7-33.1,2.3-1.7,4.2-3,5.6-3.9.7-.4,1.4-.8,2.2-1.1Z"/>
    <path class="st4" d="M425.9,945.1c-2.2-12.3.3-25,6.9-35.6,3.2,22.2-6.9,35.6-6.9,35.6Z"/>
    <path class="st4" d="M446,934.1c7.9-4.5,17.2-5.9,26.1-4-14.4,7.6-26.1,4-26.1,4Z"/>
    <polygon class="st4" points="358 975.3 369.2 1049 434.4 1049 449.5 976.4 358 975.3"/>
    <path class="st8" d="M440.4,1022.6c0,.2-16.7.4-37.3.4s-37.3-.2-37.3-.4,16.7-.4,37.3-.4,37.3.2,37.3.4Z"/>
    <path class="st8" d="M440.6,1019c0,.2-16.8.4-37.5.4s-37.5-.2-37.5-.4,16.8-.4,37.5-.4,37.5.1,37.5.4Z"/>
    <path class="st8" d="M440.5,1014.8c0,.2-16.8.4-37.5.4s-37.5-.2-37.5-.4,16.8-.4,37.5-.4,37.5.1,37.5.4Z"/>
    <path class="st8" d="M376.8,1044.8c-1.6-6.1-2.7-12.4-3.2-18.7,1.6,6.2,2.7,12.4,3.2,18.8h0Z"/>
    <path class="st8" d="M381.1,1044c-.7-6-1.1-12.1-1.2-18.1.7,3,1.1,6,1.2,9,.3,3,.4,6.1,0,9.1Z"/>
    <path class="st8" d="M389.2,1044c-.9-3.1-1.5-6.2-1.7-9.4-.5-3.1-.7-6.2-.5-9.4.6,3.1,1,6.2,1.2,9.4.5,3.1.8,6.2.9,9.4Z"/>
    <path class="st8" d="M394.9,1044.4c-.6-3.1-.9-6.3-.9-9.4-.2-3.1-.1-6.3.3-9.4.4,3.1.5,6.3.5,9.4.2,3.1.3,6.3,0,9.4Z"/>
    <path class="st8" d="M404.9,1044c-.5-3-.7-5.9-.7-8.9-.3-3-.3-6,0-9,.5,3,.7,6,.7,9,.3,3,.3,6,0,8.9Z"/>
    <path class="st8" d="M412.2,1044.4c-.3-3.1-.4-6.2-.3-9.3,0-3.1,0-6.2.5-9.2.5,6.2.4,12.4-.2,18.5Z"/>
    <path class="st8" d="M419,1043.4c0-3.2.1-6.5.6-9.7.2-3.2.6-6.4,1.3-9.6-.1,6.5-.8,12.9-1.9,19.3Z"/>
    <path class="st8" d="M428,1042.5c0-2.8.4-5.5,1.1-8.2.4-2.8,1.2-5.4,2.3-8-.4,2.7-1,5.5-1.7,8.1-.4,2.7-1,5.4-1.8,8.1Z"/>
    <path class="st4" d="M350.5,960.8v13.8c0,3,2.4,5.4,5.4,5.4,0,0,0,0,0,0h94.4c3,0,5.4-2.4,5.4-5.4,0,0,0,0,0,0v-13.8h-105.2Z"/>
    <polygon class="st1" points="358.7 980 359.5 984.4 446.5 990.5 448.7 980 358.7 980"/>
    <rect class="st12" x="1395.3" y="161.3" width="73.7" height="146.1"/>
    <rect class="st12" x="1471.8" y="161.3" width="79.6" height="146.1"/>
    <rect class="st12" x="1471.8" y="317.6" width="79.6" height="141.2"/>
    <polygon class="st12" points="1561.7 158.8 1645.5 158.8 1645.5 29.2 1648.4 29.2 1648.4 158.8 1716.6 158.8 1716.6 26.3 1561.7 26.3 1561.7 158.8"/>
    <rect class="st12" x="1648.4" y="161.3" width="68.3" height="146.1"/>
    <rect class="st12" x="1648.4" y="317.6" width="68.3" height="141.2"/>
    <rect class="st12" x="1395.3" y="317.6" width="73.7" height="141.2"/>
    <rect class="st12" x="1561.7" y="317.6" width="83.9" height="141.2"/>
    <rect class="st12" x="1395.3" y="461.3" width="73.7" height="127.2"/>
    <rect class="st12" x="1648.4" y="461.3" width="68.3" height="127.2"/>
    <polygon class="st12" points="1469 158.8 1469 29.2 1471.8 29.2 1471.8 158.8 1551.5 158.8 1551.5 26.3 1395.3 26.3 1395.3 158.8 1469 158.8"/>
    <rect class="st12" x="1561.7" y="461.3" width="83.9" height="127.2"/>
    <rect class="st12" x="1471.8" y="461.3" width="79.6" height="127.2"/>
    <rect class="st12" x="1561.7" y="161.3" width="83.9" height="146.1"/>
    <rect class="st1" x="1099.5" y="84.4" width="181.8" height="301"/>
    <rect class="st4" x="1093.4" y="84.4" width="181.8" height="301"/>
    <rect class="st6" x="1101.2" y="90.5" width="166.3" height="288.8"/>
    <rect class="st4" x="1132.8" y="128" width="102.3" height="213.7"/>
    <path class="st1" d="M1132.8,266.1c-.2-19.9,17.7-39.4,37.6-42.2,9.4-1.3,19.4.5,28.2-3.1,15.7-6.4,20.7-27.3,36.5-33.5l.7,154.5h-103v-75.6Z"/>
  </g>
  <g id="Stage">
    <rect class="st2" x="652.3" y="876.7" width="834.5" height="169"/>
    <rect class="st2" x="594.4" y="867.1" width="950.4" height="19.4"/>
    <path d="M1544.9,886.5c0,.3-211.9.6-473.2.6s-473.2-.3-473.2-.6,211.8-.6,473.2-.6,473.2.3,473.2.6Z"/>
    <path d="M1487.6,991.1c0,.3-186.5.6-416.5.6s-416.5-.3-416.5-.6,186.5-.6,416.5-.6,416.5.2,416.5.6Z"/>
    <path d="M1485.9,935.9c0,.3-186.5.6-416.5.6s-416.5-.3-416.5-.6,186.5-.6,416.5-.6,416.5.3,416.5.6Z"/>
  </g>
  <g id="Plant">
    <path class="st5" d="M800,813s-8.1-56-7.5-88.7,0-69.3,0-69.3h3.8s-2.5,64.7.2,103.8,10,54.2,10,54.2h-6.5"/>
    <path class="st13" d="M824.3,592c-.6-2-1.8-3.7-3.4-5-2.6-1.2-5.6-1.2-8.2,0-11.4,4-21.4,25.2-26,36.3l15.1,50.7c27.2-25.1,31.9-58.3,22.5-82Z"/>
    <path class="st5" d="M820,589c0,.2-.1.4-.2.7-.2.5-.4,1.1-.7,1.8-.7,1.6-1.6,3.9-2.7,6.8-2.2,5.8-5,13.8-7.6,22.9s-4.2,17.4-5.3,23.5c-.5,3-1,5.5-1.2,7.2-.1.8-.2,1.5-.3,2,0,.2,0,.5-.2.7,0-.2,0-.5,0-.7,0-.7,0-1.3.2-2,.2-1.7.5-4.2,1-7.2,2.6-16,6.9-31.6,12.9-46.6,1.2-2.9,2.1-5.2,2.9-6.7.3-.7.6-1.3.8-1.8.1-.2.2-.4.4-.5Z"/>
    <path class="st13" d="M795.1,686.3c-14-7.9-22.8-22.6-23.2-38.6-.5-11.3,2.9-22.3,6.8-32.8.2-.9.8-1.8,1.6-2.3,1.3-.5,2.8-.2,3.8.6,10.3,5.8,16.4,17,19.8,28.3,2.4,7.5,3.2,15.4,2.3,23.3-1.3,8.2-5.2,15.9-11.2,21.7"/>
    <path class="st5" d="M795.1,686.3c0-.2,0-.5,0-.7v-1.9c0-1.7,0-4.1-.2-7.2-.4-7.9-1.3-15.7-2.6-23.5-1.6-9.1-3.5-17.2-4.9-23.1l-1.7-7-.4-1.9c0-.2-.1-.4-.2-.6.1.2.2.4.2.7.2.5.3,1.1.5,1.9.5,1.6,1.1,4,1.9,6.9,1.5,5.9,3.5,14.1,5,23.1,1.4,7.8,2.2,15.6,2.5,23.5v9.1c0,.2,0,.5-.1.7Z"/>
    <g class="st10">
      <path d="M795.1,686.3c-14-7.9-22.8-22.6-23.2-38.6-.5-11.3,2.9-22.3,6.8-32.8.2-.9.8-1.8,1.6-2.3,1.3-.5,2.8-.2,3.8.6,10.3,5.8,16.4,17,19.8,28.3,2.4,7.5,3.2,15.4,2.3,23.3-1.3,8.2-5.2,15.9-11.2,21.7"/>
    </g>
    <path class="st13" d="M811,772c13.9,3,25.3,12.9,38.8,17.6,8.9,3.2,18.9,4.3,26,10.5-1.7-4.3-5.7-7.2-9.7-9.6-11.1-6.9-22.9-12.5-35.2-16.8-6.3-2.2-13.1-4-19.6-2.2"/>
    <path class="st13" d="M790.9,784.4c-17.4-.3-35.7-15.1-53-16,18.1-5.8,44.1-1,53,16"/>
    <path class="st13" d="M797.7,742.7c9-2.9,18.5-3.6,27.8-1.9,9.2,1.7,18.3,4.2,27.2,7.4-.9-6-5.8-10.6-10.4-14.6-3.4-3.1-7-6-10.9-8.4-3.9-2.4-8.5-3.7-13.1-3.7-5.6.4-10.8,3-14.4,7.3-3.5,3.8-5.7,8.7-6.2,13.9"/>
    <path class="st13" d="M762,723.4c-11-9.4-27.6-8.5-42-8.1,23.1,11,45,24.6,65.1,40.5.6-10.2-9.3-20.6-23.1-32.4Z"/>
    <g class="st10">
      <path d="M762,723.4c-11-9.4-27.6-8.5-42-8.1,23.1,11,45,24.6,65.1,40.5.6-10.2-9.3-20.6-23.1-32.4Z"/>
    </g>
    <path class="st13" d="M802.6,710.5c5.4-3.7,11-7,16.9-9.8,5.8-2.6,11.2-6.8,16.7-9.8,7.2-3.9,13.5-9.4,20.1-14.2s13.9-9.2,22-10.5c-6.7-1.2-13.5-.8-20,1.2-6.4,2-12.7,4.4-18.8,7.3-8.6,3.8-17.2,7.8-24.2,14.1s-13.3,12.4-12.6,21.8"/>
    <path class="st5" d="M849.4,784.4c-.2,0-.4-.1-.5-.2l-1.5-.8c-1.3-.7-3.2-1.7-5.6-2.9-1.2-.6-2.5-1.2-3.9-1.9s-2.9-1.4-4.5-2.1c-3.5-1.6-7-2.8-10.7-3.7-3.6-1-7.5-1.1-11.2-.3-1.6.4-3.2.8-4.7,1.4-3.2,1.3-6.2,3.3-8.5,5.9-1,1.1-1.5,1.7-1.5,1.7,0-.2.2-.3.3-.5.2-.3.6-.8,1.1-1.4,1.4-1.6,2.9-3,4.7-4.2,1.2-.8,2.5-1.5,3.9-2.1,1.5-.6,3.1-1.1,4.7-1.5,3.8-.9,7.7-.8,11.5.2,3.7.9,7.3,2.2,10.8,3.8,1.6.7,3.1,1.4,4.5,2.1s2.7,1.3,3.9,2c2.3,1.2,4.2,2.3,5.5,3.1l1.5.9c.3.2.5.3.5.4Z"/>
    <path class="st5" d="M778,775.8c.4,0,.7.2,1.1.3,1,.3,1.9.7,2.8,1.2,6.1,3.1,11.2,8,14.5,14.1.5.9,1,1.8,1.4,2.8.2.3.3.7.3,1.1,0,0-.8-1.4-2.1-3.6-3.5-5.8-8.5-10.5-14.4-13.8-2.4-1.3-3.9-1.9-3.7-2Z"/>
    <path class="st5" d="M739.4,722.5l.8.2,2.1.7,3.3,1.2c1.3.5,2.7,1.2,4.3,1.9,8.2,3.8,15.8,8.7,22.7,14.5,3.7,3.2,7.3,6.7,10.5,10.4,2.7,3,5.2,6.1,7.5,9.4,2,2.8,3.5,5.2,4.5,6.8l1.2,1.9c.2.2.3.4.4.7-.2-.2-.3-.4-.5-.6-.3-.4-.8-1-1.3-1.8-1.1-1.6-2.7-3.9-4.7-6.7s-4.6-6-7.6-9.4c-3.3-3.7-6.8-7.1-10.6-10.3-6.8-5.8-14.4-10.7-22.5-14.5-1.6-.7-2.9-1.5-4.2-2l-3.2-1.3-2-.8c-.2,0-.5-.1-.7-.2Z"/>
    <path class="st5" d="M823.8,732.9c-.5,0-.9,0-1.4-.2l-1.6-.3c-.6-.1-1.3-.2-2.1-.2-4.1-.4-8.3.4-12,2.3-2,1-3.9,2.4-5.5,4-1.3,1.3-2.5,2.7-3.5,4.3-.9,1.5-1.7,3.1-2.3,4.7,0-.5.2-.9.3-1.4.4-1.2,1-2.4,1.7-3.5,1-1.6,2.1-3.1,3.5-4.5,1.6-1.7,3.5-3.1,5.6-4.2,3.8-2,8.1-2.8,12.3-2.3.8.1,1.5.1,2.2.3l1.6.4c.5.1.9.3,1.3.5Z"/>
    <path class="st5" d="M841.4,678.6l-.7.4-2,1.1c-1.7.9-4.1,2.3-7,4-3.5,2-6.8,4.2-10.1,6.6-4,2.8-7.8,5.9-11.2,9.4-1.8,1.8-3.4,3.8-4.7,6-1.2,2.2-2.2,4.3-3.2,6.3-1.8,3.6-3.4,7.3-4.8,11-.9,2.5-1.7,5.1-2.3,7.8-.5,1.8-.6,2.9-.7,2.9,0-.2,0-.5,0-.8,0-.8.2-1.5.4-2.2.5-2.7,1.3-5.3,2.2-7.8,1.3-3.8,2.9-7.5,4.7-11.2,1-2,2.1-4.2,3.2-6.4,1.3-2.2,2.9-4.3,4.7-6.1,3.5-3.5,7.3-6.6,11.4-9.4,3.7-2.6,7.2-4.7,10.2-6.5s5.4-3,7.2-3.8l2-1c.3-.1.6-.2.9-.2Z"/>
    <path class="st5" d="M792.5,731.3c-.2-.5-.3-1-.3-1.5-.2-1-.5-2.3-.8-4-.9-4.4-2-8.8-3.3-13.1-1.4-4.3-3.1-8.4-5-12.5-.7-1.5-1.2-2.7-1.7-3.7-.2-.4-.4-.9-.6-1.4.3.4.6.8.8,1.3.5.8,1.1,2.1,1.9,3.7,4.1,8.1,6.9,16.7,8.3,25.7.3,1.7.5,3.1.6,4.1.1.5.2,1,.1,1.5Z"/>
    <path class="st13" d="M791.2,691.7c-.6-6.6-2.5-13-5.7-18.8-8.7-16.2-24.1-27.7-42-31.4l38.9,58,5,10.3c3.2-5.5,4.5-11.9,3.8-18.2Z"/>
    <rect class="st3" x="756.6" y="806" width="90.5" height="16"/>
    <polygon class="st3" points="763.3 818.9 771 868.7 831.1 868.7 840.3 818.9 763.3 818.9"/>
    <path class="st5" d="M847,822.2c0,.2-20.4.3-45.6.3s-45.6-.1-45.6-.3,20.4-.3,45.6-.3,45.6,0,45.6.3Z"/>
  </g>
  <g id="Presentation">
    <rect class="st7" x="222.5" y="90.5" width="560.3" height="467.4"/>
    <rect class="st1" x="528.3" y="363.1" width="195.9" height="13" rx="5.8" ry="5.8"/>
    <rect class="st1" x="528.3" y="389.9" width="195.9" height="13" rx="5.7" ry="5.7"/>
    <rect class="st1" x="528.3" y="414.7" width="108.4" height="13" rx="5.8" ry="5.8"/>
    <rect class="st5" x="203.4" y="66.2" width="609.1" height="35" rx="15.5" ry="15.5"/>
    <rect class="st3" x="424.5" y="152.7" width="193.4" height="19.3" rx="8.6" ry="8.6"/>
    <rect class="st1" x="280" y="208.1" width="445.2" height="13" rx="5.8" ry="5.8"/>
    <rect class="st1" x="280" y="239" width="445.2" height="13" rx="5.8" ry="5.8"/>
    <rect class="st1" x="280" y="270" width="445.2" height="13" rx="5.7" ry="5.7"/>
    <rect class="st1" x="278.3" y="300.9" width="108.4" height="13" rx="5.8" ry="5.8"/>
    <rect class="st12" x="278.3" y="347.5" width="217.9" height="162" rx="16.1" ry="16.1"/>
  </g>
  <g id="Speech_Bubble_2">
    <path class="st6" d="M1566,486.6l-4.7-16.7c-27.6-12.9-39.6-45.7-26.7-73.3,12.9-27.6,45.7-39.6,73.3-26.7s39.6,45.7,26.7,73.3c-9.7,20.8-31.2,33.4-54.1,31.7h0l-14.5,11.7Z"/>
    <path class="st5" d="M1566,486.6l.9-.8,2.8-2.4,10.6-8.8v.4h0c-.1,0-.2-.1-.1-.3h0c0,0,.1-.2.2-.1,9.1.7,18.3-1,26.6-4.7,5.4-2.4,10.3-5.7,14.6-9.7,22.2-20.4,23.7-55,3.2-77.2-7-7.6-15.9-13-25.8-15.7-8.6-2.4-17.6-2.6-26.2-.7-8.3,1.8-16,5.6-22.6,10.8-23.5,19.1-27.1,53.7-8,77.2,5,6.2,11.3,11.2,18.5,14.7l.6.3s0,0,0,.1l3.4,12.4c.4,1.4.7,2.4.9,3.2,0,.4.2.8.3,1.1,0,0-.1-.3-.3-1s-.5-1.8-.9-3.1c-.8-2.9-2.1-7-3.7-12.5h0c-27.8-12.7-39.8-45.7-27-73.4,3.6-7.7,8.8-14.4,15.4-19.7,6.7-5.4,14.6-9.2,23-11.1,29.8-6.8,59.5,11.9,66.3,41.8,6.8,29.8-11.9,59.5-41.8,66.3-5.3,1.2-10.8,1.6-16.3,1.2v-.4h0c.1,0,.2.2.1.3h0c0,0-10.9,8.7-10.9,8.7l-2.8,2.2c-.5.5-1,.8-1,.8Z"/>
    <path class="st5" d="M1569.2,407.9h8.2c0-3.9,3.1-7,7-7h0c2.8-.1,5.4,1.6,6.5,4.2.9,2.2.7,4.6-.6,6.6-1.4,2.4-4.5,4.4-10,3.4v18.5h8.1v-10.9c6.9-2,11.5-8.4,11.4-15.5,0-12-10.8-14.8-15.4-14.8-3.4,0-15.4.9-15.2,15.4Z"/>
    <rect class="st5" x="1580.5" y="437.6" width="8.3" height="7.7"/>
  </g>
  <g id="Speech_Bubble_1">
    <path class="st6" d="M1045.2,212.7l7.7-13.3c-8.9-25.5,4.5-53.4,30-62.3,25.5-8.9,53.4,4.5,62.3,30s-4.5,53.4-30,62.3c-19.2,6.7-40.6.8-53.7-14.8h0l-16.3-1.9Z"/>
    <path class="st5" d="M1045.2,212.7h1.1l3.2.3,12.1,1.3-.2.3h0c0,0,0-.2,0-.3,0,0,.2,0,.2,0,17.2,20.5,47.8,23.2,68.3,6,15-12.6,20.9-33,15.1-51.7-3.4-10.5-10.2-19.6-19.5-25.7-6.3-4.1-13.4-6.7-20.8-7.7-26.6-3.1-50.8,15.9-53.9,42.5-.9,7.2,0,14.5,2.3,21.4,0,0,0,.1,0,.2l-5.8,9.8c-.6,1.1-1.2,1.9-1.5,2.5l-.5.9c.1-.3.3-.6.4-.8l1.4-2.5,5.6-10v.2c-2.7-7.7-3.5-15.9-2.2-24,1.8-11.2,7.5-21.5,16-29,5-4.4,10.8-7.7,17.1-9.8,6.8-2.3,14-3,21.1-2.2,7.5,1,14.8,3.6,21.1,7.8,22.7,14.9,29,45.3,14.2,68-9.6,14.7-26.4,23.1-43.9,22.1-5.3-.3-10.4-1.4-15.3-3.4-7.6-3-14.3-7.9-19.5-14.2l.3-.2h0c0,0,0,.2,0,.3h0l-12.2-1.6-3.1-.4h-1.1Z"/>
    <path class="st5" d="M1085.9,183.5c0,2.6-2.1,4.7-4.7,4.7s-4.7-2.1-4.7-4.7,2.1-4.7,4.7-4.7h0c2.6,0,4.7,2.1,4.7,4.7Z"/>
    <path class="st5" d="M1104.5,183.4c0,2.6-2.1,4.7-4.7,4.7s-4.7-2.1-4.7-4.7,2.1-4.7,4.7-4.7h0c2.6,0,4.7,2.1,4.7,4.7Z"/>
    <path class="st5" d="M1123,180.9c1.3,2.2.6,5.1-1.6,6.4s-5.1.6-6.4-1.6c-1.3-2.2-.6-5.1,1.6-6.4,0,0,0,0,0,0,0,0,0,0,.1,0,2.2-1.3,5-.5,6.3,1.6Z"/>
  </g>
  <g id="Character_5">
    <polygon class="st2" points="1490.8 1010.3 1490.8 969.8 1524.3 967.7 1522.2 1011.3 1506.3 1017.5 1490.8 1010.3"/>
    <path class="st13" d="M1504.1,1011l-13.3-.7s-20.6,16.6-22.5,25.8c-.4,2.3-.4,4.7,0,7l31.2.9h22.8v-32.7l-18.1-.3Z"/>
    <path class="st5" d="M1469.5,869.1c0,1.9,16.1,118.5,16.1,118.5h40.5l-1-120.9-55.5,2.3Z"/>
    <rect class="st1" x="1467.9" y="1039.6" width="54.2" height="5.7"/>
    <path class="st5" d="M1493.4,1012.8c.3,0-1.1,5.7-2.2,12.6s-1.6,12.7-1.9,12.7c-.4-4.3-.2-8.7.7-12.9.5-4.3,1.7-8.5,3.4-12.4Z"/>
    <path class="st5" d="M1519.9,1036.6c-.8-1.8-1.7-3.5-2.8-5.1-1.3-1.6-2.9-3-4.7-4-4.6-2.4-10.1-2.1-14.5.7-1.8,1.2-3.2,2.7-4.4,4.4-1,1.7-1.8,3.5-2.3,5.4-.1-.5-.1-1.1,0-1.7.3-1.5.8-2.9,1.5-4.2,2.5-4.5,7.1-7.3,12.2-7.5,5.1-.3,10,2.1,12.8,6.3.9,1.2,1.5,2.6,1.9,4,.2.5.3,1.1.3,1.6Z"/>
    <polygon class="st2" points="1578.8 1013.2 1581.2 972.7 1547.8 968.6 1547.3 1012.3 1562.9 1019.4 1578.8 1013.2"/>
    <path class="st13" d="M1565.4,1013.1h13.4s19.5,17.8,21,27c.3,2.3.1,4.7-.4,7l-31.2-.9-22.7-1.3,1.9-32.6,18,.9Z"/>
    <path class="st5" d="M1599,878.5c0,1.9-17.9,118.3-17.9,118.3l-40.5-.6,2.9-121,55.5,3.4Z"/>
    <rect class="st1" x="1569.9" y="1017.7" width="5.7" height="54.3" transform="translate(437 2553.2) rotate(-86.6)"/>
    <path class="st5" d="M1576,1015.5c1.5,4,2.4,8.3,2.7,12.6.7,4.3.7,8.6,0,12.9-.4,0-.4-5.8-1.2-12.8s-1.8-12.7-1.5-12.8Z"/>
    <path class="st5" d="M1548.2,1037.6c0-.5.1-1.1.3-1.6.5-1.4,1.2-2.7,2.1-3.9,3.1-4,8.1-6.1,13.2-5.6,2.8.3,5.4,1.3,7.6,3,1.8,1.4,3.2,3.2,4.2,5.2.7,1.3,1.1,2.8,1.3,4.3.1.5.1,1.1,0,1.7-.5-1.9-1.1-3.8-2-5.5-1-1.8-2.4-3.4-4.1-4.7-4.2-3.1-9.7-3.7-14.4-1.5-1.9.9-3.6,2.1-5,3.7-1.2,1.6-2.3,3.2-3.1,5Z"/>
    <path class="st2" d="M1449.4,546.9s7.4-7.2,9.7-14.1,6.8-17,7.2-19.1-1.8-3.1-4.5-1.1c-2.7,2.1-3.9,6-5.2,9.5s-3.3,3.1-3.3,3.1c0,0,3.5-16.4,4.4-21.8.9-5.6,2.1-10-.5-10.9s-3.7,1.7-4.7,5.7-3.6,13.4-3.6,13.4l1.8-15.1s1.7-8.1-1.8-8.1-3.5,8.2-3.5,8.2l-2.9,15.1s2.3-19,1-19.8-3.5-1.1-4.4,4.8-3.6,18.2-3.6,18.2h-.4l1.2-12.9c.2-.8.1-1.7-.1-2.5-.7-1.2-2.2-2-3.2,1.8-1.1,4.3-3.3,19.1-4,24.4-.3,6.2-.2,12.4.3,18.6l-8.1,12.2,20.4,11.2,8-21.1Z"/>
    <rect class="st2" x="1503.6" y="608.5" width="45.6" height="39.6"/>
    <path class="st5" d="M1477.3,639.3l-20.1-2.9-31.6-15.2,23.5-59.8-29.3-14.5s-24.9,54.7-29.2,70.4-5.4,23.5,4.7,31.7,84,43.7,84,43.7l-2-53.4Z"/>
    <path class="st5" d="M1573.3,637.9l-15.3-4.4-42.9-1.7s-5.9-.5-20.5,2.8c-11,2.5-25.4,5-25.4,5,0,0-3.1,36.2-3.1,43.6l12.9,61.9h105.6l6.4-44.6c0,.1,6.4-49.4,6.3-49.5s-12.3-9.7-24.1-13.1Z"/>
    <path class="st5" d="M1426.1,621.4c-3.1,1-6.1,2.5-8.8,4.4-2.5,2.1-4.7,4.6-6.4,7.4.2-1,.6-1.9,1.2-2.7,2.5-4.1,6.5-7.2,11.1-8.7.9-.4,1.9-.5,2.9-.5Z"/>
    <path class="st5" d="M1597.3,650.9c7.9,6.5,12.9,15.7,14.1,25.8,2.3,17.6,7.4,68.3,7.4,68.3h-28.1l-5.3-21.1,11.9-73Z"/>
    <path class="st13" d="M1595.8,671.4c0,.2,0,.5,0,.8,0,.7,0,1.4-.2,2.1-.2,1.8-.5,4.5-1,7.8-.9,6.6-2.3,15.7-4,25.8l-4.2,25.8c-.5,3.2-.9,5.8-1.2,7.8l-.3,2.1c0,.2-.1.5-.2.7,0-.2,0-.5,0-.8,0-.6.1-1.3.2-2.1.2-1.9.5-4.6,1-7.9.9-6.6,2.3-15.7,4-25.8l4.2-25.7c.5-3.2.9-5.8,1.2-7.8l.3-2.1c0-.3,0-.6.2-.8Z"/>
    <path class="st13" d="M1461.4,652.5c.7,2.8,1.3,5.6,1.7,8.5,1,5.2,2.3,12.4,4,20.4s2.9,15.2,3.7,20.5c.4,2.6.7,4.7.8,6.3,0,.8,0,1.6,0,2.3-.7-2.8-1.3-5.6-1.7-8.5-1-5.2-2.3-12.5-4-20.4s-2.9-15.2-3.7-20.5c-.4-2.7-.6-4.7-.8-6.3-.1-.8-.1-1.6,0-2.3Z"/>
    <path class="st13" d="M1473.1,873.1c-16.9,0-30.8-13.4-31.4-30.3-.9-31.8-.9-80.9-.8-102.2,0-5.8,4.7-10.5,10.5-10.5h163.1c5.8,0,10.5,4.7,10.5,10.5h0c0,0,0,.2,0,.3-.5,22.1-1.8,73.5-2.6,105.3-.4,15-12.7,27-27.7,27h-121.5Z"/>
    <path class="st1" d="M1436,1047l-9.4-1.1,19.2-157.1c1-9.2,8.8-16.1,18-16.2h137.5c9.2,0,16.9,7,18,16.1,4.7,37.1,17.4,156,17.5,157.2l-9.4,1c0-1.2-12.9-120-17.5-157.1-.5-4.4-4.2-7.8-8.6-7.9h-137.5c-4.5,0-8.2,3.5-8.6,7.9l-19.2,157.1Z"/>
    <path class="st5" d="M1436,1047c0-.8.1-1.6.3-2.5.3-1.6.5-4.1.8-7.2.8-6.3,1.9-15.6,3.3-27.6,2.9-23.9,7-58.5,12.2-101.4.7-5.3,1.3-10.8,2-16.4,0-1.5.4-2.9.8-4.3.5-1.4,1.3-2.7,2.3-3.7,1.1-1.1,2.5-1.8,4-2.2,1.5-.2,3-.3,4.5-.3h134.8c2,0,3.9.5,5.5,1.6,1.6,1.1,2.9,2.7,3.6,4.5.5,1.8.8,3.7.9,5.6.4,3.7.8,7.4,1.2,11.2,1.7,15,3.4,30.3,5.1,45.8,3.5,31.2,7,63.5,10.8,96.7l-.7-.5,9.4-1-.5.7c-.5-4.3-1-8.9-1.5-13.6-3.4-30.5-6.7-60.4-10-89.4-1.6-14.5-3.1-28.8-4.7-42.8-.4-3.5-.8-7-1.2-10.5-.3-3.4-1.5-6.6-3.4-9.4-2-2.7-4.7-4.8-7.9-6-1.5-.6-3.1-1-4.7-1.1-1.6-.1-3.4,0-5.1,0h-135.5c-1.4.1-2.7.4-4,.9-2.5.9-4.9,2.3-6.7,4.2-1.9,1.9-3.3,4.1-4.2,6.6-.8,2.5-1.3,5.1-1.4,7.7-.6,5.2-1.3,10.3-1.9,15.3-1.2,10-2.4,19.6-3.5,28.7-2.3,18.2-4.3,34.7-6.1,49.1-3.6,28.8-6.2,49.4-7.6,60.2h0c0-.1,7,.8,7,.8l2.3.3-2.2-.2-7-.8h0v-.2c1.3-10.8,3.7-31.4,7-60.2,1.7-14.4,3.7-30.9,5.9-49.2,1.1-9.1,2.2-18.7,3.5-28.7.6-5,1.2-10.1,1.9-15.3.2-2.7.7-5.3,1.4-7.9.9-2.6,2.4-5,4.4-7,2-2,4.4-3.5,7-4.5,1.4-.5,2.8-.8,4.2-.9h140.2c1.8.1,3.5.5,5.2,1.2,3.3,1.3,6.2,3.5,8.3,6.4,2.2,2.9,3.4,6.4,3.7,10,.4,3.5.8,7,1.2,10.5,1.6,14.1,3.1,28.4,4.7,42.8,3.2,29,6.6,58.9,10,89.4.5,4.7,1.1,9.4,1.5,13.6v.6h-.6l-9.4,1h-.6v-.6c-3.7-33.2-7.3-65.5-10.8-96.7-1.7-15.7-3.4-30.9-5.1-45.8-.4-3.7-.8-7.5-1.2-11.2-.1-1.8-.4-3.6-.9-5.3-.6-1.6-1.7-3-3.1-4-1.4-1-3.2-1.5-4.9-1.4h-134.3c-1.4,0-2.9,0-4.3.2-1.3.3-2.6,1-3.6,1.9-1,.9-1.8,2.1-2.3,3.4-.4,1.3-.6,2.7-.7,4.1l-2,16.4-12.7,101.5c-1.5,11.9-2.7,21.1-3.4,27.4l-.9,7c-.2,1.5-.3,2.3-.3,2.3Z"/>
    <path class="st5" d="M1606,844.7c0,.2,0,.5,0,.7.1.7.1,1.4,0,2.1-.6,2.7-2.3,5-4.7,6.4-5.8,4.1-15.7,6.6-28,8.2-24.5,3-58.8,2.6-96.2-.9-4.7-.3-9.4-1.5-13.6-3.7-4-2.4-7-6.4-8.2-10.9-1.2-4.2-1.9-8.6-2.2-13-.4-4.2-.8-8.4-1.2-12.5-1.4-16.3-2.2-30.9-2.7-43.3s-.5-22.3-.6-29.2v-10c0-.2,0-.5,0-.7,0,.2,0,.5,0,.7v2.1c0,1.9,0,4.5.2,7.9.1,6.9.4,16.9.9,29.2s1.5,27,2.9,43.2c.4,4.1.8,8.2,1.2,12.5.3,4.3,1,8.6,2.2,12.7,1.1,4.3,3.9,7.9,7.7,10.2,4.1,2.1,8.6,3.3,13.1,3.5,37.4,3.5,71.6,4.1,96.1,1.2,12.2-1.5,22.1-3.8,27.8-7.7,2.3-1.3,4-3.5,4.7-6,.2-.7.2-1.3.2-2,0-.2.2-.5.3-.7Z"/>
    <path class="st5" d="M1545.6,527.3c5.6-4.7,17.5-2.3,19.9,1.4,4.7-1.5,9.8.9,11.5,5.5l12.5,4.4c2.2.6,4.2,1.7,5.8,3.3,1.6,1.7,1.7,4.3.3,6.1,3.5,1.7,4.9,5.9,3.1,9.4,0,0,0,0,0,0-.4.8-.9,1.4-1.6,2,1.5,2.2,1,5.3-1.3,6.8,0,0,0,0,0,0l-.3.2c3,4.7,5.2,9.9,6.4,15.3.8,2.2.7,4.6-.2,6.8-.9,2-3.3,2.8-5.3,1.9-.2,0-.3-.2-.5-.3,1.1,2,.8,4.4-.5,6.2,2.2.3,2.3,3.8.7,5.1-1.9,1.2-4.1,1.5-6.3.9-2.1-.6-4.4-.5-6.4.3,0,.5.2,1.1.5,1.5,3.4,3.3,3.6,8.8.5,12.4l-.8.9c-2,1.7-4.3,2.9-6.8,3.6-5.2,1.9-8.1,1.1-13.7,1.2,1.1,3.7-8.8,10.4-18,1.5-37.1,16.4-43.8-2.3-43.8-2.3-10.2,6.7-19.6,1.6-20.6-1.2-2.6.2-5.1-1-6.6-3.1-1.5-2.1-2.6-4.4-3.2-6.8-5.1-2.2-8.3-7.4-7.9-13-3.2-3.2-4.9-7.7-4.7-12.2-4.7-2.4-6.6-8.1-4.2-12.8,0,0,0,0,0,0,.1-.2.2-.4.3-.6,1.9-6.1,4.8-11.8,8.5-17-3.4-1.2-4.1-6-2.3-9,2.1-2.9,5-5,8.4-6.2-2.7.4-4.5-3.2-3.5-5.7,1.2-2.4,3.4-4.2,5.9-5.1,3.6-1.6,7.4-2.7,11.2-3.4,1.8-4.4,8.2-8.8,12.7-10.3,18.1-5.9,30.3-6.5,50.2,12.2"/>
    <path class="st5" d="M1597.3,590.5c.3,0,.7,0,1,0,.9,0,1.8-.3,2.7-.7,1.3-.7,2.4-1.8,3-3.2.8-1.9.7-4-.2-5.8-.6-1-1.2-1.9-2-2.7-.8-.9-1.5-2-1.8-3.1-.2-1.3,0-2.7.7-3.8.6-1.2,1.5-2.3,2.1-3.7,2.7-5.9.2-12.9-5.7-15.6-.4-.2-.8-.3-1.2-.5v.3c.7-.7,1.1-1.5,1.4-2.5.3-.9.3-1.9.2-2.9-.1-1-.4-1.9-.8-2.8-.5-.9-1.1-1.7-1.8-2.3-2.1-2-4.7-3.4-7.4-4.2-2.6-.9-5.3-1.3-8-1.4l.2.2c.3-3.2-1.2-6.3-3.8-8-1.2-.8-2.6-1.3-4.1-1.4-1.4,0-2.7.2-4,.5-.6.1-1.3.2-1.9.2-.6,0-1.2-.2-1.8-.4-1.1-.5-2.1-1.2-3-2-.9-.7-1.8-1.3-2.8-1.8-1-.4-2-.7-3-.8-1.7-.2-3.5,0-5.1.7-1.2.5-2.3,1.2-3.2,2.1-.6.6-1.1,1.2-1.5,1.9-.1.2-.3.5-.4.7.2-.2.3-.5.4-.7,1.2-1.7,2.8-3,4.7-3.8,2.6-1,5.4-.9,7.9.2,1,.5,1.9,1.1,2.8,1.8.9.8,1.9,1.5,3,2,.6.3,1.2.4,1.9.5.7,0,1.3,0,2-.2,1.3-.4,2.6-.5,4-.5,1.4.1,2.8.6,3.9,1.3,2.5,1.7,3.9,4.6,3.6,7.7h0c0,.1.2.1.2.1,2.7,0,5.3.6,7.9,1.4,2.7.8,5.2,2.2,7.3,4.1.7.7,1.2,1.5,1.7,2.3.4.8.7,1.7.8,2.7.1.9,0,1.8-.2,2.7-.2.9-.7,1.7-1.3,2.3l-.2.2h.3c6,2.1,9.1,8.7,7,14.7-.1.3-.2.7-.4,1-.6,1.3-1.5,2.5-2.1,3.7-.7,1.2-1,2.6-.7,4,.4,1.2,1,2.3,1.9,3.2.8.8,1.4,1.8,2,2.7.9,1.7,1,3.8.3,5.6-.6,1.4-1.6,2.5-2.9,3.1-.8.4-1.7.7-2.6.8-.5,0-.9,0-.9,0Z"/>
    <path class="st5" d="M1473.4,538v-.2c0-.2,0-.4.1-.7.1-.3.3-1.5.6-2.6s.6-2.3,1.1-4c.6-1.8,1.4-3.4,2.3-5,1.2-1.9,2.7-3.5,4.5-4.7,1-.7,2.1-1.2,3.3-1.5,1.3-.3,2.6-.4,3.9-.6,1.4-.1,2.8-.5,4-1.2,1.3-.7,2.4-1.6,3.4-2.6,1.1-1,2.1-2,3.3-3,1.2-.9,2.5-1.6,3.9-2,2.9-.9,5.9-1.1,8.9-.7,2.8.3,5.5.8,8.3,1.5,4.6,1.1,9,3,13,5.6,2.6,1.8,5,3.9,7,6.4.3.5.7.8.9,1.2l.6.9.4.6v.2c.1,0,0-.2,0-.2l-.4-.6-.6-.9c-.2-.4-.6-.8-.9-1.2-2-2.5-4.3-4.7-7-6.5-4-2.6-8.4-4.5-13.1-5.7-2.7-.7-5.5-1.2-8.3-1.5-3-.4-6.1-.1-9,.7-1.5.5-2.8,1.2-4,2.2-1.2.9-2.3,1.9-3.3,3-1,1-2.1,1.9-3.4,2.6-1.2.6-2.5,1-3.8,1.1-1.3.1-2.6.3-3.9.6-1.2.3-2.4.8-3.4,1.5-1.8,1.3-3.4,2.9-4.6,4.9-1,1.6-1.8,3.2-2.3,5-.5,1.5-.8,2.9-1,4s-.4,2-.5,2.6,0,.5,0,.7c0,0-.1.1-.2.2Z"/>
    <path class="st13" d="M1484.6,604.5c-.4-.1-.8-.3-1.2-.5-1-.6-1.9-1.4-2.6-2.3-1.1-1.6-1.8-3.4-1.9-5.3-.3-2.6.5-5.2,2.1-7.2v.7c-5.1-2.4-7.4-8.4-5-13.6,1.1-2.4,3.1-4.2,5.5-5.2l-.2.9c-2.3-3.2-3.2-7.3-2.3-11.2,1-4.2,3.9-7.7,7.8-9.4,1.9-.9,3.9-1.3,6-1.3l-.6.8c-1.7-7.8,3.3-15.5,11.1-17.1,3.3-.7,6.8-.2,9.8,1.4l-.7.3c1.5-3.5,4.2-6.3,7.8-7.8,4.4-1.8,9.4-1.1,13.3,1.7.4.3.7.6,1.1.9.2.2.3.3.3.4-1.9-1.5-4.1-2.5-6.4-3-2.7-.6-5.4-.3-7.9.8-3.3,1.4-5.8,4.1-7.2,7.4l-.2.5-.5-.3c-4.3-2.1-9.4-1.9-13.5.7-4.6,3.1-6.9,8.6-5.8,14l.2.8h-.8c-1.9,0-3.8.4-5.5,1.2-3.5,1.6-6.1,4.8-7,8.6-.8,3.6,0,7.3,2,10.3l.4.6-.7.3c-3.7,1.5-6,5.1-5.8,9.1.2,3.4,2.3,6.4,5.3,7.9l.5.2-.3.4c-1.6,1.8-2.3,4.2-2.1,6.6.1,1.8.7,3.6,1.7,5.1.9,1.2,2.1,2.2,3.5,3Z"/>
    <path class="st13" d="M1520.7,606.8c-.6-.4-1.1-.9-1.5-1.5-1.3-1.5-2.2-3.3-2.9-5.1-1-2.9-1.1-6-.4-9,.9-3.8,3.2-7.2,6.4-9.6v.8c-3.2-4.7-4.2-10.4-2.7-15.9,1.9-6.8,7.4-12.1,14.4-13.6l-.4.7c-1.3-3.1-1.6-6.6-.8-9.9.6-2.5,1.9-4.9,3.6-6.8,1.1-1.2,2.4-2.3,3.9-3.1.5-.3,1-.5,1.6-.7-1.9,1.1-3.6,2.6-5,4.2-1.6,1.9-2.7,4.2-3.2,6.6-.7,3.1-.4,6.4.9,9.4l.2.6h-.6c-9.8,2.5-15.9,12.3-13.5,22.1.5,2.1,1.4,4.1,2.5,5.9l.3.5-.4.3c-5.5,3.9-7.9,10.9-6,17.5.8,2.4,2,4.7,3.6,6.7Z"/>
    <path class="st13" d="M1571.1,604.1c1.3-1.1,2.3-2.4,3-4,.7-1.8.8-3.8.1-5.6-.8-2.3-2.7-4.2-5-5l-.7-.2.5-.6c2.3-2.9,3.7-6.5,4.1-10.2.5-4.2-.6-8.5-2.9-12-2.5-3.9-6.3-6.7-10.8-8l-.6-.2.2-.6c1.3-3.6,1.4-7.5.2-11.2-.9-2.9-2.6-5.4-4.8-7.5-2.1-1.8-4.4-3.1-7-4.1.7,0,1.5.2,2.1.5,1.9.7,3.7,1.7,5.3,3,2.4,2,4.2,4.7,5.3,7.7,1.3,3.8,1.3,8,0,11.9l-.4-.8c4.7,1.3,8.8,4.4,11.5,8.5,2.5,3.8,3.5,8.3,3,12.8-.4,3.9-2,7.6-4.5,10.7l-.2-.8c2.6,1,4.6,3.1,5.5,5.7.6,2,.5,4.1-.4,6-.5,1.2-1.3,2.3-2.3,3.1-.4.3-.8.5-1.2.7Z"/>
  </g>
  <g id="Character_4">
    <path class="st11" d="M1266.5,622l-49.5,4.8-.2-42.2s-3.6-.3-5.8-18.4-6.5-48.7-6.5-48.7h0c20.7-11.4,45.9-11.1,66.3.7l3,1.7-7.4,102.1Z"/>
    <path class="st11" d="M1270.5,543c.3-.2,12.5-5.1,13.4,7.3s-12.1,10.9-12.2,10.5-1.2-17.8-1.2-17.8Z"/>
    <path class="st11" d="M1210,547c-.3,0-12.1-1.8-10.3,10.5s14.2,8,14.2,7.6-3.9-18.1-3.9-18.1Z"/>
    <path class="st5" d="M1274.5,541.1c-.8,10.6.2,16-.8,23.1-1.6,11.3-6.3,20.3-15.9,26.9s-23.5,8-33.1,1.6c-6.7-4.5-11.7-9.9-13.4-17.5s-4.2-21.4-5.1-29.2c-1.7-14.1-4.2-27.5-4.2-27.5l41-11.9,25.3,11,6.2,23.6Z"/>
    <path class="st5" d="M1237.3,599.7c2.4.6,5,.5,7.4-.2,2.5-.3,4.8-1.4,6.8-2.9-.1-.3-3.1,1-7,1.8s-7.2.9-7.2,1.3Z"/>
    <path class="st5" d="M1274.4,558.9c0-10.8-.5-23,0-34.4.2-4.3,1.1-10.5.2-14.7-.6-4.3-2-8.4-4.1-12.1-3.1-4.6-8.2-7.6-13.7-8.1-5.6-.4-11.1,1.7-15.1,5.7-3.8-4.1-9.7-5.6-15-3.9-5.2,1.8-8.9,6.6-9.2,12.2-3.5-2.4-8.1-2.4-11.5,0-3.3,2.5-4.5,6.9-3,10.8-3,.8-5.3,3-6.4,5.9-.9,2.9-.3,6,1.6,8.4,2.3,2.7,5.9,3.9,8.4,6.4,2.8,3,3.6,7.4,1.9,11.1"/>
    <path class="st13" d="M1212.1,527c0,.4.3.8.6,1.1.7,1,1.7,1.8,2.7,2.3,1.7,1,3.7,1.3,5.6,1.1,2.6-.3,4.9-1.7,6.4-3.8h-.9c1,2.8,3.3,4.9,6.3,5.6,3.3.9,6.8,0,9.4-2.2,2.3-1.9,3.9-4.4,4.6-7.3l-1,.2c2.5,2.8,6.2,4.3,10,4,3-.3,5.7-1.7,7.6-4,1.2-1.4,2-3.2,2.3-5,.2-.7.2-1.3,0-2-.2.6-.3,1.3-.4,1.9-.5,1.7-1.3,3.4-2.5,4.7-1.8,2-4.3,3.3-7,3.5-3.4.2-6.7-1.2-9-3.7l-.7-.9-.3,1.1c-.7,2.6-2.1,5-4.2,6.7-2.3,1.9-5.3,2.7-8.2,2-2.5-.5-4.6-2.3-5.6-4.7l-.3-1-.6.9c-1.3,1.9-3.4,3.1-5.7,3.5-1.8.3-3.6,0-5.2-.8-1.5-.8-2.8-1.9-3.8-3.2Z"/>
    <path class="st13" d="M1211.7,522.1c0-1.6.5-3.3,1.3-4.7.9-1.6,2.3-2.7,4-3.4,2.2-.7,4.5-.6,6.5.5l1.1.6-.2-1.2c-.2-1.2-.2-2.4,0-3.6.6-2.6,2.2-4.9,4.5-6.3,1.9-1.1,4.2-1.6,6.4-1.3,2.1.3,4.1,1.1,5.8,2.4-.3-.5-.7-.9-1.2-1.3-1.3-1-2.8-1.6-4.4-1.9-5.6-1.1-11.1,2.6-12.2,8.2-.3,1.3-.3,2.7,0,4.1l.8-.6c-2.3-1.2-5-1.3-7.4-.4-1.9.7-3.4,2.1-4.4,3.9-.6,1.1-.9,2.4-.9,3.7,0,.9.3,1.4.3,1.4Z"/>
    <path class="st13" d="M1238.4,519.5c.2,0,0-.7-.1-1.7,0-1.3.3-2.6.9-3.8.6-1.2,1.3-2.4,2.1-3.5.6-.7,1.2-.3,1.3-.4s0-.3-.3-.5c-.5-.2-1.1,0-1.6.3-.5.5-.9,1-1.3,1.6-.5.7-.9,1.3-1.2,2.1-.7,1.3-1,2.9-.7,4.4.3,1.1.9,1.6,1,1.6Z"/>
    <path class="st13" d="M1261.4,501.2c.1,0,0-1-1-2.2-.6-.7-1.3-1.3-2.1-1.7-1.1-.5-2.3-.6-3.5-.4-2,.6-3.6,1.9-4.7,3.6-.8,1.2-1.1,2.1-1,2.2s.8-.6,1.7-1.7c1.1-1.4,2.6-2.5,4.3-3,1.7-.3,3.5.2,4.7,1.5,1,1,1.6,1.7,1.6,1.6Z"/>
    <path class="st13" d="M1260.8,554.4c1.8-2.5,3-5.4,3.5-8.4.9-2.9,1.1-6,.6-9-.3,0-.6,4-1.7,8.8s-2.7,8.5-2.4,8.6Z"/>
    <path class="st13" d="M1255.5,558c1.2-1.8,2-3.9,2.3-6,.8-2,1.1-4.2.8-6.3-.9,1.9-1.6,4-2,6.1-.7,2-1.1,4.1-1.2,6.2Z"/>
    <path class="st13" d="M1220.3,562.7c-.2,3.8.7,7.5,2.7,10.7,1.6,3.4,4.2,6.3,7.4,8.4-2.3-2.8-4.5-5.8-6.3-8.9-1.5-3.3-2.7-6.7-3.7-10.2Z"/>
    <path class="st13" d="M1213.7,554.3c-1,3.2-.9,6.7.3,9.9.8,3.3,2.7,6.2,5.3,8.4-1.6-2.8-3-5.7-4.2-8.7-.8-3.1-1.2-6.3-1.4-9.6Z"/>
    <polygon class="st11" points="1198.7 1005.5 1179.1 962.1 1211.7 948.6 1228.1 994.4 1215.8 1006.2 1198.7 1005.5"/>
    <path class="st13" d="M1211.3,1001l-12.6,4.4s-12.6,23.2-11,32.4c.5,2.3,1.4,4.5,2.7,6.4l29.2-11.1,21.1-8.7-12.5-30.2-16.8,6.6Z"/>
    <rect class="st6" x="1187.3" y="1029.6" width="54.2" height="5.7" transform="translate(-302.2 542) rotate(-22.5)"/>
    <path class="st5" d="M1202.1,1006.8c.3,0,1.2,5.7,2.8,12.5s3.4,12.3,3.1,12.5c-2-3.8-3.5-8-4.3-12.2-1.2-4.2-1.7-8.5-1.6-12.8Z"/>
    <path class="st5" d="M1235.6,1018.6c-1.4-1.4-3-2.6-4.7-3.7-1.8-1-3.8-1.7-5.9-1.9-5.2-.5-10.2,1.9-13.2,6.2-1.2,1.7-2,3.7-2.3,5.8-.2,2-.2,3.9,0,5.9-.3-.5-.5-1-.6-1.5-.3-1.5-.4-3-.2-4.4.6-5.1,3.8-9.5,8.4-11.6,4.6-2.3,10-1.9,14.3,1,1.3.8,2.4,1.8,3.3,3,.4.4.7.8.9,1.4Z"/>
    <path class="st5" d="M1148.8,811.2s-20.9,15.9-22.8,30.1c-1,11,0,22.1,3.3,32.6,2.3,6.1,42.2,103.7,42.2,103.7l45.9-20.1-31.1-91.9-37.6-54.4Z"/>
    <polygon class="st11" points="1304.5 1005.5 1320.4 960.7 1286.7 950 1274.3 997 1287.6 1007.7 1304.5 1005.5"/>
    <path class="st13" d="M1291.6,1002.2l13,3.3s14.6,22.1,13.7,31.4c-.3,2.3-1,4.6-2.1,6.7l-30-8.6-21.7-6.8,9.9-31.1,17.3,5.2Z"/>
    <rect class="st6" x="1288.3" y="1006.4" width="5.7" height="54.2" transform="translate(-84.9 1951) rotate(-72.4)"/>
    <path class="st5" d="M1301.3,1007.1c.6,8.6-.7,17.3-3.7,25.4-.3,0,1-5.7,2-12.7s1.3-12.7,1.7-12.7Z"/>
    <path class="st5" d="M1268.8,1021.7c.2-.5.4-1,.7-1.5.8-1.2,1.8-2.3,3-3.3,1.8-1.4,3.8-2.3,6-2.8,5.5-1.1,11.2,1,14.7,5.5,1.4,1.8,2.3,3.8,2.8,6,.3,1.5.4,3,.2,4.5,0,.5-.2,1.1-.4,1.6,0-2-.2-3.9-.6-5.8-.5-2-1.5-3.9-2.8-5.5-1.6-2-3.7-3.5-6.2-4.4-2.4-.9-5-1.1-7.5-.7-2.1.4-4,1.2-5.8,2.3-1.5,1.2-2.9,2.6-4.2,4.1Z"/>
    <path class="st5" d="M1276.8,956.3l27.7-103,25.5-47.9s26.4,15.7,30.7,33.1c2.6,10.2-20.4,83.6-20.4,83.6l-15.9,49.7-47.7-15.4Z"/>
    <path class="st3" d="M1323.3,638.6c-16.3-14.8-35.8-25.6-57-31.7h-52.6l-41.6,21.2s-23.8,11.2-23.8,46,1.7,84,5.7,92.6c2,4.6,4.8,8.7,8.3,12.3-1.4,21-2.3,36.8-2.7,41.1l160.8,3.6,12.5-158.1c.4-9.9-3-19.5-9.6-26.9Z"/>
    <path d="M1174.6,727.7c-.4,0-2-13.9-3.6-31.2s-2.8-31.2-2.3-31.3,2,13.9,3.6,31.2,2.7,31.3,2.3,31.3Z"/>
    <path d="M1307.8,729.8c-.3,0,.4-14.8,1.6-32.8s2.5-32.8,2.8-32.8-.4,14.8-1.6,32.8-2.5,32.9-2.8,32.8Z"/>
    <path class="st13" d="M1181.4,871.6c-17.1,0-31.1-13.5-31.6-30.5-.9-32-.9-81.6-.9-103.1,0-5.8,4.7-10.5,10.6-10.5h164.5c5.8,0,10.6,4.7,10.6,10.6h0v.3c-.5,22.3-1.8,74.1-2.6,106.2-.4,15.2-12.8,27.3-27.9,27.2h-122.6Z"/>
    <path class="st1" d="M1144.1,1047l-9.4-1.1,19.4-158.5c1-9.2,8.8-16.2,18.1-16.3h138.8c9.2,0,17,7,18.1,16.2,4.7,37.5,17.6,157.4,17.7,158.6l-9.4,1c0-1.2-13-121.1-17.7-158.5-.5-4.5-4.2-7.9-8.7-8h-138.9c-4.5,0-8.2,3.5-8.7,8l-19.3,158.6Z"/>
    <path class="st5" d="M1144.1,1047c0-.8.1-1.7.3-2.5.3-1.7.5-4.1.8-7.2.8-6.4,1.9-15.8,3.3-27.8,2.9-24.1,7-59,12.3-102.3.7-5.4,1.3-10.9,2-16.6.1-1.5.4-2.9.8-4.3.5-1.4,1.4-2.7,2.5-3.8,1.1-1.1,2.5-1.8,4-2.2,1.5-.3,3-.3,4.5-.3h135.7c4.1-.2,7.8,2.4,9.2,6.3.5,1.8.8,3.7.9,5.7.4,3.7.8,7.5,1.3,11.3,1.7,15.1,3.4,30.5,5.2,46.2,3.5,31.5,7.2,64.1,10.9,97.5l-.7-.5,9.4-1-.5.7c-.5-4.3-1-9-1.6-13.7-3.4-30.8-6.8-61-10-90.2-1.6-14.6-3.1-29-4.7-43.2-.4-3.5-.8-7-1.2-10.6-.3-3.4-1.5-6.6-3.5-9.4-2-2.7-4.7-4.8-7.9-6.1-1.6-.6-3.2-1-4.9-1.1h-141.8c-1.4.1-2.7.4-4,.9-2.6.9-4.9,2.3-6.8,4.2-1.9,1.9-3.4,4.2-4.2,6.7-.8,2.5-1.3,5.1-1.4,7.8-.7,5.3-1.3,10.4-1.9,15.5-1.2,10.1-2.4,19.8-3.6,29-2.3,18.4-4.3,35-6.1,49.6-3.7,29-6.3,49.9-7.6,60.7h0c0-.1,7,.8,7,.8l2.3.3-2.3-.2-7.2-.8h0c1.3-11,3.8-31.8,7.2-60.9,1.8-14.5,3.8-31.2,6-49.6,1.1-9.2,2.2-18.9,3.5-29,.6-5,1.2-10.2,1.9-15.4.2-2.7.7-5.4,1.4-8,2.4-6.9,8.6-11.8,15.9-12.5h141.9c1.8.2,3.5.6,5.2,1.2,3.4,1.3,6.3,3.5,8.4,6.5,2.1,2.9,3.4,6.4,3.7,10,.4,3.5.8,7,1.2,10.6,1.6,14.2,3.2,28.6,4.8,43.2,3.3,29.3,6.6,59.4,10.1,90.2.5,4.7,1.1,9.4,1.5,13.7v.6h-.6l-9.4,1h-.6v-.6c-3.7-33.5-7.3-66.1-10.8-97.5-1.7-15.7-3.5-31.1-5.2-46.2-.4-3.8-.8-7.5-1.2-11.3,0-1.8-.4-3.6-.9-5.4-.6-1.7-1.7-3.1-3.2-4.1-1.4-1-3.2-1.5-4.9-1.4h-135.7c-1.4,0-2.9,0-4.3.2-1.4.3-2.6,1-3.6,1.9-1,.9-1.9,2.1-2.3,3.4-.4,1.3-.7,2.7-.8,4.1-.7,5.7-1.4,11.2-2.1,16.7-5.4,43.3-9.7,78.2-12.7,102.4-1.5,12-2.7,21.3-3.5,27.7l-.9,7c-.2.7-.4,1.5-.4,2.2Z"/>
    <path class="st5" d="M1315.5,842.9c0,.2,0,.5,0,.7,0,.7,0,1.4-.1,2.1-.6,2.7-2.3,5-4.7,6.5-5.8,4.1-15.9,6.7-28.2,8.3-24.8,3.1-59.3,2.7-97.1-.9-4.8-.3-9.4-1.5-13.7-3.7-4.1-2.5-7-6.4-8.3-11-1.2-4.3-1.9-8.7-2.2-13.1-.4-4.3-.8-8.5-1.2-12.6-1.4-16.4-2.3-31.2-2.7-43.6s-.6-22.5-.6-29.5v-10.1c0-.2,0-.5,0-.7,0,.2,0,.5,0,.7v2c0,1.9,0,4.7.2,8,.1,7,.4,17,1,29.4s1.5,27.2,2.9,43.6c.4,4.1.8,8.3,1.2,12.5.3,4.3,1,8.7,2.2,12.9,1.2,4.3,3.9,8,7.8,10.3,4.1,2.1,8.6,3.3,13.2,3.5,37.7,3.6,72.2,4.1,96.9,1.3,12.3-1.5,22.3-3.9,28-7.8,2.3-1.3,4-3.5,4.7-6.1.2-.7.2-1.3.2-2,.1-.3.3-.5.4-.7Z"/>
  </g>
  <g id="Character_3">
    <path class="st5" d="M928,805.1l.7,39.3s-39.7,13.9-40.3,21.1l76.3,1.4,1.4-61.3-38.1-.5Z"/>
    <path class="st1" d="M952.3,841.6c1.5.5,2.4,2,2.1,3.6-.4,1.5-2,2.5-3.5,2.1-1.6-.5-2.5-2.2-2.2-3.8.6-1.5,2.3-2.3,3.9-1.8"/>
    <path class="st13" d="M964.7,867.1v-6.2c-.1,0-73.3,1-73.3,1,0,0-3.4,1.4-3.1,3.8l76.3,1.4Z"/>
    <path class="st6" d="M927.4,844.1c0,.4,1.9.6,3.7,1.8s2.8,2.8,3.1,2.7-.2-2.3-2.3-3.8-4.5-1-4.4-.7Z"/>
    <path class="st6" d="M919.4,847.2c0,.3,1.5,1,2.8,2.6s1.6,3.3,2,3.3.6-2.1-.9-4.1-3.8-2.2-3.8-1.8Z"/>
    <path class="st6" d="M914.6,856.7c.3,0,.9-1.8,0-3.8s-2.7-2.9-2.8-2.6.9,1.4,1.6,3.1.8,3.3,1.2,3.3Z"/>
    <path class="st6" d="M928.2,835.1c.1.3,1.9-.1,4,0s3.7.9,3.9.6-1.4-1.7-3.8-1.8-4.1,1-4.1,1.3Z"/>
    <path class="st5" d="M1021.1,802.7l4.1,47.4-7.5,38.4c-.5,2.6,1.2,5.2,3.8,5.7,0,0,0,0,0,0,.1,0,.2,0,.4,0h0c1.6.2,3.1-.3,4.2-1.5,6.8-7.4,31.7-34.8,31.2-38.3-.6-4-1-50.3-1-50.3l-35.2-1.5Z"/>
    <path class="st13" d="M1021.8,894.4l35.2-43v2c.3,1.7-.3,3.5-1.3,4.9-2.8,3.7-10.7,13.9-29.5,34.6-1.1,1.2-2.7,1.8-4.3,1.5h0Z"/>
    <g class="st9">
      <path class="st6" d="M1046.3,836.7c-1.1,1-1.4,2.6-.6,3.9.9,1.2,2.6,1.4,3.9.6,1.2-1,1.5-2.8.6-4.1-1.1-1.1-2.9-1.2-4.1-.2"/>
    </g>
    <path class="st6" d="M1031.4,872.9c-1.2-1.4-2.7-2.6-4.4-3.4-1.8-.6-3.7-.8-5.5-.7.5-.4,1-.6,1.6-.7,1.4-.3,2.9-.1,4.3.5,1.4.5,2.5,1.5,3.4,2.7.4.5.6,1.1.6,1.7Z"/>
    <path class="st6" d="M1028.4,879.5c-1.4-.7-2.9-1.3-4.3-1.8-1.6-.2-3.1-.3-4.7-.3,1.4-1,3.3-1.3,4.9-.7,2.9.6,4.4,2.6,4.1,2.8Z"/>
    <path class="st6" d="M1037.2,864.4c-2.1-1.2-4.3-2.3-6.5-3.2-2.3-.6-4.6-1-7-1.2,2.4-.8,5.1-.8,7.5.2,2.4.7,4.6,2.1,6.1,4.2Z"/>
    <path class="st6" d="M1037.1,849.9c-.1.3-2.8-.6-6.2-.5s-6.1,1.1-6.2.8c3.8-2.4,8.6-2.5,12.4-.3Z"/>
    <path class="st6" d="M1036.1,835.9c-2.1-.5-4.3-.8-6.5-.7-2.2.4-4.2,1-6.2,2,.4-.6.9-1.1,1.5-1.4,2.8-1.8,6.4-2.1,9.5-.9,1.3.5,1.9,1,1.7,1.1Z"/>
    <path class="st6" d="M1029.7,832.5c-.2-.6-.3-1.2-.2-1.8,0-1.6.5-3.2,1.1-4.7.4-1.1,1.2-2.1,2.2-2.8.8-.5,1.7-.3,2.3.3.6.6.9,1.3.9,2.1,0,3.3-2.4,6.1-5.6,6.7-3.2.5-6.4-.9-8.1-3.7-.4-.7-.5-1.6-.3-2.3.4-.8,1.2-1.2,2-1.2,1.2.2,2.3.7,3.2,1.4,1.3,1,2.5,2.1,3.5,3.5.4.5.7,1,.8,1.6-1.3-1.7-2.9-3.2-4.7-4.5-.8-.6-1.8-1-2.8-1.2-.5,0-.9.2-1.1.6-.1.5,0,1.1.3,1.5,1.5,2.3,4.3,3.5,7,3.1,2.7-.5,4.7-2.9,4.8-5.7,0-.5-.2-1.1-.6-1.5-.3-.3-.8-.4-1.2-.2-.9.6-1.5,1.4-1.9,2.3-1,2-1.6,4.1-1.8,6.2Z"/>
    <path class="st13" d="M890.9,476.7c-3.7,16.3-4.9,33-3.7,49.7.8,10.6,36.5,302.8,36.5,302.8h48.1l-13.5-274.7,3.9.9s26.3,117.1,28.4,136.1c2,17.1,24.1,140.8,24.1,140.8l44,.5-14.1-163.7-16.4-157.2-6.1-45.6-131.2,10.5Z"/>
    <path class="st5" d="M965.8,526.5c-.6.5-1.3.8-2,1.1-1.9,1-3.9,1.7-6,2.1-1.5.3-3,.3-4.4,0-1.8-.3-3.4-1.1-4.7-2.3-1.4-1.4-2.3-3.1-2.8-4.9-.6-1.8-.9-3.8-1.3-5.8-1.5-7.9-2.6-15.2-3.2-20.4-.3-2.6-.5-4.7-.6-6.2-.1-.8-.1-1.6,0-2.4.2.8.4,1.6.4,2.4.3,1.7.6,3.7.9,6.2.8,5.2,1.9,12.4,3.5,20.3.8,3.9,1.3,7.9,3.7,10.2,2.3,1.9,5.4,2.7,8.3,2.2,2-.3,4-.9,5.9-1.7.7-.3,1.5-.5,2.2-.7Z"/>
    <path class="st5" d="M951.4,489.2c.3-.2.6-.3,1-.3,1,0,1.9.3,2.7.9,1.2.8,2,2.2,2,3.7,0,1.9-1.3,3.5-3,4.2-1.7.7-3.7.3-5-1.1-.9-1.2-1.3-2.7-.9-4.1.2-.9.7-1.7,1.5-2.3.5-.4.9-.5.9-.4-.9.8-1.5,1.8-1.7,3-.2,1.2.1,2.4.9,3.4,1.6,1.4,4.1,1.3,5.5-.3.5-.6.9-1.3,1-2.1,0-1.2-.6-2.4-1.5-3.1-.9-.8-2.1-1.2-3.3-1.3Z"/>
    <path class="st5" d="M1027.6,509.1c-.5.2-1.1.3-1.7.3-1.5.1-3,.1-4.5,0-10-.6-19.6-4.6-27-11.4-1.1-1-2.2-2.1-3.1-3.3-.4-.4-.7-.9-1-1.4.1-.1,1.7,1.7,4.6,4.1,7.5,6.3,16.8,10.2,26.6,11.2,3.7.4,6.1.3,6.1.5Z"/>
    <path class="st5" d="M914,488.5c-.6,1.7-1.4,3.4-2.5,4.9-2.4,3.8-5.2,7.3-8.3,10.4-3.2,3.1-6.7,5.8-10.6,8.1-1.5,1-3.2,1.8-5,2.3,1.5-1.1,3.1-2.1,4.7-3,3.6-2.4,7-5.2,10.1-8.2,3.1-3.1,6-6.4,8.5-10,1.9-2.7,3-4.5,3.1-4.5Z"/>
    <path class="st11" d="M946.3,153.9h1.9c19.3-1.2,36.3,12.7,39,31.9,2.5,17.9,5,37.5,5.4,47.2.9,19.9-18.8,24.2-18.8,24.2l.7,8.1c1.2,13.3-8.7,25.1-22,26.2,0,0,0,0,0,0h0c-13.2,1.1-24.9-8.6-26.1-21.8l-7-74c-3.1-20.5,6.3-39.4,27-41.8Z"/>
    <path class="st14" d="M974,257.1c-9.3.5-18.5-1.6-26.6-6.1,0,0,7,14.1,26.7,11v-4.9Z"/>
    <path class="st5" d="M981.6,204.3c0,1.5-1.1,2.9-2.6,3-1.5.2-2.8-.8-3-2.3h0c0-1.5,1-2.9,2.6-3,1.5-.2,2.9.8,3.1,2.3,0,0,0,0,0,0h0Z"/>
    <path class="st5" d="M983.1,197c-.4.3-2.3-1.6-5.3-2.1s-5.5.7-5.8.3.3-.8,1.4-1.4c1.5-.7,3.1-.9,4.7-.6,1.6.3,3,1,4.2,2.1.8.9,1,1.6.8,1.7Z"/>
    <path class="st5" d="M955.2,206.1c0,1.5-1.1,2.9-2.6,3-1.5.2-2.9-.8-3.1-2.3h0c0-1.5,1.1-2.9,2.6-3,1.5-.2,2.9.8,3.1,2.3h0Z"/>
    <path class="st5" d="M953.5,196.6c-.2.4-2.8-.4-5.7.5s-4.7,3.1-5,2.8,0-.9.7-1.8c1-1.3,2.3-2.2,3.9-2.6,1.5-.5,3.2-.5,4.7,0,1,.4,1.5,1,1.4,1.2Z"/>
    <path class="st5" d="M965.8,220.1c1.6-.6,3.2-1,4.9-1.2.8-.1,1.5-.3,1.6-.9,0-.8-.2-1.6-.7-2.4-.8-1.9-1.7-3.8-2.7-5.8-2.4-4.9-4.5-10-6.1-15.3.3-.2,3.6,6.5,7.3,14.7.9,2,1.8,4,2.6,5.9.5.9.8,2,.6,3-.2.6-.6,1-1.2,1.2-.4.1-.9.2-1.3.3-1.7.3-3.4.5-5,.4Z"/>
    <path class="st5" d="M953.5,186c-.3.8-3.3.6-6.9,1.3s-6.4,1.8-7,1.1c-.2-.3.2-1.1,1.4-2,1.5-1.1,3.2-1.8,5.1-2.1,1.8-.3,3.7-.2,5.5.3,1.4.5,2.1,1.1,2,1.5Z"/>
    <path class="st5" d="M981.8,187c-.5.7-2.6,0-5.2.2s-4.7.8-5.2,0,0-1.1,1-1.8c2.5-1.7,5.8-1.8,8.4-.2.9.7,1.3,1.4,1,1.8Z"/>
    <path class="st5" d="M984.8,176.7s-6-12.2-12.2-14.7c-7.5-3.1-10.2,5.1-17.2,3.5s-14.1-4.5-21,1.2c-7.4,6.3-3.5,10.2-3.5,19.1.1,35.9-5.8,46.4-8.7,29.7-.3-1.9-5.5-3-6.7-10.8-1.5-10.1-2.7-22.3-.8-29.7,1.5-6.2,4.7-10.6,10.7-15.5,9.4-7.8,22.8-8.8,32-8.4s27.3,9.9,27.4,25.5Z"/>
    <path class="st11" d="M923.5,214.9c-.3-3-2.9-5.2-5.8-4.9,0,0,0,0,0,0h-.3c-3.7.6-7.7,2.9-7,10.6,1.2,13.6,14.6,9.6,14.6,9.2s-1-9.1-1.5-14.8Z"/>
    <path class="st14" d="M921.5,225c-.2.2-.4.3-.6.4-.5.3-1.2.4-1.8.2-1.9-1-3.1-2.9-3.2-5-.2-1.2,0-2.3.3-3.4.2-.9.8-1.6,1.6-2,.6-.2,1.2,0,1.5.5.2.4.1.6.2.7s.3-.3,0-.8c-.1-.3-.3-.6-.6-.8-.4-.2-.9-.3-1.3-.2-1.1.3-2,1.2-2.3,2.3-.5,1.2-.6,2.5-.5,3.9,0,2.5,1.7,4.7,4,5.6.8.2,1.5,0,2.1-.5.5-.4.6-.7.5-.7Z"/>
    <path class="st5" d="M987.7,162c-2.1-1.6-5-1.8-7-3.4-3.8-2.9-4-9.4-8.4-11.2-2.6-1-5.6.2-8.4,0-4.5-.5-6.3-3.9-13.2-3.9-4.9-.3-9.6,2.3-11.8,6.7-3.4-1.6-7.3-1.2-10.3,1-2.5,2-4.1,5-4.3,8.2,0,0-1.4-.7-5.7,2.7-2.9,2.8-5,6.3-6,10.2-1.5,5,.7,10.2,2.8,15,1.2,2.6,2.6,5.4,5.2,6.3,3.3,1.1,6.8-1.4,8.1-4.7s3.3-6.4,4.7-9.4c2.7-5.3,5.4-10.3,3.2-13.7,3.1-1,6.5-1,9.6,0,3.1,1,5.8,3,9,4.1s7,1,9.1-1.5c1.6,3.3,5.6,4.8,8.9,3.2.5-.2.9-.5,1.3-.8,2.6,4.1,7.8,5.6,12.2,3.4,3.6-2.1,4.8-6.8,2.6-10.3-.4-.7-.9-1.3-1.5-1.8Z"/>
    <path class="st13" d="M913.9,184c.6,1,1.2,2,1.6,3.1.5,1.1,1.3,2.1,2.3,2.8,1.3.7,2.8.9,4.2.5,1.5-.3,2.9-.9,4.1-1.7,1-.8,1.9-1.6,2.7-2.6.7-1,1.5-1.8,2.3-2.6-.5,1.1-1.1,2.1-1.8,3-.8,1-1.6,2-2.7,2.8-1.3,1-2.8,1.6-4.4,1.9-1.6.4-3.3.1-4.7-.7-1.1-.8-1.9-1.9-2.3-3.1-.6-1.1-1-2.2-1.3-3.4Z"/>
    <path class="st13" d="M914.4,194.4c.8.6,1.7,1.1,2.7,1.5,1,.3,2.2.4,3.2.3,1.3-.2,2.6-.7,3.8-1.4,2-1.4,3.8-3.3,5.1-5.4.5-.9,1.1-1.8,1.8-2.6-.3,1-.8,2-1.4,2.9-1.2,2.3-3,4.3-5.2,5.8-1.2.8-2.6,1.3-4.1,1.5-1.2.1-2.4,0-3.5-.5-1.9-.8-2.6-2-2.5-2Z"/>
    <path class="st14" d="M957.2,225.1c-.5,1.5-.7,3.1-.8,4.7,0,1.5.4,2.9,1.5,4,1.1,1.3,2.7,2,4.4,2h0c3.1,0,5.8-2.3,6.3-5.4l.5-3.4c-3.1-.8-11.7-1.7-11.9-1.9Z"/>
    <path class="st5" d="M965.5,234.8h-1.1c-1,.1-1.9.1-2.9,0-1.4-.2-2.6-1-3.5-2.1-1-1.3-1.5-3-1.4-4.7,0-1,.3-1.9.7-2.8l-.4.2c3.1.5,5.8.8,7.7,1.1,1,.2,2.1.3,3.1.2-1-.3-2-.6-3-.7-1.9-.4-4.5-.8-7.6-1.3h-.3v.3c-.6,1-.9,2-1,3.1-.2,1.9.4,3.8,1.6,5.3,1,1.2,2.4,2,4,2.1,1,0,2,0,3-.3.7-.2,1.1-.4,1-.4Z"/>
    <path class="st13" d="M921.7,218.8c1.2-1.1,2.1-2.5,2.7-4,.6-1.5.5-3.2-.3-4.7-.8-1.2-2-2-3.4-2.5-1.1-.5-2.4-.7-3.6-.7-1.2,0-2.4.6-3.2,1.6-.5.5-.5,1.3-.2,1.9.5.6,1.4.4,2.2.2,1-.3,2.1-.4,3.1-.4,1.1,0,2,.6,2.6,1.5.6,1.1.6,2.4,0,3.4-.6,1-1.4,2-2.3,2.8"/>
    <path class="st1" d="M876,291.1c-1.2,0-18,6.7-22.5,23.3s-16.5,77.2-16.5,77.2l-12.9,17.8s4.2,32.5,27.8,26.4c0,0,15.8,2.7,20.8-13.3s14.8-63.7,14.8-63.7l-11.6-67.7Z"/>
    <path class="st1" d="M925.2,263.3l-8.9,13.5-40.3,14.2,11.5,116.8-4.3,61.2c-.5,7.6,5.2,14.2,12.8,14.7,0,0,0,0,0,0,.4,0,.9,0,1.3,0l126.7-3.7c3.2,0,4.7-4.1,5.2-8.4.5-3.9.1-7.8-1-11.6l-6.7-23.5c1,14.6-3.4-86.8-3.5-90.6l9.8-52.2-45.8-18.4-7-11-20.7,15.6-28.9-16.8Z"/>
    <path class="st1" d="M1027.7,293.9s9.2,8.1,10.8,14.3,34.7,78,34.7,78l16.4,4.5,4.4,9.1c5.3,10.8,2.3,23.8-7.2,31.2-.6.5-1.2.9-1.8,1.2-11.4,6.1-25.5,3.7-34.2-5.9-8.8-10.4-34.7-47.9-34.7-47.9v-45.8l11.6-38.6Z"/>
    <path class="st11" d="M1081.7,393.4l23.7-14.1,11.4,14.1-2.3,6.8-30.5,22.6c-3.7-3.1-6.2-7.5-7-12.3-1.6-8.4,4.7-17.2,4.7-17.2Z"/>
    <path class="st5" d="M1074.2,386.2c0,.2-2,0-5,1-3.8,1.3-7.2,3.7-9.8,6.8-2.6,3.2-4.7,6.7-6.3,10.5-.6,1.6-1.3,3.2-2.2,4.7.2-1.7.7-3.4,1.4-5,1.4-4,3.5-7.7,6.1-11,2.7-3.3,6.4-5.7,10.5-6.9,1.7-.6,3.5-.6,5.2-.2Z"/>
    <path class="st11" d="M1105,387.2c-1.2-6.3.9-12.7,5.7-17,5.6-4.6,12-8.2,18.8-10.7,4.2-1.9,12.8-9.1,14.3-7.3,1.9,2.2,1.9,5.4,0,7.5-2.2,3.2-14.7,8-13,12,.7,1.6,4.7,1.9,4.7,1.9,0,0,15.1,1,21.4.5s12,.7,11.7,2.8-1.5,3.4-6.8,3.8-13.8.1-14.2,1.3,1.3,2,4.4,1.8,17.5-.2,18.5,1.4c.9,1.6.3,3.6-1.2,4.5,0,0,0,0,0,0-.2,0-.3.2-.5.2l-3.4,1.2s2,2.7.3,4.3-5.3,1-5.3,1l-19.1-.5s-1.1,1.1-.5,1.9,15.5-.3,15.6,1.3,1.4,2.4-3,3.5c-6.6,1.1-13.2,1.1-19.8,0-7-1-14-1.6-21-1.9l-7.5-13.5Z"/>
    <path class="st11" d="M844.9,395.9l-22.1-18.4-12.7,14.3,1.5,7,27.7,26c4.1-2.3,7.2-6.1,8.7-10.6,2.8-7.8-3.1-18.3-3.1-18.3Z"/>
    <path class="st11" d="M822.6,387c1.9-6.1.5-12.7-3.6-17.6-5-5.2-10.9-9.6-17.3-12.8-3.9-2.4-11.7-10.5-13.4-9-2.2,2-2.5,5.2-.8,7.6,1.8,3.4,10.4,7.4,10.1,11.7-.1,1.8-1.7,3.1-3.5,3h0c-7.1-.3-14.3-1-21.3-2.1-6.2-1.3-12-.8-12,1.5s1.1,3.5,6.3,4.7,13.7,1.7,14.1,3-1.5,1.8-4.5,1.2-17.4-2.4-18.5-.7c-1.1,1.5-.8,3.5.7,4.6.2.1.3.2.5.3l3.2,1.6s-2.3,2.5-.8,4.2,5.2,1.6,5.2,1.6l19,1.7s1,1.3.3,2-15.4-2.1-15.7-.5-1.7,2.2,2.7,3.9c6.4,1.9,13,2.7,19.6,2.4,7-.2,14.1,0,21.1.6l8.7-12.8Z"/>
    <path class="st5" d="M980.8,278.7c-1.2,1.5-2.5,2.9-4,4.2-2.5,2.3-6,5.9-9.7,9.9-.8.9-1.5,1.7-2.3,2.5l-.5.5-.5-.6c-2.8-3.6-5.3-6.9-7-9.2-1-1.2-1.9-2.5-2.6-3.9,1.2,1,2.3,2.1,3.2,3.4,1.9,2.2,4.5,5.4,7.3,9h-.9l2.3-2.5c3.1-3.4,6.5-6.6,10-9.7,1.4-1.4,2.9-2.6,4.6-3.6Z"/>
    <path class="st5" d="M878.7,322.1c.3.8.5,1.6.7,2.5.4,1.6.8,4,1.2,6.9.9,5.8,2,13.8,2.8,22.8s1.4,17,1.9,22.8c.2,2.7.3,5,.5,7,.1.8.1,1.7,0,2.6-.3-.8-.4-1.7-.5-2.5-.3-1.6-.5-4-.9-6.9-.7-5.8-1.4-13.9-2.3-22.8s-1.7-16.9-2.3-22.8l-.6-6.9c-.2-.9-.3-1.7-.3-2.6Z"/>
    <path class="st5" d="M1018.7,318c.3,1,.4,2,.4,3.1.2,2,.4,4.9.6,8.5.4,7.2.6,17.2.6,28.1v36.7c0,1,0,2.1-.1,3.1-.2-1-.3-2.1-.3-3.1-.1-2-.3-4.9-.4-8.5-.3-7.2-.3-17.2-.3-28.1s0-21-.3-28.2c0-3.4-.2-6.3-.2-8.5,0-1,0-2.1,0-3.1Z"/>
    <path class="st5" d="M860.5,421.3c-.6-2-1-4.1-1.2-6.2-.8-5-2.4-9.8-4.7-14.2-2.4-4.4-6-8-10.3-10.5-1.9-.9-3.8-1.7-5.8-2.3.6-.1,1.1-.1,1.7,0,1.6.2,3.1.7,4.5,1.4,4.7,2.3,8.5,6.1,11,10.7,2.5,4.6,4,9.5,4.7,14.7.4,2.1.4,4.3.2,6.5Z"/>
    <path class="st5" d="M866.2,397.1c-3-2.2-6.2-3.9-9.6-5.3-3.5-1-7.2-1.5-10.9-1.7,3.7-1.1,7.7-.9,11.3.5,3.7,1,7,3.3,9.2,6.5Z"/>
    <path class="st5" d="M957.1,480.3c-.1-.7-.2-1.3-.1-2,0-1.4,0-3.3-.1-5.8-.1-5.1-.3-12.3-.4-21.1-.4-17.9-1-42.5-1.7-69.6s-1-51.8-1-69.6,0-16.1.2-21.1c0-2.4.1-4.3.2-5.8,0-.7,0-1.3.1-2,0,.7.1,1.3.1,2v5.7c0,5.1.1,12.3.2,21.1.2,17.8.7,42.4,1.3,69.6s1.2,51.8,1.3,69.6v26.9c0,.7,0,1.3,0,2Z"/>
    <path class="st5" d="M843.8,395.1c1.5,1.1,2.6,2.5,3.2,4.2.9,1.7,1.5,3.6,1.9,5.5.4,2.3.4,4.7,0,7-.2,2.4-.9,4.7-2.1,6.8-1,1.7-2.3,3.2-3.9,4.4-1.4,1.2-3.2,1.8-5,1.8,1.6-.6,3.1-1.5,4.4-2.5,1.4-1.2,2.6-2.6,3.4-4.2,1-2,1.6-4.2,1.9-6.4.6-4.1,0-8.2-1.5-12-.7-1.6-1.5-3.1-2.3-4.5Z"/>
    <path class="st5" d="M1088.4,425.4c-.5,0-1-.2-1.5-.5-1.3-.6-2.5-1.3-3.6-2.2-7.8-6-9.9-16.9-4.9-25.3.7-1.2,1.5-2.3,2.5-3.4.7-.7,1.2-1,1.2-1-1.1,1.5-2.1,3.1-3,4.7-4.3,8.2-2.3,18.2,4.7,24.2,2.6,2.4,4.6,3.2,4.6,3.4Z"/>
    <path class="st5" d="M997.9,371.7c-1,.7-2,1.3-3.1,1.8-2,1.1-4.9,2.6-8.6,4.4-7.3,3.6-17.5,8.4-29,13.3s-22,8.9-29.7,11.6c-3.8,1.4-7,2.3-9.2,3.1-1.1.4-2.3.7-3.4.9,1.1-.5,2.1-1,3.3-1.4l9-3.5c7.6-2.9,18.1-7,29.5-11.9s21.7-9.5,29.1-12.9l8.8-4.1c1.1-.6,2.2-1,3.3-1.4Z"/>
    <path class="st14" d="M1133.8,366.3c.1.1-.9,1.1-2.2,2.9-.8,1-1.3,2.1-1.5,3.4-.3,1.4-.3,3-.5,4.7-.4,3.1-2.1,5.8-4.6,7.7-.9.8-2.1,1.4-3.4,1.5,0-.2,1.2-.7,2.9-2.1,2.1-1.9,3.5-4.4,3.9-7.2.1-1.6.3-3.2.6-4.8.3-1.4,1-2.6,1.9-3.7,1.6-1.6,2.8-2.4,2.9-2.3Z"/>
    <path class="st14" d="M788.6,385.2c-4.4.6-8.9.7-13.3.3-4.5,0-8.9-.5-13.2-1.5,4.4-.2,8.9,0,13.3.3,4.4,0,8.9.3,13.2.9Z"/>
    <path class="st14" d="M802.2,384.1c0,.1-1.4,0-3.1-1.5-2.2-1.9-3.4-4.7-3.4-7.6.1-1.5.4-3,.8-4.5.3-1.1.5-2.3.5-3.5,0-1.1-.3-2.2-.7-3.2.9.8,1.5,1.9,1.6,3.1.1,1.3,0,2.6-.2,3.8-.3,1.4-.6,2.9-.7,4.3,0,2.6.9,5.1,2.8,7,1.3,1.4,2.5,2,2.5,2.1Z"/>
    <path class="st14" d="M1137.2,388.4c4.7-.2,9.5,0,14.2.6,4.7.2,9.4.8,14.1,1.8-4.7.2-9.5,0-14.2-.6-4.7-.2-9.4-.8-14.1-1.8Z"/>
    <path class="st5" d="M952.9,280.9c-.7,2.4-1.6,4.7-2.7,7l-1.5,3.5c-.6,1.4-1.2,2.7-1.9,4-.5.9-1.5,1.4-2.5,1.2-.9-.2-1.7-.6-2.3-1.2l-4.2-2.9c-5.8-4-10.9-7.6-14.7-10.3-2.1-1.4-4-2.9-5.9-4.6,2.2,1.1,4.3,2.4,6.4,3.9,3.8,2.5,9.1,6.1,14.9,10l4.2,2.9c.6.5,1.2.8,1.9,1.1.6,0,1.1-.2,1.4-.7,1.4-2.5,2.5-5.1,3.5-7.1,1-2.3,2.1-4.5,3.4-6.7Z"/>
  </g>
  <g id="Character_1">
    <path class="st11" d="M656,687.2c0,1.4,13.2,52.4,13.2,69s-15.6,30.2-15.6,30.2l-17-36.8-7-45.8,26.3-16.5Z"/>
    <path class="st11" d="M494.2,682.3c-.2,1.5,2.8,64.9,2.8,64.9l25.5-2.3-5.7-42.5-22.6-20Z"/>
    <path class="st3" d="M529.1,629.2c-.3.1-1,.4-2.2.8-7,2.3-30.5,10.4-33.5,31l-3.2,29.3,26.6,12.2,3.3,32.6,115.3,2.3-2.8-27.4,39.1-8.6s-7.4-35.4-21.7-54.3c-4.6-6.1-11.3-10.2-18.8-11.7l-59.7-11.9-42.5,5.7Z"/>
    <path class="st5" d="M585.1,513.1c-8.4-1-16.8,1.8-23,7.7-5.9,5.7-10.6,12.6-13.6,20.3-6.5,14.5-10.2,30-13.9,45.4-5.5,22.7-11,45.5-12.5,68.7s5.8,37,16.1,58l36.7-4.9v-6.8l5,6.7,14.2-2.1s4.3-36,4.3-35.9,6.8,34.3,6.8,34.3l11.9-1.1c11.7-45.2-1.5-75,5.2-121.2,1.6-11,4.1-21.9,4.1-33s-3-22.7-10.9-30.7-21.6-11.3-31.3-5.4"/>
    <path class="st13" d="M594.1,706c0-.2-.1-.3-.1-.5l-.3-1.5c-.2-1.4-.6-3.4-1.1-5.9-.9-5.1-2.2-12.6-3.3-21.8-1.4-10.8-2-21.8-1.8-32.7.1-6.5.6-12.9,1.5-19.3,1-6.9,2.4-13.7,4.3-20.3,4.1-13.7,9.7-26.2,12.5-38.2,1.4-5.6,2.1-11.4,2.2-17.2,0-5.1-.8-10.1-2.3-14.9-1.3-4-3.3-7.7-5.8-11.1-1.9-2.6-4.2-4.8-6.8-6.8-1.6-1.2-3.4-2.3-5.2-3.1l-1.5-.7c-.2,0-.3-.1-.5-.2l.5.2,1.5.6c1.9.8,3.7,1.9,5.3,3.1,2.6,1.9,5,4.1,7,6.7,2.6,3.4,4.6,7.1,6,11.2,1.7,4.8,2.5,9.9,2.5,15.1,0,5.9-.7,11.7-2.1,17.4-2.8,12.1-8.4,24.6-12.4,38.2-1.9,6.7-3.3,13.4-4.3,20.2-.9,6.4-1.4,12.8-1.5,19.2-.2,10.9.4,21.8,1.7,32.6,1,9.2,2.2,16.7,3,21.8.4,2.5.7,4.5.9,5.9,0,.5,0,1,.2,1.5,0,.2,0,.4,0,.5Z"/>
    <path class="st13" d="M542.5,682.4v-.4c0-.4,0-.9-.2-1.3-.1-1.2-.3-2.8-.5-4.9-.1-1-.2-2.2-.3-3.5s-.2-2.7-.3-4.2c-.2-3-.4-6.5-.5-10.3v-12.4c0-4.5.4-9.3.7-14.3.9-10.9,2.3-21.8,4.4-32.5,2.2-10.7,5-21.4,8.4-31.8,1.6-4.7,3.1-9.4,4.8-13.5.8-2.1,1.6-4.1,2.3-6s1.6-3.8,2.3-5.5c1.5-3.5,3.1-6.6,4.4-9.4.7-1.4,1.3-2.7,1.9-3.8l1.7-3.1c1-1.9,1.8-3.3,2.3-4.3l.6-1.1c.1-.3.2-.4.2-.4,0,.1-.1.3-.2.4l-.6,1.2-2.2,4.4-1.6,3.2c-.6,1.2-1.2,2.5-1.8,3.8-1.3,2.8-2.8,5.8-4.2,9.4-.8,1.8-1.5,3.6-2.3,5.5s-1.5,4-2.3,6.1c-1.7,4.2-3.2,8.8-4.7,13.5-6.8,20.8-11.1,42.3-12.8,64.1-.3,5-.7,9.8-.8,14.3,0,2.2-.2,4.4-.2,6.5v6c0,3.8.2,7.2.3,10.3,0,1.5.1,2.9.2,4.2s.2,2.5.3,3.5c.1,2.1.3,3.7.4,4.9v1.2l.2.4Z"/>
    <path class="st13" d="M562.8,709.8c0-.1-.1-.3-.2-.4-.1-.3-.2-.8-.4-1.3l-1.5-4.9-1.1-3.6c-.4-1.3-.7-2.8-1.1-4.3-.7-3.1-1.8-6.6-2.3-10.5-.4-2-.8-4-1.2-6.2s-.7-4.4-1-6.7-.7-4.7-.9-7.2-.4-5-.7-7.7c-.7-11.4-.6-22.9.3-34.3,1-11.4,2.8-22.8,5.3-34,.6-2.6,1.2-5.1,1.8-7.5s1.3-4.7,1.9-7c1.2-4.5,2.7-8.7,3.9-12.5s2.5-7.2,3.6-10.2,2.1-5.5,3-7.6,1.5-3.6,2-4.7l.5-1.2.2-.4v.4c-.1.4-.3.9-.5,1.3l-1.9,4.8c-.8,2.1-1.8,4.7-2.9,7.7s-2.3,6.4-3.5,10.2-2.6,8-3.8,12.5c-.6,2.3-1.3,4.6-1.9,7s-1.2,5-1.8,7.5c-2.5,11.2-4.4,22.5-5.5,33.9-.9,11.4-1,22.8-.3,34.3.2,2.6.5,5.2.6,7.7s.6,4.9.9,7.2.5,4.6,1,6.7.8,4.2,1.1,6.2c.6,3.9,1.6,7.4,2.3,10.5.4,1.5.7,3,1.1,4.3s.7,2.5,1,3.6l1.4,5,.3,1.3c0,0,0,.3,0,.3Z"/>
    <path class="st13" d="M614.4,687.9c-.1-.1-.2-.3-.2-.5-.2-.3-.4-.8-.7-1.3l-1.1-2.2c-.4-.9-.8-1.9-1.3-3-2.7-6.5-4.8-13.2-6.2-20.1-2.1-10.2-2.7-20.6-1.9-31,.5-6.1,1.5-12.2,3-18.2,1.5-6.2,3.5-12.5,5.6-19s4-12.8,5.5-19c1.4-5.9,2.3-12,2.5-18.1.2-5.5-.4-11.1-1.8-16.4-1.2-4.7-3.3-9.1-6-13.1-4-5.9-9.6-10.6-16.1-13.4-1.8-.7-3.7-1.3-5.6-1.7l-1.5-.3h-.5c.2,0,.3,0,.5,0l1.5.2c1.9.4,3.8.9,5.7,1.6,6.7,2.8,12.4,7.4,16.4,13.4,2.8,4,4.9,8.5,6.2,13.2,1.4,5.4,2,11,1.8,16.6-.2,6.1-1,12.3-2.5,18.2-1.4,6.2-3.4,12.6-5.4,19s-4.1,12.8-5.6,18.9c-5.8,22.9-4.2,47.1,4.6,69,.5,1.2.9,2.2,1.2,3.1s.7,1.6,1,2.2.4,1,.6,1.4c0,.2.1.3.1.5Z"/>
    <path d="M511.4,666.5c.6,2.3,1,4.6,1.3,6.9.7,4.7,1.6,10.4,2.6,16.8s1.9,12.1,2.7,16.8c.5,2.3.8,4.6.9,7-.8-2.2-1.3-4.5-1.7-6.9-.9-4.2-2-10.2-3-16.7s-1.8-12.5-2.4-16.8c-.3-2.3-.4-4.7-.3-7.1Z"/>
    <path d="M634.9,675.5c.1,7.3-.1,14.5-.8,21.8-.3,7.3-.9,14.5-2,21.7-.1-7.3.1-14.5.8-21.8.3-7.3.9-14.5,2-21.7Z"/>
    <path class="st11" d="M619.5,946.6l-13.2-42.1,30.4-9.2c-.2,0,10,52.8,10,52.8l-14.7,6-12.4-7.5Z"/>
    <path class="st13" d="M676.3,952l-11-3.7-20.1-7.8-27.1,2.8,4.1,24.4,22.6-1.8,38.4-2.3-.8-3.3c-.8-3.5-3.1-6.5-6.2-8.2Z"/>
    <path class="st5" d="M649,963.8c-1.2-3.8-2.1-7.6-2.5-11.6-.9-3.9-1.3-7.8-1.3-11.7,2.1,7.6,3.4,15.4,3.9,23.3Z"/>
    <polygon class="st1" points="622.2 967.7 621.5 963.6 682.2 959.2 683.2 963.5 622.2 967.7"/>
    <polygon class="st11" points="540 1012 540 971.5 573.5 969.4 571.4 1013 555.5 1019.2 540 1012"/>
    <path class="st13" d="M553.3,1012.8l-13.3-.8s-20.5,16.6-22.5,25.8c-.4,2.3-.4,4.7,0,7l31.2.9h22.7v-32.7l-18.1-.2Z"/>
    <path class="st5" d="M583.7,871.7c.7,1.6,9.5,47.3,9.5,47.3l54.2-12.2-7-31-56.8-4.2Z"/>
    <path class="st5" d="M527.7,876.3v94.7l53.2,2.3,2.3-96.9h-55.6Z"/>
    <rect class="st1" x="517.2" y="1040" width="54.2" height="5.7"/>
    <path class="st5" d="M542.6,1014.6c.3,0-1.1,5.7-2.2,12.6-1.1,7-1.6,12.7-1.9,12.7-.4-8.6,1-17.3,4.1-25.3h0Z"/>
    <path class="st5" d="M569.2,1038.3c-.8-1.8-1.7-3.5-2.8-5.1-1.3-1.6-2.9-3-4.7-4-2.3-1.2-4.8-1.7-7.3-1.6-2.6.1-5,.9-7.2,2.3-1.7,1.2-3.2,2.7-4.3,4.4-1,1.7-1.8,3.5-2.3,5.4-.1-.5-.1-1.1,0-1.6.3-1.5.8-2.9,1.5-4.2,4-7.1,13-9.7,20.1-5.7,2,1.1,3.7,2.6,5,4.5.8,1.2,1.5,2.6,1.9,4,.2.5.3,1,.2,1.6Z"/>
    <path class="st13" d="M520.5,872.4c-16.9,0-30.8-13.4-31.3-30.3-.9-31.8-.9-80.9-.9-102.2,0-5.8,4.7-10.5,10.5-10.5h163.1c5.8,0,10.5,4.6,10.6,10.4v.2c-.5,22.1-1.8,73.4-2.6,105.3-.4,15-12.7,27-27.7,27h-121.7Z"/>
    <path class="st1" d="M483.4,1046.3l-9.4-1.1,19.2-157.1c1-9.2,8.7-16.1,18-16.2h137.5c9.2,0,16.9,7,18,16.2,4.7,37.1,17.4,156,17.5,157.2l-9.4,1c-.1-1.2-12.9-120-17.5-157-.5-4.4-4.2-7.8-8.6-7.9h-137.4c-4.5,0-8.2,3.5-8.6,7.9l-19.2,157.1Z"/>
    <path class="st5" d="M483.4,1046.3c0-.8.1-1.7.3-2.5.3-1.6.5-4,.8-7.2.8-6.3,1.9-15.6,3.3-27.5,2.9-23.9,7-58.5,12.2-101.4.6-5.3,1.3-10.8,2-16.4.1-1.4.4-2.9.8-4.3.5-1.4,1.4-2.7,2.5-3.8,1.1-1,2.5-1.8,4-2.1,1.5-.3,3-.3,4.5-.3h134.7c2,0,3.9.5,5.5,1.6,1.6,1.1,2.9,2.7,3.6,4.5.5,1.8.8,3.7.9,5.6.4,3.7.8,7.4,1.2,11.2,1.7,15,3.4,30.2,5.1,45.8,3.5,31.2,7,63.5,10.8,96.7l-.7-.6,9.4-1-.6.7c-.5-4.3-1-8.9-1.5-13.5-3.4-30.5-6.7-60.4-10-89.4-1.6-14.5-3.1-28.8-4.7-42.8-.4-3.5-.8-7-1.2-10.5-.3-3.4-1.5-6.6-3.5-9.4-2-2.7-4.7-4.8-7.8-6-1.6-.6-3.2-.9-4.8-1.1-1.6-.1-3.4,0-5.1,0h-135.4c-1.3.1-2.7.4-3.9.9-2.6.9-4.9,2.3-6.8,4.2-1.9,1.9-3.3,4.1-4.2,6.6-.8,2.5-1.2,5.1-1.4,7.7-.7,5.2-1.3,10.3-1.9,15.3-1.2,10-2.4,19.6-3.5,28.7-2.4,18.2-4.3,34.7-6.1,49.1-3.6,28.8-6.2,49.4-7.6,60.2h0c0-.1,7,.8,7,.8l2.4.3-2.4-.2-7-.8h-.1v-.3c1.3-10.8,3.7-31.4,7-60.2,1.7-14.4,3.7-30.9,5.9-49.1,1.1-9.1,2.3-18.8,3.5-28.7.6-5,1.2-10.1,1.9-15.3.2-2.7.7-5.3,1.5-7.9.9-2.6,2.4-5,4.4-7,2-2,4.4-3.5,7-4.5,1.4-.5,2.8-.8,4.2-.9h140.8c1.8.2,3.5.5,5.1,1.2,3.3,1.3,6.3,3.5,8.4,6.4,2.1,2.9,3.4,6.3,3.7,9.9.4,3.5.8,7,1.2,10.5,1.6,14.1,3.1,28.4,4.7,42.8,3.2,29,6.6,58.9,10,89.4.5,4.7,1,9.3,1.5,13.6v.6h-.6l-9.4,1h-.6v-.6c-3.7-33.2-7.3-65.5-10.8-96.7-1.7-15.6-3.4-30.9-5.1-45.8-.4-3.7-.8-7.5-1.2-11.2,0-1.8-.4-3.6-.9-5.3-.6-1.6-1.7-3-3.2-4-1.4-1-3.1-1.5-4.9-1.4h-134.7c-1.4-.1-2.9,0-4.3.2-1.3.3-2.6,1-3.6,1.9-1,.9-1.9,2.1-2.3,3.4-.4,1.3-.7,2.7-.8,4.1l-2,16.4c-5.4,42.9-9.7,77.5-12.6,101.5-1.5,11.9-2.7,21.1-3.5,27.4l-.9,7c0,.8,0,1.7-.2,2.5Z"/>
    <path class="st5" d="M653.4,844c0,.2,0,.5,0,.7,0,.7,0,1.4-.1,2.1-.6,2.7-2.2,5-4.6,6.4-5.8,4.1-15.7,6.6-27.9,8.2-24.6,3-58.8,2.7-96.2-.9-4.7-.3-9.4-1.6-13.6-3.7-4-2.4-7-6.4-8.2-10.9-1.2-4.2-1.9-8.6-2.2-13-.4-4.2-.8-8.4-1.1-12.5-1.4-16.2-2.2-30.9-2.6-43.2s-.6-22.3-.6-29.2v-9.9c0-.2,0-.5,0-.7v2.7c0,1.9,0,4.5.2,7.9.1,6.9.4,16.9,1,29.2s1.5,27,2.9,43.2c.4,4.1.8,8.2,1.2,12.5.3,4.3,1,8.6,2.1,12.7,1.2,4.3,3.9,7.9,7.7,10.2,4.1,2.1,8.6,3.3,13.1,3.5,37.4,3.5,71.6,4,96.1,1.2,12.2-1.5,22.1-3.8,27.8-7.7,2.3-1.3,4-3.5,4.7-6.1.2-.7.3-1.3.2-2,.1-.2.2-.4.2-.7Z"/>
  </g>
</svg>