<svg xmlns="http://www.w3.org/2000/svg" id="ad359247-6b4c-4e11-ab78-9964f5f36e27" data-name="Layer 1" viewBox="0 0 1920 1080"><defs><style>.a5c12167-7d72-4220-93f5-38330835c198{fill:#a2cc3a;}.bda71f20-a4bd-444c-aa22-febecf1ba3ce{fill:#fff;}</style></defs><rect class="a5c12167-7d72-4220-93f5-38330835c198" x="-302.2" y="-268.6" width="2523.5" height="1867.89" rx="12"></rect><path class="bda71f20-a4bd-444c-aa22-febecf1ba3ce" d="M1247.8,371.1H1054v42.5a29.5,29.5,0,0,1-29.2,29.3H895.4a29.7,29.7,0,0,1-29.3-29.3V371.1H672.4a65.1,65.1,0,0,0-64.8,64.6V772a65.2,65.2,0,0,0,64.6,64.6h575.6a65.2,65.2,0,0,0,64.6-64.6V435.7A65.2,65.2,0,0,0,1247.8,371.1ZM913,765.9H708.9a30.1,30.1,0,0,1-30.8-29.3v-1.5c1.5-48.4-4.4-66.1,19.1-82.2,8.8-7.3,19.1-8.8,55.8-22h0l13.2-4.4h0L778,608.9V598.6c-14.6-10.3-11.8-24.9-13.2-26.4v-1.5c-7.4,0-8.9-8.8-8.9-14.6s-4.3-13.2-2.9-20.5c1.5-3,2.9-3,4.4-1.5-1.5-7.4-2.9-16.2-4.4-26.4-4.4-27.9,10.3-55.8,47-63.2s47,13.2,47,13.2c30.8-5.8,27.9,43.9,20.5,74.9,1.5,0,1.5,0,1.5,1.5,3,7.3-1.5,14.6-2.9,20.5s-1.5,14.7-8.8,14.7A35.3,35.3,0,0,1,847,594.2V606l10.3,17.6h0c1.4,0,49.9,17.6,52.8,19.1s26.4,7.3,32.3,30.8c1.5,3,1.5,33.8,1.5,58.8-.1,19-14.7,33.7-30.9,33.7ZM1241.9,625h-229V584h229Zm0-95.4h-229V488.7h229Z"></path><path class="bda71f20-a4bd-444c-aa22-febecf1ba3ce" d="M895.4,428.3h129.2a14.6,14.6,0,0,0,14.6-14.6V258a14.6,14.6,0,0,0-14.6-14.6H895.4a13.8,13.8,0,0,0-14.6,13,4.3,4.3,0,0,0,0,1.6V413.6A15.6,15.6,0,0,0,895.4,428.3ZM960,275.6a31,31,0,0,1,30.8,30.9,30.1,30.1,0,0,1-29.3,30.8H960a30.9,30.9,0,0,1,0-61.7Z"></path></svg>