<svg xmlns="http://www.w3.org/2000/svg" xmlns:xlink="http://www.w3.org/1999/xlink" id="Layer_1" data-name="Layer 1" viewBox="0 0 1981 680.62"><defs><style>      .cls-1 {        fill: url(#New_Pattern_11);      }      .cls-1, .cls-2, .cls-3 {        stroke-width: 0px;      }      .cls-4 {        stroke: #edba48;        stroke-miterlimit: 10;        stroke-width: 3px;      }      .cls-4, .cls-2 {        fill: none;      }      .cls-3 {        fill: #edba48;      }    </style><pattern id="New_Pattern_11" data-name="New Pattern 11" x="0" y="0" width="264" height="272" patternTransform="translate(5 -3535)" patternUnits="userSpaceOnUse" viewBox="0 0 264 272"><g><rect class="cls-2" width="264" height="272"></rect><rect class="cls-4" x="256.23" y="272.12" width="132" height="136" rx="16.39" ry="16.39"></rect><g><rect class="cls-4" x="-7.77" y="272.12" width="132" height="136" rx="16.39" ry="16.39"></rect><rect class="cls-4" x="124.59" y="272.12" width="132" height="136" rx="16.39" ry="16.39"></rect><path class="cls-3" d="M124.46,288.38h0c0-9.25-7.5-16.75-16.75-16.75h0c9.25,0,16.75-7.5,16.75-16.75h0c0,9.25,7.5,16.75,16.75,16.75h0c-9.25,0-16.75,7.5-16.75,16.75Z"></path><path class="cls-3" d="M256.53,288.38h0c0-9.25-7.5-16.75-16.75-16.75h0c9.25,0,16.75-7.5,16.75-16.75h0c0,9.25,7.5,16.75,16.75,16.75h0c-9.25,0-16.75,7.5-16.75,16.75Z"></path></g><path class="cls-3" d="M-7.47,288.38h0c0-9.25-7.5-16.75-16.75-16.75h0c9.25,0,16.75-7.5,16.75-16.75h0c0,9.25,7.5,16.75,16.75,16.75h0c-9.25,0-16.75,7.5-16.75,16.75Z"></path><g><rect class="cls-4" x="256.23" y=".12" width="132" height="136" rx="16.39" ry="16.39"></rect><rect class="cls-4" x="256.23" y="136.7" width="132" height="136" rx="16.39" ry="16.39"></rect></g><g><g><path class="cls-3" d="M90.18,68.12c0,17.65-14.31,31.95-31.95,31.95s-31.95-14.31-31.95-31.95,14.31-31.95,31.95-31.95,31.95,14.31,31.95,31.95ZM71.14,76.04c0-2.35-.65-4.36-1.92-6.07-1.28-1.69-3.38-2.92-6.3-3.67l-5.43-1.43c-1.97-.57-3.33-1.15-4.07-1.77-.73-.62-1.11-1.47-1.11-2.52,0-.77.16-1.44.51-2.04.34-.58.81-1.09,1.4-1.5.59-.4,1.29-.72,2.09-.94.8-.22,1.66-.33,2.58-.33,1.88,0,3.3.47,4.21,1.39.92.94,1.52,2.24,1.77,3.95l5.68-.19c-.01-1.76-.51-3.38-1.45-4.84-.95-1.47-2.29-2.64-4.03-3.53-1.11-.56-2.35-.94-3.72-1.14v-4.6h-4.96v4.59c-1.44.18-2.77.53-4,1.06-1.9.82-3.39,1.97-4.46,3.47-1.09,1.49-1.62,3.24-1.61,5.25.04,2.42.8,4.34,2.28,5.78,1.48,1.43,3.47,2.43,5.94,2.98l5.58,1.34c1.75.4,3.04.99,3.86,1.71.81.72,1.23,1.76,1.23,3.09,0,.92-.29,1.73-.87,2.44-.58.7-1.37,1.25-2.35,1.64-.97.4-2.05.61-3.22.61-1.99,0-3.64-.43-4.97-1.28-1.34-.85-2.23-2.12-2.63-3.81l-5.83.21c.39,3.15,1.8,5.5,4.2,7.07,1.83,1.19,4.06,1.92,6.68,2.2v4.25h4.93v-4.25c1.52-.16,2.91-.52,4.15-1.04,1.86-.77,3.3-1.86,4.33-3.24,1.02-1.39,1.54-3.01,1.54-4.86Z"></path><rect class="cls-4" x="-7.77" y=".12" width="132" height="136" rx="16.39" ry="16.39"></rect></g><g><g><path class="cls-3" d="M212.76,215.4c1.1-.36,1.83-1.41,1.83-2.57v-14.96l-20.14,6.09c-1.25.38-2.55.57-3.86.57s-2.61-.19-3.86-.57l-20.14-6.09v15c0,1.17.75,2.2,1.86,2.58,14.09,4.84,30.21,4.58,44.31-.05Z"></path><path class="cls-3" d="M193.59,223.94v-.05c0-1.23-1.01-2.24-2.24-2.24h-1.52c-1.23,0-2.24,1.01-2.24,2.24v.05c-10.33-.78-20.66-1.57-31-2.3-3.9,5.37-3.9,9.63,0,15,10.34-.73,20.67-1.51,31-2.29v1.05c0,1.23,1.01,2.24,2.24,2.24h1.52c1.23,0,2.24-1.01,2.24-2.24v-1.05c10.33.78,20.66,1.57,31,2.29,3.9-5.37,3.9-9.63,0-15-10.34.73-20.67,1.51-31,2.3Z"></path><path class="cls-3" d="M225.28,204.19v-9.56l-1.63.5v9.06c-1.41.23-2.46,1.05-2.46,2.02v9.43h6.55v-9.43c0-.97-1.05-1.79-2.46-2.02Z"></path><path class="cls-3" d="M231.37,183.67l-38.08-11.52c-.88-.27-1.79-.4-2.7-.4s-1.82.13-2.7.4l-38.08,11.52c-1.94,1.07-1.94,3.87,0,4.94l17.28,5.23,20.8,6.29c.88.27,1.79.4,2.7.4s1.82-.13,2.7-.4l20.83-6.3,17.25-5.22c1.94-1.07,1.94-3.87,0-4.94Z"></path></g><rect class="cls-4" x="124.59" y="136.7" width="132" height="136" rx="16.39" ry="16.39"></rect></g><g><rect class="cls-4" x="-7.77" y="136.7" width="132" height="136" rx="16.39" ry="16.39"></rect><g><path class="cls-3" d="M86.19,212.61c-.54,1.53-4.13-2.84-9.49-3.66-5.37-1.34-12.52.87-20.17,3.66-7.65,2.96-14.37,1.28-19.03-3.41-4.67-4.36-7.28-11.73-6.74-12.4.54-1.53,4.13,2.85,9.49,3.67,5.37,1.34,12.52-.87,20.17-3.66,7.65-2.96,14.37-1.28,19.03,3.41,4.66,4.36,7.28,11.73,6.74,12.4"></path><path class="cls-3" d="M90.16,229.85c-.54,1.53-4.13-2.84-9.5-3.66-5.37-1.34-12.52.87-20.17,3.66-7.65,2.96-14.37,1.28-19.03-3.41-4.67-4.36-7.28-11.72-6.74-12.4.54-1.53,4.13,2.84,9.49,3.66,5.37,1.34,12.52-.87,20.17-3.66,7.65-2.96,14.37-1.28,19.03,3.41,4.67,4.36,7.28,11.73,6.75,12.4"></path><path class="cls-3" d="M81.73,195.37c-.54,1.53-4.13-2.84-9.49-3.67-5.37-1.34-12.52.87-20.17,3.66-7.65,2.96-14.37,1.28-19.03-3.41-4.67-4.36-7.28-11.73-6.74-12.41.54-1.52,4.13,2.84,9.49,3.67,5.37,1.34,12.52-.87,20.17-3.66,7.65-2.96,14.37-1.28,19.03,3.41,4.67,4.36,7.28,11.73,6.74,12.4"></path></g></g><g><rect class="cls-4" x="124.59" y=".12" width="132" height="136" rx="16.39" ry="16.39"></rect><g><path class="cls-3" d="M218.56,76.03c-.54,1.53-4.13-2.84-9.49-3.66-5.37-1.34-12.52.87-20.17,3.66-7.65,2.96-14.37,1.28-19.03-3.41-4.67-4.36-7.28-11.73-6.74-12.4.54-1.53,4.13,2.85,9.49,3.67,5.37,1.34,12.52-.87,20.17-3.66,7.65-2.96,14.37-1.28,19.03,3.41,4.66,4.36,7.28,11.73,6.74,12.4"></path><path class="cls-3" d="M222.52,93.27c-.54,1.53-4.13-2.84-9.5-3.66-5.37-1.34-12.52.87-20.17,3.66-7.65,2.96-14.37,1.28-19.03-3.41-4.67-4.36-7.28-11.72-6.74-12.4.54-1.53,4.13,2.84,9.49,3.66,5.37,1.34,12.52-.87,20.17-3.66,7.65-2.96,14.37-1.28,19.03,3.41,4.67,4.36,7.28,11.73,6.75,12.4"></path><path class="cls-3" d="M214.1,58.79c-.54,1.53-4.13-2.84-9.49-3.67-5.37-1.34-12.52.87-20.17,3.66-7.65,2.96-14.37,1.28-19.03-3.41-4.67-4.36-7.28-11.73-6.74-12.41.54-1.52,4.13,2.84,9.49,3.67,5.37,1.34,12.52-.87,20.17-3.66,7.65-2.96,14.37-1.28,19.03,3.41,4.67,4.36,7.28,11.73,6.74,12.4"></path></g></g><path class="cls-3" d="M124.46,153.12h0c0-9.25-7.5-16.75-16.75-16.75h0c9.25,0,16.75-7.5,16.75-16.75h0c0,9.25,7.5,16.75,16.75,16.75h0c-9.25,0-16.75,7.5-16.75,16.75Z"></path><path class="cls-3" d="M256.53,153.12h0c0-9.25-7.5-16.75-16.75-16.75h0c9.25,0,16.75-7.5,16.75-16.75h0c0,9.25,7.5,16.75,16.75,16.75h0c-9.25,0-16.75,7.5-16.75,16.75Z"></path><path class="cls-3" d="M256.53,289.12h0c0-9.25-7.5-16.75-16.75-16.75h0c9.25,0,16.75-7.5,16.75-16.75h0c0,9.25,7.5,16.75,16.75,16.75h0c-9.25,0-16.75,7.5-16.75,16.75Z"></path><path class="cls-3" d="M124.46,16.38h0c0-9.25-7.5-16.75-16.75-16.75h0c9.25,0,16.75-7.5,16.75-16.75h0c0,9.25,7.5,16.75,16.75,16.75h0c-9.25,0-16.75,7.5-16.75,16.75Z"></path><path class="cls-3" d="M256.53,16.38h0c0-9.25-7.5-16.75-16.75-16.75h0c9.25,0,16.75-7.5,16.75-16.75h0c0,9.25,7.5,16.75,16.75,16.75h0c-9.25,0-16.75,7.5-16.75,16.75Z"></path></g><g><path class="cls-3" d="M-7.47,153.12h0c0-9.25-7.5-16.75-16.75-16.75h0c9.25,0,16.75-7.5,16.75-16.75h0c0,9.25,7.5,16.75,16.75,16.75h0c-9.25,0-16.75,7.5-16.75,16.75Z"></path><path class="cls-3" d="M-7.47,289.12h0c0-9.25-7.5-16.75-16.75-16.75h0c9.25,0,16.75-7.5,16.75-16.75h0c0,9.25,7.5,16.75,16.75,16.75h0c-9.25,0-16.75,7.5-16.75,16.75Z"></path><path class="cls-3" d="M-7.47,16.38h0c0-9.25-7.5-16.75-16.75-16.75h0c9.25,0,16.75-7.5,16.75-16.75h0c0,9.25,7.5,16.75,16.75,16.75h0c-9.25,0-16.75,7.5-16.75,16.75Z"></path></g><rect class="cls-4" x="256.23" y="-135.3" width="132" height="136" rx="16.39" ry="16.39"></rect><g><rect class="cls-4" x="124.59" y="-135.3" width="132" height="136" rx="16.39" ry="16.39"></rect><rect class="cls-4" x="-7.77" y="-135.3" width="132" height="136" rx="16.39" ry="16.39"></rect><path class="cls-3" d="M256.53,17.12h0c0-9.25-7.5-16.75-16.75-16.75h0c9.25,0,16.75-7.5,16.75-16.75h0c0,9.25,7.5,16.75,16.75,16.75h0c-9.25,0-16.75,7.5-16.75,16.75Z"></path></g><path class="cls-3" d="M-7.47,17.12h0c0-9.25-7.5-16.75-16.75-16.75h0c9.25,0,16.75-7.5,16.75-16.75h0c0,9.25,7.5,16.75,16.75,16.75h0c-9.25,0-16.75,7.5-16.75,16.75Z"></path></g></pattern></defs><rect class="cls-1" width="1981" height="681"></rect></svg>