<svg xmlns="http://www.w3.org/2000/svg" id="Layer_1" data-name="Layer 1" viewBox="0 0 1920 1080"><defs><style>.cls-1{fill:#041715;}.cls-2{fill:#14564f;}.cls-3{fill:#accd38;}</style></defs><rect class="cls-1" x="-35" y="-37" width="2056" height="1153"></rect><circle class="cls-2" cx="960.77" cy="469.78" r="165.32"></circle><path class="cls-2" d="M960.77,854c129.3,0,234.1-44.47,234.1-74.8,0-49-60.23-119.5-145.68-150.78a181.15,181.15,0,0,1-176.86,0C786.9,659.7,726.66,730.21,726.66,779.2,726.66,809.53,831.48,854,960.77,854Z"></path><circle class="cls-3" cx="1174.41" cy="274.45" r="79.45"></circle><path class="cls-1" d="M1210.87,265.77h-27.78V238a8.68,8.68,0,1,0-17.36,0v27.78H1138a8.68,8.68,0,1,0,0,17.36h27.78v27.78a8.68,8.68,0,1,0,17.36,0V283.13h27.78a8.68,8.68,0,1,0,0-17.36Z"></path></svg>