<?xml version="1.0" encoding="UTF-8"?>
<svg id="Layer_1" xmlns="http://www.w3.org/2000/svg" version="1.1" viewBox="0 0 1080 1080">
  <!-- Generator: Adobe Illustrator 29.7.1, SVG Export Plug-In . SVG Version: 2.1.1 Build 8)  -->
  <defs>
    <style>
      .st0 {
        fill: #252a2e;
      }

      .st1 {
        fill: #bbd154;
      }

      .st2 {
        fill: #3a9d69;
      }

      .st3 {
        fill: #f7f189;
      }
    </style>
  </defs>
  <rect class="st1" y="34.6" width="1080" height="702.2" rx="45.8" ry="45.8"/>
  <g>
    <path class="st0" d="M1034.5,304c-10.1-6.2-22-2.9-29.1,8.3-8.1,12.8-16.2,25.6-24,38.6-2.3,3.9-4.9,5.4-9.6,5.4-74.1-.2-148.2-.1-222.3-.1s-49.5,0-74.2,0c0,0,0,0,0,0h-76.5c-3.4,0-6.1,2.7-6.1,6.1v101c0,3.4,2.7,6.1,6.1,6.1h76.5c3.4,0,6.1-2.7,6.1-6.1v-89.7h20.9c2.1,18.7,7.6,23.5,26.5,23.5,28.4,0,56.8,0,85.2,0h7.4v7.4c0,38.8,0,77.6,0,116.3,0,48.2,0,96.4,0,144.6,0,16,13.6,26.6,29.2,23.1,12.6-2.8,19-11.3,19-25.6,0-47.6,0-95.2,0-142.8v-6.6h11.6c0,2.8,0,5.1,0,7.4,0,48.4,0,96.8,0,145.1,0,12.4,7.8,20.9,20.6,23.1,11,1.8,22.7-4.9,25.9-15.4,1.2-4.1,1.6-8.7,1.6-13,0-85.2,0-170.5,0-255.7v-7.7c3,0,5.1,0,7.1,0,17.1,0,34.2-.1,51.2,0,8.9,0,15.4-3.6,20-11.1,10.7-17.3,21.6-34.4,32.3-51.7,7.1-11.4,4.7-23.8-5.6-30.2Z"/>
    <path class="st0" d="M929.1,279.4h-2.1c0-1.1.1-2.3.1-3.4,0-11-3.5-21.3-9.4-29.6-1.3-1.9-4.2-1.4-4.8.8l-.5,1.7c-.9,3.3-4.5,5.1-7.8,3.9-2.9-1.1-4.3-4.5-3.4-7.5l2.8-9.9c.3-1.1-.1-2.4-1.1-3-5.4-3.4-11.4-5.8-17.8-7v-.7c0-3.3-2.7-6.1-6.1-6.1h-7c-3.3,0-6.1,2.7-6.1,6.1v.7c-6.4,1.2-12.5,3.6-17.8,7-1,.6-1.4,1.9-1.1,3l2.8,9.9c.7,2.6-.2,5.5-2.5,6.9-3.4,2-7.6.2-8.7-3.4l-.5-1.7c-.6-2.2-3.5-2.6-4.8-.8-5.9,8.4-9.4,18.6-9.4,29.6s0,2.3.1,3.4h-2.1c-2,0-3.9.8-5.2,2.2-1.7,1.7-2.6,4.2-2,6.8.8,3.4,4.1,5.7,7.6,5.7h4.1c0,27,21.9,49,49,49s49-21.9,49-49h4.5c2,0,3.9-.8,5.2-2.2,1.3-1.3,2.2-3.2,2.2-5.2,0-4-3.3-7.3-7.4-7.3Z"/>
  </g>
  <path class="st0" d="M1080,80.3v118.3H0v-118.3c0-25.2,20.6-45.8,45.8-45.8h988.4c25.2,0,45.8,20.6,45.8,45.8Z"/>
  <rect class="st0" x="68.7" y="267.3" width="362.5" height="30.5" rx="4.7" ry="4.7"/>
  <rect class="st0" x="68.7" y="412.4" width="362.5" height="30.5" rx="4.7" ry="4.7"/>
  <rect class="st0" x="68.7" y="484.9" width="362.5" height="30.5" rx="4.7" ry="4.7"/>
  <rect class="st0" x="68.7" y="339.9" width="362.5" height="30.5" rx="4.7" ry="4.7"/>
  <g>
    <circle class="st2" cx="538.1" cy="801.6" r="244.2"/>
    <polygon class="st3" points="666.3 831.9 538.1 668.8 409.9 831.9 495.2 831.9 495.2 930.2 585.2 930.2 585.2 831.9 666.3 831.9"/>
  </g>
</svg>