<?xml version="1.0" encoding="UTF-8"?>
<svg id="Layer_1" xmlns="http://www.w3.org/2000/svg" xmlns:xlink="http://www.w3.org/1999/xlink" version="1.1" viewBox="0 0 1920 1080">
  <!-- Generator: Adobe Illustrator 29.7.1, SVG Export Plug-In . SVG Version: 2.1.1 Build 8)  -->
  <defs>
    <style>
      .st0, .st1, .st2 {
        fill: none;
      }

      .st3 {
        font-size: 18.4px;
      }

      .st3, .st4, .st5, .st6, .st7, .st8, .st9, .st10, .st11, .st12, .st13, .st14 {
        font-family: ProximaNova-Bold, 'Proxima Nova';
        font-weight: 700;
      }

      .st3, .st4, .st5, .st6, .st7, .st15, .st9, .st10, .st11, .st16, .st12, .st13, .st17, .st18 {
        fill: #221f1f;
      }

      .st19 {
        letter-spacing: 0em;
      }

      .st20 {
        fill: #252a2e;
      }

      .st4, .st12 {
        font-size: 20.5px;
      }

      .st5, .st13 {
        font-size: 20.5px;
      }

      .st6, .st11 {
        font-size: 20.5px;
      }

      .st7, .st10 {
        font-size: 20.5px;
      }

      .st21 {
        fill: #dfd021;
      }

      .st8 {
        font-size: 20.9px;
      }

      .st8, .st14 {
        fill: #fff;
      }

      .st15 {
        font-size: 19.4px;
        letter-spacing: 0em;
      }

      .st15, .st18 {
        font-family: ProximaNova-Semibold, 'Proxima Nova';
        font-weight: 600;
      }

      .st22 {
        fill: #43a78c;
      }

      .st9 {
        font-size: 27.6px;
      }

      .st23 {
        clip-path: url(#clippath-10);
      }

      .st24 {
        clip-path: url(#clippath-1);
      }

      .st25 {
        clip-path: url(#clippath-3);
      }

      .st26 {
        clip-path: url(#clippath-4);
      }

      .st27 {
        clip-path: url(#clippath-2);
      }

      .st28 {
        clip-path: url(#clippath-7);
      }

      .st29 {
        clip-path: url(#clippath-9);
      }

      .st30 {
        clip-path: url(#clippath-8);
      }

      .st31 {
        clip-path: url(#clippath-5);
      }

      .st1 {
        stroke: #221f1f;
        stroke-linecap: round;
      }

      .st1, .st2 {
        stroke-miterlimit: 10;
      }

      .st32 {
        fill: #225337;
      }

      .st10 {
        letter-spacing: 0em;
      }

      .st33 {
        fill: #bbd154;
      }

      .st34 {
        letter-spacing: 0em;
      }

      .st11 {
        letter-spacing: 0em;
      }

      .st35 {
        letter-spacing: 0em;
      }

      .st36 {
        fill: #3a9d69;
      }

      .st16 {
        font-family: ProximaNova-Extrabld, 'Proxima Nova';
        font-size: 80.9px;
      }

      .st12 {
        letter-spacing: 0em;
      }

      .st13 {
        letter-spacing: 0em;
      }

      .st37 {
        letter-spacing: 0em;
      }

      .st38 {
        letter-spacing: 0em;
      }

      .st39 {
        letter-spacing: 0em;
      }

      .st40 {
        letter-spacing: 0em;
      }

      .st41 {
        letter-spacing: 0em;
      }

      .st2 {
        stroke: #cdc22e;
        stroke-width: 2px;
      }

      .st18 {
        font-size: 37.6px;
      }

      .st42 {
        letter-spacing: 0em;
      }

      .st43 {
        letter-spacing: 0em;
      }

      .st44 {
        letter-spacing: 0em;
      }

      .st45 {
        letter-spacing: 0em;
      }

      .st46 {
        letter-spacing: 0em;
      }

      .st47 {
        fill: #f7f189;
      }

      .st48 {
        clip-path: url(#clippath);
      }

      .st14 {
        font-size: 68.8px;
      }
    </style>
    <clipPath id="clippath">
      <rect class="st0" x="196.6" width="1560" height="1080"/>
    </clipPath>
    <clipPath id="clippath-1">
      <rect class="st0" x="196.6" width="1560" height="1080"/>
    </clipPath>
    <clipPath id="clippath-2">
      <rect class="st0" x="196.6" width="1560" height="1080"/>
    </clipPath>
    <clipPath id="clippath-3">
      <rect class="st0" x="196.6" width="1560" height="1080"/>
    </clipPath>
    <clipPath id="clippath-4">
      <rect class="st0" x="196.6" width="1560" height="1080"/>
    </clipPath>
    <clipPath id="clippath-5">
      <rect class="st0" x="196.6" width="1560" height="1080"/>
    </clipPath>
    <clipPath id="clippath-7">
      <rect class="st0" x="196.6" width="1560" height="1080"/>
    </clipPath>
    <clipPath id="clippath-8">
      <path class="st0" d="M701.2,671.1c-3.9,1.7-7.6,4.1-11.7,6.2-1,.8-1.6,2.2-.9,3.4.7,1.2,2.2,1.5,3.3,2.1,2.7,1.3,2.5,4.6,2.7,7.2.4,5.1,5.8,6.6,10.2,7,4.7.4,12.2-.4,11.9-6.7-.1-2.2-2.6-5.2-4.1-6.7-1.5-1.5-2.8-2.2-3.3-4.3-.5-2.1-.4-4-.3-6.1,0-1.1.1-1.9-.9-2.3-.9-.4-1.9-.6-3-.6s-2.7.3-3.9.8M626.7,663.6c2.3,5.8,2.5,9.1.5,10.4-.5.3-1.1.5-1.8.5-2.6,0-6.3-2.5-9.2-4.9-3.5,17.1-5.1,22.9-6,24.9.9,7.4,2.6,13.4,3.4,14,0,0,3.7,2,3.8,5.4.2,2.2-1.1,4.3-3.7,6.1l-.3.2c-.2,0-5.5,2-7.2,6.9.2,1.8.6,8.9-4.8,12.8v7.1h1.1c2.3,0,3.2.9,3.5,1.7.9,1.8-.2,4.1-7.2,9.8l-2.6,4.6,75.6,45.5,40.3,6.1,14.2-107.4c-2.2.6-4.3,1.4-6.6,2-6.3,1.5-11.4.9-18.2,0-8.5-1-10.3-1.9-11.3-10.4-1.3-10-12.6-10.7-14.1-21.3-1.3-9.1,3.2-16.7,10.4-21-22.2-3.9-45.2-8.1-52.3-9.4l-2.6-.5h-.3l-.6-.2-3.7,17.1Z"/>
    </clipPath>
    <clipPath id="clippath-9">
      <rect class="st0" x="288" y="971" width="55.5" height="55.5"/>
    </clipPath>
    <clipPath id="clippath-10">
      <rect class="st0" x="196.6" width="1560" height="1080"/>
    </clipPath>
  </defs>
  <rect class="st47" x="288" y="971" width="55.5" height="55.5"/>
  <g>
    <path class="st32" d="M1118.5,442.7c11-1.7,30.6.7,34,13.3,2.9,10.7,19.6,6.2,16.7-4.6-6.2-23-34.6-28.6-55.2-25.4-11,1.7-6.3,18.4,4.6,16.7Z"/>
    <path class="st32" d="M1496.1,488.9c-3.8-3-7.5-6.2-11-9.7-1.5-1.5-3.3-2.3-4.9-2.5.8-.3,1.6-.6,2.4-1.1,11.9-6.5,9.4-19.1,5.4-29.6-2.4-6.4-1.5-13-2.8-19.6-.4-2-1-4-1.7-6,.7-3.6,0-7.4-2.2-10.4-1.9-2.6-4.5-3.7-7.1-3.7-6.3-3.2-15,2.3-13,8.9-.7.3-1.4.6-1.8.9-2.1,1.4-3.4,3.2-4.5,5.3-7.3,3.8-16.7,2.9-24.3.5-10.2-3.3-14.8,12.1-5.7,16.2-1.3,2.2-1.9,4.9-1.4,7.2,2.4,11.2,4.9,22.4,7.3,33.5.3,1.2,2,7.9,3.8,14.4-.4,4.3-.6,8.7-.5,13-16.6-8.7-35.2-11.8-54.6-9-5.9.9-7.3,6.2-5.5,10.6-5.6,1.1-11.1,2.3-16.6,3.6-1.5-2.6-4.3-4.6-7.4-4.4-10.9.7-21.1,3.3-26.5,12.8-3.8,1.4-5.3,4.8-4.9,8.2-5.8-1.4-13,3-10.7,10.4,3.9,13.1-4.4,30.1-9.4,42.1-2.7,6.5-5.7,13-8.6,19.4-1.5,3.2-2.9,6.5-4.4,9.7-1.8,3.9-.6,2.7-3.6,2.8-5.8.3-13.6-3-19.3-4.3-6-1.3-12.1-3.1-18.2-3.2-.3,0-.7,0-1,0-.9-1.2-2.1-2-3.6-2.5.7-5.6.3-11.2,0-16.9-.9-12.3-1.9-24.5-2.9-36.8,3-.4,6.1-1.6,9.1-3,1.2.6,2.5,1,3.9,1,4.9,0,8.4-4,8.6-8.6,0-1.5.2-2.9.3-4.4.4-6.8-7.6-10.4-13-7.5-2.6,1.4-5.2,2.8-7.7,4.1-.5.3-1.6.8-2.1,1.1-2.4-1.1-5.1-1.1-7.4,0-.3,0-.5,0-.8,0-14.4-.2-27.9,1.8-37.1,13.8-6.8,8.8,8.2,17.4,14.9,8.7,3.1-4.1,8.8-5.1,14.2-5.3.7,9.3,1.5,18.6,2.2,27.8,1,12.3,2.2,22.7-2.5,34.4-1.6,3.9-2.9,8-3,12.2-.2,6.7,1.4,9.6-6.1,11.9-7.3,2.2-14.8,4.1-22.2,5.9-2.1-11.3-3.3-22.7-3.7-34.2,0-1.8-.6-3.2-1.4-4.5,0-16.5-1.2-33.1-3.2-49.8-1.3-10.9-18.6-11-17.3,0,4.5,37.3,4.7,74-2.1,110.8-3.2.2-6.5.6-9.7,1.2-4.8-16.9-14-32.3-27.2-43.9.2-9.4,2.2-19.3,3-27.6,0-.5,0-.9.1-1.4.3,0,.6,0,.9,0,11.1-.1,11.1-17.1.1-17.3-.3-4.6-1.4-9-4.1-12.8,3-7.9,3.6-15.9,1.8-23.6,11.9-.5,23.8-.5,35.7-.1,11.1.4,11.1-16.9,0-17.3-14.6-.5-29.2-.3-43.8.5,0,0,0,0,0-.1,0,0,0-.1,0-.2-.4-6.1-1.7-12.5-6.1-17.1-.4-.5-.9-.9-1.3-1.3-1-3.2-2.3-6.3-4.1-9.3-4.9-7.9-11.9-14.2-20.1-18.5-.6-.3-1.2-.6-1.8-.7-1-2.6-1.9-5.1-2.8-7.2-2.7-6.3-6.5-10.8-1.5-16.5,3.5-4,6.4-7.6,8.1-12.8,3.6-10.6-13.1-15.1-16.7-4.6-2.2,6.4-9.3,9.9-11.4,16.8-2.7,9,3,17.9,6.5,25.9,3.5,7.9,6.6,16.3,11.1,23.5-23.1.7-46.3,1.1-69.4,1.4,0-1.1.1-2.1.2-3.2.2-13.3-8.6-28.3-5-41.1.8-2.8,2-5.4,3.2-8,8.7-1,9.5-13.4,2.3-16.5-.5-4.1-1.5-8.1-2.3-12-2.9-14.7-6.2-29.4-9.7-44.1-2.6-10.8-19.2-6.2-16.7,4.6,3.2,13.4,6.2,26.9,8.9,40.4.7,3.4,1.6,6.9,2.1,10.3-41-.2-82-.7-122.9-1.5.4-19.6,3.2-39,8.4-58.1,2.9-10.8-13.8-15.3-16.7-4.6-7.4,27.5-10.3,55.7-8.5,84.1-40.6-3-81.2-7.1-121.6-12.2-4-.5-6.5,1.5-7.6,4.3-11.7,1.4-38.3,1.7-33.9-17.4,1.4-6.1-4.1-12.8-10.6-10.6-1.5-1.9-1.1-3.3,1.3-4.2,1.3-1,2.5-2.2,3.4-3.7,1.9-2.7,3.1-5.9,2.9-9.3-.4-7-5.5-11.6-10.1-16.2-10.9-11-14.5-26.6-10.3-41.4,1.4-5-2.7-11.5-8.3-10.9-5,.5-8.7-.3-13-3-2.2-1.4-4.3-1.6-6.2-1.1-3.9-.6-8.1,1.1-9.5,6-5.1,17.9-10,35.9-14.5,54-4.8-.5-9.6-.5-13.9-.9-14.7-1.3-29.4-2.5-44.2-3.5-6.5-.4-13.2-.4-19.7-1.3-6.4-.9-9.7-1.6-10.6-8-1.4-9.1-7.2-17.6-17.7-14.4-10.6,3.3-6.1,19.9,4.6,16.7-3.7,1.1-4.6-.4-3.7,4.4.4,1.9.8,3.7,1.7,5.4,1.5,3,3.8,5.3,6.5,7.3,6,4.2,13.2,5.4,20.3,6,24,2.2,48.2,3.3,72.2,5.6,0,0,0,0,0,0-.5,2.2-1.1,4.4-1.6,6.7-1.4,6.1,3.2,10.2,7.9,10.7-4.6,7.7-8,15.3-9.7,24.2-3,16.2-.3,37.1-11.1,50.7-.4.5-.7,1-1,1.6-14.9-2.6-29.6-6.3-44-10.5,0-.9.1-1.8.1-2.7.4-10.2-14.1-11-16.8-2.5-18.7-6.1-37.1-13-55.4-19.9-10.4-3.9-14.9,12.8-4.6,16.7,19.3,7.2,38.7,14.5,58.3,20.8-2,16.2-6.1,31.8-11.1,47.7-6.2,19.6,4.7,33.7,12.8,50.6,8.5,17.6,17.3,32.7,30.5,47.2,14,15.3,24.7,32.6,34.1,51,1.5,3,4,4.3,6.5,4.3.3,4.4.9,8.7,1.5,13.1-3,1-5.3,3.6-4.9,7.8.6,7.7-.6,15-4.4,21.4-1.7,1.8-3.2,3.8-4.3,6.1-3.7,8.1,6.9,18.7,13.6,10.5,1.7-2.1,3.2-4.2,4.6-6.4,3.4-3.7,7.8-6.5,10.4-10.9,3.2-5.6,3.7-12.1,3.1-18.5-.7-7.8-2.1-15.5-2.4-23.4-.1-4.7,0-9.4.2-14,.1-2.2.3-4.4.6-6.6,1.4.4,2.7.9,3.9,1.2,5.5,1.5,10.9-2.8,10.9-8.3,0-4.7.3-9.4.5-14.1,29.5,3.7,59,7,88.5,10.1-.1,4.9-.2,9.9-.2,14.9.2,42.3-7,82.3-16.2,123.4-2.4,10.8,14.2,15.5,16.7,4.6,9.3-41.3,17.1-82,16.9-124.5,0-5.6,0-11.1.2-16.7,18.7,1.8,37.4,3.5,56.1,5.1-1.6,4.8.9,10.8,7.9,11.2,11.9.6,23.8,1.2,35.7,2,1.5,0,3,.2,4.4.3-3.5,5.3-1.5,13.7,6.6,13.2,1,0,2.1-.1,3.1-.2-.8,4.9-1.6,9.8-2.3,14.8-2.2,15.7-4,31.5-5.2,47.3-.6,7.5-1,15.1-1.3,22.6-.2,3.8-.3,7.5-.4,11.3,0,2.1,0,4.3-.1,6.4-5-.3-11.2-2.1-14.6-2.6-7.9-1.2-15.8-2.8-23.6-4.7-13.2-3.2-25.9-6.7-39.3-2.7-10.6,3.2-6.1,19.8,4.6,16.7,13.9-4.1,29.1,2.9,42.8,5.6,11,2.2,26.6,6.6,37.8,4.6,11.5-2,9.6-14.4,9.8-23.2.3-15.1,1.2-30.2,2.6-45.2,1.4-14.9,3.2-29.7,5.6-44.5.4-2.2.9-4.5,1.5-7,4.5-.1,8.9-.1,13.4,0,1,1.1,2.4,1.9,4.3,2.2,6.4,1.2,12.8,2.2,19.3,3-3.3,17-5,36.3,4.9,50.6,5.2,7.6,12.9,8.3,21.5,8.6,2.3,0,4.7.2,7,.2.4,3.3,2.3,6.2,6.1,6.8,6.2,1,12.3,1.6,18.4,1.8,10.9.9,21.7,1.6,32.6,2.1,10.2,3.3,20.3,6.8,30.6,10.1,3.4,12.9,9.5,24.9,13.1,37.8,4.3,15.3,5,30.9,3,46.7-1.4,11,15.9,10.9,17.3,0,1.9-14.8,1.3-29.8-1.9-44.4-2.6-11.8-7.6-22.8-11.6-34.2,1.8.5,3.6.9,5.4,1.4,16.6,4,34,2.6,51.1,1.3,4.3,13.4-6.7,28.7-12.6,40.2-2.8,5.3.5,13.6,7.5,13,8.7-.8,17.4-2,26.2-2.4,5.4-.3,4.5-1,7.7,3,2.8,3.5,5,7.9,7.4,11.7,5.9,9.4,20.9.7,14.9-8.7-5-7.9-9.9-20.4-19.7-23.1-5.1-1.4-10.8-.1-16,.4-1.9.2-3.8.3-5.6.5,5.9-12,10.5-24.8,7.5-37.3,5.1-4.5,2.3-15.7-5.9-15.3-.6,0-1.2,0-1.8.1,3.8-1.7,7-15.8,8.7-22,.8-.6,1.6-1.4,2.3-2.4,3.3-4.5,5.2-9.4,6.6-14.5,5-.2,10-.8,15-1.6.3,0,.7-.1,1-.2,1.3,2.3,3.7,4,7.1,4.1,4.5,0,9.1.1,13.6.2,0,4-.2,7.9-.2,11.9-.2,10.8-.5,21.7-.8,32.5-.6,21-1.4,42.1-2.3,63.1-.5,11.1,16.8,11.1,17.3,0,1.5-35.7,2.6-71.4,3.4-107.1,0,0,0-.1,0-.2,5.8,0,11.6.2,17.4.2,6,0,8.7-4.9,8.3-9.6,3.8,4.7,9.5,14.2,10.1,15.3,4.6,8.6,8.1,17.7,10.8,27.1,4.9,17,6.6,34.5,6,52.2-13.6,0-27.3.1-40.9.2-7.1,0-10,7.2-7.5,13,1.4,3.3,2.2,6.5,2.8,10,2,10.9,18.7,6.3,16.7-4.6,0-.4-.2-.8-.3-1.2,37.1-.2,74.1-.4,111.2-.5,3.6,0,7.5-2.7,8.3-6.3.3-1.3.5-2.7.7-4,9.8-1.5,6.7-15.4-2.3-16.6-5.2-4.7-14.6-.9-14.4,6.4,0,1.1,0,2.2,0,3.3-19.1,0-38.1.2-57.2.3.9-27.1-3.7-54.2-14.8-79-2.7-6.1-5.9-13.3-10.1-19.7,7-1.3,14.1-2.4,21.2-3.2,5.2-.6,10.4-1,15.6-1.3,1.2,18.8,24.2,30.1,38.1,40.1,4.4,3.2,9.3,6.4,12.4,10.9,3.2,4.6,3,10.4,6.1,15.1,5.2,7.7,14.2,7.9,20.9,2.6,7.1-5.6.3-14.6-7-14.2.4-2.9-5.8-13.4-6.3-14-3.7-4.9-8.5-8.7-13.4-12.4-5.8-4.3-11.8-8.5-17.7-12.8-4.8-3.4-14.3-8.4-15.7-15,5.1.6,10.5,1.3,14.6-.3,3.6-1.4,6.2-3.7,9.2-5.6,1.3,1.1,2.9,1.8,4.9,2.1,22.9,2.5,45.2,7.8,66.9,15.5,5.8,2.1,10.4-3.2,10.9-8.3,1-9.9-9-12.5-16.4-15.3-11.2-4.1-21.9-9.5-33.4-12.4-16.6-4.2-34.4-3-48.1,7.4-4.9-.4-9.7-.7-14.6-.7,3.3-2.6,6.4-5.2,9.6-7.4,14.5-10,30.9-16.6,47.4-22.6,2.7-1,4.4-2.8,5.3-4.8.7-.1,1.3-.3,2-.4,25.8-4.9,51.4-1.1,77.3-3.5,11-1,11.1-18.3,0-17.3-25,2.3-49.9-1.2-74.9,2.9-7.8,1.3-15.6,3-23.4,4.7,4.7-2.3,8.8-5.7,12-9.8,4.8-6.1,7.2-13.2,9.2-20.5,9.7-6.2,17.1-14.9,21.8-25.5.6-1.4,1.1-2.8,1.7-4.2.4,1.5.8,2.9,1.4,4.3,2.2,5.2,5.5,8.2,10.7,10,1.1.4,2.1.5,3.1.4.4.8.9,1.6,1.4,2.3,3.9,5,9,8,15.5,7.4,11-1,11.1-18.3,0-17.3-4,.4-5.5-9.3-6.9-12.1-2.2-4.3-5-7.4-9.1-9.9-1.5-.9-3.1-1.3-4.6-1.2-.1-.2-.3-.4-.4-.5,0,0,0,0-.1,0,0-.8,0-1.5-.2-2.3,8.8-3.2,17.5-4.7,27.4-2.7.9.2,1.8.2,2.7.2.4,3,0,6.2.1,9.2.2,3.8,1.5,7.3,3.2,10.6,1.5,3,3.7,5.8,6.7,7.4,3.2,1.6,7,1.8,10.2,0,.7-.4,1.1-.9,1.4-1.6.7-.1,1.4-.4,1.9-1,.6-.6,1.1-1.6,1.1-2.5,0-.9-.3-1.9-1.1-2.5-.7-.6-1.6-1.1-2.5-1.1-2.6.2-5.3.1-7.9-.2-.4,0-.8-.1-1.3-.2-.4,0-.9-.1-1.3,0-.7-1-1.3-2.2-1.8-3.4-1.1-2.6-1.5-5-1.5-7.8,0-2.9.1-5.7-.3-8.5,1.8.4,3.9,0,5.9-1.4,4.1-2.8,6.7-6.6,7.4-10.9.8-.9,1.5-2,2-3.3,1.8-4.6,2.6-9.4,2.9-14.3.3-4.5-4.2-8.8-8.6-8.6-.4,0-.8,0-1.2.2.6-3.1,1.4-6.1,2-8.9,0-.4.1-.7.2-1.1,2.5,1.1,4.8,2.4,7,4.1,7.5,5.8,17.7-2.4,14.7-9.2,5.3-4.5,5.3-10.7,3.8-17,3.1-.8,6.2-1.5,9.3-1.9-1.3,4.6,1.5,8.8,6,10.7,5.8,2.4,11.7-.3,15.2-5.2.6-.9,1.1-1.8,1.5-2.7,8.1,2.3,16.7-7.8,9-13.9ZM1471.4,482c-3.5.2-6.9.6-10.3,1.1,0-1.3,0-2.7,0-3.9,2-.1,4-.3,5.7-.4,2.7-.1,5.4-.2,8.1-.6-1.4.9-2.6,2.3-3.4,3.9ZM1468,433.2c.5,4.3.8,8.7,1.9,13.4.9,3.8,5.2,9,3.1,12.6-1,1.7-4.9,2.5-8.6,2.7.7-3.2,1.4-7.3,1.5-7.6.4-5.4.1-10.7-.5-16-.1-.9-.3-1.7-.6-2.5,1.2-.8,2.2-1.7,3.3-2.6ZM1448.5,450.7c-.2,4.5-.8,8.9-1.6,13.7-.1.7-.2,1.3-.2,2-.4.1-.9.3-1.3.4-1-5-1.9-10-2.9-15,2-.2,4-.6,6-1.1ZM1219.4,697.6c5.8,2.9,10,6.8,14.3,11.1-5,.9-10,1.8-15,2.8-7.9-2.6-16,.2-21.2,7.3-.8,1.1-1.2,2.2-1.4,3.3-2.1,0-4.2,0-6.2,0-1.2-6.3-4.5-11.1-13.5-10.1-8.2.9-16.2,3.9-24.3,5.5-3.1.6-6.3,1.1-9.4,1.4,3.5-6.8,6.1-13.5,4.4-21,23.8,2.2,47.5,1.6,71.1-.7.4.2.8.4,1.2.6ZM856.4,555.8c-1.4-10.6-2-21.2-2-31.9,22.6-2.4,45.6-2,67.9,1.6,11.6,1.9,22.1,7,33.5,9.4,10.4,2.1,22,0,30.9,6.8.5.4,1,.6,1.5.8,1.3,4.7,2.8,9.3,4.8,13.8-.7,5.5.7,11.9,3.1,18.2-7.4,0-14.9,0-22.3,0-7.5,0-9.9,7.9-7.3,13-9.6.4-19.2,1-28.8,1.6-13.2-1.1-26.3-2.6-39.5-3.8-.2-4.3-.4-8.5-.7-12.8-.6-6.3-2.9-11.5-9.4-13.5-7.1-2.2-16.1-1.8-23.5-2.4-2.7-.2-5.4-.5-8-.7ZM724.2,544.3c0-4.1,0-8.1,0-12.2,5.6-2.5,6.9-12.2.4-15.9.2-4.1.5-8.3.9-12.4,1.6-15.7,6.7-28.9,11.6-43.7.4-1.1.6-2.2.8-3.2,35.2,4.3,70.4,7.9,105.8,10.6-3.1,13.7-5,27.5-5.8,41.3-1.5.2-3,.5-4.6.7-10.8,1.8-6.4,17.9,4.1,16.7,0,9.3.6,18.6,1.6,28-1.7-.2-3.3-.3-5-.5-36.6-3.3-73.2-6.5-109.8-9.5ZM990.5,493.8c.5,9.6-1.8,19-4.5,28.2-7.5-2.3-15.6-2.2-23.7-3.5-13-2-25-8.1-38.3-10.1-22.9-3.4-45.9-3.8-68.7-1.7,1-12.8,3-25.4,5.9-38,4.1-.2,8.3-4.5,7.9-8.6-.5-4.5-.8-8.9-1-13.4,39.9.7,79.7,1.2,119.6,1.4-1.2,2.8-2.2,5.7-2.6,8.9-1.5,12.6,4.8,24.3,5.4,36.7ZM868.1,622.3c-.8-5.5-1.6-10.9-2.4-16.4-.2-1.2-.4-2.5-.5-3.7,0-.5,0-1,.1-1.4,1.9,0,4.2,0,4.8,0,1.4,0,2.8.1,4.2.2-2.6,7-4.7,14.1-6.1,21.4ZM900.7,609.7c12.2-1.3,24.5-2.4,36.8-3.2,4.4.4,8.8.7,13.2.9,12.8.6,25.5.4,38.2-1.2,4.7-.6,9.4-1.4,14-2.3,3.5,0,6.9,0,10.4,0,12.7,18.1,12,42.5,9.7,64.8-45.2-1.2-90.3-3.1-135.4-5.8,9.6-15.9,14.2-34.4,13.1-53ZM1054.6,675.4c-2.7-17.5-5.3-35-8-52.5-1.3-8.6-1.2-21.3-5.6-30.4,11,.9,22.2.1,33.2,0,3.2,0,6.3,0,9.5-.1-2,12.5,6.1,24.1,16.5,32.1,2.3,1.8,4.5,3.6,6.7,5.4,0,.2,0,.4,0,.7.8,8.5,3.5,16.1,9,22.7,5.2,6.2,12.5,10.5,17.6,16.8-1.4.6-2.8,1.3-4.2,2-4.4,2.3-5.1,6.6-3.6,10.2-1.9-1.1-4.1-2-6.6-2.6-12.3-3.1-26.5,1.3-38.8,2.4-7.4.7-14.8,1.2-22.3,1.5-1.8,0-3.8.2-5.8.4,2-2.1,2.8-5.4,2.3-8.5ZM1238.2,533.3c-.3-.3-.6-.5-1-.7.3.2.6.4,1,.7ZM1219.6,650.3c10.6-4,13-10.4,13.7-19.4,1-.4,2.1-1,3-1.9,2-1.9,3.6-3.8,4.8-5.9,5.4-1.3,18,1.6,27.4,4-.9,2.6-.4,5.5,2.6,7.8,7.7,6,6.7,14.8,3.4,22.8-1.2,2-2.3,4-3.2,6-22.5.2-44.9-2.6-67.5-.6-5.7.5-11.4,1.2-17,2.1-3-.5-6-.9-9.1-1.2.2-.9.3-1.8.5-2.8.6,0,1.2-.1,1.9-.3,13-3.4,26.9-5.9,39.6-10.6ZM1108.6,598.5c-.3,3.3-.7,6.7-1,10-5-4.4-8.6-9.6-6.2-15.6.1-.3.3-.6.4-.9,2.5,0,5,0,7.5,0-.2,2.2-.4,4.4-.6,6.6ZM1089.7,515.8c-.4.3-.7.6-1,.9-2.9,3.1-3.8,9.2,0,12.2,2.2,1.8,4.4,3.5,6.6,5.3.5,1.8,1.6,3.4,3.2,4.3-1.9,8.2-5.3,16.1-9.5,23.1-3.2,5.3.1,10.7,4.8,12.4-.1.1-.2.3-.4.4-18.7,0-37.4,0-56.1,0-9.6-1.7-17.2-6.2-23.1-15.4-.5-.7-.9-1.5-1.3-2.2,4.7-4.9.2-13.6-6.5-14.1-1.8-5.2-3-10.6-3.9-16,.9-3,1.7-6,2.4-9,28.3-.3,56.5-.9,84.8-1.8ZM641.6,344.6c1.4.5,2.7.9,4.2,1.2-1.9,18.2,5.2,34.6,17.7,48.9,2.8,3.2,2.8,2,.7,5.7-1.3,2.3-3.1,3.9-4.2,6.4-2,4.6-2.3,9.9-.4,14.6,2,5.1,6.2,8.7,11.1,10.3.8,6.8,3.9,13.2,8.8,18.2-7,3.9-5.8,16.8,3.8,16.2,9.8-.6,19.5-1.2,29.3-1.8,2.2-.1,3.9-.9,5.2-2.1-.7,1.5-1.2,2.7-1.3,2.9-1.6,4.3-2.9,8.6-4,13-1.8,7.4-3,14.9-3.9,22.4-.4,3.5-.7,6.9-.9,10.4-31.3-8-64-8.3-96.1-12.1,8.1-15.5,7.2-32.8,10.4-50.4,3.2-17.4,27-40.5,8.8-57.1-.4-.4-.9-.8-1.4-1.1,3.8-15.3,7.9-30.5,12.1-45.6ZM583,640.1c-5.8-7.1-12.6-13.4-18.1-20.8-5.9-7.9-10.3-16.8-14.5-25.6-3.9-8.1-8.2-16-12.2-24-5.1-10.3-2.4-17.3.9-27.6,4.1-12.7,6.9-25.8,8.6-39.1,15.8,4.5,31.8,8.3,48.1,10.8,16.8,2.6,33.9,3.8,50.9,5.3-12.6,46.1-24.9,92.6-27.1,140.5-4.9-.8-9.6-.1-12.6,5-1.1,1.9-1.9,4.3-2.4,6.9-6.3-11-13.3-21.6-21.4-31.5ZM638.3,639.6c4.2-39.8,14.7-78.6,25.3-117.2.1-.5.2-1,.3-1.5,14.5,1.6,28.9,3.9,43,7.8-.1,7.9,0,15.7,0,23.6,0,5,3.9,8.3,8.6,8.6,6.6.5,13.2,1.1,19.8,1.7-3.5,29-7.4,57.9-9.2,87-29.3-3-58.6-6.3-87.9-10ZM752.6,563.9c20.8,1.8,41.6,3.5,62.3,5.4,8.9.8,17.8,1.6,26.7,2.4,2.2,6.4,10.4,5.9,14.3,1.3,2.8.3,5.7.5,8.5.8,3.6.3,7.8,1.4,11.4,1.1,2.8,1.5,4.2,1.2,4-1,.3-2.6.4-1.8.4,2.3.2,2.5.4,5.1.5,7.6-3.6-.2-7.2-.4-10.8-.5-6.2-.2-13.4-.9-18.4,3.6-4.5,4.1-4.4,10.5-3.7,16,1.1,8.8,2.6,17.5,3.8,26.2,1.5,10.2,2.3,21.1,4.6,31.4-37.6-2.6-75.2-5.7-112.8-9.4,1.8-29.2,5.5-58.2,9-87.3ZM938.7,707c10.2.5,11.1-14,2.3-17-16.7-5.7-34-7.7-51.3-8-.2-.7-.4-1.4-.7-2,44,2.6,88,4.5,132.1,5.7-.3,5.5.6,9.6,3.5,12.1,1.5,14.5,2.9,29.1,3.6,43.7.2,5.1.4,10.3.6,15.4-7.7-.5-15.4-.9-23.1-1.1-.9-.8-2-1.5-3.3-1.8-5.7-1.4-11.5-2.7-17.2-3.9-.8-.8-1.9-1.5-3.1-1.9-13.5-4.9-27.1-9.8-41.2-12.1-4.7-.8-9.7-1.6-14.4-1.2-.6-4.9-.3-10.2,0-13.4.3-5.1,1.1-10.2,2.2-15.3,3.4.3,6.7.5,10.1.7ZM1059,774.6c-2.1-.6-4.1-1.2-6.2-1.7,4-4.7,1.8-13.8-6.4-14.6,0,0,0,0,0,0-.3-5.5-.5-11.1-.7-16.7-.7-13.5-1.9-26.9-3.3-40.4,12.7,0,25.4-.8,38-1.9,6.9-.6,13.9-1.5,20.8-2.4,5.1-.7,12.3-2.6,16.2,1.3,4.9,4.9,2.1,17.2.9,23.2,0,.2,0,.4-.1.6-1.5,2-2.1,4.7-1.5,7.4-.6,2.6-1.1,5.1-1.6,7.7-2.7,6.5-5.1,13.1-7.3,19.9-2,6.1-4.6,13.1-4.5,19.7-14.9,1.1-29.9,1.9-44.2-2ZM1272.1,690.5c-4.7,3.7-14.8,13.6-21.5,10.7-2.2-1-4.5-4.8-6.4-6.9.7,0,1.4.2,2,.3,2.8.3,4.9-.6,6.3-2.1,7.4-1.2,14.8-2.6,22.2-4-.9.7-1.8,1.4-2.6,2ZM1292.3,662.2c1.2-1.4,2.4-2.7,3.8-3.7,5.7-4.3,10.6-.5,16.9-.2.2,0,.5,0,.7,0-7.1,1.5-14.3,2.9-21.5,3.9ZM1309.7,640.1c-5.7-1.1-10.6-2.1-15.9-.2-.6-3.7-1.9-7.3-4.1-10.6,6.6-2.3,9.9-8.9,13.7-17.2,2.5-5.5,5-11,7.5-16.6,5,2.8,11.8,3.5,16.8,3.4,3.1-.1,6.2-.7,9.4-.9.1,0,.4,0,.7,0-2,4.7-3.2,9.6-4.3,14.6-1.2,1.7-2.1,3-2.3,3.4-1.6,2.6-1.6,5.2-.6,7.4-1,3.1-2.3,6.2-4,9-4.2,7-9.1,9.1-16.7,7.6ZM1416.1,556.1c-.6.4-1.1.8-1.5,1.3-.2,0-.5-.1-.7-.2-17.5-3.7-32,.2-48,7.4-2.4,1.1-3.7,2.7-4.2,4.6-9.8.3-20.1,2.5-29.2,3.4-3.2.3-8,.3-12.6.8,4.1-11.8,8.2-24.5,5.4-36.9,1.3.3,2.7.3,4.2,0,19.1-4.5,38.1-9.6,57.4-13.2,8-1.5,17-2.9,25.8-2.7-1.4,6.7-3.2,13.8-3.3,20.7,0,3.3,3.6,17,6.7,14.8Z"/>
  </g>
  <g class="st48">
    <path class="st47" d="M719.6,709.1c2.3-.6,4.4-1.3,6.6-2l-14.2,107.4-40.3-6.1-75.6-45.5,2.6-4.6c7.1-5.7,8.1-8,7.2-9.8-.3-.8-1.2-1.7-3.5-1.7h-1.1v-7.1c5.4-3.8,4.9-10.9,4.8-12.8,1.7-4.9,7.1-6.9,7.2-6.9l.3-.2c2.6-1.8,3.8-4,3.7-6.1-.2-3.4-3.8-5.4-3.8-5.4-.8-.6-2.5-6.6-3.4-14,.9-2,2.5-7.8,6-24.9,2.9,2.5,6.6,4.9,9.2,4.9s1.4-.2,1.8-.5c2-1.4,1.8-4.6-.5-10.4l3.7-17.1.6.2h.3l2.6.5c7.1,1.3,30.2,5.5,52.4,9.4-7.2,4.3-11.6,12-10.4,21,1.5,10.6,12.8,11.2,14.1,21.3,1.1,8.5,2.8,9.4,11.3,10.4,6.9.8,11.9,1.5,18.2,0M709.3,679.3c-.5-2.1-.4-4-.3-6.1,0-1.1.1-1.9-.9-2.3-2.1-1-4.8-.7-6.9.2-3.9,1.7-7.6,4.1-11.7,6.2-1,.8-1.6,2.2-.9,3.4.7,1.2,2.2,1.5,3.3,2.1,2.7,1.3,2.5,4.6,2.7,7.2.4,5.1,5.8,6.6,10.2,7,4.7.4,12.2-.4,11.9-6.7-.1-2.2-2.6-5.2-4.1-6.7-1.5-1.4-2.8-2.2-3.3-4.3"/>
    <path class="st22" d="M1390.9,949.3c-2.2-2.8-.8-18.9-.8-18.9,1.4-8.3-18.1-35.8-18.1-35.8-6-11.4-2-13.4-2-13.4-2.3-3.4-7.7-8.3-7.7-8.3-7.4-4-18.4-32.7-18.4-32.7-2.6-6.8-3.8-12.3-4.3-16.6l-12.1.2c-.8-.2-1.2-.2-1.7-.2-.8,0-1.1.2-1.2.2.2.6.9,2,2.2,3.2l.6.6-.9,8.8h-7.4v-4.8l-58.7,2.9-4.9-5.4h-.6c-1,2.5-1.5,4.8-1.9,7.5-.3,1.5-.4,3.8-.9,5.3-.4,1.3-1.5,2.1-2,3.3-1,2.4-2.1,7.4-5,8.9,1.2.6,2,1,2,1,14,5.4,9.7,10.8,9.7,10.8,13.1-.6,17.7-9.1,17.7-9.1,2.3-7.1,10-6.3,10-6.3,0,1.7,7.1,2.6,7.1,2.6,4,5.4,8,6,8,6,1.4,4.6,4.6,5.7,4.6,5.7,2.3.3,2.3,5.7,2.3,5.7,1.4-2.3,8.3.6,8.3.6,1.7,5.1,3.7,4.6,3.7,4.6,4.6,4,.3,17.7.3,17.7-1.7,9.7,5.1,15.7,5.1,15.7,2.3-3.4-1.4-6-1.4-7.7s8.8,2.3,8.8,2.3c2,1.7-7.4,10-7.4,10v1.4c0,1.4,13.1,15.4,13.1,15.4,8-13.7,5.1,6.3,5.1,6.3,7.1,2.6,6.3,8.8,6.3,8.8,6.3,10,7.7,5.4,7.7,5.4,5.4-2,11.7,10.8,11.7,10.8-.6,8.8,4,8.3,4,8.3.6-4,5.7-2,5.7-2,6.3-1.4,10.4-7.4,10.4-7.4-2-8,3.4-11.4,3.4-11.4"/>
    <path class="st33" d="M1249.9,845.4c.5-1.2,1.6-2.1,2-3.3.5-1.5.7-3.8.9-5.3.5-2.8.9-5,1.9-7.5l-55.7,5v2l4.8,3.4.5,14.6c1.7-.3,2.9-.6,2.9-.6,11.4-4.6,25.8-3.4,25.8-3.4,3.1,0,8.9,2.6,11.9,4.1,2.9-1.5,4-6.5,5-8.9"/>
    <path class="st33" d="M1056.3,827l-1.4-1.4,1.2-.9c0-.6-.6-2.5-1.5-4.6-6-2.2-5.5-11.2-5.2-13.4-.9-4.3-.2-28.7,0-33.6,0-.5-.2-.6-.5-.9-.5-.3-1.4-.6-3.2-.6s-4.1.5-5.4.6c-.3.3-.8.6-1.4.8-.3.2-.8.2-1.1.2-3.7,0-7.8-5.5-9.1-7.2-2.2-2.2-3.2-2.8-3.7-2.9,0,.3-.2.9,0,1.7l.3,1.8h-7.2l-.5-.5c-1.2-1.2-1.8-1.4-2.2-1.4-.5.2-.8.6-.9.8l-.3.9-8.5,1.2c-1.5,1.4-3.5,2.2-5.5,2.2-2.9,0-5.5-1.4-6.6-2l-6.3-.2c-.5,1.4-1.4,2.5-2.5,2.9-.5.2-.9.3-1.5.3-3.7,0-8.5-4.5-10-6l-1.7-.5c-.8,1.8-2.6,2.6-4.3,2.6-2.6,0-4.5-.8-5.2-2.2-.3-.6-.5-1.4-.3-2-1.1-.3-1.8-.9-2.5-1.7-.3-.5-.6-.9-.6-1.5l-2.2.2c-.3.9-.8,1.7-1.7,1.8h-.3c-1.1,0-2-.9-2.8-2.6v-.5c-.8-.6-6-2.1-13.8-2.5h-1.5v-1.5c0-2.2-.2-3.5-.3-4.5-.3.9-.8,1.5-1.5,1.8-.5.2-.8.3-1.2.3-1.1,0-2-.6-2.2-.8l-.3-.3c-.6.6-1.2.8-1.7.8h-.5c-3.7,0-8.3-5.8-9.7-7.7l-.8-1.1.8-.8c.6-2.5,1.5-26.6,2.2-49.2l-60.4-1.8-8.5,117.7h-1.5c-6.1-.2-25.3-.7-42.7-1.7,0,2.2-.1,4.1-.9,6.5-.7,2.3-2.3,4.5-3.2,7-1.5,4.4-2.1,11.4-2.3,17.2,9,7.8,10.7,15.5,10.7,15.5-3.1,20.7,9.1,23,9.1,23,10.4,4,15.7,11.4,15.7,11.4,7.1,8,11.4-1.4,11.4-1.4,6.8-12,8.8-13.7,8.8-13.7,2.6,0,7.7-5.1,7.7-5.1,9.1,5.7,22.1,2.6,22.1,2.6l-.6,1.4c-.6,1.4,17.1,18.4,17.1,18.4-2,4,4.3,14.4,4.3,14.4,2,12,5.4,9.1,5.4,9.1-.6,3.1,10.4,16.1,10.4,16.1,8,1.7,4.6,9.4,4.6,9.4,3.4,2,.6,8.8.6,8.8,7.1,1.1,6,7.7,6,7.7.3,10.8,16.4,12,16.4,12,5.4,6,9.7,4.6,9.7,4.6,11.4-.6,11.1,4.6,11.1,4.6,5.7,4.6,8.8-2,8.8-2-15.1-33.8,9.4-53.9,9.4-53.9,2,.3,14-9.7,14-9.7,2.3-3.1,22.1-10.8,22.1-10.8,4.6-7.1,14-12,14-12l-1.1-3.1c6.1-3.4,11.8-5.7,16.7-7.4l.5-10.4.2-.3c3.4-5.5.6-8.9-.3-9.8-1.1-.3-1.7-.9-1.8-1.8-.3-1.7,1.4-2.9,3.2-3.8,2.6-1.4,3.5-8.6,3.5-11.8v-.3c1.5-6.5-5.2-12.8-5.2-12.8"/>
    <path class="st47" d="M807.5,813.9c.7-2.4.9-4.3.9-6.5-15.2-.9-29.1-2.1-31.8-3.9-.8-.3-2.6-.9-4-.9s-1.1.2-1.2.3c0,0-.9,1.1,1.7,6.1l1.7.2c7.4,2.3,7.7,10,7.7,10,9.1,3.4,15.1,15.4,15.1,15.4,1.7,1.2,3.3,2.3,4.6,3.5.2-5.8.8-12.8,2.3-17.2.8-2.5,2.4-4.7,3.2-7"/>
    <path class="st47" d="M581.1,487.1c1.1,2.3,4,2.6,6.5,2.8,5.4.6,8.6,1,13.2,2.8l12-44.6c-3.7-1.2-5.4-2.5-5.4-4.1s.5-1.5,1.2-2.2c0-.2,0-.5-.1-.7-3.8,2.3-13.5,1.6-17.6,2.2-3.4,14.5-6.5,29.3-9.9,43.8"/>
    <path class="st36" d="M616.4,430l.3-.2h.5c.8,0,.9-.3,1.1-.5.6-.8.6-2.5.5-3.2l-.2-.8.6-.6c.9-.9,5.2-6.6,8-10.3l.3-.3c2.3-1.7,1.4-4.1.9-5.2-2.6-1.5-4-4.8-4.8-7.5l-25-4.9-.3-.8c-.3-.8-4-1.8-10.8-1.8h-3.2l-.5-.3c-.2-.2-1.2-.8-8.6-.8s-4.1,0-6.1.2c-2,.6-3.8.9-5.5.9-2.5,0-3.8-.8-4.5-1.1-.9-.3-2.2-.6-3.5-.6-2.8,0-5.5.8-5.7.8l-.9.3-.6-.8c-2-2.3-7.7-3.8-9.7-4.3l-.5-.2c-1.4-.9-2.2-1.1-2.8-1.1s-.3,0-.5.2c-.6.3-.9,1.1-.9,1.1l-.3,1.2h-3.2c-11.4,0-14.6-7.1-14.7-7.4l-.3-.8.3-.6c1.8-3.4,2.3-6.1,1.5-8.5-.8-2.2-2.5-3.2-2.9-3.5-2.6-.5-4.5-1.5-5.4-3.1-.3-.6-.6-1.2-.6-1.7-.6-.2-1.4-.2-2.3-.2s-1.8.2-2.6.2l-1.8,10.1c1.1,23.8-33.5,72.2-33.5,72.2l-2.3,16.7.5,4.3c11.8,5.4,83.7,22.4,132.3,33.2l2.1-7.8c-4.6-1.8-7.7-2.2-13.2-2.8-2.5-.3-5.4-.6-6.5-2.8,3.4-14.5,6.5-29.3,9.9-43.8,4-.6,13.7,0,17.6-2.2-.7-5.7,7.5-10.8,7.9-11.1"/>
    <path class="st22" d="M1191.2,637.8c-3.7-1.3-7.1-3-11.1-3.7,0-.5,0-1,.1-1.5-1.1,4-2.6,8.5-4.9,9.6l-.6,5.5,9.5-1.8,4.3,2.6,2,.8c1.2-2.3,3.2-5.5,6-5.5s3.5,1.5,4.8,4.5h.2c.3,0,.5,0,.6-.2.4-.3.7-1.4.3-3.5l-2.4-3.1c-2.8-1.3-5.8-2.6-8.8-3.6"/>
    <path class="st22" d="M1202.1,642.7l7.1-6.1v4.9l4.1.3v-4l9.2-9.2,1.1-7.7h1.4c2.3,0,7.5-.8,8.8-2.8.2-.3.5-1.1-.2-2.3l-.2-.5-1.1-10.9-2-14.4-.9-15.8-2-13.1-2.6-9.7.6-6.9-7.5-.9-6.8,1.1h-8.1c-1.8.3-3.5.6-5.1.7l-5.3,26.4-15,5,.8,4.1v16l2,15.8-.2.3s-1.4,4.6,1.1,6.9l.3.3.2.5c.3,1.4,1.8,8.8-1.4,11.2,0,.2-.1.4-.2.7,0,.5,0,1-.1,1.5,3.9.7,7.3,2.4,11.1,3.7,3,1,6,2.3,8.8,3.6l2.4,3.1c0-.3-.1-.6-.2-.9l-.2-.9Z"/>
    <path class="st33" d="M1197.9,545.4c-2.3.2-4.3.4-5.8.4h-.6c-7.8,10.6-12.8,7.8-15.4,3.7l-.6,16.9,2.1,10.5,15-5,5.3-26.4Z"/>
    <path class="st22" d="M1253.4,675.4l.8-.2c7.1-.9,12-1.5,15.7-2l10-7.4v-6.1l13.2-13.1c-3.8-2.3-7.8-7.7-8.3-8.5l-.3-.5v-3.1l-4.6-2.3v-7.7c-2.2-.6-3.8-1.5-4.1-1.7l-.9-.5.2-1.1c.5-4-.5-4.6-.5-4.6-.5,0-1.1.3-1.5.6-2.3,3.7-4,5.2-5.5,5.2s-.5,0-.8-.2c-.5-.2-1.4-.6-1.7-2.2l-2.6.2c-1.7,1.8-3.2,2.8-4.6,2.8s-.8,0-1.1-.2c-1.2-.5-2-1.7-2.3-3.5h-8.1l-.2-1.4c-.2-2-.9-3.4-2.3-4.3-1.1-.8-2.8-1.2-4.6-1.2s-2.3.2-3.1.3l.2,1.8c.8,1.8.8,3.7-.2,5.1-1.5,3.1-6.9,4-9.7,4.1l-.9,6.1-8.9,9.1v6.1l-10.6-.8v-.9l-.3.3c.3,1.7.2,3.2-.1,4.4l23.5,29.6c3.5-.5,16.4-2.6,22.7-2.6h1.7Z"/>
    <path class="st33" d="M1204.3,650.7c-.8.6-1.7.9-2.8.9s-1.7-.3-1.8-.3l-.8-.3-.3-.8c-.9-2.6-1.8-3.2-2.2-3.2-.9,0-2.8,2.8-3.7,5.1l-.6,1.5-5.2-2-3.4-2.2-9.2,1.7-.3,2.8-.6.5c-.2.2-2.8,2-1.7,3.7.2.3.5.6.8.9.6.5,2.5,2,1.7,3.8-.5,1.2-2,1.8-4.5,1.8s-1.2,0-1.5-.2c-1.1.2-2.3.5-2.8,1.2-.6.9,0,2.5.6,3.5l.2.5-.5,7.5-2.5-1.7c-1.2-.9-4.9-3.1-7.8-3.1s-1.1.2-1.5.2c-.9.3-1.7,1.1-2.2,2.2.2.2.3.3.5.5.9,1.1,1.2,2.8.9,5.1l-.9,7.1h-3.5v.2c10.3-.2,21-.5,24.1-1.1v-5.7h1.5c.3,0,29.2-1.1,34.6-2.6h19.4c.1,0,.4,0,.8-.1l-23.5-29.6c-.3.9-.7,1.7-1.3,2.2"/>
    <path class="st22" d="M1305.8,669.6c-.2,0-1.4.9-2.3,2l-.5.5-23.7,2.8c-.5,0-3.1.5-7.8.9l-.3.3-.2-.2c-4,.5-9.4,1.2-16.1,2l-.9.2h-.2c-.5,0-1.1-.2-1.7-.2-5.4,0-17,1.8-21.3,2.5l8.5,10.7s-4.7,23.1-4.4,28.9l22.4-2.4.5-5.7.8-.5c4.1-2,4.9-3.5,4.9-3.8v-.3l-.2-.2c-1.1-.9-.8-1.4,6.6-6.3l.6-.3h.2c5.1-.9,6.5-4.1,6.5-4.3l.3-.8,6.3-2v-4.6l8.1-6.6.3,2.9c.2,1.1.3,1.5.5,1.7.9-3.1,2.5-4.9,4.5-5.5.5-.2.9-.2,1.4-.2.8,0,1.5.2,2.3.5,1.5-4.3,3.2-6.8,5.4-7.7.2,0,.3-.2.5-.2,0-3.7-.8-4.1-.8-4.1"/>
    <path class="st33" d="M1239.3,691l-8.5-10.6c-1,.2-1.7.3-1.7.3h-19.1c-5.5,1.5-27.3,2.5-33.5,2.6v4.3l-.5.5c-.5.5-2,2-29.7,2.2.3,7.2-3.8,12.8-4.9,14.1l-1.4,4.9-.3,7.7-4.5,1.8c.8,2,1.7,5.4,1.4,8.3h37.6l6.9-2,28.3-2.3,22.1-2.5,3.1-.3c-.2-5.8,4.4-28.9,4.4-28.9"/>
    <path class="st47" d="M712.6,523.1l10.9-61.6-.2-.5c-1.5-6.1-3.2-6.9-3.8-7.1h-.2c-1.5,0-3.8,2.6-4.9,4.5l-1.1,1.7-1.5-1.4c-2.5-2.3-6.3-2.3-7.1-2.3h-.2c-1.2.3-2.6.3-4,.3-2.8,0-5.1-.5-6.3-.6-1.8,2.2-3.2,3.1-4.5,3.1s-.6,0-.9-.2c-1.2-.5-1.7-1.8-1.4-3.7.3-7.5-1.2-8.8-1.4-8.9l-.3.2-.3.2-.6-.3c-5.4-2.5-8-15.5-8.6-18.1v-.6c1.4-6,.5-6.9.5-6.9-1.1,0-3.8,2.2-6.1,4.6l-.8.8-1.1-.5c-1.5-.6-2.8-1.8-3.4-3.5,0,0,0-.1,0-.2-.4.2-1,.4-1.6.5-3.1.6-6.5-.9-9.6-.7-6.9.4-13.8.9-20.7,1.3-4.7.3-9-.6-11.6,3.5,0,1.3-.2,3.1-1.1,4.5-.8.9-1.7,1.5-3.1,1.7-1.1.8-7.7,5.4-5.7,8.8l.9,1.7-1.8.6c.6.3,1.8.9,4,1.5l1.5.5-14.9,55.3c12.4,2.9,93.9,21.5,110.9,22"/>
    <path class="st22" d="M1362.8,582.8h0l-7.4-.9-3.1,5.1h-4l-4.6,6.6-5.4.5-.8-12.3-19.8,2.6-3.4-14.7-.3,1.1-.2,14.9-.2.3c-4.5,7.4-8.1,11.4-8.3,11.5l-1.2,1.2-1.2-1.2c-.6-.6-1.1-1.1-1.4-1.2v.8l-.6.6c-4,3.7-2.9,5.4-2.9,5.4l.3.5v.2c1.2,3.5,1.2,5.7-.2,6.8-.5.5-1.2.8-2,.8s-1.5-.3-1.8-.5h-.2l-.5-.3c-1.4-1.7-2-1.7-2-1.7-.5.5-1.1,4.8-.5,10.1l.2,1.4-2.9.8c-.3,1.8-1.1,3.2-2.5,4-.8.5-1.8.6-2.9.6h-.2v5.2l4.6,2.3v4c2.3,2.9,6.3,7.4,8.5,7.8l.8.2.3.6s3.1,5.7,8.3,6.6c1.5-1.4,4.6-4.1,7.2-4.1s.8,0,1.1.2c.6.2,1.7.8,2.3,2.5.2,0,.5.2.6.2s.5,0,.6-.2c.8-.3,2.2-1.5,3.1-6.1l.3-1.4,1.4.2h.6c1.5,0,5.5-.3,7.4-2.6l.3-.3.5-.2s1.4-.6.2-3.8c-.6-1.8-1.4-3.8.2-4.8.3-.2.5-.2.8-.2h.2l2.3-8.1,3.7-6.9c-.2-5.1.6-7.8,2.6-8.5.2,0,.5-.2.6-.2,1.5,0,2.9,1.4,4.8,4.8h2.3l1.5-11.2h4.1v-2.5l3.2-2.2c.5-2.9,1.4-6.3,3.2-7.1.2,0,.3-.2.5-.2l1.4-6.5.5-.3Z"/>
    <path class="st22" d="M1363.7,580.3c-.9.3-2.8,1.2-3.1,2.2-.2.2-.2.3,0,.6l.5,1.1.8.2.9.3.6.2,9.7,2.9.3-2.2-.5-2.8c-3.5-1.2-7.7-2.6-9.2-2.5"/>
    <path class="st33" d="M1069.7,473.8c2.5.9,8.6,3.4,10.8,7.2,1.5.6,5.5,2.5,6.6,6.1l11.7,8,1.5,10.8c2.9,3.5,3.8,6.1,3.1,8.1-.5,1.1-1.2,1.5-1.8,1.8l-1.1,5.2,4.1,4c3.5.6,5.8,1.8,6.9,3.7v.2l14.3-.5,12.8-.6,13.5-.8,16.3-.6v-1.7c-5.4-7.5,0-23.8,0-23.8-4.8-7.5,9.5-43.5,9.5-43.5-13.5,22.6-16.9,20.4-16.9,20.4-2.2-1.2.6-8.5,4.1-16l-6.3-5.4-1.4-12.8c-4-.5-6.3-1.5-7.2-3.4-.3-.5-.3-1.1-.5-1.5l-13.1-1.8-4.3-2.3-4.1-.8-11.2-2.6c-3.5-.2-5.7-2.8-6.5-4.5-4.3.5-8.1,0-8.1,0,5.4-8.8,2-8.3,2-8.3-10,5.7-16.4,7.7-20.6,8.1l-6.9,14.3-1.1-.2h-.2c-.8,0-3.4.2-5.5,2.2-2,1.8-3.4,4.6-3.7,8.5,1.4.3,3.1,1.2,4.1,2.9,1.1,1.8.9,4.1-.5,6.8-.5,3.4-1.4,9.5-.5,12.6"/>
    <path class="st47" d="M846.1,566.8c.9-11.1,7.4-90.6,8.5-102.8l-126.4-15.4-1.7,13.4h.3l-15.7,88.6c58.5,7.7,125.2,16,135.1,16.1"/>
    <path class="st33" d="M1150.3,679.7c.3-1.4.2-2.2-.2-2.5-.9.3-1.7.5-2.5.5s-2-.3-2.9-.9c-3.4-2.3-3.4-8-3.4-8.6v-.8l.6-.5c1.1-.9-.3-5.4-3.1-10l-6.3-.8-11.4-11.7.5-1.1c3.5-6.9,3.5-12.8,3.2-15.2h-11.2l.5-2c1.1-5.1,0-6.6-.3-7.1-.3-.3-.6-.3-.6-.3h-.6l-.5-.5-10.1-9.8c-4.8-2.5-5.4-9.1-5.4-9.8v-.3c.3-4,.3-7.5,0-9.8-1.5-1.2-3.2-2.9-4.5-4.6l-78.4,2.6c.6,2,1.2,3.4,1.5,4l1.1-.2.2,1.5,2.5,8.5c.2.3,1.5,2.8,4.9,2.8s1.2,0,1.8-.2c.2,0,1.1-.3,2-.3s2.2.5,2.8,1.1c1.4,1.5,1.1,4.1-1.1,8.1-.2.8-.6,3.7.9,6,.9,1.4,2.6,2.3,4.8,2.8l1.2.2,2,59.9h.2l-.2.8v1.5h-.2l-1.1,9.2,93.6-2.5.3.2c.2,0,2.8,1.2,3.1,3.8.3,1.8-.6,3.7-2.5,5.7l-1.5,3.1,8.9-.5c1.2-1.5,4.8-6.9,3.8-13.2l-.3-1.8h3.2l-.2-3.4h4.1l.5-4Z"/>
    <path class="st33" d="M1103.5,606.1l.3.2,10,9.7c.6.2,1.5.5,2.5,1.4,1.4,1.5,1.8,4.1,1.4,7.8h10l.3,1.2c0,.3,1.8,7.8-2.8,17.7l9.1,9.2,6.6.8.5.6c1.1,1.7,6.3,10.3,3.4,14.1.2,2,.8,4.6,2,5.4.3.2.6.3,1.1.3s.6,0,1.1-.2c.9-2.5,2.3-4.1,4.5-4.8.8-.3,1.7-.5,2.5-.5,2.8,0,5.5,1.2,7.4,2.3v-1.1c-1.1-2.5-1.2-4.6-.3-6.1,1.5-2.6,5.4-2.8,5.5-2.9h2c-.6-.5-1.1-1.1-1.4-1.5-1.7-2.8,0-5.7,2-7.5l1.4-13.1,1.5.3c.6-.6,2.3-4,3.5-8.8l.2-.8.8-.3c1.1-.5,1.1-4.3.5-7.5-2.9-3.4-2-8.1-1.7-9.5l-2-15.4v-15.8l-2.9-14.6.9-23.5c-3.5,1.2-4.3-7.7-4.5-13.5l-16.1.6-13.5.8-12.8.6-12.1.5c2.2,1.7,3.2,4.3,3.5,5.5,3.1,1.4,4.9,3.1,5.7,5.2.6,2,0,3.7-.3,4.3-1.2,5.8-3.5,9.8-6.8,11.8-1.8,1.1-3.4,1.4-4.6,1.4h-1.1c-2.9.6-4.6,1.5-5.1,2.8-.3.9.3,2,.3,2,2.5,2.8,3.5,5.5,3.2,8.1-.3,2.5-2,4-2.9,4.8v6.6h-4c.3,2.3.3,4.9-1.5,5.7-.3.2-.6.2-.9.2.3,3.7-.2,8-.2,8.8.3.8,1.1,5.4,4,6.8"/>
    <path class="st22" d="M1419.1,598.7v-1.7c0-2-3.5-14.4-6.6-25h-.2v-.5c-.5-1.5-.9-3.1-1.4-4.5l-8,1.4-17.7,4-16.9,2.9h-.5c0-.1-27,5.8-27,5.8l.6,9.2h.6l4.6-6.8h3.8l1.7-2.6c7.3-1.4,16.8-2.4,21.7-2.8,1.9,1,3.3,2,3.7,2.2l.8.5v.3c.8.2,1.5.3,2.5.9,1.7,1.1,2.9,3.1,3.5,5.8,2.2,0,5.8.5,8.1,3.1,1.8,2,2.5,4.8,1.7,8.1l-.2.6-.5.3c-.8.6-2.6,2.3-2.5,3.8.2,1.1,1.5,2.3,3.8,3.2l15.2,1.8c0-2,.2-3.4.2-3.4-4.1-.8-4.3-8.8-4.3-8.8,2.3,1.7.3-10.8.3-10.8-1.7-6,3.4-7.4,3.4-7.4,7.4-7.4.6,6.8.6,6.8,3.1.6,3.1,8,3.1,8l-2.6.3,1.1,2c6.8,2.6,0,4.6,0,4.6,1.7,7.7,5.7,6.8,5.7,6.8,10-1.1,8.3,5.7,8.3,5.7,5.7,1.1,2,6.3,2,6.3-3.4,0-1.7,16.7-1.7,16.7,5.7,4.3,4.6-11.7,4.6-11.7-.6-9.7,6.8-13.7,6.8-13.7l.3-12.3-18.7.5Z"/>
    <path class="st22" d="M1431.5,431.3h1.1l.2,1.4c.2.6.9,6,0,9.4.9,3.7,2.3,6.3,2.9,6.6l1.8.6-.8,1.7c-.3.6-.8,2.2-.3,3.2.5.8,1.4,1.2,2.8,1.5l1.1.2,4.8,17.5,8.6-1.8v-4.8l1.5-5.1-1.7-2.6,1.8-16.1v-14l.6-.5c2-1.7,5.8-5.8,5.7-8.8,0-.9-.3-1.5-1.1-2.2l-.5-.3-.3-1.7-29.8,6h-.5c.6,5.4,1.5,8.9,2,9.7"/>
    <path class="st36" d="M599.4,503.9h0c-5.7-1.2-28.6-6.3-54.2-12.4l-19.2,76.5,82,122.4c.9-3.2,2.5-10,5.5-24.4l.6-2.8,2.1,1.8c4,3.7,7.8,6,9.1,6,0,0,.6-1.2-1.7-7.1l-.2-.5,31.5-147.3c-27.2-5.7-53.6-11.7-55.6-12.3"/>
    <path class="st33" d="M1136.7,709.2l.9-3.4-13.1.8,4.6-8.6.2-.2c1.2-1.1,1.8-2.2,1.7-2.9-.2-.6-.6-1.1-1.1-1.4l-92.3,2.5,4.5,22.4v46.7c0,1.4-.2,2.6-.3,3.7,1.1-.2,2.5-.3,3.7-.3,2.3,0,4.1.5,5.4,1.4,1.1.8,1.7,2,1.7,3.5-.2,4-.3,8-.3,11.8,3.8-.2,17.2-.8,30.7-1.1,6-.2,11.1-.2,15.4-.2,7.5,0,12.3.2,14.9.6v-5.5c-.5-1.5-2.9-11.2-1.7-18.4l.2-1.1.9-.3c2.5-.6,4.5-1.7,5.1-2.2-.2,0-.2-.2-.5-.3l-.9-.5v-1.1c0-.6.5-6.5,3.8-8.3.6-.3,1.4-.6,2.2-.6s.9,0,1.4.2c.5-1.1.8-2.8-.5-4l-.5-.5v-.6c0-1.5.2-6.3,2.8-7.4.3-.2.8-.2,1.1-.2.8,0,1.4.3,2.2.8l-.9-6.9h4.6c.6-2.6-.9-6.9-1.7-8.6l-.8-1.5,5.7-2.3,1.1-6.1Z"/>
    <path class="st22" d="M1388.2,733.8c0-.2.2-.2.2-.3-5.1-4.8-21-15.4-31.2-21.7-.2,0-.8-.2-1.7-.2-5.1,0-16.3,2-20.1,2.9l-1.4.3-.5-1.4c-1.1-3.4-4-5.1-8.5-5.1s-4.5.5-4.6.6h-.3l-18.7.2-.3-.2c-2,0-9.2,3.7-16.3,8.1-.5.5-3.7,3.4-3.1,5.8.6,2,4,3.7,9.8,4.6l.8.2,4.6,8.3c.2.2,4.8,6.9,9.2,7.1h1.1l.5.9s2.5,5.5,8,7.2l.9.3.3.9c0,.3,1.8,6.3,9.1,8.6l.5.2.3.3c.2.2,4.6,5.4,5.5,10.9v.5l3.7,1.2h.2c.3.2,5.5,3.7,4.8,11.5h11.4c5.8-6.1,2.6-9.4,2.6-9.4h3.7c-.6-2.6,6-5.4,6-5.4,0-3.1,5.7-5.7,5.7-5.7.6-7.4,6.8-6,6.8-6-.6-7.1,1.7-7.1,1.7-7.1-2.2-8.1,9.5-18.4,9.5-18.4"/>
    <path class="st22" d="M1463.1,415l.2.6c1.2,1.1,1.8,2.6,1.8,4.1,0,4.5-4.5,9.1-6.3,10.8v12.8l-1.7,15.1,1.8,2.9-1.8,6.1v3.5l22.1-3.1v-2c2.3-5.7,9.2-6.6,13.5-6.6.3-.6.6-1.5.9-2.5h-9.4v-3.5c-.6,0-1.4-.2-2-.6-3.5-2-4.3-9.2-4.5-11.5l-5.5-19.1-5.5-18c-4.1.9-2.8,10.6-2.8,10.6l-.9.3Z"/>
    <path class="st47" d="M768.5,800.8c.8-.9,2-1.4,3.7-1.4s4.9,1.1,5.4,1.2l.3.3c2.3,2,38.6,4,71.1,4.9l9.2-126.8c-40.7-2.8-111.1-13.2-123.1-15.1l-20.1,151,19.8,3.1,2.6-13.1,31.2,3.7c-1.5-3.8-1.7-6.3-.2-8"/>
    <path class="st33" d="M1174.3,811.7l.3-28.4,1.7-30.3v-20.7l-2.3-1.5h-.2v-.2h-41.8l.5,3.5c2,4,1.7,5.2.6,6-.3.2-.6.3-1.1.3-1.1,0-2-.9-3.5-2.5-.8-.9-1.4-1.1-1.4-1.1-.2.2-.6,1.7-.6,3.7,2.6,3.1.9,7.1-.3,8.8l-.8,1.1-1.2-.6c-.5-.3-.9-.5-1.2-.5s-.5,0-.6.2c-1.1.6-1.8,2.8-2.2,4.8,1.2.9,1.4,2,1.2,2.8-.3,2.3-3.7,3.8-6.6,4.8-.9,6.9,1.8,16.1,1.8,16.3v9.4l-1.7.2c.8,6,2.2,10.4,2.9,10.8l.8.3,2.8,8.3h-2.9l.6,2.9-.6.6c-.2.2-10,11.2-9.7,27l40.7-2-.3,2c-.6,3.7-1.1,11.4,2.3,12.4l.6.2,5.1,10.8c.3-.2.5-.3.5-.3,6-10.4,10.8-5.4,10.8-5.4,7.1-4.3,8,.6,8,.6l2.5-.3c.3-7.4-2.5-29.8-4.6-43.8"/>
    <path class="st33" d="M1158.3,880.4c-5.1-1.4-1.4-7.4-1.4-7.4,1.7,0,5.7-2.3,5.7-2.3,1.7-5.7-3.4-6-3.4-6-2,8.8-6.8,5.1-6.8,5.1-4-2.2-1.1-5.1,1.8-7.1l-4.6-9.8c-4.8-2.1-4.6-9.7-4.1-13.8l-39.9,2-.2-1.5c-.9-15.8,7.5-27.5,9.8-30.3l-1.2-5.2h2.5l-.9-2.8c-2.5-2-3.7-8.9-4.3-13.7-2-.2-5.8-.5-12.9-.5-13.8,0-33.5.8-46.6,1.4-.2,9.2-.2,16.7.3,18l.2.3v.3c0,.2-1.1,9.4,3.5,10.4l.8.2.3.6c1.7,3.4,2.5,5.8,2.2,7.4,2,2.2,6.9,8.1,5.5,14.7,0,2.2-.5,11.8-5.2,14.4-.3.2-.5.3-.8.5,1.4,1.4,5.4,6.1,1.2,13.5l-.3,8.5c11.7-3.1,18.3-1.1,18.3-1.1,5.1,5.1,23,4.6,23,4.6-3.4-12.4,5.1-4.6,5.1-4.6,7.7-4.3,8.8,3.7,8.8,3.7,10-.3,7.7,8.8,7.7,8.8,6.3,5.4,11.1,2.6,11.1,2.6,0-4.6,5.4-4.3,5.4-4.3,2.3-3.7,4.6.6,4.6.6,6,5.1,4-6,4-6l4.3-2.3c2,1.1,3.4,4,3.4,4,6.3-.6,10.4,5.7,10.4,5.7,9.1,1.1,4-4,4-4-.9-3.4-11.2-4.6-11.2-4.6"/>
    <path class="st33" d="M1027,510.4l-28-.3h-1.8c-.3,4.3,2.2,5.2,2.2,5.2l.8.3.3.8c1.1,2.9-1.1,10.6-2,14.3,2.2,3.1,2.8,4.9,1.5,6l-.2.2,3.4,9.7c1.2,1.5,4.3,6.1,3.8,10,1.1,1.4,3.7,5.4,3.7,11.8l2.3,15.5v.2l80.7-2.8.5.6c2.2,2.8,4.3,4.6,5.2,5.2,0-.6,0-1.7-.5-3.8l-.5-2h4.8v-5.2l.8-.5s1.8-1.1,2.2-3.1c.3-1.7-.6-3.5-2.5-5.5-.2-.2-1.8-2.5-.8-5.1.9-2.3,3.5-4,7.8-4.8h.3l.3.2h.6c.6,0,1.7-.2,2.9-.9,2.5-1.5,4.3-4.9,5.2-9.8l.2-.5c.2-.2.6-.9.2-2-.5-1.4-2.2-2.6-4.6-3.5l-.9-.3-.2-.9c0-.2-.8-4.8-4.5-5.4l-2-.3.9-1.8s.2-.6-.2-1.1c-.3-.6-1.4-1.7-5.1-2.2h-.5l-6.3-6,1.8-9.1,1.1-.2s.3-.2.3-.3c0,0,.5-1.2-2.5-4.8h-25.8l-45.2,2.2Z"/>
    <path class="st22" d="M1504.9,490.4c-5.4-10.8-8.8-9.4-8.8-9.4-8.3,2.3-2.6-10.8-2.6-10.8-2.3-2.9-2.5-5.8-2-8-3.4.2-7.7,1.1-9.2,4.3v3.8l-26.7,3.7-10,2.2-.2,16.3,38.7-9.1.6.8c.9,1.2,8.6,11.1,12.6,15.4h.2c3.4-11.4,7.4-2.3,7.4-2.3,1.1-4,11.7-5.1,11.7-5.1l-1.1-4.3c-9.5,7.8-10.6,2.5-10.6,2.5"/>
    <path class="st22" d="M1542,386.9c-6.1,4.8-6.1.6-6.1.6-1.4-14.9-10.9-10.1-10.9-10.1l-9.5-34.6-12.3-6.1c2.8,3.4-6.8,7.5-6.8,7.5-10.1-1.4-4.1-6.8-7.5-5.4-3.4,1.4-8.8,23-8.8,23,3.4,6.1.6,9.5.6,9.5-4.1,0-4.1,8.1-4.1,8.1,12.9,4.1,6.1,5.4,6.1,5.4-8.1,3.4-8.1,20.4-8.1,20.4h-4.1c-.2,0-.2-.2-.3-.2l5.1,16,5.7,19.5v.2c.2,3.1,1.2,8.1,2.8,9.2.2,0,.3.2.5.2s.5,0,.8-.2l2.3-1.2v4.9h6.9c1.7-7.1,2.6-17.1,2.6-17.1,6.1,1.4,10.1-3.4,10.1-3.4-.6-4.1,6.1-5.8,6.1-5.8,1.4-22.1,6.8-11.2,6.8-11.2,8.8-8.8,11.5-5.4,11.5-5.4l10.1-8.1c8.8-10.3.6-15.8.6-15.8"/>
    <path class="st22" d="M1424.6,579.1c-1.8-1.4-2.9-3.7-3.4-5.4l-4.5-4c-.5.8-.9,1.4-1.1,1.7,2.3,7.7,5.5,19.4,6.5,24l14.4-.3-.8-2.3c-4.5-.2-11.2-13.7-11.2-13.7"/>
    <path class="st22" d="M1445.2,539l3.5-10.6-4.1-2.3c-7.1-1.1-17.8-5.8-18.3-6.1l-1.1-.5-2.6,8.3-1.7,2.5c.6.9,1.2,2.2.9,3.5-.2.8-.6,1.8-2,2.8-.2.3-.3.9.2,2.3h5.4l-1.2,2.3s-.5.9,0,2c.5,1.2,2.2,2.5,4.5,3.4.9,0,3.2.3,4,2.3.8,2.2-1.4,4.5-3.1,6-3.8,5.4-5.2,6.6-6.1,6.8-.8.6-4,4.5-6.1,7.2l3.5,3.1c9.2,7.5,15.8,7.2,15.8,7.2l1.1,7.1c2.6-.6,3.7-9.1,3.7-9.1,5.7-3.7,7.1-19.4,7.1-19.4l-1.4-14.4c-8.9-.9-2.8-3.8-1.8-4.3"/>
    <path class="st22" d="M1447.3,523.1h0v.2l3.4,2c8.9-9.8,21-12.6,21-12.6.6.3,2.8-.3,5.2-1.2v-.2c1.4-4.6-1.2-17.5-2.1-22l-29.2,6.9c.8,4.3,3.2,20,1.7,26.9"/>
    <path class="st22" d="M1483,487.4l-4.9,1.2c.9,4.3,3.1,15.4,2.5,21.5,3.2-1.2,6-2.5,6-2.5,1.1-2.3,3.4-4.3,3.4-4.3,1.1.8,3.2-.3,4.9-1.4-3.7-4.3-9.8-12.1-11.8-14.6"/>
    <path class="st33" d="M1200.9,854.6l-.5-13.7-4.9-3.4v-6.6l57.8-5.1c-1.4-3.2-2.2-6.9-2.2-7.1l-.2-6.5c-2.3-3.5-1.2-12.8-.9-14.4v-.2l.2-.5c1.2-2,1.7-3.2,2-4-.2,0-.3.2-.6.3l-2.5,1.4v-7.4l-4.8-9.2-15.4-54.1-19.8,2.2-28,2.3-3.4.9,1.5.9v22.6l-1.7,30.3-.3,28.1c0,.3,4.9,32.1,4.5,43.8h.3v-2l6.3-.3c2.6-17.1,8.8-3.4,8.8-3.4,1.1,2.3-.5,5.8-.9,6.8.8-.6,2.6-1.2,4.6-1.8"/>
    <path class="st22" d="M1261.7,547.1l-5.4-5.4c0-.8,0-1.4.2-2l-21.4,4.1-6.3.9-.6,6.6,2.5,9.2,2,13.4.9,15.8,2,14.3.5,5.4c.9-.2,2-.3,3.4-.3,2.6,0,4.8.6,6.5,1.7,1.7,1.2,2.9,2.9,3.4,5.2h8.3v1.5c0,.9.3,1.8.5,2.2,0,0,.8-.2,2.6-2.2l.5-.5,7.4-.3-.2,1.5c.5-.6,1.2-1.5,2.2-3.1l.3-.3c.5-.3,2-1.5,3.8-1.5s1.2.2,1.7.5c1.7.9,2.5,3.1,2.3,6.8,1.5.8,3.4,1.4,4.9,1.4s1.1-.2,1.4-.3c.3-.2.9-.5.9-2.5v-1.2l2.6-.8c-.3-4.3-.3-10.8,2.6-12,.3-.2.8-.3,1.2-.3,1.2,0,2.6.8,4.1,2.5,0-.3,0-1.2-.6-2.9-.3-.5-.8-1.2-.8-2.5,0-2,1.2-4.1,3.5-6.5,0-1.4.6-2.5,1.5-2.9.3-.2.6-.2,1.1-.2.9,0,1.8.5,3.1,1.4,1.4-1.5,3.8-4.8,6.6-9.4l.2-14.6,2.2-6.6-.2-.5h.3l.3-.9-2.6-20.4-1.8-11.5c-10,.8-16.7,14.3-16.7,14.3-5.4-1.4-20,5.4-20,5.4l-3.2-4.1-7.5,1.5Z"/>
    <path class="st22" d="M1270.5,507c-3.4-3.4-6.1-18.3-6.1-18.3.6-12.9-10.9-6.1-10.9-6.1-7.5,12.9-10.9,12.3-10.9,12.3-8.8-10.9,2-12.3,2-12.3l2-6.8c4.8-4.8,0-12.9,0-12.9-3.4-2-2.8-6.1-2.8-6.1,6.1-2.8,0-9.5,0-9.5-2,.6-8.1,0-8.1,0-10.1-8.8-10.9-3.4-10.9-3.4-10.9-9.5-9.5,2.8-9.5,2.8,7.5,2.8-5.4,7.5-5.4,7.5,2,10.9-4.8,12.9-4.8,12.9v-12.3l-2.8,5.4c-8.8,2.8-4.1,8.1-4.1,8.1-6.1-2-3.4,5.4-3.4,5.4-4.8,12.9-2.8,25-2.8,25,16.4,35.3,3.4,41.3,3.4,41.3-.6.9-1.1,1.7-1.5,2.5,2.5,0,5.5-.3,8.6-.9h8.3l6.9-1.1,9.4,1.1,7.2-1.1,12.6-2.5,10.6-2c1.4-2.2,3.2-2.6,3.2-2.6-3.4-6.8,4.1-12.3,4.1-12.3,3.4-11.5,5.4-2.8,5.4-2.8,4.5-1.1.3-11.4.3-11.4"/>
    <path class="st47" d="M653.6,352c2,1.7,5.1,5.8,2.3,15.4.8,2.2,2.5,4.8,4.3,5.4l.9.2.3.8c1.1,3.5,4.8,13.4,8,15.5,1.5.6,6.3,2.6,6.9,6.1.3,2-.8,4-3.2,5.7-2.5,5.4-6.1,15.4-4.5,19.8.2.5.5.9.8,1.2,2-2,5.1-4.6,7.7-4.6s1.1.2,1.5.3c2.2,1.1,2.5,4.3,1.2,10.1.9,5.1,3.5,13.2,6.3,15.2h.3c.6,0,1.2.2,1.8.5,2.2,1.4,3.1,5.1,2.8,11.5.5-.5,1.1-1.1,1.7-1.8l.6-.8,1.1.3s3.1.8,6.6.8,2.5-.2,3.7-.3h.6c1.1,0,4.6.2,7.7,2.2,1.4-2,3.8-4.6,6.8-4.6h.6c1.7.3,3.1,1.2,4.1,3.2l1.2-9.1,129.7,15.8c.8-4.5,2.6-15.7,3.2-22v-.2c.3-5.1,1.5-22,1.7-27.2v-1.2c0-1.1.5-5.4,1.2-12,1.2-11.4,3.5-31.3,3.5-37.9-53-5.1-98.5-10.1-98.5-10.1-36.4-5.7-74.2-13.4-108-20.9-1.5,5.5-3.8,18.4-5.1,22.7"/>
    <path class="st36" d="M594.2,757.6c6.1-4.6,8-6.8,8.5-7.7h-.3c-.8,0-1.5.2-2.3.3l-2,.5v-12.9l.8-.5c5.2-3.1,4-10.3,4-10.4v-.5l.2-.3c1.8-6,7.5-8.6,8.9-9.2,1.1-.8,2.3-2,2.3-3.2-.2-1.2-1.5-2.3-2.3-2.8-2.9-1.8-4.5-11.7-5.1-16.3l-84.5-126.1,19.5-77.7c-30.4-7.2-63.6-15.5-75.3-20l.5,4.1c1.4,15.1-11.1,28.4-11.1,28.4-5.7,1.1-4.6,9.1-4.6,9.1,13.4,33.5,1.7,26.4,1.7,26.4v12l9.4,19.4s-1.7,7.4,0,7.4,5.4,6.3,5.4,6.3l1.4-4c9.1-5.4,5.1,3.7,5.1,3.7l-3.1-.6,2.6,4.3c4,15.1-3.7,6.3-3.7,6.3.3-16.7-4,.6-4,.6-2.3,5.4,3.7,16.1,3.7,16.1,11.7.3,3.7,10.8,3.7,10.8-5.7,1.4-3.1,7.7-3.1,7.7,1.7,0,6,8.5,6,8.5-2.6,1.1,2.3,10.3,2.3,10.3-.6,2,9.4,18.7,9.4,18.7l-4,13.1,1.7,4.3c19.4,2.3,24.4,11.1,24.4,11.1,1.4,7.1,6.3,8.3,6.3,8.3,11.7-1.4,10.4,10.8,10.4,10.8,17.4,3.1,18.4,22.7,18.4,22.7v15.4l48.9,5.8Z"/>
    <path class="st22" d="M1474.8,517.9c-.6,3.7-14.4,8.3-14.4,8.3-7.4-.6-8.3,3.1-8.3,3.1-1.2,1.2-2.2,2-2.8,2.5l-2.5,7.2c18-1.4,32.6-20.3,32.6-20.3l-4.6-.8Z"/>
    <path class="st22" d="M1308.7,668.8c12-1.7,101.6-14,120.9-21.2l-2-4c-4.6-2-7.7,5.1-7.7,5.1-3.4-.3-11.4-11.4-11.4-11.4-1.1-6.6,7.4,4.6,7.4,4.6,5.4,3.7,5.4,0,5.4,0-11.1-12-2.3-10-2.3-10-2.6-5.4-1.7-12-1.7-12-4.3-.9-6.1-4.5-6.8-7.8l-16.4-2h-.2c-3.7-1.4-5.7-3.4-6.1-5.8-.5-2.9,2.2-5.5,3.2-6.5.3-2.2,0-3.7-1.1-4.8-1.7-1.8-4.8-2-6-2h-.9l-1.5.2-.2-1.5c-.3-2.5-1.2-4.3-2.3-5.1-.3-.2-.5-.3-.8-.3v1.7l-2.2,5.7-10.6-5.1-1.5,7.4-1.7-1.4c-.3.8-.9,2.6-1.2,4.9l-.2.8-3.1,2v4h-4.6l-1.5,11.2h-7.1l-.5-.9c-.9-1.8-1.7-2.9-2-3.4-.2.9-.5,2.8-.3,5.1v.5l-4,7.5-3.2,11.2c.6,2.2.6,3.8-.2,5.2-.5,1.1-1.4,1.7-1.8,2-2.6,2.9-6.9,3.4-9.1,3.5-1.1,3.8-2.6,6.3-4.8,7.1-.6.2-1.2.3-1.8.3-1.5,0-2.8-.8-2.9-.9l-.6-.5-.2-.6c-.2-.6-.3-.8-.3-.8-1.1,0-3.7,1.7-5.5,3.7l-.6.6-.8-.2c-5.2-.6-8.8-4.3-10.4-6.6l-12.6,12.4v6.3l-6.8,4.9c1.4-.2,2-.3,2.1-.3l22.4-2.6c.9-1.1,2.6-2.8,4.5-2.8s.8,0,1.1.2c1.2.6,1.8,1.4,2.3,2.3"/>
    <path class="st22" d="M1436,667.1c-5.4,4-4.6,0-4.6,0-.6-1.4-5.1,2.3-5.1,2.3-18.7,5.7-1.4-5.4-1.4-5.4,6-4,7.4-2.3,7.4-2.3,7.1,4.3,5.4,1.4,5.4,1.4l-6.5-12.6c-19.7,7.4-108.2,19.7-121.7,21.5.2,1.1.2,2.3,0,3.7l-.2,2.6-2.2-1.2h-.3c-.5.2-2.2,1.4-4,7.5l-.8,2.5-1.8-1.7s-1.1-.9-2.2-.9h-.5c-1.1.3-2,1.8-2.6,4.1l-.2.6-.6.3c-.2.2-.9.5-1.8.5s-1.1-.2-1.5-.5c-.6-.3-1.2-.9-1.5-1.7l-2.6,2.2v5.4l-7.2,2.3c-.8,1.4-3.1,4.5-8.3,5.4-2.2,1.5-4.3,2.9-5.2,3.7v1.4c-.5,2-2.5,3.8-5.8,5.7l-.2,1.7,23-1.7c4.3-2.8,13.8-8.5,18-8.5s.6,0,.9.2l17.8-.2c.8-.2,2.8-.6,5.2-.6,5.4,0,9.2,2,11.1,5.8,3.8-.8,13.8-2.6,19.2-2.6s2.5.2,3.2.5c.3.2,25.4,15.7,32.4,22.7,4-1.4,10.4-1.5,10.4-1.5-1.4-8.3,6.3-14.7,6.3-14.7,6.8-11.1,20.1-12,20.1-12,8.3-5.4-3.1-7.7-3.1-7.7,3.1-4.3-1.1-10.4-1.1-10.4,1.4,1.7,9.4,0,9.4,0,2.3-8,5.1-8.3,5.1-8.3,4.9-2.9-2.2-9.4-2.2-9.4"/>
    <path class="st22" d="M1259.7,719.2l-.2,1.5-27.2,3.1,15.1,53.3,4.9,9.5v3.1h.5c.8,0,1.4.3,1.8.8,1.7,1.7.2,4.9-1.7,8-.5,4.1-.8,10.6.6,12.1l.3.5.2,7.2c.8,3.2,1.8,6.1,2.9,7.8l4.3,4.8,60.5-3.1v4.9h1.2l.5-4.3c-1.4-1.5-3.4-4.1-2.3-6.3.6-1.2,2-1.8,4.1-1.8s1.2,0,1.8.2l11.8-.2c-.2-6,1.2-8.9,1.2-8.9,2.3-14,7.4-22.4,7.4-22.4l.2-.2h-11.8l.5-2c1.4-6.3-2.2-9.4-2.9-10l-5.2-1.7v-1.1c0-.5,0-.8-.2-1.2-.6-3.8-3.7-7.8-4.5-9.1-7.1-2.3-9.7-7.7-10.4-9.8-5.2-1.8-7.8-6.1-8.8-7.8-5.8-.9-10.8-8.1-10.9-8.5l-3.8-7.1c-6.8-1.2-10.8-3.4-11.7-6.8-.6-2.2.3-4.3,1.4-6l-19.7,1.4Z"/>
    <path class="st22" d="M1324.6,519.9l13.1-3.5,34.1-6.8,15.4-2.6,11.7-2.3c.8-.3,4.6-1.7,8.1-1.7s2.9.3,3.8.9c.8.5,1.4,1.1,1.7,1.8l3.1-.2.2,1.5c0,.3.8,7.4,7.1,7.8h.3l4.5,1.8c.2,0,10,4.5,16.6,5.7,1.2-4.5-.3-18.3-1.8-27.7l.2-19.7-4.6-16.7c-2-.5-3.4-1.5-4.1-2.9-.9-1.7-.6-3.7-.3-4.9-2.2-2-3.4-6.9-3.8-8.3l-.2-.5.2-.5c.6-2.2.3-6,0-7.7-1.7-1.4-2.8-5.2-3.5-11.8-8.5,1.7-8.5,5.2-8.5,5.2-16.3-1.1-18.3,5.8-18.3,5.8-3.4,6.1-18.3,23-18.3,23,6.1,2,5.4,8.1,5.4,8.1,2.8,2,7.5,10.9,0,8.8-7.5-2-8.8,9.5-8.8,9.5-8.8-2-12.9,3.4-12.9,3.4-7.5-6.8-16.9,0-16.9,0-25-2.8-8.1,13.5-8.1,13.5,6.8,2-14.9,17.7-14.9,19.1s-.2.3-.3.5v1.1h.2Z"/>
    <path class="st22" d="M1422.3,518.2h0c-6.6-.6-8.9-6.5-9.5-9.2l-2.8.2-.2-1.5c0-.5-.3-.8-.6-1.1-.5-.3-1.2-.5-2.2-.5-2.5,0-5.8,1.1-7.2,1.5l-12,2.5-15.4,2.6-34,6.6-17.1,4.6v-2.2c-2.9,2.5-7.1,5.4-9.2,6.9l2,12.1,2.8,21.2-.3,1.2,4,17.2,26.9-3.5,19.2-4.9,18.4-3.1,17.7-4,10.9-1.8.5,1.4c.2.5.5,1.4.8,2.8,2.5-3.5,6.5-8.3,8-8.9.5-.3,2.6-2.9,4.6-5.8l.2-.2c1.7-1.5,2.2-2.3,2.3-2.6-.3-.2-.8-.2-1.2-.2h-.5c-3.7-1.4-5.8-3.2-6.8-5.4-.3-.8-.5-1.5-.3-2.3h-2.8l-.5-.9c-2.3-5.1.3-6.9.6-7.2.5-.3.6-.5.8-.6,0-.5-.5-1.4-.9-1.7l-.9-.9,2.8-4.3,1.8-8Z"/>
    <path class="st36" d="M505,357.8l-.5,2.9c.6,0,1.2-.2,2-.2,1.8,0,3.4.3,4.6.8l1.4.6-.5,1.4s0,.3.2.8c.5.8,1.7,1.2,3.4,1.5h.3c.3.2,3.7,1.5,4.9,5.5,1.1,2.9.6,6.5-1.4,10.3.9,1.5,4,4.8,11.4,4.8h.6c.5-.8,1.1-1.7,2.3-2.2.6-.3,1.1-.3,1.8-.3,1.2,0,2.6.5,4,1.2,1.5.3,7.5,1.7,10.6,4.6,1.1-.3,3.2-.6,5.5-.6s3.7.3,5.1.9l.3.2s.8.6,2.8.6,2.9-.3,4.8-.8h.3c1.1,0,3.7-.2,6.8-.2,5.1,0,8.3.3,9.8,1.1h2.6c6.9,0,11.2.9,12.9,2.9l22.4,4.5c-.2-.8-.2-1.2-.2-1.7-1.7-6.8,11.7-57.9,15.2-71.6-53.3-12.4-92.3-23.4-92.3-23.4,5.1,9.1,2.3,15.7,2.3,15.7.6,2.3-1.1,4.6-1.1,4.6,4,17.4-4.3,1.4-4.3,1.4-1.4-3.7,2.6-4.6,2.6-4.6-5.4-4.3-4.6,5.1-4.6,5.1-15.7-.3-28.4-13.4-28.4-13.4-9.1-10-4.3,10.8-4.3,10.8v18.9c.3,5.1,4.6,7.1,4.6,7.1-10.4-.6-6,3.7-6,3.7,8,4-2,7.1-2,7.1"/>
    <path class="st33" d="M989.2,376c-.2,8.5.6,16.6,1.8,17.5.8.3,3.5,2.8,2.8,16.4,0,4.5.6,13.1,2.6,17.2.9,2,1.4,2.9,1.4,3.7,1.4,2.8,3.1,8.3,0,14.1v4.8l-1.2.3c-2.3.5-3.2,1.2-3.4,1.7-.2,1.4,2.9,4.5,6.8,6.8l.8.5v47.8l26.4.3,45.3-2.3h24.7l-1.1-8-11.5-7.7-.2-.6c-.6-3.1-5.2-4.6-5.4-4.6l-.8-.2-.3-.8c-1.1-2.6-6.6-5.4-9.8-6.3l-.6-.2-.3-.6c-2.3-4.5-.2-14.3.2-15.4l.2-.3c.6-1.2,1.2-2.9.6-4-.6-1.1-2.5-1.5-3.1-1.5l-1.5-.2.2-1.5c.3-5.4,2-9.5,5.1-12.1,2.6-2.2,5.4-2.8,6.9-2.8l5.4-10.9c-2.9-.5-3.2-2-2.3-1.4,2,1.4,18.3-15.7,18.3-15.7-2-8.1,26.4-20.3,26.4-20.3-10.1-6.1-14.9,0-14.9,0-5.4-.6-6.1-4.8-6.1-4.8-4.8,5.4-13.5,4.8-13.5,4.8-4.1-6.8-13.5-6.8-13.5-6.8-7.5-7.5-16.3-6.8-16.3-6.8-6.1,8.9-10.1,0-10.1,0-16.3.6-16.3-6.1-16.3-6.1.6-14.3-6.8-13.5-6.8-13.5v12.3c-5.4,1.4-18.3,1.7-35.5,1.1,0,1.4-.2,3.7-1.2,6"/>
    <path class="st47" d="M709.2,553.4l-1.7-.2,4.8-26.9c-8.9-.5-31.3-4.8-53.9-9.5l-27,126.3,2.6.5c35.6,6.6,89.1,16.1,98.8,16.7l13.5-102.2c-14.3-1.7-27.3-3.5-37-4.8"/>
    <path class="st47" d="M874.2,676.5h3.5c.8-7.1,4.6-44.2,3.1-53-.5-4.3.8-16.3,1.8-27.7.9-9.4,1.8-19.1,1.8-22.9l-37-3.1h-1.1c-9.2,0-57.3-6-97.3-11.1l-13.5,102c13.4,2,104.8,15.7,138.6,15.7"/>
    <path class="st33" d="M1039.3,764.8v-46.4l-5.1-25.5,1.1-9.8-155.5-3.5c-1.4.2-3.1.2-4.9.2-3.7,0-8.1-.2-12.9-.5l-.6,8.9,63.5,2v1.5c-.5,20.4-1.2,45.6-2.3,51.3,2.5,3.2,5.4,5.8,6.6,5.8s.5-.5.6-.8l.2-.3c.3-.5,1.1-1.4,2.2-1.4s.5,0,.6.2c.6.2.9.6,1.2,1.1v-.9l.6-.5c.2-.2.9-.8,2-.8s.8.2,1.1.3c1.7.8,2.6,3.1,2.8,7.4,7.4.5,12,1.5,14.1,3.2v-.2l.3-.5c.3-.5,1.1-1.5,2.3-1.5h.5c1.1.3,1.5,1.4,1.7,2.3l4-.3-.6,2.3s-.2.6.2.9c.3.3.9.6,2,.6h1.5v2.5l-.3.5c-.2.2-.2.5-.2.6.2.2.8.5,2.3.5s1.5-.3,1.5-1.5v-2.2l6.3,1.8.3.3c2.5,2.6,6.1,5.4,7.8,5.4h.5c.5-.2,1.1-1.4,1.1-3.8v-.5l.3-.5c.3-.6,1.4-1.8,2.8-1.8s.5,0,.6.2c1.4.5,1.8,2,2,3.4h4.5l.5.3c.2,0,2.5,1.7,5.1,1.7s2.8-.6,3.8-1.5l.3-.3,7.7-1.2c.5-.6,1.2-1.5,2.6-1.8.3,0,.5-.2.8-.2,1.2,0,2.6.6,3.8,1.8h2.2c0-1.5.6-2.8,1.7-3.2.5-.2.8-.3,1.4-.3,1.7,0,3.7,1.2,6.5,4,2.5,3.4,5.4,6.1,6.6,6.1s.3-.2.3-.3v-.2h.2c-.2-1.2.2-2.5.2-4.9"/>
  </g>
  <text class="st3" transform="translate(1341.1 910)"><tspan x="0" y="0">FL</tspan></text>
  <text class="st3" transform="translate(681.1 603.6)"><tspan x="0" y="0">UT</tspan></text>
  <text class="st3" transform="translate(653.6 481)"><tspan x="0" y="0">ID</tspan></text>
  <text class="st3" transform="translate(538.5 444.5)"><tspan x="0" y="0">OR</tspan></text>
  <text class="st3" transform="translate(504.6 628.2)"><tspan class="st43" x="0" y="0">C</tspan><tspan x="12.5" y="0">A</tspan></text>
  <text class="st3" transform="translate(752.1 404.1)"><tspan x="0" y="0">MT</tspan></text>
  <text class="st3" transform="translate(580.3 578)"><tspan x="0" y="0">NV</tspan></text>
  <text class="st3" transform="translate(799.9 626.4)"><tspan x="0" y="0">CO</tspan></text>
  <text class="st3" transform="translate(778.1 747.1)"><tspan x="0" y="0">NM</tspan></text>
  <text class="st3" transform="translate(771 516.9)"><tspan x="0" y="0">WY</tspan></text>
  <text class="st3" transform="translate(968.5 731.6)"><tspan x="0" y="0">OK</tspan></text>
  <text class="st3" transform="translate(576.1 360.9)"><tspan class="st39" x="0" y="0">W</tspan><tspan x="16.1" y="0">A</tspan></text>
  <text class="st3" transform="translate(1021.8 449.6)"><tspan x="0" y="0">MN</tspan></text>
  <text class="st3" transform="translate(1039.3 552.8)"><tspan x="0" y="0">IA</tspan></text>
  <text class="st3" transform="translate(1066.5 648.5)"><tspan x="0" y="0">MO</tspan></text>
  <text class="st3" transform="translate(1073.2 741.1)"><tspan x="0" y="0">AR</tspan></text>
  <text class="st3" transform="translate(1073.2 839.6)"><tspan x="0" y="0">LA</tspan></text>
  <text class="st3" transform="translate(1137.6 790.4)"><tspan x="0" y="0">MS</tspan></text>
  <text class="st3" transform="translate(1199.1 790.4)"><tspan x="0" y="0">AL</tspan></text>
  <text class="st3" transform="translate(1186.8 708.5)"><tspan x="0" y="0">TN</tspan></text>
  <text class="st3" transform="translate(1234 652.2)"><tspan class="st42" x="0" y="0">K</tspan><tspan x="11.5" y="0">Y</tspan></text>
  <text class="st3" transform="translate(1133.8 601.9)"><tspan x="0" y="0">IL</tspan></text>
  <text class="st3" transform="translate(1113.1 485.8)"><tspan x="0" y="0">WI</tspan></text>
  <text class="st3" transform="translate(1216.2 516.9)"><tspan x="0" y="0">MI</tspan></text>
  <text class="st3" transform="translate(1199.1 603.6)"><tspan x="0" y="0">IN</tspan></text>
  <text class="st3" transform="translate(1260.1 584.7)"><tspan x="0" y="0">OH</tspan></text>
  <text class="st3" transform="translate(1298 628.2)"><tspan x="0" y="0">WV</tspan></text>
  <text class="st3" transform="translate(1356.3 548)"><tspan class="st37" x="0" y="0">P</tspan><tspan class="st35" x="10.1" y="0">A</tspan></text>
  <text class="st3" transform="translate(1401.4 488.6)"><tspan x="0" y="0">NY</tspan></text>
  <g class="st24">
    <path class="st47" d="M895.7,473.3l11.4-30.9-45.7-2c-1.1,8-3.4,21.2-3.5,22.3l-.2,1.7c-.9,12.3-2.5,31.2-4,49.5l62.6,3.7v-.4l-20.6-43.9Z"/>
    <path class="st33" d="M960.1,519.2l7.8,6.9-.2.8h.5c.8,0,2.5-.3,5.7-1.8l.5-.2h.5c.9.2,2,.3,2.9.3,1.8,0,2.6-.3,2.8-.5l.9-1.8,1.5,1.4s5.2,4.8,8.9,4.9h.6l.5.3c.6.5,1.2,1.1,1.7,1.5l.2-.8c1.1-3.5,2.6-10,2.5-12.4-1.4-.9-4.3-3.5-3.2-9.7l.3-1.4h2.9v-45.9c-2.8-1.8-8.1-5.8-7.5-9.5.3-1.8,1.8-3.2,4.6-4v-1.1l-87.4-3.7-11.4,30.9,20.6,43.9v.4l26.3,1.5h17.5Z"/>
    <path class="st33" d="M994.1,431.7c-.2-.3-.5-.8-.9-1.4l-.5-.6.5-.3c0-.2-.2-.3-.2-.3-2.9-6.1-2.9-18.3-2.9-18.7.6-11.7-1.4-13.8-1.4-13.8-3.4-2.3-3.4-15.2-3.2-20.4v-.2l.2-.5v-.2c.9-2,1.1-3.8.8-5.5-31.6-1.2-76.5-5-117.5-8.8l-4.6,38.7c-.2,1.8-.4,3.5-.6,5h26.4l18,34.6v.2c0,0,86.7,3.7,86.7,3.7,2.3-4.9.6-9.4-.8-11.5"/>
    <path class="st47" d="M890.1,404.8h-26.4c-.3,2.9-.6,5-.6,5.6v1.4c-.2,4.8-1.2,19.5-1.7,25.8l46.6,2v-.2c0,0-17.9-34.6-17.9-34.6Z"/>
    <path class="st33" d="M867.6,360.9c.3,5.5-1.1,18.6-3.2,37.8,0,.4,0,.7-.1,1l4.6-38.7c-.4,0-.9,0-1.3-.1"/>
    <path class="st47" d="M916.3,538.7v-17.7l-62.9-3.7c-1.8,22.6-3.5,43.6-4.1,49.8l38.1,3.2.2,1.2c.5,2.9-.5,13.2-1.7,25v.3l18.3.5v-43l12.2-15.7Z"/>
    <path class="st33" d="M1013.3,594.4c-1.1-.8-2.5-2.6-4-9.5l-2.3-15.8c0-6.9-3.4-10.4-3.4-10.4l-.6-.8.3-.9c.8-2.5-1.4-6.5-3.1-8.6l-.2-.3-4.1-11.8c-1.1-.6-2.6-1.8-4.8-3.7-3.5-.5-7.4-3.2-9.2-4.8-.9.5-2.3.8-4.1.8s-2.3-.2-3.1-.2c-2.8,1.2-4.9,1.8-6.6,1.8s-2-.3-2.6-.8c-.8-.6-1.1-1.4-1.1-2l-5.5-4.9h-16.4l-26.2-1.5v17.7l-12.2,15.7v43l110.9,2.9-1.7-5.8Z"/>
    <path class="st33" d="M1033.1,623.9c-2.5-.6-4.5-2-5.7-3.8-2.5-3.8-1.4-8.5-1.4-8.6l.2-.3c1.8-3.4,1.7-4.6,1.7-4.9h-.3c-.3,0-.8.2-1.1.2-1.1.3-1.8.3-2.8.3-4.1,0-6.5-2.5-7.4-3.8l-112.3-2.9v2h-18.7c-.1,1.1-.2,2.2-.3,3.3l-.5,13.5h24.4l-7,48.2h-20c-.3,2.8-.5,5.3-.7,7.1v2c0,0,153.7,4,153.7,4l-2-56.2Z"/>
    <path class="st33" d="M881.2,676.2h.1s0-2,0-2c0,.8-.1,1.4-.2,2"/>
    <path class="st33" d="M904.1,600l-18.5-.5c0,.8-.2,1.7-.2,2.5h18.7v-2Z"/>
    <path class="st47" d="M909,618.9h-24.4l.5-13.5c-.7,7.9-1.3,14.8-1,17.5,1.2,6.9-.7,30.3-2,44.2h20l7-48.2Z"/>
  </g>
  <text class="st3" transform="translate(1494.8 398.2)"><tspan x="0" y="0">ME</tspan></text>
  <text class="st3" transform="translate(1429.5 404.1)"><tspan x="0" y="0">VT</tspan></text>
  <text class="st3" transform="translate(1507.7 462.3)"><tspan x="0" y="0">NH</tspan></text>
  <text class="st3" transform="translate(1524 487.3)"><tspan x="0" y="0">MA</tspan></text>
  <text class="st3" transform="translate(1493.7 523.1)"><tspan x="0" y="0">RI</tspan></text>
  <text class="st3" transform="translate(1461.5 558.8)"><tspan x="0" y="0">NJ</tspan></text>
  <text class="st3" transform="translate(1457.1 587.7)"><tspan x="0" y="0">DE</tspan></text>
  <text class="st3" transform="translate(1453.4 610.9)"><tspan x="0" y="0">MD</tspan></text>
  <text class="st3" transform="translate(1448.7 634.4)"><tspan x="0" y="0">DC</tspan></text>
  <text class="st3" transform="translate(1448.7 510.1)"><tspan x="0" y="0">CT</tspan></text>
  <text class="st3" transform="translate(1275.8 782)"><tspan class="st40" x="0" y="0">G</tspan><tspan x="13.2" y="0">A</tspan></text>
  <text class="st3" transform="translate(1355.5 692.3)"><tspan x="0" y="0">NC</tspan></text>
  <text class="st3" transform="translate(1324.4 747.1)"><tspan x="0" y="0">SC</tspan></text>
  <text class="st3" transform="translate(1358.8 637.4)"><tspan class="st38" x="0" y="0">V</tspan><tspan x="11.8" y="0">A</tspan></text>
  <text class="st3" transform="translate(946.4 648.5)"><tspan x="0" y="0">KS</tspan></text>
  <text class="st3" transform="translate(922.4 567.1)"><tspan x="0" y="0">NE</tspan></text>
  <text class="st3" transform="translate(916.4 485.7)"><tspan x="0" y="0">SD</tspan></text>
  <text class="st3" transform="translate(918.8 407.8)"><tspan x="0" y="0">ND</tspan></text>
  <text class="st3" transform="translate(932.1 839.5)"><tspan x="0" y="0">TX</tspan></text>
  <g class="st27">
    <line class="st1" x1="1441.9" y1="407.8" x2="1441.9" y2="421.9"/>
    <line class="st1" x1="1506.5" y1="457.5" x2="1490.2" y2="458.1"/>
    <line class="st1" x1="1490.2" y1="507.7" x2="1486.4" y2="500.6"/>
    <line class="st1" x1="1516.6" y1="481" x2="1488.3" y2="481"/>
    <line class="st1" x1="1459.1" y1="552.8" x2="1444.5" y2="552.8"/>
    <line class="st1" x1="1447.1" y1="603.6" x2="1432.6" y2="603.6"/>
    <line class="st1" x1="1450.2" y1="584.3" x2="1429.3" y2="591"/>
    <line class="st1" x1="1392.2" y1="589.6" x2="1442.5" y2="624.5"/>
    <path class="st36" d="M633.5,423.1c6.9-.4,13.8-.9,20.7-1.3,3.2-.2,6.5,1.3,9.6.7.7-.1,1.2-.3,1.6-.5-2.5-7.1,4-21,4.8-22.6l.2-.3.3-.3c1.5-1.1,2.3-2.2,2.3-2.9-.2-1.4-3.1-3.1-4.9-3.7l-.3-.2c-4.5-2.8-8.1-13.1-9.4-16.7-4-1.7-5.8-7.4-5.8-7.7l-.2-.5.2-.5c3.1-10.3-1.5-12.8-1.7-12.8l-1.4-.6.6-1.4c.6-1.4,2.9-13.8,4.6-23.4-4.8-1.1-9.4-2.2-13.8-3.2-8.5,32.1-16.4,66.8-15.4,70.1l.2.3c0,.2,0,1.2.3,2.8v.2c.5,2.6,1.5,6.3,3.8,7.4l.5.2.3.5c1.4,2,2.8,6.8-1.2,9.7-.9,1.1-5.7,7.5-7.5,9.8,0,.1,0,.3,0,.4,2.7-4,7-3.2,11.6-3.5"/>
    <path class="st33" d="M1160.5,430.9c-8.4-1-17.3-1.9-26-1.9-3.5-2.9-7.7-6.1-11.4-8.9-1.1,3.9-4.8,5.7-8.8,6.6.6.8,1.5,1.8,3.4,1.8h.2l11.4,2.6,4.8.8,4.1,2.3,16.6,2.3-1.2,2s-.2.3,0,.6c.2.3.9,1.4,6,1.7l1.4.2,1.5,14.1,4.6,4c2.9-5.6,5.9-11,7.5-13.8-4.3-4.4-10.5-9.8-13.9-14.3"/>
    <path class="st22" d="M1226.4,427.3v-7.7c-11.5,4.8-16.3,1.4-16.3,1.4v-6.8l-7.5,4.1c-10.9-5.4-22.4,9.1-22.4,9.1-6.8-9.2-12.9,0-12.9,0-2.8-12.6-11.5-11.8-11.5-11.8-14.3,6.8-9.5,2.8-9.5,2.8-.6-8.1,12.3-17.7,12.3-17.7-3.4-.6-11.5,3.4-11.5,3.4-10.9,16.3-23.8,15.7-23.8,15.7,0,.1,0,.2-.1.3,3.7,2.9,7.9,6,11.4,8.9,8.7,0,17.7.9,26,1.9,3.4,4.5,9.6,9.9,13.9,14.3.7-1.3,1.1-2,1.1-2,11.5-4.8,12.9-.6,12.9-.6,5.2,3.2,3.4-7.7,3.4-7.7,3.4,1.8,8.1,0,8.1,0,4.8-8.3,9.5-1.8,9.5-1.8,6.8,4.1,12.9,0,12.9,0,1.4-3.4,10.1,0,10.1,0l-6.1-5.8Z"/>
    <path class="st20" d="M1101.9,970.1c0-38.1,30.9-69,69-69s69,30.9,69,69-30.9,69-69,69-69-30.9-69-69"/>
  </g>
  <text class="st14" transform="translate(1135.4 986.5)"><tspan x="0" y="0">10</tspan></text>
  <text class="st8" transform="translate(1154.9 1011)"><tspan x="0" y="0">AM</tspan></text>
  <g class="st25">
    <path class="st20" d="M595,910c0-38.1,30.9-69,69-69s69,30.9,69,69-30.9,69-69,69-69-30.9-69-69"/>
  </g>
  <text class="st14" transform="translate(643.1 926.4)"><tspan x="0" y="0">9</tspan></text>
  <text class="st8" transform="translate(648 950.9)"><tspan x="0" y="0">AM</tspan></text>
  <g class="st26">
    <path class="st20" d="M343.3,744.7c0-38.1,30.9-69,69-69s69,30.9,69,69-30.9,69-69,69-69-30.9-69-69"/>
  </g>
  <text class="st14" transform="translate(391.5 761.1)"><tspan x="0" y="0">8</tspan></text>
  <text class="st8" transform="translate(396.3 785.6)"><tspan x="0" y="0">AM</tspan></text>
  <g class="st31">
    <path class="st20" d="M1447.6,744.7c0-38.1,30.9-69,69-69s69,30.9,69,69-30.9,69-69,69-69-30.9-69-69"/>
  </g>
  <text class="st14" transform="translate(1488.3 761.1)"><tspan x="0" y="0">11</tspan></text>
  <text class="st8" transform="translate(1500.6 785.6)"><tspan x="0" y="0">AM</tspan></text>
  <text class="st10" transform="translate(548.7 261.8) rotate(11.1)"><tspan x="0" y="0">PACIFIC</tspan></text>
  <text class="st7" transform="translate(552.8 286.3) rotate(11.1)"><tspan x="0" y="0">(</tspan></text>
  <path class="st17" d="M564.2,277l5.6,1.1c2.5.5,3.6,2.4,3.2,4.4-.4,2-2,3.4-4.6,2.9l-2.9-.6-.7,3.8-2.7-.5,2.2-11.1ZM569,280.3l-2.6-.5-.5,2.8,2.6.5c1,.2,1.6-.3,1.8-1.1.1-.7-.3-1.5-1.2-1.7Z"/>
  <path class="st17" d="M576.1,287.3c.6.9,1.9,1.9,3.4,2.2,1.4.3,2.1-.2,2.2-.8.1-.7-.8-1.2-2-1.7-1.8-.8-4.1-1.7-3.6-4.3.4-1.9,2.4-3.1,5.1-2.6,1.9.4,3.3,1.3,4.2,2.5l-1.6,1.6c-.7-.9-2-1.6-3.1-1.9-1-.2-1.8.1-1.9.8s.8,1,1.9,1.5c1.8.7,4.2,1.8,3.7,4.4-.4,2.1-2.4,3.2-5.5,2.6-2.1-.4-3.7-1.5-4.5-2.6l1.6-1.8Z"/>
  <polygon class="st17" points="591.6 284.8 588.4 284.2 588.9 281.9 597.8 283.6 597.4 285.9 594.2 285.3 592.5 294.1 589.8 293.6 591.6 284.8"/>
  <text class="st7" transform="translate(598.1 295.2) rotate(11.1)"><tspan x="0" y="0">)</tspan></text>
  <text class="st12" transform="translate(724.2 297.5) rotate(7.7)"><tspan x="0" y="0">MOUNTAIN</tspan></text>
  <text class="st4" transform="translate(777.2 278.2) rotate(7.7)"><tspan class="st45" x="0" y="0">+</tspan><tspan x="12.4" y="0">1</tspan></text>
  <text class="st4" transform="translate(752.3 324.6) rotate(7.7)"><tspan x="0" y="0">(</tspan></text>
  <polygon class="st17" points="772.9 320 768.8 326.9 767.5 326.8 765.4 319 764.4 326.4 761.8 326 763.3 314.8 766.9 315.3 768.8 322.5 772.5 316.1 776.1 316.6 774.6 327.7 771.9 327.4 772.9 320"/>
  <path class="st17" d="M779.9,324.9c.7.9,2,1.8,3.5,2,1.4.2,2.1-.3,2.2-.9.1-.8-.9-1.1-2.1-1.6-1.8-.7-4.2-1.5-3.8-4.1.3-1.9,2.2-3.2,4.9-2.9,1.9.3,3.4,1.1,4.4,2.2l-1.5,1.7c-.7-.9-2.1-1.5-3.2-1.7-1.1-.1-1.8.2-1.9.9s.9,1,2,1.4c1.8.6,4.3,1.5,3.9,4.2-.3,2.2-2.2,3.4-5.3,2.9-2.1-.3-3.8-1.3-4.6-2.3l1.5-1.8Z"/>
  <polygon class="st17" points="795.2 321.5 792 321.1 792.3 318.8 801.4 320 801 322.3 797.9 321.9 796.7 330.7 794 330.4 795.2 321.5"/>
  <text class="st4" transform="translate(802.2 331.4) rotate(7.7)"><tspan x="0" y="0">)</tspan></text>
  <text class="st13" transform="translate(995.4 320) rotate(.3)"><tspan x="0" y="0">CENTRAL</tspan></text>
  <text class="st5" transform="translate(1010.9 344.8) rotate(.3)"><tspan x="0" y="0">(</tspan></text>
  <path class="st17" d="M1026,333.5c2.4,0,4,1.3,4.9,2.9l-2.3,1.1c-.5-.9-1.4-1.6-2.6-1.6-1.9,0-3.4,1.5-3.4,3.5,0,2,1.4,3.5,3.4,3.5,1.2,0,2.2-.6,2.6-1.5l2.2,1.1c-.9,1.6-2.5,2.9-4.9,2.9-3.5,0-6.1-2.5-6.1-5.9,0-3.5,2.7-5.9,6.2-5.8Z"/>
  <path class="st17" d="M1034.8,341.6c.8.8,2.2,1.5,3.7,1.5,1.4,0,2-.5,2-1.2,0-.8-1-1-2.2-1.3-1.9-.4-4.3-.9-4.3-3.5,0-1.9,1.8-3.5,4.5-3.5,1.9,0,3.5.6,4.6,1.6l-1.3,1.9c-.9-.8-2.2-1.2-3.4-1.3-1.1,0-1.7.5-1.7,1.1,0,.7,1,.9,2.2,1.1,1.9.4,4.4,1,4.4,3.6,0,2.2-1.7,3.6-4.9,3.6-2.2,0-3.9-.8-4.9-1.7l1.2-2Z"/>
  <polygon class="st17" points="1049.5 336.3 1046.3 336.2 1046.3 333.9 1055.5 333.9 1055.4 336.3 1052.2 336.3 1052.2 345.2 1049.5 345.2 1049.5 336.3"/>
  <text class="st5" transform="translate(1057.7 345.1) rotate(.3)"><tspan x="0" y="0">)</tspan></text>
  <text class="st5" transform="translate(1026.7 294) rotate(.3)"><tspan class="st44" x="0" y="0">+</tspan><tspan class="st34" x="12.4" y="0">2</tspan></text>
  <text class="st6" transform="translate(1297.4 346.6) rotate(-3.6)"><tspan x="0" y="0">(</tspan></text>
  <polygon class="st17" points="1306.2 334.8 1314.7 334.3 1314.9 336.6 1309.1 337 1309.2 339.1 1314.9 338.7 1315 341 1309.4 341.3 1309.5 343.6 1315.3 343.3 1315.4 345.6 1306.9 346.1 1306.2 334.8"/>
  <path class="st17" d="M1319.7,341.8c.8.7,2.3,1.3,3.8,1.2,1.4,0,2-.7,1.9-1.4,0-.8-1.1-.9-2.3-1.1-1.9-.3-4.4-.6-4.6-3.2-.1-1.9,1.5-3.6,4.3-3.8,1.9-.1,3.5.4,4.7,1.3l-1.2,2c-.9-.7-2.3-1.1-3.4-1-1.1,0-1.7.6-1.7,1.2s1,.8,2.2,1c1.9.3,4.5.7,4.7,3.3.1,2.2-1.5,3.7-4.6,3.9-2.1.1-3.9-.5-5-1.4l1.1-2.1Z"/>
  <polygon class="st17" points="1334 335.5 1330.8 335.7 1330.7 333.3 1339.8 332.8 1339.9 335.1 1336.7 335.3 1337.3 344.2 1334.6 344.4 1334 335.5"/>
  <text class="st6" transform="translate(1342.8 343.8) rotate(-3.6)"><tspan x="0" y="0">)</tspan></text>
  <text class="st6" transform="translate(1305.6 295.7) rotate(-3.6)"><tspan class="st46" x="0" y="0">+</tspan><tspan x="12.4" y="0">3</tspan></text>
  <text class="st11" transform="translate(1276.4 325.4) rotate(-3.6)"><tspan x="0" y="0">EASTERN</tspan></text>
  <path class="st21" d="M561.3,347.9l6.9-5.6c1-.8.5-2.4-.8-2.4l-8.8-.5c-.5,0-1-.4-1.2-.9l-3.2-8.3c-.5-1.2-2.1-1.2-2.6,0l-3.2,8.3c-.2.5-.7.8-1.2.9l-8.9.5c-1.3,0-1.8,1.6-.8,2.4l6.9,5.6c.4.3.6.9.5,1.4l-2.2,8.6c-.3,1.2,1,2.2,2.1,1.5l7.5-4.8c.5-.3,1-.3,1.5,0l7.5,4.8c1.1.7,2.4-.3,2.1-1.5l-2.2-8.6c0-.5,0-1,.5-1.4"/>
  <g>
    <text class="st16" transform="translate(628 112.9)"><tspan x="0" y="0">Class </tspan><tspan class="st41" x="221" y="0">S</tspan><tspan class="st19" x="269.6" y="0">tart Time</tspan></text>
    <g>
      <polygon class="st17" points="734.8 145.9 728.7 145.9 728.7 142.3 745 142.3 745 145.9 738.9 145.9 738.9 163 734.8 163 734.8 145.9"/>
      <rect class="st17" x="750.3" y="142.3" width="4.1" height="20.7"/>
      <polygon class="st17" points="780.1 148.6 773.7 163 771.9 163 765.5 148.6 765.5 163 761.4 163 761.4 142.3 766.9 142.3 772.8 155.7 778.6 142.3 784.2 142.3 784.2 163 780.1 163 780.1 148.6"/>
      <polygon class="st17" points="791.2 142.3 806.3 142.3 806.3 145.9 795.3 145.9 795.3 150.6 806 150.6 806 154.2 795.3 154.2 795.3 159.4 806.3 159.4 806.3 163 791.2 163 791.2 142.3"/>
      <polygon class="st17" points="811.3 160 822.2 145.9 811.3 145.9 811.3 142.3 827.8 142.3 827.8 145.3 816.9 159.4 828 159.4 828 163 811.3 163 811.3 160"/>
      <path class="st17" d="M843.7,141.8c6.5,0,10.9,4.6,10.9,10.8s-4.4,10.8-10.9,10.8-10.9-4.6-10.9-10.8,4.4-10.8,10.9-10.8ZM843.7,145.5c-4.1,0-6.8,3.1-6.8,7.2s2.6,7.2,6.8,7.2,6.7-3.1,6.7-7.2-2.7-7.2-6.7-7.2Z"/>
      <polygon class="st17" points="864.6 148.3 864.6 163 860.5 163 860.5 142.3 864.9 142.3 875.4 156.6 875.4 142.3 879.5 142.3 879.5 163 875.4 163 864.6 148.3"/>
      <polygon class="st17" points="886.5 142.3 901.6 142.3 901.6 145.9 890.6 145.9 890.6 150.6 901.4 150.6 901.4 154.2 890.6 154.2 890.6 159.4 901.6 159.4 901.6 163 886.5 163 886.5 142.3"/>
      <text class="st18" transform="translate(905.2 163)"><tspan x="0" y="0"> </tspan></text>
      <path class="st17" d="M919.4,142.3h10.8c4.1,0,6.3,2.4,6.3,5.3s-1.6,4.2-3.5,4.7c2.3.5,4,2.6,4,5.1s-2.3,5.6-6.4,5.6h-11.1v-20.7ZM929.5,145.9h-6.1v4.8h6.1c1.7,0,2.7-1,2.7-2.4s-1-2.4-2.7-2.4ZM929.7,154.2h-6.2v5.2h6.2c1.8,0,2.9-1,2.9-2.6s-1.1-2.6-2.9-2.6Z"/>
      <path class="st17" d="M950.4,155.5h-3.6v7.5h-4.1v-20.7h9.8c4.5,0,7.1,2.9,7.1,6.6s-2.4,5.9-5.1,6.2l5.3,7.9h-4.7l-4.7-7.5ZM952.1,145.9h-5.2v6.1h5.2c2.2,0,3.3-1.3,3.3-3s-1.2-3-3.3-3Z"/>
      <polygon class="st17" points="965.8 142.3 980.9 142.3 980.9 145.9 969.9 145.9 969.9 150.6 980.6 150.6 980.6 154.2 969.9 154.2 969.9 159.4 980.9 159.4 980.9 163 965.8 163 965.8 142.3"/>
      <path class="st17" d="M1006.5,163h-4.6l-1.6-3.9h-9.7l-1.5,3.9h-4.6l8.5-20.7h5l8.5,20.7ZM991.8,155.5h7.3l-3.6-9.4-3.6,9.4Z"/>
      <polygon class="st17" points="1016.8 154.4 1015.1 156.4 1015.1 163 1011 163 1011 142.3 1015.1 142.3 1015.1 151.7 1023.3 142.3 1028.3 142.3 1019.4 152.1 1028.9 163 1023.9 163 1016.8 154.4"/>
      <path class="st17" d="M1033.6,142.3h8.2c6.8,0,11.2,4.3,11.2,10.4s-4.4,10.3-11.2,10.3h-8.2v-20.7ZM1041.8,145.9h-4.1v13.5h4.1c4.6,0,7-3,7-6.7s-2.3-6.8-7-6.8Z"/>
      <path class="st17" d="M1068.7,141.8c6.5,0,10.9,4.6,10.9,10.8s-4.4,10.8-10.9,10.8-10.9-4.6-10.9-10.8,4.4-10.8,10.9-10.8ZM1068.7,145.5c-4.1,0-6.8,3.1-6.8,7.2s2.6,7.2,6.8,7.2,6.7-3.1,6.7-7.2-2.7-7.2-6.7-7.2Z"/>
      <polygon class="st17" points="1096.7 148.4 1092.7 163 1088.4 163 1082.2 142.3 1086.7 142.3 1090.7 157.5 1095.1 142.3 1098.4 142.3 1102.7 157.6 1106.8 142.3 1111.3 142.3 1105.1 163 1100.8 163 1096.7 148.4"/>
      <polygon class="st17" points="1120 148.3 1120 163 1115.9 163 1115.9 142.3 1120.3 142.3 1130.8 156.6 1130.8 142.3 1134.9 142.3 1134.9 163 1130.8 163 1120 148.3"/>
    </g>
  </g>
  <text class="st9" transform="translate(272.7 320.4)"><tspan x="0" y="0">Evergreen</tspan></text>
  <text class="st9" transform="translate(272.7 353.5)"><tspan x="0" y="0">Safety Council</tspan></text>
  <g class="st28">
    <path class="st47" d="M686.3,656.5c-7.2,4.3-11.6,12-10.4,21,1.5,10.6,12.8,11.2,14.1,21.3,1.1,8.5,2.8,9.4,11.3,10.4,6.9.8,11.9,1.5,18.2,0,2.3-.6,4.4-1.3,6.6-2l5.7-43.3c-6.3-.6-25.7-3.8-45.7-7.3M704.8,697c-4.3-.3-9.8-1.8-10.2-7-.2-2.6,0-5.9-2.7-7.2-1.1-.5-2.7-.9-3.3-2.1-.7-1.2,0-2.7.9-3.4,4.1-2.1,7.8-4.6,11.7-6.2,2-.9,4.8-1.2,6.9-.2,1,.5.9,1.2.9,2.3,0,2.2-.1,4,.3,6.1.5,2.1,1.7,2.8,3.3,4.3,1.6,1.5,4,4.4,4.1,6.7.3,6.3-7.2,7.1-11.9,6.7"/>
  </g>
  <g class="st30">
    <line class="st2" x1="536.5" y1="620.5" x2="657" y2="876.2"/>
    <line class="st2" x1="545.5" y1="620.5" x2="665.9" y2="876.2"/>
    <line class="st2" x1="554.5" y1="620.5" x2="674.9" y2="876.2"/>
    <line class="st2" x1="563.5" y1="620.5" x2="683.9" y2="876.2"/>
    <line class="st2" x1="572.5" y1="620.5" x2="692.9" y2="876.2"/>
    <line class="st2" x1="581.5" y1="620.5" x2="701.9" y2="876.2"/>
    <line class="st2" x1="590.5" y1="620.5" x2="710.9" y2="876.2"/>
    <line class="st2" x1="599.5" y1="620.5" x2="719.9" y2="876.2"/>
    <line class="st2" x1="608.5" y1="620.5" x2="728.9" y2="876.2"/>
    <line class="st2" x1="617.5" y1="620.5" x2="737.9" y2="876.2"/>
    <line class="st2" x1="626.5" y1="620.5" x2="746.9" y2="876.2"/>
    <line class="st2" x1="635.5" y1="620.5" x2="755.9" y2="876.2"/>
    <line class="st2" x1="644.5" y1="620.5" x2="764.9" y2="876.2"/>
    <line class="st2" x1="653.5" y1="620.5" x2="773.9" y2="876.2"/>
    <line class="st2" x1="662.5" y1="620.5" x2="782.9" y2="876.2"/>
    <line class="st2" x1="671.5" y1="620.5" x2="791.9" y2="876.2"/>
    <line class="st2" x1="680.5" y1="620.5" x2="800.9" y2="876.2"/>
    <line class="st2" x1="689.5" y1="620.5" x2="809.9" y2="876.2"/>
    <line class="st2" x1="698.5" y1="620.5" x2="818.9" y2="876.2"/>
    <line class="st2" x1="707.5" y1="620.5" x2="827.9" y2="876.2"/>
    <line class="st2" x1="716.5" y1="620.5" x2="836.9" y2="876.2"/>
    <line class="st2" x1="725.5" y1="620.5" x2="845.9" y2="876.2"/>
  </g>
  <text class="st3" transform="translate(656 726.3)"><tspan x="0" y="0">AZ</tspan></text>
  <g class="st29">
    <line class="st2" x1="135" y1="813.9" x2="314.2" y2="1194.4"/>
    <line class="st2" x1="148.4" y1="813.9" x2="327.6" y2="1194.4"/>
    <line class="st2" x1="161.8" y1="813.9" x2="341" y2="1194.4"/>
    <line class="st2" x1="175.2" y1="813.9" x2="354.4" y2="1194.4"/>
    <line class="st2" x1="188.6" y1="813.9" x2="367.8" y2="1194.4"/>
    <line class="st2" x1="202" y1="813.9" x2="381.2" y2="1194.4"/>
    <line class="st2" x1="215.3" y1="813.9" x2="394.6" y2="1194.4"/>
    <line class="st2" x1="228.7" y1="813.9" x2="408" y2="1194.4"/>
    <line class="st2" x1="242.1" y1="813.9" x2="421.3" y2="1194.4"/>
    <line class="st2" x1="255.5" y1="813.9" x2="434.7" y2="1194.4"/>
    <line class="st2" x1="268.9" y1="813.9" x2="448.1" y2="1194.4"/>
    <line class="st2" x1="282.3" y1="813.9" x2="461.5" y2="1194.4"/>
    <line class="st2" x1="295.7" y1="813.9" x2="474.9" y2="1194.4"/>
    <line class="st2" x1="309.1" y1="813.9" x2="488.3" y2="1194.4"/>
    <line class="st2" x1="322.5" y1="813.9" x2="501.7" y2="1194.4"/>
    <line class="st2" x1="335.9" y1="813.9" x2="515.1" y2="1194.4"/>
    <line class="st2" x1="349.2" y1="813.9" x2="528.5" y2="1194.4"/>
    <line class="st2" x1="362.6" y1="813.9" x2="541.9" y2="1194.4"/>
    <line class="st2" x1="376" y1="813.9" x2="555.3" y2="1194.4"/>
    <line class="st2" x1="389.4" y1="813.9" x2="568.6" y2="1194.4"/>
    <line class="st2" x1="402.8" y1="813.9" x2="582" y2="1194.4"/>
    <line class="st2" x1="416.2" y1="813.9" x2="595.4" y2="1194.4"/>
  </g>
  <g>
    <text class="st15" transform="translate(355.1 984.5)"><tspan x="0" y="0">Does not observe</tspan></text>
    <text class="st15" transform="translate(355.1 1003.5)"><tspan x="0" y="0">Daylight Savings.</tspan></text>
    <text class="st15" transform="translate(355.1 1022.6)"><tspan x="0" y="0">Please check at time.gov</tspan></text>
  </g>
  <g class="st23">
    <path class="st17" d="M534,342.6l-18.1-13-.6,6.3-41.1-4.1c-2.7-.2-5,1.7-5.3,4.3-.3,2.7,1.7,5,4.3,5.3l41.1,4.1-.6,6.3,20.3-9.2Z"/>
  </g>
</svg>