<svg id="Layer_1" data-name="Layer 1" xmlns="http://www.w3.org/2000/svg" viewBox="0 0 200 200"><defs><style>.cls-1{fill:#3e5076;fill-rule:evenodd;}</style></defs><path class="cls-1" d="M25.55,155.13c8.1,4.13,15.32,8.19,23.3,12.37,15.1,7.88,35.6,21.31,50.8,21.5,16.5.17,36.76-13.85,51.11-21.19,8.13-4.18,15.37-8.44,23.32-12.39,11-5.45,35.26-16.23,12.65-25.56l-36.06-14.21c1.36,6.88,6.65,11.23,1.55,18.2C138.94,152,85.46,154.29,61,143c-23.41-10.8-13.07-19-11.44-27.31-7.65,2.48-16.13,6.28-23.88,9.38C-4,136.81-2.52,140.8,25.55,155.13Z"/><path class="cls-1" d="M133.64,71.73c-2.73,4.31-6.2,6.77-13,9-12,3.91-28.56,4-40.57.24-6.91-2.19-10.73-4.71-13.55-9.21L59.33,90c-2.6,7.35-6.64,12.94-.72,19,14.63,14.82,66.49,15.37,82.5.39,6.38-6,2.66-10.88-.05-18.71Z"/><path class="cls-1" d="M75.74,46.6c13.53,10.31,35.16,10.46,48.72,0L117,24.17c-2.29-6.32-2.73-13-16.55-13.17-14.41-.16-14.91,6.4-17.16,12.51Z"/></svg>