<?xml version="1.0" encoding="UTF-8"?>
<svg id="Layer_1" xmlns="http://www.w3.org/2000/svg" version="1.1" viewBox="0 0 1080 1080">
  <!-- Generator: Adobe Illustrator 29.7.1, SVG Export Plug-In . SVG Version: 2.1.1 Build 8)  -->
  <defs>
    <style>
      .st0 {
        fill: #252a2e;
      }

      .st1 {
        fill: #fff;
      }

      .st2 {
        fill: #bbd154;
      }

      .st3 {
        fill: #3a9d69;
      }

      .st4 {
        fill: #f37f24;
      }

      .st5 {
        fill: #f7f189;
      }
    </style>
  </defs>
  <g>
    <g>
      <path class="st2" d="M1080,890v129.4h-83.7v155.9h-294.5v-155.9h-83.7v-129.4c0-54.3,34.7-100.4,83-117.6,13-4.6,27.1-7.2,41.7-7.2h212.6c14.1,0,27.6,2.3,40.3,6.6,49.1,16.7,84.5,63.3,84.5,118.1Z"/>
      <g>
        <rect class="st1" x="701.7" y="1103.1" width="294.5" height="52"/>
        <path class="st1" d="M996.3,1019.4v52h-294.5v-52h-.7v-247c13-4.6,27.1-7.2,41.7-7.2h10.3v254.1h190.6v-254.1h11.7c14.1,0,27.6,2.3,40.3,6.6v247.5h.7Z"/>
      </g>
      <path class="st0" d="M981.5,548.7c-3.9,0-7.6.9-10.9,2.4-1.4-66.7-56.4-120.8-123.4-120.8h0c-67,0-122,54.1-123.4,120.8-3.3-1.5-7-2.4-10.9-2.4-14.3,0-26,11.7-26,26v20.2c0,14.3,11.7,26,26,26s7.6-.9,11-2.5c2.2,48.7,32.9,90.3,75.7,108.3v64.5h95.3v-64.5c42.8-18.1,73.5-59.6,75.7-108.3,3.3,1.6,7,2.5,11,2.5,14.3,0,26-11.7,26-26v-20.2c0-14.3-11.7-26-26-26Z"/>
      <path class="st3" d="M840.7,981.8v193.5h11.6v-302.2l81.8-107.9h-38.8c-15.4,5.6-31.5,8.4-47.7,8.4s-32.3-2.8-47.7-8.4h-40.9l81.8,107.9v108.7Z"/>
      <rect class="st0" x="618" y="1019.4" width="83.7" height="155.9"/>
      <rect class="st0" x="996.3" y="1019.4" width="83.7" height="155.9"/>
      <path class="st4" d="M1005.2,528.5h-18.6c-.8-65.4-46.4-120-107.4-134.6v-28.8h-63.9v28.4c-62,14-108.4,69-109.2,135h-16.9c-5.4,0-10.3,2.2-13.8,5.7-3.5,3.6-5.7,8.4-5.7,13.8,0,10.8,8.8,19.5,19.5,19.5h316.1c5.4,0,10.3-2.2,13.8-5.7,3.5-3.6,5.7-8.4,5.7-13.8,0-10.8-8.8-19.5-19.5-19.5Z"/>
    </g>
    <g>
      <path class="st2" d="M462,890v129.4h-83.7v155.9H83.7v-155.9H0v-129.4c0-54.3,34.7-100.4,83-117.6,13-4.6,27.1-7.2,41.7-7.2h212.6c14.1,0,27.6,2.3,40.3,6.6,49.1,16.7,84.5,63.3,84.5,118.1Z"/>
      <g>
        <rect class="st1" x="83.7" y="1103.1" width="294.5" height="52"/>
        <path class="st1" d="M378.3,1019.4v52H83.7v-52h-.7v-247c13-4.6,27.1-7.2,41.7-7.2h10.3v254.1h190.6v-254.1h11.7c14.1,0,27.6,2.3,40.3,6.6v247.5h.7Z"/>
      </g>
      <path class="st0" d="M363.5,548.7c-3.9,0-7.6.9-10.9,2.4-1.4-66.7-56.4-120.8-123.4-120.8h0c-67,0-122,54.1-123.4,120.8-3.3-1.5-7-2.4-10.9-2.4-14.3,0-26,11.7-26,26v20.2c0,14.3,11.7,26,26,26s7.6-.9,11-2.5c2.2,48.7,32.9,90.3,75.7,108.3v64.5h95.3v-64.5c42.8-18.1,73.5-59.6,75.7-108.3,3.3,1.6,7,2.5,11,2.5,14.3,0,26-11.7,26-26v-20.2c0-14.3-11.7-26-26-26Z"/>
      <path class="st3" d="M222.7,981.8v193.5h11.6v-302.2l81.8-107.9h-38.8c-15.4,5.6-31.5,8.4-47.7,8.4s-32.3-2.8-47.7-8.4h-40.9l81.8,107.9v108.7Z"/>
      <rect class="st0" y="1019.4" width="83.7" height="155.9"/>
      <rect class="st0" x="378.3" y="1019.4" width="83.7" height="155.9"/>
      <path class="st4" d="M387.3,528.5h-18.6c-.8-65.4-46.4-120-107.4-134.6v-28.8h-63.9v28.4c-62,14-108.4,69-109.2,135h-16.9c-5.4,0-10.3,2.2-13.8,5.7-3.5,3.6-5.7,8.4-5.7,13.8,0,10.8,8.8,19.5,19.5,19.5h316.1c5.4,0,10.3-2.2,13.8-5.7,3.5-3.6,5.7-8.4,5.7-13.8,0-10.8-8.8-19.5-19.5-19.5Z"/>
    </g>
  </g>
  <g>
    <circle class="st3" cx="540" cy="184.8" r="184.8"/>
    <path class="st5" d="M523,294.6c-7.9,0-15.4-3.6-20.4-9.9l-72.2-91.4c-8.9-11.3-7-27.6,4.3-36.5,11.3-8.9,27.6-7,36.5,4.3l49.4,62.5,76.7-121.9c7.6-12.2,23.7-15.8,35.8-8.2,12.1,7.6,15.8,23.7,8.2,35.8l-96.3,153c-4.5,7.1-12.2,11.7-20.6,12.1-.5,0-.9,0-1.4,0Z"/>
  </g>
</svg>