<svg xmlns="http://www.w3.org/2000/svg" id="Layer_1" data-name="Layer 1" viewBox="0 0 464.65 87.98"><defs><style>.cls-1{fill:#fff;}</style></defs><path class="cls-1" d="M308.32,28.12c.6-2.45,1.18-4.78,1.76-7.12.25-1,.56-2,.74-3a.87.87,0,0,1,1.13-.83,1.22,1.22,0,0,0,.27,0H365.4A21.71,21.71,0,0,1,373,18.25c3.9,1.42,5.9,4.27,6.35,8.32s-.57,7.9-1.54,11.76q-6,24.2-12.08,48.39c-.25,1-.68,1.26-1.66,1.26q-27.18,0-54.37,0a26.55,26.55,0,0,1-9-1.16,9.07,9.07,0,0,1-6.57-9c-.07-3,.77-5.74,1.48-8.56,1.05-4.18,2.07-8.36,3.15-12.54,2.35-9,8.6-14.28,17.92-15,1.49-.13,3-.19,4.5-.2,9.32,0,18.64,0,28,0,.92,0,1.27-.28,1.47-1.15.54-2.45,1.2-4.87,1.8-7.3.69-2.83-.71-4.69-3.64-4.83-.95,0-1.9,0-2.85,0H308.32Zm39.21,24.36a1.82,1.82,0,0,0-.35-.1c-5.33,0-10.67-.05-16,0a6.07,6.07,0,0,0-5.87,4.82q-1.9,7.41-3.72,14.84c-.7,2.83.58,4.72,3.52,4.8,5.24.15,10.48.08,15.72.12.68,0,.7-.46.81-.89q2.21-8.81,4.4-17.61C346.54,56.51,347,54.5,347.53,52.48Z"></path><path class="cls-1" d="M149.42,77c-.45,1.87-.85,3.52-1.26,5.18s-.87,3.25-1.22,4.89c-.15.74-.49.91-1.18.9-3.5,0-7,0-10.49,0H90.66a24.56,24.56,0,0,1-7.9-1,9.47,9.47,0,0,1-6.83-8.93c-.23-4,.7-7.71,1.65-11.49,2.65-10.51,5.26-21,7.92-31.56a28.23,28.23,0,0,1,4.68-10.19,18.74,18.74,0,0,1,13.61-7.44,43.79,43.79,0,0,1,4.86-.21c13,0,25.94-.05,38.91,0a23.49,23.49,0,0,1,6.23.93c4.36,1.26,6.71,4.57,6.94,9.11.2,4-.78,7.77-1.73,11.57-1.89,7.55-3.79,15.11-5.65,22.68-.19.76-.47,1.06-1.33,1.05-15.21,0-30.42,0-45.62,0-.82,0-1.17.19-1.36,1-.67,2.91-1.44,5.81-2.14,8.72-.64,2.65.62,4.4,3.32,4.66.7.07,1.41.1,2.11.1q19.83,0,39.65,0ZM108.07,51.43a2.18,2.18,0,0,0,.32.09c6.72,0,13.43,0,20.14,0a1,1,0,0,0,.71-.59q2.34-9.2,4.59-18.41a3.23,3.23,0,0,0-2.65-4.19,5.77,5.77,0,0,0-1.36-.18q-6,0-12,0a4.57,4.57,0,0,0-4.63,3.22,13.82,13.82,0,0,0-.54,1.65q-1.31,5.2-2.6,10.41Z"></path><path class="cls-1" d="M0,2.22H1.07c9.39,0,18.77,0,28.15,0,.86,0,1.19.16,1.3,1.1.72,6.23,1.53,12.45,2.32,18.67s1.56,12.19,2.32,18.29,1.51,12.14,2.28,18.21q.73,5.88,1.49,11.75s.06.09.19.27c.24-.34.46-.64.65-1L62.56,32.14Q71.44,17.56,80.35,3a1.53,1.53,0,0,1,1-.72c4.45,0,8.89,0,13.34,0a5.19,5.19,0,0,1,.56.08l-2.47,4Q67.28,46.64,41.8,87a1.74,1.74,0,0,1-1.67,1q-13.51,0-27,0c-.86,0-1.22-.2-1.34-1.1Q10.29,76,8.76,65.15c-1-6.81-1.93-13.62-2.88-20.44q-1.51-10.89-3-21.81Q1.44,12.73,0,2.55A3,3,0,0,1,0,2.22Z"></path><path class="cls-1" d="M464.65,17.15c-.92,3.72-1.82,7.32-2.73,11H422.86a13.49,13.49,0,0,0-2,.14,4.67,4.67,0,0,0-4,3.53q-.84,2.9-1.46,5.87c-.44,2.15.44,3.3,2.65,3.63a11.34,11.34,0,0,0,1.65.1c7.63,0,15.27,0,22.9,0a17.65,17.65,0,0,1,8,1.81,8.71,8.71,0,0,1,4.89,7.66,25,25,0,0,1-1.09,7.87c-1.21,4.68-2.32,9.38-3.55,14-2.3,8.78-8.44,14-17.48,14.86-1.7.17-3.42.26-5.14.26q-24.82,0-49.67,0h-1.39c.25-1,.46-1.91.68-2.79.6-2.4,1.24-4.8,1.79-7.21.16-.74.45-1,1.22-1,3,0,6.07,0,9.1,0q13.71,0,27.42,0a12.58,12.58,0,0,0,3-.31A5.89,5.89,0,0,0,425,72.23c.38-1.45.75-2.9,1.09-4.36.61-2.6-.59-4.32-3.26-4.65a15.47,15.47,0,0,0-1.92-.12c-7.24,0-14.48,0-21.71,0a23.59,23.59,0,0,1-6-.78c-3.86-1.06-5.87-3.87-6.44-7.76a24,24,0,0,1,.74-9.46c1.22-4.76,2.42-9.54,3.93-14.21a24.26,24.26,0,0,1,3.24-6.14A17,17,0,0,1,409,17.2c7.6-.15,15.2-.05,22.81-.05h32.86Z"></path><path class="cls-1" d="M158.5,88c.91-3.61,1.75-7,2.64-10.41.06-.23.42-.43.68-.52a2.77,2.77,0,0,1,.82,0c12,0,24,0,36.06,0a12.27,12.27,0,0,0,3.62-.5,5.57,5.57,0,0,0,3.91-4.15c.4-1.54.79-3.08,1.15-4.63a3.36,3.36,0,0,0-3.07-4.45,14.79,14.79,0,0,0-2.2-.15c-7.82,0-15.64,0-23.46-.08a15.1,15.1,0,0,1-4.41-.79c-3.82-1.23-6.06-4.4-6.3-8.61a28.18,28.18,0,0,1,.92-8.91c1.2-4.54,2.33-9.12,3.75-13.6a23.86,23.86,0,0,1,2.92-5.79,17.24,17.24,0,0,1,14.84-8.12c6.71-.15,13.43-.05,20.15-.05H246c-.28,1.09-.52,2.09-.77,3.09-.59,2.37-1.2,4.74-1.76,7.12-.14.58-.36.82-1,.77s-1.29,0-1.93,0H204.18a12.29,12.29,0,0,0-2.1.15,4.55,4.55,0,0,0-3.82,3.41c-.6,2.09-1.11,4.2-1.55,6.32A2.53,2.53,0,0,0,199,41.23a11.22,11.22,0,0,0,1.92.16c7.67,0,15.34,0,23,.08a21.79,21.79,0,0,1,5.78.91c5.61,1.62,7.83,5.76,7,11.07-.66,4.34-1.87,8.59-2.91,12.87-.69,2.85-1.34,5.72-2.29,8.49-2.49,7.34-7.8,11.44-15.36,12.66a40.41,40.41,0,0,1-6.41.47q-25,.06-49.95,0Z"></path><path class="cls-1" d="M287,77c-.89,3.57-1.74,7-2.63,10.43-.05.21-.4.36-.62.52,0,0-.12,0-.18,0-9.53,0-19.07,0-28.61-.12A11.91,11.91,0,0,1,248.76,86c-2.88-1.78-4.2-4.5-4.64-7.75-.55-4.1.39-8,1.37-12Q251.8,41,258.11,15.74a1.64,1.64,0,0,1,.89-1.26Q273.53,7.41,288.05.3c.16-.08.33-.14.7-.3-1.43,5.76-2.83,11.36-4.26,17.1h14.89l-2.73,11h-1c-4.33,0-8.65,0-13,0a1,1,0,0,0-1.17.91q-5.1,20.57-10.23,41.11a19.26,19.26,0,0,0-.45,2.52c-.29,2.63.93,4.15,3.58,4.24,3.31.12,6.62.09,9.93.12C285.17,77,286,77,287,77Z"></path></svg>