<svg id="Layer_1" data-name="Layer 1" xmlns="http://www.w3.org/2000/svg" viewBox="0 0 2560 1080"><defs><style>.cls-1{fill:#082b29;}.cls-2,.cls-3{fill:#0b3a36;}.cls-14,.cls-3,.cls-4,.cls-6{fill-rule:evenodd;}.cls-10,.cls-11,.cls-12,.cls-13,.cls-14,.cls-15,.cls-4,.cls-6,.cls-7,.cls-8{fill:none;}.cls-10,.cls-11,.cls-12,.cls-13,.cls-14,.cls-15,.cls-4,.cls-5,.cls-6,.cls-7,.cls-8,.cls-9{stroke:#0b3a36;}.cls-12,.cls-14,.cls-15,.cls-4{stroke-linejoin:round;}.cls-4{stroke-width:3.58px;}.cls-5,.cls-9{fill:#1a4966;}.cls-13,.cls-5,.cls-6,.cls-7,.cls-8,.cls-9{stroke-miterlimit:10;}.cls-5{stroke-width:1.46px;}.cls-6,.cls-9{stroke-width:1.43px;}.cls-7{stroke-width:2.86px;}.cls-8{stroke-width:4.29px;}.cls-10,.cls-12,.cls-14,.cls-15{stroke-linecap:round;}.cls-10,.cls-11{stroke-miterlimit:15.63;}.cls-10,.cls-11,.cls-12{stroke-width:4.9px;}.cls-13{stroke-width:5.36px;}.cls-14{stroke-width:4.21px;}.cls-15{stroke-width:3.67px;}</style></defs><rect class="cls-1" x="-44.56" y="-40.04" width="2619.29" height="1143.46" rx="22.13"/><path class="cls-2" d="M2088.88,612a4.25,4.25,0,0,1-4.24-4.25,4.31,4.31,0,0,1,.84-2.52l1.76-2.4a27.31,27.31,0,0,0,5-12l.36-2.74A40.79,40.79,0,0,1,2080,559.31c0-24.83,24.16-45,53.86-45s53.87,20.21,53.87,45-24.17,45-53.87,45a62.65,62.65,0,0,1-24.25-4.79,31.85,31.85,0,0,1-17.06,11.65l-2.56.71A4.48,4.48,0,0,1,2088.88,612Zm45-93.17c-27.16,0-49.26,18.13-49.26,40.44a36.44,36.44,0,0,0,12,26.43l.86.8-.69,5.1a31.83,31.83,0,0,1-5.87,14l-1.18,1.54,1.61-.45a27.14,27.14,0,0,0,15.55-11.36l1.08-1.66,1.8.83a57.83,57.83,0,0,0,24.09,5.18c27.17,0,49.27-18.14,49.27-40.42S2161.07,518.87,2133.9,518.87Z"/><path class="cls-2" d="M2206.47,632.38a4.58,4.58,0,0,1-1.17-.15l-2.58-.71a31.62,31.62,0,0,1-17-11.67,62.76,62.76,0,0,1-24.26,4.81,59.83,59.83,0,0,1-36-11.52,2.3,2.3,0,0,1-.5-3.21l.09-.11h0a2.29,2.29,0,0,1,3.18-.34,55.15,55.15,0,0,0,33.23,10.59,57.86,57.86,0,0,0,24.12-5.23l1.87-.78,1.09,1.67A27.16,27.16,0,0,0,2204,627.1l1.61.44-1.18-1.61a31.84,31.84,0,0,1-5.84-13.95l-.67-5.15.84-.81a36.47,36.47,0,0,0,12-26.4c0-12.73-7.31-24.65-19.64-32.29a2.32,2.32,0,0,1-.82-3.07h0a2.3,2.3,0,0,1,3.12-.9l.16.09c13.78,8.47,21.82,21.86,21.82,36.2a40.8,40.8,0,0,1-12.63,28.88l.36,2.79a27.42,27.42,0,0,0,5,11.89l1.64,2.23a4.43,4.43,0,0,1,.29,5A4.19,4.19,0,0,1,2206.47,632.38Z"/><path class="cls-2" d="M2136.19,539.59h24.4a2.3,2.3,0,0,1,2.3,2.3h0a2.3,2.3,0,0,1-2.3,2.3h-24.4a2.29,2.29,0,0,1-2.29-2.3h0A2.29,2.29,0,0,1,2136.19,539.59Z"/><path class="cls-2" d="M2103.35,539.59h24.89a2.3,2.3,0,0,1,2.3,2.3h0a2.3,2.3,0,0,1-2.3,2.3h-24.89a2.3,2.3,0,0,1-2.29-2.3h0A2.3,2.3,0,0,1,2103.35,539.59Z"/><path class="cls-2" d="M2160.44,559.52h-42a2.37,2.37,0,0,1-2.45-2.3h0a2.38,2.38,0,0,1,2.45-2.3h42a2.38,2.38,0,0,1,2.45,2.29h0A2.39,2.39,0,0,1,2160.44,559.52Z"/><path class="cls-2" d="M2103.35,554.91h6.13a2.3,2.3,0,0,1,2.3,2.3h0a2.29,2.29,0,0,1-2.3,2.29h-6.13a2.29,2.29,0,0,1-2.29-2.29h0A2.3,2.3,0,0,1,2103.35,554.91Z"/><path class="cls-2" d="M2138.38,570.23h22.21a2.29,2.29,0,0,1,2.3,2.29h0a2.3,2.3,0,0,1-2.3,2.3h-22.21a2.3,2.3,0,0,1-2.29-2.3h0A2.29,2.29,0,0,1,2138.38,570.23Z"/><path class="cls-2" d="M2103.35,570.23h13a2.29,2.29,0,0,1,2.3,2.29h0a2.3,2.3,0,0,1-2.3,2.3h-13a2.3,2.3,0,0,1-2.29-2.3h0A2.29,2.29,0,0,1,2103.35,570.23Z"/><path class="cls-2" d="M2125.75,570h3.83a2.29,2.29,0,0,1,2.29,2.3h0a2.29,2.29,0,0,1-2.29,2.3h-3.83a2.3,2.3,0,0,1-2.3-2.3h0A2.3,2.3,0,0,1,2125.75,570Z"/><path class="cls-2" d="M696.17,731.49H730.7a9.44,9.44,0,0,0,9.41-9.42v-3.14a3.14,3.14,0,1,0-6.27,0v3.14a3.15,3.15,0,0,1-3.14,3.14H696.17a3.14,3.14,0,0,1-3.13-3.14v-3.14a3.14,3.14,0,0,0-6.28,0v3.14A9.45,9.45,0,0,0,696.17,731.49Z"/><path class="cls-2" d="M713.44,667.05a2.1,2.1,0,0,0,1.68-.73,2.31,2.31,0,0,0,0-3.37,2.31,2.31,0,0,0-3.37,0l-.19.14a1.86,1.86,0,0,0-.54,1.55,2.14,2.14,0,0,0,.73,1.68A2.63,2.63,0,0,0,713.44,667.05Z"/><path class="cls-2" d="M678.91,690.47a2.42,2.42,0,0,0,0,4.83H748a2.42,2.42,0,1,0,0-4.83Z"/><path class="cls-2" d="M683.93,656.89h-6.59a2.31,2.31,0,0,0-2.18,1.48l-23.48,45.71a1.12,1.12,0,0,1-.29.56v36.58a12.16,12.16,0,0,0,12.14,12.14H763a12.16,12.16,0,0,0,12.15-12.14V705.14l.21-.22c.08-.08.1-.12.1-.33h0l-23.74-46.53a2.81,2.81,0,0,0-2.18-1.49h-6.91a2.42,2.42,0,0,0,0,4.83h5.15L769.23,703H657.65l21.14-41.3h5.14a2.42,2.42,0,1,0,0-4.83Zm86.72,51v33.37a7.32,7.32,0,0,1-7.31,7.31H663.53l-.52,0a6.42,6.42,0,0,1-4.33-1.77,7.54,7.54,0,0,1-2.46-5.56V707.85Z"/><path class="cls-2" d="M713.44,632.09a13.26,13.26,0,0,0-13.09,13.09v10l-.15.19a16.4,16.4,0,0,0-3.3,9.92,2.65,2.65,0,0,0,2.41,2.41,2.42,2.42,0,0,0,2.42-2.41,11.25,11.25,0,0,1,3-7.73,10.79,10.79,0,0,1,8.68-4,11.69,11.69,0,0,1,11.7,11.71,12.47,12.47,0,0,1-2.68,7.68c-4.15,4.5-11.21,5.24-15.75,1.67a2.28,2.28,0,0,0-1.34-.39l-.42,0a2.14,2.14,0,0,0-2,2.63,2.47,2.47,0,0,0,.86,1.61,15.87,15.87,0,0,0,9.61,3,17.05,17.05,0,0,0,12.65-5.73A16.08,16.08,0,0,0,730,665a16.44,16.44,0,0,0-3.3-9.91l-.16-.2v-9.66A13.26,13.26,0,0,0,713.44,632.09Zm8.25,18.73-1.08-.62a15.28,15.28,0,0,0-14.35,0l-1.08.62v-5.64a8.26,8.26,0,1,1,16.51,0Z"/><path class="cls-2" d="M1826,700.25a60.87,60.87,0,1,0,60.87,60.87A61,61,0,0,0,1826,700.25ZM1826,819a57.89,57.89,0,1,1,57.89-57.89A58,58,0,0,1,1826,819Z"/><path class="cls-2" d="M1826,751.92a9.21,9.21,0,0,0-9.2,9.2,9.2,9.2,0,1,0,18.4,0A9.13,9.13,0,0,0,1826,751.92Zm0,15.56a6.36,6.36,0,1,1,6.36-6.36A6.35,6.35,0,0,1,1826,767.48Z"/><path class="cls-2" d="M1826,759.63a1.59,1.59,0,0,0-1.49,1.22,1.28,1.28,0,0,0,.54,1.35,1.9,1.9,0,0,0,1,.27,1.42,1.42,0,0,0,.81-.27,1.48,1.48,0,0,0,.54-1.49A1.34,1.34,0,0,0,1826,759.63Zm-.81,1.36Z"/><path class="cls-2" d="M1790.45,745l18.81,5a8.45,8.45,0,0,0,2.57.4c4.73,0,8-3.51,8-8.38V722.57a2.88,2.88,0,0,0-1.09-2.3,3.11,3.11,0,0,0-2.43-.54,42.62,42.62,0,0,0-27.73,21.1,2.88,2.88,0,0,0-.14,2.57A3.13,3.13,0,0,0,1790.45,745Zm.68-2.84h0a39.78,39.78,0,0,1,25.56-19.61v19.34c0,3.25-2,5.55-5,5.55a8.25,8.25,0,0,1-1.76-.27l-18.8-5Z"/><path class="cls-2" d="M1810.61,766.8c-.81-2.3-2.84-3.92-5.68-4.73l-17.72-4.74a3.2,3.2,0,0,0-2.71.41,2.5,2.5,0,0,0-1.08,1.89v1.49a42.72,42.72,0,0,0,10.69,28.27,2.68,2.68,0,0,0,2.16,1,2.85,2.85,0,0,0,2.43-1.36l10.56-15A7.86,7.86,0,0,0,1810.61,766.8Zm-3.79,5.55-10.55,15.15a39.5,39.5,0,0,1-10-26.24v-1.09l17.72,4.74a5.09,5.09,0,0,1,3.65,2.84C1808.31,769.1,1808,770.72,1806.82,772.35Z"/><path class="cls-2" d="M1832.39,781.27a7.61,7.61,0,0,0-6.36-3.65,7.92,7.92,0,0,0-6.36,3.65l-10.55,15a2.9,2.9,0,0,0-.41,2.57,3.42,3.42,0,0,0,1.76,1.89,42.79,42.79,0,0,0,31.38,0,2.73,2.73,0,0,0,1.76-1.89,3,3,0,0,0-.4-2.57Zm-20.84,16.78,10.56-15a4.91,4.91,0,0,1,3.92-2.43A4.72,4.72,0,0,1,1830,783l10.55,15A39.64,39.64,0,0,1,1811.55,798.05Z"/><path class="cls-2" d="M1841.45,766.8a7.77,7.77,0,0,0,1.22,7.17l10.55,15a3,3,0,0,0,2.43,1.36,3.19,3.19,0,0,0,2.16-1,42.72,42.72,0,0,0,10.69-28.27v-1.49h0a2.36,2.36,0,0,0-1-1.89,3,3,0,0,0-2.7-.41l-17.72,4.74A7.83,7.83,0,0,0,1841.45,766.8Zm24.21-6.76v1.08a39.22,39.22,0,0,1-10,26.24l-10.55-15c-1.08-1.63-1.49-3.25-.95-4.6a4.79,4.79,0,0,1,3.66-2.84Z"/><path class="cls-2" d="M1826,710.13a51,51,0,1,0,51,51A51,51,0,0,0,1826,710.13Zm33.41,85.48A47.52,47.52,0,0,1,1826,809.14a48.08,48.08,0,0,1-33.41-13.53A47.55,47.55,0,0,1,1778,761.12a48,48,0,0,1,96,0A47.32,47.32,0,0,1,1859.44,795.61Z"/><path class="cls-2" d="M1835.9,719.73a2.67,2.67,0,0,0-2.43.54,2.87,2.87,0,0,0-1.08,2.3v19.34c0,5,3.24,8.39,8,8.39a8.57,8.57,0,0,0,2.57-.41l18.66-5a3.08,3.08,0,0,0,2-1.62,2.88,2.88,0,0,0-.13-2.57A42.92,42.92,0,0,0,1835.9,719.73Zm6.22,27.46a9.6,9.6,0,0,1-1.75.27c-3,0-5-2.3-5-5.55V722.57a39.16,39.16,0,0,1,25.57,19.61Z"/><path class="cls-2" d="M1816.42,758.55a3.74,3.74,0,0,0-2.7-4.6h0a3.76,3.76,0,0,0-4.6,2.71,3.46,3.46,0,0,0,.41,2.84,4.25,4.25,0,0,0,2.3,1.76,2.35,2.35,0,0,0,.94.13A3.77,3.77,0,0,0,1816.42,758.55Zm-3.65.27a1.35,1.35,0,1,1,0-2.7,1.28,1.28,0,0,1,1.35,1.35A1.35,1.35,0,0,1,1812.77,758.82Z"/><path class="cls-2" d="M1826,751.25a3.79,3.79,0,1,0-3.79-3.79A3.87,3.87,0,0,0,1826,751.25Zm0-5.14a1.35,1.35,0,1,1-1.35,1.35A1.36,1.36,0,0,1,1826,746.11Z"/><path class="cls-2" d="M1831.71,769.24a4.33,4.33,0,0,0-1.62,2.43,3.61,3.61,0,0,0,.67,2.84,4,4,0,0,0,3.11,1.62,4.17,4.17,0,0,0,2.17-.67,4.35,4.35,0,0,0,1.62-2.44,3.59,3.59,0,0,0-.68-2.84A4,4,0,0,0,1831.71,769.24Zm3.52,3.11a1.36,1.36,0,0,1-2.71,0,1.28,1.28,0,0,1,1.35-1.36A1.47,1.47,0,0,1,1835.23,772.35Z"/><path class="cls-2" d="M1839.28,761.39a2.4,2.4,0,0,0,1-.13,4.25,4.25,0,0,0,2.3-1.76,3.5,3.5,0,0,0,.41-2.84,4.25,4.25,0,0,0-1.76-2.3,3.58,3.58,0,0,0-2.84-.41,3.78,3.78,0,0,0,.94,7.44Zm0-5.14a1.36,1.36,0,1,1-1.35,1.35A1.36,1.36,0,0,1,1839.28,756.25Z"/><path class="cls-2" d="M1816,775.46h0a4.1,4.1,0,0,0,2.16.67,3.61,3.61,0,0,0,3.11-1.62,3.72,3.72,0,0,0-.94-5.27,3.88,3.88,0,0,0-5.28.94A3.74,3.74,0,0,0,1816,775.46Zm2.16-4.47a1.37,1.37,0,0,1,1.36,1.36,1.36,1.36,0,1,1-1.36-1.36Z"/><path class="cls-2" d="M2354.11,760.27H2315a1.86,1.86,0,0,0,0,3.72h39.08a1.86,1.86,0,0,0,0-3.72Z"/><path class="cls-2" d="M2354.11,767.71H2315a1.86,1.86,0,0,0,0,3.72h39.08a1.86,1.86,0,0,0,0-3.72Z"/><path class="cls-2" d="M2354.11,775.15H2315a1.87,1.87,0,0,0,0,3.73h39.08a1.87,1.87,0,0,0,0-3.73Z"/><path class="cls-2" d="M2356,830a1.86,1.86,0,0,0-1.86-1.86H2315a1.86,1.86,0,0,0,0,3.72h39.08A1.86,1.86,0,0,0,2356,830Z"/><path class="cls-2" d="M2315,835.62a1.86,1.86,0,0,0,0,3.72h27a1.86,1.86,0,0,0,0-3.72Z"/><path class="cls-2" d="M2342,802.13a1.86,1.86,0,0,0,0-3.72h-27a1.86,1.86,0,0,0,0,3.72Z"/><path class="cls-2" d="M2313.17,817a3.73,3.73,0,0,0,3.73,3.72h7.44a3.73,3.73,0,0,0,3.72-3.72v-7.44a3.73,3.73,0,0,0-3.72-3.73h-7.44a3.73,3.73,0,0,0-3.73,3.73Zm3.73-7.44h7.44V817h-7.44Z"/><path class="cls-2" d="M2353,793.53l2.57-2.56H2315a1.86,1.86,0,0,0,0,3.72h37A5.82,5.82,0,0,1,2353,793.53Z"/><path class="cls-2" d="M2387.39,759.1a3.71,3.71,0,0,0-3.51-2.55h-18.61a3.72,3.72,0,0,0-3.72,3.72v18.61a3.71,3.71,0,0,0,2.55,3.51l3.51-3.51h-2.34V760.27h18.61v2.34Z"/><path class="cls-2" d="M2370.76,813l-1.77.59V817a3.73,3.73,0,0,0,3.72,3.72h7.44a3.73,3.73,0,0,0,3.73-3.72v-7.44a3.73,3.73,0,0,0-3.73-3.73h-1.4l-3.73,3.73h5.13V817h-7.44v-5.16A5.5,5.5,0,0,1,2370.76,813Z"/><path class="cls-2" d="M2347.52,809.58l1.1-3.73h-3.82a3.73,3.73,0,0,0-3.72,3.73V817a3.73,3.73,0,0,0,3.72,3.72h7.45a3.7,3.7,0,0,0,3.57-2.75l-1.81.6a5.56,5.56,0,0,1-5.64-1.28,3.71,3.71,0,0,1-.27-.29h-3.3v-7.44Z"/><path class="cls-2" d="M2398.76,747.73V737a7.45,7.45,0,0,0-7.44-7.44h-81.87A7.45,7.45,0,0,0,2302,737v104.2a7.46,7.46,0,0,0,7.44,7.44h81.87a7.45,7.45,0,0,0,7.44-7.44V785.84l-3.72,3.72v51.65a3.73,3.73,0,0,1-3.72,3.72h-81.87a3.73,3.73,0,0,1-3.72-3.72V746.32H2395v5.13Zm-93-5.14V737a3.73,3.73,0,0,1,3.72-3.72h81.87A3.73,3.73,0,0,1,2395,737v5.58Z"/><path class="cls-2" d="M2409.38,745a1.85,1.85,0,0,0-2.63,0h0l-51.17,51.17a1.87,1.87,0,0,0-.47.79l-4.65,15.81a1.86,1.86,0,0,0,1.26,2.31,1.83,1.83,0,0,0,1.11,0l16.75-5.58a2,2,0,0,0,.73-.45l50.23-50.24a1.85,1.85,0,0,0,0-2.63h0ZM2355,810.41l3.51-11.95.21-.21,8.18,8.19Zm14.88-6.26-8.53-8.53,40.16-40.16,8.53,8.53Zm42.79-42.79-8.53-8.53,3.88-3.88,8.54,8.53Z"/><path class="cls-2" d="M2441.45,407.08a2.45,2.45,0,0,0-1.41-.44h-1.41l-.06-.71a21.2,21.2,0,0,0-.34-2.49,23.25,23.25,0,0,0-17-18.18l-.36-.09-.16-.34a5.43,5.43,0,0,0-4.88-3.09,5.37,5.37,0,0,0-4.94,3.26l-.15.34-.37.1a23.27,23.27,0,0,0-16.62,20.49l-.07.71h-1.4a2,2,0,0,0-2.14,1.82,1.72,1.72,0,0,0,.87,1.44,2.21,2.21,0,0,0,1.1.33h48.11a1.92,1.92,0,0,0,2-1.77A1.62,1.62,0,0,0,2441.45,407.08Zm-44.24-.44.1-.88c.07-.6.15-1.15.26-1.67a19.64,19.64,0,0,1,11.76-14.53l1.09-.44v6.06a1.6,1.6,0,1,0,3.2,0v-8.09a2.2,2.2,0,0,1,2.18-2.14,2.08,2.08,0,0,1,1.54.66,2.55,2.55,0,0,1,.46.63h.07l.08.29,0,.59v8.06a1.61,1.61,0,1,0,3.21,0v-6.26l1.06.36a19.64,19.64,0,0,1,12.47,14.85,14.12,14.12,0,0,1,.24,1.63l.1.88Z"/><path class="cls-2" d="M2389,450.22a22,22,0,0,1,18.88-10.52h10.25v-4h-10.25a26,26,0,0,0-22.26,12.4L2365.24,480a11,11,0,0,0,9.34,16.72,10.76,10.76,0,0,0,9.1-5l11.91-18.87v18a7.41,7.41,0,0,0,7.49,7.5h15v-4h-15a3.42,3.42,0,0,1-3.53-3.53V459.12l-19.23,30.46a6.85,6.85,0,0,1-9.53,2,6.68,6.68,0,0,1-3.11-4.31,6.54,6.54,0,0,1,.9-5.11Z"/><path class="cls-2" d="M2467.65,482.15a6.54,6.54,0,0,1,.9,5.11,6.68,6.68,0,0,1-3.11,4.31,6.85,6.85,0,0,1-9.53-2l-19.23-30.46v31.77a3.42,3.42,0,0,1-3.53,3.53h-15v4h15a7.41,7.41,0,0,0,7.49-7.5v-18l11.91,18.87a10.76,10.76,0,0,0,9.11,5A10.89,10.89,0,0,0,2471,480l-20.36-31.87a26,26,0,0,0-22.27-12.4h-10.24v4h10.24a22,22,0,0,1,18.88,10.52Z"/><path class="cls-2" d="M2432.11,410.23a15.77,15.77,0,0,1,.36,3.24,16.26,16.26,0,0,1-16.09,16.38h-.15A16.26,16.26,0,0,1,2400,413.76a16.52,16.52,0,0,1,.36-3.53h-3.94a20,20,0,0,0,19.81,23.49h.18a20.12,20.12,0,0,0,19.93-20.28,19.84,19.84,0,0,0-.31-3.21Z"/><path class="cls-2" d="M144,258.7a10,10,0,1,0-10-10h0a10,10,0,0,0,10,10Zm0-16.32a6.35,6.35,0,1,1-6.35,6.35h0A6.37,6.37,0,0,1,144,242.38Z"/><path class="cls-2" d="M150.9,262.33H137.12c-6.72,0-11.24,4.79-11.24,11.91v9.85a5.44,5.44,0,0,0,5.44,5.44h25.39a5.45,5.45,0,0,0,5.44-5.44v-9.85C162.15,267.12,157.63,262.33,150.9,262.33Zm7.62,21.76a1.81,1.81,0,0,1-1.81,1.81H131.32a1.82,1.82,0,0,1-1.82-1.81v-9.85c0-6.11,3.94-8.28,7.62-8.28H150.9c3.68,0,7.62,2.17,7.62,8.28Z"/><path class="cls-2" d="M213.83,248.73a10,10,0,1,0,10-10h0a10,10,0,0,0-10,10Zm16.32,0a6.35,6.35,0,1,1-6.35-6.35A6.36,6.36,0,0,1,230.15,248.73Z"/><path class="cls-2" d="M230.69,262.33H216.91c-6.73,0-11.24,4.79-11.24,11.91v9.85a5.44,5.44,0,0,0,5.44,5.44h25.38a5.44,5.44,0,0,0,5.44-5.44v-9.85C241.93,267.12,237.41,262.33,230.69,262.33Zm7.62,21.76a1.82,1.82,0,0,1-1.82,1.81H211.11a1.81,1.81,0,0,1-1.82-1.81v-9.85c0-6.11,3.94-8.28,7.62-8.28h13.78c3.68,0,7.62,2.17,7.62,8.28Z"/><path class="cls-2" d="M171.21,218.81H196.6a5.45,5.45,0,0,0,5.44-5.44v-9.85c0-5.77-3-10-7.66-11.41a13.6,13.6,0,0,1-3.72,3.12h.14c3.68,0,7.61,2.18,7.61,8.29v9.85a1.81,1.81,0,0,1-1.81,1.81H171.21a1.81,1.81,0,0,1-1.81-1.81v-9.85c0-6.11,3.93-8.29,7.61-8.29h.14a13.6,13.6,0,0,1-3.72-3.12c-4.69,1.41-7.66,5.64-7.66,11.41v9.85A5.46,5.46,0,0,0,171.21,218.81Z"/><path class="cls-2" d="M183.9,193.42a10,10,0,1,0-10-10h0a10,10,0,0,0,10,10Zm0-16.32a6.35,6.35,0,1,1-6.34,6.35h0A6.35,6.35,0,0,1,183.9,177.1Z"/><path class="cls-2" d="M201.06,253.72a5.64,5.64,0,0,0,5.51-5.75v-2.11a5.64,5.64,0,0,0-5.51-5.75h0l-.21-.5,0,0a5.41,5.41,0,0,0,1.56-4.16,5.91,5.91,0,0,0-1.73-3.8l-1.5-1.49a5.85,5.85,0,0,0-4.12-1.73,5.37,5.37,0,0,0-3.83,1.56l0,0-.5-.21v0a5.64,5.64,0,0,0-5.75-5.51h-2.11a5.64,5.64,0,0,0-5.75,5.51v0l-.5.21,0,0a5.35,5.35,0,0,0-3.82-1.56,5.87,5.87,0,0,0-4.13,1.73l-1.5,1.49a5.65,5.65,0,0,0-.18,8l0,0-.21.5h0a5.64,5.64,0,0,0-5.51,5.75V248a5.64,5.64,0,0,0,5.51,5.75h0l.21.5,0,0a5.63,5.63,0,0,0,.17,7.95l1.49,1.5a5.89,5.89,0,0,0,4.14,1.73,5.37,5.37,0,0,0,3.82-1.56l0,0,.5.21v0a5.64,5.64,0,0,0,5.75,5.51H185a5.64,5.64,0,0,0,5.75-5.51v0l.5-.21,0,0a5.37,5.37,0,0,0,3.83,1.56,5.85,5.85,0,0,0,4.12-1.73l1.5-1.49a5.92,5.92,0,0,0,1.74-4.14,5.37,5.37,0,0,0-1.58-3.83h0l.21-.5Zm-2.69-3.63a14.72,14.72,0,0,1-2,4.81l1.9,1.9a2,2,0,0,1-.16,2.83l-1.5,1.5a2.23,2.23,0,0,1-1.56.67,1.79,1.79,0,0,1-1.26-.51l-1.91-1.9a15,15,0,0,1-4.81,2v2.69A2,2,0,0,1,185,266h-2.11a2,2,0,0,1-2.12-1.89v-2.69a15,15,0,0,1-4.81-2l-1.91,1.9a1.76,1.76,0,0,1-1.25.51,2.25,2.25,0,0,1-1.57-.67l-1.5-1.5a2,2,0,0,1-.16-2.83l1.91-1.9a14.74,14.74,0,0,1-2-4.81h-2.69a2,2,0,0,1-1.88-2.12v-2.11a2,2,0,0,1,1.88-2.12h2.69a14.74,14.74,0,0,1,2-4.81l-1.91-1.9a2,2,0,0,1,.16-2.83l1.5-1.5a2.25,2.25,0,0,1,1.57-.67,1.76,1.76,0,0,1,1.25.51l1.91,1.91a14.74,14.74,0,0,1,4.81-2v-2.69a2,2,0,0,1,2.12-1.88H185a2,2,0,0,1,2.12,1.88v2.69a14.74,14.74,0,0,1,4.81,2l1.91-1.91a1.79,1.79,0,0,1,1.26-.51,2.23,2.23,0,0,1,1.56.67l1.5,1.5a2,2,0,0,1,.16,2.83l-1.9,1.9a14.81,14.81,0,0,1,2,4.81h2.69a2,2,0,0,1,1.89,2.12V248a2,2,0,0,1-1.89,2.12Z"/><path class="cls-2" d="M183.91,238.76a8.16,8.16,0,1,0,8.16,8.16h0A8.17,8.17,0,0,0,183.91,238.76Zm0,12.69a4.54,4.54,0,1,1,4.53-4.54A4.53,4.53,0,0,1,183.91,251.45Z"/><path class="cls-2" d="M142.31,235.13a1.82,1.82,0,0,0,1.82-1.82,1.94,1.94,0,0,0,0-.24c-.08-.66-1.84-15.32,11.87-23.24l-.21.49a1.81,1.81,0,1,0,3.32,1.44h0L162,205a1.82,1.82,0,0,0-1.9-2.52l-7.55,1a1.81,1.81,0,0,0,.46,3.6l.68-.09c-15.32,9.24-13.2,26.4-13.17,26.58A1.81,1.81,0,0,0,142.31,235.13Z"/><path class="cls-2" d="M206.75,206c12,5.29,14.71,15.13,15.23,21l-.62-1a1.81,1.81,0,0,0-3.08,1.92h0l4,6.43a1.8,1.8,0,0,0,1.53.85h.08a1.84,1.84,0,0,0,1.54-1l3.59-7a1.81,1.81,0,0,0-3.23-1.65h0l-.33.65a28.13,28.13,0,0,0-17.27-23.5,1.81,1.81,0,1,0-1.46,3.32Z"/><path class="cls-2" d="M2263.26,241.48A29.8,29.8,0,0,0,2288.87,212v-4.7a15.1,15.1,0,0,0-15.08-15.07h-3.72V183a1.76,1.76,0,0,0-1.76-1.76h-56a1.76,1.76,0,0,0-1.77,1.76v9.2h-3.72a15.09,15.09,0,0,0-15.07,15.07V212a29.79,29.79,0,0,0,25.6,29.49,29.71,29.71,0,0,0,11.59,8.57v8.19H2220a1.77,1.77,0,0,0-1.77,1.77v23.92a1.77,1.77,0,0,0,1.77,1.76h40.58a1.76,1.76,0,0,0,1.77-1.76V260a1.77,1.77,0,0,0-1.77-1.77h-8.94v-8.19A29.64,29.64,0,0,0,2263.26,241.48Zm4.11-6.53c.1-.23.21-.45.3-.68.23-.53.44-1.07.64-1.61l.18-.48c.24-.7.45-1.41.63-2.12.05-.18.08-.36.13-.54.13-.55.25-1.11.35-1.67l.12-.73c.08-.53.14-1.06.19-1.59,0-.23.05-.46.07-.69.06-.75.09-1.51.09-2.27V195.75h3.72a11.54,11.54,0,0,1,11.54,11.54V212a26.29,26.29,0,0,1-19.15,25.3c.06-.1.1-.2.16-.3l.33-.63C2266.92,235.89,2267.15,235.42,2267.37,235Zm-72.06-23v-4.7a11.55,11.55,0,0,1,11.54-11.54h3.72v26.82c0,.76,0,1.52.09,2.27,0,.23.05.46.07.69.05.53.12,1.06.2,1.59,0,.24.07.49.12.74.1.56.22,1.11.35,1.66l.12.54c.19.71.4,1.42.64,2.12.05.16.12.32.18.48q.28.81.63,1.62l.3.66c.22.49.46,1,.71,1.44l.32.6c.06.1.11.21.16.31A26.29,26.29,0,0,1,2195.31,212Zm63.54,49.79v20.38h-37V261.78h37Zm-26.35-3.54v-7h.06l.3.07c.65.17,1.31.31,2,.44l.79.13c.52.08,1,.15,1.56.2.28,0,.56.07.84.09.67.05,1.33.08,2,.08l.31,0,.31,0c.66,0,1.33,0,2-.08l.85-.09c.52,0,1-.12,1.55-.2l.79-.13c.68-.13,1.35-.28,2-.45l.24-.06h.07v7Zm16.8-11c-.72.27-1.45.49-2.18.69a26.5,26.5,0,0,1-6.8.89,26.83,26.83,0,0,1-4.56-.4,25.3,25.3,0,0,1-4.42-1.18h0a26.25,26.25,0,0,1-17.24-24.63V195.76h20.51a1.77,1.77,0,0,0,0-3.54H2214.1v-7.43h52.44v37.78c0,.74,0,1.47-.09,2.2a25.9,25.9,0,0,1-5.51,14h0A26.17,26.17,0,0,1,2249.3,247.2Z"/><path class="cls-2" d="M2229,266.32v11.3a1.77,1.77,0,0,0,1.77,1.77h19.18a1.77,1.77,0,0,0,1.77-1.77v-11.3a1.77,1.77,0,0,0-1.77-1.77h-19.18A1.77,1.77,0,0,0,2229,266.32Zm3.54,1.76h15.65v7.77H2232.5Z"/><path class="cls-2" d="M2241.77,240.84c-.48,0-1,.06-1.45.06a1.77,1.77,0,1,0,0,3.53c.58,0,1.15,0,1.73-.06a1.77,1.77,0,0,0-.28-3.53Z"/><path class="cls-2" d="M2234,239.8A18.39,18.39,0,0,1,2222,222.57a1.77,1.77,0,1,0-3.54,0,21.93,21.93,0,0,0,14.38,20.55,1.87,1.87,0,0,0,.61.11,1.77,1.77,0,0,0,.6-3.43Z"/><path class="cls-2" d="M2249,192.22h-2.76a1.77,1.77,0,0,0,0,3.54H2249a1.77,1.77,0,0,0,0-3.54Z"/><path class="cls-2" d="M2294.15,248.79a8,8,0,0,1-7.94-8,1.77,1.77,0,0,0-3.53,0,8,8,0,0,1-8,8,1.77,1.77,0,1,0,0,3.53,8,8,0,0,1,8,7.95,1.77,1.77,0,0,0,3.53,0,8,8,0,0,1,7.94-7.95,1.77,1.77,0,1,0,0-3.53Zm-9.71,5.37a11.49,11.49,0,0,0-3.61-3.6,3.61,3.61,0,1,1,7.21,0A11.56,11.56,0,0,0,2284.44,254.16Z"/><path class="cls-2" d="M2258.59,154.1a8,8,0,0,1,8,7.94,1.77,1.77,0,1,0,3.53,0,8,8,0,0,1,7.94-7.94,1.77,1.77,0,0,0,0-3.54,8,8,0,0,1-7.94-8,1.77,1.77,0,0,0-3.53,0,8,8,0,0,1-8,8,1.77,1.77,0,1,0,0,3.54Zm9.72-5.38a11.59,11.59,0,0,0,3.6,3.61,3.6,3.6,0,1,1-7.2,0A11.49,11.49,0,0,0,2268.31,148.72Z"/><path class="cls-2" d="M2237.06,169.18a4.22,4.22,0,0,1,4.21,4.21,1.77,1.77,0,0,0,3.53,0,4.21,4.21,0,0,1,4.2-4.21,1.77,1.77,0,1,0,0-3.53,4.21,4.21,0,0,1-4.2-4.21,1.77,1.77,0,1,0-3.53,0,4.22,4.22,0,0,1-4.21,4.21,1.77,1.77,0,1,0,0,3.53Zm6-2.82a8.17,8.17,0,0,0,1.06,1.06,8.09,8.09,0,0,0-1.06,1.05,7.44,7.44,0,0,0-1.05-1.05A7.51,7.51,0,0,0,2243,166.36Z"/><path class="cls-2" d="M2197.18,247.1a4.21,4.21,0,0,1-4.2-4.21,1.77,1.77,0,1,0-3.53,0,4.22,4.22,0,0,1-4.21,4.21,1.77,1.77,0,1,0,0,3.54,4.21,4.21,0,0,1,4.21,4.2,1.77,1.77,0,0,0,3.53,0,4.21,4.21,0,0,1,4.2-4.2,1.77,1.77,0,0,0,0-3.54Zm-6,2.82a8.09,8.09,0,0,0-1.06-1,8.84,8.84,0,0,0,1.06-1.06,8.09,8.09,0,0,0,1.05,1.06A7.44,7.44,0,0,0,2191.22,249.92Z"/><path class="cls-2" d="M2193.54,158.14a12,12,0,0,1,12,12,1.77,1.77,0,1,0,3.53,0,12,12,0,0,1,12-12,1.77,1.77,0,1,0,0-3.53,12,12,0,0,1-12-12,1.77,1.77,0,0,0-3.53,0,12,12,0,0,1-12,12,1.77,1.77,0,0,0,0,3.53Zm13.77-8.34a15.65,15.65,0,0,0,6.57,6.57,15.65,15.65,0,0,0-6.57,6.57,15.65,15.65,0,0,0-6.57-6.57A15.65,15.65,0,0,0,2207.31,149.8Z"/><path class="cls-2" d="M863.76,191.78l4.43-12.13a2.49,2.49,0,1,0-4.68-1.71l-4.44,12.12a2.5,2.5,0,0,0,4.69,1.72Z"/><path class="cls-2" d="M874.36,204.59l11.75-5.45a2.5,2.5,0,0,0-2.1-4.53l-11.74,5.46a2.49,2.49,0,1,0,2.09,4.52Z"/><path class="cls-2" d="M873.59,221.1l12.17,4.4a2.49,2.49,0,1,0,1.7-4.68l-12.17-4.41a2.49,2.49,0,1,0-1.7,4.69Z"/><path class="cls-2" d="M860.13,208.45a16.94,16.94,0,0,0-20.14-9L834.63,188a2.5,2.5,0,0,0-3.94-.79l-38.93,35.47-13.1,6.09a15.91,15.91,0,0,0,7.71,30.31l8.09,17.31a11.61,11.61,0,0,0,21-9.8l-7.23-15.43,49.28-6.52a2.48,2.48,0,0,0,1.93-3.52l-5.35-11.45A16.78,16.78,0,0,0,860.13,208.45ZM775.45,247.8a10.92,10.92,0,0,1,5.31-14.54l11.2-5.2,9.28,19.83-11.18,5.2A11,11,0,0,1,775.45,247.8Zm32.33,29.65a6.65,6.65,0,0,1-8.8-3.21l-7.63-16.3c.27-.11.54-.2.81-.33l11.21-5.21L811,268.67A6.59,6.59,0,0,1,807.78,277.45Zm-1.72-31.06-.58-1.23,0,0-9.25-19.77,35.35-32.21,22,47ZM852,225.06,842.13,204a12,12,0,0,1,13.49,6.55A11.82,11.82,0,0,1,852,225.06Z"/><path class="cls-2" d="M982.83,817.7h-.14v-6.21a2.44,2.44,0,0,0-2.37-2.38H974.1V779.34a2.37,2.37,0,0,0-2.36-2.31h-7.13a2.28,2.28,0,0,0-2.25,2.3h0v29.77H956a2.35,2.35,0,0,0-2.27,2.38v6.21H932.41a10.07,10.07,0,0,0-10.15,10v3.19h-6.63a2.24,2.24,0,0,0-2.25,2.22V853.2a2.27,2.27,0,0,0,2.23,2.3h6.65v51.63a10.18,10.18,0,0,0,10.13,10.23h50.44A10.2,10.2,0,0,0,993,907.13V827.79a10.08,10.08,0,0,0-10.08-10.09Zm-15.89-36.08h2.58v27.49h-2.58Zm-8.59,32.07h19.76v4H958.35ZM918,850.92V835.46h4.29v15.46Zm70.45,56.21a5.63,5.63,0,0,1-5.59,5.65H932.41a5.6,5.6,0,0,1-5.57-5.62V827.79a5.49,5.49,0,0,1,5.45-5.51h23.38l.36,0c.13,0,.25,0,.37,0H980l.36,0c.13,0,.25,0,.37,0h2.14a5.5,5.5,0,0,1,5.59,5.41v79.44Z"/><path class="cls-2" d="M957.62,830.29a24,24,0,1,0,24,24h0A24,24,0,0,0,957.62,830.29Zm0,43.36A19.39,19.39,0,1,1,977,854.26h0A19.41,19.41,0,0,1,957.62,873.65Z"/><path class="cls-2" d="M944.89,852.35a2.29,2.29,0,0,0,0,4.58h25.48a2.29,2.29,0,1,0,0-4.58Z"/><path class="cls-2" d="M950,848.92h15.18a2.3,2.3,0,0,0,0-4.59H950a2.3,2.3,0,0,0,0,4.59Z"/><path class="cls-2" d="M965.22,860.37H950a2.29,2.29,0,1,0,0,4.58h15.18a2.29,2.29,0,0,0,0-4.58Z"/><path class="cls-2" d="M981,885.57a2.29,2.29,0,0,0-2.29-2.29h-42.1a2.3,2.3,0,0,0-2.29,2.29V903.9a2.29,2.29,0,0,0,2.29,2.29h42.1A2.28,2.28,0,0,0,981,903.9Zm-4.58,16H938.87V887.86h37.52Z"/><path class="cls-2" d="M1542,291.32h11.42v66.75a7.12,7.12,0,0,0,14.24,0v-29h59v29a7.12,7.12,0,0,0,14.24,0V291.32h12.34a1.41,1.41,0,0,0,1.41-1.42V268.42a1.42,1.42,0,0,0-1.41-1.42h-12.09a8.57,8.57,0,1,0-10.76,0H1565.2a8.58,8.58,0,1,0-10.75,0H1542a1.42,1.42,0,0,0-1.41,1.42V289.9A1.41,1.41,0,0,0,1542,291.32Zm93.75-36.72a5.74,5.74,0,1,1-5.74,5.74A5.75,5.75,0,0,1,1635.75,254.6Zm-75.92,0a5.74,5.74,0,1,1-5.74,5.74A5.74,5.74,0,0,1,1559.83,254.6Zm16.37,15.24-16.71,18.65h-14.72l16.71-18.65Zm18.54,0L1578,288.49H1563.3L1580,269.84Zm18.53,0-16.71,18.65h-14.72l16.71-18.65Zm18.54,0-16.71,18.65h-14.73l16.71-18.65Zm18.53,0-16.71,18.65h-14.72l16.71-18.65Zm-89.8,92.52a4.29,4.29,0,0,1-4.28-4.29V291.32h8.56v66.75A4.29,4.29,0,0,1,1560.54,362.36Zm7.12-36.09V291.32h59v34.95Zm70.38,31.8a4.28,4.28,0,1,1-8.56,0V291.32H1638Zm-.6-69.58,14.36-16v16Zm-79.77-18.65-14.25,15.9v-15.9Z"/><path class="cls-2" d="M1005.42,443.61a48,48,0,0,0-2.62,5.86,25.61,25.61,0,0,0-1.47,11.11,1.76,1.76,0,0,1-1.6,1.89h-.15a1.76,1.76,0,0,1-1.76-1.6,29.15,29.15,0,0,1,1.69-12.62,51.8,51.8,0,0,1,2.8-6.28,1.75,1.75,0,0,1,3.14,1.56l0,.07Zm98.81,30.71a1.75,1.75,0,1,0,1.75,1.75,1.75,1.75,0,0,0-1.75-1.75h0Zm-93.6-39a1.75,1.75,0,1,0-1.75,1.76A1.75,1.75,0,0,0,1010.63,435.3Zm77.09,62.25a8.78,8.78,0,0,1,3.32,7,8.44,8.44,0,0,1-3.34,6.7c-.73.56-1.47,1-2.21,1.58,0,0,0,0-.08.06a45.31,45.31,0,0,1-9.84,5.17,18.86,18.86,0,0,1-6.47,1.15,19.72,19.72,0,0,1-7.16-1.37,88,88,0,0,1-52.33-52.34,19.12,19.12,0,0,1-.23-13.63,45.27,45.27,0,0,1,5.22-9.9,1.59,1.59,0,0,1,.15-.21c.47-.68.93-1.36,1.44-2a8.51,8.51,0,0,1,6.7-3.34h.1a8.82,8.82,0,0,1,6.92,3.34l8.41,10.55a8.8,8.8,0,0,1-1,11.93l-4.76,4.33a55.9,55.9,0,0,0,28.32,28.31l4.34-4.75a8.77,8.77,0,0,1,11.91-.95ZM1019,441.86c-.23.3-.43.61-.65.91,2.89,3.8,8.14,10.37,15.29,18.09l1.37-1.25a5.24,5.24,0,0,0,.57-7.15l-8.41-10.55a5.31,5.31,0,0,0-4.17-2h-.06A5,5,0,0,0,1019,441.86Zm62.63,69.33c-3.95-3.05-10.18-8.1-17.38-14.76l-1.42,1.55a1.8,1.8,0,0,1-1.5.56c-.33,0-8-1.08-19.66-12.73s-12.69-19.34-12.73-19.66a1.76,1.76,0,0,1,.56-1.5l1.55-1.4c-6.65-7.21-11.71-13.43-14.76-17.38a40.38,40.38,0,0,0-3.6,7.24,15.64,15.64,0,0,0,.2,11.13,84.53,84.53,0,0,0,50.37,50.37,15.64,15.64,0,0,0,11.13.2A40.13,40.13,0,0,0,1081.61,511.19Zm6-6.65a5.3,5.3,0,0,0-2-4.24L1075,491.89a5.27,5.27,0,0,0-7.15.57l-1.25,1.37c7.71,7.16,14.28,12.41,18.08,15.3.3-.22.61-.42.91-.65a5,5,0,0,0,2-4ZM1124.48,453a1.75,1.75,0,0,0-2.21,1.12,35.82,35.82,0,0,1-12,16.87,1.75,1.75,0,0,0,2.17,2.75,39.27,39.27,0,0,0,13.14-18.53,1.75,1.75,0,0,0-1.1-2.22h0Zm-7.59-9.21c0,15.9-14.36,28.84-32.06,28.84h-.51a51.54,51.54,0,0,1-25.58,8.13h0a1.76,1.76,0,0,1-1.75-1.75,1.74,1.74,0,0,1,.75-1.44,26.46,26.46,0,0,0,9.57-9.66,28.29,28.29,0,0,1-14.52-24.12c0-15.92,14.39-28.87,32.09-28.87S1116.89,427.9,1116.89,443.82Zm-3.5,0c0-14-12.81-25.37-28.56-25.37s-28.59,11.38-28.59,25.37a25,25,0,0,0,14.16,21.85,1.76,1.76,0,0,1,.76,2.33,25,25,0,0,1-6.41,8.57,42.62,42.62,0,0,0,18-7.1,1.7,1.7,0,0,1,1.23-.35c.29,0,.59,0,.88,0C1100.59,469.15,1113.39,457.79,1113.39,443.82Zm-16.79-3.15v7.95a1.75,1.75,0,0,1-1.75,1.75h-4.3v4.3a1.76,1.76,0,0,1-1.76,1.75h-8a1.75,1.75,0,0,1-1.75-1.75v-4.3h-4.3a1.75,1.75,0,0,1-1.75-1.75v-8a1.75,1.75,0,0,1,1.75-1.75h4.3v-4.3a1.75,1.75,0,0,1,1.75-1.75h8a1.75,1.75,0,0,1,1.76,1.75h0v4.3h4.3a1.75,1.75,0,0,1,1.75,1.75Zm-3.5,1.75h-4.31a1.76,1.76,0,0,1-1.75-1.75v-4.32h-4.46v4.3a1.75,1.75,0,0,1-1.75,1.75h-4.3v4.47h4.3a1.75,1.75,0,0,1,1.75,1.75v4.29H1087v-4.29a1.75,1.75,0,0,1,1.75-1.75h4.31Z"/><path class="cls-3" d="M1308.33,202.9a2.23,2.23,0,0,0-.65-1.58l-21-21a2.23,2.23,0,0,0-1.58-.65h-55a2.24,2.24,0,0,0-2.24,2.24v102.9A2.23,2.23,0,0,0,1230,287H1292a24.41,24.41,0,0,1-4.83-4.47h-54.84V184.11h49.21v20.14a2.23,2.23,0,0,0,2.24,2.23h20.13v35.89c.74-.06,1.48-.1,2.24-.1s1.5,0,2.23.1ZM1286,202V186L1302,202Zm6.72,22.37a2.24,2.24,0,0,0,0-4.48h-49.22a2.24,2.24,0,0,0,0,4.48Zm-17.9,13.42a2.24,2.24,0,1,0,0-4.47h-31.32a2.24,2.24,0,1,0,0,4.47Zm9,13.42a2.24,2.24,0,0,0,0-4.47h-40.27a2.24,2.24,0,1,0,0,4.47Zm-17.9,13.42a2.24,2.24,0,1,0,0-4.47h-22.37a2.24,2.24,0,1,0,0,4.47Z"/><path class="cls-3" d="M1306.1,287A20.13,20.13,0,1,0,1286,266.88,20.13,20.13,0,0,0,1306.1,287Zm0-4.47a15.66,15.66,0,1,0-15.66-15.66A15.66,15.66,0,0,0,1306.1,282.54Zm-3.17-8.4a2.25,2.25,0,0,0,3.17,0l9.49-9.5a2.24,2.24,0,1,0-3.17-3.16l-7.9,7.91-4.75-4.75a2.24,2.24,0,0,0-3.16,3.17Z"/><path class="cls-2" d="M1555.55,834.38a7,7,0,0,0-7-7h-111a7,7,0,0,0-1.37,13.88v84.22a7.63,7.63,0,0,0,7.62,7.62h98.1a7.63,7.63,0,0,0,7.62-7.62V841.22A7,7,0,0,0,1555.55,834.38ZM1546,925.44a3.92,3.92,0,0,1-3.91,3.91H1444a3.91,3.91,0,0,1-3.9-3.91v-84H1546Zm2.54-87.93H1437.32a3.13,3.13,0,1,1,0-6.26h111.19a3.13,3.13,0,1,1,0,6.26Z"/><path class="cls-2" d="M1464.48,918a2,2,0,0,0,2-2,42.07,42.07,0,0,1,42-42h10l-7.62,7.62a1.93,1.93,0,0,0,2.73,2.73l10.94-10.94a1.87,1.87,0,0,0,0-2.73l-10.94-11a1.93,1.93,0,0,0-2.73,2.74l7.62,7.62h-10.16a45.79,45.79,0,0,0-45.73,45.73A1.91,1.91,0,0,0,1464.48,918Z"/><path class="cls-2" d="M1494.58,898.08a8,8,0,1,0,0,16,8.18,8.18,0,0,0,8-8A7.93,7.93,0,0,0,1494.58,898.08Zm0,12.51a4.3,4.3,0,1,1,4.3-4.3A4.33,4.33,0,0,1,1494.58,910.59Z"/><path class="cls-2" d="M1519.78,896.52a1.93,1.93,0,0,0-2.73,2.74l3.32,3.32-3.13,3.12a1.94,1.94,0,0,0,2.74,2.74l3.32-3.32,3.32,3.32a1.94,1.94,0,0,0,2.74-2.74l-3.32-3.32,3.32-3.32a1.94,1.94,0,0,0-2.74-2.74l-3.51,3.52Z"/><path class="cls-2" d="M1485.39,865.06a1.9,1.9,0,0,0,2.74,0l3.12-3.32,3.33,3.32a1.93,1.93,0,1,0,2.73-2.74L1494,859l3.13-3.13a1.93,1.93,0,0,0-2.74-2.73l-3.13,3.12-3.12-3.12a1.93,1.93,0,0,0-2.74,2.73l3.13,3.13-3.13,3.32A1.89,1.89,0,0,0,1485.39,865.06Z"/><path class="cls-2" d="M1457.06,880.11a1.88,1.88,0,0,0,2.73,0l3.32-3.33,3.33,3.33a1.93,1.93,0,0,0,2.73-2.74l-3.51-3.13,3.32-3.32a1.94,1.94,0,1,0-2.74-2.74l-3.32,3.33-3.13-3.33a1.93,1.93,0,0,0-2.73,2.74l3.32,3.32-3.32,3.32A1.68,1.68,0,0,0,1457.06,880.11Z"/><path class="cls-2" d="M1571.94,542.77c-.85-1.79-1.38-6.74-1.38-8.91,0-26.47,32.12-39.81,50.83-21.09a30.7,30.7,0,0,1,7.18,31.27L1609,584.22c29.48,4.53,23.78,26.94-8.64,26.94-32.7,0-38.18-22.72-8.18-27Zm5.27-2.26,23.36,47.82L1623.24,542c.9-2.17,1.16-5.8,1.16-8.18,0-21.4-25.94-32.16-41.08-17A24.16,24.16,0,0,0,1577.21,540.51ZM1598,596.14l-3.16-6.54c-9.65,1-24.89,6.8-11,12.86,17.56,7.65,50.09-1.32,34.43-9.54a34.29,34.29,0,0,0-11.92-3.27c-1.16,2.37-3,7.07-4.48,7.8A2.9,2.9,0,0,1,1598,596.14Z"/><path class="cls-2" d="M1600.36,516.57c14.6,0,22,17.77,11.65,28.16s-28.16,2.95-28.16-11.66A16.49,16.49,0,0,1,1600.36,516.57Zm7.59,8.91a10.75,10.75,0,1,0,0,15.19A10.76,10.76,0,0,0,1608,525.48Z"/><path class="cls-2" d="M1296.17,621a5.65,5.65,0,1,0,5.65-5.65A5.65,5.65,0,0,0,1296.17,621Z"/><path class="cls-2" d="M1301.82,628.77a8,8,0,0,1-2.59-.47l-3.52,65a1.84,1.84,0,0,0,1.86,2h8.53a1.84,1.84,0,0,0,1.86-2l-3.52-65A7.81,7.81,0,0,1,1301.82,628.77Z"/><path class="cls-2" d="M1348.15,647.18l-29.35-23.33a6.6,6.6,0,0,0-3.5-1.22h-5.88a7.69,7.69,0,0,1-2.25,4l38.49,22.19a3.23,3.23,0,0,0,2.87.28C1349.17,648.72,1349,647.86,1348.15,647.18Z"/><path class="cls-2" d="M1299.43,613.54l0,.06a7.67,7.67,0,0,1,2.35-.4,7.59,7.59,0,0,1,1.86.25l0-44.94a3.24,3.24,0,0,0-1.18-2.63c-.65-.37-1.31.2-1.47,1.27l-5.54,37.09a6.54,6.54,0,0,0,.69,3.64Z"/><path class="cls-2" d="M1296.61,626.73a7.76,7.76,0,0,1-2.23-3.57l-38.88,22.58a3.28,3.28,0,0,0-1.68,2.34c0,.75.84,1,1.85.63l34.85-13.82a6.62,6.62,0,0,0,2.81-2.43l3.25-5.66Z"/><path class="cls-2" d="M2107.67,911.74a3.93,3.93,0,1,0,3.93-3.92A3.93,3.93,0,0,0,2107.67,911.74Z"/><path class="cls-2" d="M2111.6,917.15a5.32,5.32,0,0,1-1.8-.33L2107.35,962a1.29,1.29,0,0,0,1.29,1.37h5.93a1.3,1.3,0,0,0,1.3-1.37l-2.45-45.17A5.49,5.49,0,0,1,2111.6,917.15Z"/><path class="cls-2" d="M2143.81,930l-20.41-16.22a4.62,4.62,0,0,0-2.43-.84h-4.09a5.37,5.37,0,0,1-1.56,2.77l26.75,15.42a2.25,2.25,0,0,0,2,.2C2144.51,931,2144.39,930.42,2143.81,930Z"/><path class="cls-2" d="M2109.93,906.57s0,0,0,0a5.16,5.16,0,0,1,1.63-.28,5.43,5.43,0,0,1,1.29.17V875.26a2.29,2.29,0,0,0-.82-1.83c-.46-.25-.92.15-1,.89l-3.85,25.78a4.62,4.62,0,0,0,.48,2.53Z"/><path class="cls-2" d="M2108,915.74a5.36,5.36,0,0,1-1.55-2.49l-27,15.7a2.27,2.27,0,0,0-1.17,1.63c0,.52.58.71,1.28.44l24.23-9.61a4.57,4.57,0,0,0,2-1.69l2.27-3.94A.08.08,0,0,1,2108,915.74Z"/><path class="cls-2" d="M483.41,164.08a3.93,3.93,0,1,0,3.93-3.93A3.92,3.92,0,0,0,483.41,164.08Z"/><path class="cls-2" d="M487.34,169.49a5.32,5.32,0,0,1-1.8-.33l-2.45,45.17a1.28,1.28,0,0,0,1.29,1.36h5.93a1.28,1.28,0,0,0,1.29-1.36l-2.45-45.18A5.2,5.2,0,0,1,487.34,169.49Z"/><path class="cls-2" d="M519.54,182.29l-20.4-16.22a4.58,4.58,0,0,0-2.44-.85h-4.08a5.38,5.38,0,0,1-1.57,2.78l26.76,15.42a2.29,2.29,0,0,0,2,.2C520.25,183.35,520.13,182.76,519.54,182.29Z"/><path class="cls-2" d="M485.67,158.9l0,0a5.53,5.53,0,0,1,1.64-.28,5.08,5.08,0,0,1,1.29.18V127.59a2.26,2.26,0,0,0-.83-1.82c-.45-.26-.91.14-1,.88l-3.85,25.78a4.64,4.64,0,0,0,.48,2.54Z"/><path class="cls-2" d="M483.71,168.07a5.41,5.41,0,0,1-1.55-2.48l-27,15.69a2.27,2.27,0,0,0-1.17,1.63c0,.52.58.72,1.28.44l24.23-9.61a4.56,4.56,0,0,0,1.95-1.69l2.26-3.93A.17.17,0,0,0,483.71,168.07Z"/><path class="cls-2" d="M2494.44,155a3.93,3.93,0,1,0,3.93-3.92A3.92,3.92,0,0,0,2494.44,155Z"/><path class="cls-2" d="M2498.37,160.44a5.32,5.32,0,0,1-1.8-.33l-2.45,45.17a1.29,1.29,0,0,0,1.29,1.37h5.93a1.29,1.29,0,0,0,1.29-1.37l-2.44-45.17A5.53,5.53,0,0,1,2498.37,160.44Z"/><path class="cls-2" d="M2530.57,173.24,2510.17,157a4.65,4.65,0,0,0-2.44-.84h-4.08a5.31,5.31,0,0,1-1.57,2.77l26.76,15.42a2.23,2.23,0,0,0,2,.2C2531.28,174.31,2531.16,173.71,2530.57,173.24Z"/><path class="cls-2" d="M2496.7,149.86l0,0a5.23,5.23,0,0,1,1.64-.28,5.49,5.49,0,0,1,1.29.17V118.55a2.29,2.29,0,0,0-.82-1.83c-.46-.25-.92.15-1,.89L2494,143.39a4.62,4.62,0,0,0,.48,2.53Z"/><path class="cls-2" d="M2494.74,159a5.34,5.34,0,0,1-1.54-2.49l-27,15.7a2.27,2.27,0,0,0-1.17,1.63c0,.52.58.71,1.28.44l24.23-9.61a4.57,4.57,0,0,0,1.95-1.69l2.26-3.94A.08.08,0,0,0,2494.74,159Z"/><path class="cls-2" d="M58.33,820.92A3.93,3.93,0,1,0,62.26,817,3.92,3.92,0,0,0,58.33,820.92Z"/><path class="cls-2" d="M62.26,826.33a5.42,5.42,0,0,1-1.8-.33L58,871.17a1.28,1.28,0,0,0,1.29,1.36h5.93a1.28,1.28,0,0,0,1.29-1.36L64.08,826A5.25,5.25,0,0,1,62.26,826.33Z"/><path class="cls-2" d="M94.47,839.13,74.06,822.91a4.51,4.51,0,0,0-2.43-.85H67.55A5.38,5.38,0,0,1,66,824.83l26.75,15.42a2.25,2.25,0,0,0,2,.2C95.18,840.19,95.06,839.59,94.47,839.13Z"/><path class="cls-2" d="M60.6,815.74l0,0a5.52,5.52,0,0,1,1.63-.28,5.1,5.1,0,0,1,1.3.18l0-31.25a2.29,2.29,0,0,0-.82-1.83c-.45-.25-.91.15-1,.89l-3.85,25.78a4.56,4.56,0,0,0,.48,2.54Z"/><path class="cls-2" d="M58.64,824.91a5.32,5.32,0,0,1-1.55-2.48l-27,15.69a2.3,2.3,0,0,0-1.17,1.63c0,.52.59.72,1.29.44l24.23-9.61a4.69,4.69,0,0,0,2-1.69L58.62,825S58.63,824.92,58.64,824.91Z"/><path class="cls-4" d="M299.91,797a2.18,2.18,0,0,0-2.16,2.16v24.32a1.09,1.09,0,0,1-1.1,1.08H246a2.16,2.16,0,0,0-2.16,2.12c0,4.22-.09,8.44-.09,12.67a4.63,4.63,0,0,0-4,4.2v4.28a8.39,8.39,0,0,0,7.73,8.35l3.92.09a19.5,19.5,0,0,1,39,.09h48.19a19.48,19.48,0,0,1,39,0c1.7-.09,5.46-.8,5.3-6.23l-.09-9.43c-.07-8.5-1.24-13.66-9.58-15l-11-1.76c-3.48-.55-6.11-1.35-7.07-2.58C344.18,807.33,339.46,797.53,317,797c-1.42,0-.83,0-2.27,0Zm25.43,7.33c6.11.35,12.44,2.85,21.85,17.06.43.66.92,3.17-1.24,3.17H319.21a1.13,1.13,0,0,1-1.07-1.18V805.5a1.14,1.14,0,0,1,1.07-1.18C321.3,804.31,323.31,804.18,325.34,804.29Zm-54.43,39.83a12.24,12.24,0,1,0,12.23,12.21A12.24,12.24,0,0,0,270.91,844.12Zm87.11,0a12.24,12.24,0,1,0,12.26,12.21A12.2,12.2,0,0,0,358,844.12Z"/><path class="cls-5" d="M385.25,854.79h0a1.35,1.35,0,0,1-1.33-1.38V746.67a1.35,1.35,0,0,1,1.33-1.38h0a1.35,1.35,0,0,1,1.32,1.38V853.41A1.35,1.35,0,0,1,385.25,854.79Z"/><path class="cls-6" d="M383.29,818.73v36.06h2.23a1.68,1.68,0,0,0,1.68-1.67V818.73Z"/><rect class="cls-7" x="301.85" y="778.41" width="5.22" height="17.92" rx="0.91"/><circle class="cls-8" cx="268.83" cy="796.94" r="20.78"/><path class="cls-9" d="M277.85,790,266,801.8l-6.21-6.21a1.78,1.78,0,0,0-2.52,2.51l7.47,7.47a1.76,1.76,0,0,0,2.52,0l13.09-13.09a1.84,1.84,0,0,0,0-2.51A1.72,1.72,0,0,0,277.85,790Z"/><polyline class="cls-10" points="257.94 507.55 268.78 506.5 276.54 512.88 282.93 505.13 290.68 511.51 297.07 503.76 304.82 510.14 311.21 502.39 318.28 501.7 328.62 510.22 320.11 520.56 259.76 526.4"/><path class="cls-11" d="M214.26,518.44l.53,5.42a4.24,4.24,0,0,1-3.83,4.65h0a4.25,4.25,0,0,1-4.66-3.83l-.52-5.42a4.25,4.25,0,0,1,3.83-4.66h0A4.41,4.41,0,0,1,214.26,518.44Z"/><path class="cls-12" d="M198.65,531.61,197,514.4c-1.92-19.8,25.43-22.45,37.45-23.61,16.5-1.6,23.34,10.11,24.53,22.37l.71,7.3c1,12.52-3.5,25.33-19.77,26.9-12,1.16-39.36,3.81-41.25-15.75L197,514.4"/><path class="cls-13" d="M586.67,454.28l23.73,11.63a.6.6,0,0,1,0,1.07l-53.75,26.35a.55.55,0,0,1-.53,0L502.39,467a.59.59,0,0,1,0-1.07l23.7-11.63"/><path class="cls-13" d="M559.73,382.18a3.57,3.57,0,0,0-6.68,0L522.85,463c0,8,15,14.44,33.54,14.44S589.93,471,589.93,463Z"/><polygon class="cls-14" points="1959.74 335.91 1915.66 335.91 1884.49 367.08 1884.49 411.16 1915.66 442.33 1959.74 442.33 1990.91 411.16 1990.91 367.08 1959.74 335.91"/><path class="cls-15" d="M1932.29,365.54V390"/><path class="cls-15" d="M1941.48,361v25.32"/><path class="cls-15" d="M1950.67,373.36v18.51"/><path class="cls-15" d="M1923.11,395.55v-30a4.78,4.78,0,0,1,4.87-4.88,4.57,4.57,0,0,1,4.31,4.58v-8.89a4.8,4.8,0,0,1,4.88-4.88,4.58,4.58,0,0,1,4.31,4.59v5.51a4.6,4.6,0,0,1,9.19,0v11a4.59,4.59,0,1,1,9.18,0v34.86s0,11.1-4.69,17.32h0a5.11,5.11,0,0,1-4.06,2h-19.7a9,9,0,0,1-5.81-2.06c-5-4.26-6.35-10.6-8.69-17.28-1.3-3.71-5.34-14.46-8.84-19.55a4.35,4.35,0,0,1,6.69-5.52,35.7,35.7,0,0,1,8.36,13.18"/></svg>